{
  "id": "the-seasons-januarytchaikovsky",
  "title": "As Estações: Janeiro",
  "artist": "Piotr Ilitch Tchaikovsky",
  "difficulty": "Difícil",
  "bpm": 72,
  "duration": 257,
  "category": "Clássicos",
  "isPremium": true,
  "coverUrl": "/images/covers/placeholder.png",
  "notes": [
    {
      "midi": 66,
      "time": 0,
      "duration": 0.417,
      "velocity": 1,
      "hand": "right"
    },
    {
      "midi": 68,
      "time": 0.417,
      "duration": 0.208,
      "velocity": 1,
      "hand": "right"
    },
    {
      "midi": 69,
      "time": 0.625,
      "duration": 0.208,
      "velocity": 1,
      "hand": "right"
    },
    {
      "midi": 50,
      "time": 0.833,
      "duration": 0.833,
      "velocity": 1,
      "hand": "left"
    },
    {
      "midi": 52,
      "time": 0.833,
      "duration": 1.667,
      "velocity": 1,
      "hand": "left"
    },
    {
      "midi": 59,
      "time": 0.833,
      "duration": 0.833,
      "velocity": 1,
      "hand": "left"
    },
    {
      "midi": 64,
      "time": 0.833,
      "duration": 0.833,
      "velocity": 1,
      "hand": "right"
    },
    {
      "midi": 68,
      "time": 0.833,
      "duration": 0.417,
      "velocity": 1,
      "hand": "right"
    },
    {
      "midi": 71,
      "time": 1.25,
      "duration": 0.417,
      "velocity": 1,
      "hand": "right"
    },
    {
      "midi": 49,
      "time": 1.667,
      "duration": 0.833,
      "velocity": 1,
      "hand": "left"
    },
    {
      "midi": 64,
      "time": 1.667,
      "duration": 1.667,
      "velocity": 1,
      "hand": "right"
    },
    {
      "midi": 69,
      "time": 2.083,
      "duration": 0.417,
      "velocity": 1,
      "hand": "right"
    },
    {
      "midi": 47,
      "time": 2.5,
      "duration": 0.417,
      "velocity": 1,
      "hand": "left"
    },
    {
      "midi": 52,
      "time": 2.5,
      "duration": 0.833,
      "velocity": 1,
      "hand": "left"
    },
    {
      "midi": 68,
      "time": 2.5,
      "duration": 0.417,
      "velocity": 1,
      "hand": "right"
    },
    {
      "midi": 71,
      "time": 2.5,
      "duration": 0.417,
      "velocity": 1,
      "hand": "right"
    },
    {
      "midi": 45,
      "time": 2.917,
      "duration": 0.417,
      "velocity": 1,
      "hand": "left"
    },
    {
      "midi": 69,
      "time": 2.917,
      "duration": 0.417,
      "velocity": 1,
      "hand": "right"
    },
    {
      "midi": 73,
      "time": 2.917,
      "duration": 0.417,
      "velocity": 1,
      "hand": "right"
    },
    {
      "midi": 44,
      "time": 3.333,
      "duration": 0.833,
      "velocity": 1,
      "hand": "left"
    },
    {
      "midi": 52,
      "time": 3.333,
      "duration": 1.667,
      "velocity": 1,
      "hand": "left"
    },
    {
      "midi": 64,
      "time": 3.333,
      "duration": 1.667,
      "velocity": 1,
      "hand": "right"
    },
    {
      "midi": 71,
      "time": 3.333,
      "duration": 0.833,
      "velocity": 1,
      "hand": "right"
    },
    {
      "midi": 76,
      "time": 3.333,
      "duration": 0.833,
      "velocity": 1,
      "hand": "right"
    },
    {
      "midi": 45,
      "time": 4.167,
      "duration": 0.833,
      "velocity": 1,
      "hand": "left"
    },
    {
      "midi": 69,
      "time": 4.167,
      "duration": 0.833,
      "velocity": 1,
      "hand": "right"
    },
    {
      "midi": 73,
      "time": 4.167,
      "duration": 0.833,
      "velocity": 1,
      "hand": "right"
    },
    {
      "midi": 73,
      "time": 5,
      "duration": 0.417,
      "velocity": 1,
      "hand": "right"
    },
    {
      "midi": 74,
      "time": 5.417,
      "duration": 0.208,
      "velocity": 1,
      "hand": "right"
    },
    {
      "midi": 76,
      "time": 5.625,
      "duration": 0.208,
      "velocity": 1,
      "hand": "right"
    },
    {
      "midi": 46,
      "time": 5.833,
      "duration": 0.833,
      "velocity": 1,
      "hand": "left"
    },
    {
      "midi": 54,
      "time": 5.833,
      "duration": 0.833,
      "velocity": 1,
      "hand": "left"
    },
    {
      "midi": 61,
      "time": 5.833,
      "duration": 0.833,
      "velocity": 1,
      "hand": "right"
    },
    {
      "midi": 66,
      "time": 5.833,
      "duration": 0.833,
      "velocity": 1,
      "hand": "right"
    },
    {
      "midi": 73,
      "time": 5.833,
      "duration": 0.417,
      "velocity": 1,
      "hand": "right"
    },
    {
      "midi": 78,
      "time": 5.833,
      "duration": 0.417,
      "velocity": 1,
      "hand": "right"
    },
    {
      "midi": 73,
      "time": 6.25,
      "duration": 0.417,
      "velocity": 1,
      "hand": "right"
    },
    {
      "midi": 47,
      "time": 6.667,
      "duration": 0.833,
      "velocity": 1,
      "hand": "left"
    },
    {
      "midi": 54,
      "time": 6.667,
      "duration": 0.833,
      "velocity": 1,
      "hand": "left"
    },
    {
      "midi": 59,
      "time": 6.667,
      "duration": 0.833,
      "velocity": 1,
      "hand": "left"
    },
    {
      "midi": 66,
      "time": 6.667,
      "duration": 0.833,
      "velocity": 1,
      "hand": "right"
    },
    {
      "midi": 71,
      "time": 6.667,
      "duration": 0.833,
      "velocity": 1,
      "hand": "right"
    },
    {
      "midi": 74,
      "time": 6.667,
      "duration": 0.833,
      "velocity": 1,
      "hand": "right"
    },
    {
      "midi": 66,
      "time": 7.5,
      "duration": 0.417,
      "velocity": 1,
      "hand": "right"
    },
    {
      "midi": 68,
      "time": 7.917,
      "duration": 0.208,
      "velocity": 1,
      "hand": "right"
    },
    {
      "midi": 69,
      "time": 8.125,
      "duration": 0.208,
      "velocity": 1,
      "hand": "right"
    },
    {
      "midi": 47,
      "time": 8.333,
      "duration": 0.833,
      "velocity": 1,
      "hand": "left"
    },
    {
      "midi": 57,
      "time": 8.333,
      "duration": 0.833,
      "velocity": 1,
      "hand": "left"
    },
    {
      "midi": 63,
      "time": 8.333,
      "duration": 0.833,
      "velocity": 1,
      "hand": "right"
    },
    {
      "midi": 73,
      "time": 8.333,
      "duration": 0.417,
      "velocity": 1,
      "hand": "right"
    },
    {
      "midi": 70,
      "time": 8.75,
      "duration": 0.833,
      "velocity": 1,
      "hand": "right"
    },
    {
      "midi": 52,
      "time": 9.167,
      "duration": 0.833,
      "velocity": 1,
      "hand": "left"
    },
    {
      "midi": 56,
      "time": 9.167,
      "duration": 0.833,
      "velocity": 1,
      "hand": "left"
    },
    {
      "midi": 62,
      "time": 9.167,
      "duration": 0.833,
      "velocity": 1,
      "hand": "right"
    },
    {
      "midi": 71,
      "time": 9.583,
      "duration": 0.417,
      "velocity": 1,
      "hand": "right"
    },
    {
      "midi": 66,
      "time": 10,
      "duration": 0.417,
      "velocity": 1,
      "hand": "right"
    },
    {
      "midi": 68,
      "time": 10.417,
      "duration": 0.208,
      "velocity": 1,
      "hand": "right"
    },
    {
      "midi": 69,
      "time": 10.625,
      "duration": 0.208,
      "velocity": 1,
      "hand": "right"
    },
    {
      "midi": 50,
      "time": 10.833,
      "duration": 0.833,
      "velocity": 1,
      "hand": "left"
    },
    {
      "midi": 52,
      "time": 10.833,
      "duration": 1.667,
      "velocity": 1,
      "hand": "left"
    },
    {
      "midi": 59,
      "time": 10.833,
      "duration": 0.833,
      "velocity": 1,
      "hand": "left"
    },
    {
      "midi": 64,
      "time": 10.833,
      "duration": 0.833,
      "velocity": 1,
      "hand": "right"
    },
    {
      "midi": 68,
      "time": 10.833,
      "duration": 0.417,
      "velocity": 1,
      "hand": "right"
    },
    {
      "midi": 71,
      "time": 11.25,
      "duration": 0.417,
      "velocity": 1,
      "hand": "right"
    },
    {
      "midi": 49,
      "time": 11.667,
      "duration": 0.833,
      "velocity": 1,
      "hand": "left"
    },
    {
      "midi": 64,
      "time": 11.667,
      "duration": 1.667,
      "velocity": 1,
      "hand": "right"
    },
    {
      "midi": 69,
      "time": 12.083,
      "duration": 0.417,
      "velocity": 1,
      "hand": "right"
    },
    {
      "midi": 47,
      "time": 12.5,
      "duration": 0.417,
      "velocity": 1,
      "hand": "left"
    },
    {
      "midi": 52,
      "time": 12.5,
      "duration": 0.833,
      "velocity": 1,
      "hand": "left"
    },
    {
      "midi": 68,
      "time": 12.5,
      "duration": 0.417,
      "velocity": 1,
      "hand": "right"
    },
    {
      "midi": 71,
      "time": 12.5,
      "duration": 0.417,
      "velocity": 1,
      "hand": "right"
    },
    {
      "midi": 45,
      "time": 12.917,
      "duration": 0.417,
      "velocity": 1,
      "hand": "left"
    },
    {
      "midi": 69,
      "time": 12.917,
      "duration": 0.417,
      "velocity": 1,
      "hand": "right"
    },
    {
      "midi": 73,
      "time": 12.917,
      "duration": 0.417,
      "velocity": 1,
      "hand": "right"
    },
    {
      "midi": 44,
      "time": 13.333,
      "duration": 0.833,
      "velocity": 1,
      "hand": "left"
    },
    {
      "midi": 52,
      "time": 13.333,
      "duration": 1.667,
      "velocity": 1,
      "hand": "left"
    },
    {
      "midi": 64,
      "time": 13.333,
      "duration": 1.667,
      "velocity": 1,
      "hand": "right"
    },
    {
      "midi": 71,
      "time": 13.333,
      "duration": 0.833,
      "velocity": 1,
      "hand": "right"
    },
    {
      "midi": 76,
      "time": 13.333,
      "duration": 0.833,
      "velocity": 1,
      "hand": "right"
    },
    {
      "midi": 45,
      "time": 14.167,
      "duration": 0.833,
      "velocity": 1,
      "hand": "left"
    },
    {
      "midi": 69,
      "time": 14.167,
      "duration": 0.833,
      "velocity": 1,
      "hand": "right"
    },
    {
      "midi": 73,
      "time": 14.167,
      "duration": 0.833,
      "velocity": 1,
      "hand": "right"
    },
    {
      "midi": 73,
      "time": 15,
      "duration": 0.417,
      "velocity": 1,
      "hand": "right"
    },
    {
      "midi": 75,
      "time": 15.417,
      "duration": 0.208,
      "velocity": 1,
      "hand": "right"
    },
    {
      "midi": 76,
      "time": 15.625,
      "duration": 0.208,
      "velocity": 1,
      "hand": "right"
    },
    {
      "midi": 47,
      "time": 15.833,
      "duration": 2.5,
      "velocity": 1,
      "hand": "left"
    },
    {
      "midi": 64,
      "time": 15.833,
      "duration": 0.833,
      "velocity": 1,
      "hand": "right"
    },
    {
      "midi": 68,
      "time": 15.833,
      "duration": 0.417,
      "velocity": 1,
      "hand": "right"
    },
    {
      "midi": 73,
      "time": 16.25,
      "duration": 0.417,
      "velocity": 1,
      "hand": "right"
    },
    {
      "midi": 57,
      "time": 16.667,
      "duration": 0.417,
      "velocity": 1,
      "hand": "left"
    },
    {
      "midi": 63,
      "time": 16.667,
      "duration": 0.833,
      "velocity": 1,
      "hand": "right"
    },
    {
      "midi": 66,
      "time": 16.667,
      "duration": 0.833,
      "velocity": 1,
      "hand": "right"
    },
    {
      "midi": 71,
      "time": 16.667,
      "duration": 0.833,
      "velocity": 1,
      "hand": "right"
    },
    {
      "midi": 59,
      "time": 17.083,
      "duration": 0.417,
      "velocity": 1,
      "hand": "left"
    },
    {
      "midi": 56,
      "time": 17.5,
      "duration": 0.833,
      "velocity": 1,
      "hand": "left"
    },
    {
      "midi": 64,
      "time": 17.5,
      "duration": 0.833,
      "velocity": 1,
      "hand": "right"
    },
    {
      "midi": 71,
      "time": 17.5,
      "duration": 0.833,
      "velocity": 1,
      "hand": "right"
    },
    {
      "midi": 73,
      "time": 17.5,
      "duration": 0.417,
      "velocity": 1,
      "hand": "right"
    },
    {
      "midi": 75,
      "time": 17.917,
      "duration": 0.208,
      "velocity": 1,
      "hand": "right"
    },
    {
      "midi": 76,
      "time": 18.125,
      "duration": 0.208,
      "velocity": 1,
      "hand": "right"
    },
    {
      "midi": 47,
      "time": 18.333,
      "duration": 2.083,
      "velocity": 1,
      "hand": "left"
    },
    {
      "midi": 64,
      "time": 18.333,
      "duration": 0.833,
      "velocity": 1,
      "hand": "right"
    },
    {
      "midi": 68,
      "time": 18.333,
      "duration": 0.417,
      "velocity": 1,
      "hand": "right"
    },
    {
      "midi": 73,
      "time": 18.75,
      "duration": 0.417,
      "velocity": 1,
      "hand": "right"
    },
    {
      "midi": 57,
      "time": 19.167,
      "duration": 0.417,
      "velocity": 1,
      "hand": "left"
    },
    {
      "midi": 63,
      "time": 19.167,
      "duration": 0.833,
      "velocity": 1,
      "hand": "right"
    },
    {
      "midi": 66,
      "time": 19.167,
      "duration": 0.833,
      "velocity": 1,
      "hand": "right"
    },
    {
      "midi": 71,
      "time": 19.167,
      "duration": 0.833,
      "velocity": 1,
      "hand": "right"
    },
    {
      "midi": 59,
      "time": 19.583,
      "duration": 0.417,
      "velocity": 1,
      "hand": "left"
    },
    {
      "midi": 56,
      "time": 20,
      "duration": 0.417,
      "velocity": 1,
      "hand": "left"
    },
    {
      "midi": 64,
      "time": 20,
      "duration": 0.417,
      "velocity": 1,
      "hand": "right"
    },
    {
      "midi": 71,
      "time": 20,
      "duration": 0.417,
      "velocity": 1,
      "hand": "right"
    },
    {
      "midi": 73,
      "time": 20,
      "duration": 0.417,
      "velocity": 1,
      "hand": "right"
    },
    {
      "midi": 75,
      "time": 20.417,
      "duration": 0.208,
      "velocity": 1,
      "hand": "right"
    },
    {
      "midi": 76,
      "time": 20.625,
      "duration": 0.208,
      "velocity": 1,
      "hand": "right"
    },
    {
      "midi": 80,
      "time": 20.833,
      "duration": 0.417,
      "velocity": 1,
      "hand": "right"
    },
    {
      "midi": 76,
      "time": 21.25,
      "duration": 0.417,
      "velocity": 1,
      "hand": "right"
    },
    {
      "midi": 75,
      "time": 21.667,
      "duration": 0.417,
      "velocity": 1,
      "hand": "right"
    },
    {
      "midi": 73,
      "time": 22.083,
      "duration": 0.417,
      "velocity": 1,
      "hand": "right"
    },
    {
      "midi": 54,
      "time": 22.5,
      "duration": 0.417,
      "velocity": 1,
      "hand": "left"
    },
    {
      "midi": 63,
      "time": 22.5,
      "duration": 0.833,
      "velocity": 1,
      "hand": "right"
    },
    {
      "midi": 66,
      "time": 22.5,
      "duration": 0.833,
      "velocity": 1,
      "hand": "right"
    },
    {
      "midi": 73,
      "time": 22.5,
      "duration": 0.833,
      "velocity": 1,
      "hand": "right"
    },
    {
      "midi": 56,
      "time": 22.917,
      "duration": 0.208,
      "velocity": 1,
      "hand": "left"
    },
    {
      "midi": 57,
      "time": 23.125,
      "duration": 0.208,
      "velocity": 1,
      "hand": "left"
    },
    {
      "midi": 47,
      "time": 23.333,
      "duration": 0.833,
      "velocity": 1,
      "hand": "left"
    },
    {
      "midi": 61,
      "time": 23.333,
      "duration": 0.417,
      "velocity": 1,
      "hand": "right"
    },
    {
      "midi": 63,
      "time": 23.333,
      "duration": 0.833,
      "velocity": 1,
      "hand": "right"
    },
    {
      "midi": 66,
      "time": 23.333,
      "duration": 0.833,
      "velocity": 1,
      "hand": "right"
    },
    {
      "midi": 59,
      "time": 23.75,
      "duration": 0.417,
      "velocity": 1,
      "hand": "left"
    },
    {
      "midi": 52,
      "time": 24.167,
      "duration": 0.833,
      "velocity": 1,
      "hand": "left"
    },
    {
      "midi": 57,
      "time": 24.167,
      "duration": 0.417,
      "velocity": 1,
      "hand": "left"
    },
    {
      "midi": 59,
      "time": 24.167,
      "duration": 0.833,
      "velocity": 1,
      "hand": "left"
    },
    {
      "midi": 64,
      "time": 24.167,
      "duration": 0.833,
      "velocity": 1,
      "hand": "right"
    },
    {
      "midi": 56,
      "time": 24.583,
      "duration": 0.417,
      "velocity": 1,
      "hand": "left"
    },
    {
      "midi": 40,
      "time": 25,
      "duration": 0.417,
      "velocity": 1,
      "hand": "left"
    },
    {
      "midi": 74,
      "time": 25,
      "duration": 0.417,
      "velocity": 1,
      "hand": "right"
    },
    {
      "midi": 52,
      "time": 25.208,
      "duration": 0.208,
      "velocity": 1,
      "hand": "left"
    },
    {
      "midi": 54,
      "time": 25.417,
      "duration": 0.208,
      "velocity": 1,
      "hand": "left"
    },
    {
      "midi": 73,
      "time": 25.417,
      "duration": 0.208,
      "velocity": 1,
      "hand": "right"
    },
    {
      "midi": 56,
      "time": 25.625,
      "duration": 0.208,
      "velocity": 1,
      "hand": "left"
    },
    {
      "midi": 71,
      "time": 25.625,
      "duration": 0.208,
      "velocity": 1,
      "hand": "right"
    },
    {
      "midi": 52,
      "time": 25.833,
      "duration": 1.667,
      "velocity": 1,
      "hand": "left"
    },
    {
      "midi": 57,
      "time": 25.833,
      "duration": 0.208,
      "velocity": 1,
      "hand": "left"
    },
    {
      "midi": 63,
      "time": 25.833,
      "duration": 0.833,
      "velocity": 1,
      "hand": "right"
    },
    {
      "midi": 66,
      "time": 25.833,
      "duration": 0.417,
      "velocity": 1,
      "hand": "right"
    },
    {
      "midi": 59,
      "time": 26.042,
      "duration": 0.208,
      "velocity": 1,
      "hand": "left"
    },
    {
      "midi": 60,
      "time": 26.25,
      "duration": 0.833,
      "velocity": 1,
      "hand": "right"
    },
    {
      "midi": 69,
      "time": 26.25,
      "duration": 0.417,
      "velocity": 1,
      "hand": "right"
    },
    {
      "midi": 64,
      "time": 26.667,
      "duration": 0.833,
      "velocity": 1,
      "hand": "right"
    },
    {
      "midi": 68,
      "time": 26.667,
      "duration": 0.833,
      "velocity": 1,
      "hand": "right"
    },
    {
      "midi": 59,
      "time": 27.083,
      "duration": 0.417,
      "velocity": 1,
      "hand": "left"
    },
    {
      "midi": 45,
      "time": 27.5,
      "duration": 0.417,
      "velocity": 1,
      "hand": "left"
    },
    {
      "midi": 52,
      "time": 27.5,
      "duration": 1.667,
      "velocity": 1,
      "hand": "left"
    },
    {
      "midi": 61,
      "time": 27.5,
      "duration": 0.417,
      "velocity": 1,
      "hand": "right"
    },
    {
      "midi": 66,
      "time": 27.5,
      "duration": 0.417,
      "velocity": 1,
      "hand": "right"
    },
    {
      "midi": 44,
      "time": 27.917,
      "duration": 0.417,
      "velocity": 1,
      "hand": "left"
    },
    {
      "midi": 60,
      "time": 27.917,
      "duration": 0.417,
      "velocity": 1,
      "hand": "right"
    },
    {
      "midi": 68,
      "time": 27.917,
      "duration": 0.417,
      "velocity": 1,
      "hand": "right"
    },
    {
      "midi": 45,
      "time": 28.333,
      "duration": 0.417,
      "velocity": 1,
      "hand": "left"
    },
    {
      "midi": 61,
      "time": 28.333,
      "duration": 0.417,
      "velocity": 1,
      "hand": "right"
    },
    {
      "midi": 66,
      "time": 28.333,
      "duration": 0.417,
      "velocity": 1,
      "hand": "right"
    },
    {
      "midi": 44,
      "time": 28.75,
      "duration": 0.417,
      "velocity": 1,
      "hand": "left"
    },
    {
      "midi": 60,
      "time": 28.75,
      "duration": 0.417,
      "velocity": 1,
      "hand": "right"
    },
    {
      "midi": 68,
      "time": 28.75,
      "duration": 0.417,
      "velocity": 1,
      "hand": "right"
    },
    {
      "midi": 52,
      "time": 29.167,
      "duration": 0.833,
      "velocity": 1,
      "hand": "left"
    },
    {
      "midi": 57,
      "time": 29.167,
      "duration": 0.417,
      "velocity": 1,
      "hand": "left"
    },
    {
      "midi": 59,
      "time": 29.167,
      "duration": 0.833,
      "velocity": 1,
      "hand": "left"
    },
    {
      "midi": 64,
      "time": 29.167,
      "duration": 0.833,
      "velocity": 1,
      "hand": "right"
    },
    {
      "midi": 56,
      "time": 29.583,
      "duration": 0.417,
      "velocity": 1,
      "hand": "left"
    },
    {
      "midi": 40,
      "time": 30,
      "duration": 0.417,
      "velocity": 1,
      "hand": "left"
    },
    {
      "midi": 74,
      "time": 30,
      "duration": 0.417,
      "velocity": 1,
      "hand": "right"
    },
    {
      "midi": 52,
      "time": 30.208,
      "duration": 0.208,
      "velocity": 1,
      "hand": "left"
    },
    {
      "midi": 54,
      "time": 30.417,
      "duration": 0.208,
      "velocity": 1,
      "hand": "left"
    },
    {
      "midi": 73,
      "time": 30.417,
      "duration": 0.208,
      "velocity": 1,
      "hand": "right"
    },
    {
      "midi": 56,
      "time": 30.625,
      "duration": 0.208,
      "velocity": 1,
      "hand": "left"
    },
    {
      "midi": 71,
      "time": 30.625,
      "duration": 0.208,
      "velocity": 1,
      "hand": "right"
    },
    {
      "midi": 52,
      "time": 30.833,
      "duration": 1.667,
      "velocity": 1,
      "hand": "left"
    },
    {
      "midi": 57,
      "time": 30.833,
      "duration": 0.208,
      "velocity": 1,
      "hand": "left"
    },
    {
      "midi": 63,
      "time": 30.833,
      "duration": 0.833,
      "velocity": 1,
      "hand": "right"
    },
    {
      "midi": 66,
      "time": 30.833,
      "duration": 0.417,
      "velocity": 1,
      "hand": "right"
    },
    {
      "midi": 59,
      "time": 31.042,
      "duration": 0.208,
      "velocity": 1,
      "hand": "left"
    },
    {
      "midi": 60,
      "time": 31.25,
      "duration": 0.833,
      "velocity": 1,
      "hand": "right"
    },
    {
      "midi": 69,
      "time": 31.25,
      "duration": 0.417,
      "velocity": 1,
      "hand": "right"
    },
    {
      "midi": 64,
      "time": 31.667,
      "duration": 0.833,
      "velocity": 1,
      "hand": "right"
    },
    {
      "midi": 68,
      "time": 31.667,
      "duration": 0.833,
      "velocity": 1,
      "hand": "right"
    },
    {
      "midi": 59,
      "time": 32.083,
      "duration": 0.417,
      "velocity": 1,
      "hand": "left"
    },
    {
      "midi": 45,
      "time": 32.5,
      "duration": 0.417,
      "velocity": 1,
      "hand": "left"
    },
    {
      "midi": 52,
      "time": 32.5,
      "duration": 1.667,
      "velocity": 1,
      "hand": "left"
    },
    {
      "midi": 61,
      "time": 32.5,
      "duration": 0.417,
      "velocity": 1,
      "hand": "right"
    },
    {
      "midi": 66,
      "time": 32.5,
      "duration": 0.417,
      "velocity": 1,
      "hand": "right"
    },
    {
      "midi": 44,
      "time": 32.917,
      "duration": 0.417,
      "velocity": 1,
      "hand": "left"
    },
    {
      "midi": 60,
      "time": 32.917,
      "duration": 0.417,
      "velocity": 1,
      "hand": "right"
    },
    {
      "midi": 68,
      "time": 32.917,
      "duration": 0.417,
      "velocity": 1,
      "hand": "right"
    },
    {
      "midi": 45,
      "time": 33.333,
      "duration": 0.417,
      "velocity": 1,
      "hand": "left"
    },
    {
      "midi": 61,
      "time": 33.333,
      "duration": 0.417,
      "velocity": 1,
      "hand": "right"
    },
    {
      "midi": 66,
      "time": 33.333,
      "duration": 0.417,
      "velocity": 1,
      "hand": "right"
    },
    {
      "midi": 44,
      "time": 33.75,
      "duration": 0.417,
      "velocity": 1,
      "hand": "left"
    },
    {
      "midi": 60,
      "time": 33.75,
      "duration": 0.417,
      "velocity": 1,
      "hand": "right"
    },
    {
      "midi": 68,
      "time": 33.75,
      "duration": 0.417,
      "velocity": 1,
      "hand": "right"
    },
    {
      "midi": 52,
      "time": 34.167,
      "duration": 0.833,
      "velocity": 1,
      "hand": "left"
    },
    {
      "midi": 57,
      "time": 34.167,
      "duration": 0.417,
      "velocity": 1,
      "hand": "left"
    },
    {
      "midi": 59,
      "time": 34.167,
      "duration": 0.833,
      "velocity": 1,
      "hand": "left"
    },
    {
      "midi": 64,
      "time": 34.167,
      "duration": 0.833,
      "velocity": 1,
      "hand": "right"
    },
    {
      "midi": 56,
      "time": 34.583,
      "duration": 0.417,
      "velocity": 1,
      "hand": "left"
    },
    {
      "midi": 49,
      "time": 35,
      "duration": 0.417,
      "velocity": 1,
      "hand": "left"
    },
    {
      "midi": 56,
      "time": 35,
      "duration": 1.667,
      "velocity": 1,
      "hand": "left"
    },
    {
      "midi": 64,
      "time": 35,
      "duration": 0.417,
      "velocity": 1,
      "hand": "right"
    },
    {
      "midi": 70,
      "time": 35,
      "duration": 0.417,
      "velocity": 1,
      "hand": "right"
    },
    {
      "midi": 48,
      "time": 35.417,
      "duration": 0.417,
      "velocity": 1,
      "hand": "left"
    },
    {
      "midi": 63,
      "time": 35.417,
      "duration": 0.417,
      "velocity": 1,
      "hand": "right"
    },
    {
      "midi": 72,
      "time": 35.417,
      "duration": 0.417,
      "velocity": 1,
      "hand": "right"
    },
    {
      "midi": 49,
      "time": 35.833,
      "duration": 0.417,
      "velocity": 1,
      "hand": "left"
    },
    {
      "midi": 64,
      "time": 35.833,
      "duration": 0.417,
      "velocity": 1,
      "hand": "right"
    },
    {
      "midi": 70,
      "time": 35.833,
      "duration": 0.417,
      "velocity": 1,
      "hand": "right"
    },
    {
      "midi": 48,
      "time": 36.25,
      "duration": 0.417,
      "velocity": 1,
      "hand": "left"
    },
    {
      "midi": 63,
      "time": 36.25,
      "duration": 0.417,
      "velocity": 1,
      "hand": "right"
    },
    {
      "midi": 72,
      "time": 36.25,
      "duration": 0.417,
      "velocity": 1,
      "hand": "right"
    },
    {
      "midi": 56,
      "time": 36.667,
      "duration": 0.833,
      "velocity": 1,
      "hand": "left"
    },
    {
      "midi": 61,
      "time": 36.667,
      "duration": 0.417,
      "velocity": 1,
      "hand": "right"
    },
    {
      "midi": 63,
      "time": 36.667,
      "duration": 0.833,
      "velocity": 1,
      "hand": "right"
    },
    {
      "midi": 68,
      "time": 36.667,
      "duration": 0.833,
      "velocity": 1,
      "hand": "right"
    },
    {
      "midi": 60,
      "time": 37.083,
      "duration": 0.417,
      "velocity": 1,
      "hand": "right"
    },
    {
      "midi": 53,
      "time": 37.5,
      "duration": 0.417,
      "velocity": 1,
      "hand": "left"
    },
    {
      "midi": 60,
      "time": 37.5,
      "duration": 1.667,
      "velocity": 1,
      "hand": "right"
    },
    {
      "midi": 68,
      "time": 37.5,
      "duration": 0.417,
      "velocity": 1,
      "hand": "right"
    },
    {
      "midi": 74,
      "time": 37.5,
      "duration": 0.417,
      "velocity": 1,
      "hand": "right"
    },
    {
      "midi": 52,
      "time": 37.917,
      "duration": 0.417,
      "velocity": 1,
      "hand": "left"
    },
    {
      "midi": 67,
      "time": 37.917,
      "duration": 0.417,
      "velocity": 1,
      "hand": "right"
    },
    {
      "midi": 76,
      "time": 37.917,
      "duration": 0.417,
      "velocity": 1,
      "hand": "right"
    },
    {
      "midi": 53,
      "time": 38.333,
      "duration": 0.417,
      "velocity": 1,
      "hand": "left"
    },
    {
      "midi": 68,
      "time": 38.333,
      "duration": 0.417,
      "velocity": 1,
      "hand": "right"
    },
    {
      "midi": 74,
      "time": 38.333,
      "duration": 0.417,
      "velocity": 1,
      "hand": "right"
    },
    {
      "midi": 52,
      "time": 38.75,
      "duration": 0.417,
      "velocity": 1,
      "hand": "left"
    },
    {
      "midi": 67,
      "time": 38.75,
      "duration": 0.417,
      "velocity": 1,
      "hand": "right"
    },
    {
      "midi": 76,
      "time": 38.75,
      "duration": 0.417,
      "velocity": 1,
      "hand": "right"
    },
    {
      "midi": 56,
      "time": 39.167,
      "duration": 0.417,
      "velocity": 1,
      "hand": "left"
    },
    {
      "midi": 60,
      "time": 39.167,
      "duration": 0.417,
      "velocity": 1,
      "hand": "right"
    },
    {
      "midi": 63,
      "time": 39.167,
      "duration": 0.417,
      "velocity": 1,
      "hand": "right"
    },
    {
      "midi": 66,
      "time": 39.167,
      "duration": 0.417,
      "velocity": 1,
      "hand": "right"
    },
    {
      "midi": 72,
      "time": 39.167,
      "duration": 0.833,
      "velocity": 1,
      "hand": "right"
    },
    {
      "midi": 48,
      "time": 39.583,
      "duration": 0.417,
      "velocity": 1,
      "hand": "left"
    },
    {
      "midi": 55,
      "time": 39.583,
      "duration": 0.417,
      "velocity": 1,
      "hand": "left"
    },
    {
      "midi": 64,
      "time": 39.583,
      "duration": 0.417,
      "velocity": 1,
      "hand": "right"
    },
    {
      "midi": 67,
      "time": 39.583,
      "duration": 0.417,
      "velocity": 1,
      "hand": "right"
    },
    {
      "midi": 53,
      "time": 40,
      "duration": 0.417,
      "velocity": 1,
      "hand": "left"
    },
    {
      "midi": 60,
      "time": 40,
      "duration": 1.667,
      "velocity": 1,
      "hand": "right"
    },
    {
      "midi": 68,
      "time": 40,
      "duration": 0.417,
      "velocity": 1,
      "hand": "right"
    },
    {
      "midi": 74,
      "time": 40,
      "duration": 0.208,
      "velocity": 1,
      "hand": "right"
    },
    {
      "midi": 77,
      "time": 40.208,
      "duration": 0.208,
      "velocity": 1,
      "hand": "right"
    },
    {
      "midi": 55,
      "time": 40.417,
      "duration": 0.417,
      "velocity": 1,
      "hand": "left"
    },
    {
      "midi": 67,
      "time": 40.417,
      "duration": 0.417,
      "velocity": 1,
      "hand": "right"
    },
    {
      "midi": 72,
      "time": 40.417,
      "duration": 0.417,
      "velocity": 1,
      "hand": "right"
    },
    {
      "midi": 76,
      "time": 40.417,
      "duration": 0.417,
      "velocity": 1,
      "hand": "right"
    },
    {
      "midi": 53,
      "time": 40.833,
      "duration": 0.417,
      "velocity": 1,
      "hand": "left"
    },
    {
      "midi": 68,
      "time": 40.833,
      "duration": 0.417,
      "velocity": 1,
      "hand": "right"
    },
    {
      "midi": 74,
      "time": 40.833,
      "duration": 0.208,
      "velocity": 1,
      "hand": "right"
    },
    {
      "midi": 77,
      "time": 41.042,
      "duration": 0.208,
      "velocity": 1,
      "hand": "right"
    },
    {
      "midi": 55,
      "time": 41.25,
      "duration": 0.417,
      "velocity": 1,
      "hand": "left"
    },
    {
      "midi": 67,
      "time": 41.25,
      "duration": 0.417,
      "velocity": 1,
      "hand": "right"
    },
    {
      "midi": 72,
      "time": 41.25,
      "duration": 0.417,
      "velocity": 1,
      "hand": "right"
    },
    {
      "midi": 76,
      "time": 41.25,
      "duration": 0.417,
      "velocity": 1,
      "hand": "right"
    },
    {
      "midi": 56,
      "time": 41.667,
      "duration": 0.417,
      "velocity": 1,
      "hand": "left"
    },
    {
      "midi": 60,
      "time": 41.667,
      "duration": 0.417,
      "velocity": 1,
      "hand": "right"
    },
    {
      "midi": 63,
      "time": 41.667,
      "duration": 0.417,
      "velocity": 1,
      "hand": "right"
    },
    {
      "midi": 66,
      "time": 41.667,
      "duration": 0.417,
      "velocity": 1,
      "hand": "right"
    },
    {
      "midi": 72,
      "time": 41.667,
      "duration": 0.833,
      "velocity": 1,
      "hand": "right"
    },
    {
      "midi": 48,
      "time": 42.083,
      "duration": 0.417,
      "velocity": 1,
      "hand": "left"
    },
    {
      "midi": 55,
      "time": 42.083,
      "duration": 0.417,
      "velocity": 1,
      "hand": "left"
    },
    {
      "midi": 64,
      "time": 42.083,
      "duration": 0.417,
      "velocity": 1,
      "hand": "right"
    },
    {
      "midi": 67,
      "time": 42.083,
      "duration": 0.417,
      "velocity": 1,
      "hand": "right"
    },
    {
      "midi": 53,
      "time": 42.5,
      "duration": 0.417,
      "velocity": 1,
      "hand": "left"
    },
    {
      "midi": 60,
      "time": 42.5,
      "duration": 1.667,
      "velocity": 1,
      "hand": "right"
    },
    {
      "midi": 68,
      "time": 42.5,
      "duration": 0.417,
      "velocity": 1,
      "hand": "right"
    },
    {
      "midi": 74,
      "time": 42.5,
      "duration": 0.208,
      "velocity": 1,
      "hand": "right"
    },
    {
      "midi": 77,
      "time": 42.708,
      "duration": 0.208,
      "velocity": 1,
      "hand": "right"
    },
    {
      "midi": 55,
      "time": 42.917,
      "duration": 0.417,
      "velocity": 1,
      "hand": "left"
    },
    {
      "midi": 67,
      "time": 42.917,
      "duration": 0.417,
      "velocity": 1,
      "hand": "right"
    },
    {
      "midi": 72,
      "time": 42.917,
      "duration": 0.417,
      "velocity": 1,
      "hand": "right"
    },
    {
      "midi": 76,
      "time": 42.917,
      "duration": 0.417,
      "velocity": 1,
      "hand": "right"
    },
    {
      "midi": 53,
      "time": 43.333,
      "duration": 0.417,
      "velocity": 1,
      "hand": "left"
    },
    {
      "midi": 68,
      "time": 43.333,
      "duration": 0.417,
      "velocity": 1,
      "hand": "right"
    },
    {
      "midi": 74,
      "time": 43.333,
      "duration": 0.208,
      "velocity": 1,
      "hand": "right"
    },
    {
      "midi": 77,
      "time": 43.542,
      "duration": 0.208,
      "velocity": 1,
      "hand": "right"
    },
    {
      "midi": 55,
      "time": 43.75,
      "duration": 0.417,
      "velocity": 1,
      "hand": "left"
    },
    {
      "midi": 67,
      "time": 43.75,
      "duration": 0.417,
      "velocity": 1,
      "hand": "right"
    },
    {
      "midi": 72,
      "time": 43.75,
      "duration": 0.417,
      "velocity": 1,
      "hand": "right"
    },
    {
      "midi": 76,
      "time": 43.75,
      "duration": 0.417,
      "velocity": 1,
      "hand": "right"
    },
    {
      "midi": 56,
      "time": 44.167,
      "duration": 0.417,
      "velocity": 1,
      "hand": "left"
    },
    {
      "midi": 60,
      "time": 44.167,
      "duration": 0.417,
      "velocity": 1,
      "hand": "right"
    },
    {
      "midi": 63,
      "time": 44.167,
      "duration": 0.417,
      "velocity": 1,
      "hand": "right"
    },
    {
      "midi": 66,
      "time": 44.167,
      "duration": 0.417,
      "velocity": 1,
      "hand": "right"
    },
    {
      "midi": 72,
      "time": 44.167,
      "duration": 0.833,
      "velocity": 1,
      "hand": "right"
    },
    {
      "midi": 48,
      "time": 44.583,
      "duration": 0.417,
      "velocity": 1,
      "hand": "left"
    },
    {
      "midi": 55,
      "time": 44.583,
      "duration": 0.417,
      "velocity": 1,
      "hand": "left"
    },
    {
      "midi": 64,
      "time": 44.583,
      "duration": 0.417,
      "velocity": 1,
      "hand": "right"
    },
    {
      "midi": 67,
      "time": 44.583,
      "duration": 0.417,
      "velocity": 1,
      "hand": "right"
    },
    {
      "midi": 53,
      "time": 45,
      "duration": 0.417,
      "velocity": 1,
      "hand": "left"
    },
    {
      "midi": 60,
      "time": 45,
      "duration": 0.417,
      "velocity": 1,
      "hand": "right"
    },
    {
      "midi": 68,
      "time": 45,
      "duration": 0.417,
      "velocity": 1,
      "hand": "right"
    },
    {
      "midi": 74,
      "time": 45,
      "duration": 0.417,
      "velocity": 1,
      "hand": "right"
    },
    {
      "midi": 48,
      "time": 45.417,
      "duration": 0.417,
      "velocity": 1,
      "hand": "left"
    },
    {
      "midi": 67,
      "time": 45.417,
      "duration": 0.417,
      "velocity": 1,
      "hand": "right"
    },
    {
      "midi": 72,
      "time": 45.417,
      "duration": 0.417,
      "velocity": 1,
      "hand": "right"
    },
    {
      "midi": 76,
      "time": 45.417,
      "duration": 0.417,
      "velocity": 1,
      "hand": "right"
    },
    {
      "midi": 57,
      "time": 45.833,
      "duration": 0.417,
      "velocity": 1,
      "hand": "left"
    },
    {
      "midi": 61,
      "time": 45.833,
      "duration": 0.417,
      "velocity": 1,
      "hand": "right"
    },
    {
      "midi": 70,
      "time": 45.833,
      "duration": 0.417,
      "velocity": 1,
      "hand": "right"
    },
    {
      "midi": 79,
      "time": 45.833,
      "duration": 0.417,
      "velocity": 1,
      "hand": "right"
    },
    {
      "midi": 62,
      "time": 46.25,
      "duration": 0.417,
      "velocity": 1,
      "hand": "right"
    },
    {
      "midi": 69,
      "time": 46.25,
      "duration": 0.417,
      "velocity": 1,
      "hand": "right"
    },
    {
      "midi": 78,
      "time": 46.25,
      "duration": 0.417,
      "velocity": 1,
      "hand": "right"
    },
    {
      "midi": 55,
      "time": 46.667,
      "duration": 0.417,
      "velocity": 1,
      "hand": "left"
    },
    {
      "midi": 59,
      "time": 46.667,
      "duration": 0.417,
      "velocity": 1,
      "hand": "left"
    },
    {
      "midi": 68,
      "time": 46.667,
      "duration": 0.417,
      "velocity": 1,
      "hand": "right"
    },
    {
      "midi": 77,
      "time": 46.667,
      "duration": 0.417,
      "velocity": 1,
      "hand": "right"
    },
    {
      "midi": 60,
      "time": 47.083,
      "duration": 0.417,
      "velocity": 1,
      "hand": "right"
    },
    {
      "midi": 67,
      "time": 47.083,
      "duration": 0.417,
      "velocity": 1,
      "hand": "right"
    },
    {
      "midi": 76,
      "time": 47.083,
      "duration": 0.417,
      "velocity": 1,
      "hand": "right"
    },
    {
      "midi": 54,
      "time": 47.5,
      "duration": 0.417,
      "velocity": 1,
      "hand": "left"
    },
    {
      "midi": 58,
      "time": 47.5,
      "duration": 0.417,
      "velocity": 1,
      "hand": "left"
    },
    {
      "midi": 67,
      "time": 47.5,
      "duration": 0.417,
      "velocity": 1,
      "hand": "right"
    },
    {
      "midi": 76,
      "time": 47.5,
      "duration": 0.417,
      "velocity": 1,
      "hand": "right"
    },
    {
      "midi": 59,
      "time": 47.917,
      "duration": 0.417,
      "velocity": 1,
      "hand": "left"
    },
    {
      "midi": 66,
      "time": 47.917,
      "duration": 0.417,
      "velocity": 1,
      "hand": "right"
    },
    {
      "midi": 75,
      "time": 47.917,
      "duration": 0.417,
      "velocity": 1,
      "hand": "right"
    },
    {
      "midi": 55,
      "time": 48.333,
      "duration": 0.417,
      "velocity": 1,
      "hand": "left"
    },
    {
      "midi": 64,
      "time": 48.333,
      "duration": 0.417,
      "velocity": 1,
      "hand": "right"
    },
    {
      "midi": 70,
      "time": 48.333,
      "duration": 0.208,
      "velocity": 1,
      "hand": "right"
    },
    {
      "midi": 73,
      "time": 48.542,
      "duration": 0.208,
      "velocity": 1,
      "hand": "right"
    },
    {
      "midi": 47,
      "time": 48.75,
      "duration": 0.417,
      "velocity": 1,
      "hand": "left"
    },
    {
      "midi": 54,
      "time": 48.75,
      "duration": 0.417,
      "velocity": 1,
      "hand": "left"
    },
    {
      "midi": 63,
      "time": 48.75,
      "duration": 0.417,
      "velocity": 1,
      "hand": "right"
    },
    {
      "midi": 66,
      "time": 48.75,
      "duration": 0.417,
      "velocity": 1,
      "hand": "right"
    },
    {
      "midi": 71,
      "time": 48.75,
      "duration": 0.417,
      "velocity": 1,
      "hand": "right"
    },
    {
      "midi": 54,
      "time": 49.167,
      "duration": 0.417,
      "velocity": 1,
      "hand": "left"
    },
    {
      "midi": 58,
      "time": 49.167,
      "duration": 0.417,
      "velocity": 1,
      "hand": "left"
    },
    {
      "midi": 67,
      "time": 49.167,
      "duration": 0.417,
      "velocity": 1,
      "hand": "right"
    },
    {
      "midi": 76,
      "time": 49.167,
      "duration": 0.417,
      "velocity": 1,
      "hand": "right"
    },
    {
      "midi": 59,
      "time": 49.583,
      "duration": 0.417,
      "velocity": 1,
      "hand": "left"
    },
    {
      "midi": 66,
      "time": 49.583,
      "duration": 0.417,
      "velocity": 1,
      "hand": "right"
    },
    {
      "midi": 75,
      "time": 49.583,
      "duration": 0.417,
      "velocity": 1,
      "hand": "right"
    },
    {
      "midi": 55,
      "time": 50,
      "duration": 0.417,
      "velocity": 1,
      "hand": "left"
    },
    {
      "midi": 64,
      "time": 50,
      "duration": 0.417,
      "velocity": 1,
      "hand": "right"
    },
    {
      "midi": 70,
      "time": 50,
      "duration": 0.208,
      "velocity": 1,
      "hand": "right"
    },
    {
      "midi": 73,
      "time": 50.208,
      "duration": 0.208,
      "velocity": 1,
      "hand": "right"
    },
    {
      "midi": 47,
      "time": 50.417,
      "duration": 0.417,
      "velocity": 1,
      "hand": "left"
    },
    {
      "midi": 54,
      "time": 50.417,
      "duration": 0.417,
      "velocity": 1,
      "hand": "left"
    },
    {
      "midi": 63,
      "time": 50.417,
      "duration": 0.417,
      "velocity": 1,
      "hand": "right"
    },
    {
      "midi": 66,
      "time": 50.417,
      "duration": 0.417,
      "velocity": 1,
      "hand": "right"
    },
    {
      "midi": 71,
      "time": 50.417,
      "duration": 0.417,
      "velocity": 1,
      "hand": "right"
    },
    {
      "midi": 55,
      "time": 50.833,
      "duration": 0.417,
      "velocity": 1,
      "hand": "left"
    },
    {
      "midi": 64,
      "time": 50.833,
      "duration": 0.417,
      "velocity": 1,
      "hand": "right"
    },
    {
      "midi": 70,
      "time": 50.833,
      "duration": 0.208,
      "velocity": 1,
      "hand": "right"
    },
    {
      "midi": 73,
      "time": 51.042,
      "duration": 0.208,
      "velocity": 1,
      "hand": "right"
    },
    {
      "midi": 47,
      "time": 51.25,
      "duration": 0.417,
      "velocity": 1,
      "hand": "left"
    },
    {
      "midi": 54,
      "time": 51.25,
      "duration": 0.417,
      "velocity": 1,
      "hand": "left"
    },
    {
      "midi": 63,
      "time": 51.25,
      "duration": 0.417,
      "velocity": 1,
      "hand": "right"
    },
    {
      "midi": 66,
      "time": 51.25,
      "duration": 0.417,
      "velocity": 1,
      "hand": "right"
    },
    {
      "midi": 71,
      "time": 51.25,
      "duration": 0.417,
      "velocity": 1,
      "hand": "right"
    },
    {
      "midi": 52,
      "time": 51.667,
      "duration": 0.417,
      "velocity": 1,
      "hand": "left"
    },
    {
      "midi": 58,
      "time": 51.667,
      "duration": 0.417,
      "velocity": 1,
      "hand": "left"
    },
    {
      "midi": 61,
      "time": 51.667,
      "duration": 0.417,
      "velocity": 1,
      "hand": "right"
    },
    {
      "midi": 66,
      "time": 51.667,
      "duration": 0.833,
      "velocity": 1,
      "hand": "right"
    },
    {
      "midi": 51,
      "time": 52.083,
      "duration": 0.417,
      "velocity": 1,
      "hand": "left"
    },
    {
      "midi": 59,
      "time": 52.083,
      "duration": 0.417,
      "velocity": 1,
      "hand": "left"
    },
    {
      "midi": 66,
      "time": 52.5,
      "duration": 0.417,
      "velocity": 1,
      "hand": "right"
    },
    {
      "midi": 68,
      "time": 52.917,
      "duration": 0.208,
      "velocity": 1,
      "hand": "right"
    },
    {
      "midi": 69,
      "time": 53.125,
      "duration": 0.208,
      "velocity": 1,
      "hand": "right"
    },
    {
      "midi": 50,
      "time": 53.333,
      "duration": 0.833,
      "velocity": 1,
      "hand": "left"
    },
    {
      "midi": 52,
      "time": 53.333,
      "duration": 1.667,
      "velocity": 1,
      "hand": "left"
    },
    {
      "midi": 59,
      "time": 53.333,
      "duration": 0.833,
      "velocity": 1,
      "hand": "left"
    },
    {
      "midi": 64,
      "time": 53.333,
      "duration": 0.833,
      "velocity": 1,
      "hand": "right"
    },
    {
      "midi": 68,
      "time": 53.333,
      "duration": 0.417,
      "velocity": 1,
      "hand": "right"
    },
    {
      "midi": 71,
      "time": 53.75,
      "duration": 0.417,
      "velocity": 1,
      "hand": "right"
    },
    {
      "midi": 49,
      "time": 54.167,
      "duration": 0.833,
      "velocity": 1,
      "hand": "left"
    },
    {
      "midi": 64,
      "time": 54.167,
      "duration": 1.667,
      "velocity": 1,
      "hand": "right"
    },
    {
      "midi": 69,
      "time": 54.583,
      "duration": 0.417,
      "velocity": 1,
      "hand": "right"
    },
    {
      "midi": 47,
      "time": 55,
      "duration": 0.417,
      "velocity": 1,
      "hand": "left"
    },
    {
      "midi": 52,
      "time": 55,
      "duration": 0.833,
      "velocity": 1,
      "hand": "left"
    },
    {
      "midi": 68,
      "time": 55,
      "duration": 0.417,
      "velocity": 1,
      "hand": "right"
    },
    {
      "midi": 71,
      "time": 55,
      "duration": 0.417,
      "velocity": 1,
      "hand": "right"
    },
    {
      "midi": 45,
      "time": 55.417,
      "duration": 0.417,
      "velocity": 1,
      "hand": "left"
    },
    {
      "midi": 69,
      "time": 55.417,
      "duration": 0.417,
      "velocity": 1,
      "hand": "right"
    },
    {
      "midi": 73,
      "time": 55.417,
      "duration": 0.417,
      "velocity": 1,
      "hand": "right"
    },
    {
      "midi": 44,
      "time": 55.833,
      "duration": 0.833,
      "velocity": 1,
      "hand": "left"
    },
    {
      "midi": 52,
      "time": 55.833,
      "duration": 1.667,
      "velocity": 1,
      "hand": "left"
    },
    {
      "midi": 64,
      "time": 55.833,
      "duration": 1.667,
      "velocity": 1,
      "hand": "right"
    },
    {
      "midi": 71,
      "time": 55.833,
      "duration": 0.833,
      "velocity": 1,
      "hand": "right"
    },
    {
      "midi": 76,
      "time": 55.833,
      "duration": 0.833,
      "velocity": 1,
      "hand": "right"
    },
    {
      "midi": 45,
      "time": 56.667,
      "duration": 0.833,
      "velocity": 1,
      "hand": "left"
    },
    {
      "midi": 69,
      "time": 56.667,
      "duration": 0.833,
      "velocity": 1,
      "hand": "right"
    },
    {
      "midi": 73,
      "time": 56.667,
      "duration": 0.833,
      "velocity": 1,
      "hand": "right"
    },
    {
      "midi": 73,
      "time": 57.5,
      "duration": 0.417,
      "velocity": 1,
      "hand": "right"
    },
    {
      "midi": 74,
      "time": 57.917,
      "duration": 0.208,
      "velocity": 1,
      "hand": "right"
    },
    {
      "midi": 76,
      "time": 58.125,
      "duration": 0.208,
      "velocity": 1,
      "hand": "right"
    },
    {
      "midi": 46,
      "time": 58.333,
      "duration": 0.833,
      "velocity": 1,
      "hand": "left"
    },
    {
      "midi": 54,
      "time": 58.333,
      "duration": 0.833,
      "velocity": 1,
      "hand": "left"
    },
    {
      "midi": 61,
      "time": 58.333,
      "duration": 0.833,
      "velocity": 1,
      "hand": "right"
    },
    {
      "midi": 66,
      "time": 58.333,
      "duration": 0.833,
      "velocity": 1,
      "hand": "right"
    },
    {
      "midi": 73,
      "time": 58.333,
      "duration": 0.417,
      "velocity": 1,
      "hand": "right"
    },
    {
      "midi": 78,
      "time": 58.333,
      "duration": 0.417,
      "velocity": 1,
      "hand": "right"
    },
    {
      "midi": 73,
      "time": 58.75,
      "duration": 0.417,
      "velocity": 1,
      "hand": "right"
    },
    {
      "midi": 47,
      "time": 59.167,
      "duration": 0.833,
      "velocity": 1,
      "hand": "left"
    },
    {
      "midi": 54,
      "time": 59.167,
      "duration": 0.833,
      "velocity": 1,
      "hand": "left"
    },
    {
      "midi": 59,
      "time": 59.167,
      "duration": 0.833,
      "velocity": 1,
      "hand": "left"
    },
    {
      "midi": 66,
      "time": 59.167,
      "duration": 0.833,
      "velocity": 1,
      "hand": "right"
    },
    {
      "midi": 71,
      "time": 59.167,
      "duration": 0.833,
      "velocity": 1,
      "hand": "right"
    },
    {
      "midi": 74,
      "time": 59.167,
      "duration": 0.833,
      "velocity": 1,
      "hand": "right"
    },
    {
      "midi": 66,
      "time": 60,
      "duration": 0.417,
      "velocity": 1,
      "hand": "right"
    },
    {
      "midi": 68,
      "time": 60.417,
      "duration": 0.208,
      "velocity": 1,
      "hand": "right"
    },
    {
      "midi": 69,
      "time": 60.625,
      "duration": 0.208,
      "velocity": 1,
      "hand": "right"
    },
    {
      "midi": 47,
      "time": 60.833,
      "duration": 0.833,
      "velocity": 1,
      "hand": "left"
    },
    {
      "midi": 57,
      "time": 60.833,
      "duration": 0.833,
      "velocity": 1,
      "hand": "left"
    },
    {
      "midi": 63,
      "time": 60.833,
      "duration": 0.833,
      "velocity": 1,
      "hand": "right"
    },
    {
      "midi": 73,
      "time": 60.833,
      "duration": 0.417,
      "velocity": 1,
      "hand": "right"
    },
    {
      "midi": 70,
      "time": 61.25,
      "duration": 0.833,
      "velocity": 1,
      "hand": "right"
    },
    {
      "midi": 52,
      "time": 61.667,
      "duration": 0.833,
      "velocity": 1,
      "hand": "left"
    },
    {
      "midi": 56,
      "time": 61.667,
      "duration": 0.833,
      "velocity": 1,
      "hand": "left"
    },
    {
      "midi": 62,
      "time": 61.667,
      "duration": 0.833,
      "velocity": 1,
      "hand": "right"
    },
    {
      "midi": 71,
      "time": 62.083,
      "duration": 0.417,
      "velocity": 1,
      "hand": "right"
    },
    {
      "midi": 66,
      "time": 62.5,
      "duration": 0.417,
      "velocity": 1,
      "hand": "right"
    },
    {
      "midi": 68,
      "time": 62.917,
      "duration": 0.208,
      "velocity": 1,
      "hand": "right"
    },
    {
      "midi": 69,
      "time": 63.125,
      "duration": 0.208,
      "velocity": 1,
      "hand": "right"
    },
    {
      "midi": 50,
      "time": 63.333,
      "duration": 0.833,
      "velocity": 1,
      "hand": "left"
    },
    {
      "midi": 52,
      "time": 63.333,
      "duration": 1.667,
      "velocity": 1,
      "hand": "left"
    },
    {
      "midi": 59,
      "time": 63.333,
      "duration": 0.833,
      "velocity": 1,
      "hand": "left"
    },
    {
      "midi": 64,
      "time": 63.333,
      "duration": 0.833,
      "velocity": 1,
      "hand": "right"
    },
    {
      "midi": 68,
      "time": 63.333,
      "duration": 0.417,
      "velocity": 1,
      "hand": "right"
    },
    {
      "midi": 71,
      "time": 63.75,
      "duration": 0.417,
      "velocity": 1,
      "hand": "right"
    },
    {
      "midi": 49,
      "time": 64.167,
      "duration": 0.833,
      "velocity": 1,
      "hand": "left"
    },
    {
      "midi": 64,
      "time": 64.167,
      "duration": 1.667,
      "velocity": 1,
      "hand": "right"
    },
    {
      "midi": 69,
      "time": 64.583,
      "duration": 0.417,
      "velocity": 1,
      "hand": "right"
    },
    {
      "midi": 47,
      "time": 65,
      "duration": 0.417,
      "velocity": 1,
      "hand": "left"
    },
    {
      "midi": 52,
      "time": 65,
      "duration": 0.833,
      "velocity": 1,
      "hand": "left"
    },
    {
      "midi": 68,
      "time": 65,
      "duration": 0.417,
      "velocity": 1,
      "hand": "right"
    },
    {
      "midi": 71,
      "time": 65,
      "duration": 0.417,
      "velocity": 1,
      "hand": "right"
    },
    {
      "midi": 45,
      "time": 65.417,
      "duration": 0.417,
      "velocity": 1,
      "hand": "left"
    },
    {
      "midi": 69,
      "time": 65.417,
      "duration": 0.417,
      "velocity": 1,
      "hand": "right"
    },
    {
      "midi": 73,
      "time": 65.417,
      "duration": 0.417,
      "velocity": 1,
      "hand": "right"
    },
    {
      "midi": 44,
      "time": 65.833,
      "duration": 0.833,
      "velocity": 1,
      "hand": "left"
    },
    {
      "midi": 52,
      "time": 65.833,
      "duration": 1.667,
      "velocity": 1,
      "hand": "left"
    },
    {
      "midi": 64,
      "time": 65.833,
      "duration": 1.667,
      "velocity": 1,
      "hand": "right"
    },
    {
      "midi": 71,
      "time": 65.833,
      "duration": 0.833,
      "velocity": 1,
      "hand": "right"
    },
    {
      "midi": 76,
      "time": 65.833,
      "duration": 0.833,
      "velocity": 1,
      "hand": "right"
    },
    {
      "midi": 45,
      "time": 66.667,
      "duration": 0.833,
      "velocity": 1,
      "hand": "left"
    },
    {
      "midi": 69,
      "time": 66.667,
      "duration": 0.833,
      "velocity": 1,
      "hand": "right"
    },
    {
      "midi": 73,
      "time": 66.667,
      "duration": 0.833,
      "velocity": 1,
      "hand": "right"
    },
    {
      "midi": 73,
      "time": 67.5,
      "duration": 0.417,
      "velocity": 1,
      "hand": "right"
    },
    {
      "midi": 75,
      "time": 67.917,
      "duration": 0.208,
      "velocity": 1,
      "hand": "right"
    },
    {
      "midi": 76,
      "time": 68.125,
      "duration": 0.208,
      "velocity": 1,
      "hand": "right"
    },
    {
      "midi": 47,
      "time": 68.333,
      "duration": 2.5,
      "velocity": 1,
      "hand": "left"
    },
    {
      "midi": 64,
      "time": 68.333,
      "duration": 0.833,
      "velocity": 1,
      "hand": "right"
    },
    {
      "midi": 68,
      "time": 68.333,
      "duration": 0.417,
      "velocity": 1,
      "hand": "right"
    },
    {
      "midi": 73,
      "time": 68.75,
      "duration": 0.417,
      "velocity": 1,
      "hand": "right"
    },
    {
      "midi": 57,
      "time": 69.167,
      "duration": 0.417,
      "velocity": 1,
      "hand": "left"
    },
    {
      "midi": 63,
      "time": 69.167,
      "duration": 0.833,
      "velocity": 1,
      "hand": "right"
    },
    {
      "midi": 66,
      "time": 69.167,
      "duration": 0.833,
      "velocity": 1,
      "hand": "right"
    },
    {
      "midi": 71,
      "time": 69.167,
      "duration": 0.833,
      "velocity": 1,
      "hand": "right"
    },
    {
      "midi": 59,
      "time": 69.583,
      "duration": 0.417,
      "velocity": 1,
      "hand": "left"
    },
    {
      "midi": 56,
      "time": 70,
      "duration": 0.833,
      "velocity": 1,
      "hand": "left"
    },
    {
      "midi": 64,
      "time": 70,
      "duration": 0.833,
      "velocity": 1,
      "hand": "right"
    },
    {
      "midi": 71,
      "time": 70,
      "duration": 0.833,
      "velocity": 1,
      "hand": "right"
    },
    {
      "midi": 73,
      "time": 70,
      "duration": 0.417,
      "velocity": 1,
      "hand": "right"
    },
    {
      "midi": 75,
      "time": 70.417,
      "duration": 0.208,
      "velocity": 1,
      "hand": "right"
    },
    {
      "midi": 76,
      "time": 70.625,
      "duration": 0.208,
      "velocity": 1,
      "hand": "right"
    },
    {
      "midi": 47,
      "time": 70.833,
      "duration": 1.667,
      "velocity": 1,
      "hand": "left"
    },
    {
      "midi": 64,
      "time": 70.833,
      "duration": 0.833,
      "velocity": 1,
      "hand": "right"
    },
    {
      "midi": 68,
      "time": 70.833,
      "duration": 0.417,
      "velocity": 1,
      "hand": "right"
    },
    {
      "midi": 73,
      "time": 71.25,
      "duration": 0.417,
      "velocity": 1,
      "hand": "right"
    },
    {
      "midi": 57,
      "time": 71.667,
      "duration": 0.417,
      "velocity": 1,
      "hand": "left"
    },
    {
      "midi": 63,
      "time": 71.667,
      "duration": 0.833,
      "velocity": 1,
      "hand": "right"
    },
    {
      "midi": 66,
      "time": 71.667,
      "duration": 0.833,
      "velocity": 1,
      "hand": "right"
    },
    {
      "midi": 71,
      "time": 71.667,
      "duration": 0.833,
      "velocity": 1,
      "hand": "right"
    },
    {
      "midi": 59,
      "time": 72.083,
      "duration": 0.417,
      "velocity": 1,
      "hand": "left"
    },
    {
      "midi": 48,
      "time": 72.5,
      "duration": 2.5,
      "velocity": 1,
      "hand": "left"
    },
    {
      "midi": 55,
      "time": 72.5,
      "duration": 2.5,
      "velocity": 1,
      "hand": "left"
    },
    {
      "midi": 60,
      "time": 72.5,
      "duration": 2.5,
      "velocity": 1,
      "hand": "right"
    },
    {
      "midi": 64,
      "time": 72.5,
      "duration": 2.5,
      "velocity": 1,
      "hand": "right"
    },
    {
      "midi": 67,
      "time": 72.5,
      "duration": 2.5,
      "velocity": 1,
      "hand": "right"
    },
    {
      "midi": 76,
      "time": 72.5,
      "duration": 0.833,
      "velocity": 1,
      "hand": "right"
    },
    {
      "midi": 74,
      "time": 73.333,
      "duration": 0.417,
      "velocity": 1,
      "hand": "right"
    },
    {
      "midi": 72,
      "time": 73.75,
      "duration": 0.417,
      "velocity": 1,
      "hand": "right"
    },
    {
      "midi": 71,
      "time": 74.167,
      "duration": 0.417,
      "velocity": 1,
      "hand": "right"
    },
    {
      "midi": 70,
      "time": 74.583,
      "duration": 0.417,
      "velocity": 1,
      "hand": "right"
    },
    {
      "midi": 40,
      "time": 75.208,
      "duration": 0.208,
      "velocity": 1,
      "hand": "left"
    },
    {
      "midi": 47,
      "time": 75.208,
      "duration": 0.208,
      "velocity": 1,
      "hand": "left"
    },
    {
      "midi": 55,
      "time": 75.417,
      "duration": 0.208,
      "velocity": 1,
      "hand": "left"
    },
    {
      "midi": 59,
      "time": 75.625,
      "duration": 0.208,
      "velocity": 1,
      "hand": "left"
    },
    {
      "midi": 64,
      "time": 75.625,
      "duration": 0.208,
      "velocity": 1,
      "hand": "right"
    },
    {
      "midi": 69,
      "time": 75.833,
      "duration": 0.208,
      "velocity": 1,
      "hand": "right"
    },
    {
      "midi": 64,
      "time": 76.042,
      "duration": 0.208,
      "velocity": 1,
      "hand": "right"
    },
    {
      "midi": 67,
      "time": 76.042,
      "duration": 0.208,
      "velocity": 1,
      "hand": "right"
    },
    {
      "midi": 70,
      "time": 76.25,
      "duration": 0.208,
      "velocity": 1,
      "hand": "right"
    },
    {
      "midi": 71,
      "time": 76.458,
      "duration": 0.208,
      "velocity": 1,
      "hand": "right"
    },
    {
      "midi": 76,
      "time": 76.458,
      "duration": 0.208,
      "velocity": 1,
      "hand": "right"
    },
    {
      "midi": 78,
      "time": 76.667,
      "duration": 0.208,
      "velocity": 1,
      "hand": "right"
    },
    {
      "midi": 79,
      "time": 76.875,
      "duration": 0.208,
      "velocity": 1,
      "hand": "right"
    },
    {
      "midi": 83,
      "time": 76.875,
      "duration": 0.208,
      "velocity": 1,
      "hand": "right"
    },
    {
      "midi": 88,
      "time": 77.083,
      "duration": 0.417,
      "velocity": 1,
      "hand": "right"
    },
    {
      "midi": 48,
      "time": 77.5,
      "duration": 2.5,
      "velocity": 1,
      "hand": "left"
    },
    {
      "midi": 55,
      "time": 77.5,
      "duration": 2.5,
      "velocity": 1,
      "hand": "left"
    },
    {
      "midi": 60,
      "time": 77.5,
      "duration": 2.5,
      "velocity": 1,
      "hand": "right"
    },
    {
      "midi": 64,
      "time": 77.5,
      "duration": 2.5,
      "velocity": 1,
      "hand": "right"
    },
    {
      "midi": 67,
      "time": 77.5,
      "duration": 2.5,
      "velocity": 1,
      "hand": "right"
    },
    {
      "midi": 76,
      "time": 77.5,
      "duration": 0.833,
      "velocity": 1,
      "hand": "right"
    },
    {
      "midi": 74,
      "time": 78.333,
      "duration": 0.417,
      "velocity": 1,
      "hand": "right"
    },
    {
      "midi": 72,
      "time": 78.75,
      "duration": 0.417,
      "velocity": 1,
      "hand": "right"
    },
    {
      "midi": 71,
      "time": 79.167,
      "duration": 0.417,
      "velocity": 1,
      "hand": "right"
    },
    {
      "midi": 70,
      "time": 79.583,
      "duration": 0.417,
      "velocity": 1,
      "hand": "right"
    },
    {
      "midi": 40,
      "time": 80.208,
      "duration": 0.208,
      "velocity": 1,
      "hand": "left"
    },
    {
      "midi": 47,
      "time": 80.208,
      "duration": 0.208,
      "velocity": 1,
      "hand": "left"
    },
    {
      "midi": 55,
      "time": 80.417,
      "duration": 0.208,
      "velocity": 1,
      "hand": "left"
    },
    {
      "midi": 59,
      "time": 80.625,
      "duration": 0.208,
      "velocity": 1,
      "hand": "left"
    },
    {
      "midi": 64,
      "time": 80.625,
      "duration": 0.208,
      "velocity": 1,
      "hand": "right"
    },
    {
      "midi": 69,
      "time": 80.833,
      "duration": 0.208,
      "velocity": 1,
      "hand": "right"
    },
    {
      "midi": 64,
      "time": 81.042,
      "duration": 0.208,
      "velocity": 1,
      "hand": "right"
    },
    {
      "midi": 67,
      "time": 81.042,
      "duration": 0.208,
      "velocity": 1,
      "hand": "right"
    },
    {
      "midi": 60,
      "time": 81.25,
      "duration": 0.208,
      "velocity": 1,
      "hand": "right"
    },
    {
      "midi": 55,
      "time": 81.458,
      "duration": 0.208,
      "velocity": 1,
      "hand": "left"
    },
    {
      "midi": 59,
      "time": 81.458,
      "duration": 0.208,
      "velocity": 1,
      "hand": "left"
    },
    {
      "midi": 48,
      "time": 81.667,
      "duration": 0.208,
      "velocity": 1,
      "hand": "left"
    },
    {
      "midi": 43,
      "time": 81.875,
      "duration": 0.208,
      "velocity": 1,
      "hand": "left"
    },
    {
      "midi": 47,
      "time": 81.875,
      "duration": 0.208,
      "velocity": 1,
      "hand": "left"
    },
    {
      "midi": 40,
      "time": 82.083,
      "duration": 0.417,
      "velocity": 1,
      "hand": "left"
    },
    {
      "midi": 48,
      "time": 82.5,
      "duration": 2.5,
      "velocity": 1,
      "hand": "left"
    },
    {
      "midi": 55,
      "time": 82.5,
      "duration": 2.5,
      "velocity": 1,
      "hand": "left"
    },
    {
      "midi": 60,
      "time": 82.5,
      "duration": 2.5,
      "velocity": 1,
      "hand": "right"
    },
    {
      "midi": 64,
      "time": 82.5,
      "duration": 2.5,
      "velocity": 1,
      "hand": "right"
    },
    {
      "midi": 67,
      "time": 82.5,
      "duration": 2.5,
      "velocity": 1,
      "hand": "right"
    },
    {
      "midi": 76,
      "time": 82.5,
      "duration": 0.833,
      "velocity": 1,
      "hand": "right"
    },
    {
      "midi": 74,
      "time": 83.333,
      "duration": 0.417,
      "velocity": 1,
      "hand": "right"
    },
    {
      "midi": 72,
      "time": 83.75,
      "duration": 0.417,
      "velocity": 1,
      "hand": "right"
    },
    {
      "midi": 71,
      "time": 84.167,
      "duration": 0.417,
      "velocity": 1,
      "hand": "right"
    },
    {
      "midi": 70,
      "time": 84.583,
      "duration": 0.417,
      "velocity": 1,
      "hand": "right"
    },
    {
      "midi": 40,
      "time": 85.208,
      "duration": 0.208,
      "velocity": 1,
      "hand": "left"
    },
    {
      "midi": 47,
      "time": 85.208,
      "duration": 0.208,
      "velocity": 1,
      "hand": "left"
    },
    {
      "midi": 55,
      "time": 85.417,
      "duration": 0.208,
      "velocity": 1,
      "hand": "left"
    },
    {
      "midi": 59,
      "time": 85.625,
      "duration": 0.208,
      "velocity": 1,
      "hand": "left"
    },
    {
      "midi": 64,
      "time": 85.625,
      "duration": 0.208,
      "velocity": 1,
      "hand": "right"
    },
    {
      "midi": 69,
      "time": 85.833,
      "duration": 0.208,
      "velocity": 1,
      "hand": "right"
    },
    {
      "midi": 64,
      "time": 86.042,
      "duration": 0.208,
      "velocity": 1,
      "hand": "right"
    },
    {
      "midi": 67,
      "time": 86.042,
      "duration": 0.208,
      "velocity": 1,
      "hand": "right"
    },
    {
      "midi": 70,
      "time": 86.25,
      "duration": 0.208,
      "velocity": 1,
      "hand": "right"
    },
    {
      "midi": 71,
      "time": 86.458,
      "duration": 0.208,
      "velocity": 1,
      "hand": "right"
    },
    {
      "midi": 76,
      "time": 86.458,
      "duration": 0.208,
      "velocity": 1,
      "hand": "right"
    },
    {
      "midi": 78,
      "time": 86.667,
      "duration": 0.208,
      "velocity": 1,
      "hand": "right"
    },
    {
      "midi": 79,
      "time": 86.875,
      "duration": 0.208,
      "velocity": 1,
      "hand": "right"
    },
    {
      "midi": 83,
      "time": 86.875,
      "duration": 0.208,
      "velocity": 1,
      "hand": "right"
    },
    {
      "midi": 88,
      "time": 87.083,
      "duration": 0.417,
      "velocity": 1,
      "hand": "right"
    },
    {
      "midi": 48,
      "time": 87.5,
      "duration": 2.5,
      "velocity": 1,
      "hand": "left"
    },
    {
      "midi": 55,
      "time": 87.5,
      "duration": 2.5,
      "velocity": 1,
      "hand": "left"
    },
    {
      "midi": 60,
      "time": 87.5,
      "duration": 2.5,
      "velocity": 1,
      "hand": "right"
    },
    {
      "midi": 64,
      "time": 87.5,
      "duration": 2.5,
      "velocity": 1,
      "hand": "right"
    },
    {
      "midi": 67,
      "time": 87.5,
      "duration": 2.5,
      "velocity": 1,
      "hand": "right"
    },
    {
      "midi": 76,
      "time": 87.5,
      "duration": 0.833,
      "velocity": 1,
      "hand": "right"
    },
    {
      "midi": 74,
      "time": 88.333,
      "duration": 0.417,
      "velocity": 1,
      "hand": "right"
    },
    {
      "midi": 72,
      "time": 88.75,
      "duration": 0.417,
      "velocity": 1,
      "hand": "right"
    },
    {
      "midi": 71,
      "time": 89.167,
      "duration": 0.417,
      "velocity": 1,
      "hand": "right"
    },
    {
      "midi": 70,
      "time": 89.583,
      "duration": 0.417,
      "velocity": 1,
      "hand": "right"
    },
    {
      "midi": 76,
      "time": 90.417,
      "duration": 0.417,
      "velocity": 1,
      "hand": "right"
    },
    {
      "midi": 48,
      "time": 90.833,
      "duration": 1.667,
      "velocity": 1,
      "hand": "left"
    },
    {
      "midi": 55,
      "time": 90.833,
      "duration": 1.667,
      "velocity": 1,
      "hand": "left"
    },
    {
      "midi": 60,
      "time": 90.833,
      "duration": 1.667,
      "velocity": 1,
      "hand": "right"
    },
    {
      "midi": 64,
      "time": 90.833,
      "duration": 1.667,
      "velocity": 1,
      "hand": "right"
    },
    {
      "midi": 67,
      "time": 90.833,
      "duration": 1.667,
      "velocity": 1,
      "hand": "right"
    },
    {
      "midi": 74,
      "time": 90.833,
      "duration": 0.417,
      "velocity": 1,
      "hand": "right"
    },
    {
      "midi": 72,
      "time": 91.25,
      "duration": 0.417,
      "velocity": 1,
      "hand": "right"
    },
    {
      "midi": 71,
      "time": 91.667,
      "duration": 0.417,
      "velocity": 1,
      "hand": "right"
    },
    {
      "midi": 70,
      "time": 92.083,
      "duration": 0.417,
      "velocity": 1,
      "hand": "right"
    },
    {
      "midi": 77,
      "time": 92.5,
      "duration": 0.833,
      "velocity": 1,
      "hand": "right"
    },
    {
      "midi": 49,
      "time": 92.708,
      "duration": 0.208,
      "velocity": 1,
      "hand": "left"
    },
    {
      "midi": 56,
      "time": 92.708,
      "duration": 0.208,
      "velocity": 1,
      "hand": "left"
    },
    {
      "midi": 61,
      "time": 92.917,
      "duration": 0.208,
      "velocity": 1,
      "hand": "right"
    },
    {
      "midi": 65,
      "time": 93.125,
      "duration": 0.208,
      "velocity": 1,
      "hand": "right"
    },
    {
      "midi": 68,
      "time": 93.125,
      "duration": 0.208,
      "velocity": 1,
      "hand": "right"
    },
    {
      "midi": 70,
      "time": 93.333,
      "duration": 0.833,
      "velocity": 1,
      "hand": "right"
    },
    {
      "midi": 49,
      "time": 93.542,
      "duration": 0.208,
      "velocity": 1,
      "hand": "left"
    },
    {
      "midi": 51,
      "time": 93.542,
      "duration": 0.208,
      "velocity": 1,
      "hand": "left"
    },
    {
      "midi": 58,
      "time": 93.75,
      "duration": 0.208,
      "velocity": 1,
      "hand": "left"
    },
    {
      "midi": 63,
      "time": 93.958,
      "duration": 0.208,
      "velocity": 1,
      "hand": "right"
    },
    {
      "midi": 67,
      "time": 93.958,
      "duration": 0.208,
      "velocity": 1,
      "hand": "right"
    },
    {
      "midi": 75,
      "time": 94.167,
      "duration": 0.833,
      "velocity": 1,
      "hand": "right"
    },
    {
      "midi": 48,
      "time": 94.375,
      "duration": 0.208,
      "velocity": 1,
      "hand": "left"
    },
    {
      "midi": 51,
      "time": 94.375,
      "duration": 0.208,
      "velocity": 1,
      "hand": "left"
    },
    {
      "midi": 60,
      "time": 94.583,
      "duration": 0.208,
      "velocity": 1,
      "hand": "right"
    },
    {
      "midi": 63,
      "time": 94.792,
      "duration": 0.208,
      "velocity": 1,
      "hand": "right"
    },
    {
      "midi": 68,
      "time": 94.792,
      "duration": 0.208,
      "velocity": 1,
      "hand": "right"
    },
    {
      "midi": 68,
      "time": 95,
      "duration": 0.833,
      "velocity": 1,
      "hand": "right"
    },
    {
      "midi": 46,
      "time": 95.208,
      "duration": 0.208,
      "velocity": 1,
      "hand": "left"
    },
    {
      "midi": 53,
      "time": 95.208,
      "duration": 0.208,
      "velocity": 1,
      "hand": "left"
    },
    {
      "midi": 58,
      "time": 95.417,
      "duration": 0.208,
      "velocity": 1,
      "hand": "left"
    },
    {
      "midi": 61,
      "time": 95.625,
      "duration": 0.208,
      "velocity": 1,
      "hand": "right"
    },
    {
      "midi": 65,
      "time": 95.625,
      "duration": 0.208,
      "velocity": 1,
      "hand": "right"
    },
    {
      "midi": 67,
      "time": 95.833,
      "duration": 0.417,
      "velocity": 1,
      "hand": "right"
    },
    {
      "midi": 68,
      "time": 96.25,
      "duration": 0.417,
      "velocity": 1,
      "hand": "right"
    },
    {
      "midi": 51,
      "time": 96.667,
      "duration": 0.833,
      "velocity": 1,
      "hand": "left"
    },
    {
      "midi": 55,
      "time": 96.667,
      "duration": 0.833,
      "velocity": 1,
      "hand": "left"
    },
    {
      "midi": 62,
      "time": 96.667,
      "duration": 0.833,
      "velocity": 1,
      "hand": "right"
    },
    {
      "midi": 63,
      "time": 96.667,
      "duration": 0.833,
      "velocity": 1,
      "hand": "right"
    },
    {
      "midi": 72,
      "time": 96.667,
      "duration": 0.417,
      "velocity": 1,
      "hand": "right"
    },
    {
      "midi": 70,
      "time": 97.083,
      "duration": 0.417,
      "velocity": 1,
      "hand": "right"
    },
    {
      "midi": 77,
      "time": 97.5,
      "duration": 0.833,
      "velocity": 1,
      "hand": "right"
    },
    {
      "midi": 49,
      "time": 97.708,
      "duration": 0.208,
      "velocity": 1,
      "hand": "left"
    },
    {
      "midi": 56,
      "time": 97.708,
      "duration": 0.208,
      "velocity": 1,
      "hand": "left"
    },
    {
      "midi": 61,
      "time": 97.917,
      "duration": 0.208,
      "velocity": 1,
      "hand": "right"
    },
    {
      "midi": 65,
      "time": 98.125,
      "duration": 0.208,
      "velocity": 1,
      "hand": "right"
    },
    {
      "midi": 68,
      "time": 98.125,
      "duration": 0.208,
      "velocity": 1,
      "hand": "right"
    },
    {
      "midi": 70,
      "time": 98.333,
      "duration": 0.833,
      "velocity": 1,
      "hand": "right"
    },
    {
      "midi": 49,
      "time": 98.542,
      "duration": 0.208,
      "velocity": 1,
      "hand": "left"
    },
    {
      "midi": 51,
      "time": 98.542,
      "duration": 0.208,
      "velocity": 1,
      "hand": "left"
    },
    {
      "midi": 58,
      "time": 98.75,
      "duration": 0.208,
      "velocity": 1,
      "hand": "left"
    },
    {
      "midi": 63,
      "time": 98.958,
      "duration": 0.208,
      "velocity": 1,
      "hand": "right"
    },
    {
      "midi": 67,
      "time": 98.958,
      "duration": 0.208,
      "velocity": 1,
      "hand": "right"
    },
    {
      "midi": 75,
      "time": 99.167,
      "duration": 0.833,
      "velocity": 1,
      "hand": "right"
    },
    {
      "midi": 48,
      "time": 99.375,
      "duration": 0.208,
      "velocity": 1,
      "hand": "left"
    },
    {
      "midi": 51,
      "time": 99.375,
      "duration": 0.208,
      "velocity": 1,
      "hand": "left"
    },
    {
      "midi": 60,
      "time": 99.583,
      "duration": 0.208,
      "velocity": 1,
      "hand": "right"
    },
    {
      "midi": 63,
      "time": 99.792,
      "duration": 0.208,
      "velocity": 1,
      "hand": "right"
    },
    {
      "midi": 68,
      "time": 99.792,
      "duration": 0.208,
      "velocity": 1,
      "hand": "right"
    },
    {
      "midi": 80,
      "time": 100,
      "duration": 0.833,
      "velocity": 1,
      "hand": "right"
    },
    {
      "midi": 53,
      "time": 100.208,
      "duration": 0.208,
      "velocity": 1,
      "hand": "left"
    },
    {
      "midi": 60,
      "time": 100.208,
      "duration": 0.208,
      "velocity": 1,
      "hand": "right"
    },
    {
      "midi": 65,
      "time": 100.417,
      "duration": 0.208,
      "velocity": 1,
      "hand": "right"
    },
    {
      "midi": 68,
      "time": 100.625,
      "duration": 0.208,
      "velocity": 1,
      "hand": "right"
    },
    {
      "midi": 72,
      "time": 100.625,
      "duration": 0.208,
      "velocity": 1,
      "hand": "right"
    },
    {
      "midi": 74,
      "time": 100.833,
      "duration": 0.833,
      "velocity": 1,
      "hand": "right"
    },
    {
      "midi": 53,
      "time": 101.042,
      "duration": 0.208,
      "velocity": 1,
      "hand": "left"
    },
    {
      "midi": 55,
      "time": 101.042,
      "duration": 0.208,
      "velocity": 1,
      "hand": "left"
    },
    {
      "midi": 62,
      "time": 101.25,
      "duration": 0.208,
      "velocity": 1,
      "hand": "right"
    },
    {
      "midi": 67,
      "time": 101.458,
      "duration": 0.208,
      "velocity": 1,
      "hand": "right"
    },
    {
      "midi": 71,
      "time": 101.458,
      "duration": 0.208,
      "velocity": 1,
      "hand": "right"
    },
    {
      "midi": 79,
      "time": 101.667,
      "duration": 0.833,
      "velocity": 1,
      "hand": "right"
    },
    {
      "midi": 51,
      "time": 101.875,
      "duration": 0.208,
      "velocity": 1,
      "hand": "left"
    },
    {
      "midi": 55,
      "time": 101.875,
      "duration": 0.208,
      "velocity": 1,
      "hand": "left"
    },
    {
      "midi": 64,
      "time": 102.083,
      "duration": 0.208,
      "velocity": 1,
      "hand": "right"
    },
    {
      "midi": 67,
      "time": 102.292,
      "duration": 0.208,
      "velocity": 1,
      "hand": "right"
    },
    {
      "midi": 72,
      "time": 102.292,
      "duration": 0.208,
      "velocity": 1,
      "hand": "right"
    },
    {
      "midi": 71,
      "time": 102.5,
      "duration": 0.833,
      "velocity": 1,
      "hand": "right"
    },
    {
      "midi": 49,
      "time": 102.708,
      "duration": 0.208,
      "velocity": 1,
      "hand": "left"
    },
    {
      "midi": 55,
      "time": 102.708,
      "duration": 0.208,
      "velocity": 1,
      "hand": "left"
    },
    {
      "midi": 61,
      "time": 102.917,
      "duration": 0.208,
      "velocity": 1,
      "hand": "right"
    },
    {
      "midi": 59,
      "time": 103.125,
      "duration": 0.208,
      "velocity": 1,
      "hand": "left"
    },
    {
      "midi": 65,
      "time": 103.125,
      "duration": 0.208,
      "velocity": 1,
      "hand": "right"
    },
    {
      "midi": 70,
      "time": 103.333,
      "duration": 0.417,
      "velocity": 1,
      "hand": "right"
    },
    {
      "midi": 71,
      "time": 103.75,
      "duration": 0.417,
      "velocity": 1,
      "hand": "right"
    },
    {
      "midi": 48,
      "time": 104.167,
      "duration": 0.833,
      "velocity": 1,
      "hand": "left"
    },
    {
      "midi": 55,
      "time": 104.167,
      "duration": 0.833,
      "velocity": 1,
      "hand": "left"
    },
    {
      "midi": 60,
      "time": 104.167,
      "duration": 0.833,
      "velocity": 1,
      "hand": "right"
    },
    {
      "midi": 64,
      "time": 104.167,
      "duration": 0.833,
      "velocity": 1,
      "hand": "right"
    },
    {
      "midi": 67,
      "time": 104.167,
      "duration": 0.833,
      "velocity": 1,
      "hand": "right"
    },
    {
      "midi": 76,
      "time": 104.167,
      "duration": 0.417,
      "velocity": 1,
      "hand": "right"
    },
    {
      "midi": 72,
      "time": 104.583,
      "duration": 0.417,
      "velocity": 1,
      "hand": "right"
    },
    {
      "midi": 71,
      "time": 105,
      "duration": 0.833,
      "velocity": 1,
      "hand": "right"
    },
    {
      "midi": 49,
      "time": 105.208,
      "duration": 0.208,
      "velocity": 1,
      "hand": "left"
    },
    {
      "midi": 55,
      "time": 105.208,
      "duration": 0.208,
      "velocity": 1,
      "hand": "left"
    },
    {
      "midi": 61,
      "time": 105.417,
      "duration": 0.208,
      "velocity": 1,
      "hand": "right"
    },
    {
      "midi": 59,
      "time": 105.625,
      "duration": 0.208,
      "velocity": 1,
      "hand": "left"
    },
    {
      "midi": 65,
      "time": 105.625,
      "duration": 0.208,
      "velocity": 1,
      "hand": "right"
    },
    {
      "midi": 70,
      "time": 105.833,
      "duration": 0.417,
      "velocity": 1,
      "hand": "right"
    },
    {
      "midi": 71,
      "time": 106.25,
      "duration": 0.417,
      "velocity": 1,
      "hand": "right"
    },
    {
      "midi": 48,
      "time": 106.667,
      "duration": 0.833,
      "velocity": 1,
      "hand": "left"
    },
    {
      "midi": 55,
      "time": 106.667,
      "duration": 0.833,
      "velocity": 1,
      "hand": "left"
    },
    {
      "midi": 64,
      "time": 106.667,
      "duration": 0.833,
      "velocity": 1,
      "hand": "right"
    },
    {
      "midi": 67,
      "time": 106.667,
      "duration": 0.833,
      "velocity": 1,
      "hand": "right"
    },
    {
      "midi": 72,
      "time": 106.667,
      "duration": 0.833,
      "velocity": 1,
      "hand": "right"
    },
    {
      "midi": 79,
      "time": 106.667,
      "duration": 0.208,
      "velocity": 1,
      "hand": "right"
    },
    {
      "midi": 76,
      "time": 106.875,
      "duration": 0.208,
      "velocity": 1,
      "hand": "right"
    },
    {
      "midi": 71,
      "time": 107.5,
      "duration": 0.833,
      "velocity": 1,
      "hand": "right"
    },
    {
      "midi": 49,
      "time": 107.708,
      "duration": 0.208,
      "velocity": 1,
      "hand": "left"
    },
    {
      "midi": 55,
      "time": 107.708,
      "duration": 0.208,
      "velocity": 1,
      "hand": "left"
    },
    {
      "midi": 61,
      "time": 107.917,
      "duration": 0.208,
      "velocity": 1,
      "hand": "right"
    },
    {
      "midi": 59,
      "time": 108.125,
      "duration": 0.208,
      "velocity": 1,
      "hand": "left"
    },
    {
      "midi": 65,
      "time": 108.125,
      "duration": 0.208,
      "velocity": 1,
      "hand": "right"
    },
    {
      "midi": 70,
      "time": 108.333,
      "duration": 0.417,
      "velocity": 1,
      "hand": "right"
    },
    {
      "midi": 71,
      "time": 108.75,
      "duration": 0.417,
      "velocity": 1,
      "hand": "right"
    },
    {
      "midi": 48,
      "time": 109.167,
      "duration": 0.833,
      "velocity": 1,
      "hand": "left"
    },
    {
      "midi": 55,
      "time": 109.167,
      "duration": 0.833,
      "velocity": 1,
      "hand": "left"
    },
    {
      "midi": 60,
      "time": 109.167,
      "duration": 0.833,
      "velocity": 1,
      "hand": "right"
    },
    {
      "midi": 64,
      "time": 109.167,
      "duration": 0.833,
      "velocity": 1,
      "hand": "right"
    },
    {
      "midi": 67,
      "time": 109.167,
      "duration": 0.833,
      "velocity": 1,
      "hand": "right"
    },
    {
      "midi": 76,
      "time": 109.167,
      "duration": 0.417,
      "velocity": 1,
      "hand": "right"
    },
    {
      "midi": 72,
      "time": 109.583,
      "duration": 0.417,
      "velocity": 1,
      "hand": "right"
    },
    {
      "midi": 71,
      "time": 110,
      "duration": 0.833,
      "velocity": 1,
      "hand": "right"
    },
    {
      "midi": 49,
      "time": 110.208,
      "duration": 0.208,
      "velocity": 1,
      "hand": "left"
    },
    {
      "midi": 55,
      "time": 110.208,
      "duration": 0.208,
      "velocity": 1,
      "hand": "left"
    },
    {
      "midi": 61,
      "time": 110.417,
      "duration": 0.208,
      "velocity": 1,
      "hand": "right"
    },
    {
      "midi": 59,
      "time": 110.625,
      "duration": 0.208,
      "velocity": 1,
      "hand": "left"
    },
    {
      "midi": 65,
      "time": 110.625,
      "duration": 0.208,
      "velocity": 1,
      "hand": "right"
    },
    {
      "midi": 70,
      "time": 110.833,
      "duration": 0.417,
      "velocity": 1,
      "hand": "right"
    },
    {
      "midi": 71,
      "time": 111.25,
      "duration": 0.208,
      "velocity": 1,
      "hand": "right"
    },
    {
      "midi": 71,
      "time": 111.458,
      "duration": 0.104,
      "velocity": 1,
      "hand": "right"
    },
    {
      "midi": 72,
      "time": 111.458,
      "duration": 0.104,
      "velocity": 1,
      "hand": "right"
    },
    {
      "midi": 70,
      "time": 111.667,
      "duration": 0.104,
      "velocity": 1,
      "hand": "right"
    },
    {
      "midi": 71,
      "time": 111.667,
      "duration": 0.104,
      "velocity": 1,
      "hand": "right"
    },
    {
      "midi": 80,
      "time": 111.667,
      "duration": 0.208,
      "velocity": 1,
      "hand": "right"
    },
    {
      "midi": 79,
      "time": 111.875,
      "duration": 0.417,
      "velocity": 1,
      "hand": "right"
    },
    {
      "midi": 77,
      "time": 112.292,
      "duration": 0.208,
      "velocity": 1,
      "hand": "right"
    },
    {
      "midi": 77,
      "time": 112.5,
      "duration": 0.833,
      "velocity": 1,
      "hand": "right"
    },
    {
      "midi": 48,
      "time": 112.708,
      "duration": 0.208,
      "velocity": 1,
      "hand": "left"
    },
    {
      "midi": 55,
      "time": 112.708,
      "duration": 0.208,
      "velocity": 1,
      "hand": "left"
    },
    {
      "midi": 64,
      "time": 112.917,
      "duration": 0.208,
      "velocity": 1,
      "hand": "right"
    },
    {
      "midi": 67,
      "time": 113.125,
      "duration": 0.208,
      "velocity": 1,
      "hand": "right"
    },
    {
      "midi": 72,
      "time": 113.125,
      "duration": 0.208,
      "velocity": 1,
      "hand": "right"
    },
    {
      "midi": 76,
      "time": 113.333,
      "duration": 0.208,
      "velocity": 1,
      "hand": "right"
    },
    {
      "midi": 75,
      "time": 113.542,
      "duration": 0.208,
      "velocity": 1,
      "hand": "right"
    },
    {
      "midi": 76,
      "time": 113.542,
      "duration": 0.208,
      "velocity": 1,
      "hand": "right"
    },
    {
      "midi": 79,
      "time": 113.75,
      "duration": 0.208,
      "velocity": 1,
      "hand": "right"
    },
    {
      "midi": 78,
      "time": 113.958,
      "duration": 0.208,
      "velocity": 1,
      "hand": "right"
    },
    {
      "midi": 79,
      "time": 113.958,
      "duration": 0.208,
      "velocity": 1,
      "hand": "right"
    },
    {
      "midi": 84,
      "time": 114.167,
      "duration": 0.417,
      "velocity": 1,
      "hand": "right"
    },
    {
      "midi": 48,
      "time": 115,
      "duration": 2.5,
      "velocity": 1,
      "hand": "left"
    },
    {
      "midi": 55,
      "time": 115,
      "duration": 2.5,
      "velocity": 1,
      "hand": "left"
    },
    {
      "midi": 60,
      "time": 115,
      "duration": 2.5,
      "velocity": 1,
      "hand": "right"
    },
    {
      "midi": 64,
      "time": 115,
      "duration": 2.5,
      "velocity": 1,
      "hand": "right"
    },
    {
      "midi": 67,
      "time": 115,
      "duration": 2.5,
      "velocity": 1,
      "hand": "right"
    },
    {
      "midi": 76,
      "time": 115,
      "duration": 0.833,
      "velocity": 1,
      "hand": "right"
    },
    {
      "midi": 74,
      "time": 115.833,
      "duration": 0.417,
      "velocity": 1,
      "hand": "right"
    },
    {
      "midi": 72,
      "time": 116.25,
      "duration": 0.417,
      "velocity": 1,
      "hand": "right"
    },
    {
      "midi": 71,
      "time": 116.667,
      "duration": 0.417,
      "velocity": 1,
      "hand": "right"
    },
    {
      "midi": 70,
      "time": 117.083,
      "duration": 0.417,
      "velocity": 1,
      "hand": "right"
    },
    {
      "midi": 40,
      "time": 117.708,
      "duration": 0.208,
      "velocity": 1,
      "hand": "left"
    },
    {
      "midi": 47,
      "time": 117.708,
      "duration": 0.208,
      "velocity": 1,
      "hand": "left"
    },
    {
      "midi": 55,
      "time": 117.917,
      "duration": 0.208,
      "velocity": 1,
      "hand": "left"
    },
    {
      "midi": 59,
      "time": 118.125,
      "duration": 0.208,
      "velocity": 1,
      "hand": "left"
    },
    {
      "midi": 64,
      "time": 118.125,
      "duration": 0.208,
      "velocity": 1,
      "hand": "right"
    },
    {
      "midi": 69,
      "time": 118.333,
      "duration": 0.208,
      "velocity": 1,
      "hand": "right"
    },
    {
      "midi": 64,
      "time": 118.542,
      "duration": 0.208,
      "velocity": 1,
      "hand": "right"
    },
    {
      "midi": 67,
      "time": 118.542,
      "duration": 0.208,
      "velocity": 1,
      "hand": "right"
    },
    {
      "midi": 70,
      "time": 118.75,
      "duration": 0.208,
      "velocity": 1,
      "hand": "right"
    },
    {
      "midi": 71,
      "time": 118.958,
      "duration": 0.208,
      "velocity": 1,
      "hand": "right"
    },
    {
      "midi": 76,
      "time": 118.958,
      "duration": 0.208,
      "velocity": 1,
      "hand": "right"
    },
    {
      "midi": 78,
      "time": 119.167,
      "duration": 0.208,
      "velocity": 1,
      "hand": "right"
    },
    {
      "midi": 79,
      "time": 119.375,
      "duration": 0.208,
      "velocity": 1,
      "hand": "right"
    },
    {
      "midi": 83,
      "time": 119.375,
      "duration": 0.208,
      "velocity": 1,
      "hand": "right"
    },
    {
      "midi": 88,
      "time": 119.583,
      "duration": 0.417,
      "velocity": 1,
      "hand": "right"
    },
    {
      "midi": 48,
      "time": 120,
      "duration": 2.5,
      "velocity": 1,
      "hand": "left"
    },
    {
      "midi": 55,
      "time": 120,
      "duration": 2.5,
      "velocity": 1,
      "hand": "left"
    },
    {
      "midi": 60,
      "time": 120,
      "duration": 2.5,
      "velocity": 1,
      "hand": "right"
    },
    {
      "midi": 64,
      "time": 120,
      "duration": 2.5,
      "velocity": 1,
      "hand": "right"
    },
    {
      "midi": 67,
      "time": 120,
      "duration": 2.5,
      "velocity": 1,
      "hand": "right"
    },
    {
      "midi": 76,
      "time": 120,
      "duration": 0.833,
      "velocity": 1,
      "hand": "right"
    },
    {
      "midi": 74,
      "time": 120.833,
      "duration": 0.417,
      "velocity": 1,
      "hand": "right"
    },
    {
      "midi": 72,
      "time": 121.25,
      "duration": 0.417,
      "velocity": 1,
      "hand": "right"
    },
    {
      "midi": 71,
      "time": 121.667,
      "duration": 0.417,
      "velocity": 1,
      "hand": "right"
    },
    {
      "midi": 70,
      "time": 122.083,
      "duration": 0.417,
      "velocity": 1,
      "hand": "right"
    },
    {
      "midi": 40,
      "time": 122.708,
      "duration": 0.208,
      "velocity": 1,
      "hand": "left"
    },
    {
      "midi": 47,
      "time": 122.708,
      "duration": 0.208,
      "velocity": 1,
      "hand": "left"
    },
    {
      "midi": 55,
      "time": 122.917,
      "duration": 0.208,
      "velocity": 1,
      "hand": "left"
    },
    {
      "midi": 59,
      "time": 123.125,
      "duration": 0.208,
      "velocity": 1,
      "hand": "left"
    },
    {
      "midi": 64,
      "time": 123.125,
      "duration": 0.208,
      "velocity": 1,
      "hand": "right"
    },
    {
      "midi": 69,
      "time": 123.333,
      "duration": 0.208,
      "velocity": 1,
      "hand": "right"
    },
    {
      "midi": 64,
      "time": 123.542,
      "duration": 0.208,
      "velocity": 1,
      "hand": "right"
    },
    {
      "midi": 67,
      "time": 123.542,
      "duration": 0.208,
      "velocity": 1,
      "hand": "right"
    },
    {
      "midi": 60,
      "time": 123.75,
      "duration": 0.208,
      "velocity": 1,
      "hand": "right"
    },
    {
      "midi": 55,
      "time": 123.958,
      "duration": 0.208,
      "velocity": 1,
      "hand": "left"
    },
    {
      "midi": 59,
      "time": 123.958,
      "duration": 0.208,
      "velocity": 1,
      "hand": "left"
    },
    {
      "midi": 48,
      "time": 124.167,
      "duration": 0.208,
      "velocity": 1,
      "hand": "left"
    },
    {
      "midi": 43,
      "time": 124.375,
      "duration": 0.208,
      "velocity": 1,
      "hand": "left"
    },
    {
      "midi": 47,
      "time": 124.375,
      "duration": 0.208,
      "velocity": 1,
      "hand": "left"
    },
    {
      "midi": 40,
      "time": 124.583,
      "duration": 0.417,
      "velocity": 1,
      "hand": "left"
    },
    {
      "midi": 76,
      "time": 125,
      "duration": 0.833,
      "velocity": 1,
      "hand": "right"
    },
    {
      "midi": 48,
      "time": 125.833,
      "duration": 1.667,
      "velocity": 1,
      "hand": "left"
    },
    {
      "midi": 55,
      "time": 125.833,
      "duration": 1.667,
      "velocity": 1,
      "hand": "left"
    },
    {
      "midi": 60,
      "time": 125.833,
      "duration": 1.667,
      "velocity": 1,
      "hand": "right"
    },
    {
      "midi": 64,
      "time": 125.833,
      "duration": 1.667,
      "velocity": 1,
      "hand": "right"
    },
    {
      "midi": 67,
      "time": 125.833,
      "duration": 1.667,
      "velocity": 1,
      "hand": "right"
    },
    {
      "midi": 74,
      "time": 125.833,
      "duration": 0.417,
      "velocity": 1,
      "hand": "right"
    },
    {
      "midi": 72,
      "time": 126.25,
      "duration": 0.417,
      "velocity": 1,
      "hand": "right"
    },
    {
      "midi": 71,
      "time": 126.667,
      "duration": 0.417,
      "velocity": 1,
      "hand": "right"
    },
    {
      "midi": 70,
      "time": 127.083,
      "duration": 0.417,
      "velocity": 1,
      "hand": "right"
    },
    {
      "midi": 76,
      "time": 127.917,
      "duration": 0.417,
      "velocity": 1,
      "hand": "right"
    },
    {
      "midi": 48,
      "time": 128.333,
      "duration": 1.667,
      "velocity": 1,
      "hand": "left"
    },
    {
      "midi": 54,
      "time": 128.333,
      "duration": 1.667,
      "velocity": 1,
      "hand": "left"
    },
    {
      "midi": 60,
      "time": 128.333,
      "duration": 1.667,
      "velocity": 1,
      "hand": "right"
    },
    {
      "midi": 64,
      "time": 128.333,
      "duration": 1.667,
      "velocity": 1,
      "hand": "right"
    },
    {
      "midi": 66,
      "time": 128.333,
      "duration": 1.667,
      "velocity": 1,
      "hand": "right"
    },
    {
      "midi": 68,
      "time": 128.75,
      "duration": 0.417,
      "velocity": 1,
      "hand": "right"
    },
    {
      "midi": 69,
      "time": 129.167,
      "duration": 0.417,
      "velocity": 1,
      "hand": "right"
    },
    {
      "midi": 70,
      "time": 129.583,
      "duration": 0.417,
      "velocity": 1,
      "hand": "right"
    },
    {
      "midi": 78,
      "time": 130,
      "duration": 0.833,
      "velocity": 1,
      "hand": "right"
    },
    {
      "midi": 47,
      "time": 130.208,
      "duration": 0.208,
      "velocity": 1,
      "hand": "left"
    },
    {
      "midi": 55,
      "time": 130.208,
      "duration": 0.208,
      "velocity": 1,
      "hand": "left"
    },
    {
      "midi": 63,
      "time": 130.417,
      "duration": 0.208,
      "velocity": 1,
      "hand": "right"
    },
    {
      "midi": 66,
      "time": 130.625,
      "duration": 0.208,
      "velocity": 1,
      "hand": "right"
    },
    {
      "midi": 71,
      "time": 130.625,
      "duration": 0.208,
      "velocity": 1,
      "hand": "right"
    },
    {
      "midi": 74,
      "time": 130.833,
      "duration": 0.833,
      "velocity": 1,
      "hand": "right"
    },
    {
      "midi": 47,
      "time": 131.042,
      "duration": 0.208,
      "velocity": 1,
      "hand": "left"
    },
    {
      "midi": 55,
      "time": 131.042,
      "duration": 0.208,
      "velocity": 1,
      "hand": "left"
    },
    {
      "midi": 59,
      "time": 131.25,
      "duration": 0.208,
      "velocity": 1,
      "hand": "left"
    },
    {
      "midi": 62,
      "time": 131.458,
      "duration": 0.208,
      "velocity": 1,
      "hand": "right"
    },
    {
      "midi": 67,
      "time": 131.458,
      "duration": 0.208,
      "velocity": 1,
      "hand": "right"
    },
    {
      "midi": 75,
      "time": 131.667,
      "duration": 0.833,
      "velocity": 1,
      "hand": "right"
    },
    {
      "midi": 47,
      "time": 131.875,
      "duration": 0.208,
      "velocity": 1,
      "hand": "left"
    },
    {
      "midi": 55,
      "time": 131.875,
      "duration": 0.208,
      "velocity": 1,
      "hand": "left"
    },
    {
      "midi": 59,
      "time": 132.083,
      "duration": 0.208,
      "velocity": 1,
      "hand": "left"
    },
    {
      "midi": 63,
      "time": 132.292,
      "duration": 0.208,
      "velocity": 1,
      "hand": "right"
    },
    {
      "midi": 66,
      "time": 132.292,
      "duration": 0.208,
      "velocity": 1,
      "hand": "right"
    },
    {
      "midi": 68,
      "time": 132.5,
      "duration": 0.833,
      "velocity": 1,
      "hand": "right"
    },
    {
      "midi": 47,
      "time": 132.708,
      "duration": 0.208,
      "velocity": 1,
      "hand": "left"
    },
    {
      "midi": 53,
      "time": 132.708,
      "duration": 0.208,
      "velocity": 1,
      "hand": "left"
    },
    {
      "midi": 59,
      "time": 132.917,
      "duration": 0.208,
      "velocity": 1,
      "hand": "left"
    },
    {
      "midi": 61,
      "time": 133.125,
      "duration": 0.208,
      "velocity": 1,
      "hand": "right"
    },
    {
      "midi": 65,
      "time": 133.125,
      "duration": 0.208,
      "velocity": 1,
      "hand": "right"
    },
    {
      "midi": 70,
      "time": 133.333,
      "duration": 0.417,
      "velocity": 1,
      "hand": "right"
    },
    {
      "midi": 71,
      "time": 133.75,
      "duration": 0.417,
      "velocity": 1,
      "hand": "right"
    },
    {
      "midi": 47,
      "time": 134.167,
      "duration": 0.833,
      "velocity": 1,
      "hand": "left"
    },
    {
      "midi": 54,
      "time": 134.167,
      "duration": 0.833,
      "velocity": 1,
      "hand": "left"
    },
    {
      "midi": 58,
      "time": 134.167,
      "duration": 0.833,
      "velocity": 1,
      "hand": "left"
    },
    {
      "midi": 64,
      "time": 134.167,
      "duration": 0.833,
      "velocity": 1,
      "hand": "right"
    },
    {
      "midi": 66,
      "time": 134.167,
      "duration": 0.833,
      "velocity": 1,
      "hand": "right"
    },
    {
      "midi": 75,
      "time": 134.167,
      "duration": 0.417,
      "velocity": 1,
      "hand": "right"
    },
    {
      "midi": 73,
      "time": 134.583,
      "duration": 0.417,
      "velocity": 1,
      "hand": "right"
    },
    {
      "midi": 78,
      "time": 135,
      "duration": 0.833,
      "velocity": 1,
      "hand": "right"
    },
    {
      "midi": 47,
      "time": 135.208,
      "duration": 0.208,
      "velocity": 1,
      "hand": "left"
    },
    {
      "midi": 55,
      "time": 135.208,
      "duration": 0.208,
      "velocity": 1,
      "hand": "left"
    },
    {
      "midi": 63,
      "time": 135.417,
      "duration": 0.208,
      "velocity": 1,
      "hand": "right"
    },
    {
      "midi": 66,
      "time": 135.625,
      "duration": 0.208,
      "velocity": 1,
      "hand": "right"
    },
    {
      "midi": 71,
      "time": 135.625,
      "duration": 0.208,
      "velocity": 1,
      "hand": "right"
    },
    {
      "midi": 74,
      "time": 135.833,
      "duration": 0.833,
      "velocity": 1,
      "hand": "right"
    },
    {
      "midi": 47,
      "time": 136.042,
      "duration": 0.208,
      "velocity": 1,
      "hand": "left"
    },
    {
      "midi": 55,
      "time": 136.042,
      "duration": 0.208,
      "velocity": 1,
      "hand": "left"
    },
    {
      "midi": 59,
      "time": 136.25,
      "duration": 0.208,
      "velocity": 1,
      "hand": "left"
    },
    {
      "midi": 62,
      "time": 136.458,
      "duration": 0.208,
      "velocity": 1,
      "hand": "right"
    },
    {
      "midi": 67,
      "time": 136.458,
      "duration": 0.208,
      "velocity": 1,
      "hand": "right"
    },
    {
      "midi": 75,
      "time": 136.667,
      "duration": 0.833,
      "velocity": 1,
      "hand": "right"
    },
    {
      "midi": 47,
      "time": 136.875,
      "duration": 0.208,
      "velocity": 1,
      "hand": "left"
    },
    {
      "midi": 55,
      "time": 136.875,
      "duration": 0.208,
      "velocity": 1,
      "hand": "left"
    },
    {
      "midi": 59,
      "time": 137.083,
      "duration": 0.208,
      "velocity": 1,
      "hand": "left"
    },
    {
      "midi": 63,
      "time": 137.292,
      "duration": 0.208,
      "velocity": 1,
      "hand": "right"
    },
    {
      "midi": 66,
      "time": 137.292,
      "duration": 0.208,
      "velocity": 1,
      "hand": "right"
    },
    {
      "midi": 68,
      "time": 137.5,
      "duration": 0.833,
      "velocity": 1,
      "hand": "right"
    },
    {
      "midi": 47,
      "time": 137.708,
      "duration": 0.208,
      "velocity": 1,
      "hand": "left"
    },
    {
      "midi": 53,
      "time": 137.708,
      "duration": 0.208,
      "velocity": 1,
      "hand": "left"
    },
    {
      "midi": 59,
      "time": 137.917,
      "duration": 0.208,
      "velocity": 1,
      "hand": "left"
    },
    {
      "midi": 61,
      "time": 138.125,
      "duration": 0.208,
      "velocity": 1,
      "hand": "right"
    },
    {
      "midi": 65,
      "time": 138.125,
      "duration": 0.208,
      "velocity": 1,
      "hand": "right"
    },
    {
      "midi": 70,
      "time": 138.333,
      "duration": 0.417,
      "velocity": 1,
      "hand": "right"
    },
    {
      "midi": 71,
      "time": 138.75,
      "duration": 0.417,
      "velocity": 1,
      "hand": "right"
    },
    {
      "midi": 47,
      "time": 139.167,
      "duration": 0.833,
      "velocity": 1,
      "hand": "left"
    },
    {
      "midi": 54,
      "time": 139.167,
      "duration": 0.833,
      "velocity": 1,
      "hand": "left"
    },
    {
      "midi": 58,
      "time": 139.167,
      "duration": 0.833,
      "velocity": 1,
      "hand": "left"
    },
    {
      "midi": 64,
      "time": 139.167,
      "duration": 0.833,
      "velocity": 1,
      "hand": "right"
    },
    {
      "midi": 66,
      "time": 139.167,
      "duration": 0.833,
      "velocity": 1,
      "hand": "right"
    },
    {
      "midi": 75,
      "time": 139.167,
      "duration": 0.417,
      "velocity": 1,
      "hand": "right"
    },
    {
      "midi": 73,
      "time": 139.583,
      "duration": 0.417,
      "velocity": 1,
      "hand": "right"
    },
    {
      "midi": 78,
      "time": 140,
      "duration": 0.833,
      "velocity": 1,
      "hand": "right"
    },
    {
      "midi": 47,
      "time": 140.208,
      "duration": 0.208,
      "velocity": 1,
      "hand": "left"
    },
    {
      "midi": 55,
      "time": 140.208,
      "duration": 0.208,
      "velocity": 1,
      "hand": "left"
    },
    {
      "midi": 63,
      "time": 140.417,
      "duration": 0.208,
      "velocity": 1,
      "hand": "right"
    },
    {
      "midi": 66,
      "time": 140.625,
      "duration": 0.208,
      "velocity": 1,
      "hand": "right"
    },
    {
      "midi": 71,
      "time": 140.625,
      "duration": 0.208,
      "velocity": 1,
      "hand": "right"
    },
    {
      "midi": 74,
      "time": 140.833,
      "duration": 0.833,
      "velocity": 1,
      "hand": "right"
    },
    {
      "midi": 47,
      "time": 141.042,
      "duration": 0.208,
      "velocity": 1,
      "hand": "left"
    },
    {
      "midi": 55,
      "time": 141.042,
      "duration": 0.208,
      "velocity": 1,
      "hand": "left"
    },
    {
      "midi": 59,
      "time": 141.25,
      "duration": 0.208,
      "velocity": 1,
      "hand": "left"
    },
    {
      "midi": 62,
      "time": 141.458,
      "duration": 0.208,
      "velocity": 1,
      "hand": "right"
    },
    {
      "midi": 67,
      "time": 141.458,
      "duration": 0.208,
      "velocity": 1,
      "hand": "right"
    },
    {
      "midi": 75,
      "time": 141.667,
      "duration": 0.833,
      "velocity": 1,
      "hand": "right"
    },
    {
      "midi": 47,
      "time": 141.875,
      "duration": 0.208,
      "velocity": 1,
      "hand": "left"
    },
    {
      "midi": 55,
      "time": 141.875,
      "duration": 0.208,
      "velocity": 1,
      "hand": "left"
    },
    {
      "midi": 59,
      "time": 142.083,
      "duration": 0.208,
      "velocity": 1,
      "hand": "left"
    },
    {
      "midi": 63,
      "time": 142.292,
      "duration": 0.208,
      "velocity": 1,
      "hand": "right"
    },
    {
      "midi": 66,
      "time": 142.292,
      "duration": 0.208,
      "velocity": 1,
      "hand": "right"
    },
    {
      "midi": 67,
      "time": 142.5,
      "duration": 0.833,
      "velocity": 1,
      "hand": "right"
    },
    {
      "midi": 47,
      "time": 142.708,
      "duration": 0.208,
      "velocity": 1,
      "hand": "left"
    },
    {
      "midi": 53,
      "time": 142.708,
      "duration": 0.208,
      "velocity": 1,
      "hand": "left"
    },
    {
      "midi": 55,
      "time": 142.917,
      "duration": 0.208,
      "velocity": 1,
      "hand": "left"
    },
    {
      "midi": 59,
      "time": 143.125,
      "duration": 0.208,
      "velocity": 1,
      "hand": "left"
    },
    {
      "midi": 62,
      "time": 143.125,
      "duration": 0.208,
      "velocity": 1,
      "hand": "right"
    },
    {
      "midi": 66,
      "time": 143.333,
      "duration": 0.833,
      "velocity": 1,
      "hand": "right"
    },
    {
      "midi": 47,
      "time": 143.542,
      "duration": 0.208,
      "velocity": 1,
      "hand": "left"
    },
    {
      "midi": 55,
      "time": 143.542,
      "duration": 0.208,
      "velocity": 1,
      "hand": "left"
    },
    {
      "midi": 59,
      "time": 143.75,
      "duration": 0.208,
      "velocity": 1,
      "hand": "left"
    },
    {
      "midi": 62,
      "time": 143.958,
      "duration": 0.208,
      "velocity": 1,
      "hand": "right"
    },
    {
      "midi": 63,
      "time": 143.958,
      "duration": 0.208,
      "velocity": 1,
      "hand": "right"
    },
    {
      "midi": 55,
      "time": 144.167,
      "duration": 0.833,
      "velocity": 1,
      "hand": "left"
    },
    {
      "midi": 35,
      "time": 144.375,
      "duration": 0.208,
      "velocity": 1,
      "hand": "left"
    },
    {
      "midi": 41,
      "time": 144.375,
      "duration": 0.208,
      "velocity": 1,
      "hand": "left"
    },
    {
      "midi": 43,
      "time": 144.583,
      "duration": 0.208,
      "velocity": 1,
      "hand": "left"
    },
    {
      "midi": 47,
      "time": 144.792,
      "duration": 0.208,
      "velocity": 1,
      "hand": "left"
    },
    {
      "midi": 50,
      "time": 144.792,
      "duration": 0.208,
      "velocity": 1,
      "hand": "left"
    },
    {
      "midi": 54,
      "time": 145,
      "duration": 0.625,
      "velocity": 1,
      "hand": "left"
    },
    {
      "midi": 35,
      "time": 145.208,
      "duration": 0.208,
      "velocity": 1,
      "hand": "left"
    },
    {
      "midi": 42,
      "time": 145.208,
      "duration": 0.208,
      "velocity": 1,
      "hand": "left"
    },
    {
      "midi": 51,
      "time": 145.417,
      "duration": 0.208,
      "velocity": 1,
      "hand": "left"
    },
    {
      "midi": 53,
      "time": 145.625,
      "duration": 0.208,
      "velocity": 1,
      "hand": "left"
    },
    {
      "midi": 54,
      "time": 145.625,
      "duration": 0.208,
      "velocity": 1,
      "hand": "left"
    },
    {
      "midi": 55,
      "time": 145.833,
      "duration": 0.208,
      "velocity": 1,
      "hand": "left"
    },
    {
      "midi": 56,
      "time": 146.042,
      "duration": 0.208,
      "velocity": 1,
      "hand": "left"
    },
    {
      "midi": 57,
      "time": 146.25,
      "duration": 0.208,
      "velocity": 1,
      "hand": "left"
    },
    {
      "midi": 58,
      "time": 146.458,
      "duration": 0.208,
      "velocity": 1,
      "hand": "left"
    },
    {
      "midi": 59,
      "time": 146.667,
      "duration": 0.208,
      "velocity": 1,
      "hand": "left"
    },
    {
      "midi": 61,
      "time": 146.875,
      "duration": 0.417,
      "velocity": 1,
      "hand": "right"
    },
    {
      "midi": 62,
      "time": 147.292,
      "duration": 0.625,
      "velocity": 1,
      "hand": "right"
    },
    {
      "midi": 63,
      "time": 147.917,
      "duration": 0.833,
      "velocity": 1,
      "hand": "right"
    },
    {
      "midi": 64,
      "time": 148.75,
      "duration": 0.417,
      "velocity": 1,
      "hand": "right"
    },
    {
      "midi": 65,
      "time": 149.167,
      "duration": 0.417,
      "velocity": 1,
      "hand": "right"
    },
    {
      "midi": 66,
      "time": 149.583,
      "duration": 0.417,
      "velocity": 1,
      "hand": "right"
    },
    {
      "midi": 66,
      "time": 152.5,
      "duration": 0.417,
      "velocity": 1,
      "hand": "right"
    },
    {
      "midi": 68,
      "time": 152.917,
      "duration": 0.208,
      "velocity": 1,
      "hand": "right"
    },
    {
      "midi": 69,
      "time": 153.125,
      "duration": 0.208,
      "velocity": 1,
      "hand": "right"
    },
    {
      "midi": 50,
      "time": 153.333,
      "duration": 0.833,
      "velocity": 1,
      "hand": "left"
    },
    {
      "midi": 52,
      "time": 153.333,
      "duration": 1.667,
      "velocity": 1,
      "hand": "left"
    },
    {
      "midi": 59,
      "time": 153.333,
      "duration": 0.833,
      "velocity": 1,
      "hand": "left"
    },
    {
      "midi": 64,
      "time": 153.333,
      "duration": 0.833,
      "velocity": 1,
      "hand": "right"
    },
    {
      "midi": 68,
      "time": 153.333,
      "duration": 0.417,
      "velocity": 1,
      "hand": "right"
    },
    {
      "midi": 71,
      "time": 153.75,
      "duration": 0.417,
      "velocity": 1,
      "hand": "right"
    },
    {
      "midi": 49,
      "time": 154.167,
      "duration": 0.833,
      "velocity": 1,
      "hand": "left"
    },
    {
      "midi": 64,
      "time": 154.167,
      "duration": 1.667,
      "velocity": 1,
      "hand": "right"
    },
    {
      "midi": 69,
      "time": 154.583,
      "duration": 0.417,
      "velocity": 1,
      "hand": "right"
    },
    {
      "midi": 47,
      "time": 155,
      "duration": 0.417,
      "velocity": 1,
      "hand": "left"
    },
    {
      "midi": 52,
      "time": 155,
      "duration": 0.833,
      "velocity": 1,
      "hand": "left"
    },
    {
      "midi": 68,
      "time": 155,
      "duration": 0.417,
      "velocity": 1,
      "hand": "right"
    },
    {
      "midi": 71,
      "time": 155,
      "duration": 0.417,
      "velocity": 1,
      "hand": "right"
    },
    {
      "midi": 45,
      "time": 155.417,
      "duration": 0.417,
      "velocity": 1,
      "hand": "left"
    },
    {
      "midi": 69,
      "time": 155.417,
      "duration": 0.417,
      "velocity": 1,
      "hand": "right"
    },
    {
      "midi": 73,
      "time": 155.417,
      "duration": 0.417,
      "velocity": 1,
      "hand": "right"
    },
    {
      "midi": 44,
      "time": 155.833,
      "duration": 0.833,
      "velocity": 1,
      "hand": "left"
    },
    {
      "midi": 52,
      "time": 155.833,
      "duration": 1.667,
      "velocity": 1,
      "hand": "left"
    },
    {
      "midi": 64,
      "time": 155.833,
      "duration": 1.667,
      "velocity": 1,
      "hand": "right"
    },
    {
      "midi": 71,
      "time": 155.833,
      "duration": 0.833,
      "velocity": 1,
      "hand": "right"
    },
    {
      "midi": 76,
      "time": 155.833,
      "duration": 0.833,
      "velocity": 1,
      "hand": "right"
    },
    {
      "midi": 45,
      "time": 156.667,
      "duration": 0.833,
      "velocity": 1,
      "hand": "left"
    },
    {
      "midi": 69,
      "time": 156.667,
      "duration": 0.833,
      "velocity": 1,
      "hand": "right"
    },
    {
      "midi": 73,
      "time": 156.667,
      "duration": 0.833,
      "velocity": 1,
      "hand": "right"
    },
    {
      "midi": 73,
      "time": 157.5,
      "duration": 0.417,
      "velocity": 1,
      "hand": "right"
    },
    {
      "midi": 74,
      "time": 157.917,
      "duration": 0.208,
      "velocity": 1,
      "hand": "right"
    },
    {
      "midi": 76,
      "time": 158.125,
      "duration": 0.208,
      "velocity": 1,
      "hand": "right"
    },
    {
      "midi": 46,
      "time": 158.333,
      "duration": 0.833,
      "velocity": 1,
      "hand": "left"
    },
    {
      "midi": 54,
      "time": 158.333,
      "duration": 0.833,
      "velocity": 1,
      "hand": "left"
    },
    {
      "midi": 61,
      "time": 158.333,
      "duration": 0.833,
      "velocity": 1,
      "hand": "right"
    },
    {
      "midi": 66,
      "time": 158.333,
      "duration": 0.833,
      "velocity": 1,
      "hand": "right"
    },
    {
      "midi": 73,
      "time": 158.333,
      "duration": 0.417,
      "velocity": 1,
      "hand": "right"
    },
    {
      "midi": 78,
      "time": 158.333,
      "duration": 0.417,
      "velocity": 1,
      "hand": "right"
    },
    {
      "midi": 73,
      "time": 158.75,
      "duration": 0.417,
      "velocity": 1,
      "hand": "right"
    },
    {
      "midi": 47,
      "time": 159.167,
      "duration": 0.833,
      "velocity": 1,
      "hand": "left"
    },
    {
      "midi": 54,
      "time": 159.167,
      "duration": 0.833,
      "velocity": 1,
      "hand": "left"
    },
    {
      "midi": 59,
      "time": 159.167,
      "duration": 0.833,
      "velocity": 1,
      "hand": "left"
    },
    {
      "midi": 66,
      "time": 159.167,
      "duration": 0.833,
      "velocity": 1,
      "hand": "right"
    },
    {
      "midi": 71,
      "time": 159.167,
      "duration": 0.833,
      "velocity": 1,
      "hand": "right"
    },
    {
      "midi": 74,
      "time": 159.167,
      "duration": 0.833,
      "velocity": 1,
      "hand": "right"
    },
    {
      "midi": 66,
      "time": 160,
      "duration": 0.417,
      "velocity": 1,
      "hand": "right"
    },
    {
      "midi": 68,
      "time": 160.417,
      "duration": 0.208,
      "velocity": 1,
      "hand": "right"
    },
    {
      "midi": 69,
      "time": 160.625,
      "duration": 0.208,
      "velocity": 1,
      "hand": "right"
    },
    {
      "midi": 47,
      "time": 160.833,
      "duration": 0.833,
      "velocity": 1,
      "hand": "left"
    },
    {
      "midi": 57,
      "time": 160.833,
      "duration": 0.833,
      "velocity": 1,
      "hand": "left"
    },
    {
      "midi": 63,
      "time": 160.833,
      "duration": 0.833,
      "velocity": 1,
      "hand": "right"
    },
    {
      "midi": 73,
      "time": 160.833,
      "duration": 0.417,
      "velocity": 1,
      "hand": "right"
    },
    {
      "midi": 70,
      "time": 161.25,
      "duration": 0.833,
      "velocity": 1,
      "hand": "right"
    },
    {
      "midi": 52,
      "time": 161.667,
      "duration": 0.833,
      "velocity": 1,
      "hand": "left"
    },
    {
      "midi": 56,
      "time": 161.667,
      "duration": 0.833,
      "velocity": 1,
      "hand": "left"
    },
    {
      "midi": 62,
      "time": 161.667,
      "duration": 0.833,
      "velocity": 1,
      "hand": "right"
    },
    {
      "midi": 71,
      "time": 162.083,
      "duration": 0.417,
      "velocity": 1,
      "hand": "right"
    },
    {
      "midi": 66,
      "time": 162.5,
      "duration": 0.417,
      "velocity": 1,
      "hand": "right"
    },
    {
      "midi": 68,
      "time": 162.917,
      "duration": 0.208,
      "velocity": 1,
      "hand": "right"
    },
    {
      "midi": 69,
      "time": 163.125,
      "duration": 0.208,
      "velocity": 1,
      "hand": "right"
    },
    {
      "midi": 50,
      "time": 163.333,
      "duration": 0.833,
      "velocity": 1,
      "hand": "left"
    },
    {
      "midi": 52,
      "time": 163.333,
      "duration": 1.667,
      "velocity": 1,
      "hand": "left"
    },
    {
      "midi": 59,
      "time": 163.333,
      "duration": 0.833,
      "velocity": 1,
      "hand": "left"
    },
    {
      "midi": 64,
      "time": 163.333,
      "duration": 0.833,
      "velocity": 1,
      "hand": "right"
    },
    {
      "midi": 68,
      "time": 163.333,
      "duration": 0.417,
      "velocity": 1,
      "hand": "right"
    },
    {
      "midi": 71,
      "time": 163.75,
      "duration": 0.417,
      "velocity": 1,
      "hand": "right"
    },
    {
      "midi": 49,
      "time": 164.167,
      "duration": 0.833,
      "velocity": 1,
      "hand": "left"
    },
    {
      "midi": 64,
      "time": 164.167,
      "duration": 1.667,
      "velocity": 1,
      "hand": "right"
    },
    {
      "midi": 69,
      "time": 164.583,
      "duration": 0.417,
      "velocity": 1,
      "hand": "right"
    },
    {
      "midi": 47,
      "time": 165,
      "duration": 0.417,
      "velocity": 1,
      "hand": "left"
    },
    {
      "midi": 52,
      "time": 165,
      "duration": 0.833,
      "velocity": 1,
      "hand": "left"
    },
    {
      "midi": 68,
      "time": 165,
      "duration": 0.417,
      "velocity": 1,
      "hand": "right"
    },
    {
      "midi": 71,
      "time": 165,
      "duration": 0.417,
      "velocity": 1,
      "hand": "right"
    },
    {
      "midi": 45,
      "time": 165.417,
      "duration": 0.417,
      "velocity": 1,
      "hand": "left"
    },
    {
      "midi": 69,
      "time": 165.417,
      "duration": 0.417,
      "velocity": 1,
      "hand": "right"
    },
    {
      "midi": 73,
      "time": 165.417,
      "duration": 0.417,
      "velocity": 1,
      "hand": "right"
    },
    {
      "midi": 44,
      "time": 165.833,
      "duration": 0.833,
      "velocity": 1,
      "hand": "left"
    },
    {
      "midi": 52,
      "time": 165.833,
      "duration": 1.667,
      "velocity": 1,
      "hand": "left"
    },
    {
      "midi": 64,
      "time": 165.833,
      "duration": 1.667,
      "velocity": 1,
      "hand": "right"
    },
    {
      "midi": 71,
      "time": 165.833,
      "duration": 0.833,
      "velocity": 1,
      "hand": "right"
    },
    {
      "midi": 76,
      "time": 165.833,
      "duration": 0.833,
      "velocity": 1,
      "hand": "right"
    },
    {
      "midi": 45,
      "time": 166.667,
      "duration": 0.833,
      "velocity": 1,
      "hand": "left"
    },
    {
      "midi": 69,
      "time": 166.667,
      "duration": 0.833,
      "velocity": 1,
      "hand": "right"
    },
    {
      "midi": 73,
      "time": 166.667,
      "duration": 0.833,
      "velocity": 1,
      "hand": "right"
    },
    {
      "midi": 73,
      "time": 167.5,
      "duration": 0.417,
      "velocity": 1,
      "hand": "right"
    },
    {
      "midi": 75,
      "time": 167.917,
      "duration": 0.208,
      "velocity": 1,
      "hand": "right"
    },
    {
      "midi": 76,
      "time": 168.125,
      "duration": 0.208,
      "velocity": 1,
      "hand": "right"
    },
    {
      "midi": 47,
      "time": 168.333,
      "duration": 2.5,
      "velocity": 1,
      "hand": "left"
    },
    {
      "midi": 64,
      "time": 168.333,
      "duration": 0.833,
      "velocity": 1,
      "hand": "right"
    },
    {
      "midi": 68,
      "time": 168.333,
      "duration": 0.417,
      "velocity": 1,
      "hand": "right"
    },
    {
      "midi": 73,
      "time": 168.75,
      "duration": 0.417,
      "velocity": 1,
      "hand": "right"
    },
    {
      "midi": 57,
      "time": 169.167,
      "duration": 0.417,
      "velocity": 1,
      "hand": "left"
    },
    {
      "midi": 63,
      "time": 169.167,
      "duration": 0.833,
      "velocity": 1,
      "hand": "right"
    },
    {
      "midi": 66,
      "time": 169.167,
      "duration": 0.833,
      "velocity": 1,
      "hand": "right"
    },
    {
      "midi": 71,
      "time": 169.167,
      "duration": 0.833,
      "velocity": 1,
      "hand": "right"
    },
    {
      "midi": 59,
      "time": 169.583,
      "duration": 0.417,
      "velocity": 1,
      "hand": "left"
    },
    {
      "midi": 56,
      "time": 170,
      "duration": 0.833,
      "velocity": 1,
      "hand": "left"
    },
    {
      "midi": 64,
      "time": 170,
      "duration": 0.833,
      "velocity": 1,
      "hand": "right"
    },
    {
      "midi": 71,
      "time": 170,
      "duration": 0.833,
      "velocity": 1,
      "hand": "right"
    },
    {
      "midi": 73,
      "time": 170,
      "duration": 0.417,
      "velocity": 1,
      "hand": "right"
    },
    {
      "midi": 75,
      "time": 170.417,
      "duration": 0.208,
      "velocity": 1,
      "hand": "right"
    },
    {
      "midi": 76,
      "time": 170.625,
      "duration": 0.208,
      "velocity": 1,
      "hand": "right"
    },
    {
      "midi": 47,
      "time": 170.833,
      "duration": 2.083,
      "velocity": 1,
      "hand": "left"
    },
    {
      "midi": 64,
      "time": 170.833,
      "duration": 0.833,
      "velocity": 1,
      "hand": "right"
    },
    {
      "midi": 68,
      "time": 170.833,
      "duration": 0.417,
      "velocity": 1,
      "hand": "right"
    },
    {
      "midi": 73,
      "time": 171.25,
      "duration": 0.417,
      "velocity": 1,
      "hand": "right"
    },
    {
      "midi": 57,
      "time": 171.667,
      "duration": 0.417,
      "velocity": 1,
      "hand": "left"
    },
    {
      "midi": 63,
      "time": 171.667,
      "duration": 0.833,
      "velocity": 1,
      "hand": "right"
    },
    {
      "midi": 66,
      "time": 171.667,
      "duration": 0.833,
      "velocity": 1,
      "hand": "right"
    },
    {
      "midi": 71,
      "time": 171.667,
      "duration": 0.833,
      "velocity": 1,
      "hand": "right"
    },
    {
      "midi": 59,
      "time": 172.083,
      "duration": 0.417,
      "velocity": 1,
      "hand": "left"
    },
    {
      "midi": 56,
      "time": 172.5,
      "duration": 0.417,
      "velocity": 1,
      "hand": "left"
    },
    {
      "midi": 64,
      "time": 172.5,
      "duration": 0.417,
      "velocity": 1,
      "hand": "right"
    },
    {
      "midi": 71,
      "time": 172.5,
      "duration": 0.417,
      "velocity": 1,
      "hand": "right"
    },
    {
      "midi": 73,
      "time": 172.5,
      "duration": 0.417,
      "velocity": 1,
      "hand": "right"
    },
    {
      "midi": 75,
      "time": 172.917,
      "duration": 0.208,
      "velocity": 1,
      "hand": "right"
    },
    {
      "midi": 76,
      "time": 173.125,
      "duration": 0.208,
      "velocity": 1,
      "hand": "right"
    },
    {
      "midi": 80,
      "time": 173.333,
      "duration": 0.417,
      "velocity": 1,
      "hand": "right"
    },
    {
      "midi": 76,
      "time": 173.75,
      "duration": 0.417,
      "velocity": 1,
      "hand": "right"
    },
    {
      "midi": 75,
      "time": 174.167,
      "duration": 0.417,
      "velocity": 1,
      "hand": "right"
    },
    {
      "midi": 73,
      "time": 174.583,
      "duration": 0.417,
      "velocity": 1,
      "hand": "right"
    },
    {
      "midi": 54,
      "time": 175,
      "duration": 0.417,
      "velocity": 1,
      "hand": "left"
    },
    {
      "midi": 63,
      "time": 175,
      "duration": 0.833,
      "velocity": 1,
      "hand": "right"
    },
    {
      "midi": 66,
      "time": 175,
      "duration": 0.833,
      "velocity": 1,
      "hand": "right"
    },
    {
      "midi": 73,
      "time": 175,
      "duration": 0.833,
      "velocity": 1,
      "hand": "right"
    },
    {
      "midi": 56,
      "time": 175.417,
      "duration": 0.208,
      "velocity": 1,
      "hand": "left"
    },
    {
      "midi": 57,
      "time": 175.625,
      "duration": 0.208,
      "velocity": 1,
      "hand": "left"
    },
    {
      "midi": 47,
      "time": 175.833,
      "duration": 0.833,
      "velocity": 1,
      "hand": "left"
    },
    {
      "midi": 61,
      "time": 175.833,
      "duration": 0.417,
      "velocity": 1,
      "hand": "right"
    },
    {
      "midi": 63,
      "time": 175.833,
      "duration": 0.833,
      "velocity": 1,
      "hand": "right"
    },
    {
      "midi": 66,
      "time": 175.833,
      "duration": 0.833,
      "velocity": 1,
      "hand": "right"
    },
    {
      "midi": 59,
      "time": 176.25,
      "duration": 0.417,
      "velocity": 1,
      "hand": "left"
    },
    {
      "midi": 52,
      "time": 176.667,
      "duration": 0.833,
      "velocity": 1,
      "hand": "left"
    },
    {
      "midi": 57,
      "time": 176.667,
      "duration": 0.417,
      "velocity": 1,
      "hand": "left"
    },
    {
      "midi": 59,
      "time": 176.667,
      "duration": 0.833,
      "velocity": 1,
      "hand": "left"
    },
    {
      "midi": 64,
      "time": 176.667,
      "duration": 0.833,
      "velocity": 1,
      "hand": "right"
    },
    {
      "midi": 56,
      "time": 177.083,
      "duration": 0.417,
      "velocity": 1,
      "hand": "left"
    },
    {
      "midi": 40,
      "time": 177.5,
      "duration": 0.417,
      "velocity": 1,
      "hand": "left"
    },
    {
      "midi": 74,
      "time": 177.5,
      "duration": 0.417,
      "velocity": 1,
      "hand": "right"
    },
    {
      "midi": 52,
      "time": 177.708,
      "duration": 0.208,
      "velocity": 1,
      "hand": "left"
    },
    {
      "midi": 54,
      "time": 177.917,
      "duration": 0.208,
      "velocity": 1,
      "hand": "left"
    },
    {
      "midi": 73,
      "time": 177.917,
      "duration": 0.208,
      "velocity": 1,
      "hand": "right"
    },
    {
      "midi": 56,
      "time": 178.125,
      "duration": 0.208,
      "velocity": 1,
      "hand": "left"
    },
    {
      "midi": 71,
      "time": 178.125,
      "duration": 0.208,
      "velocity": 1,
      "hand": "right"
    },
    {
      "midi": 52,
      "time": 178.333,
      "duration": 1.667,
      "velocity": 1,
      "hand": "left"
    },
    {
      "midi": 57,
      "time": 178.333,
      "duration": 0.208,
      "velocity": 1,
      "hand": "left"
    },
    {
      "midi": 63,
      "time": 178.333,
      "duration": 0.833,
      "velocity": 1,
      "hand": "right"
    },
    {
      "midi": 66,
      "time": 178.333,
      "duration": 0.417,
      "velocity": 1,
      "hand": "right"
    },
    {
      "midi": 59,
      "time": 178.542,
      "duration": 0.208,
      "velocity": 1,
      "hand": "left"
    },
    {
      "midi": 60,
      "time": 178.75,
      "duration": 0.833,
      "velocity": 1,
      "hand": "right"
    },
    {
      "midi": 69,
      "time": 178.75,
      "duration": 0.417,
      "velocity": 1,
      "hand": "right"
    },
    {
      "midi": 64,
      "time": 179.167,
      "duration": 0.833,
      "velocity": 1,
      "hand": "right"
    },
    {
      "midi": 68,
      "time": 179.167,
      "duration": 0.833,
      "velocity": 1,
      "hand": "right"
    },
    {
      "midi": 59,
      "time": 179.583,
      "duration": 0.417,
      "velocity": 1,
      "hand": "left"
    },
    {
      "midi": 45,
      "time": 180,
      "duration": 0.417,
      "velocity": 1,
      "hand": "left"
    },
    {
      "midi": 52,
      "time": 180,
      "duration": 1.667,
      "velocity": 1,
      "hand": "left"
    },
    {
      "midi": 61,
      "time": 180,
      "duration": 0.417,
      "velocity": 1,
      "hand": "right"
    },
    {
      "midi": 66,
      "time": 180,
      "duration": 0.417,
      "velocity": 1,
      "hand": "right"
    },
    {
      "midi": 44,
      "time": 180.417,
      "duration": 0.417,
      "velocity": 1,
      "hand": "left"
    },
    {
      "midi": 60,
      "time": 180.417,
      "duration": 0.417,
      "velocity": 1,
      "hand": "right"
    },
    {
      "midi": 68,
      "time": 180.417,
      "duration": 0.417,
      "velocity": 1,
      "hand": "right"
    },
    {
      "midi": 45,
      "time": 180.833,
      "duration": 0.417,
      "velocity": 1,
      "hand": "left"
    },
    {
      "midi": 61,
      "time": 180.833,
      "duration": 0.417,
      "velocity": 1,
      "hand": "right"
    },
    {
      "midi": 66,
      "time": 180.833,
      "duration": 0.417,
      "velocity": 1,
      "hand": "right"
    },
    {
      "midi": 44,
      "time": 181.25,
      "duration": 0.417,
      "velocity": 1,
      "hand": "left"
    },
    {
      "midi": 60,
      "time": 181.25,
      "duration": 0.417,
      "velocity": 1,
      "hand": "right"
    },
    {
      "midi": 68,
      "time": 181.25,
      "duration": 0.417,
      "velocity": 1,
      "hand": "right"
    },
    {
      "midi": 52,
      "time": 181.667,
      "duration": 0.833,
      "velocity": 1,
      "hand": "left"
    },
    {
      "midi": 57,
      "time": 181.667,
      "duration": 0.417,
      "velocity": 1,
      "hand": "left"
    },
    {
      "midi": 59,
      "time": 181.667,
      "duration": 0.833,
      "velocity": 1,
      "hand": "left"
    },
    {
      "midi": 64,
      "time": 181.667,
      "duration": 0.833,
      "velocity": 1,
      "hand": "right"
    },
    {
      "midi": 56,
      "time": 182.083,
      "duration": 0.417,
      "velocity": 1,
      "hand": "left"
    },
    {
      "midi": 40,
      "time": 182.5,
      "duration": 0.417,
      "velocity": 1,
      "hand": "left"
    },
    {
      "midi": 74,
      "time": 182.5,
      "duration": 0.417,
      "velocity": 1,
      "hand": "right"
    },
    {
      "midi": 52,
      "time": 182.708,
      "duration": 0.208,
      "velocity": 1,
      "hand": "left"
    },
    {
      "midi": 54,
      "time": 182.917,
      "duration": 0.208,
      "velocity": 1,
      "hand": "left"
    },
    {
      "midi": 73,
      "time": 182.917,
      "duration": 0.208,
      "velocity": 1,
      "hand": "right"
    },
    {
      "midi": 56,
      "time": 183.125,
      "duration": 0.208,
      "velocity": 1,
      "hand": "left"
    },
    {
      "midi": 71,
      "time": 183.125,
      "duration": 0.208,
      "velocity": 1,
      "hand": "right"
    },
    {
      "midi": 52,
      "time": 183.333,
      "duration": 1.667,
      "velocity": 1,
      "hand": "left"
    },
    {
      "midi": 57,
      "time": 183.333,
      "duration": 0.208,
      "velocity": 1,
      "hand": "left"
    },
    {
      "midi": 63,
      "time": 183.333,
      "duration": 0.833,
      "velocity": 1,
      "hand": "right"
    },
    {
      "midi": 66,
      "time": 183.333,
      "duration": 0.417,
      "velocity": 1,
      "hand": "right"
    },
    {
      "midi": 59,
      "time": 183.542,
      "duration": 0.208,
      "velocity": 1,
      "hand": "left"
    },
    {
      "midi": 60,
      "time": 183.75,
      "duration": 0.833,
      "velocity": 1,
      "hand": "right"
    },
    {
      "midi": 69,
      "time": 183.75,
      "duration": 0.417,
      "velocity": 1,
      "hand": "right"
    },
    {
      "midi": 64,
      "time": 184.167,
      "duration": 0.833,
      "velocity": 1,
      "hand": "right"
    },
    {
      "midi": 68,
      "time": 184.167,
      "duration": 0.833,
      "velocity": 1,
      "hand": "right"
    },
    {
      "midi": 59,
      "time": 184.583,
      "duration": 0.417,
      "velocity": 1,
      "hand": "left"
    },
    {
      "midi": 45,
      "time": 185,
      "duration": 0.417,
      "velocity": 1,
      "hand": "left"
    },
    {
      "midi": 52,
      "time": 185,
      "duration": 1.667,
      "velocity": 1,
      "hand": "left"
    },
    {
      "midi": 61,
      "time": 185,
      "duration": 0.417,
      "velocity": 1,
      "hand": "right"
    },
    {
      "midi": 66,
      "time": 185,
      "duration": 0.417,
      "velocity": 1,
      "hand": "right"
    },
    {
      "midi": 44,
      "time": 185.417,
      "duration": 0.417,
      "velocity": 1,
      "hand": "left"
    },
    {
      "midi": 60,
      "time": 185.417,
      "duration": 0.417,
      "velocity": 1,
      "hand": "right"
    },
    {
      "midi": 68,
      "time": 185.417,
      "duration": 0.417,
      "velocity": 1,
      "hand": "right"
    },
    {
      "midi": 45,
      "time": 185.833,
      "duration": 0.417,
      "velocity": 1,
      "hand": "left"
    },
    {
      "midi": 61,
      "time": 185.833,
      "duration": 0.417,
      "velocity": 1,
      "hand": "right"
    },
    {
      "midi": 66,
      "time": 185.833,
      "duration": 0.417,
      "velocity": 1,
      "hand": "right"
    },
    {
      "midi": 44,
      "time": 186.25,
      "duration": 0.417,
      "velocity": 1,
      "hand": "left"
    },
    {
      "midi": 60,
      "time": 186.25,
      "duration": 0.417,
      "velocity": 1,
      "hand": "right"
    },
    {
      "midi": 68,
      "time": 186.25,
      "duration": 0.417,
      "velocity": 1,
      "hand": "right"
    },
    {
      "midi": 52,
      "time": 186.667,
      "duration": 0.833,
      "velocity": 1,
      "hand": "left"
    },
    {
      "midi": 57,
      "time": 186.667,
      "duration": 0.417,
      "velocity": 1,
      "hand": "left"
    },
    {
      "midi": 59,
      "time": 186.667,
      "duration": 0.833,
      "velocity": 1,
      "hand": "left"
    },
    {
      "midi": 64,
      "time": 186.667,
      "duration": 0.833,
      "velocity": 1,
      "hand": "right"
    },
    {
      "midi": 56,
      "time": 187.083,
      "duration": 0.417,
      "velocity": 1,
      "hand": "left"
    },
    {
      "midi": 49,
      "time": 187.5,
      "duration": 0.417,
      "velocity": 1,
      "hand": "left"
    },
    {
      "midi": 56,
      "time": 187.5,
      "duration": 1.667,
      "velocity": 1,
      "hand": "left"
    },
    {
      "midi": 64,
      "time": 187.5,
      "duration": 0.417,
      "velocity": 1,
      "hand": "right"
    },
    {
      "midi": 70,
      "time": 187.5,
      "duration": 0.417,
      "velocity": 1,
      "hand": "right"
    },
    {
      "midi": 48,
      "time": 187.917,
      "duration": 0.417,
      "velocity": 1,
      "hand": "left"
    },
    {
      "midi": 63,
      "time": 187.917,
      "duration": 0.417,
      "velocity": 1,
      "hand": "right"
    },
    {
      "midi": 72,
      "time": 187.917,
      "duration": 0.417,
      "velocity": 1,
      "hand": "right"
    },
    {
      "midi": 49,
      "time": 188.333,
      "duration": 0.417,
      "velocity": 1,
      "hand": "left"
    },
    {
      "midi": 64,
      "time": 188.333,
      "duration": 0.417,
      "velocity": 1,
      "hand": "right"
    },
    {
      "midi": 70,
      "time": 188.333,
      "duration": 0.417,
      "velocity": 1,
      "hand": "right"
    },
    {
      "midi": 48,
      "time": 188.75,
      "duration": 0.417,
      "velocity": 1,
      "hand": "left"
    },
    {
      "midi": 63,
      "time": 188.75,
      "duration": 0.417,
      "velocity": 1,
      "hand": "right"
    },
    {
      "midi": 72,
      "time": 188.75,
      "duration": 0.417,
      "velocity": 1,
      "hand": "right"
    },
    {
      "midi": 56,
      "time": 189.167,
      "duration": 0.833,
      "velocity": 1,
      "hand": "left"
    },
    {
      "midi": 61,
      "time": 189.167,
      "duration": 0.417,
      "velocity": 1,
      "hand": "right"
    },
    {
      "midi": 63,
      "time": 189.167,
      "duration": 0.833,
      "velocity": 1,
      "hand": "right"
    },
    {
      "midi": 68,
      "time": 189.167,
      "duration": 0.833,
      "velocity": 1,
      "hand": "right"
    },
    {
      "midi": 60,
      "time": 189.583,
      "duration": 0.417,
      "velocity": 1,
      "hand": "right"
    },
    {
      "midi": 53,
      "time": 190,
      "duration": 0.417,
      "velocity": 1,
      "hand": "left"
    },
    {
      "midi": 60,
      "time": 190,
      "duration": 1.667,
      "velocity": 1,
      "hand": "right"
    },
    {
      "midi": 68,
      "time": 190,
      "duration": 0.417,
      "velocity": 1,
      "hand": "right"
    },
    {
      "midi": 74,
      "time": 190,
      "duration": 0.417,
      "velocity": 1,
      "hand": "right"
    },
    {
      "midi": 52,
      "time": 190.417,
      "duration": 0.417,
      "velocity": 1,
      "hand": "left"
    },
    {
      "midi": 67,
      "time": 190.417,
      "duration": 0.417,
      "velocity": 1,
      "hand": "right"
    },
    {
      "midi": 76,
      "time": 190.417,
      "duration": 0.417,
      "velocity": 1,
      "hand": "right"
    },
    {
      "midi": 53,
      "time": 190.833,
      "duration": 0.417,
      "velocity": 1,
      "hand": "left"
    },
    {
      "midi": 68,
      "time": 190.833,
      "duration": 0.417,
      "velocity": 1,
      "hand": "right"
    },
    {
      "midi": 74,
      "time": 190.833,
      "duration": 0.417,
      "velocity": 1,
      "hand": "right"
    },
    {
      "midi": 52,
      "time": 191.25,
      "duration": 0.417,
      "velocity": 1,
      "hand": "left"
    },
    {
      "midi": 67,
      "time": 191.25,
      "duration": 0.417,
      "velocity": 1,
      "hand": "right"
    },
    {
      "midi": 76,
      "time": 191.25,
      "duration": 0.417,
      "velocity": 1,
      "hand": "right"
    },
    {
      "midi": 56,
      "time": 191.667,
      "duration": 0.417,
      "velocity": 1,
      "hand": "left"
    },
    {
      "midi": 60,
      "time": 191.667,
      "duration": 0.417,
      "velocity": 1,
      "hand": "right"
    },
    {
      "midi": 63,
      "time": 191.667,
      "duration": 0.417,
      "velocity": 1,
      "hand": "right"
    },
    {
      "midi": 66,
      "time": 191.667,
      "duration": 0.417,
      "velocity": 1,
      "hand": "right"
    },
    {
      "midi": 72,
      "time": 191.667,
      "duration": 0.833,
      "velocity": 1,
      "hand": "right"
    },
    {
      "midi": 48,
      "time": 192.083,
      "duration": 0.417,
      "velocity": 1,
      "hand": "left"
    },
    {
      "midi": 55,
      "time": 192.083,
      "duration": 0.417,
      "velocity": 1,
      "hand": "left"
    },
    {
      "midi": 64,
      "time": 192.083,
      "duration": 0.417,
      "velocity": 1,
      "hand": "right"
    },
    {
      "midi": 67,
      "time": 192.083,
      "duration": 0.417,
      "velocity": 1,
      "hand": "right"
    },
    {
      "midi": 53,
      "time": 192.5,
      "duration": 0.417,
      "velocity": 1,
      "hand": "left"
    },
    {
      "midi": 60,
      "time": 192.5,
      "duration": 1.667,
      "velocity": 1,
      "hand": "right"
    },
    {
      "midi": 68,
      "time": 192.5,
      "duration": 0.417,
      "velocity": 1,
      "hand": "right"
    },
    {
      "midi": 74,
      "time": 192.5,
      "duration": 0.208,
      "velocity": 1,
      "hand": "right"
    },
    {
      "midi": 77,
      "time": 192.708,
      "duration": 0.208,
      "velocity": 1,
      "hand": "right"
    },
    {
      "midi": 55,
      "time": 192.917,
      "duration": 0.417,
      "velocity": 1,
      "hand": "left"
    },
    {
      "midi": 67,
      "time": 192.917,
      "duration": 0.417,
      "velocity": 1,
      "hand": "right"
    },
    {
      "midi": 72,
      "time": 192.917,
      "duration": 0.417,
      "velocity": 1,
      "hand": "right"
    },
    {
      "midi": 76,
      "time": 192.917,
      "duration": 0.417,
      "velocity": 1,
      "hand": "right"
    },
    {
      "midi": 53,
      "time": 193.333,
      "duration": 0.417,
      "velocity": 1,
      "hand": "left"
    },
    {
      "midi": 68,
      "time": 193.333,
      "duration": 0.417,
      "velocity": 1,
      "hand": "right"
    },
    {
      "midi": 74,
      "time": 193.333,
      "duration": 0.208,
      "velocity": 1,
      "hand": "right"
    },
    {
      "midi": 77,
      "time": 193.542,
      "duration": 0.208,
      "velocity": 1,
      "hand": "right"
    },
    {
      "midi": 55,
      "time": 193.75,
      "duration": 0.417,
      "velocity": 1,
      "hand": "left"
    },
    {
      "midi": 67,
      "time": 193.75,
      "duration": 0.417,
      "velocity": 1,
      "hand": "right"
    },
    {
      "midi": 72,
      "time": 193.75,
      "duration": 0.417,
      "velocity": 1,
      "hand": "right"
    },
    {
      "midi": 76,
      "time": 193.75,
      "duration": 0.417,
      "velocity": 1,
      "hand": "right"
    },
    {
      "midi": 56,
      "time": 194.167,
      "duration": 0.417,
      "velocity": 1,
      "hand": "left"
    },
    {
      "midi": 60,
      "time": 194.167,
      "duration": 0.417,
      "velocity": 1,
      "hand": "right"
    },
    {
      "midi": 63,
      "time": 194.167,
      "duration": 0.417,
      "velocity": 1,
      "hand": "right"
    },
    {
      "midi": 66,
      "time": 194.167,
      "duration": 0.417,
      "velocity": 1,
      "hand": "right"
    },
    {
      "midi": 72,
      "time": 194.167,
      "duration": 0.833,
      "velocity": 1,
      "hand": "right"
    },
    {
      "midi": 48,
      "time": 194.583,
      "duration": 0.417,
      "velocity": 1,
      "hand": "left"
    },
    {
      "midi": 55,
      "time": 194.583,
      "duration": 0.417,
      "velocity": 1,
      "hand": "left"
    },
    {
      "midi": 64,
      "time": 194.583,
      "duration": 0.417,
      "velocity": 1,
      "hand": "right"
    },
    {
      "midi": 67,
      "time": 194.583,
      "duration": 0.417,
      "velocity": 1,
      "hand": "right"
    },
    {
      "midi": 53,
      "time": 195,
      "duration": 0.417,
      "velocity": 1,
      "hand": "left"
    },
    {
      "midi": 60,
      "time": 195,
      "duration": 1.667,
      "velocity": 1,
      "hand": "right"
    },
    {
      "midi": 68,
      "time": 195,
      "duration": 0.417,
      "velocity": 1,
      "hand": "right"
    },
    {
      "midi": 74,
      "time": 195,
      "duration": 0.208,
      "velocity": 1,
      "hand": "right"
    },
    {
      "midi": 77,
      "time": 195.208,
      "duration": 0.208,
      "velocity": 1,
      "hand": "right"
    },
    {
      "midi": 55,
      "time": 195.417,
      "duration": 0.417,
      "velocity": 1,
      "hand": "left"
    },
    {
      "midi": 67,
      "time": 195.417,
      "duration": 0.417,
      "velocity": 1,
      "hand": "right"
    },
    {
      "midi": 72,
      "time": 195.417,
      "duration": 0.417,
      "velocity": 1,
      "hand": "right"
    },
    {
      "midi": 76,
      "time": 195.417,
      "duration": 0.417,
      "velocity": 1,
      "hand": "right"
    },
    {
      "midi": 53,
      "time": 195.833,
      "duration": 0.417,
      "velocity": 1,
      "hand": "left"
    },
    {
      "midi": 68,
      "time": 195.833,
      "duration": 0.417,
      "velocity": 1,
      "hand": "right"
    },
    {
      "midi": 74,
      "time": 195.833,
      "duration": 0.208,
      "velocity": 1,
      "hand": "right"
    },
    {
      "midi": 77,
      "time": 196.042,
      "duration": 0.208,
      "velocity": 1,
      "hand": "right"
    },
    {
      "midi": 55,
      "time": 196.25,
      "duration": 0.417,
      "velocity": 1,
      "hand": "left"
    },
    {
      "midi": 67,
      "time": 196.25,
      "duration": 0.417,
      "velocity": 1,
      "hand": "right"
    },
    {
      "midi": 72,
      "time": 196.25,
      "duration": 0.417,
      "velocity": 1,
      "hand": "right"
    },
    {
      "midi": 76,
      "time": 196.25,
      "duration": 0.417,
      "velocity": 1,
      "hand": "right"
    },
    {
      "midi": 56,
      "time": 196.667,
      "duration": 0.417,
      "velocity": 1,
      "hand": "left"
    },
    {
      "midi": 60,
      "time": 196.667,
      "duration": 0.417,
      "velocity": 1,
      "hand": "right"
    },
    {
      "midi": 63,
      "time": 196.667,
      "duration": 0.417,
      "velocity": 1,
      "hand": "right"
    },
    {
      "midi": 66,
      "time": 196.667,
      "duration": 0.417,
      "velocity": 1,
      "hand": "right"
    },
    {
      "midi": 72,
      "time": 196.667,
      "duration": 0.833,
      "velocity": 1,
      "hand": "right"
    },
    {
      "midi": 48,
      "time": 197.083,
      "duration": 0.417,
      "velocity": 1,
      "hand": "left"
    },
    {
      "midi": 55,
      "time": 197.083,
      "duration": 0.417,
      "velocity": 1,
      "hand": "left"
    },
    {
      "midi": 64,
      "time": 197.083,
      "duration": 0.417,
      "velocity": 1,
      "hand": "right"
    },
    {
      "midi": 67,
      "time": 197.083,
      "duration": 0.417,
      "velocity": 1,
      "hand": "right"
    },
    {
      "midi": 53,
      "time": 197.5,
      "duration": 0.417,
      "velocity": 1,
      "hand": "left"
    },
    {
      "midi": 60,
      "time": 197.5,
      "duration": 0.417,
      "velocity": 1,
      "hand": "right"
    },
    {
      "midi": 68,
      "time": 197.5,
      "duration": 0.417,
      "velocity": 1,
      "hand": "right"
    },
    {
      "midi": 74,
      "time": 197.5,
      "duration": 0.417,
      "velocity": 1,
      "hand": "right"
    },
    {
      "midi": 48,
      "time": 197.917,
      "duration": 0.417,
      "velocity": 1,
      "hand": "left"
    },
    {
      "midi": 67,
      "time": 197.917,
      "duration": 0.417,
      "velocity": 1,
      "hand": "right"
    },
    {
      "midi": 72,
      "time": 197.917,
      "duration": 0.417,
      "velocity": 1,
      "hand": "right"
    },
    {
      "midi": 76,
      "time": 197.917,
      "duration": 0.417,
      "velocity": 1,
      "hand": "right"
    },
    {
      "midi": 57,
      "time": 198.333,
      "duration": 0.417,
      "velocity": 1,
      "hand": "left"
    },
    {
      "midi": 61,
      "time": 198.333,
      "duration": 0.417,
      "velocity": 1,
      "hand": "right"
    },
    {
      "midi": 70,
      "time": 198.333,
      "duration": 0.417,
      "velocity": 1,
      "hand": "right"
    },
    {
      "midi": 79,
      "time": 198.333,
      "duration": 0.417,
      "velocity": 1,
      "hand": "right"
    },
    {
      "midi": 62,
      "time": 198.75,
      "duration": 0.417,
      "velocity": 1,
      "hand": "right"
    },
    {
      "midi": 69,
      "time": 198.75,
      "duration": 0.417,
      "velocity": 1,
      "hand": "right"
    },
    {
      "midi": 78,
      "time": 198.75,
      "duration": 0.417,
      "velocity": 1,
      "hand": "right"
    },
    {
      "midi": 55,
      "time": 199.167,
      "duration": 0.417,
      "velocity": 1,
      "hand": "left"
    },
    {
      "midi": 59,
      "time": 199.167,
      "duration": 0.417,
      "velocity": 1,
      "hand": "left"
    },
    {
      "midi": 68,
      "time": 199.167,
      "duration": 0.417,
      "velocity": 1,
      "hand": "right"
    },
    {
      "midi": 77,
      "time": 199.167,
      "duration": 0.417,
      "velocity": 1,
      "hand": "right"
    },
    {
      "midi": 60,
      "time": 199.583,
      "duration": 0.417,
      "velocity": 1,
      "hand": "right"
    },
    {
      "midi": 67,
      "time": 199.583,
      "duration": 0.417,
      "velocity": 1,
      "hand": "right"
    },
    {
      "midi": 76,
      "time": 199.583,
      "duration": 0.417,
      "velocity": 1,
      "hand": "right"
    },
    {
      "midi": 54,
      "time": 200,
      "duration": 0.417,
      "velocity": 1,
      "hand": "left"
    },
    {
      "midi": 58,
      "time": 200,
      "duration": 0.417,
      "velocity": 1,
      "hand": "left"
    },
    {
      "midi": 67,
      "time": 200,
      "duration": 0.417,
      "velocity": 1,
      "hand": "right"
    },
    {
      "midi": 76,
      "time": 200,
      "duration": 0.417,
      "velocity": 1,
      "hand": "right"
    },
    {
      "midi": 59,
      "time": 200.417,
      "duration": 0.417,
      "velocity": 1,
      "hand": "left"
    },
    {
      "midi": 66,
      "time": 200.417,
      "duration": 0.417,
      "velocity": 1,
      "hand": "right"
    },
    {
      "midi": 75,
      "time": 200.417,
      "duration": 0.417,
      "velocity": 1,
      "hand": "right"
    },
    {
      "midi": 55,
      "time": 200.833,
      "duration": 0.417,
      "velocity": 1,
      "hand": "left"
    },
    {
      "midi": 64,
      "time": 200.833,
      "duration": 0.417,
      "velocity": 1,
      "hand": "right"
    },
    {
      "midi": 70,
      "time": 200.833,
      "duration": 0.208,
      "velocity": 1,
      "hand": "right"
    },
    {
      "midi": 73,
      "time": 201.042,
      "duration": 0.208,
      "velocity": 1,
      "hand": "right"
    },
    {
      "midi": 47,
      "time": 201.25,
      "duration": 0.417,
      "velocity": 1,
      "hand": "left"
    },
    {
      "midi": 54,
      "time": 201.25,
      "duration": 0.417,
      "velocity": 1,
      "hand": "left"
    },
    {
      "midi": 63,
      "time": 201.25,
      "duration": 0.417,
      "velocity": 1,
      "hand": "right"
    },
    {
      "midi": 66,
      "time": 201.25,
      "duration": 0.417,
      "velocity": 1,
      "hand": "right"
    },
    {
      "midi": 71,
      "time": 201.25,
      "duration": 0.417,
      "velocity": 1,
      "hand": "right"
    },
    {
      "midi": 54,
      "time": 201.667,
      "duration": 0.417,
      "velocity": 1,
      "hand": "left"
    },
    {
      "midi": 58,
      "time": 201.667,
      "duration": 0.417,
      "velocity": 1,
      "hand": "left"
    },
    {
      "midi": 67,
      "time": 201.667,
      "duration": 0.417,
      "velocity": 1,
      "hand": "right"
    },
    {
      "midi": 76,
      "time": 201.667,
      "duration": 0.417,
      "velocity": 1,
      "hand": "right"
    },
    {
      "midi": 59,
      "time": 202.083,
      "duration": 0.417,
      "velocity": 1,
      "hand": "left"
    },
    {
      "midi": 66,
      "time": 202.083,
      "duration": 0.417,
      "velocity": 1,
      "hand": "right"
    },
    {
      "midi": 75,
      "time": 202.083,
      "duration": 0.417,
      "velocity": 1,
      "hand": "right"
    },
    {
      "midi": 55,
      "time": 202.5,
      "duration": 0.417,
      "velocity": 1,
      "hand": "left"
    },
    {
      "midi": 64,
      "time": 202.5,
      "duration": 0.417,
      "velocity": 1,
      "hand": "right"
    },
    {
      "midi": 70,
      "time": 202.5,
      "duration": 0.208,
      "velocity": 1,
      "hand": "right"
    },
    {
      "midi": 73,
      "time": 202.708,
      "duration": 0.208,
      "velocity": 1,
      "hand": "right"
    },
    {
      "midi": 47,
      "time": 202.917,
      "duration": 0.417,
      "velocity": 1,
      "hand": "left"
    },
    {
      "midi": 54,
      "time": 202.917,
      "duration": 0.417,
      "velocity": 1,
      "hand": "left"
    },
    {
      "midi": 63,
      "time": 202.917,
      "duration": 0.417,
      "velocity": 1,
      "hand": "right"
    },
    {
      "midi": 66,
      "time": 202.917,
      "duration": 0.417,
      "velocity": 1,
      "hand": "right"
    },
    {
      "midi": 71,
      "time": 202.917,
      "duration": 0.417,
      "velocity": 1,
      "hand": "right"
    },
    {
      "midi": 55,
      "time": 203.333,
      "duration": 0.417,
      "velocity": 1,
      "hand": "left"
    },
    {
      "midi": 64,
      "time": 203.333,
      "duration": 0.417,
      "velocity": 1,
      "hand": "right"
    },
    {
      "midi": 70,
      "time": 203.333,
      "duration": 0.208,
      "velocity": 1,
      "hand": "right"
    },
    {
      "midi": 73,
      "time": 203.542,
      "duration": 0.208,
      "velocity": 1,
      "hand": "right"
    },
    {
      "midi": 47,
      "time": 203.75,
      "duration": 0.417,
      "velocity": 1,
      "hand": "left"
    },
    {
      "midi": 54,
      "time": 203.75,
      "duration": 0.417,
      "velocity": 1,
      "hand": "left"
    },
    {
      "midi": 63,
      "time": 203.75,
      "duration": 0.417,
      "velocity": 1,
      "hand": "right"
    },
    {
      "midi": 66,
      "time": 203.75,
      "duration": 0.417,
      "velocity": 1,
      "hand": "right"
    },
    {
      "midi": 71,
      "time": 203.75,
      "duration": 0.417,
      "velocity": 1,
      "hand": "right"
    },
    {
      "midi": 52,
      "time": 204.167,
      "duration": 0.417,
      "velocity": 1,
      "hand": "left"
    },
    {
      "midi": 58,
      "time": 204.167,
      "duration": 0.417,
      "velocity": 1,
      "hand": "left"
    },
    {
      "midi": 61,
      "time": 204.167,
      "duration": 0.417,
      "velocity": 1,
      "hand": "right"
    },
    {
      "midi": 66,
      "time": 204.167,
      "duration": 0.833,
      "velocity": 1,
      "hand": "right"
    },
    {
      "midi": 51,
      "time": 204.583,
      "duration": 0.417,
      "velocity": 1,
      "hand": "left"
    },
    {
      "midi": 59,
      "time": 204.583,
      "duration": 0.417,
      "velocity": 1,
      "hand": "left"
    },
    {
      "midi": 66,
      "time": 205,
      "duration": 0.417,
      "velocity": 1,
      "hand": "right"
    },
    {
      "midi": 68,
      "time": 205.417,
      "duration": 0.208,
      "velocity": 1,
      "hand": "right"
    },
    {
      "midi": 69,
      "time": 205.625,
      "duration": 0.208,
      "velocity": 1,
      "hand": "right"
    },
    {
      "midi": 50,
      "time": 205.833,
      "duration": 0.833,
      "velocity": 1,
      "hand": "left"
    },
    {
      "midi": 52,
      "time": 205.833,
      "duration": 1.667,
      "velocity": 1,
      "hand": "left"
    },
    {
      "midi": 59,
      "time": 205.833,
      "duration": 0.833,
      "velocity": 1,
      "hand": "left"
    },
    {
      "midi": 64,
      "time": 205.833,
      "duration": 0.833,
      "velocity": 1,
      "hand": "right"
    },
    {
      "midi": 68,
      "time": 205.833,
      "duration": 0.417,
      "velocity": 1,
      "hand": "right"
    },
    {
      "midi": 71,
      "time": 206.25,
      "duration": 0.417,
      "velocity": 1,
      "hand": "right"
    },
    {
      "midi": 49,
      "time": 206.667,
      "duration": 0.833,
      "velocity": 1,
      "hand": "left"
    },
    {
      "midi": 64,
      "time": 206.667,
      "duration": 1.667,
      "velocity": 1,
      "hand": "right"
    },
    {
      "midi": 69,
      "time": 207.083,
      "duration": 0.417,
      "velocity": 1,
      "hand": "right"
    },
    {
      "midi": 47,
      "time": 207.5,
      "duration": 0.417,
      "velocity": 1,
      "hand": "left"
    },
    {
      "midi": 52,
      "time": 207.5,
      "duration": 0.833,
      "velocity": 1,
      "hand": "left"
    },
    {
      "midi": 68,
      "time": 207.5,
      "duration": 0.417,
      "velocity": 1,
      "hand": "right"
    },
    {
      "midi": 71,
      "time": 207.5,
      "duration": 0.417,
      "velocity": 1,
      "hand": "right"
    },
    {
      "midi": 45,
      "time": 207.917,
      "duration": 0.417,
      "velocity": 1,
      "hand": "left"
    },
    {
      "midi": 69,
      "time": 207.917,
      "duration": 0.417,
      "velocity": 1,
      "hand": "right"
    },
    {
      "midi": 73,
      "time": 207.917,
      "duration": 0.417,
      "velocity": 1,
      "hand": "right"
    },
    {
      "midi": 44,
      "time": 208.333,
      "duration": 0.833,
      "velocity": 1,
      "hand": "left"
    },
    {
      "midi": 52,
      "time": 208.333,
      "duration": 1.667,
      "velocity": 1,
      "hand": "left"
    },
    {
      "midi": 64,
      "time": 208.333,
      "duration": 1.667,
      "velocity": 1,
      "hand": "right"
    },
    {
      "midi": 71,
      "time": 208.333,
      "duration": 0.833,
      "velocity": 1,
      "hand": "right"
    },
    {
      "midi": 76,
      "time": 208.333,
      "duration": 0.833,
      "velocity": 1,
      "hand": "right"
    },
    {
      "midi": 45,
      "time": 209.167,
      "duration": 0.833,
      "velocity": 1,
      "hand": "left"
    },
    {
      "midi": 69,
      "time": 209.167,
      "duration": 0.833,
      "velocity": 1,
      "hand": "right"
    },
    {
      "midi": 73,
      "time": 209.167,
      "duration": 0.833,
      "velocity": 1,
      "hand": "right"
    },
    {
      "midi": 73,
      "time": 210,
      "duration": 0.417,
      "velocity": 1,
      "hand": "right"
    },
    {
      "midi": 74,
      "time": 210.417,
      "duration": 0.208,
      "velocity": 1,
      "hand": "right"
    },
    {
      "midi": 76,
      "time": 210.625,
      "duration": 0.208,
      "velocity": 1,
      "hand": "right"
    },
    {
      "midi": 46,
      "time": 210.833,
      "duration": 0.833,
      "velocity": 1,
      "hand": "left"
    },
    {
      "midi": 54,
      "time": 210.833,
      "duration": 0.833,
      "velocity": 1,
      "hand": "left"
    },
    {
      "midi": 61,
      "time": 210.833,
      "duration": 0.833,
      "velocity": 1,
      "hand": "right"
    },
    {
      "midi": 66,
      "time": 210.833,
      "duration": 0.833,
      "velocity": 1,
      "hand": "right"
    },
    {
      "midi": 73,
      "time": 210.833,
      "duration": 0.417,
      "velocity": 1,
      "hand": "right"
    },
    {
      "midi": 78,
      "time": 210.833,
      "duration": 0.417,
      "velocity": 1,
      "hand": "right"
    },
    {
      "midi": 73,
      "time": 211.25,
      "duration": 0.417,
      "velocity": 1,
      "hand": "right"
    },
    {
      "midi": 47,
      "time": 211.667,
      "duration": 0.833,
      "velocity": 1,
      "hand": "left"
    },
    {
      "midi": 54,
      "time": 211.667,
      "duration": 0.833,
      "velocity": 1,
      "hand": "left"
    },
    {
      "midi": 59,
      "time": 211.667,
      "duration": 0.833,
      "velocity": 1,
      "hand": "left"
    },
    {
      "midi": 66,
      "time": 211.667,
      "duration": 0.833,
      "velocity": 1,
      "hand": "right"
    },
    {
      "midi": 71,
      "time": 211.667,
      "duration": 0.833,
      "velocity": 1,
      "hand": "right"
    },
    {
      "midi": 74,
      "time": 211.667,
      "duration": 0.833,
      "velocity": 1,
      "hand": "right"
    },
    {
      "midi": 66,
      "time": 212.5,
      "duration": 0.417,
      "velocity": 1,
      "hand": "right"
    },
    {
      "midi": 68,
      "time": 212.917,
      "duration": 0.208,
      "velocity": 1,
      "hand": "right"
    },
    {
      "midi": 69,
      "time": 213.125,
      "duration": 0.208,
      "velocity": 1,
      "hand": "right"
    },
    {
      "midi": 47,
      "time": 213.333,
      "duration": 0.833,
      "velocity": 1,
      "hand": "left"
    },
    {
      "midi": 57,
      "time": 213.333,
      "duration": 0.833,
      "velocity": 1,
      "hand": "left"
    },
    {
      "midi": 63,
      "time": 213.333,
      "duration": 0.833,
      "velocity": 1,
      "hand": "right"
    },
    {
      "midi": 73,
      "time": 213.333,
      "duration": 0.417,
      "velocity": 1,
      "hand": "right"
    },
    {
      "midi": 70,
      "time": 213.75,
      "duration": 0.833,
      "velocity": 1,
      "hand": "right"
    },
    {
      "midi": 52,
      "time": 214.167,
      "duration": 0.833,
      "velocity": 1,
      "hand": "left"
    },
    {
      "midi": 56,
      "time": 214.167,
      "duration": 0.833,
      "velocity": 1,
      "hand": "left"
    },
    {
      "midi": 62,
      "time": 214.167,
      "duration": 0.833,
      "velocity": 1,
      "hand": "right"
    },
    {
      "midi": 71,
      "time": 214.583,
      "duration": 0.417,
      "velocity": 1,
      "hand": "right"
    },
    {
      "midi": 66,
      "time": 215,
      "duration": 0.417,
      "velocity": 1,
      "hand": "right"
    },
    {
      "midi": 68,
      "time": 215.417,
      "duration": 0.208,
      "velocity": 1,
      "hand": "right"
    },
    {
      "midi": 69,
      "time": 215.625,
      "duration": 0.208,
      "velocity": 1,
      "hand": "right"
    },
    {
      "midi": 50,
      "time": 215.833,
      "duration": 0.833,
      "velocity": 1,
      "hand": "left"
    },
    {
      "midi": 52,
      "time": 215.833,
      "duration": 1.667,
      "velocity": 1,
      "hand": "left"
    },
    {
      "midi": 59,
      "time": 215.833,
      "duration": 0.833,
      "velocity": 1,
      "hand": "left"
    },
    {
      "midi": 64,
      "time": 215.833,
      "duration": 0.833,
      "velocity": 1,
      "hand": "right"
    },
    {
      "midi": 68,
      "time": 215.833,
      "duration": 0.417,
      "velocity": 1,
      "hand": "right"
    },
    {
      "midi": 71,
      "time": 216.25,
      "duration": 0.417,
      "velocity": 1,
      "hand": "right"
    },
    {
      "midi": 49,
      "time": 216.667,
      "duration": 0.833,
      "velocity": 1,
      "hand": "left"
    },
    {
      "midi": 64,
      "time": 216.667,
      "duration": 1.667,
      "velocity": 1,
      "hand": "right"
    },
    {
      "midi": 69,
      "time": 217.083,
      "duration": 0.417,
      "velocity": 1,
      "hand": "right"
    },
    {
      "midi": 47,
      "time": 217.5,
      "duration": 0.417,
      "velocity": 1,
      "hand": "left"
    },
    {
      "midi": 52,
      "time": 217.5,
      "duration": 0.833,
      "velocity": 1,
      "hand": "left"
    },
    {
      "midi": 68,
      "time": 217.5,
      "duration": 0.417,
      "velocity": 1,
      "hand": "right"
    },
    {
      "midi": 71,
      "time": 217.5,
      "duration": 0.417,
      "velocity": 1,
      "hand": "right"
    },
    {
      "midi": 45,
      "time": 217.917,
      "duration": 0.417,
      "velocity": 1,
      "hand": "left"
    },
    {
      "midi": 69,
      "time": 217.917,
      "duration": 0.417,
      "velocity": 1,
      "hand": "right"
    },
    {
      "midi": 73,
      "time": 217.917,
      "duration": 0.417,
      "velocity": 1,
      "hand": "right"
    },
    {
      "midi": 44,
      "time": 218.333,
      "duration": 0.833,
      "velocity": 1,
      "hand": "left"
    },
    {
      "midi": 52,
      "time": 218.333,
      "duration": 1.667,
      "velocity": 1,
      "hand": "left"
    },
    {
      "midi": 64,
      "time": 218.333,
      "duration": 1.667,
      "velocity": 1,
      "hand": "right"
    },
    {
      "midi": 71,
      "time": 218.333,
      "duration": 0.833,
      "velocity": 1,
      "hand": "right"
    },
    {
      "midi": 76,
      "time": 218.333,
      "duration": 0.833,
      "velocity": 1,
      "hand": "right"
    },
    {
      "midi": 45,
      "time": 219.167,
      "duration": 0.833,
      "velocity": 1,
      "hand": "left"
    },
    {
      "midi": 69,
      "time": 219.167,
      "duration": 0.833,
      "velocity": 1,
      "hand": "right"
    },
    {
      "midi": 73,
      "time": 219.167,
      "duration": 0.833,
      "velocity": 1,
      "hand": "right"
    },
    {
      "midi": 73,
      "time": 220,
      "duration": 0.417,
      "velocity": 1,
      "hand": "right"
    },
    {
      "midi": 74,
      "time": 220.417,
      "duration": 0.208,
      "velocity": 1,
      "hand": "right"
    },
    {
      "midi": 76,
      "time": 220.625,
      "duration": 0.208,
      "velocity": 1,
      "hand": "right"
    },
    {
      "midi": 46,
      "time": 220.833,
      "duration": 0.833,
      "velocity": 1,
      "hand": "left"
    },
    {
      "midi": 54,
      "time": 220.833,
      "duration": 0.833,
      "velocity": 1,
      "hand": "left"
    },
    {
      "midi": 61,
      "time": 220.833,
      "duration": 0.833,
      "velocity": 1,
      "hand": "right"
    },
    {
      "midi": 66,
      "time": 220.833,
      "duration": 0.833,
      "velocity": 1,
      "hand": "right"
    },
    {
      "midi": 73,
      "time": 220.833,
      "duration": 0.833,
      "velocity": 1,
      "hand": "right"
    },
    {
      "midi": 78,
      "time": 220.833,
      "duration": 0.417,
      "velocity": 1,
      "hand": "right"
    },
    {
      "midi": 47,
      "time": 221.667,
      "duration": 0.833,
      "velocity": 1,
      "hand": "left"
    },
    {
      "midi": 54,
      "time": 221.667,
      "duration": 0.833,
      "velocity": 1,
      "hand": "left"
    },
    {
      "midi": 59,
      "time": 221.667,
      "duration": 0.833,
      "velocity": 1,
      "hand": "left"
    },
    {
      "midi": 66,
      "time": 221.667,
      "duration": 0.833,
      "velocity": 1,
      "hand": "right"
    },
    {
      "midi": 71,
      "time": 221.667,
      "duration": 0.833,
      "velocity": 1,
      "hand": "right"
    },
    {
      "midi": 74,
      "time": 221.667,
      "duration": 0.833,
      "velocity": 1,
      "hand": "right"
    },
    {
      "midi": 74,
      "time": 222.5,
      "duration": 0.417,
      "velocity": 1,
      "hand": "right"
    },
    {
      "midi": 76,
      "time": 222.917,
      "duration": 0.208,
      "velocity": 1,
      "hand": "right"
    },
    {
      "midi": 78,
      "time": 223.125,
      "duration": 0.208,
      "velocity": 1,
      "hand": "right"
    },
    {
      "midi": 48,
      "time": 223.333,
      "duration": 0.833,
      "velocity": 1,
      "hand": "left"
    },
    {
      "midi": 56,
      "time": 223.333,
      "duration": 0.833,
      "velocity": 1,
      "hand": "left"
    },
    {
      "midi": 63,
      "time": 223.333,
      "duration": 0.833,
      "velocity": 1,
      "hand": "right"
    },
    {
      "midi": 68,
      "time": 223.333,
      "duration": 0.833,
      "velocity": 1,
      "hand": "right"
    },
    {
      "midi": 75,
      "time": 223.333,
      "duration": 0.833,
      "velocity": 1,
      "hand": "right"
    },
    {
      "midi": 80,
      "time": 223.333,
      "duration": 0.417,
      "velocity": 1,
      "hand": "right"
    },
    {
      "midi": 49,
      "time": 224.167,
      "duration": 0.833,
      "velocity": 1,
      "hand": "left"
    },
    {
      "midi": 56,
      "time": 224.167,
      "duration": 0.833,
      "velocity": 1,
      "hand": "left"
    },
    {
      "midi": 61,
      "time": 224.167,
      "duration": 0.833,
      "velocity": 1,
      "hand": "right"
    },
    {
      "midi": 68,
      "time": 224.167,
      "duration": 0.833,
      "velocity": 1,
      "hand": "right"
    },
    {
      "midi": 73,
      "time": 224.167,
      "duration": 0.833,
      "velocity": 1,
      "hand": "right"
    },
    {
      "midi": 76,
      "time": 224.167,
      "duration": 0.833,
      "velocity": 1,
      "hand": "right"
    },
    {
      "midi": 76,
      "time": 225,
      "duration": 0.417,
      "velocity": 1,
      "hand": "right"
    },
    {
      "midi": 78,
      "time": 225.417,
      "duration": 0.208,
      "velocity": 1,
      "hand": "right"
    },
    {
      "midi": 80,
      "time": 225.625,
      "duration": 0.208,
      "velocity": 1,
      "hand": "right"
    },
    {
      "midi": 81,
      "time": 225.833,
      "duration": 0.417,
      "velocity": 1,
      "hand": "right"
    },
    {
      "midi": 80,
      "time": 226.25,
      "duration": 0.417,
      "velocity": 1,
      "hand": "right"
    },
    {
      "midi": 78,
      "time": 226.667,
      "duration": 0.417,
      "velocity": 1,
      "hand": "right"
    },
    {
      "midi": 76,
      "time": 227.083,
      "duration": 0.417,
      "velocity": 1,
      "hand": "right"
    },
    {
      "midi": 54,
      "time": 227.5,
      "duration": 1.667,
      "velocity": 1,
      "hand": "left"
    },
    {
      "midi": 57,
      "time": 227.5,
      "duration": 0.417,
      "velocity": 1,
      "hand": "left"
    },
    {
      "midi": 74,
      "time": 227.5,
      "duration": 0.417,
      "velocity": 1,
      "hand": "right"
    },
    {
      "midi": 59,
      "time": 227.917,
      "duration": 0.208,
      "velocity": 1,
      "hand": "left"
    },
    {
      "midi": 69,
      "time": 227.917,
      "duration": 0.833,
      "velocity": 1,
      "hand": "right"
    },
    {
      "midi": 61,
      "time": 228.125,
      "duration": 0.208,
      "velocity": 1,
      "hand": "right"
    },
    {
      "midi": 62,
      "time": 228.333,
      "duration": 0.417,
      "velocity": 1,
      "hand": "right"
    },
    {
      "midi": 61,
      "time": 228.75,
      "duration": 0.417,
      "velocity": 1,
      "hand": "right"
    },
    {
      "midi": 81,
      "time": 228.75,
      "duration": 0.833,
      "velocity": 1,
      "hand": "right"
    },
    {
      "midi": 53,
      "time": 229.167,
      "duration": 0.833,
      "velocity": 1,
      "hand": "left"
    },
    {
      "midi": 59,
      "time": 229.167,
      "duration": 0.417,
      "velocity": 1,
      "hand": "left"
    },
    {
      "midi": 57,
      "time": 229.583,
      "duration": 0.833,
      "velocity": 1,
      "hand": "left"
    },
    {
      "midi": 63,
      "time": 229.583,
      "duration": 0.417,
      "velocity": 1,
      "hand": "right"
    },
    {
      "midi": 72,
      "time": 229.583,
      "duration": 0.417,
      "velocity": 1,
      "hand": "right"
    },
    {
      "midi": 75,
      "time": 229.583,
      "duration": 0.417,
      "velocity": 1,
      "hand": "right"
    },
    {
      "midi": 52,
      "time": 230,
      "duration": 0.417,
      "velocity": 1,
      "hand": "left"
    },
    {
      "midi": 64,
      "time": 230,
      "duration": 0.417,
      "velocity": 1,
      "hand": "right"
    },
    {
      "midi": 73,
      "time": 230,
      "duration": 0.417,
      "velocity": 1,
      "hand": "right"
    },
    {
      "midi": 76,
      "time": 230,
      "duration": 0.417,
      "velocity": 1,
      "hand": "right"
    },
    {
      "midi": 66,
      "time": 230.417,
      "duration": 0.208,
      "velocity": 1,
      "hand": "right"
    },
    {
      "midi": 68,
      "time": 230.625,
      "duration": 0.208,
      "velocity": 1,
      "hand": "right"
    },
    {
      "midi": 69,
      "time": 230.833,
      "duration": 0.417,
      "velocity": 1,
      "hand": "right"
    },
    {
      "midi": 57,
      "time": 231.25,
      "duration": 0.417,
      "velocity": 1,
      "hand": "left"
    },
    {
      "midi": 59,
      "time": 231.25,
      "duration": 1.25,
      "velocity": 1,
      "hand": "left"
    },
    {
      "midi": 62,
      "time": 231.25,
      "duration": 1.25,
      "velocity": 1,
      "hand": "right"
    },
    {
      "midi": 64,
      "time": 231.25,
      "duration": 1.667,
      "velocity": 1,
      "hand": "right"
    },
    {
      "midi": 52,
      "time": 231.667,
      "duration": 0.833,
      "velocity": 1,
      "hand": "left"
    },
    {
      "midi": 55,
      "time": 231.667,
      "duration": 0.417,
      "velocity": 1,
      "hand": "left"
    },
    {
      "midi": 56,
      "time": 232.083,
      "duration": 0.417,
      "velocity": 1,
      "hand": "left"
    },
    {
      "midi": 40,
      "time": 232.5,
      "duration": 0.417,
      "velocity": 1,
      "hand": "left"
    },
    {
      "midi": 57,
      "time": 232.5,
      "duration": 0.417,
      "velocity": 1,
      "hand": "left"
    },
    {
      "midi": 61,
      "time": 232.5,
      "duration": 0.417,
      "velocity": 1,
      "hand": "right"
    },
    {
      "midi": 66,
      "time": 232.917,
      "duration": 0.208,
      "velocity": 1,
      "hand": "right"
    },
    {
      "midi": 68,
      "time": 233.125,
      "duration": 0.208,
      "velocity": 1,
      "hand": "right"
    },
    {
      "midi": 69,
      "time": 233.333,
      "duration": 0.417,
      "velocity": 1,
      "hand": "right"
    },
    {
      "midi": 57,
      "time": 233.75,
      "duration": 0.417,
      "velocity": 1,
      "hand": "left"
    },
    {
      "midi": 59,
      "time": 233.75,
      "duration": 1.25,
      "velocity": 1,
      "hand": "left"
    },
    {
      "midi": 62,
      "time": 233.75,
      "duration": 1.25,
      "velocity": 1,
      "hand": "right"
    },
    {
      "midi": 64,
      "time": 233.75,
      "duration": 1.667,
      "velocity": 1,
      "hand": "right"
    },
    {
      "midi": 52,
      "time": 234.167,
      "duration": 0.833,
      "velocity": 1,
      "hand": "left"
    },
    {
      "midi": 55,
      "time": 234.167,
      "duration": 0.417,
      "velocity": 1,
      "hand": "left"
    },
    {
      "midi": 56,
      "time": 234.583,
      "duration": 0.417,
      "velocity": 1,
      "hand": "left"
    },
    {
      "midi": 40,
      "time": 235,
      "duration": 0.417,
      "velocity": 1,
      "hand": "left"
    },
    {
      "midi": 57,
      "time": 235,
      "duration": 0.417,
      "velocity": 1,
      "hand": "left"
    },
    {
      "midi": 61,
      "time": 235,
      "duration": 0.417,
      "velocity": 1,
      "hand": "right"
    },
    {
      "midi": 66,
      "time": 235.417,
      "duration": 0.208,
      "velocity": 1,
      "hand": "right"
    },
    {
      "midi": 68,
      "time": 235.625,
      "duration": 0.208,
      "velocity": 1,
      "hand": "right"
    },
    {
      "midi": 69,
      "time": 235.833,
      "duration": 0.833,
      "velocity": 1,
      "hand": "right"
    },
    {
      "midi": 54,
      "time": 236.25,
      "duration": 0.208,
      "velocity": 1,
      "hand": "left"
    },
    {
      "midi": 57,
      "time": 236.25,
      "duration": 0.417,
      "velocity": 1,
      "hand": "left"
    },
    {
      "midi": 61,
      "time": 236.25,
      "duration": 0.417,
      "velocity": 1,
      "hand": "right"
    },
    {
      "midi": 53,
      "time": 236.458,
      "duration": 0.208,
      "velocity": 1,
      "hand": "left"
    },
    {
      "midi": 52,
      "time": 236.667,
      "duration": 0.417,
      "velocity": 1,
      "hand": "left"
    },
    {
      "midi": 57,
      "time": 236.667,
      "duration": 0.417,
      "velocity": 1,
      "hand": "left"
    },
    {
      "midi": 61,
      "time": 236.667,
      "duration": 0.417,
      "velocity": 1,
      "hand": "right"
    },
    {
      "midi": 42,
      "time": 237.083,
      "duration": 0.208,
      "velocity": 1,
      "hand": "left"
    },
    {
      "midi": 51,
      "time": 237.083,
      "duration": 0.833,
      "velocity": 1,
      "hand": "left"
    },
    {
      "midi": 57,
      "time": 237.083,
      "duration": 0.833,
      "velocity": 1,
      "hand": "left"
    },
    {
      "midi": 60,
      "time": 237.083,
      "duration": 0.833,
      "velocity": 1,
      "hand": "right"
    },
    {
      "midi": 41,
      "time": 237.292,
      "duration": 0.208,
      "velocity": 1,
      "hand": "left"
    },
    {
      "midi": 40,
      "time": 237.5,
      "duration": 1.667,
      "velocity": 1,
      "hand": "left"
    },
    {
      "midi": 52,
      "time": 237.917,
      "duration": 0.417,
      "velocity": 1,
      "hand": "left"
    },
    {
      "midi": 57,
      "time": 237.917,
      "duration": 0.417,
      "velocity": 1,
      "hand": "left"
    },
    {
      "midi": 61,
      "time": 237.917,
      "duration": 0.417,
      "velocity": 1,
      "hand": "right"
    },
    {
      "midi": 54,
      "time": 238.333,
      "duration": 1.25,
      "velocity": 1,
      "hand": "left"
    },
    {
      "midi": 56,
      "time": 238.333,
      "duration": 1.25,
      "velocity": 1,
      "hand": "left"
    },
    {
      "midi": 62,
      "time": 238.333,
      "duration": 1.25,
      "velocity": 1,
      "hand": "right"
    },
    {
      "midi": 52,
      "time": 239.167,
      "duration": 0.833,
      "velocity": 1,
      "hand": "left"
    },
    {
      "midi": 50,
      "time": 239.583,
      "duration": 0.417,
      "velocity": 1,
      "hand": "left"
    },
    {
      "midi": 56,
      "time": 239.583,
      "duration": 0.417,
      "velocity": 1,
      "hand": "left"
    },
    {
      "midi": 33,
      "time": 240,
      "duration": 0.208,
      "velocity": 1,
      "hand": "left"
    },
    {
      "midi": 40,
      "time": 240.208,
      "duration": 0.208,
      "velocity": 1,
      "hand": "left"
    },
    {
      "midi": 45,
      "time": 240.208,
      "duration": 0.208,
      "velocity": 1,
      "hand": "left"
    },
    {
      "midi": 49,
      "time": 240.417,
      "duration": 0.208,
      "velocity": 1,
      "hand": "left"
    },
    {
      "midi": 52,
      "time": 240.625,
      "duration": 0.208,
      "velocity": 1,
      "hand": "left"
    },
    {
      "midi": 57,
      "time": 240.625,
      "duration": 0.208,
      "velocity": 1,
      "hand": "left"
    },
    {
      "midi": 51,
      "time": 240.833,
      "duration": 0.208,
      "velocity": 1,
      "hand": "left"
    },
    {
      "midi": 52,
      "time": 241.042,
      "duration": 0.208,
      "velocity": 1,
      "hand": "left"
    },
    {
      "midi": 57,
      "time": 241.042,
      "duration": 0.208,
      "velocity": 1,
      "hand": "left"
    },
    {
      "midi": 60,
      "time": 241.25,
      "duration": 0.208,
      "velocity": 1,
      "hand": "right"
    },
    {
      "midi": 61,
      "time": 241.458,
      "duration": 0.208,
      "velocity": 1,
      "hand": "right"
    },
    {
      "midi": 64,
      "time": 241.458,
      "duration": 0.208,
      "velocity": 1,
      "hand": "right"
    },
    {
      "midi": 69,
      "time": 241.667,
      "duration": 1.667,
      "velocity": 1,
      "hand": "right"
    },
    {
      "midi": 48,
      "time": 242.5,
      "duration": 2.5,
      "velocity": 1,
      "hand": "left"
    },
    {
      "midi": 53,
      "time": 242.5,
      "duration": 2.5,
      "velocity": 1,
      "hand": "left"
    },
    {
      "midi": 57,
      "time": 242.5,
      "duration": 2.5,
      "velocity": 1,
      "hand": "left"
    },
    {
      "midi": 67,
      "time": 243.333,
      "duration": 0.417,
      "velocity": 1,
      "hand": "right"
    },
    {
      "midi": 65,
      "time": 243.75,
      "duration": 0.417,
      "velocity": 1,
      "hand": "right"
    },
    {
      "midi": 64,
      "time": 244.167,
      "duration": 0.417,
      "velocity": 1,
      "hand": "right"
    },
    {
      "midi": 63,
      "time": 244.583,
      "duration": 0.417,
      "velocity": 1,
      "hand": "right"
    },
    {
      "midi": 45,
      "time": 245,
      "duration": 0.208,
      "velocity": 1,
      "hand": "left"
    },
    {
      "midi": 52,
      "time": 245.208,
      "duration": 0.208,
      "velocity": 1,
      "hand": "left"
    },
    {
      "midi": 57,
      "time": 245.208,
      "duration": 0.208,
      "velocity": 1,
      "hand": "left"
    },
    {
      "midi": 63,
      "time": 245.417,
      "duration": 0.208,
      "velocity": 1,
      "hand": "right"
    },
    {
      "midi": 64,
      "time": 245.625,
      "duration": 0.208,
      "velocity": 1,
      "hand": "right"
    },
    {
      "midi": 69,
      "time": 245.625,
      "duration": 0.208,
      "velocity": 1,
      "hand": "right"
    },
    {
      "midi": 63,
      "time": 245.833,
      "duration": 0.208,
      "velocity": 1,
      "hand": "right"
    },
    {
      "midi": 64,
      "time": 246.042,
      "duration": 0.208,
      "velocity": 1,
      "hand": "right"
    },
    {
      "midi": 69,
      "time": 246.042,
      "duration": 0.208,
      "velocity": 1,
      "hand": "right"
    },
    {
      "midi": 72,
      "time": 246.25,
      "duration": 0.208,
      "velocity": 1,
      "hand": "right"
    },
    {
      "midi": 73,
      "time": 246.458,
      "duration": 0.208,
      "velocity": 1,
      "hand": "right"
    },
    {
      "midi": 76,
      "time": 246.458,
      "duration": 0.208,
      "velocity": 1,
      "hand": "right"
    },
    {
      "midi": 81,
      "time": 246.667,
      "duration": 1.667,
      "velocity": 1,
      "hand": "right"
    },
    {
      "midi": 65,
      "time": 247.5,
      "duration": 2.5,
      "velocity": 1,
      "hand": "right"
    },
    {
      "midi": 69,
      "time": 247.5,
      "duration": 2.5,
      "velocity": 1,
      "hand": "right"
    },
    {
      "midi": 72,
      "time": 247.5,
      "duration": 2.5,
      "velocity": 1,
      "hand": "right"
    },
    {
      "midi": 79,
      "time": 248.333,
      "duration": 0.417,
      "velocity": 1,
      "hand": "right"
    },
    {
      "midi": 77,
      "time": 248.75,
      "duration": 0.417,
      "velocity": 1,
      "hand": "right"
    },
    {
      "midi": 76,
      "time": 249.167,
      "duration": 0.417,
      "velocity": 1,
      "hand": "right"
    },
    {
      "midi": 75,
      "time": 249.583,
      "duration": 0.417,
      "velocity": 1,
      "hand": "right"
    },
    {
      "midi": 57,
      "time": 250.208,
      "duration": 0.208,
      "velocity": 1,
      "hand": "left"
    },
    {
      "midi": 64,
      "time": 250.208,
      "duration": 0.208,
      "velocity": 1,
      "hand": "right"
    },
    {
      "midi": 69,
      "time": 250.417,
      "duration": 0.208,
      "velocity": 1,
      "hand": "right"
    },
    {
      "midi": 73,
      "time": 250.625,
      "duration": 0.208,
      "velocity": 1,
      "hand": "right"
    },
    {
      "midi": 75,
      "time": 250.625,
      "duration": 0.208,
      "velocity": 1,
      "hand": "right"
    },
    {
      "midi": 78,
      "time": 250.833,
      "duration": 0.208,
      "velocity": 1,
      "hand": "right"
    },
    {
      "midi": 73,
      "time": 251.042,
      "duration": 0.208,
      "velocity": 1,
      "hand": "right"
    },
    {
      "midi": 76,
      "time": 251.042,
      "duration": 0.208,
      "velocity": 1,
      "hand": "right"
    },
    {
      "midi": 81,
      "time": 251.25,
      "duration": 0.208,
      "velocity": 1,
      "hand": "right"
    },
    {
      "midi": 85,
      "time": 251.458,
      "duration": 0.208,
      "velocity": 1,
      "hand": "right"
    },
    {
      "midi": 88,
      "time": 251.458,
      "duration": 0.208,
      "velocity": 1,
      "hand": "right"
    },
    {
      "midi": 92,
      "time": 251.667,
      "duration": 0.208,
      "velocity": 1,
      "hand": "right"
    },
    {
      "midi": 93,
      "time": 251.875,
      "duration": 0.208,
      "velocity": 1,
      "hand": "right"
    },
    {
      "midi": 97,
      "time": 251.875,
      "duration": 0.208,
      "velocity": 1,
      "hand": "right"
    },
    {
      "midi": 100,
      "time": 252.083,
      "duration": 5.417,
      "velocity": 1,
      "hand": "right"
    },
    {
      "midi": 69,
      "time": 252.5,
      "duration": 0.833,
      "velocity": 1,
      "hand": "right"
    },
    {
      "midi": 73,
      "time": 252.5,
      "duration": 0.833,
      "velocity": 1,
      "hand": "right"
    },
    {
      "midi": 88,
      "time": 252.5,
      "duration": 0.833,
      "velocity": 1,
      "hand": "right"
    },
    {
      "midi": 93,
      "time": 252.5,
      "duration": 0.833,
      "velocity": 1,
      "hand": "right"
    },
    {
      "midi": 69,
      "time": 253.333,
      "duration": 0.833,
      "velocity": 1,
      "hand": "right"
    },
    {
      "midi": 73,
      "time": 253.333,
      "duration": 0.833,
      "velocity": 1,
      "hand": "right"
    },
    {
      "midi": 88,
      "time": 253.333,
      "duration": 0.833,
      "velocity": 1,
      "hand": "right"
    },
    {
      "midi": 93,
      "time": 253.333,
      "duration": 0.833,
      "velocity": 1,
      "hand": "right"
    },
    {
      "midi": 69,
      "time": 254.167,
      "duration": 0.833,
      "velocity": 1,
      "hand": "right"
    },
    {
      "midi": 73,
      "time": 254.167,
      "duration": 0.833,
      "velocity": 1,
      "hand": "right"
    },
    {
      "midi": 88,
      "time": 254.167,
      "duration": 0.833,
      "velocity": 1,
      "hand": "right"
    },
    {
      "midi": 93,
      "time": 254.167,
      "duration": 0.833,
      "velocity": 1,
      "hand": "right"
    },
    {
      "midi": 69,
      "time": 255,
      "duration": 2.5,
      "velocity": 1,
      "hand": "right"
    },
    {
      "midi": 73,
      "time": 255,
      "duration": 2.5,
      "velocity": 1,
      "hand": "right"
    },
    {
      "midi": 88,
      "time": 255,
      "duration": 2.5,
      "velocity": 1,
      "hand": "right"
    },
    {
      "midi": 93,
      "time": 255,
      "duration": 2.5,
      "velocity": 1,
      "hand": "right"
    }
  ],
  "arrangements": {
    "easy": [
      {
        "midi": 66,
        "time": 0,
        "duration": 0.417,
        "velocity": 1,
        "hand": "right"
      },
      {
        "midi": 68,
        "time": 0.417,
        "duration": 0.417,
        "velocity": 1,
        "hand": "right"
      },
      {
        "midi": 71,
        "time": 1.25,
        "duration": 0.417,
        "velocity": 1,
        "hand": "right"
      },
      {
        "midi": 64,
        "time": 1.667,
        "duration": 1.667,
        "velocity": 1,
        "hand": "right"
      },
      {
        "midi": 71,
        "time": 2.5,
        "duration": 0.417,
        "velocity": 1,
        "hand": "right"
      },
      {
        "midi": 73,
        "time": 2.917,
        "duration": 0.417,
        "velocity": 1,
        "hand": "right"
      },
      {
        "midi": 73,
        "time": 4.167,
        "duration": 0.833,
        "velocity": 1,
        "hand": "right"
      },
      {
        "midi": 73,
        "time": 5,
        "duration": 0.417,
        "velocity": 1,
        "hand": "right"
      },
      {
        "midi": 74,
        "time": 5.417,
        "duration": 0.417,
        "velocity": 1,
        "hand": "right"
      },
      {
        "midi": 73,
        "time": 6.25,
        "duration": 0.417,
        "velocity": 1,
        "hand": "right"
      },
      {
        "midi": 74,
        "time": 6.667,
        "duration": 0.833,
        "velocity": 1,
        "hand": "right"
      },
      {
        "midi": 66,
        "time": 7.5,
        "duration": 0.417,
        "velocity": 1,
        "hand": "right"
      },
      {
        "midi": 68,
        "time": 7.917,
        "duration": 0.417,
        "velocity": 1,
        "hand": "right"
      },
      {
        "midi": 70,
        "time": 8.75,
        "duration": 0.833,
        "velocity": 1,
        "hand": "right"
      },
      {
        "midi": 62,
        "time": 9.167,
        "duration": 0.833,
        "velocity": 1,
        "hand": "right"
      },
      {
        "midi": 66,
        "time": 10,
        "duration": 0.417,
        "velocity": 1,
        "hand": "right"
      },
      {
        "midi": 68,
        "time": 10.417,
        "duration": 0.417,
        "velocity": 1,
        "hand": "right"
      },
      {
        "midi": 71,
        "time": 11.25,
        "duration": 0.417,
        "velocity": 1,
        "hand": "right"
      },
      {
        "midi": 64,
        "time": 11.667,
        "duration": 1.667,
        "velocity": 1,
        "hand": "right"
      },
      {
        "midi": 71,
        "time": 12.5,
        "duration": 0.417,
        "velocity": 1,
        "hand": "right"
      },
      {
        "midi": 73,
        "time": 12.917,
        "duration": 0.417,
        "velocity": 1,
        "hand": "right"
      },
      {
        "midi": 73,
        "time": 14.167,
        "duration": 0.833,
        "velocity": 1,
        "hand": "right"
      },
      {
        "midi": 73,
        "time": 15,
        "duration": 0.417,
        "velocity": 1,
        "hand": "right"
      },
      {
        "midi": 75,
        "time": 15.417,
        "duration": 0.417,
        "velocity": 1,
        "hand": "right"
      },
      {
        "midi": 73,
        "time": 16.25,
        "duration": 0.417,
        "velocity": 1,
        "hand": "right"
      },
      {
        "midi": 71,
        "time": 16.667,
        "duration": 0.833,
        "velocity": 1,
        "hand": "right"
      },
      {
        "midi": 73,
        "time": 17.5,
        "duration": 0.417,
        "velocity": 1,
        "hand": "right"
      },
      {
        "midi": 75,
        "time": 17.917,
        "duration": 0.417,
        "velocity": 1,
        "hand": "right"
      },
      {
        "midi": 73,
        "time": 18.75,
        "duration": 0.417,
        "velocity": 1,
        "hand": "right"
      },
      {
        "midi": 71,
        "time": 19.167,
        "duration": 0.833,
        "velocity": 1,
        "hand": "right"
      },
      {
        "midi": 73,
        "time": 20,
        "duration": 0.417,
        "velocity": 1,
        "hand": "right"
      },
      {
        "midi": 75,
        "time": 20.417,
        "duration": 0.417,
        "velocity": 1,
        "hand": "right"
      },
      {
        "midi": 76,
        "time": 21.25,
        "duration": 0.417,
        "velocity": 1,
        "hand": "right"
      },
      {
        "midi": 75,
        "time": 21.667,
        "duration": 0.417,
        "velocity": 1,
        "hand": "right"
      },
      {
        "midi": 73,
        "time": 22.5,
        "duration": 0.833,
        "velocity": 1,
        "hand": "right"
      },
      {
        "midi": 66,
        "time": 23.333,
        "duration": 0.833,
        "velocity": 1,
        "hand": "right"
      },
      {
        "midi": 64,
        "time": 24.167,
        "duration": 0.833,
        "velocity": 1,
        "hand": "right"
      },
      {
        "midi": 74,
        "time": 25,
        "duration": 0.417,
        "velocity": 1,
        "hand": "right"
      },
      {
        "midi": 73,
        "time": 25.417,
        "duration": 0.417,
        "velocity": 1,
        "hand": "right"
      },
      {
        "midi": 69,
        "time": 26.25,
        "duration": 0.417,
        "velocity": 1,
        "hand": "right"
      },
      {
        "midi": 68,
        "time": 26.667,
        "duration": 0.833,
        "velocity": 1,
        "hand": "right"
      },
      {
        "midi": 66,
        "time": 27.5,
        "duration": 0.417,
        "velocity": 1,
        "hand": "right"
      },
      {
        "midi": 68,
        "time": 27.917,
        "duration": 0.417,
        "velocity": 1,
        "hand": "right"
      },
      {
        "midi": 68,
        "time": 28.75,
        "duration": 0.417,
        "velocity": 1,
        "hand": "right"
      },
      {
        "midi": 64,
        "time": 29.167,
        "duration": 0.833,
        "velocity": 1,
        "hand": "right"
      },
      {
        "midi": 74,
        "time": 30,
        "duration": 0.417,
        "velocity": 1,
        "hand": "right"
      },
      {
        "midi": 73,
        "time": 30.417,
        "duration": 0.417,
        "velocity": 1,
        "hand": "right"
      },
      {
        "midi": 69,
        "time": 31.25,
        "duration": 0.417,
        "velocity": 1,
        "hand": "right"
      },
      {
        "midi": 68,
        "time": 31.667,
        "duration": 0.833,
        "velocity": 1,
        "hand": "right"
      },
      {
        "midi": 66,
        "time": 32.5,
        "duration": 0.417,
        "velocity": 1,
        "hand": "right"
      },
      {
        "midi": 68,
        "time": 32.917,
        "duration": 0.417,
        "velocity": 1,
        "hand": "right"
      },
      {
        "midi": 68,
        "time": 33.75,
        "duration": 0.417,
        "velocity": 1,
        "hand": "right"
      },
      {
        "midi": 64,
        "time": 34.167,
        "duration": 0.833,
        "velocity": 1,
        "hand": "right"
      },
      {
        "midi": 70,
        "time": 35,
        "duration": 0.417,
        "velocity": 1,
        "hand": "right"
      },
      {
        "midi": 72,
        "time": 35.417,
        "duration": 0.417,
        "velocity": 1,
        "hand": "right"
      },
      {
        "midi": 72,
        "time": 36.25,
        "duration": 0.417,
        "velocity": 1,
        "hand": "right"
      },
      {
        "midi": 68,
        "time": 36.667,
        "duration": 0.833,
        "velocity": 1,
        "hand": "right"
      },
      {
        "midi": 74,
        "time": 37.5,
        "duration": 0.417,
        "velocity": 1,
        "hand": "right"
      },
      {
        "midi": 76,
        "time": 37.917,
        "duration": 0.417,
        "velocity": 1,
        "hand": "right"
      },
      {
        "midi": 76,
        "time": 38.75,
        "duration": 0.417,
        "velocity": 1,
        "hand": "right"
      },
      {
        "midi": 72,
        "time": 39.167,
        "duration": 0.833,
        "velocity": 1,
        "hand": "right"
      },
      {
        "midi": 74,
        "time": 40,
        "duration": 0.417,
        "velocity": 1,
        "hand": "right"
      },
      {
        "midi": 76,
        "time": 40.417,
        "duration": 0.417,
        "velocity": 1,
        "hand": "right"
      },
      {
        "midi": 77,
        "time": 41.042,
        "duration": 0.417,
        "velocity": 1,
        "hand": "right"
      },
      {
        "midi": 72,
        "time": 41.667,
        "duration": 0.833,
        "velocity": 1,
        "hand": "right"
      },
      {
        "midi": 74,
        "time": 42.5,
        "duration": 0.417,
        "velocity": 1,
        "hand": "right"
      },
      {
        "midi": 76,
        "time": 42.917,
        "duration": 0.417,
        "velocity": 1,
        "hand": "right"
      },
      {
        "midi": 77,
        "time": 43.542,
        "duration": 0.417,
        "velocity": 1,
        "hand": "right"
      },
      {
        "midi": 72,
        "time": 44.167,
        "duration": 0.833,
        "velocity": 1,
        "hand": "right"
      },
      {
        "midi": 74,
        "time": 45,
        "duration": 0.417,
        "velocity": 1,
        "hand": "right"
      },
      {
        "midi": 76,
        "time": 45.417,
        "duration": 0.417,
        "velocity": 1,
        "hand": "right"
      },
      {
        "midi": 78,
        "time": 46.25,
        "duration": 0.417,
        "velocity": 1,
        "hand": "right"
      },
      {
        "midi": 77,
        "time": 46.667,
        "duration": 0.417,
        "velocity": 1,
        "hand": "right"
      },
      {
        "midi": 76,
        "time": 47.5,
        "duration": 0.417,
        "velocity": 1,
        "hand": "right"
      },
      {
        "midi": 75,
        "time": 47.917,
        "duration": 0.417,
        "velocity": 1,
        "hand": "right"
      },
      {
        "midi": 73,
        "time": 48.542,
        "duration": 0.417,
        "velocity": 1,
        "hand": "right"
      },
      {
        "midi": 76,
        "time": 49.167,
        "duration": 0.417,
        "velocity": 1,
        "hand": "right"
      },
      {
        "midi": 70,
        "time": 50,
        "duration": 0.417,
        "velocity": 1,
        "hand": "right"
      },
      {
        "midi": 71,
        "time": 50.417,
        "duration": 0.417,
        "velocity": 1,
        "hand": "right"
      },
      {
        "midi": 73,
        "time": 51.042,
        "duration": 0.417,
        "velocity": 1,
        "hand": "right"
      },
      {
        "midi": 66,
        "time": 51.667,
        "duration": 0.833,
        "velocity": 1,
        "hand": "right"
      },
      {
        "midi": 66,
        "time": 52.5,
        "duration": 0.417,
        "velocity": 1,
        "hand": "right"
      },
      {
        "midi": 68,
        "time": 52.917,
        "duration": 0.417,
        "velocity": 1,
        "hand": "right"
      },
      {
        "midi": 71,
        "time": 53.75,
        "duration": 0.417,
        "velocity": 1,
        "hand": "right"
      },
      {
        "midi": 64,
        "time": 54.167,
        "duration": 1.667,
        "velocity": 1,
        "hand": "right"
      },
      {
        "midi": 71,
        "time": 55,
        "duration": 0.417,
        "velocity": 1,
        "hand": "right"
      },
      {
        "midi": 73,
        "time": 55.417,
        "duration": 0.417,
        "velocity": 1,
        "hand": "right"
      },
      {
        "midi": 73,
        "time": 56.667,
        "duration": 0.833,
        "velocity": 1,
        "hand": "right"
      },
      {
        "midi": 73,
        "time": 57.5,
        "duration": 0.417,
        "velocity": 1,
        "hand": "right"
      },
      {
        "midi": 74,
        "time": 57.917,
        "duration": 0.417,
        "velocity": 1,
        "hand": "right"
      },
      {
        "midi": 73,
        "time": 58.75,
        "duration": 0.417,
        "velocity": 1,
        "hand": "right"
      },
      {
        "midi": 74,
        "time": 59.167,
        "duration": 0.833,
        "velocity": 1,
        "hand": "right"
      },
      {
        "midi": 66,
        "time": 60,
        "duration": 0.417,
        "velocity": 1,
        "hand": "right"
      },
      {
        "midi": 68,
        "time": 60.417,
        "duration": 0.417,
        "velocity": 1,
        "hand": "right"
      },
      {
        "midi": 70,
        "time": 61.25,
        "duration": 0.833,
        "velocity": 1,
        "hand": "right"
      },
      {
        "midi": 62,
        "time": 61.667,
        "duration": 0.833,
        "velocity": 1,
        "hand": "right"
      },
      {
        "midi": 66,
        "time": 62.5,
        "duration": 0.417,
        "velocity": 1,
        "hand": "right"
      },
      {
        "midi": 68,
        "time": 62.917,
        "duration": 0.417,
        "velocity": 1,
        "hand": "right"
      },
      {
        "midi": 71,
        "time": 63.75,
        "duration": 0.417,
        "velocity": 1,
        "hand": "right"
      },
      {
        "midi": 64,
        "time": 64.167,
        "duration": 1.667,
        "velocity": 1,
        "hand": "right"
      },
      {
        "midi": 71,
        "time": 65,
        "duration": 0.417,
        "velocity": 1,
        "hand": "right"
      },
      {
        "midi": 73,
        "time": 65.417,
        "duration": 0.417,
        "velocity": 1,
        "hand": "right"
      },
      {
        "midi": 73,
        "time": 66.667,
        "duration": 0.833,
        "velocity": 1,
        "hand": "right"
      },
      {
        "midi": 73,
        "time": 67.5,
        "duration": 0.417,
        "velocity": 1,
        "hand": "right"
      },
      {
        "midi": 75,
        "time": 67.917,
        "duration": 0.417,
        "velocity": 1,
        "hand": "right"
      },
      {
        "midi": 73,
        "time": 68.75,
        "duration": 0.417,
        "velocity": 1,
        "hand": "right"
      },
      {
        "midi": 71,
        "time": 69.167,
        "duration": 0.833,
        "velocity": 1,
        "hand": "right"
      },
      {
        "midi": 73,
        "time": 70,
        "duration": 0.417,
        "velocity": 1,
        "hand": "right"
      },
      {
        "midi": 75,
        "time": 70.417,
        "duration": 0.417,
        "velocity": 1,
        "hand": "right"
      },
      {
        "midi": 73,
        "time": 71.25,
        "duration": 0.417,
        "velocity": 1,
        "hand": "right"
      },
      {
        "midi": 71,
        "time": 71.667,
        "duration": 0.833,
        "velocity": 1,
        "hand": "right"
      },
      {
        "midi": 76,
        "time": 72.5,
        "duration": 0.833,
        "velocity": 1,
        "hand": "right"
      },
      {
        "midi": 74,
        "time": 73.333,
        "duration": 0.417,
        "velocity": 1,
        "hand": "right"
      },
      {
        "midi": 72,
        "time": 73.75,
        "duration": 0.417,
        "velocity": 1,
        "hand": "right"
      },
      {
        "midi": 71,
        "time": 74.167,
        "duration": 0.417,
        "velocity": 1,
        "hand": "right"
      },
      {
        "midi": 64,
        "time": 75.625,
        "duration": 0.417,
        "velocity": 1,
        "hand": "right"
      },
      {
        "midi": 67,
        "time": 76.042,
        "duration": 0.417,
        "velocity": 1,
        "hand": "right"
      },
      {
        "midi": 78,
        "time": 76.667,
        "duration": 0.417,
        "velocity": 1,
        "hand": "right"
      },
      {
        "midi": 76,
        "time": 77.5,
        "duration": 0.833,
        "velocity": 1,
        "hand": "right"
      },
      {
        "midi": 74,
        "time": 78.333,
        "duration": 0.417,
        "velocity": 1,
        "hand": "right"
      },
      {
        "midi": 72,
        "time": 78.75,
        "duration": 0.417,
        "velocity": 1,
        "hand": "right"
      },
      {
        "midi": 71,
        "time": 79.167,
        "duration": 0.417,
        "velocity": 1,
        "hand": "right"
      },
      {
        "midi": 64,
        "time": 80.625,
        "duration": 0.417,
        "velocity": 1,
        "hand": "right"
      },
      {
        "midi": 67,
        "time": 81.042,
        "duration": 0.417,
        "velocity": 1,
        "hand": "right"
      },
      {
        "midi": 76,
        "time": 82.5,
        "duration": 0.833,
        "velocity": 1,
        "hand": "right"
      },
      {
        "midi": 74,
        "time": 83.333,
        "duration": 0.417,
        "velocity": 1,
        "hand": "right"
      },
      {
        "midi": 72,
        "time": 83.75,
        "duration": 0.417,
        "velocity": 1,
        "hand": "right"
      },
      {
        "midi": 71,
        "time": 84.167,
        "duration": 0.417,
        "velocity": 1,
        "hand": "right"
      },
      {
        "midi": 64,
        "time": 85.625,
        "duration": 0.417,
        "velocity": 1,
        "hand": "right"
      },
      {
        "midi": 67,
        "time": 86.042,
        "duration": 0.417,
        "velocity": 1,
        "hand": "right"
      },
      {
        "midi": 78,
        "time": 86.667,
        "duration": 0.417,
        "velocity": 1,
        "hand": "right"
      },
      {
        "midi": 76,
        "time": 87.5,
        "duration": 0.833,
        "velocity": 1,
        "hand": "right"
      },
      {
        "midi": 74,
        "time": 88.333,
        "duration": 0.417,
        "velocity": 1,
        "hand": "right"
      },
      {
        "midi": 72,
        "time": 88.75,
        "duration": 0.417,
        "velocity": 1,
        "hand": "right"
      },
      {
        "midi": 71,
        "time": 89.167,
        "duration": 0.417,
        "velocity": 1,
        "hand": "right"
      },
      {
        "midi": 76,
        "time": 90.417,
        "duration": 0.417,
        "velocity": 1,
        "hand": "right"
      },
      {
        "midi": 72,
        "time": 91.25,
        "duration": 0.417,
        "velocity": 1,
        "hand": "right"
      },
      {
        "midi": 71,
        "time": 91.667,
        "duration": 0.417,
        "velocity": 1,
        "hand": "right"
      },
      {
        "midi": 77,
        "time": 92.5,
        "duration": 0.833,
        "velocity": 1,
        "hand": "right"
      },
      {
        "midi": 61,
        "time": 92.917,
        "duration": 0.417,
        "velocity": 1,
        "hand": "right"
      },
      {
        "midi": 67,
        "time": 93.958,
        "duration": 0.417,
        "velocity": 1,
        "hand": "right"
      },
      {
        "midi": 60,
        "time": 94.583,
        "duration": 0.417,
        "velocity": 1,
        "hand": "right"
      },
      {
        "midi": 68,
        "time": 95,
        "duration": 0.833,
        "velocity": 1,
        "hand": "right"
      },
      {
        "midi": 65,
        "time": 95.625,
        "duration": 0.417,
        "velocity": 1,
        "hand": "right"
      },
      {
        "midi": 68,
        "time": 96.25,
        "duration": 0.417,
        "velocity": 1,
        "hand": "right"
      },
      {
        "midi": 72,
        "time": 96.667,
        "duration": 0.417,
        "velocity": 1,
        "hand": "right"
      },
      {
        "midi": 77,
        "time": 97.5,
        "duration": 0.833,
        "velocity": 1,
        "hand": "right"
      },
      {
        "midi": 61,
        "time": 97.917,
        "duration": 0.417,
        "velocity": 1,
        "hand": "right"
      },
      {
        "midi": 67,
        "time": 98.958,
        "duration": 0.417,
        "velocity": 1,
        "hand": "right"
      },
      {
        "midi": 60,
        "time": 99.583,
        "duration": 0.417,
        "velocity": 1,
        "hand": "right"
      },
      {
        "midi": 80,
        "time": 100,
        "duration": 0.833,
        "velocity": 1,
        "hand": "right"
      },
      {
        "midi": 65,
        "time": 100.417,
        "duration": 0.417,
        "velocity": 1,
        "hand": "right"
      },
      {
        "midi": 62,
        "time": 101.25,
        "duration": 0.417,
        "velocity": 1,
        "hand": "right"
      },
      {
        "midi": 79,
        "time": 101.667,
        "duration": 0.833,
        "velocity": 1,
        "hand": "right"
      },
      {
        "midi": 72,
        "time": 102.292,
        "duration": 0.417,
        "velocity": 1,
        "hand": "right"
      },
      {
        "midi": 61,
        "time": 102.917,
        "duration": 0.417,
        "velocity": 1,
        "hand": "right"
      },
      {
        "midi": 71,
        "time": 103.75,
        "duration": 0.417,
        "velocity": 1,
        "hand": "right"
      },
      {
        "midi": 76,
        "time": 104.167,
        "duration": 0.417,
        "velocity": 1,
        "hand": "right"
      },
      {
        "midi": 71,
        "time": 105,
        "duration": 0.833,
        "velocity": 1,
        "hand": "right"
      },
      {
        "midi": 61,
        "time": 105.417,
        "duration": 0.417,
        "velocity": 1,
        "hand": "right"
      },
      {
        "midi": 71,
        "time": 106.25,
        "duration": 0.417,
        "velocity": 1,
        "hand": "right"
      },
      {
        "midi": 79,
        "time": 106.667,
        "duration": 0.417,
        "velocity": 1,
        "hand": "right"
      },
      {
        "midi": 71,
        "time": 107.5,
        "duration": 0.833,
        "velocity": 1,
        "hand": "right"
      },
      {
        "midi": 61,
        "time": 107.917,
        "duration": 0.417,
        "velocity": 1,
        "hand": "right"
      },
      {
        "midi": 71,
        "time": 108.75,
        "duration": 0.417,
        "velocity": 1,
        "hand": "right"
      },
      {
        "midi": 76,
        "time": 109.167,
        "duration": 0.417,
        "velocity": 1,
        "hand": "right"
      },
      {
        "midi": 71,
        "time": 110,
        "duration": 0.833,
        "velocity": 1,
        "hand": "right"
      },
      {
        "midi": 61,
        "time": 110.417,
        "duration": 0.417,
        "velocity": 1,
        "hand": "right"
      },
      {
        "midi": 71,
        "time": 111.25,
        "duration": 0.417,
        "velocity": 1,
        "hand": "right"
      },
      {
        "midi": 80,
        "time": 111.667,
        "duration": 0.417,
        "velocity": 1,
        "hand": "right"
      },
      {
        "midi": 77,
        "time": 112.292,
        "duration": 0.417,
        "velocity": 1,
        "hand": "right"
      },
      {
        "midi": 64,
        "time": 112.917,
        "duration": 0.417,
        "velocity": 1,
        "hand": "right"
      },
      {
        "midi": 76,
        "time": 113.542,
        "duration": 0.417,
        "velocity": 1,
        "hand": "right"
      },
      {
        "midi": 84,
        "time": 114.167,
        "duration": 0.417,
        "velocity": 1,
        "hand": "right"
      },
      {
        "midi": 76,
        "time": 115,
        "duration": 0.833,
        "velocity": 1,
        "hand": "right"
      },
      {
        "midi": 74,
        "time": 115.833,
        "duration": 0.417,
        "velocity": 1,
        "hand": "right"
      },
      {
        "midi": 72,
        "time": 116.25,
        "duration": 0.417,
        "velocity": 1,
        "hand": "right"
      },
      {
        "midi": 71,
        "time": 116.667,
        "duration": 0.417,
        "velocity": 1,
        "hand": "right"
      },
      {
        "midi": 64,
        "time": 118.125,
        "duration": 0.417,
        "velocity": 1,
        "hand": "right"
      },
      {
        "midi": 67,
        "time": 118.542,
        "duration": 0.417,
        "velocity": 1,
        "hand": "right"
      },
      {
        "midi": 78,
        "time": 119.167,
        "duration": 0.417,
        "velocity": 1,
        "hand": "right"
      },
      {
        "midi": 76,
        "time": 120,
        "duration": 0.833,
        "velocity": 1,
        "hand": "right"
      },
      {
        "midi": 74,
        "time": 120.833,
        "duration": 0.417,
        "velocity": 1,
        "hand": "right"
      },
      {
        "midi": 72,
        "time": 121.25,
        "duration": 0.417,
        "velocity": 1,
        "hand": "right"
      },
      {
        "midi": 71,
        "time": 121.667,
        "duration": 0.417,
        "velocity": 1,
        "hand": "right"
      },
      {
        "midi": 64,
        "time": 123.125,
        "duration": 0.417,
        "velocity": 1,
        "hand": "right"
      },
      {
        "midi": 67,
        "time": 123.542,
        "duration": 0.417,
        "velocity": 1,
        "hand": "right"
      },
      {
        "midi": 76,
        "time": 125,
        "duration": 0.833,
        "velocity": 1,
        "hand": "right"
      },
      {
        "midi": 74,
        "time": 125.833,
        "duration": 0.417,
        "velocity": 1,
        "hand": "right"
      },
      {
        "midi": 72,
        "time": 126.25,
        "duration": 0.417,
        "velocity": 1,
        "hand": "right"
      },
      {
        "midi": 71,
        "time": 126.667,
        "duration": 0.417,
        "velocity": 1,
        "hand": "right"
      },
      {
        "midi": 76,
        "time": 127.917,
        "duration": 0.417,
        "velocity": 1,
        "hand": "right"
      },
      {
        "midi": 68,
        "time": 128.75,
        "duration": 0.417,
        "velocity": 1,
        "hand": "right"
      },
      {
        "midi": 69,
        "time": 129.167,
        "duration": 0.417,
        "velocity": 1,
        "hand": "right"
      },
      {
        "midi": 78,
        "time": 130,
        "duration": 0.833,
        "velocity": 1,
        "hand": "right"
      },
      {
        "midi": 63,
        "time": 130.417,
        "duration": 0.417,
        "velocity": 1,
        "hand": "right"
      },
      {
        "midi": 67,
        "time": 131.458,
        "duration": 0.417,
        "velocity": 1,
        "hand": "right"
      },
      {
        "midi": 66,
        "time": 132.292,
        "duration": 0.417,
        "velocity": 1,
        "hand": "right"
      },
      {
        "midi": 65,
        "time": 133.125,
        "duration": 0.417,
        "velocity": 1,
        "hand": "right"
      },
      {
        "midi": 71,
        "time": 133.75,
        "duration": 0.417,
        "velocity": 1,
        "hand": "right"
      },
      {
        "midi": 75,
        "time": 134.167,
        "duration": 0.417,
        "velocity": 1,
        "hand": "right"
      },
      {
        "midi": 78,
        "time": 135,
        "duration": 0.833,
        "velocity": 1,
        "hand": "right"
      },
      {
        "midi": 63,
        "time": 135.417,
        "duration": 0.417,
        "velocity": 1,
        "hand": "right"
      },
      {
        "midi": 67,
        "time": 136.458,
        "duration": 0.417,
        "velocity": 1,
        "hand": "right"
      },
      {
        "midi": 66,
        "time": 137.292,
        "duration": 0.417,
        "velocity": 1,
        "hand": "right"
      },
      {
        "midi": 65,
        "time": 138.125,
        "duration": 0.417,
        "velocity": 1,
        "hand": "right"
      },
      {
        "midi": 71,
        "time": 138.75,
        "duration": 0.417,
        "velocity": 1,
        "hand": "right"
      },
      {
        "midi": 75,
        "time": 139.167,
        "duration": 0.417,
        "velocity": 1,
        "hand": "right"
      },
      {
        "midi": 78,
        "time": 140,
        "duration": 0.833,
        "velocity": 1,
        "hand": "right"
      },
      {
        "midi": 63,
        "time": 140.417,
        "duration": 0.417,
        "velocity": 1,
        "hand": "right"
      },
      {
        "midi": 67,
        "time": 141.458,
        "duration": 0.417,
        "velocity": 1,
        "hand": "right"
      },
      {
        "midi": 66,
        "time": 142.292,
        "duration": 0.417,
        "velocity": 1,
        "hand": "right"
      },
      {
        "midi": 62,
        "time": 143.125,
        "duration": 0.417,
        "velocity": 1,
        "hand": "right"
      },
      {
        "midi": 63,
        "time": 143.958,
        "duration": 0.417,
        "velocity": 1,
        "hand": "right"
      },
      {
        "midi": 61,
        "time": 146.875,
        "duration": 0.417,
        "velocity": 1,
        "hand": "right"
      },
      {
        "midi": 62,
        "time": 147.292,
        "duration": 0.625,
        "velocity": 1,
        "hand": "right"
      },
      {
        "midi": 63,
        "time": 147.917,
        "duration": 0.833,
        "velocity": 1,
        "hand": "right"
      },
      {
        "midi": 64,
        "time": 148.75,
        "duration": 0.417,
        "velocity": 1,
        "hand": "right"
      },
      {
        "midi": 65,
        "time": 149.167,
        "duration": 0.417,
        "velocity": 1,
        "hand": "right"
      },
      {
        "midi": 66,
        "time": 152.5,
        "duration": 0.417,
        "velocity": 1,
        "hand": "right"
      },
      {
        "midi": 68,
        "time": 152.917,
        "duration": 0.417,
        "velocity": 1,
        "hand": "right"
      },
      {
        "midi": 71,
        "time": 153.75,
        "duration": 0.417,
        "velocity": 1,
        "hand": "right"
      },
      {
        "midi": 64,
        "time": 154.167,
        "duration": 1.667,
        "velocity": 1,
        "hand": "right"
      },
      {
        "midi": 71,
        "time": 155,
        "duration": 0.417,
        "velocity": 1,
        "hand": "right"
      },
      {
        "midi": 73,
        "time": 155.417,
        "duration": 0.417,
        "velocity": 1,
        "hand": "right"
      },
      {
        "midi": 73,
        "time": 156.667,
        "duration": 0.833,
        "velocity": 1,
        "hand": "right"
      },
      {
        "midi": 73,
        "time": 157.5,
        "duration": 0.417,
        "velocity": 1,
        "hand": "right"
      },
      {
        "midi": 74,
        "time": 157.917,
        "duration": 0.417,
        "velocity": 1,
        "hand": "right"
      },
      {
        "midi": 73,
        "time": 158.75,
        "duration": 0.417,
        "velocity": 1,
        "hand": "right"
      },
      {
        "midi": 74,
        "time": 159.167,
        "duration": 0.833,
        "velocity": 1,
        "hand": "right"
      },
      {
        "midi": 66,
        "time": 160,
        "duration": 0.417,
        "velocity": 1,
        "hand": "right"
      },
      {
        "midi": 68,
        "time": 160.417,
        "duration": 0.417,
        "velocity": 1,
        "hand": "right"
      },
      {
        "midi": 70,
        "time": 161.25,
        "duration": 0.833,
        "velocity": 1,
        "hand": "right"
      },
      {
        "midi": 62,
        "time": 161.667,
        "duration": 0.833,
        "velocity": 1,
        "hand": "right"
      },
      {
        "midi": 66,
        "time": 162.5,
        "duration": 0.417,
        "velocity": 1,
        "hand": "right"
      },
      {
        "midi": 68,
        "time": 162.917,
        "duration": 0.417,
        "velocity": 1,
        "hand": "right"
      },
      {
        "midi": 71,
        "time": 163.75,
        "duration": 0.417,
        "velocity": 1,
        "hand": "right"
      },
      {
        "midi": 64,
        "time": 164.167,
        "duration": 1.667,
        "velocity": 1,
        "hand": "right"
      },
      {
        "midi": 71,
        "time": 165,
        "duration": 0.417,
        "velocity": 1,
        "hand": "right"
      },
      {
        "midi": 73,
        "time": 165.417,
        "duration": 0.417,
        "velocity": 1,
        "hand": "right"
      },
      {
        "midi": 73,
        "time": 166.667,
        "duration": 0.833,
        "velocity": 1,
        "hand": "right"
      },
      {
        "midi": 73,
        "time": 167.5,
        "duration": 0.417,
        "velocity": 1,
        "hand": "right"
      },
      {
        "midi": 75,
        "time": 167.917,
        "duration": 0.417,
        "velocity": 1,
        "hand": "right"
      },
      {
        "midi": 73,
        "time": 168.75,
        "duration": 0.417,
        "velocity": 1,
        "hand": "right"
      },
      {
        "midi": 71,
        "time": 169.167,
        "duration": 0.833,
        "velocity": 1,
        "hand": "right"
      },
      {
        "midi": 73,
        "time": 170,
        "duration": 0.417,
        "velocity": 1,
        "hand": "right"
      },
      {
        "midi": 75,
        "time": 170.417,
        "duration": 0.417,
        "velocity": 1,
        "hand": "right"
      },
      {
        "midi": 73,
        "time": 171.25,
        "duration": 0.417,
        "velocity": 1,
        "hand": "right"
      },
      {
        "midi": 71,
        "time": 171.667,
        "duration": 0.833,
        "velocity": 1,
        "hand": "right"
      },
      {
        "midi": 73,
        "time": 172.5,
        "duration": 0.417,
        "velocity": 1,
        "hand": "right"
      },
      {
        "midi": 75,
        "time": 172.917,
        "duration": 0.417,
        "velocity": 1,
        "hand": "right"
      },
      {
        "midi": 76,
        "time": 173.75,
        "duration": 0.417,
        "velocity": 1,
        "hand": "right"
      },
      {
        "midi": 75,
        "time": 174.167,
        "duration": 0.417,
        "velocity": 1,
        "hand": "right"
      },
      {
        "midi": 73,
        "time": 175,
        "duration": 0.833,
        "velocity": 1,
        "hand": "right"
      },
      {
        "midi": 66,
        "time": 175.833,
        "duration": 0.833,
        "velocity": 1,
        "hand": "right"
      },
      {
        "midi": 64,
        "time": 176.667,
        "duration": 0.833,
        "velocity": 1,
        "hand": "right"
      },
      {
        "midi": 74,
        "time": 177.5,
        "duration": 0.417,
        "velocity": 1,
        "hand": "right"
      },
      {
        "midi": 73,
        "time": 177.917,
        "duration": 0.417,
        "velocity": 1,
        "hand": "right"
      },
      {
        "midi": 69,
        "time": 178.75,
        "duration": 0.417,
        "velocity": 1,
        "hand": "right"
      },
      {
        "midi": 68,
        "time": 179.167,
        "duration": 0.833,
        "velocity": 1,
        "hand": "right"
      },
      {
        "midi": 66,
        "time": 180,
        "duration": 0.417,
        "velocity": 1,
        "hand": "right"
      },
      {
        "midi": 68,
        "time": 180.417,
        "duration": 0.417,
        "velocity": 1,
        "hand": "right"
      },
      {
        "midi": 68,
        "time": 181.25,
        "duration": 0.417,
        "velocity": 1,
        "hand": "right"
      },
      {
        "midi": 64,
        "time": 181.667,
        "duration": 0.833,
        "velocity": 1,
        "hand": "right"
      },
      {
        "midi": 74,
        "time": 182.5,
        "duration": 0.417,
        "velocity": 1,
        "hand": "right"
      },
      {
        "midi": 73,
        "time": 182.917,
        "duration": 0.417,
        "velocity": 1,
        "hand": "right"
      },
      {
        "midi": 69,
        "time": 183.75,
        "duration": 0.417,
        "velocity": 1,
        "hand": "right"
      },
      {
        "midi": 68,
        "time": 184.167,
        "duration": 0.833,
        "velocity": 1,
        "hand": "right"
      },
      {
        "midi": 66,
        "time": 185,
        "duration": 0.417,
        "velocity": 1,
        "hand": "right"
      },
      {
        "midi": 68,
        "time": 185.417,
        "duration": 0.417,
        "velocity": 1,
        "hand": "right"
      },
      {
        "midi": 68,
        "time": 186.25,
        "duration": 0.417,
        "velocity": 1,
        "hand": "right"
      },
      {
        "midi": 64,
        "time": 186.667,
        "duration": 0.833,
        "velocity": 1,
        "hand": "right"
      },
      {
        "midi": 70,
        "time": 187.5,
        "duration": 0.417,
        "velocity": 1,
        "hand": "right"
      },
      {
        "midi": 72,
        "time": 187.917,
        "duration": 0.417,
        "velocity": 1,
        "hand": "right"
      },
      {
        "midi": 72,
        "time": 188.75,
        "duration": 0.417,
        "velocity": 1,
        "hand": "right"
      },
      {
        "midi": 68,
        "time": 189.167,
        "duration": 0.833,
        "velocity": 1,
        "hand": "right"
      },
      {
        "midi": 74,
        "time": 190,
        "duration": 0.417,
        "velocity": 1,
        "hand": "right"
      },
      {
        "midi": 76,
        "time": 190.417,
        "duration": 0.417,
        "velocity": 1,
        "hand": "right"
      },
      {
        "midi": 76,
        "time": 191.25,
        "duration": 0.417,
        "velocity": 1,
        "hand": "right"
      },
      {
        "midi": 72,
        "time": 191.667,
        "duration": 0.833,
        "velocity": 1,
        "hand": "right"
      },
      {
        "midi": 74,
        "time": 192.5,
        "duration": 0.417,
        "velocity": 1,
        "hand": "right"
      },
      {
        "midi": 76,
        "time": 192.917,
        "duration": 0.417,
        "velocity": 1,
        "hand": "right"
      },
      {
        "midi": 77,
        "time": 193.542,
        "duration": 0.417,
        "velocity": 1,
        "hand": "right"
      },
      {
        "midi": 72,
        "time": 194.167,
        "duration": 0.833,
        "velocity": 1,
        "hand": "right"
      },
      {
        "midi": 74,
        "time": 195,
        "duration": 0.417,
        "velocity": 1,
        "hand": "right"
      },
      {
        "midi": 76,
        "time": 195.417,
        "duration": 0.417,
        "velocity": 1,
        "hand": "right"
      },
      {
        "midi": 77,
        "time": 196.042,
        "duration": 0.417,
        "velocity": 1,
        "hand": "right"
      },
      {
        "midi": 72,
        "time": 196.667,
        "duration": 0.833,
        "velocity": 1,
        "hand": "right"
      },
      {
        "midi": 74,
        "time": 197.5,
        "duration": 0.417,
        "velocity": 1,
        "hand": "right"
      },
      {
        "midi": 76,
        "time": 197.917,
        "duration": 0.417,
        "velocity": 1,
        "hand": "right"
      },
      {
        "midi": 78,
        "time": 198.75,
        "duration": 0.417,
        "velocity": 1,
        "hand": "right"
      },
      {
        "midi": 77,
        "time": 199.167,
        "duration": 0.417,
        "velocity": 1,
        "hand": "right"
      },
      {
        "midi": 76,
        "time": 200,
        "duration": 0.417,
        "velocity": 1,
        "hand": "right"
      },
      {
        "midi": 75,
        "time": 200.417,
        "duration": 0.417,
        "velocity": 1,
        "hand": "right"
      },
      {
        "midi": 73,
        "time": 201.042,
        "duration": 0.417,
        "velocity": 1,
        "hand": "right"
      },
      {
        "midi": 76,
        "time": 201.667,
        "duration": 0.417,
        "velocity": 1,
        "hand": "right"
      },
      {
        "midi": 70,
        "time": 202.5,
        "duration": 0.417,
        "velocity": 1,
        "hand": "right"
      },
      {
        "midi": 71,
        "time": 202.917,
        "duration": 0.417,
        "velocity": 1,
        "hand": "right"
      },
      {
        "midi": 73,
        "time": 203.542,
        "duration": 0.417,
        "velocity": 1,
        "hand": "right"
      },
      {
        "midi": 66,
        "time": 204.167,
        "duration": 0.833,
        "velocity": 1,
        "hand": "right"
      },
      {
        "midi": 66,
        "time": 205,
        "duration": 0.417,
        "velocity": 1,
        "hand": "right"
      },
      {
        "midi": 68,
        "time": 205.417,
        "duration": 0.417,
        "velocity": 1,
        "hand": "right"
      },
      {
        "midi": 71,
        "time": 206.25,
        "duration": 0.417,
        "velocity": 1,
        "hand": "right"
      },
      {
        "midi": 64,
        "time": 206.667,
        "duration": 1.667,
        "velocity": 1,
        "hand": "right"
      },
      {
        "midi": 71,
        "time": 207.5,
        "duration": 0.417,
        "velocity": 1,
        "hand": "right"
      },
      {
        "midi": 73,
        "time": 207.917,
        "duration": 0.417,
        "velocity": 1,
        "hand": "right"
      },
      {
        "midi": 73,
        "time": 209.167,
        "duration": 0.833,
        "velocity": 1,
        "hand": "right"
      },
      {
        "midi": 73,
        "time": 210,
        "duration": 0.417,
        "velocity": 1,
        "hand": "right"
      },
      {
        "midi": 74,
        "time": 210.417,
        "duration": 0.417,
        "velocity": 1,
        "hand": "right"
      },
      {
        "midi": 73,
        "time": 211.25,
        "duration": 0.417,
        "velocity": 1,
        "hand": "right"
      },
      {
        "midi": 74,
        "time": 211.667,
        "duration": 0.833,
        "velocity": 1,
        "hand": "right"
      },
      {
        "midi": 66,
        "time": 212.5,
        "duration": 0.417,
        "velocity": 1,
        "hand": "right"
      },
      {
        "midi": 68,
        "time": 212.917,
        "duration": 0.417,
        "velocity": 1,
        "hand": "right"
      },
      {
        "midi": 70,
        "time": 213.75,
        "duration": 0.833,
        "velocity": 1,
        "hand": "right"
      },
      {
        "midi": 62,
        "time": 214.167,
        "duration": 0.833,
        "velocity": 1,
        "hand": "right"
      },
      {
        "midi": 66,
        "time": 215,
        "duration": 0.417,
        "velocity": 1,
        "hand": "right"
      },
      {
        "midi": 68,
        "time": 215.417,
        "duration": 0.417,
        "velocity": 1,
        "hand": "right"
      },
      {
        "midi": 71,
        "time": 216.25,
        "duration": 0.417,
        "velocity": 1,
        "hand": "right"
      },
      {
        "midi": 64,
        "time": 216.667,
        "duration": 1.667,
        "velocity": 1,
        "hand": "right"
      },
      {
        "midi": 71,
        "time": 217.5,
        "duration": 0.417,
        "velocity": 1,
        "hand": "right"
      },
      {
        "midi": 73,
        "time": 217.917,
        "duration": 0.417,
        "velocity": 1,
        "hand": "right"
      },
      {
        "midi": 73,
        "time": 219.167,
        "duration": 0.833,
        "velocity": 1,
        "hand": "right"
      },
      {
        "midi": 73,
        "time": 220,
        "duration": 0.417,
        "velocity": 1,
        "hand": "right"
      },
      {
        "midi": 74,
        "time": 220.417,
        "duration": 0.417,
        "velocity": 1,
        "hand": "right"
      },
      {
        "midi": 74,
        "time": 221.667,
        "duration": 0.833,
        "velocity": 1,
        "hand": "right"
      },
      {
        "midi": 74,
        "time": 222.5,
        "duration": 0.417,
        "velocity": 1,
        "hand": "right"
      },
      {
        "midi": 76,
        "time": 222.917,
        "duration": 0.417,
        "velocity": 1,
        "hand": "right"
      },
      {
        "midi": 76,
        "time": 224.167,
        "duration": 0.833,
        "velocity": 1,
        "hand": "right"
      },
      {
        "midi": 76,
        "time": 225,
        "duration": 0.417,
        "velocity": 1,
        "hand": "right"
      },
      {
        "midi": 78,
        "time": 225.417,
        "duration": 0.417,
        "velocity": 1,
        "hand": "right"
      },
      {
        "midi": 80,
        "time": 226.25,
        "duration": 0.417,
        "velocity": 1,
        "hand": "right"
      },
      {
        "midi": 78,
        "time": 226.667,
        "duration": 0.417,
        "velocity": 1,
        "hand": "right"
      },
      {
        "midi": 74,
        "time": 227.5,
        "duration": 0.417,
        "velocity": 1,
        "hand": "right"
      },
      {
        "midi": 69,
        "time": 227.917,
        "duration": 0.833,
        "velocity": 1,
        "hand": "right"
      },
      {
        "midi": 81,
        "time": 228.75,
        "duration": 0.833,
        "velocity": 1,
        "hand": "right"
      },
      {
        "midi": 75,
        "time": 229.583,
        "duration": 0.417,
        "velocity": 1,
        "hand": "right"
      },
      {
        "midi": 76,
        "time": 230,
        "duration": 0.417,
        "velocity": 1,
        "hand": "right"
      },
      {
        "midi": 66,
        "time": 230.417,
        "duration": 0.417,
        "velocity": 1,
        "hand": "right"
      },
      {
        "midi": 64,
        "time": 231.25,
        "duration": 1.667,
        "velocity": 1,
        "hand": "right"
      },
      {
        "midi": 61,
        "time": 232.5,
        "duration": 0.417,
        "velocity": 1,
        "hand": "right"
      },
      {
        "midi": 66,
        "time": 232.917,
        "duration": 0.417,
        "velocity": 1,
        "hand": "right"
      },
      {
        "midi": 64,
        "time": 233.75,
        "duration": 1.667,
        "velocity": 1,
        "hand": "right"
      },
      {
        "midi": 61,
        "time": 235,
        "duration": 0.417,
        "velocity": 1,
        "hand": "right"
      },
      {
        "midi": 66,
        "time": 235.417,
        "duration": 0.417,
        "velocity": 1,
        "hand": "right"
      },
      {
        "midi": 61,
        "time": 236.25,
        "duration": 0.417,
        "velocity": 1,
        "hand": "right"
      },
      {
        "midi": 61,
        "time": 237.917,
        "duration": 0.417,
        "velocity": 1,
        "hand": "right"
      },
      {
        "midi": 60,
        "time": 241.25,
        "duration": 0.417,
        "velocity": 1,
        "hand": "right"
      },
      {
        "midi": 69,
        "time": 241.667,
        "duration": 1.667,
        "velocity": 1,
        "hand": "right"
      },
      {
        "midi": 67,
        "time": 243.333,
        "duration": 0.417,
        "velocity": 1,
        "hand": "right"
      },
      {
        "midi": 65,
        "time": 243.75,
        "duration": 0.417,
        "velocity": 1,
        "hand": "right"
      },
      {
        "midi": 64,
        "time": 244.167,
        "duration": 0.417,
        "velocity": 1,
        "hand": "right"
      },
      {
        "midi": 63,
        "time": 245.417,
        "duration": 0.417,
        "velocity": 1,
        "hand": "right"
      },
      {
        "midi": 69,
        "time": 246.042,
        "duration": 0.417,
        "velocity": 1,
        "hand": "right"
      },
      {
        "midi": 81,
        "time": 246.667,
        "duration": 1.667,
        "velocity": 1,
        "hand": "right"
      },
      {
        "midi": 72,
        "time": 247.5,
        "duration": 2.5,
        "velocity": 1,
        "hand": "right"
      },
      {
        "midi": 79,
        "time": 248.333,
        "duration": 0.417,
        "velocity": 1,
        "hand": "right"
      },
      {
        "midi": 77,
        "time": 248.75,
        "duration": 0.417,
        "velocity": 1,
        "hand": "right"
      },
      {
        "midi": 76,
        "time": 249.167,
        "duration": 0.417,
        "velocity": 1,
        "hand": "right"
      },
      {
        "midi": 64,
        "time": 250.208,
        "duration": 0.417,
        "velocity": 1,
        "hand": "right"
      },
      {
        "midi": 75,
        "time": 250.625,
        "duration": 0.417,
        "velocity": 1,
        "hand": "right"
      },
      {
        "midi": 76,
        "time": 251.042,
        "duration": 0.417,
        "velocity": 1,
        "hand": "right"
      },
      {
        "midi": 92,
        "time": 251.667,
        "duration": 0.417,
        "velocity": 1,
        "hand": "right"
      },
      {
        "midi": 93,
        "time": 252.5,
        "duration": 0.833,
        "velocity": 1,
        "hand": "right"
      },
      {
        "midi": 93,
        "time": 253.333,
        "duration": 0.833,
        "velocity": 1,
        "hand": "right"
      },
      {
        "midi": 93,
        "time": 254.167,
        "duration": 0.833,
        "velocity": 1,
        "hand": "right"
      },
      {
        "midi": 93,
        "time": 255,
        "duration": 2.5,
        "velocity": 1,
        "hand": "right"
      }
    ],
    "medium": [
      {
        "midi": 66,
        "time": 0,
        "duration": 0.417,
        "velocity": 1,
        "hand": "right"
      },
      {
        "midi": 68,
        "time": 0.417,
        "duration": 0.208,
        "velocity": 1,
        "hand": "right"
      },
      {
        "midi": 69,
        "time": 0.625,
        "duration": 0.208,
        "velocity": 1,
        "hand": "right"
      },
      {
        "midi": 50,
        "time": 0.833,
        "duration": 0.833,
        "velocity": 1,
        "hand": "left"
      },
      {
        "midi": 59,
        "time": 0.833,
        "duration": 0.833,
        "velocity": 1,
        "hand": "left"
      },
      {
        "midi": 68,
        "time": 0.833,
        "duration": 0.417,
        "velocity": 1,
        "hand": "right"
      },
      {
        "midi": 71,
        "time": 1.25,
        "duration": 0.417,
        "velocity": 1,
        "hand": "right"
      },
      {
        "midi": 49,
        "time": 1.667,
        "duration": 0.833,
        "velocity": 1,
        "hand": "left"
      },
      {
        "midi": 64,
        "time": 1.667,
        "duration": 1.667,
        "velocity": 1,
        "hand": "right"
      },
      {
        "midi": 69,
        "time": 2.083,
        "duration": 0.417,
        "velocity": 1,
        "hand": "right"
      },
      {
        "midi": 47,
        "time": 2.5,
        "duration": 0.417,
        "velocity": 1,
        "hand": "left"
      },
      {
        "midi": 68,
        "time": 2.5,
        "duration": 0.417,
        "velocity": 1,
        "hand": "right"
      },
      {
        "midi": 71,
        "time": 2.5,
        "duration": 0.417,
        "velocity": 1,
        "hand": "right"
      },
      {
        "midi": 45,
        "time": 2.917,
        "duration": 0.417,
        "velocity": 1,
        "hand": "left"
      },
      {
        "midi": 69,
        "time": 2.917,
        "duration": 0.417,
        "velocity": 1,
        "hand": "right"
      },
      {
        "midi": 73,
        "time": 2.917,
        "duration": 0.417,
        "velocity": 1,
        "hand": "right"
      },
      {
        "midi": 44,
        "time": 3.333,
        "duration": 0.833,
        "velocity": 1,
        "hand": "left"
      },
      {
        "midi": 64,
        "time": 3.333,
        "duration": 1.667,
        "velocity": 1,
        "hand": "right"
      },
      {
        "midi": 76,
        "time": 3.333,
        "duration": 0.833,
        "velocity": 1,
        "hand": "right"
      },
      {
        "midi": 45,
        "time": 4.167,
        "duration": 0.833,
        "velocity": 1,
        "hand": "left"
      },
      {
        "midi": 69,
        "time": 4.167,
        "duration": 0.833,
        "velocity": 1,
        "hand": "right"
      },
      {
        "midi": 73,
        "time": 4.167,
        "duration": 0.833,
        "velocity": 1,
        "hand": "right"
      },
      {
        "midi": 73,
        "time": 5,
        "duration": 0.417,
        "velocity": 1,
        "hand": "right"
      },
      {
        "midi": 74,
        "time": 5.417,
        "duration": 0.208,
        "velocity": 1,
        "hand": "right"
      },
      {
        "midi": 76,
        "time": 5.625,
        "duration": 0.208,
        "velocity": 1,
        "hand": "right"
      },
      {
        "midi": 46,
        "time": 5.833,
        "duration": 0.833,
        "velocity": 1,
        "hand": "left"
      },
      {
        "midi": 66,
        "time": 5.833,
        "duration": 0.833,
        "velocity": 1,
        "hand": "right"
      },
      {
        "midi": 78,
        "time": 5.833,
        "duration": 0.417,
        "velocity": 1,
        "hand": "right"
      },
      {
        "midi": 73,
        "time": 6.25,
        "duration": 0.417,
        "velocity": 1,
        "hand": "right"
      },
      {
        "midi": 47,
        "time": 6.667,
        "duration": 0.833,
        "velocity": 1,
        "hand": "left"
      },
      {
        "midi": 66,
        "time": 6.667,
        "duration": 0.833,
        "velocity": 1,
        "hand": "right"
      },
      {
        "midi": 74,
        "time": 6.667,
        "duration": 0.833,
        "velocity": 1,
        "hand": "right"
      },
      {
        "midi": 66,
        "time": 7.5,
        "duration": 0.417,
        "velocity": 1,
        "hand": "right"
      },
      {
        "midi": 68,
        "time": 7.917,
        "duration": 0.208,
        "velocity": 1,
        "hand": "right"
      },
      {
        "midi": 69,
        "time": 8.125,
        "duration": 0.208,
        "velocity": 1,
        "hand": "right"
      },
      {
        "midi": 47,
        "time": 8.333,
        "duration": 0.833,
        "velocity": 1,
        "hand": "left"
      },
      {
        "midi": 63,
        "time": 8.333,
        "duration": 0.833,
        "velocity": 1,
        "hand": "right"
      },
      {
        "midi": 73,
        "time": 8.333,
        "duration": 0.417,
        "velocity": 1,
        "hand": "right"
      },
      {
        "midi": 70,
        "time": 8.75,
        "duration": 0.833,
        "velocity": 1,
        "hand": "right"
      },
      {
        "midi": 52,
        "time": 9.167,
        "duration": 0.833,
        "velocity": 1,
        "hand": "left"
      },
      {
        "midi": 56,
        "time": 9.167,
        "duration": 0.833,
        "velocity": 1,
        "hand": "left"
      },
      {
        "midi": 62,
        "time": 9.167,
        "duration": 0.833,
        "velocity": 1,
        "hand": "right"
      },
      {
        "midi": 71,
        "time": 9.583,
        "duration": 0.417,
        "velocity": 1,
        "hand": "right"
      },
      {
        "midi": 66,
        "time": 10,
        "duration": 0.417,
        "velocity": 1,
        "hand": "right"
      },
      {
        "midi": 68,
        "time": 10.417,
        "duration": 0.208,
        "velocity": 1,
        "hand": "right"
      },
      {
        "midi": 69,
        "time": 10.625,
        "duration": 0.208,
        "velocity": 1,
        "hand": "right"
      },
      {
        "midi": 50,
        "time": 10.833,
        "duration": 0.833,
        "velocity": 1,
        "hand": "left"
      },
      {
        "midi": 59,
        "time": 10.833,
        "duration": 0.833,
        "velocity": 1,
        "hand": "left"
      },
      {
        "midi": 68,
        "time": 10.833,
        "duration": 0.417,
        "velocity": 1,
        "hand": "right"
      },
      {
        "midi": 71,
        "time": 11.25,
        "duration": 0.417,
        "velocity": 1,
        "hand": "right"
      },
      {
        "midi": 49,
        "time": 11.667,
        "duration": 0.833,
        "velocity": 1,
        "hand": "left"
      },
      {
        "midi": 64,
        "time": 11.667,
        "duration": 1.667,
        "velocity": 1,
        "hand": "right"
      },
      {
        "midi": 69,
        "time": 12.083,
        "duration": 0.417,
        "velocity": 1,
        "hand": "right"
      },
      {
        "midi": 47,
        "time": 12.5,
        "duration": 0.417,
        "velocity": 1,
        "hand": "left"
      },
      {
        "midi": 68,
        "time": 12.5,
        "duration": 0.417,
        "velocity": 1,
        "hand": "right"
      },
      {
        "midi": 71,
        "time": 12.5,
        "duration": 0.417,
        "velocity": 1,
        "hand": "right"
      },
      {
        "midi": 45,
        "time": 12.917,
        "duration": 0.417,
        "velocity": 1,
        "hand": "left"
      },
      {
        "midi": 69,
        "time": 12.917,
        "duration": 0.417,
        "velocity": 1,
        "hand": "right"
      },
      {
        "midi": 73,
        "time": 12.917,
        "duration": 0.417,
        "velocity": 1,
        "hand": "right"
      },
      {
        "midi": 44,
        "time": 13.333,
        "duration": 0.833,
        "velocity": 1,
        "hand": "left"
      },
      {
        "midi": 64,
        "time": 13.333,
        "duration": 1.667,
        "velocity": 1,
        "hand": "right"
      },
      {
        "midi": 76,
        "time": 13.333,
        "duration": 0.833,
        "velocity": 1,
        "hand": "right"
      },
      {
        "midi": 45,
        "time": 14.167,
        "duration": 0.833,
        "velocity": 1,
        "hand": "left"
      },
      {
        "midi": 69,
        "time": 14.167,
        "duration": 0.833,
        "velocity": 1,
        "hand": "right"
      },
      {
        "midi": 73,
        "time": 14.167,
        "duration": 0.833,
        "velocity": 1,
        "hand": "right"
      },
      {
        "midi": 73,
        "time": 15,
        "duration": 0.417,
        "velocity": 1,
        "hand": "right"
      },
      {
        "midi": 75,
        "time": 15.417,
        "duration": 0.208,
        "velocity": 1,
        "hand": "right"
      },
      {
        "midi": 76,
        "time": 15.625,
        "duration": 0.208,
        "velocity": 1,
        "hand": "right"
      },
      {
        "midi": 47,
        "time": 15.833,
        "duration": 2.5,
        "velocity": 1,
        "hand": "left"
      },
      {
        "midi": 64,
        "time": 15.833,
        "duration": 0.833,
        "velocity": 1,
        "hand": "right"
      },
      {
        "midi": 68,
        "time": 15.833,
        "duration": 0.417,
        "velocity": 1,
        "hand": "right"
      },
      {
        "midi": 73,
        "time": 16.25,
        "duration": 0.417,
        "velocity": 1,
        "hand": "right"
      },
      {
        "midi": 57,
        "time": 16.667,
        "duration": 0.417,
        "velocity": 1,
        "hand": "left"
      },
      {
        "midi": 66,
        "time": 16.667,
        "duration": 0.833,
        "velocity": 1,
        "hand": "right"
      },
      {
        "midi": 71,
        "time": 16.667,
        "duration": 0.833,
        "velocity": 1,
        "hand": "right"
      },
      {
        "midi": 59,
        "time": 17.083,
        "duration": 0.417,
        "velocity": 1,
        "hand": "left"
      },
      {
        "midi": 56,
        "time": 17.5,
        "duration": 0.833,
        "velocity": 1,
        "hand": "left"
      },
      {
        "midi": 71,
        "time": 17.5,
        "duration": 0.833,
        "velocity": 1,
        "hand": "right"
      },
      {
        "midi": 73,
        "time": 17.5,
        "duration": 0.417,
        "velocity": 1,
        "hand": "right"
      },
      {
        "midi": 75,
        "time": 17.917,
        "duration": 0.208,
        "velocity": 1,
        "hand": "right"
      },
      {
        "midi": 76,
        "time": 18.125,
        "duration": 0.208,
        "velocity": 1,
        "hand": "right"
      },
      {
        "midi": 47,
        "time": 18.333,
        "duration": 2.083,
        "velocity": 1,
        "hand": "left"
      },
      {
        "midi": 64,
        "time": 18.333,
        "duration": 0.833,
        "velocity": 1,
        "hand": "right"
      },
      {
        "midi": 68,
        "time": 18.333,
        "duration": 0.417,
        "velocity": 1,
        "hand": "right"
      },
      {
        "midi": 73,
        "time": 18.75,
        "duration": 0.417,
        "velocity": 1,
        "hand": "right"
      },
      {
        "midi": 57,
        "time": 19.167,
        "duration": 0.417,
        "velocity": 1,
        "hand": "left"
      },
      {
        "midi": 66,
        "time": 19.167,
        "duration": 0.833,
        "velocity": 1,
        "hand": "right"
      },
      {
        "midi": 71,
        "time": 19.167,
        "duration": 0.833,
        "velocity": 1,
        "hand": "right"
      },
      {
        "midi": 59,
        "time": 19.583,
        "duration": 0.417,
        "velocity": 1,
        "hand": "left"
      },
      {
        "midi": 56,
        "time": 20,
        "duration": 0.417,
        "velocity": 1,
        "hand": "left"
      },
      {
        "midi": 71,
        "time": 20,
        "duration": 0.417,
        "velocity": 1,
        "hand": "right"
      },
      {
        "midi": 73,
        "time": 20,
        "duration": 0.417,
        "velocity": 1,
        "hand": "right"
      },
      {
        "midi": 75,
        "time": 20.417,
        "duration": 0.208,
        "velocity": 1,
        "hand": "right"
      },
      {
        "midi": 76,
        "time": 20.625,
        "duration": 0.208,
        "velocity": 1,
        "hand": "right"
      },
      {
        "midi": 80,
        "time": 20.833,
        "duration": 0.417,
        "velocity": 1,
        "hand": "right"
      },
      {
        "midi": 76,
        "time": 21.25,
        "duration": 0.417,
        "velocity": 1,
        "hand": "right"
      },
      {
        "midi": 75,
        "time": 21.667,
        "duration": 0.417,
        "velocity": 1,
        "hand": "right"
      },
      {
        "midi": 73,
        "time": 22.083,
        "duration": 0.417,
        "velocity": 1,
        "hand": "right"
      },
      {
        "midi": 54,
        "time": 22.5,
        "duration": 0.417,
        "velocity": 1,
        "hand": "left"
      },
      {
        "midi": 66,
        "time": 22.5,
        "duration": 0.833,
        "velocity": 1,
        "hand": "right"
      },
      {
        "midi": 73,
        "time": 22.5,
        "duration": 0.833,
        "velocity": 1,
        "hand": "right"
      },
      {
        "midi": 56,
        "time": 22.917,
        "duration": 0.208,
        "velocity": 1,
        "hand": "left"
      },
      {
        "midi": 57,
        "time": 23.125,
        "duration": 0.208,
        "velocity": 1,
        "hand": "left"
      },
      {
        "midi": 47,
        "time": 23.333,
        "duration": 0.833,
        "velocity": 1,
        "hand": "left"
      },
      {
        "midi": 63,
        "time": 23.333,
        "duration": 0.833,
        "velocity": 1,
        "hand": "right"
      },
      {
        "midi": 66,
        "time": 23.333,
        "duration": 0.833,
        "velocity": 1,
        "hand": "right"
      },
      {
        "midi": 59,
        "time": 23.75,
        "duration": 0.417,
        "velocity": 1,
        "hand": "left"
      },
      {
        "midi": 52,
        "time": 24.167,
        "duration": 0.833,
        "velocity": 1,
        "hand": "left"
      },
      {
        "midi": 59,
        "time": 24.167,
        "duration": 0.833,
        "velocity": 1,
        "hand": "left"
      },
      {
        "midi": 64,
        "time": 24.167,
        "duration": 0.833,
        "velocity": 1,
        "hand": "right"
      },
      {
        "midi": 56,
        "time": 24.583,
        "duration": 0.417,
        "velocity": 1,
        "hand": "left"
      },
      {
        "midi": 40,
        "time": 25,
        "duration": 0.417,
        "velocity": 1,
        "hand": "left"
      },
      {
        "midi": 74,
        "time": 25,
        "duration": 0.417,
        "velocity": 1,
        "hand": "right"
      },
      {
        "midi": 52,
        "time": 25.208,
        "duration": 0.208,
        "velocity": 1,
        "hand": "left"
      },
      {
        "midi": 54,
        "time": 25.417,
        "duration": 0.208,
        "velocity": 1,
        "hand": "left"
      },
      {
        "midi": 73,
        "time": 25.417,
        "duration": 0.208,
        "velocity": 1,
        "hand": "right"
      },
      {
        "midi": 56,
        "time": 25.625,
        "duration": 0.208,
        "velocity": 1,
        "hand": "left"
      },
      {
        "midi": 71,
        "time": 25.625,
        "duration": 0.208,
        "velocity": 1,
        "hand": "right"
      },
      {
        "midi": 52,
        "time": 25.833,
        "duration": 1.667,
        "velocity": 1,
        "hand": "left"
      },
      {
        "midi": 63,
        "time": 25.833,
        "duration": 0.833,
        "velocity": 1,
        "hand": "right"
      },
      {
        "midi": 66,
        "time": 25.833,
        "duration": 0.417,
        "velocity": 1,
        "hand": "right"
      },
      {
        "midi": 59,
        "time": 26.042,
        "duration": 0.208,
        "velocity": 1,
        "hand": "left"
      },
      {
        "midi": 60,
        "time": 26.25,
        "duration": 0.833,
        "velocity": 1,
        "hand": "right"
      },
      {
        "midi": 69,
        "time": 26.25,
        "duration": 0.417,
        "velocity": 1,
        "hand": "right"
      },
      {
        "midi": 64,
        "time": 26.667,
        "duration": 0.833,
        "velocity": 1,
        "hand": "right"
      },
      {
        "midi": 68,
        "time": 26.667,
        "duration": 0.833,
        "velocity": 1,
        "hand": "right"
      },
      {
        "midi": 59,
        "time": 27.083,
        "duration": 0.417,
        "velocity": 1,
        "hand": "left"
      },
      {
        "midi": 45,
        "time": 27.5,
        "duration": 0.417,
        "velocity": 1,
        "hand": "left"
      },
      {
        "midi": 61,
        "time": 27.5,
        "duration": 0.417,
        "velocity": 1,
        "hand": "right"
      },
      {
        "midi": 66,
        "time": 27.5,
        "duration": 0.417,
        "velocity": 1,
        "hand": "right"
      },
      {
        "midi": 44,
        "time": 27.917,
        "duration": 0.417,
        "velocity": 1,
        "hand": "left"
      },
      {
        "midi": 60,
        "time": 27.917,
        "duration": 0.417,
        "velocity": 1,
        "hand": "right"
      },
      {
        "midi": 68,
        "time": 27.917,
        "duration": 0.417,
        "velocity": 1,
        "hand": "right"
      },
      {
        "midi": 45,
        "time": 28.333,
        "duration": 0.417,
        "velocity": 1,
        "hand": "left"
      },
      {
        "midi": 61,
        "time": 28.333,
        "duration": 0.417,
        "velocity": 1,
        "hand": "right"
      },
      {
        "midi": 66,
        "time": 28.333,
        "duration": 0.417,
        "velocity": 1,
        "hand": "right"
      },
      {
        "midi": 44,
        "time": 28.75,
        "duration": 0.417,
        "velocity": 1,
        "hand": "left"
      },
      {
        "midi": 60,
        "time": 28.75,
        "duration": 0.417,
        "velocity": 1,
        "hand": "right"
      },
      {
        "midi": 68,
        "time": 28.75,
        "duration": 0.417,
        "velocity": 1,
        "hand": "right"
      },
      {
        "midi": 52,
        "time": 29.167,
        "duration": 0.833,
        "velocity": 1,
        "hand": "left"
      },
      {
        "midi": 59,
        "time": 29.167,
        "duration": 0.833,
        "velocity": 1,
        "hand": "left"
      },
      {
        "midi": 64,
        "time": 29.167,
        "duration": 0.833,
        "velocity": 1,
        "hand": "right"
      },
      {
        "midi": 56,
        "time": 29.583,
        "duration": 0.417,
        "velocity": 1,
        "hand": "left"
      },
      {
        "midi": 40,
        "time": 30,
        "duration": 0.417,
        "velocity": 1,
        "hand": "left"
      },
      {
        "midi": 74,
        "time": 30,
        "duration": 0.417,
        "velocity": 1,
        "hand": "right"
      },
      {
        "midi": 52,
        "time": 30.208,
        "duration": 0.208,
        "velocity": 1,
        "hand": "left"
      },
      {
        "midi": 54,
        "time": 30.417,
        "duration": 0.208,
        "velocity": 1,
        "hand": "left"
      },
      {
        "midi": 73,
        "time": 30.417,
        "duration": 0.208,
        "velocity": 1,
        "hand": "right"
      },
      {
        "midi": 56,
        "time": 30.625,
        "duration": 0.208,
        "velocity": 1,
        "hand": "left"
      },
      {
        "midi": 71,
        "time": 30.625,
        "duration": 0.208,
        "velocity": 1,
        "hand": "right"
      },
      {
        "midi": 52,
        "time": 30.833,
        "duration": 1.667,
        "velocity": 1,
        "hand": "left"
      },
      {
        "midi": 63,
        "time": 30.833,
        "duration": 0.833,
        "velocity": 1,
        "hand": "right"
      },
      {
        "midi": 66,
        "time": 30.833,
        "duration": 0.417,
        "velocity": 1,
        "hand": "right"
      },
      {
        "midi": 59,
        "time": 31.042,
        "duration": 0.208,
        "velocity": 1,
        "hand": "left"
      },
      {
        "midi": 60,
        "time": 31.25,
        "duration": 0.833,
        "velocity": 1,
        "hand": "right"
      },
      {
        "midi": 69,
        "time": 31.25,
        "duration": 0.417,
        "velocity": 1,
        "hand": "right"
      },
      {
        "midi": 64,
        "time": 31.667,
        "duration": 0.833,
        "velocity": 1,
        "hand": "right"
      },
      {
        "midi": 68,
        "time": 31.667,
        "duration": 0.833,
        "velocity": 1,
        "hand": "right"
      },
      {
        "midi": 59,
        "time": 32.083,
        "duration": 0.417,
        "velocity": 1,
        "hand": "left"
      },
      {
        "midi": 45,
        "time": 32.5,
        "duration": 0.417,
        "velocity": 1,
        "hand": "left"
      },
      {
        "midi": 61,
        "time": 32.5,
        "duration": 0.417,
        "velocity": 1,
        "hand": "right"
      },
      {
        "midi": 66,
        "time": 32.5,
        "duration": 0.417,
        "velocity": 1,
        "hand": "right"
      },
      {
        "midi": 44,
        "time": 32.917,
        "duration": 0.417,
        "velocity": 1,
        "hand": "left"
      },
      {
        "midi": 60,
        "time": 32.917,
        "duration": 0.417,
        "velocity": 1,
        "hand": "right"
      },
      {
        "midi": 68,
        "time": 32.917,
        "duration": 0.417,
        "velocity": 1,
        "hand": "right"
      },
      {
        "midi": 45,
        "time": 33.333,
        "duration": 0.417,
        "velocity": 1,
        "hand": "left"
      },
      {
        "midi": 61,
        "time": 33.333,
        "duration": 0.417,
        "velocity": 1,
        "hand": "right"
      },
      {
        "midi": 66,
        "time": 33.333,
        "duration": 0.417,
        "velocity": 1,
        "hand": "right"
      },
      {
        "midi": 44,
        "time": 33.75,
        "duration": 0.417,
        "velocity": 1,
        "hand": "left"
      },
      {
        "midi": 60,
        "time": 33.75,
        "duration": 0.417,
        "velocity": 1,
        "hand": "right"
      },
      {
        "midi": 68,
        "time": 33.75,
        "duration": 0.417,
        "velocity": 1,
        "hand": "right"
      },
      {
        "midi": 52,
        "time": 34.167,
        "duration": 0.833,
        "velocity": 1,
        "hand": "left"
      },
      {
        "midi": 59,
        "time": 34.167,
        "duration": 0.833,
        "velocity": 1,
        "hand": "left"
      },
      {
        "midi": 64,
        "time": 34.167,
        "duration": 0.833,
        "velocity": 1,
        "hand": "right"
      },
      {
        "midi": 56,
        "time": 34.583,
        "duration": 0.417,
        "velocity": 1,
        "hand": "left"
      },
      {
        "midi": 49,
        "time": 35,
        "duration": 0.417,
        "velocity": 1,
        "hand": "left"
      },
      {
        "midi": 64,
        "time": 35,
        "duration": 0.417,
        "velocity": 1,
        "hand": "right"
      },
      {
        "midi": 70,
        "time": 35,
        "duration": 0.417,
        "velocity": 1,
        "hand": "right"
      },
      {
        "midi": 48,
        "time": 35.417,
        "duration": 0.417,
        "velocity": 1,
        "hand": "left"
      },
      {
        "midi": 63,
        "time": 35.417,
        "duration": 0.417,
        "velocity": 1,
        "hand": "right"
      },
      {
        "midi": 72,
        "time": 35.417,
        "duration": 0.417,
        "velocity": 1,
        "hand": "right"
      },
      {
        "midi": 49,
        "time": 35.833,
        "duration": 0.417,
        "velocity": 1,
        "hand": "left"
      },
      {
        "midi": 64,
        "time": 35.833,
        "duration": 0.417,
        "velocity": 1,
        "hand": "right"
      },
      {
        "midi": 70,
        "time": 35.833,
        "duration": 0.417,
        "velocity": 1,
        "hand": "right"
      },
      {
        "midi": 48,
        "time": 36.25,
        "duration": 0.417,
        "velocity": 1,
        "hand": "left"
      },
      {
        "midi": 63,
        "time": 36.25,
        "duration": 0.417,
        "velocity": 1,
        "hand": "right"
      },
      {
        "midi": 72,
        "time": 36.25,
        "duration": 0.417,
        "velocity": 1,
        "hand": "right"
      },
      {
        "midi": 56,
        "time": 36.667,
        "duration": 0.833,
        "velocity": 1,
        "hand": "left"
      },
      {
        "midi": 63,
        "time": 36.667,
        "duration": 0.833,
        "velocity": 1,
        "hand": "right"
      },
      {
        "midi": 68,
        "time": 36.667,
        "duration": 0.833,
        "velocity": 1,
        "hand": "right"
      },
      {
        "midi": 60,
        "time": 37.083,
        "duration": 0.417,
        "velocity": 1,
        "hand": "right"
      },
      {
        "midi": 53,
        "time": 37.5,
        "duration": 0.417,
        "velocity": 1,
        "hand": "left"
      },
      {
        "midi": 68,
        "time": 37.5,
        "duration": 0.417,
        "velocity": 1,
        "hand": "right"
      },
      {
        "midi": 74,
        "time": 37.5,
        "duration": 0.417,
        "velocity": 1,
        "hand": "right"
      },
      {
        "midi": 52,
        "time": 37.917,
        "duration": 0.417,
        "velocity": 1,
        "hand": "left"
      },
      {
        "midi": 67,
        "time": 37.917,
        "duration": 0.417,
        "velocity": 1,
        "hand": "right"
      },
      {
        "midi": 76,
        "time": 37.917,
        "duration": 0.417,
        "velocity": 1,
        "hand": "right"
      },
      {
        "midi": 53,
        "time": 38.333,
        "duration": 0.417,
        "velocity": 1,
        "hand": "left"
      },
      {
        "midi": 68,
        "time": 38.333,
        "duration": 0.417,
        "velocity": 1,
        "hand": "right"
      },
      {
        "midi": 74,
        "time": 38.333,
        "duration": 0.417,
        "velocity": 1,
        "hand": "right"
      },
      {
        "midi": 52,
        "time": 38.75,
        "duration": 0.417,
        "velocity": 1,
        "hand": "left"
      },
      {
        "midi": 67,
        "time": 38.75,
        "duration": 0.417,
        "velocity": 1,
        "hand": "right"
      },
      {
        "midi": 76,
        "time": 38.75,
        "duration": 0.417,
        "velocity": 1,
        "hand": "right"
      },
      {
        "midi": 56,
        "time": 39.167,
        "duration": 0.417,
        "velocity": 1,
        "hand": "left"
      },
      {
        "midi": 63,
        "time": 39.167,
        "duration": 0.417,
        "velocity": 1,
        "hand": "right"
      },
      {
        "midi": 72,
        "time": 39.167,
        "duration": 0.833,
        "velocity": 1,
        "hand": "right"
      },
      {
        "midi": 48,
        "time": 39.583,
        "duration": 0.417,
        "velocity": 1,
        "hand": "left"
      },
      {
        "midi": 64,
        "time": 39.583,
        "duration": 0.417,
        "velocity": 1,
        "hand": "right"
      },
      {
        "midi": 67,
        "time": 39.583,
        "duration": 0.417,
        "velocity": 1,
        "hand": "right"
      },
      {
        "midi": 53,
        "time": 40,
        "duration": 0.417,
        "velocity": 1,
        "hand": "left"
      },
      {
        "midi": 68,
        "time": 40,
        "duration": 0.417,
        "velocity": 1,
        "hand": "right"
      },
      {
        "midi": 74,
        "time": 40,
        "duration": 0.208,
        "velocity": 1,
        "hand": "right"
      },
      {
        "midi": 77,
        "time": 40.208,
        "duration": 0.208,
        "velocity": 1,
        "hand": "right"
      },
      {
        "midi": 55,
        "time": 40.417,
        "duration": 0.417,
        "velocity": 1,
        "hand": "left"
      },
      {
        "midi": 72,
        "time": 40.417,
        "duration": 0.417,
        "velocity": 1,
        "hand": "right"
      },
      {
        "midi": 76,
        "time": 40.417,
        "duration": 0.417,
        "velocity": 1,
        "hand": "right"
      },
      {
        "midi": 53,
        "time": 40.833,
        "duration": 0.417,
        "velocity": 1,
        "hand": "left"
      },
      {
        "midi": 68,
        "time": 40.833,
        "duration": 0.417,
        "velocity": 1,
        "hand": "right"
      },
      {
        "midi": 74,
        "time": 40.833,
        "duration": 0.208,
        "velocity": 1,
        "hand": "right"
      },
      {
        "midi": 77,
        "time": 41.042,
        "duration": 0.208,
        "velocity": 1,
        "hand": "right"
      },
      {
        "midi": 55,
        "time": 41.25,
        "duration": 0.417,
        "velocity": 1,
        "hand": "left"
      },
      {
        "midi": 72,
        "time": 41.25,
        "duration": 0.417,
        "velocity": 1,
        "hand": "right"
      },
      {
        "midi": 76,
        "time": 41.25,
        "duration": 0.417,
        "velocity": 1,
        "hand": "right"
      },
      {
        "midi": 56,
        "time": 41.667,
        "duration": 0.417,
        "velocity": 1,
        "hand": "left"
      },
      {
        "midi": 63,
        "time": 41.667,
        "duration": 0.417,
        "velocity": 1,
        "hand": "right"
      },
      {
        "midi": 72,
        "time": 41.667,
        "duration": 0.833,
        "velocity": 1,
        "hand": "right"
      },
      {
        "midi": 48,
        "time": 42.083,
        "duration": 0.417,
        "velocity": 1,
        "hand": "left"
      },
      {
        "midi": 64,
        "time": 42.083,
        "duration": 0.417,
        "velocity": 1,
        "hand": "right"
      },
      {
        "midi": 67,
        "time": 42.083,
        "duration": 0.417,
        "velocity": 1,
        "hand": "right"
      },
      {
        "midi": 53,
        "time": 42.5,
        "duration": 0.417,
        "velocity": 1,
        "hand": "left"
      },
      {
        "midi": 68,
        "time": 42.5,
        "duration": 0.417,
        "velocity": 1,
        "hand": "right"
      },
      {
        "midi": 74,
        "time": 42.5,
        "duration": 0.208,
        "velocity": 1,
        "hand": "right"
      },
      {
        "midi": 77,
        "time": 42.708,
        "duration": 0.208,
        "velocity": 1,
        "hand": "right"
      },
      {
        "midi": 55,
        "time": 42.917,
        "duration": 0.417,
        "velocity": 1,
        "hand": "left"
      },
      {
        "midi": 72,
        "time": 42.917,
        "duration": 0.417,
        "velocity": 1,
        "hand": "right"
      },
      {
        "midi": 76,
        "time": 42.917,
        "duration": 0.417,
        "velocity": 1,
        "hand": "right"
      },
      {
        "midi": 53,
        "time": 43.333,
        "duration": 0.417,
        "velocity": 1,
        "hand": "left"
      },
      {
        "midi": 68,
        "time": 43.333,
        "duration": 0.417,
        "velocity": 1,
        "hand": "right"
      },
      {
        "midi": 74,
        "time": 43.333,
        "duration": 0.208,
        "velocity": 1,
        "hand": "right"
      },
      {
        "midi": 77,
        "time": 43.542,
        "duration": 0.208,
        "velocity": 1,
        "hand": "right"
      },
      {
        "midi": 55,
        "time": 43.75,
        "duration": 0.417,
        "velocity": 1,
        "hand": "left"
      },
      {
        "midi": 72,
        "time": 43.75,
        "duration": 0.417,
        "velocity": 1,
        "hand": "right"
      },
      {
        "midi": 76,
        "time": 43.75,
        "duration": 0.417,
        "velocity": 1,
        "hand": "right"
      },
      {
        "midi": 56,
        "time": 44.167,
        "duration": 0.417,
        "velocity": 1,
        "hand": "left"
      },
      {
        "midi": 63,
        "time": 44.167,
        "duration": 0.417,
        "velocity": 1,
        "hand": "right"
      },
      {
        "midi": 72,
        "time": 44.167,
        "duration": 0.833,
        "velocity": 1,
        "hand": "right"
      },
      {
        "midi": 48,
        "time": 44.583,
        "duration": 0.417,
        "velocity": 1,
        "hand": "left"
      },
      {
        "midi": 64,
        "time": 44.583,
        "duration": 0.417,
        "velocity": 1,
        "hand": "right"
      },
      {
        "midi": 67,
        "time": 44.583,
        "duration": 0.417,
        "velocity": 1,
        "hand": "right"
      },
      {
        "midi": 53,
        "time": 45,
        "duration": 0.417,
        "velocity": 1,
        "hand": "left"
      },
      {
        "midi": 68,
        "time": 45,
        "duration": 0.417,
        "velocity": 1,
        "hand": "right"
      },
      {
        "midi": 74,
        "time": 45,
        "duration": 0.417,
        "velocity": 1,
        "hand": "right"
      },
      {
        "midi": 48,
        "time": 45.417,
        "duration": 0.417,
        "velocity": 1,
        "hand": "left"
      },
      {
        "midi": 72,
        "time": 45.417,
        "duration": 0.417,
        "velocity": 1,
        "hand": "right"
      },
      {
        "midi": 76,
        "time": 45.417,
        "duration": 0.417,
        "velocity": 1,
        "hand": "right"
      },
      {
        "midi": 57,
        "time": 45.833,
        "duration": 0.417,
        "velocity": 1,
        "hand": "left"
      },
      {
        "midi": 70,
        "time": 45.833,
        "duration": 0.417,
        "velocity": 1,
        "hand": "right"
      },
      {
        "midi": 79,
        "time": 45.833,
        "duration": 0.417,
        "velocity": 1,
        "hand": "right"
      },
      {
        "midi": 62,
        "time": 46.25,
        "duration": 0.417,
        "velocity": 1,
        "hand": "right"
      },
      {
        "midi": 69,
        "time": 46.25,
        "duration": 0.417,
        "velocity": 1,
        "hand": "right"
      },
      {
        "midi": 78,
        "time": 46.25,
        "duration": 0.417,
        "velocity": 1,
        "hand": "right"
      },
      {
        "midi": 55,
        "time": 46.667,
        "duration": 0.417,
        "velocity": 1,
        "hand": "left"
      },
      {
        "midi": 68,
        "time": 46.667,
        "duration": 0.417,
        "velocity": 1,
        "hand": "right"
      },
      {
        "midi": 77,
        "time": 46.667,
        "duration": 0.417,
        "velocity": 1,
        "hand": "right"
      },
      {
        "midi": 60,
        "time": 47.083,
        "duration": 0.417,
        "velocity": 1,
        "hand": "right"
      },
      {
        "midi": 67,
        "time": 47.083,
        "duration": 0.417,
        "velocity": 1,
        "hand": "right"
      },
      {
        "midi": 76,
        "time": 47.083,
        "duration": 0.417,
        "velocity": 1,
        "hand": "right"
      },
      {
        "midi": 54,
        "time": 47.5,
        "duration": 0.417,
        "velocity": 1,
        "hand": "left"
      },
      {
        "midi": 67,
        "time": 47.5,
        "duration": 0.417,
        "velocity": 1,
        "hand": "right"
      },
      {
        "midi": 76,
        "time": 47.5,
        "duration": 0.417,
        "velocity": 1,
        "hand": "right"
      },
      {
        "midi": 59,
        "time": 47.917,
        "duration": 0.417,
        "velocity": 1,
        "hand": "left"
      },
      {
        "midi": 66,
        "time": 47.917,
        "duration": 0.417,
        "velocity": 1,
        "hand": "right"
      },
      {
        "midi": 75,
        "time": 47.917,
        "duration": 0.417,
        "velocity": 1,
        "hand": "right"
      },
      {
        "midi": 55,
        "time": 48.333,
        "duration": 0.417,
        "velocity": 1,
        "hand": "left"
      },
      {
        "midi": 64,
        "time": 48.333,
        "duration": 0.417,
        "velocity": 1,
        "hand": "right"
      },
      {
        "midi": 70,
        "time": 48.333,
        "duration": 0.208,
        "velocity": 1,
        "hand": "right"
      },
      {
        "midi": 73,
        "time": 48.542,
        "duration": 0.208,
        "velocity": 1,
        "hand": "right"
      },
      {
        "midi": 47,
        "time": 48.75,
        "duration": 0.417,
        "velocity": 1,
        "hand": "left"
      },
      {
        "midi": 63,
        "time": 48.75,
        "duration": 0.417,
        "velocity": 1,
        "hand": "right"
      },
      {
        "midi": 71,
        "time": 48.75,
        "duration": 0.417,
        "velocity": 1,
        "hand": "right"
      },
      {
        "midi": 54,
        "time": 49.167,
        "duration": 0.417,
        "velocity": 1,
        "hand": "left"
      },
      {
        "midi": 67,
        "time": 49.167,
        "duration": 0.417,
        "velocity": 1,
        "hand": "right"
      },
      {
        "midi": 76,
        "time": 49.167,
        "duration": 0.417,
        "velocity": 1,
        "hand": "right"
      },
      {
        "midi": 59,
        "time": 49.583,
        "duration": 0.417,
        "velocity": 1,
        "hand": "left"
      },
      {
        "midi": 66,
        "time": 49.583,
        "duration": 0.417,
        "velocity": 1,
        "hand": "right"
      },
      {
        "midi": 75,
        "time": 49.583,
        "duration": 0.417,
        "velocity": 1,
        "hand": "right"
      },
      {
        "midi": 55,
        "time": 50,
        "duration": 0.417,
        "velocity": 1,
        "hand": "left"
      },
      {
        "midi": 64,
        "time": 50,
        "duration": 0.417,
        "velocity": 1,
        "hand": "right"
      },
      {
        "midi": 70,
        "time": 50,
        "duration": 0.208,
        "velocity": 1,
        "hand": "right"
      },
      {
        "midi": 73,
        "time": 50.208,
        "duration": 0.208,
        "velocity": 1,
        "hand": "right"
      },
      {
        "midi": 47,
        "time": 50.417,
        "duration": 0.417,
        "velocity": 1,
        "hand": "left"
      },
      {
        "midi": 63,
        "time": 50.417,
        "duration": 0.417,
        "velocity": 1,
        "hand": "right"
      },
      {
        "midi": 71,
        "time": 50.417,
        "duration": 0.417,
        "velocity": 1,
        "hand": "right"
      },
      {
        "midi": 55,
        "time": 50.833,
        "duration": 0.417,
        "velocity": 1,
        "hand": "left"
      },
      {
        "midi": 64,
        "time": 50.833,
        "duration": 0.417,
        "velocity": 1,
        "hand": "right"
      },
      {
        "midi": 70,
        "time": 50.833,
        "duration": 0.208,
        "velocity": 1,
        "hand": "right"
      },
      {
        "midi": 73,
        "time": 51.042,
        "duration": 0.208,
        "velocity": 1,
        "hand": "right"
      },
      {
        "midi": 47,
        "time": 51.25,
        "duration": 0.417,
        "velocity": 1,
        "hand": "left"
      },
      {
        "midi": 63,
        "time": 51.25,
        "duration": 0.417,
        "velocity": 1,
        "hand": "right"
      },
      {
        "midi": 71,
        "time": 51.25,
        "duration": 0.417,
        "velocity": 1,
        "hand": "right"
      },
      {
        "midi": 52,
        "time": 51.667,
        "duration": 0.417,
        "velocity": 1,
        "hand": "left"
      },
      {
        "midi": 61,
        "time": 51.667,
        "duration": 0.417,
        "velocity": 1,
        "hand": "right"
      },
      {
        "midi": 66,
        "time": 51.667,
        "duration": 0.833,
        "velocity": 1,
        "hand": "right"
      },
      {
        "midi": 51,
        "time": 52.083,
        "duration": 0.417,
        "velocity": 1,
        "hand": "left"
      },
      {
        "midi": 59,
        "time": 52.083,
        "duration": 0.417,
        "velocity": 1,
        "hand": "left"
      },
      {
        "midi": 66,
        "time": 52.5,
        "duration": 0.417,
        "velocity": 1,
        "hand": "right"
      },
      {
        "midi": 68,
        "time": 52.917,
        "duration": 0.208,
        "velocity": 1,
        "hand": "right"
      },
      {
        "midi": 69,
        "time": 53.125,
        "duration": 0.208,
        "velocity": 1,
        "hand": "right"
      },
      {
        "midi": 50,
        "time": 53.333,
        "duration": 0.833,
        "velocity": 1,
        "hand": "left"
      },
      {
        "midi": 59,
        "time": 53.333,
        "duration": 0.833,
        "velocity": 1,
        "hand": "left"
      },
      {
        "midi": 68,
        "time": 53.333,
        "duration": 0.417,
        "velocity": 1,
        "hand": "right"
      },
      {
        "midi": 71,
        "time": 53.75,
        "duration": 0.417,
        "velocity": 1,
        "hand": "right"
      },
      {
        "midi": 49,
        "time": 54.167,
        "duration": 0.833,
        "velocity": 1,
        "hand": "left"
      },
      {
        "midi": 64,
        "time": 54.167,
        "duration": 1.667,
        "velocity": 1,
        "hand": "right"
      },
      {
        "midi": 69,
        "time": 54.583,
        "duration": 0.417,
        "velocity": 1,
        "hand": "right"
      },
      {
        "midi": 47,
        "time": 55,
        "duration": 0.417,
        "velocity": 1,
        "hand": "left"
      },
      {
        "midi": 68,
        "time": 55,
        "duration": 0.417,
        "velocity": 1,
        "hand": "right"
      },
      {
        "midi": 71,
        "time": 55,
        "duration": 0.417,
        "velocity": 1,
        "hand": "right"
      },
      {
        "midi": 45,
        "time": 55.417,
        "duration": 0.417,
        "velocity": 1,
        "hand": "left"
      },
      {
        "midi": 69,
        "time": 55.417,
        "duration": 0.417,
        "velocity": 1,
        "hand": "right"
      },
      {
        "midi": 73,
        "time": 55.417,
        "duration": 0.417,
        "velocity": 1,
        "hand": "right"
      },
      {
        "midi": 44,
        "time": 55.833,
        "duration": 0.833,
        "velocity": 1,
        "hand": "left"
      },
      {
        "midi": 64,
        "time": 55.833,
        "duration": 1.667,
        "velocity": 1,
        "hand": "right"
      },
      {
        "midi": 76,
        "time": 55.833,
        "duration": 0.833,
        "velocity": 1,
        "hand": "right"
      },
      {
        "midi": 45,
        "time": 56.667,
        "duration": 0.833,
        "velocity": 1,
        "hand": "left"
      },
      {
        "midi": 69,
        "time": 56.667,
        "duration": 0.833,
        "velocity": 1,
        "hand": "right"
      },
      {
        "midi": 73,
        "time": 56.667,
        "duration": 0.833,
        "velocity": 1,
        "hand": "right"
      },
      {
        "midi": 73,
        "time": 57.5,
        "duration": 0.417,
        "velocity": 1,
        "hand": "right"
      },
      {
        "midi": 74,
        "time": 57.917,
        "duration": 0.208,
        "velocity": 1,
        "hand": "right"
      },
      {
        "midi": 76,
        "time": 58.125,
        "duration": 0.208,
        "velocity": 1,
        "hand": "right"
      },
      {
        "midi": 46,
        "time": 58.333,
        "duration": 0.833,
        "velocity": 1,
        "hand": "left"
      },
      {
        "midi": 66,
        "time": 58.333,
        "duration": 0.833,
        "velocity": 1,
        "hand": "right"
      },
      {
        "midi": 78,
        "time": 58.333,
        "duration": 0.417,
        "velocity": 1,
        "hand": "right"
      },
      {
        "midi": 73,
        "time": 58.75,
        "duration": 0.417,
        "velocity": 1,
        "hand": "right"
      },
      {
        "midi": 47,
        "time": 59.167,
        "duration": 0.833,
        "velocity": 1,
        "hand": "left"
      },
      {
        "midi": 66,
        "time": 59.167,
        "duration": 0.833,
        "velocity": 1,
        "hand": "right"
      },
      {
        "midi": 74,
        "time": 59.167,
        "duration": 0.833,
        "velocity": 1,
        "hand": "right"
      },
      {
        "midi": 66,
        "time": 60,
        "duration": 0.417,
        "velocity": 1,
        "hand": "right"
      },
      {
        "midi": 68,
        "time": 60.417,
        "duration": 0.208,
        "velocity": 1,
        "hand": "right"
      },
      {
        "midi": 69,
        "time": 60.625,
        "duration": 0.208,
        "velocity": 1,
        "hand": "right"
      },
      {
        "midi": 47,
        "time": 60.833,
        "duration": 0.833,
        "velocity": 1,
        "hand": "left"
      },
      {
        "midi": 63,
        "time": 60.833,
        "duration": 0.833,
        "velocity": 1,
        "hand": "right"
      },
      {
        "midi": 73,
        "time": 60.833,
        "duration": 0.417,
        "velocity": 1,
        "hand": "right"
      },
      {
        "midi": 70,
        "time": 61.25,
        "duration": 0.833,
        "velocity": 1,
        "hand": "right"
      },
      {
        "midi": 52,
        "time": 61.667,
        "duration": 0.833,
        "velocity": 1,
        "hand": "left"
      },
      {
        "midi": 56,
        "time": 61.667,
        "duration": 0.833,
        "velocity": 1,
        "hand": "left"
      },
      {
        "midi": 62,
        "time": 61.667,
        "duration": 0.833,
        "velocity": 1,
        "hand": "right"
      },
      {
        "midi": 71,
        "time": 62.083,
        "duration": 0.417,
        "velocity": 1,
        "hand": "right"
      },
      {
        "midi": 66,
        "time": 62.5,
        "duration": 0.417,
        "velocity": 1,
        "hand": "right"
      },
      {
        "midi": 68,
        "time": 62.917,
        "duration": 0.208,
        "velocity": 1,
        "hand": "right"
      },
      {
        "midi": 69,
        "time": 63.125,
        "duration": 0.208,
        "velocity": 1,
        "hand": "right"
      },
      {
        "midi": 50,
        "time": 63.333,
        "duration": 0.833,
        "velocity": 1,
        "hand": "left"
      },
      {
        "midi": 59,
        "time": 63.333,
        "duration": 0.833,
        "velocity": 1,
        "hand": "left"
      },
      {
        "midi": 68,
        "time": 63.333,
        "duration": 0.417,
        "velocity": 1,
        "hand": "right"
      },
      {
        "midi": 71,
        "time": 63.75,
        "duration": 0.417,
        "velocity": 1,
        "hand": "right"
      },
      {
        "midi": 49,
        "time": 64.167,
        "duration": 0.833,
        "velocity": 1,
        "hand": "left"
      },
      {
        "midi": 64,
        "time": 64.167,
        "duration": 1.667,
        "velocity": 1,
        "hand": "right"
      },
      {
        "midi": 69,
        "time": 64.583,
        "duration": 0.417,
        "velocity": 1,
        "hand": "right"
      },
      {
        "midi": 47,
        "time": 65,
        "duration": 0.417,
        "velocity": 1,
        "hand": "left"
      },
      {
        "midi": 68,
        "time": 65,
        "duration": 0.417,
        "velocity": 1,
        "hand": "right"
      },
      {
        "midi": 71,
        "time": 65,
        "duration": 0.417,
        "velocity": 1,
        "hand": "right"
      },
      {
        "midi": 45,
        "time": 65.417,
        "duration": 0.417,
        "velocity": 1,
        "hand": "left"
      },
      {
        "midi": 69,
        "time": 65.417,
        "duration": 0.417,
        "velocity": 1,
        "hand": "right"
      },
      {
        "midi": 73,
        "time": 65.417,
        "duration": 0.417,
        "velocity": 1,
        "hand": "right"
      },
      {
        "midi": 44,
        "time": 65.833,
        "duration": 0.833,
        "velocity": 1,
        "hand": "left"
      },
      {
        "midi": 64,
        "time": 65.833,
        "duration": 1.667,
        "velocity": 1,
        "hand": "right"
      },
      {
        "midi": 76,
        "time": 65.833,
        "duration": 0.833,
        "velocity": 1,
        "hand": "right"
      },
      {
        "midi": 45,
        "time": 66.667,
        "duration": 0.833,
        "velocity": 1,
        "hand": "left"
      },
      {
        "midi": 69,
        "time": 66.667,
        "duration": 0.833,
        "velocity": 1,
        "hand": "right"
      },
      {
        "midi": 73,
        "time": 66.667,
        "duration": 0.833,
        "velocity": 1,
        "hand": "right"
      },
      {
        "midi": 73,
        "time": 67.5,
        "duration": 0.417,
        "velocity": 1,
        "hand": "right"
      },
      {
        "midi": 75,
        "time": 67.917,
        "duration": 0.208,
        "velocity": 1,
        "hand": "right"
      },
      {
        "midi": 76,
        "time": 68.125,
        "duration": 0.208,
        "velocity": 1,
        "hand": "right"
      },
      {
        "midi": 47,
        "time": 68.333,
        "duration": 2.5,
        "velocity": 1,
        "hand": "left"
      },
      {
        "midi": 64,
        "time": 68.333,
        "duration": 0.833,
        "velocity": 1,
        "hand": "right"
      },
      {
        "midi": 68,
        "time": 68.333,
        "duration": 0.417,
        "velocity": 1,
        "hand": "right"
      },
      {
        "midi": 73,
        "time": 68.75,
        "duration": 0.417,
        "velocity": 1,
        "hand": "right"
      },
      {
        "midi": 57,
        "time": 69.167,
        "duration": 0.417,
        "velocity": 1,
        "hand": "left"
      },
      {
        "midi": 66,
        "time": 69.167,
        "duration": 0.833,
        "velocity": 1,
        "hand": "right"
      },
      {
        "midi": 71,
        "time": 69.167,
        "duration": 0.833,
        "velocity": 1,
        "hand": "right"
      },
      {
        "midi": 59,
        "time": 69.583,
        "duration": 0.417,
        "velocity": 1,
        "hand": "left"
      },
      {
        "midi": 56,
        "time": 70,
        "duration": 0.833,
        "velocity": 1,
        "hand": "left"
      },
      {
        "midi": 71,
        "time": 70,
        "duration": 0.833,
        "velocity": 1,
        "hand": "right"
      },
      {
        "midi": 73,
        "time": 70,
        "duration": 0.417,
        "velocity": 1,
        "hand": "right"
      },
      {
        "midi": 75,
        "time": 70.417,
        "duration": 0.208,
        "velocity": 1,
        "hand": "right"
      },
      {
        "midi": 76,
        "time": 70.625,
        "duration": 0.208,
        "velocity": 1,
        "hand": "right"
      },
      {
        "midi": 47,
        "time": 70.833,
        "duration": 1.667,
        "velocity": 1,
        "hand": "left"
      },
      {
        "midi": 64,
        "time": 70.833,
        "duration": 0.833,
        "velocity": 1,
        "hand": "right"
      },
      {
        "midi": 68,
        "time": 70.833,
        "duration": 0.417,
        "velocity": 1,
        "hand": "right"
      },
      {
        "midi": 73,
        "time": 71.25,
        "duration": 0.417,
        "velocity": 1,
        "hand": "right"
      },
      {
        "midi": 57,
        "time": 71.667,
        "duration": 0.417,
        "velocity": 1,
        "hand": "left"
      },
      {
        "midi": 66,
        "time": 71.667,
        "duration": 0.833,
        "velocity": 1,
        "hand": "right"
      },
      {
        "midi": 71,
        "time": 71.667,
        "duration": 0.833,
        "velocity": 1,
        "hand": "right"
      },
      {
        "midi": 59,
        "time": 72.083,
        "duration": 0.417,
        "velocity": 1,
        "hand": "left"
      },
      {
        "midi": 48,
        "time": 72.5,
        "duration": 2.5,
        "velocity": 1,
        "hand": "left"
      },
      {
        "midi": 64,
        "time": 72.5,
        "duration": 2.5,
        "velocity": 1,
        "hand": "right"
      },
      {
        "midi": 76,
        "time": 72.5,
        "duration": 0.833,
        "velocity": 1,
        "hand": "right"
      },
      {
        "midi": 74,
        "time": 73.333,
        "duration": 0.417,
        "velocity": 1,
        "hand": "right"
      },
      {
        "midi": 72,
        "time": 73.75,
        "duration": 0.417,
        "velocity": 1,
        "hand": "right"
      },
      {
        "midi": 71,
        "time": 74.167,
        "duration": 0.417,
        "velocity": 1,
        "hand": "right"
      },
      {
        "midi": 70,
        "time": 74.583,
        "duration": 0.417,
        "velocity": 1,
        "hand": "right"
      },
      {
        "midi": 40,
        "time": 75.208,
        "duration": 0.208,
        "velocity": 1,
        "hand": "left"
      },
      {
        "midi": 47,
        "time": 75.208,
        "duration": 0.208,
        "velocity": 1,
        "hand": "left"
      },
      {
        "midi": 55,
        "time": 75.417,
        "duration": 0.208,
        "velocity": 1,
        "hand": "left"
      },
      {
        "midi": 59,
        "time": 75.625,
        "duration": 0.208,
        "velocity": 1,
        "hand": "left"
      },
      {
        "midi": 64,
        "time": 75.625,
        "duration": 0.208,
        "velocity": 1,
        "hand": "right"
      },
      {
        "midi": 69,
        "time": 75.833,
        "duration": 0.208,
        "velocity": 1,
        "hand": "right"
      },
      {
        "midi": 64,
        "time": 76.042,
        "duration": 0.208,
        "velocity": 1,
        "hand": "right"
      },
      {
        "midi": 67,
        "time": 76.042,
        "duration": 0.208,
        "velocity": 1,
        "hand": "right"
      },
      {
        "midi": 70,
        "time": 76.25,
        "duration": 0.208,
        "velocity": 1,
        "hand": "right"
      },
      {
        "midi": 71,
        "time": 76.458,
        "duration": 0.208,
        "velocity": 1,
        "hand": "right"
      },
      {
        "midi": 76,
        "time": 76.458,
        "duration": 0.208,
        "velocity": 1,
        "hand": "right"
      },
      {
        "midi": 78,
        "time": 76.667,
        "duration": 0.208,
        "velocity": 1,
        "hand": "right"
      },
      {
        "midi": 79,
        "time": 76.875,
        "duration": 0.208,
        "velocity": 1,
        "hand": "right"
      },
      {
        "midi": 83,
        "time": 76.875,
        "duration": 0.208,
        "velocity": 1,
        "hand": "right"
      },
      {
        "midi": 88,
        "time": 77.083,
        "duration": 0.417,
        "velocity": 1,
        "hand": "right"
      },
      {
        "midi": 48,
        "time": 77.5,
        "duration": 2.5,
        "velocity": 1,
        "hand": "left"
      },
      {
        "midi": 64,
        "time": 77.5,
        "duration": 2.5,
        "velocity": 1,
        "hand": "right"
      },
      {
        "midi": 76,
        "time": 77.5,
        "duration": 0.833,
        "velocity": 1,
        "hand": "right"
      },
      {
        "midi": 74,
        "time": 78.333,
        "duration": 0.417,
        "velocity": 1,
        "hand": "right"
      },
      {
        "midi": 72,
        "time": 78.75,
        "duration": 0.417,
        "velocity": 1,
        "hand": "right"
      },
      {
        "midi": 71,
        "time": 79.167,
        "duration": 0.417,
        "velocity": 1,
        "hand": "right"
      },
      {
        "midi": 70,
        "time": 79.583,
        "duration": 0.417,
        "velocity": 1,
        "hand": "right"
      },
      {
        "midi": 40,
        "time": 80.208,
        "duration": 0.208,
        "velocity": 1,
        "hand": "left"
      },
      {
        "midi": 47,
        "time": 80.208,
        "duration": 0.208,
        "velocity": 1,
        "hand": "left"
      },
      {
        "midi": 55,
        "time": 80.417,
        "duration": 0.208,
        "velocity": 1,
        "hand": "left"
      },
      {
        "midi": 59,
        "time": 80.625,
        "duration": 0.208,
        "velocity": 1,
        "hand": "left"
      },
      {
        "midi": 64,
        "time": 80.625,
        "duration": 0.208,
        "velocity": 1,
        "hand": "right"
      },
      {
        "midi": 69,
        "time": 80.833,
        "duration": 0.208,
        "velocity": 1,
        "hand": "right"
      },
      {
        "midi": 64,
        "time": 81.042,
        "duration": 0.208,
        "velocity": 1,
        "hand": "right"
      },
      {
        "midi": 67,
        "time": 81.042,
        "duration": 0.208,
        "velocity": 1,
        "hand": "right"
      },
      {
        "midi": 60,
        "time": 81.25,
        "duration": 0.208,
        "velocity": 1,
        "hand": "right"
      },
      {
        "midi": 55,
        "time": 81.458,
        "duration": 0.208,
        "velocity": 1,
        "hand": "left"
      },
      {
        "midi": 59,
        "time": 81.458,
        "duration": 0.208,
        "velocity": 1,
        "hand": "left"
      },
      {
        "midi": 48,
        "time": 81.667,
        "duration": 0.208,
        "velocity": 1,
        "hand": "left"
      },
      {
        "midi": 43,
        "time": 81.875,
        "duration": 0.208,
        "velocity": 1,
        "hand": "left"
      },
      {
        "midi": 47,
        "time": 81.875,
        "duration": 0.208,
        "velocity": 1,
        "hand": "left"
      },
      {
        "midi": 40,
        "time": 82.083,
        "duration": 0.417,
        "velocity": 1,
        "hand": "left"
      },
      {
        "midi": 48,
        "time": 82.5,
        "duration": 2.5,
        "velocity": 1,
        "hand": "left"
      },
      {
        "midi": 64,
        "time": 82.5,
        "duration": 2.5,
        "velocity": 1,
        "hand": "right"
      },
      {
        "midi": 76,
        "time": 82.5,
        "duration": 0.833,
        "velocity": 1,
        "hand": "right"
      },
      {
        "midi": 74,
        "time": 83.333,
        "duration": 0.417,
        "velocity": 1,
        "hand": "right"
      },
      {
        "midi": 72,
        "time": 83.75,
        "duration": 0.417,
        "velocity": 1,
        "hand": "right"
      },
      {
        "midi": 71,
        "time": 84.167,
        "duration": 0.417,
        "velocity": 1,
        "hand": "right"
      },
      {
        "midi": 70,
        "time": 84.583,
        "duration": 0.417,
        "velocity": 1,
        "hand": "right"
      },
      {
        "midi": 40,
        "time": 85.208,
        "duration": 0.208,
        "velocity": 1,
        "hand": "left"
      },
      {
        "midi": 47,
        "time": 85.208,
        "duration": 0.208,
        "velocity": 1,
        "hand": "left"
      },
      {
        "midi": 55,
        "time": 85.417,
        "duration": 0.208,
        "velocity": 1,
        "hand": "left"
      },
      {
        "midi": 59,
        "time": 85.625,
        "duration": 0.208,
        "velocity": 1,
        "hand": "left"
      },
      {
        "midi": 64,
        "time": 85.625,
        "duration": 0.208,
        "velocity": 1,
        "hand": "right"
      },
      {
        "midi": 69,
        "time": 85.833,
        "duration": 0.208,
        "velocity": 1,
        "hand": "right"
      },
      {
        "midi": 64,
        "time": 86.042,
        "duration": 0.208,
        "velocity": 1,
        "hand": "right"
      },
      {
        "midi": 67,
        "time": 86.042,
        "duration": 0.208,
        "velocity": 1,
        "hand": "right"
      },
      {
        "midi": 70,
        "time": 86.25,
        "duration": 0.208,
        "velocity": 1,
        "hand": "right"
      },
      {
        "midi": 71,
        "time": 86.458,
        "duration": 0.208,
        "velocity": 1,
        "hand": "right"
      },
      {
        "midi": 76,
        "time": 86.458,
        "duration": 0.208,
        "velocity": 1,
        "hand": "right"
      },
      {
        "midi": 78,
        "time": 86.667,
        "duration": 0.208,
        "velocity": 1,
        "hand": "right"
      },
      {
        "midi": 79,
        "time": 86.875,
        "duration": 0.208,
        "velocity": 1,
        "hand": "right"
      },
      {
        "midi": 83,
        "time": 86.875,
        "duration": 0.208,
        "velocity": 1,
        "hand": "right"
      },
      {
        "midi": 88,
        "time": 87.083,
        "duration": 0.417,
        "velocity": 1,
        "hand": "right"
      },
      {
        "midi": 48,
        "time": 87.5,
        "duration": 2.5,
        "velocity": 1,
        "hand": "left"
      },
      {
        "midi": 64,
        "time": 87.5,
        "duration": 2.5,
        "velocity": 1,
        "hand": "right"
      },
      {
        "midi": 76,
        "time": 87.5,
        "duration": 0.833,
        "velocity": 1,
        "hand": "right"
      },
      {
        "midi": 74,
        "time": 88.333,
        "duration": 0.417,
        "velocity": 1,
        "hand": "right"
      },
      {
        "midi": 72,
        "time": 88.75,
        "duration": 0.417,
        "velocity": 1,
        "hand": "right"
      },
      {
        "midi": 71,
        "time": 89.167,
        "duration": 0.417,
        "velocity": 1,
        "hand": "right"
      },
      {
        "midi": 70,
        "time": 89.583,
        "duration": 0.417,
        "velocity": 1,
        "hand": "right"
      },
      {
        "midi": 76,
        "time": 90.417,
        "duration": 0.417,
        "velocity": 1,
        "hand": "right"
      },
      {
        "midi": 48,
        "time": 90.833,
        "duration": 1.667,
        "velocity": 1,
        "hand": "left"
      },
      {
        "midi": 64,
        "time": 90.833,
        "duration": 1.667,
        "velocity": 1,
        "hand": "right"
      },
      {
        "midi": 74,
        "time": 90.833,
        "duration": 0.417,
        "velocity": 1,
        "hand": "right"
      },
      {
        "midi": 72,
        "time": 91.25,
        "duration": 0.417,
        "velocity": 1,
        "hand": "right"
      },
      {
        "midi": 71,
        "time": 91.667,
        "duration": 0.417,
        "velocity": 1,
        "hand": "right"
      },
      {
        "midi": 70,
        "time": 92.083,
        "duration": 0.417,
        "velocity": 1,
        "hand": "right"
      },
      {
        "midi": 77,
        "time": 92.5,
        "duration": 0.833,
        "velocity": 1,
        "hand": "right"
      },
      {
        "midi": 49,
        "time": 92.708,
        "duration": 0.208,
        "velocity": 1,
        "hand": "left"
      },
      {
        "midi": 56,
        "time": 92.708,
        "duration": 0.208,
        "velocity": 1,
        "hand": "left"
      },
      {
        "midi": 61,
        "time": 92.917,
        "duration": 0.208,
        "velocity": 1,
        "hand": "right"
      },
      {
        "midi": 65,
        "time": 93.125,
        "duration": 0.208,
        "velocity": 1,
        "hand": "right"
      },
      {
        "midi": 68,
        "time": 93.125,
        "duration": 0.208,
        "velocity": 1,
        "hand": "right"
      },
      {
        "midi": 70,
        "time": 93.333,
        "duration": 0.833,
        "velocity": 1,
        "hand": "right"
      },
      {
        "midi": 49,
        "time": 93.542,
        "duration": 0.208,
        "velocity": 1,
        "hand": "left"
      },
      {
        "midi": 51,
        "time": 93.542,
        "duration": 0.208,
        "velocity": 1,
        "hand": "left"
      },
      {
        "midi": 58,
        "time": 93.75,
        "duration": 0.208,
        "velocity": 1,
        "hand": "left"
      },
      {
        "midi": 63,
        "time": 93.958,
        "duration": 0.208,
        "velocity": 1,
        "hand": "right"
      },
      {
        "midi": 67,
        "time": 93.958,
        "duration": 0.208,
        "velocity": 1,
        "hand": "right"
      },
      {
        "midi": 75,
        "time": 94.167,
        "duration": 0.833,
        "velocity": 1,
        "hand": "right"
      },
      {
        "midi": 48,
        "time": 94.375,
        "duration": 0.208,
        "velocity": 1,
        "hand": "left"
      },
      {
        "midi": 51,
        "time": 94.375,
        "duration": 0.208,
        "velocity": 1,
        "hand": "left"
      },
      {
        "midi": 60,
        "time": 94.583,
        "duration": 0.208,
        "velocity": 1,
        "hand": "right"
      },
      {
        "midi": 63,
        "time": 94.792,
        "duration": 0.208,
        "velocity": 1,
        "hand": "right"
      },
      {
        "midi": 68,
        "time": 94.792,
        "duration": 0.208,
        "velocity": 1,
        "hand": "right"
      },
      {
        "midi": 68,
        "time": 95,
        "duration": 0.833,
        "velocity": 1,
        "hand": "right"
      },
      {
        "midi": 46,
        "time": 95.208,
        "duration": 0.208,
        "velocity": 1,
        "hand": "left"
      },
      {
        "midi": 53,
        "time": 95.208,
        "duration": 0.208,
        "velocity": 1,
        "hand": "left"
      },
      {
        "midi": 58,
        "time": 95.417,
        "duration": 0.208,
        "velocity": 1,
        "hand": "left"
      },
      {
        "midi": 61,
        "time": 95.625,
        "duration": 0.208,
        "velocity": 1,
        "hand": "right"
      },
      {
        "midi": 65,
        "time": 95.625,
        "duration": 0.208,
        "velocity": 1,
        "hand": "right"
      },
      {
        "midi": 67,
        "time": 95.833,
        "duration": 0.417,
        "velocity": 1,
        "hand": "right"
      },
      {
        "midi": 68,
        "time": 96.25,
        "duration": 0.417,
        "velocity": 1,
        "hand": "right"
      },
      {
        "midi": 51,
        "time": 96.667,
        "duration": 0.833,
        "velocity": 1,
        "hand": "left"
      },
      {
        "midi": 62,
        "time": 96.667,
        "duration": 0.833,
        "velocity": 1,
        "hand": "right"
      },
      {
        "midi": 72,
        "time": 96.667,
        "duration": 0.417,
        "velocity": 1,
        "hand": "right"
      },
      {
        "midi": 70,
        "time": 97.083,
        "duration": 0.417,
        "velocity": 1,
        "hand": "right"
      },
      {
        "midi": 77,
        "time": 97.5,
        "duration": 0.833,
        "velocity": 1,
        "hand": "right"
      },
      {
        "midi": 49,
        "time": 97.708,
        "duration": 0.208,
        "velocity": 1,
        "hand": "left"
      },
      {
        "midi": 56,
        "time": 97.708,
        "duration": 0.208,
        "velocity": 1,
        "hand": "left"
      },
      {
        "midi": 61,
        "time": 97.917,
        "duration": 0.208,
        "velocity": 1,
        "hand": "right"
      },
      {
        "midi": 65,
        "time": 98.125,
        "duration": 0.208,
        "velocity": 1,
        "hand": "right"
      },
      {
        "midi": 68,
        "time": 98.125,
        "duration": 0.208,
        "velocity": 1,
        "hand": "right"
      },
      {
        "midi": 70,
        "time": 98.333,
        "duration": 0.833,
        "velocity": 1,
        "hand": "right"
      },
      {
        "midi": 49,
        "time": 98.542,
        "duration": 0.208,
        "velocity": 1,
        "hand": "left"
      },
      {
        "midi": 51,
        "time": 98.542,
        "duration": 0.208,
        "velocity": 1,
        "hand": "left"
      },
      {
        "midi": 58,
        "time": 98.75,
        "duration": 0.208,
        "velocity": 1,
        "hand": "left"
      },
      {
        "midi": 63,
        "time": 98.958,
        "duration": 0.208,
        "velocity": 1,
        "hand": "right"
      },
      {
        "midi": 67,
        "time": 98.958,
        "duration": 0.208,
        "velocity": 1,
        "hand": "right"
      },
      {
        "midi": 75,
        "time": 99.167,
        "duration": 0.833,
        "velocity": 1,
        "hand": "right"
      },
      {
        "midi": 48,
        "time": 99.375,
        "duration": 0.208,
        "velocity": 1,
        "hand": "left"
      },
      {
        "midi": 51,
        "time": 99.375,
        "duration": 0.208,
        "velocity": 1,
        "hand": "left"
      },
      {
        "midi": 60,
        "time": 99.583,
        "duration": 0.208,
        "velocity": 1,
        "hand": "right"
      },
      {
        "midi": 63,
        "time": 99.792,
        "duration": 0.208,
        "velocity": 1,
        "hand": "right"
      },
      {
        "midi": 68,
        "time": 99.792,
        "duration": 0.208,
        "velocity": 1,
        "hand": "right"
      },
      {
        "midi": 80,
        "time": 100,
        "duration": 0.833,
        "velocity": 1,
        "hand": "right"
      },
      {
        "midi": 53,
        "time": 100.208,
        "duration": 0.208,
        "velocity": 1,
        "hand": "left"
      },
      {
        "midi": 60,
        "time": 100.208,
        "duration": 0.208,
        "velocity": 1,
        "hand": "right"
      },
      {
        "midi": 65,
        "time": 100.417,
        "duration": 0.208,
        "velocity": 1,
        "hand": "right"
      },
      {
        "midi": 68,
        "time": 100.625,
        "duration": 0.208,
        "velocity": 1,
        "hand": "right"
      },
      {
        "midi": 72,
        "time": 100.625,
        "duration": 0.208,
        "velocity": 1,
        "hand": "right"
      },
      {
        "midi": 74,
        "time": 100.833,
        "duration": 0.833,
        "velocity": 1,
        "hand": "right"
      },
      {
        "midi": 53,
        "time": 101.042,
        "duration": 0.208,
        "velocity": 1,
        "hand": "left"
      },
      {
        "midi": 55,
        "time": 101.042,
        "duration": 0.208,
        "velocity": 1,
        "hand": "left"
      },
      {
        "midi": 62,
        "time": 101.25,
        "duration": 0.208,
        "velocity": 1,
        "hand": "right"
      },
      {
        "midi": 67,
        "time": 101.458,
        "duration": 0.208,
        "velocity": 1,
        "hand": "right"
      },
      {
        "midi": 71,
        "time": 101.458,
        "duration": 0.208,
        "velocity": 1,
        "hand": "right"
      },
      {
        "midi": 79,
        "time": 101.667,
        "duration": 0.833,
        "velocity": 1,
        "hand": "right"
      },
      {
        "midi": 51,
        "time": 101.875,
        "duration": 0.208,
        "velocity": 1,
        "hand": "left"
      },
      {
        "midi": 55,
        "time": 101.875,
        "duration": 0.208,
        "velocity": 1,
        "hand": "left"
      },
      {
        "midi": 64,
        "time": 102.083,
        "duration": 0.208,
        "velocity": 1,
        "hand": "right"
      },
      {
        "midi": 67,
        "time": 102.292,
        "duration": 0.208,
        "velocity": 1,
        "hand": "right"
      },
      {
        "midi": 72,
        "time": 102.292,
        "duration": 0.208,
        "velocity": 1,
        "hand": "right"
      },
      {
        "midi": 71,
        "time": 102.5,
        "duration": 0.833,
        "velocity": 1,
        "hand": "right"
      },
      {
        "midi": 49,
        "time": 102.708,
        "duration": 0.208,
        "velocity": 1,
        "hand": "left"
      },
      {
        "midi": 55,
        "time": 102.708,
        "duration": 0.208,
        "velocity": 1,
        "hand": "left"
      },
      {
        "midi": 61,
        "time": 102.917,
        "duration": 0.208,
        "velocity": 1,
        "hand": "right"
      },
      {
        "midi": 59,
        "time": 103.125,
        "duration": 0.208,
        "velocity": 1,
        "hand": "left"
      },
      {
        "midi": 65,
        "time": 103.125,
        "duration": 0.208,
        "velocity": 1,
        "hand": "right"
      },
      {
        "midi": 70,
        "time": 103.333,
        "duration": 0.417,
        "velocity": 1,
        "hand": "right"
      },
      {
        "midi": 71,
        "time": 103.75,
        "duration": 0.417,
        "velocity": 1,
        "hand": "right"
      },
      {
        "midi": 48,
        "time": 104.167,
        "duration": 0.833,
        "velocity": 1,
        "hand": "left"
      },
      {
        "midi": 64,
        "time": 104.167,
        "duration": 0.833,
        "velocity": 1,
        "hand": "right"
      },
      {
        "midi": 76,
        "time": 104.167,
        "duration": 0.417,
        "velocity": 1,
        "hand": "right"
      },
      {
        "midi": 72,
        "time": 104.583,
        "duration": 0.417,
        "velocity": 1,
        "hand": "right"
      },
      {
        "midi": 71,
        "time": 105,
        "duration": 0.833,
        "velocity": 1,
        "hand": "right"
      },
      {
        "midi": 49,
        "time": 105.208,
        "duration": 0.208,
        "velocity": 1,
        "hand": "left"
      },
      {
        "midi": 55,
        "time": 105.208,
        "duration": 0.208,
        "velocity": 1,
        "hand": "left"
      },
      {
        "midi": 61,
        "time": 105.417,
        "duration": 0.208,
        "velocity": 1,
        "hand": "right"
      },
      {
        "midi": 59,
        "time": 105.625,
        "duration": 0.208,
        "velocity": 1,
        "hand": "left"
      },
      {
        "midi": 65,
        "time": 105.625,
        "duration": 0.208,
        "velocity": 1,
        "hand": "right"
      },
      {
        "midi": 70,
        "time": 105.833,
        "duration": 0.417,
        "velocity": 1,
        "hand": "right"
      },
      {
        "midi": 71,
        "time": 106.25,
        "duration": 0.417,
        "velocity": 1,
        "hand": "right"
      },
      {
        "midi": 48,
        "time": 106.667,
        "duration": 0.833,
        "velocity": 1,
        "hand": "left"
      },
      {
        "midi": 67,
        "time": 106.667,
        "duration": 0.833,
        "velocity": 1,
        "hand": "right"
      },
      {
        "midi": 79,
        "time": 106.667,
        "duration": 0.208,
        "velocity": 1,
        "hand": "right"
      },
      {
        "midi": 76,
        "time": 106.875,
        "duration": 0.208,
        "velocity": 1,
        "hand": "right"
      },
      {
        "midi": 71,
        "time": 107.5,
        "duration": 0.833,
        "velocity": 1,
        "hand": "right"
      },
      {
        "midi": 49,
        "time": 107.708,
        "duration": 0.208,
        "velocity": 1,
        "hand": "left"
      },
      {
        "midi": 55,
        "time": 107.708,
        "duration": 0.208,
        "velocity": 1,
        "hand": "left"
      },
      {
        "midi": 61,
        "time": 107.917,
        "duration": 0.208,
        "velocity": 1,
        "hand": "right"
      },
      {
        "midi": 59,
        "time": 108.125,
        "duration": 0.208,
        "velocity": 1,
        "hand": "left"
      },
      {
        "midi": 65,
        "time": 108.125,
        "duration": 0.208,
        "velocity": 1,
        "hand": "right"
      },
      {
        "midi": 70,
        "time": 108.333,
        "duration": 0.417,
        "velocity": 1,
        "hand": "right"
      },
      {
        "midi": 71,
        "time": 108.75,
        "duration": 0.417,
        "velocity": 1,
        "hand": "right"
      },
      {
        "midi": 48,
        "time": 109.167,
        "duration": 0.833,
        "velocity": 1,
        "hand": "left"
      },
      {
        "midi": 64,
        "time": 109.167,
        "duration": 0.833,
        "velocity": 1,
        "hand": "right"
      },
      {
        "midi": 76,
        "time": 109.167,
        "duration": 0.417,
        "velocity": 1,
        "hand": "right"
      },
      {
        "midi": 72,
        "time": 109.583,
        "duration": 0.417,
        "velocity": 1,
        "hand": "right"
      },
      {
        "midi": 71,
        "time": 110,
        "duration": 0.833,
        "velocity": 1,
        "hand": "right"
      },
      {
        "midi": 49,
        "time": 110.208,
        "duration": 0.208,
        "velocity": 1,
        "hand": "left"
      },
      {
        "midi": 55,
        "time": 110.208,
        "duration": 0.208,
        "velocity": 1,
        "hand": "left"
      },
      {
        "midi": 61,
        "time": 110.417,
        "duration": 0.208,
        "velocity": 1,
        "hand": "right"
      },
      {
        "midi": 59,
        "time": 110.625,
        "duration": 0.208,
        "velocity": 1,
        "hand": "left"
      },
      {
        "midi": 65,
        "time": 110.625,
        "duration": 0.208,
        "velocity": 1,
        "hand": "right"
      },
      {
        "midi": 70,
        "time": 110.833,
        "duration": 0.417,
        "velocity": 1,
        "hand": "right"
      },
      {
        "midi": 71,
        "time": 111.25,
        "duration": 0.208,
        "velocity": 1,
        "hand": "right"
      },
      {
        "midi": 80,
        "time": 111.667,
        "duration": 0.208,
        "velocity": 1,
        "hand": "right"
      },
      {
        "midi": 79,
        "time": 111.875,
        "duration": 0.417,
        "velocity": 1,
        "hand": "right"
      },
      {
        "midi": 77,
        "time": 112.292,
        "duration": 0.208,
        "velocity": 1,
        "hand": "right"
      },
      {
        "midi": 77,
        "time": 112.5,
        "duration": 0.833,
        "velocity": 1,
        "hand": "right"
      },
      {
        "midi": 48,
        "time": 112.708,
        "duration": 0.208,
        "velocity": 1,
        "hand": "left"
      },
      {
        "midi": 55,
        "time": 112.708,
        "duration": 0.208,
        "velocity": 1,
        "hand": "left"
      },
      {
        "midi": 64,
        "time": 112.917,
        "duration": 0.208,
        "velocity": 1,
        "hand": "right"
      },
      {
        "midi": 67,
        "time": 113.125,
        "duration": 0.208,
        "velocity": 1,
        "hand": "right"
      },
      {
        "midi": 72,
        "time": 113.125,
        "duration": 0.208,
        "velocity": 1,
        "hand": "right"
      },
      {
        "midi": 76,
        "time": 113.333,
        "duration": 0.208,
        "velocity": 1,
        "hand": "right"
      },
      {
        "midi": 75,
        "time": 113.542,
        "duration": 0.208,
        "velocity": 1,
        "hand": "right"
      },
      {
        "midi": 76,
        "time": 113.542,
        "duration": 0.208,
        "velocity": 1,
        "hand": "right"
      },
      {
        "midi": 79,
        "time": 113.75,
        "duration": 0.208,
        "velocity": 1,
        "hand": "right"
      },
      {
        "midi": 78,
        "time": 113.958,
        "duration": 0.208,
        "velocity": 1,
        "hand": "right"
      },
      {
        "midi": 79,
        "time": 113.958,
        "duration": 0.208,
        "velocity": 1,
        "hand": "right"
      },
      {
        "midi": 84,
        "time": 114.167,
        "duration": 0.417,
        "velocity": 1,
        "hand": "right"
      },
      {
        "midi": 48,
        "time": 115,
        "duration": 2.5,
        "velocity": 1,
        "hand": "left"
      },
      {
        "midi": 64,
        "time": 115,
        "duration": 2.5,
        "velocity": 1,
        "hand": "right"
      },
      {
        "midi": 76,
        "time": 115,
        "duration": 0.833,
        "velocity": 1,
        "hand": "right"
      },
      {
        "midi": 74,
        "time": 115.833,
        "duration": 0.417,
        "velocity": 1,
        "hand": "right"
      },
      {
        "midi": 72,
        "time": 116.25,
        "duration": 0.417,
        "velocity": 1,
        "hand": "right"
      },
      {
        "midi": 71,
        "time": 116.667,
        "duration": 0.417,
        "velocity": 1,
        "hand": "right"
      },
      {
        "midi": 70,
        "time": 117.083,
        "duration": 0.417,
        "velocity": 1,
        "hand": "right"
      },
      {
        "midi": 40,
        "time": 117.708,
        "duration": 0.208,
        "velocity": 1,
        "hand": "left"
      },
      {
        "midi": 47,
        "time": 117.708,
        "duration": 0.208,
        "velocity": 1,
        "hand": "left"
      },
      {
        "midi": 55,
        "time": 117.917,
        "duration": 0.208,
        "velocity": 1,
        "hand": "left"
      },
      {
        "midi": 59,
        "time": 118.125,
        "duration": 0.208,
        "velocity": 1,
        "hand": "left"
      },
      {
        "midi": 64,
        "time": 118.125,
        "duration": 0.208,
        "velocity": 1,
        "hand": "right"
      },
      {
        "midi": 69,
        "time": 118.333,
        "duration": 0.208,
        "velocity": 1,
        "hand": "right"
      },
      {
        "midi": 64,
        "time": 118.542,
        "duration": 0.208,
        "velocity": 1,
        "hand": "right"
      },
      {
        "midi": 67,
        "time": 118.542,
        "duration": 0.208,
        "velocity": 1,
        "hand": "right"
      },
      {
        "midi": 70,
        "time": 118.75,
        "duration": 0.208,
        "velocity": 1,
        "hand": "right"
      },
      {
        "midi": 71,
        "time": 118.958,
        "duration": 0.208,
        "velocity": 1,
        "hand": "right"
      },
      {
        "midi": 76,
        "time": 118.958,
        "duration": 0.208,
        "velocity": 1,
        "hand": "right"
      },
      {
        "midi": 78,
        "time": 119.167,
        "duration": 0.208,
        "velocity": 1,
        "hand": "right"
      },
      {
        "midi": 79,
        "time": 119.375,
        "duration": 0.208,
        "velocity": 1,
        "hand": "right"
      },
      {
        "midi": 83,
        "time": 119.375,
        "duration": 0.208,
        "velocity": 1,
        "hand": "right"
      },
      {
        "midi": 88,
        "time": 119.583,
        "duration": 0.417,
        "velocity": 1,
        "hand": "right"
      },
      {
        "midi": 48,
        "time": 120,
        "duration": 2.5,
        "velocity": 1,
        "hand": "left"
      },
      {
        "midi": 64,
        "time": 120,
        "duration": 2.5,
        "velocity": 1,
        "hand": "right"
      },
      {
        "midi": 76,
        "time": 120,
        "duration": 0.833,
        "velocity": 1,
        "hand": "right"
      },
      {
        "midi": 74,
        "time": 120.833,
        "duration": 0.417,
        "velocity": 1,
        "hand": "right"
      },
      {
        "midi": 72,
        "time": 121.25,
        "duration": 0.417,
        "velocity": 1,
        "hand": "right"
      },
      {
        "midi": 71,
        "time": 121.667,
        "duration": 0.417,
        "velocity": 1,
        "hand": "right"
      },
      {
        "midi": 70,
        "time": 122.083,
        "duration": 0.417,
        "velocity": 1,
        "hand": "right"
      },
      {
        "midi": 40,
        "time": 122.708,
        "duration": 0.208,
        "velocity": 1,
        "hand": "left"
      },
      {
        "midi": 47,
        "time": 122.708,
        "duration": 0.208,
        "velocity": 1,
        "hand": "left"
      },
      {
        "midi": 55,
        "time": 122.917,
        "duration": 0.208,
        "velocity": 1,
        "hand": "left"
      },
      {
        "midi": 59,
        "time": 123.125,
        "duration": 0.208,
        "velocity": 1,
        "hand": "left"
      },
      {
        "midi": 64,
        "time": 123.125,
        "duration": 0.208,
        "velocity": 1,
        "hand": "right"
      },
      {
        "midi": 69,
        "time": 123.333,
        "duration": 0.208,
        "velocity": 1,
        "hand": "right"
      },
      {
        "midi": 64,
        "time": 123.542,
        "duration": 0.208,
        "velocity": 1,
        "hand": "right"
      },
      {
        "midi": 67,
        "time": 123.542,
        "duration": 0.208,
        "velocity": 1,
        "hand": "right"
      },
      {
        "midi": 60,
        "time": 123.75,
        "duration": 0.208,
        "velocity": 1,
        "hand": "right"
      },
      {
        "midi": 55,
        "time": 123.958,
        "duration": 0.208,
        "velocity": 1,
        "hand": "left"
      },
      {
        "midi": 59,
        "time": 123.958,
        "duration": 0.208,
        "velocity": 1,
        "hand": "left"
      },
      {
        "midi": 48,
        "time": 124.167,
        "duration": 0.208,
        "velocity": 1,
        "hand": "left"
      },
      {
        "midi": 43,
        "time": 124.375,
        "duration": 0.208,
        "velocity": 1,
        "hand": "left"
      },
      {
        "midi": 47,
        "time": 124.375,
        "duration": 0.208,
        "velocity": 1,
        "hand": "left"
      },
      {
        "midi": 40,
        "time": 124.583,
        "duration": 0.417,
        "velocity": 1,
        "hand": "left"
      },
      {
        "midi": 76,
        "time": 125,
        "duration": 0.833,
        "velocity": 1,
        "hand": "right"
      },
      {
        "midi": 48,
        "time": 125.833,
        "duration": 1.667,
        "velocity": 1,
        "hand": "left"
      },
      {
        "midi": 64,
        "time": 125.833,
        "duration": 1.667,
        "velocity": 1,
        "hand": "right"
      },
      {
        "midi": 74,
        "time": 125.833,
        "duration": 0.417,
        "velocity": 1,
        "hand": "right"
      },
      {
        "midi": 72,
        "time": 126.25,
        "duration": 0.417,
        "velocity": 1,
        "hand": "right"
      },
      {
        "midi": 71,
        "time": 126.667,
        "duration": 0.417,
        "velocity": 1,
        "hand": "right"
      },
      {
        "midi": 70,
        "time": 127.083,
        "duration": 0.417,
        "velocity": 1,
        "hand": "right"
      },
      {
        "midi": 76,
        "time": 127.917,
        "duration": 0.417,
        "velocity": 1,
        "hand": "right"
      },
      {
        "midi": 48,
        "time": 128.333,
        "duration": 1.667,
        "velocity": 1,
        "hand": "left"
      },
      {
        "midi": 60,
        "time": 128.333,
        "duration": 1.667,
        "velocity": 1,
        "hand": "right"
      },
      {
        "midi": 66,
        "time": 128.333,
        "duration": 1.667,
        "velocity": 1,
        "hand": "right"
      },
      {
        "midi": 68,
        "time": 128.75,
        "duration": 0.417,
        "velocity": 1,
        "hand": "right"
      },
      {
        "midi": 69,
        "time": 129.167,
        "duration": 0.417,
        "velocity": 1,
        "hand": "right"
      },
      {
        "midi": 70,
        "time": 129.583,
        "duration": 0.417,
        "velocity": 1,
        "hand": "right"
      },
      {
        "midi": 78,
        "time": 130,
        "duration": 0.833,
        "velocity": 1,
        "hand": "right"
      },
      {
        "midi": 47,
        "time": 130.208,
        "duration": 0.208,
        "velocity": 1,
        "hand": "left"
      },
      {
        "midi": 55,
        "time": 130.208,
        "duration": 0.208,
        "velocity": 1,
        "hand": "left"
      },
      {
        "midi": 63,
        "time": 130.417,
        "duration": 0.208,
        "velocity": 1,
        "hand": "right"
      },
      {
        "midi": 66,
        "time": 130.625,
        "duration": 0.208,
        "velocity": 1,
        "hand": "right"
      },
      {
        "midi": 71,
        "time": 130.625,
        "duration": 0.208,
        "velocity": 1,
        "hand": "right"
      },
      {
        "midi": 74,
        "time": 130.833,
        "duration": 0.833,
        "velocity": 1,
        "hand": "right"
      },
      {
        "midi": 47,
        "time": 131.042,
        "duration": 0.208,
        "velocity": 1,
        "hand": "left"
      },
      {
        "midi": 55,
        "time": 131.042,
        "duration": 0.208,
        "velocity": 1,
        "hand": "left"
      },
      {
        "midi": 59,
        "time": 131.25,
        "duration": 0.208,
        "velocity": 1,
        "hand": "left"
      },
      {
        "midi": 62,
        "time": 131.458,
        "duration": 0.208,
        "velocity": 1,
        "hand": "right"
      },
      {
        "midi": 67,
        "time": 131.458,
        "duration": 0.208,
        "velocity": 1,
        "hand": "right"
      },
      {
        "midi": 75,
        "time": 131.667,
        "duration": 0.833,
        "velocity": 1,
        "hand": "right"
      },
      {
        "midi": 47,
        "time": 131.875,
        "duration": 0.208,
        "velocity": 1,
        "hand": "left"
      },
      {
        "midi": 55,
        "time": 131.875,
        "duration": 0.208,
        "velocity": 1,
        "hand": "left"
      },
      {
        "midi": 59,
        "time": 132.083,
        "duration": 0.208,
        "velocity": 1,
        "hand": "left"
      },
      {
        "midi": 63,
        "time": 132.292,
        "duration": 0.208,
        "velocity": 1,
        "hand": "right"
      },
      {
        "midi": 66,
        "time": 132.292,
        "duration": 0.208,
        "velocity": 1,
        "hand": "right"
      },
      {
        "midi": 68,
        "time": 132.5,
        "duration": 0.833,
        "velocity": 1,
        "hand": "right"
      },
      {
        "midi": 47,
        "time": 132.708,
        "duration": 0.208,
        "velocity": 1,
        "hand": "left"
      },
      {
        "midi": 53,
        "time": 132.708,
        "duration": 0.208,
        "velocity": 1,
        "hand": "left"
      },
      {
        "midi": 59,
        "time": 132.917,
        "duration": 0.208,
        "velocity": 1,
        "hand": "left"
      },
      {
        "midi": 61,
        "time": 133.125,
        "duration": 0.208,
        "velocity": 1,
        "hand": "right"
      },
      {
        "midi": 65,
        "time": 133.125,
        "duration": 0.208,
        "velocity": 1,
        "hand": "right"
      },
      {
        "midi": 70,
        "time": 133.333,
        "duration": 0.417,
        "velocity": 1,
        "hand": "right"
      },
      {
        "midi": 71,
        "time": 133.75,
        "duration": 0.417,
        "velocity": 1,
        "hand": "right"
      },
      {
        "midi": 47,
        "time": 134.167,
        "duration": 0.833,
        "velocity": 1,
        "hand": "left"
      },
      {
        "midi": 64,
        "time": 134.167,
        "duration": 0.833,
        "velocity": 1,
        "hand": "right"
      },
      {
        "midi": 75,
        "time": 134.167,
        "duration": 0.417,
        "velocity": 1,
        "hand": "right"
      },
      {
        "midi": 73,
        "time": 134.583,
        "duration": 0.417,
        "velocity": 1,
        "hand": "right"
      },
      {
        "midi": 78,
        "time": 135,
        "duration": 0.833,
        "velocity": 1,
        "hand": "right"
      },
      {
        "midi": 47,
        "time": 135.208,
        "duration": 0.208,
        "velocity": 1,
        "hand": "left"
      },
      {
        "midi": 55,
        "time": 135.208,
        "duration": 0.208,
        "velocity": 1,
        "hand": "left"
      },
      {
        "midi": 63,
        "time": 135.417,
        "duration": 0.208,
        "velocity": 1,
        "hand": "right"
      },
      {
        "midi": 66,
        "time": 135.625,
        "duration": 0.208,
        "velocity": 1,
        "hand": "right"
      },
      {
        "midi": 71,
        "time": 135.625,
        "duration": 0.208,
        "velocity": 1,
        "hand": "right"
      },
      {
        "midi": 74,
        "time": 135.833,
        "duration": 0.833,
        "velocity": 1,
        "hand": "right"
      },
      {
        "midi": 47,
        "time": 136.042,
        "duration": 0.208,
        "velocity": 1,
        "hand": "left"
      },
      {
        "midi": 55,
        "time": 136.042,
        "duration": 0.208,
        "velocity": 1,
        "hand": "left"
      },
      {
        "midi": 59,
        "time": 136.25,
        "duration": 0.208,
        "velocity": 1,
        "hand": "left"
      },
      {
        "midi": 62,
        "time": 136.458,
        "duration": 0.208,
        "velocity": 1,
        "hand": "right"
      },
      {
        "midi": 67,
        "time": 136.458,
        "duration": 0.208,
        "velocity": 1,
        "hand": "right"
      },
      {
        "midi": 75,
        "time": 136.667,
        "duration": 0.833,
        "velocity": 1,
        "hand": "right"
      },
      {
        "midi": 47,
        "time": 136.875,
        "duration": 0.208,
        "velocity": 1,
        "hand": "left"
      },
      {
        "midi": 55,
        "time": 136.875,
        "duration": 0.208,
        "velocity": 1,
        "hand": "left"
      },
      {
        "midi": 59,
        "time": 137.083,
        "duration": 0.208,
        "velocity": 1,
        "hand": "left"
      },
      {
        "midi": 63,
        "time": 137.292,
        "duration": 0.208,
        "velocity": 1,
        "hand": "right"
      },
      {
        "midi": 66,
        "time": 137.292,
        "duration": 0.208,
        "velocity": 1,
        "hand": "right"
      },
      {
        "midi": 68,
        "time": 137.5,
        "duration": 0.833,
        "velocity": 1,
        "hand": "right"
      },
      {
        "midi": 47,
        "time": 137.708,
        "duration": 0.208,
        "velocity": 1,
        "hand": "left"
      },
      {
        "midi": 53,
        "time": 137.708,
        "duration": 0.208,
        "velocity": 1,
        "hand": "left"
      },
      {
        "midi": 59,
        "time": 137.917,
        "duration": 0.208,
        "velocity": 1,
        "hand": "left"
      },
      {
        "midi": 61,
        "time": 138.125,
        "duration": 0.208,
        "velocity": 1,
        "hand": "right"
      },
      {
        "midi": 65,
        "time": 138.125,
        "duration": 0.208,
        "velocity": 1,
        "hand": "right"
      },
      {
        "midi": 70,
        "time": 138.333,
        "duration": 0.417,
        "velocity": 1,
        "hand": "right"
      },
      {
        "midi": 71,
        "time": 138.75,
        "duration": 0.417,
        "velocity": 1,
        "hand": "right"
      },
      {
        "midi": 47,
        "time": 139.167,
        "duration": 0.833,
        "velocity": 1,
        "hand": "left"
      },
      {
        "midi": 64,
        "time": 139.167,
        "duration": 0.833,
        "velocity": 1,
        "hand": "right"
      },
      {
        "midi": 75,
        "time": 139.167,
        "duration": 0.417,
        "velocity": 1,
        "hand": "right"
      },
      {
        "midi": 73,
        "time": 139.583,
        "duration": 0.417,
        "velocity": 1,
        "hand": "right"
      },
      {
        "midi": 78,
        "time": 140,
        "duration": 0.833,
        "velocity": 1,
        "hand": "right"
      },
      {
        "midi": 47,
        "time": 140.208,
        "duration": 0.208,
        "velocity": 1,
        "hand": "left"
      },
      {
        "midi": 55,
        "time": 140.208,
        "duration": 0.208,
        "velocity": 1,
        "hand": "left"
      },
      {
        "midi": 63,
        "time": 140.417,
        "duration": 0.208,
        "velocity": 1,
        "hand": "right"
      },
      {
        "midi": 66,
        "time": 140.625,
        "duration": 0.208,
        "velocity": 1,
        "hand": "right"
      },
      {
        "midi": 71,
        "time": 140.625,
        "duration": 0.208,
        "velocity": 1,
        "hand": "right"
      },
      {
        "midi": 74,
        "time": 140.833,
        "duration": 0.833,
        "velocity": 1,
        "hand": "right"
      },
      {
        "midi": 47,
        "time": 141.042,
        "duration": 0.208,
        "velocity": 1,
        "hand": "left"
      },
      {
        "midi": 55,
        "time": 141.042,
        "duration": 0.208,
        "velocity": 1,
        "hand": "left"
      },
      {
        "midi": 59,
        "time": 141.25,
        "duration": 0.208,
        "velocity": 1,
        "hand": "left"
      },
      {
        "midi": 62,
        "time": 141.458,
        "duration": 0.208,
        "velocity": 1,
        "hand": "right"
      },
      {
        "midi": 67,
        "time": 141.458,
        "duration": 0.208,
        "velocity": 1,
        "hand": "right"
      },
      {
        "midi": 75,
        "time": 141.667,
        "duration": 0.833,
        "velocity": 1,
        "hand": "right"
      },
      {
        "midi": 47,
        "time": 141.875,
        "duration": 0.208,
        "velocity": 1,
        "hand": "left"
      },
      {
        "midi": 55,
        "time": 141.875,
        "duration": 0.208,
        "velocity": 1,
        "hand": "left"
      },
      {
        "midi": 59,
        "time": 142.083,
        "duration": 0.208,
        "velocity": 1,
        "hand": "left"
      },
      {
        "midi": 63,
        "time": 142.292,
        "duration": 0.208,
        "velocity": 1,
        "hand": "right"
      },
      {
        "midi": 66,
        "time": 142.292,
        "duration": 0.208,
        "velocity": 1,
        "hand": "right"
      },
      {
        "midi": 67,
        "time": 142.5,
        "duration": 0.833,
        "velocity": 1,
        "hand": "right"
      },
      {
        "midi": 47,
        "time": 142.708,
        "duration": 0.208,
        "velocity": 1,
        "hand": "left"
      },
      {
        "midi": 53,
        "time": 142.708,
        "duration": 0.208,
        "velocity": 1,
        "hand": "left"
      },
      {
        "midi": 55,
        "time": 142.917,
        "duration": 0.208,
        "velocity": 1,
        "hand": "left"
      },
      {
        "midi": 59,
        "time": 143.125,
        "duration": 0.208,
        "velocity": 1,
        "hand": "left"
      },
      {
        "midi": 62,
        "time": 143.125,
        "duration": 0.208,
        "velocity": 1,
        "hand": "right"
      },
      {
        "midi": 66,
        "time": 143.333,
        "duration": 0.833,
        "velocity": 1,
        "hand": "right"
      },
      {
        "midi": 47,
        "time": 143.542,
        "duration": 0.208,
        "velocity": 1,
        "hand": "left"
      },
      {
        "midi": 55,
        "time": 143.542,
        "duration": 0.208,
        "velocity": 1,
        "hand": "left"
      },
      {
        "midi": 59,
        "time": 143.75,
        "duration": 0.208,
        "velocity": 1,
        "hand": "left"
      },
      {
        "midi": 62,
        "time": 143.958,
        "duration": 0.208,
        "velocity": 1,
        "hand": "right"
      },
      {
        "midi": 63,
        "time": 143.958,
        "duration": 0.208,
        "velocity": 1,
        "hand": "right"
      },
      {
        "midi": 55,
        "time": 144.167,
        "duration": 0.833,
        "velocity": 1,
        "hand": "left"
      },
      {
        "midi": 35,
        "time": 144.375,
        "duration": 0.208,
        "velocity": 1,
        "hand": "left"
      },
      {
        "midi": 41,
        "time": 144.375,
        "duration": 0.208,
        "velocity": 1,
        "hand": "left"
      },
      {
        "midi": 43,
        "time": 144.583,
        "duration": 0.208,
        "velocity": 1,
        "hand": "left"
      },
      {
        "midi": 47,
        "time": 144.792,
        "duration": 0.208,
        "velocity": 1,
        "hand": "left"
      },
      {
        "midi": 50,
        "time": 144.792,
        "duration": 0.208,
        "velocity": 1,
        "hand": "left"
      },
      {
        "midi": 54,
        "time": 145,
        "duration": 0.625,
        "velocity": 1,
        "hand": "left"
      },
      {
        "midi": 35,
        "time": 145.208,
        "duration": 0.208,
        "velocity": 1,
        "hand": "left"
      },
      {
        "midi": 42,
        "time": 145.208,
        "duration": 0.208,
        "velocity": 1,
        "hand": "left"
      },
      {
        "midi": 51,
        "time": 145.417,
        "duration": 0.208,
        "velocity": 1,
        "hand": "left"
      },
      {
        "midi": 53,
        "time": 145.625,
        "duration": 0.208,
        "velocity": 1,
        "hand": "left"
      },
      {
        "midi": 54,
        "time": 145.625,
        "duration": 0.208,
        "velocity": 1,
        "hand": "left"
      },
      {
        "midi": 55,
        "time": 145.833,
        "duration": 0.208,
        "velocity": 1,
        "hand": "left"
      },
      {
        "midi": 56,
        "time": 146.042,
        "duration": 0.208,
        "velocity": 1,
        "hand": "left"
      },
      {
        "midi": 57,
        "time": 146.25,
        "duration": 0.208,
        "velocity": 1,
        "hand": "left"
      },
      {
        "midi": 58,
        "time": 146.458,
        "duration": 0.208,
        "velocity": 1,
        "hand": "left"
      },
      {
        "midi": 59,
        "time": 146.667,
        "duration": 0.208,
        "velocity": 1,
        "hand": "left"
      },
      {
        "midi": 61,
        "time": 146.875,
        "duration": 0.417,
        "velocity": 1,
        "hand": "right"
      },
      {
        "midi": 62,
        "time": 147.292,
        "duration": 0.625,
        "velocity": 1,
        "hand": "right"
      },
      {
        "midi": 63,
        "time": 147.917,
        "duration": 0.833,
        "velocity": 1,
        "hand": "right"
      },
      {
        "midi": 64,
        "time": 148.75,
        "duration": 0.417,
        "velocity": 1,
        "hand": "right"
      },
      {
        "midi": 65,
        "time": 149.167,
        "duration": 0.417,
        "velocity": 1,
        "hand": "right"
      },
      {
        "midi": 66,
        "time": 149.583,
        "duration": 0.417,
        "velocity": 1,
        "hand": "right"
      },
      {
        "midi": 66,
        "time": 152.5,
        "duration": 0.417,
        "velocity": 1,
        "hand": "right"
      },
      {
        "midi": 68,
        "time": 152.917,
        "duration": 0.208,
        "velocity": 1,
        "hand": "right"
      },
      {
        "midi": 69,
        "time": 153.125,
        "duration": 0.208,
        "velocity": 1,
        "hand": "right"
      },
      {
        "midi": 50,
        "time": 153.333,
        "duration": 0.833,
        "velocity": 1,
        "hand": "left"
      },
      {
        "midi": 59,
        "time": 153.333,
        "duration": 0.833,
        "velocity": 1,
        "hand": "left"
      },
      {
        "midi": 68,
        "time": 153.333,
        "duration": 0.417,
        "velocity": 1,
        "hand": "right"
      },
      {
        "midi": 71,
        "time": 153.75,
        "duration": 0.417,
        "velocity": 1,
        "hand": "right"
      },
      {
        "midi": 49,
        "time": 154.167,
        "duration": 0.833,
        "velocity": 1,
        "hand": "left"
      },
      {
        "midi": 64,
        "time": 154.167,
        "duration": 1.667,
        "velocity": 1,
        "hand": "right"
      },
      {
        "midi": 69,
        "time": 154.583,
        "duration": 0.417,
        "velocity": 1,
        "hand": "right"
      },
      {
        "midi": 47,
        "time": 155,
        "duration": 0.417,
        "velocity": 1,
        "hand": "left"
      },
      {
        "midi": 68,
        "time": 155,
        "duration": 0.417,
        "velocity": 1,
        "hand": "right"
      },
      {
        "midi": 71,
        "time": 155,
        "duration": 0.417,
        "velocity": 1,
        "hand": "right"
      },
      {
        "midi": 45,
        "time": 155.417,
        "duration": 0.417,
        "velocity": 1,
        "hand": "left"
      },
      {
        "midi": 69,
        "time": 155.417,
        "duration": 0.417,
        "velocity": 1,
        "hand": "right"
      },
      {
        "midi": 73,
        "time": 155.417,
        "duration": 0.417,
        "velocity": 1,
        "hand": "right"
      },
      {
        "midi": 44,
        "time": 155.833,
        "duration": 0.833,
        "velocity": 1,
        "hand": "left"
      },
      {
        "midi": 64,
        "time": 155.833,
        "duration": 1.667,
        "velocity": 1,
        "hand": "right"
      },
      {
        "midi": 76,
        "time": 155.833,
        "duration": 0.833,
        "velocity": 1,
        "hand": "right"
      },
      {
        "midi": 45,
        "time": 156.667,
        "duration": 0.833,
        "velocity": 1,
        "hand": "left"
      },
      {
        "midi": 69,
        "time": 156.667,
        "duration": 0.833,
        "velocity": 1,
        "hand": "right"
      },
      {
        "midi": 73,
        "time": 156.667,
        "duration": 0.833,
        "velocity": 1,
        "hand": "right"
      },
      {
        "midi": 73,
        "time": 157.5,
        "duration": 0.417,
        "velocity": 1,
        "hand": "right"
      },
      {
        "midi": 74,
        "time": 157.917,
        "duration": 0.208,
        "velocity": 1,
        "hand": "right"
      },
      {
        "midi": 76,
        "time": 158.125,
        "duration": 0.208,
        "velocity": 1,
        "hand": "right"
      },
      {
        "midi": 46,
        "time": 158.333,
        "duration": 0.833,
        "velocity": 1,
        "hand": "left"
      },
      {
        "midi": 66,
        "time": 158.333,
        "duration": 0.833,
        "velocity": 1,
        "hand": "right"
      },
      {
        "midi": 78,
        "time": 158.333,
        "duration": 0.417,
        "velocity": 1,
        "hand": "right"
      },
      {
        "midi": 73,
        "time": 158.75,
        "duration": 0.417,
        "velocity": 1,
        "hand": "right"
      },
      {
        "midi": 47,
        "time": 159.167,
        "duration": 0.833,
        "velocity": 1,
        "hand": "left"
      },
      {
        "midi": 66,
        "time": 159.167,
        "duration": 0.833,
        "velocity": 1,
        "hand": "right"
      },
      {
        "midi": 74,
        "time": 159.167,
        "duration": 0.833,
        "velocity": 1,
        "hand": "right"
      },
      {
        "midi": 66,
        "time": 160,
        "duration": 0.417,
        "velocity": 1,
        "hand": "right"
      },
      {
        "midi": 68,
        "time": 160.417,
        "duration": 0.208,
        "velocity": 1,
        "hand": "right"
      },
      {
        "midi": 69,
        "time": 160.625,
        "duration": 0.208,
        "velocity": 1,
        "hand": "right"
      },
      {
        "midi": 47,
        "time": 160.833,
        "duration": 0.833,
        "velocity": 1,
        "hand": "left"
      },
      {
        "midi": 63,
        "time": 160.833,
        "duration": 0.833,
        "velocity": 1,
        "hand": "right"
      },
      {
        "midi": 73,
        "time": 160.833,
        "duration": 0.417,
        "velocity": 1,
        "hand": "right"
      },
      {
        "midi": 70,
        "time": 161.25,
        "duration": 0.833,
        "velocity": 1,
        "hand": "right"
      },
      {
        "midi": 52,
        "time": 161.667,
        "duration": 0.833,
        "velocity": 1,
        "hand": "left"
      },
      {
        "midi": 56,
        "time": 161.667,
        "duration": 0.833,
        "velocity": 1,
        "hand": "left"
      },
      {
        "midi": 62,
        "time": 161.667,
        "duration": 0.833,
        "velocity": 1,
        "hand": "right"
      },
      {
        "midi": 71,
        "time": 162.083,
        "duration": 0.417,
        "velocity": 1,
        "hand": "right"
      },
      {
        "midi": 66,
        "time": 162.5,
        "duration": 0.417,
        "velocity": 1,
        "hand": "right"
      },
      {
        "midi": 68,
        "time": 162.917,
        "duration": 0.208,
        "velocity": 1,
        "hand": "right"
      },
      {
        "midi": 69,
        "time": 163.125,
        "duration": 0.208,
        "velocity": 1,
        "hand": "right"
      },
      {
        "midi": 50,
        "time": 163.333,
        "duration": 0.833,
        "velocity": 1,
        "hand": "left"
      },
      {
        "midi": 59,
        "time": 163.333,
        "duration": 0.833,
        "velocity": 1,
        "hand": "left"
      },
      {
        "midi": 68,
        "time": 163.333,
        "duration": 0.417,
        "velocity": 1,
        "hand": "right"
      },
      {
        "midi": 71,
        "time": 163.75,
        "duration": 0.417,
        "velocity": 1,
        "hand": "right"
      },
      {
        "midi": 49,
        "time": 164.167,
        "duration": 0.833,
        "velocity": 1,
        "hand": "left"
      },
      {
        "midi": 64,
        "time": 164.167,
        "duration": 1.667,
        "velocity": 1,
        "hand": "right"
      },
      {
        "midi": 69,
        "time": 164.583,
        "duration": 0.417,
        "velocity": 1,
        "hand": "right"
      },
      {
        "midi": 47,
        "time": 165,
        "duration": 0.417,
        "velocity": 1,
        "hand": "left"
      },
      {
        "midi": 68,
        "time": 165,
        "duration": 0.417,
        "velocity": 1,
        "hand": "right"
      },
      {
        "midi": 71,
        "time": 165,
        "duration": 0.417,
        "velocity": 1,
        "hand": "right"
      },
      {
        "midi": 45,
        "time": 165.417,
        "duration": 0.417,
        "velocity": 1,
        "hand": "left"
      },
      {
        "midi": 69,
        "time": 165.417,
        "duration": 0.417,
        "velocity": 1,
        "hand": "right"
      },
      {
        "midi": 73,
        "time": 165.417,
        "duration": 0.417,
        "velocity": 1,
        "hand": "right"
      },
      {
        "midi": 44,
        "time": 165.833,
        "duration": 0.833,
        "velocity": 1,
        "hand": "left"
      },
      {
        "midi": 64,
        "time": 165.833,
        "duration": 1.667,
        "velocity": 1,
        "hand": "right"
      },
      {
        "midi": 76,
        "time": 165.833,
        "duration": 0.833,
        "velocity": 1,
        "hand": "right"
      },
      {
        "midi": 45,
        "time": 166.667,
        "duration": 0.833,
        "velocity": 1,
        "hand": "left"
      },
      {
        "midi": 69,
        "time": 166.667,
        "duration": 0.833,
        "velocity": 1,
        "hand": "right"
      },
      {
        "midi": 73,
        "time": 166.667,
        "duration": 0.833,
        "velocity": 1,
        "hand": "right"
      },
      {
        "midi": 73,
        "time": 167.5,
        "duration": 0.417,
        "velocity": 1,
        "hand": "right"
      },
      {
        "midi": 75,
        "time": 167.917,
        "duration": 0.208,
        "velocity": 1,
        "hand": "right"
      },
      {
        "midi": 76,
        "time": 168.125,
        "duration": 0.208,
        "velocity": 1,
        "hand": "right"
      },
      {
        "midi": 47,
        "time": 168.333,
        "duration": 2.5,
        "velocity": 1,
        "hand": "left"
      },
      {
        "midi": 64,
        "time": 168.333,
        "duration": 0.833,
        "velocity": 1,
        "hand": "right"
      },
      {
        "midi": 68,
        "time": 168.333,
        "duration": 0.417,
        "velocity": 1,
        "hand": "right"
      },
      {
        "midi": 73,
        "time": 168.75,
        "duration": 0.417,
        "velocity": 1,
        "hand": "right"
      },
      {
        "midi": 57,
        "time": 169.167,
        "duration": 0.417,
        "velocity": 1,
        "hand": "left"
      },
      {
        "midi": 66,
        "time": 169.167,
        "duration": 0.833,
        "velocity": 1,
        "hand": "right"
      },
      {
        "midi": 71,
        "time": 169.167,
        "duration": 0.833,
        "velocity": 1,
        "hand": "right"
      },
      {
        "midi": 59,
        "time": 169.583,
        "duration": 0.417,
        "velocity": 1,
        "hand": "left"
      },
      {
        "midi": 56,
        "time": 170,
        "duration": 0.833,
        "velocity": 1,
        "hand": "left"
      },
      {
        "midi": 71,
        "time": 170,
        "duration": 0.833,
        "velocity": 1,
        "hand": "right"
      },
      {
        "midi": 73,
        "time": 170,
        "duration": 0.417,
        "velocity": 1,
        "hand": "right"
      },
      {
        "midi": 75,
        "time": 170.417,
        "duration": 0.208,
        "velocity": 1,
        "hand": "right"
      },
      {
        "midi": 76,
        "time": 170.625,
        "duration": 0.208,
        "velocity": 1,
        "hand": "right"
      },
      {
        "midi": 47,
        "time": 170.833,
        "duration": 2.083,
        "velocity": 1,
        "hand": "left"
      },
      {
        "midi": 64,
        "time": 170.833,
        "duration": 0.833,
        "velocity": 1,
        "hand": "right"
      },
      {
        "midi": 68,
        "time": 170.833,
        "duration": 0.417,
        "velocity": 1,
        "hand": "right"
      },
      {
        "midi": 73,
        "time": 171.25,
        "duration": 0.417,
        "velocity": 1,
        "hand": "right"
      },
      {
        "midi": 57,
        "time": 171.667,
        "duration": 0.417,
        "velocity": 1,
        "hand": "left"
      },
      {
        "midi": 66,
        "time": 171.667,
        "duration": 0.833,
        "velocity": 1,
        "hand": "right"
      },
      {
        "midi": 71,
        "time": 171.667,
        "duration": 0.833,
        "velocity": 1,
        "hand": "right"
      },
      {
        "midi": 59,
        "time": 172.083,
        "duration": 0.417,
        "velocity": 1,
        "hand": "left"
      },
      {
        "midi": 56,
        "time": 172.5,
        "duration": 0.417,
        "velocity": 1,
        "hand": "left"
      },
      {
        "midi": 71,
        "time": 172.5,
        "duration": 0.417,
        "velocity": 1,
        "hand": "right"
      },
      {
        "midi": 73,
        "time": 172.5,
        "duration": 0.417,
        "velocity": 1,
        "hand": "right"
      },
      {
        "midi": 75,
        "time": 172.917,
        "duration": 0.208,
        "velocity": 1,
        "hand": "right"
      },
      {
        "midi": 76,
        "time": 173.125,
        "duration": 0.208,
        "velocity": 1,
        "hand": "right"
      },
      {
        "midi": 80,
        "time": 173.333,
        "duration": 0.417,
        "velocity": 1,
        "hand": "right"
      },
      {
        "midi": 76,
        "time": 173.75,
        "duration": 0.417,
        "velocity": 1,
        "hand": "right"
      },
      {
        "midi": 75,
        "time": 174.167,
        "duration": 0.417,
        "velocity": 1,
        "hand": "right"
      },
      {
        "midi": 73,
        "time": 174.583,
        "duration": 0.417,
        "velocity": 1,
        "hand": "right"
      },
      {
        "midi": 54,
        "time": 175,
        "duration": 0.417,
        "velocity": 1,
        "hand": "left"
      },
      {
        "midi": 66,
        "time": 175,
        "duration": 0.833,
        "velocity": 1,
        "hand": "right"
      },
      {
        "midi": 73,
        "time": 175,
        "duration": 0.833,
        "velocity": 1,
        "hand": "right"
      },
      {
        "midi": 56,
        "time": 175.417,
        "duration": 0.208,
        "velocity": 1,
        "hand": "left"
      },
      {
        "midi": 57,
        "time": 175.625,
        "duration": 0.208,
        "velocity": 1,
        "hand": "left"
      },
      {
        "midi": 47,
        "time": 175.833,
        "duration": 0.833,
        "velocity": 1,
        "hand": "left"
      },
      {
        "midi": 63,
        "time": 175.833,
        "duration": 0.833,
        "velocity": 1,
        "hand": "right"
      },
      {
        "midi": 66,
        "time": 175.833,
        "duration": 0.833,
        "velocity": 1,
        "hand": "right"
      },
      {
        "midi": 59,
        "time": 176.25,
        "duration": 0.417,
        "velocity": 1,
        "hand": "left"
      },
      {
        "midi": 52,
        "time": 176.667,
        "duration": 0.833,
        "velocity": 1,
        "hand": "left"
      },
      {
        "midi": 59,
        "time": 176.667,
        "duration": 0.833,
        "velocity": 1,
        "hand": "left"
      },
      {
        "midi": 64,
        "time": 176.667,
        "duration": 0.833,
        "velocity": 1,
        "hand": "right"
      },
      {
        "midi": 56,
        "time": 177.083,
        "duration": 0.417,
        "velocity": 1,
        "hand": "left"
      },
      {
        "midi": 40,
        "time": 177.5,
        "duration": 0.417,
        "velocity": 1,
        "hand": "left"
      },
      {
        "midi": 74,
        "time": 177.5,
        "duration": 0.417,
        "velocity": 1,
        "hand": "right"
      },
      {
        "midi": 52,
        "time": 177.708,
        "duration": 0.208,
        "velocity": 1,
        "hand": "left"
      },
      {
        "midi": 54,
        "time": 177.917,
        "duration": 0.208,
        "velocity": 1,
        "hand": "left"
      },
      {
        "midi": 73,
        "time": 177.917,
        "duration": 0.208,
        "velocity": 1,
        "hand": "right"
      },
      {
        "midi": 56,
        "time": 178.125,
        "duration": 0.208,
        "velocity": 1,
        "hand": "left"
      },
      {
        "midi": 71,
        "time": 178.125,
        "duration": 0.208,
        "velocity": 1,
        "hand": "right"
      },
      {
        "midi": 52,
        "time": 178.333,
        "duration": 1.667,
        "velocity": 1,
        "hand": "left"
      },
      {
        "midi": 63,
        "time": 178.333,
        "duration": 0.833,
        "velocity": 1,
        "hand": "right"
      },
      {
        "midi": 66,
        "time": 178.333,
        "duration": 0.417,
        "velocity": 1,
        "hand": "right"
      },
      {
        "midi": 59,
        "time": 178.542,
        "duration": 0.208,
        "velocity": 1,
        "hand": "left"
      },
      {
        "midi": 60,
        "time": 178.75,
        "duration": 0.833,
        "velocity": 1,
        "hand": "right"
      },
      {
        "midi": 69,
        "time": 178.75,
        "duration": 0.417,
        "velocity": 1,
        "hand": "right"
      },
      {
        "midi": 64,
        "time": 179.167,
        "duration": 0.833,
        "velocity": 1,
        "hand": "right"
      },
      {
        "midi": 68,
        "time": 179.167,
        "duration": 0.833,
        "velocity": 1,
        "hand": "right"
      },
      {
        "midi": 59,
        "time": 179.583,
        "duration": 0.417,
        "velocity": 1,
        "hand": "left"
      },
      {
        "midi": 45,
        "time": 180,
        "duration": 0.417,
        "velocity": 1,
        "hand": "left"
      },
      {
        "midi": 61,
        "time": 180,
        "duration": 0.417,
        "velocity": 1,
        "hand": "right"
      },
      {
        "midi": 66,
        "time": 180,
        "duration": 0.417,
        "velocity": 1,
        "hand": "right"
      },
      {
        "midi": 44,
        "time": 180.417,
        "duration": 0.417,
        "velocity": 1,
        "hand": "left"
      },
      {
        "midi": 60,
        "time": 180.417,
        "duration": 0.417,
        "velocity": 1,
        "hand": "right"
      },
      {
        "midi": 68,
        "time": 180.417,
        "duration": 0.417,
        "velocity": 1,
        "hand": "right"
      },
      {
        "midi": 45,
        "time": 180.833,
        "duration": 0.417,
        "velocity": 1,
        "hand": "left"
      },
      {
        "midi": 61,
        "time": 180.833,
        "duration": 0.417,
        "velocity": 1,
        "hand": "right"
      },
      {
        "midi": 66,
        "time": 180.833,
        "duration": 0.417,
        "velocity": 1,
        "hand": "right"
      },
      {
        "midi": 44,
        "time": 181.25,
        "duration": 0.417,
        "velocity": 1,
        "hand": "left"
      },
      {
        "midi": 60,
        "time": 181.25,
        "duration": 0.417,
        "velocity": 1,
        "hand": "right"
      },
      {
        "midi": 68,
        "time": 181.25,
        "duration": 0.417,
        "velocity": 1,
        "hand": "right"
      },
      {
        "midi": 52,
        "time": 181.667,
        "duration": 0.833,
        "velocity": 1,
        "hand": "left"
      },
      {
        "midi": 59,
        "time": 181.667,
        "duration": 0.833,
        "velocity": 1,
        "hand": "left"
      },
      {
        "midi": 64,
        "time": 181.667,
        "duration": 0.833,
        "velocity": 1,
        "hand": "right"
      },
      {
        "midi": 56,
        "time": 182.083,
        "duration": 0.417,
        "velocity": 1,
        "hand": "left"
      },
      {
        "midi": 40,
        "time": 182.5,
        "duration": 0.417,
        "velocity": 1,
        "hand": "left"
      },
      {
        "midi": 74,
        "time": 182.5,
        "duration": 0.417,
        "velocity": 1,
        "hand": "right"
      },
      {
        "midi": 52,
        "time": 182.708,
        "duration": 0.208,
        "velocity": 1,
        "hand": "left"
      },
      {
        "midi": 54,
        "time": 182.917,
        "duration": 0.208,
        "velocity": 1,
        "hand": "left"
      },
      {
        "midi": 73,
        "time": 182.917,
        "duration": 0.208,
        "velocity": 1,
        "hand": "right"
      },
      {
        "midi": 56,
        "time": 183.125,
        "duration": 0.208,
        "velocity": 1,
        "hand": "left"
      },
      {
        "midi": 71,
        "time": 183.125,
        "duration": 0.208,
        "velocity": 1,
        "hand": "right"
      },
      {
        "midi": 52,
        "time": 183.333,
        "duration": 1.667,
        "velocity": 1,
        "hand": "left"
      },
      {
        "midi": 63,
        "time": 183.333,
        "duration": 0.833,
        "velocity": 1,
        "hand": "right"
      },
      {
        "midi": 66,
        "time": 183.333,
        "duration": 0.417,
        "velocity": 1,
        "hand": "right"
      },
      {
        "midi": 59,
        "time": 183.542,
        "duration": 0.208,
        "velocity": 1,
        "hand": "left"
      },
      {
        "midi": 60,
        "time": 183.75,
        "duration": 0.833,
        "velocity": 1,
        "hand": "right"
      },
      {
        "midi": 69,
        "time": 183.75,
        "duration": 0.417,
        "velocity": 1,
        "hand": "right"
      },
      {
        "midi": 64,
        "time": 184.167,
        "duration": 0.833,
        "velocity": 1,
        "hand": "right"
      },
      {
        "midi": 68,
        "time": 184.167,
        "duration": 0.833,
        "velocity": 1,
        "hand": "right"
      },
      {
        "midi": 59,
        "time": 184.583,
        "duration": 0.417,
        "velocity": 1,
        "hand": "left"
      },
      {
        "midi": 45,
        "time": 185,
        "duration": 0.417,
        "velocity": 1,
        "hand": "left"
      },
      {
        "midi": 61,
        "time": 185,
        "duration": 0.417,
        "velocity": 1,
        "hand": "right"
      },
      {
        "midi": 66,
        "time": 185,
        "duration": 0.417,
        "velocity": 1,
        "hand": "right"
      },
      {
        "midi": 44,
        "time": 185.417,
        "duration": 0.417,
        "velocity": 1,
        "hand": "left"
      },
      {
        "midi": 60,
        "time": 185.417,
        "duration": 0.417,
        "velocity": 1,
        "hand": "right"
      },
      {
        "midi": 68,
        "time": 185.417,
        "duration": 0.417,
        "velocity": 1,
        "hand": "right"
      },
      {
        "midi": 45,
        "time": 185.833,
        "duration": 0.417,
        "velocity": 1,
        "hand": "left"
      },
      {
        "midi": 61,
        "time": 185.833,
        "duration": 0.417,
        "velocity": 1,
        "hand": "right"
      },
      {
        "midi": 66,
        "time": 185.833,
        "duration": 0.417,
        "velocity": 1,
        "hand": "right"
      },
      {
        "midi": 44,
        "time": 186.25,
        "duration": 0.417,
        "velocity": 1,
        "hand": "left"
      },
      {
        "midi": 60,
        "time": 186.25,
        "duration": 0.417,
        "velocity": 1,
        "hand": "right"
      },
      {
        "midi": 68,
        "time": 186.25,
        "duration": 0.417,
        "velocity": 1,
        "hand": "right"
      },
      {
        "midi": 52,
        "time": 186.667,
        "duration": 0.833,
        "velocity": 1,
        "hand": "left"
      },
      {
        "midi": 59,
        "time": 186.667,
        "duration": 0.833,
        "velocity": 1,
        "hand": "left"
      },
      {
        "midi": 64,
        "time": 186.667,
        "duration": 0.833,
        "velocity": 1,
        "hand": "right"
      },
      {
        "midi": 56,
        "time": 187.083,
        "duration": 0.417,
        "velocity": 1,
        "hand": "left"
      },
      {
        "midi": 49,
        "time": 187.5,
        "duration": 0.417,
        "velocity": 1,
        "hand": "left"
      },
      {
        "midi": 64,
        "time": 187.5,
        "duration": 0.417,
        "velocity": 1,
        "hand": "right"
      },
      {
        "midi": 70,
        "time": 187.5,
        "duration": 0.417,
        "velocity": 1,
        "hand": "right"
      },
      {
        "midi": 48,
        "time": 187.917,
        "duration": 0.417,
        "velocity": 1,
        "hand": "left"
      },
      {
        "midi": 63,
        "time": 187.917,
        "duration": 0.417,
        "velocity": 1,
        "hand": "right"
      },
      {
        "midi": 72,
        "time": 187.917,
        "duration": 0.417,
        "velocity": 1,
        "hand": "right"
      },
      {
        "midi": 49,
        "time": 188.333,
        "duration": 0.417,
        "velocity": 1,
        "hand": "left"
      },
      {
        "midi": 64,
        "time": 188.333,
        "duration": 0.417,
        "velocity": 1,
        "hand": "right"
      },
      {
        "midi": 70,
        "time": 188.333,
        "duration": 0.417,
        "velocity": 1,
        "hand": "right"
      },
      {
        "midi": 48,
        "time": 188.75,
        "duration": 0.417,
        "velocity": 1,
        "hand": "left"
      },
      {
        "midi": 63,
        "time": 188.75,
        "duration": 0.417,
        "velocity": 1,
        "hand": "right"
      },
      {
        "midi": 72,
        "time": 188.75,
        "duration": 0.417,
        "velocity": 1,
        "hand": "right"
      },
      {
        "midi": 56,
        "time": 189.167,
        "duration": 0.833,
        "velocity": 1,
        "hand": "left"
      },
      {
        "midi": 63,
        "time": 189.167,
        "duration": 0.833,
        "velocity": 1,
        "hand": "right"
      },
      {
        "midi": 68,
        "time": 189.167,
        "duration": 0.833,
        "velocity": 1,
        "hand": "right"
      },
      {
        "midi": 60,
        "time": 189.583,
        "duration": 0.417,
        "velocity": 1,
        "hand": "right"
      },
      {
        "midi": 53,
        "time": 190,
        "duration": 0.417,
        "velocity": 1,
        "hand": "left"
      },
      {
        "midi": 68,
        "time": 190,
        "duration": 0.417,
        "velocity": 1,
        "hand": "right"
      },
      {
        "midi": 74,
        "time": 190,
        "duration": 0.417,
        "velocity": 1,
        "hand": "right"
      },
      {
        "midi": 52,
        "time": 190.417,
        "duration": 0.417,
        "velocity": 1,
        "hand": "left"
      },
      {
        "midi": 67,
        "time": 190.417,
        "duration": 0.417,
        "velocity": 1,
        "hand": "right"
      },
      {
        "midi": 76,
        "time": 190.417,
        "duration": 0.417,
        "velocity": 1,
        "hand": "right"
      },
      {
        "midi": 53,
        "time": 190.833,
        "duration": 0.417,
        "velocity": 1,
        "hand": "left"
      },
      {
        "midi": 68,
        "time": 190.833,
        "duration": 0.417,
        "velocity": 1,
        "hand": "right"
      },
      {
        "midi": 74,
        "time": 190.833,
        "duration": 0.417,
        "velocity": 1,
        "hand": "right"
      },
      {
        "midi": 52,
        "time": 191.25,
        "duration": 0.417,
        "velocity": 1,
        "hand": "left"
      },
      {
        "midi": 67,
        "time": 191.25,
        "duration": 0.417,
        "velocity": 1,
        "hand": "right"
      },
      {
        "midi": 76,
        "time": 191.25,
        "duration": 0.417,
        "velocity": 1,
        "hand": "right"
      },
      {
        "midi": 56,
        "time": 191.667,
        "duration": 0.417,
        "velocity": 1,
        "hand": "left"
      },
      {
        "midi": 63,
        "time": 191.667,
        "duration": 0.417,
        "velocity": 1,
        "hand": "right"
      },
      {
        "midi": 72,
        "time": 191.667,
        "duration": 0.833,
        "velocity": 1,
        "hand": "right"
      },
      {
        "midi": 48,
        "time": 192.083,
        "duration": 0.417,
        "velocity": 1,
        "hand": "left"
      },
      {
        "midi": 64,
        "time": 192.083,
        "duration": 0.417,
        "velocity": 1,
        "hand": "right"
      },
      {
        "midi": 67,
        "time": 192.083,
        "duration": 0.417,
        "velocity": 1,
        "hand": "right"
      },
      {
        "midi": 53,
        "time": 192.5,
        "duration": 0.417,
        "velocity": 1,
        "hand": "left"
      },
      {
        "midi": 68,
        "time": 192.5,
        "duration": 0.417,
        "velocity": 1,
        "hand": "right"
      },
      {
        "midi": 74,
        "time": 192.5,
        "duration": 0.208,
        "velocity": 1,
        "hand": "right"
      },
      {
        "midi": 77,
        "time": 192.708,
        "duration": 0.208,
        "velocity": 1,
        "hand": "right"
      },
      {
        "midi": 55,
        "time": 192.917,
        "duration": 0.417,
        "velocity": 1,
        "hand": "left"
      },
      {
        "midi": 72,
        "time": 192.917,
        "duration": 0.417,
        "velocity": 1,
        "hand": "right"
      },
      {
        "midi": 76,
        "time": 192.917,
        "duration": 0.417,
        "velocity": 1,
        "hand": "right"
      },
      {
        "midi": 53,
        "time": 193.333,
        "duration": 0.417,
        "velocity": 1,
        "hand": "left"
      },
      {
        "midi": 68,
        "time": 193.333,
        "duration": 0.417,
        "velocity": 1,
        "hand": "right"
      },
      {
        "midi": 74,
        "time": 193.333,
        "duration": 0.208,
        "velocity": 1,
        "hand": "right"
      },
      {
        "midi": 77,
        "time": 193.542,
        "duration": 0.208,
        "velocity": 1,
        "hand": "right"
      },
      {
        "midi": 55,
        "time": 193.75,
        "duration": 0.417,
        "velocity": 1,
        "hand": "left"
      },
      {
        "midi": 72,
        "time": 193.75,
        "duration": 0.417,
        "velocity": 1,
        "hand": "right"
      },
      {
        "midi": 76,
        "time": 193.75,
        "duration": 0.417,
        "velocity": 1,
        "hand": "right"
      },
      {
        "midi": 56,
        "time": 194.167,
        "duration": 0.417,
        "velocity": 1,
        "hand": "left"
      },
      {
        "midi": 63,
        "time": 194.167,
        "duration": 0.417,
        "velocity": 1,
        "hand": "right"
      },
      {
        "midi": 72,
        "time": 194.167,
        "duration": 0.833,
        "velocity": 1,
        "hand": "right"
      },
      {
        "midi": 48,
        "time": 194.583,
        "duration": 0.417,
        "velocity": 1,
        "hand": "left"
      },
      {
        "midi": 64,
        "time": 194.583,
        "duration": 0.417,
        "velocity": 1,
        "hand": "right"
      },
      {
        "midi": 67,
        "time": 194.583,
        "duration": 0.417,
        "velocity": 1,
        "hand": "right"
      },
      {
        "midi": 53,
        "time": 195,
        "duration": 0.417,
        "velocity": 1,
        "hand": "left"
      },
      {
        "midi": 68,
        "time": 195,
        "duration": 0.417,
        "velocity": 1,
        "hand": "right"
      },
      {
        "midi": 74,
        "time": 195,
        "duration": 0.208,
        "velocity": 1,
        "hand": "right"
      },
      {
        "midi": 77,
        "time": 195.208,
        "duration": 0.208,
        "velocity": 1,
        "hand": "right"
      },
      {
        "midi": 55,
        "time": 195.417,
        "duration": 0.417,
        "velocity": 1,
        "hand": "left"
      },
      {
        "midi": 72,
        "time": 195.417,
        "duration": 0.417,
        "velocity": 1,
        "hand": "right"
      },
      {
        "midi": 76,
        "time": 195.417,
        "duration": 0.417,
        "velocity": 1,
        "hand": "right"
      },
      {
        "midi": 53,
        "time": 195.833,
        "duration": 0.417,
        "velocity": 1,
        "hand": "left"
      },
      {
        "midi": 68,
        "time": 195.833,
        "duration": 0.417,
        "velocity": 1,
        "hand": "right"
      },
      {
        "midi": 74,
        "time": 195.833,
        "duration": 0.208,
        "velocity": 1,
        "hand": "right"
      },
      {
        "midi": 77,
        "time": 196.042,
        "duration": 0.208,
        "velocity": 1,
        "hand": "right"
      },
      {
        "midi": 55,
        "time": 196.25,
        "duration": 0.417,
        "velocity": 1,
        "hand": "left"
      },
      {
        "midi": 72,
        "time": 196.25,
        "duration": 0.417,
        "velocity": 1,
        "hand": "right"
      },
      {
        "midi": 76,
        "time": 196.25,
        "duration": 0.417,
        "velocity": 1,
        "hand": "right"
      },
      {
        "midi": 56,
        "time": 196.667,
        "duration": 0.417,
        "velocity": 1,
        "hand": "left"
      },
      {
        "midi": 63,
        "time": 196.667,
        "duration": 0.417,
        "velocity": 1,
        "hand": "right"
      },
      {
        "midi": 72,
        "time": 196.667,
        "duration": 0.833,
        "velocity": 1,
        "hand": "right"
      },
      {
        "midi": 48,
        "time": 197.083,
        "duration": 0.417,
        "velocity": 1,
        "hand": "left"
      },
      {
        "midi": 64,
        "time": 197.083,
        "duration": 0.417,
        "velocity": 1,
        "hand": "right"
      },
      {
        "midi": 67,
        "time": 197.083,
        "duration": 0.417,
        "velocity": 1,
        "hand": "right"
      },
      {
        "midi": 53,
        "time": 197.5,
        "duration": 0.417,
        "velocity": 1,
        "hand": "left"
      },
      {
        "midi": 68,
        "time": 197.5,
        "duration": 0.417,
        "velocity": 1,
        "hand": "right"
      },
      {
        "midi": 74,
        "time": 197.5,
        "duration": 0.417,
        "velocity": 1,
        "hand": "right"
      },
      {
        "midi": 48,
        "time": 197.917,
        "duration": 0.417,
        "velocity": 1,
        "hand": "left"
      },
      {
        "midi": 72,
        "time": 197.917,
        "duration": 0.417,
        "velocity": 1,
        "hand": "right"
      },
      {
        "midi": 76,
        "time": 197.917,
        "duration": 0.417,
        "velocity": 1,
        "hand": "right"
      },
      {
        "midi": 57,
        "time": 198.333,
        "duration": 0.417,
        "velocity": 1,
        "hand": "left"
      },
      {
        "midi": 70,
        "time": 198.333,
        "duration": 0.417,
        "velocity": 1,
        "hand": "right"
      },
      {
        "midi": 79,
        "time": 198.333,
        "duration": 0.417,
        "velocity": 1,
        "hand": "right"
      },
      {
        "midi": 62,
        "time": 198.75,
        "duration": 0.417,
        "velocity": 1,
        "hand": "right"
      },
      {
        "midi": 69,
        "time": 198.75,
        "duration": 0.417,
        "velocity": 1,
        "hand": "right"
      },
      {
        "midi": 78,
        "time": 198.75,
        "duration": 0.417,
        "velocity": 1,
        "hand": "right"
      },
      {
        "midi": 55,
        "time": 199.167,
        "duration": 0.417,
        "velocity": 1,
        "hand": "left"
      },
      {
        "midi": 68,
        "time": 199.167,
        "duration": 0.417,
        "velocity": 1,
        "hand": "right"
      },
      {
        "midi": 77,
        "time": 199.167,
        "duration": 0.417,
        "velocity": 1,
        "hand": "right"
      },
      {
        "midi": 60,
        "time": 199.583,
        "duration": 0.417,
        "velocity": 1,
        "hand": "right"
      },
      {
        "midi": 67,
        "time": 199.583,
        "duration": 0.417,
        "velocity": 1,
        "hand": "right"
      },
      {
        "midi": 76,
        "time": 199.583,
        "duration": 0.417,
        "velocity": 1,
        "hand": "right"
      },
      {
        "midi": 54,
        "time": 200,
        "duration": 0.417,
        "velocity": 1,
        "hand": "left"
      },
      {
        "midi": 67,
        "time": 200,
        "duration": 0.417,
        "velocity": 1,
        "hand": "right"
      },
      {
        "midi": 76,
        "time": 200,
        "duration": 0.417,
        "velocity": 1,
        "hand": "right"
      },
      {
        "midi": 59,
        "time": 200.417,
        "duration": 0.417,
        "velocity": 1,
        "hand": "left"
      },
      {
        "midi": 66,
        "time": 200.417,
        "duration": 0.417,
        "velocity": 1,
        "hand": "right"
      },
      {
        "midi": 75,
        "time": 200.417,
        "duration": 0.417,
        "velocity": 1,
        "hand": "right"
      },
      {
        "midi": 55,
        "time": 200.833,
        "duration": 0.417,
        "velocity": 1,
        "hand": "left"
      },
      {
        "midi": 64,
        "time": 200.833,
        "duration": 0.417,
        "velocity": 1,
        "hand": "right"
      },
      {
        "midi": 70,
        "time": 200.833,
        "duration": 0.208,
        "velocity": 1,
        "hand": "right"
      },
      {
        "midi": 73,
        "time": 201.042,
        "duration": 0.208,
        "velocity": 1,
        "hand": "right"
      },
      {
        "midi": 47,
        "time": 201.25,
        "duration": 0.417,
        "velocity": 1,
        "hand": "left"
      },
      {
        "midi": 63,
        "time": 201.25,
        "duration": 0.417,
        "velocity": 1,
        "hand": "right"
      },
      {
        "midi": 71,
        "time": 201.25,
        "duration": 0.417,
        "velocity": 1,
        "hand": "right"
      },
      {
        "midi": 54,
        "time": 201.667,
        "duration": 0.417,
        "velocity": 1,
        "hand": "left"
      },
      {
        "midi": 67,
        "time": 201.667,
        "duration": 0.417,
        "velocity": 1,
        "hand": "right"
      },
      {
        "midi": 76,
        "time": 201.667,
        "duration": 0.417,
        "velocity": 1,
        "hand": "right"
      },
      {
        "midi": 59,
        "time": 202.083,
        "duration": 0.417,
        "velocity": 1,
        "hand": "left"
      },
      {
        "midi": 66,
        "time": 202.083,
        "duration": 0.417,
        "velocity": 1,
        "hand": "right"
      },
      {
        "midi": 75,
        "time": 202.083,
        "duration": 0.417,
        "velocity": 1,
        "hand": "right"
      },
      {
        "midi": 55,
        "time": 202.5,
        "duration": 0.417,
        "velocity": 1,
        "hand": "left"
      },
      {
        "midi": 64,
        "time": 202.5,
        "duration": 0.417,
        "velocity": 1,
        "hand": "right"
      },
      {
        "midi": 70,
        "time": 202.5,
        "duration": 0.208,
        "velocity": 1,
        "hand": "right"
      },
      {
        "midi": 73,
        "time": 202.708,
        "duration": 0.208,
        "velocity": 1,
        "hand": "right"
      },
      {
        "midi": 47,
        "time": 202.917,
        "duration": 0.417,
        "velocity": 1,
        "hand": "left"
      },
      {
        "midi": 63,
        "time": 202.917,
        "duration": 0.417,
        "velocity": 1,
        "hand": "right"
      },
      {
        "midi": 71,
        "time": 202.917,
        "duration": 0.417,
        "velocity": 1,
        "hand": "right"
      },
      {
        "midi": 55,
        "time": 203.333,
        "duration": 0.417,
        "velocity": 1,
        "hand": "left"
      },
      {
        "midi": 64,
        "time": 203.333,
        "duration": 0.417,
        "velocity": 1,
        "hand": "right"
      },
      {
        "midi": 70,
        "time": 203.333,
        "duration": 0.208,
        "velocity": 1,
        "hand": "right"
      },
      {
        "midi": 73,
        "time": 203.542,
        "duration": 0.208,
        "velocity": 1,
        "hand": "right"
      },
      {
        "midi": 47,
        "time": 203.75,
        "duration": 0.417,
        "velocity": 1,
        "hand": "left"
      },
      {
        "midi": 63,
        "time": 203.75,
        "duration": 0.417,
        "velocity": 1,
        "hand": "right"
      },
      {
        "midi": 71,
        "time": 203.75,
        "duration": 0.417,
        "velocity": 1,
        "hand": "right"
      },
      {
        "midi": 52,
        "time": 204.167,
        "duration": 0.417,
        "velocity": 1,
        "hand": "left"
      },
      {
        "midi": 61,
        "time": 204.167,
        "duration": 0.417,
        "velocity": 1,
        "hand": "right"
      },
      {
        "midi": 66,
        "time": 204.167,
        "duration": 0.833,
        "velocity": 1,
        "hand": "right"
      },
      {
        "midi": 51,
        "time": 204.583,
        "duration": 0.417,
        "velocity": 1,
        "hand": "left"
      },
      {
        "midi": 59,
        "time": 204.583,
        "duration": 0.417,
        "velocity": 1,
        "hand": "left"
      },
      {
        "midi": 66,
        "time": 205,
        "duration": 0.417,
        "velocity": 1,
        "hand": "right"
      },
      {
        "midi": 68,
        "time": 205.417,
        "duration": 0.208,
        "velocity": 1,
        "hand": "right"
      },
      {
        "midi": 69,
        "time": 205.625,
        "duration": 0.208,
        "velocity": 1,
        "hand": "right"
      },
      {
        "midi": 50,
        "time": 205.833,
        "duration": 0.833,
        "velocity": 1,
        "hand": "left"
      },
      {
        "midi": 59,
        "time": 205.833,
        "duration": 0.833,
        "velocity": 1,
        "hand": "left"
      },
      {
        "midi": 68,
        "time": 205.833,
        "duration": 0.417,
        "velocity": 1,
        "hand": "right"
      },
      {
        "midi": 71,
        "time": 206.25,
        "duration": 0.417,
        "velocity": 1,
        "hand": "right"
      },
      {
        "midi": 49,
        "time": 206.667,
        "duration": 0.833,
        "velocity": 1,
        "hand": "left"
      },
      {
        "midi": 64,
        "time": 206.667,
        "duration": 1.667,
        "velocity": 1,
        "hand": "right"
      },
      {
        "midi": 69,
        "time": 207.083,
        "duration": 0.417,
        "velocity": 1,
        "hand": "right"
      },
      {
        "midi": 47,
        "time": 207.5,
        "duration": 0.417,
        "velocity": 1,
        "hand": "left"
      },
      {
        "midi": 68,
        "time": 207.5,
        "duration": 0.417,
        "velocity": 1,
        "hand": "right"
      },
      {
        "midi": 71,
        "time": 207.5,
        "duration": 0.417,
        "velocity": 1,
        "hand": "right"
      },
      {
        "midi": 45,
        "time": 207.917,
        "duration": 0.417,
        "velocity": 1,
        "hand": "left"
      },
      {
        "midi": 69,
        "time": 207.917,
        "duration": 0.417,
        "velocity": 1,
        "hand": "right"
      },
      {
        "midi": 73,
        "time": 207.917,
        "duration": 0.417,
        "velocity": 1,
        "hand": "right"
      },
      {
        "midi": 44,
        "time": 208.333,
        "duration": 0.833,
        "velocity": 1,
        "hand": "left"
      },
      {
        "midi": 64,
        "time": 208.333,
        "duration": 1.667,
        "velocity": 1,
        "hand": "right"
      },
      {
        "midi": 76,
        "time": 208.333,
        "duration": 0.833,
        "velocity": 1,
        "hand": "right"
      },
      {
        "midi": 45,
        "time": 209.167,
        "duration": 0.833,
        "velocity": 1,
        "hand": "left"
      },
      {
        "midi": 69,
        "time": 209.167,
        "duration": 0.833,
        "velocity": 1,
        "hand": "right"
      },
      {
        "midi": 73,
        "time": 209.167,
        "duration": 0.833,
        "velocity": 1,
        "hand": "right"
      },
      {
        "midi": 73,
        "time": 210,
        "duration": 0.417,
        "velocity": 1,
        "hand": "right"
      },
      {
        "midi": 74,
        "time": 210.417,
        "duration": 0.208,
        "velocity": 1,
        "hand": "right"
      },
      {
        "midi": 76,
        "time": 210.625,
        "duration": 0.208,
        "velocity": 1,
        "hand": "right"
      },
      {
        "midi": 46,
        "time": 210.833,
        "duration": 0.833,
        "velocity": 1,
        "hand": "left"
      },
      {
        "midi": 66,
        "time": 210.833,
        "duration": 0.833,
        "velocity": 1,
        "hand": "right"
      },
      {
        "midi": 78,
        "time": 210.833,
        "duration": 0.417,
        "velocity": 1,
        "hand": "right"
      },
      {
        "midi": 73,
        "time": 211.25,
        "duration": 0.417,
        "velocity": 1,
        "hand": "right"
      },
      {
        "midi": 47,
        "time": 211.667,
        "duration": 0.833,
        "velocity": 1,
        "hand": "left"
      },
      {
        "midi": 66,
        "time": 211.667,
        "duration": 0.833,
        "velocity": 1,
        "hand": "right"
      },
      {
        "midi": 74,
        "time": 211.667,
        "duration": 0.833,
        "velocity": 1,
        "hand": "right"
      },
      {
        "midi": 66,
        "time": 212.5,
        "duration": 0.417,
        "velocity": 1,
        "hand": "right"
      },
      {
        "midi": 68,
        "time": 212.917,
        "duration": 0.208,
        "velocity": 1,
        "hand": "right"
      },
      {
        "midi": 69,
        "time": 213.125,
        "duration": 0.208,
        "velocity": 1,
        "hand": "right"
      },
      {
        "midi": 47,
        "time": 213.333,
        "duration": 0.833,
        "velocity": 1,
        "hand": "left"
      },
      {
        "midi": 63,
        "time": 213.333,
        "duration": 0.833,
        "velocity": 1,
        "hand": "right"
      },
      {
        "midi": 73,
        "time": 213.333,
        "duration": 0.417,
        "velocity": 1,
        "hand": "right"
      },
      {
        "midi": 70,
        "time": 213.75,
        "duration": 0.833,
        "velocity": 1,
        "hand": "right"
      },
      {
        "midi": 52,
        "time": 214.167,
        "duration": 0.833,
        "velocity": 1,
        "hand": "left"
      },
      {
        "midi": 56,
        "time": 214.167,
        "duration": 0.833,
        "velocity": 1,
        "hand": "left"
      },
      {
        "midi": 62,
        "time": 214.167,
        "duration": 0.833,
        "velocity": 1,
        "hand": "right"
      },
      {
        "midi": 71,
        "time": 214.583,
        "duration": 0.417,
        "velocity": 1,
        "hand": "right"
      },
      {
        "midi": 66,
        "time": 215,
        "duration": 0.417,
        "velocity": 1,
        "hand": "right"
      },
      {
        "midi": 68,
        "time": 215.417,
        "duration": 0.208,
        "velocity": 1,
        "hand": "right"
      },
      {
        "midi": 69,
        "time": 215.625,
        "duration": 0.208,
        "velocity": 1,
        "hand": "right"
      },
      {
        "midi": 50,
        "time": 215.833,
        "duration": 0.833,
        "velocity": 1,
        "hand": "left"
      },
      {
        "midi": 59,
        "time": 215.833,
        "duration": 0.833,
        "velocity": 1,
        "hand": "left"
      },
      {
        "midi": 68,
        "time": 215.833,
        "duration": 0.417,
        "velocity": 1,
        "hand": "right"
      },
      {
        "midi": 71,
        "time": 216.25,
        "duration": 0.417,
        "velocity": 1,
        "hand": "right"
      },
      {
        "midi": 49,
        "time": 216.667,
        "duration": 0.833,
        "velocity": 1,
        "hand": "left"
      },
      {
        "midi": 64,
        "time": 216.667,
        "duration": 1.667,
        "velocity": 1,
        "hand": "right"
      },
      {
        "midi": 69,
        "time": 217.083,
        "duration": 0.417,
        "velocity": 1,
        "hand": "right"
      },
      {
        "midi": 47,
        "time": 217.5,
        "duration": 0.417,
        "velocity": 1,
        "hand": "left"
      },
      {
        "midi": 68,
        "time": 217.5,
        "duration": 0.417,
        "velocity": 1,
        "hand": "right"
      },
      {
        "midi": 71,
        "time": 217.5,
        "duration": 0.417,
        "velocity": 1,
        "hand": "right"
      },
      {
        "midi": 45,
        "time": 217.917,
        "duration": 0.417,
        "velocity": 1,
        "hand": "left"
      },
      {
        "midi": 69,
        "time": 217.917,
        "duration": 0.417,
        "velocity": 1,
        "hand": "right"
      },
      {
        "midi": 73,
        "time": 217.917,
        "duration": 0.417,
        "velocity": 1,
        "hand": "right"
      },
      {
        "midi": 44,
        "time": 218.333,
        "duration": 0.833,
        "velocity": 1,
        "hand": "left"
      },
      {
        "midi": 64,
        "time": 218.333,
        "duration": 1.667,
        "velocity": 1,
        "hand": "right"
      },
      {
        "midi": 76,
        "time": 218.333,
        "duration": 0.833,
        "velocity": 1,
        "hand": "right"
      },
      {
        "midi": 45,
        "time": 219.167,
        "duration": 0.833,
        "velocity": 1,
        "hand": "left"
      },
      {
        "midi": 69,
        "time": 219.167,
        "duration": 0.833,
        "velocity": 1,
        "hand": "right"
      },
      {
        "midi": 73,
        "time": 219.167,
        "duration": 0.833,
        "velocity": 1,
        "hand": "right"
      },
      {
        "midi": 73,
        "time": 220,
        "duration": 0.417,
        "velocity": 1,
        "hand": "right"
      },
      {
        "midi": 74,
        "time": 220.417,
        "duration": 0.208,
        "velocity": 1,
        "hand": "right"
      },
      {
        "midi": 76,
        "time": 220.625,
        "duration": 0.208,
        "velocity": 1,
        "hand": "right"
      },
      {
        "midi": 46,
        "time": 220.833,
        "duration": 0.833,
        "velocity": 1,
        "hand": "left"
      },
      {
        "midi": 66,
        "time": 220.833,
        "duration": 0.833,
        "velocity": 1,
        "hand": "right"
      },
      {
        "midi": 78,
        "time": 220.833,
        "duration": 0.417,
        "velocity": 1,
        "hand": "right"
      },
      {
        "midi": 47,
        "time": 221.667,
        "duration": 0.833,
        "velocity": 1,
        "hand": "left"
      },
      {
        "midi": 66,
        "time": 221.667,
        "duration": 0.833,
        "velocity": 1,
        "hand": "right"
      },
      {
        "midi": 74,
        "time": 221.667,
        "duration": 0.833,
        "velocity": 1,
        "hand": "right"
      },
      {
        "midi": 74,
        "time": 222.5,
        "duration": 0.417,
        "velocity": 1,
        "hand": "right"
      },
      {
        "midi": 76,
        "time": 222.917,
        "duration": 0.208,
        "velocity": 1,
        "hand": "right"
      },
      {
        "midi": 78,
        "time": 223.125,
        "duration": 0.208,
        "velocity": 1,
        "hand": "right"
      },
      {
        "midi": 48,
        "time": 223.333,
        "duration": 0.833,
        "velocity": 1,
        "hand": "left"
      },
      {
        "midi": 68,
        "time": 223.333,
        "duration": 0.833,
        "velocity": 1,
        "hand": "right"
      },
      {
        "midi": 80,
        "time": 223.333,
        "duration": 0.417,
        "velocity": 1,
        "hand": "right"
      },
      {
        "midi": 49,
        "time": 224.167,
        "duration": 0.833,
        "velocity": 1,
        "hand": "left"
      },
      {
        "midi": 68,
        "time": 224.167,
        "duration": 0.833,
        "velocity": 1,
        "hand": "right"
      },
      {
        "midi": 76,
        "time": 224.167,
        "duration": 0.833,
        "velocity": 1,
        "hand": "right"
      },
      {
        "midi": 76,
        "time": 225,
        "duration": 0.417,
        "velocity": 1,
        "hand": "right"
      },
      {
        "midi": 78,
        "time": 225.417,
        "duration": 0.208,
        "velocity": 1,
        "hand": "right"
      },
      {
        "midi": 80,
        "time": 225.625,
        "duration": 0.208,
        "velocity": 1,
        "hand": "right"
      },
      {
        "midi": 81,
        "time": 225.833,
        "duration": 0.417,
        "velocity": 1,
        "hand": "right"
      },
      {
        "midi": 80,
        "time": 226.25,
        "duration": 0.417,
        "velocity": 1,
        "hand": "right"
      },
      {
        "midi": 78,
        "time": 226.667,
        "duration": 0.417,
        "velocity": 1,
        "hand": "right"
      },
      {
        "midi": 76,
        "time": 227.083,
        "duration": 0.417,
        "velocity": 1,
        "hand": "right"
      },
      {
        "midi": 54,
        "time": 227.5,
        "duration": 1.667,
        "velocity": 1,
        "hand": "left"
      },
      {
        "midi": 57,
        "time": 227.5,
        "duration": 0.417,
        "velocity": 1,
        "hand": "left"
      },
      {
        "midi": 74,
        "time": 227.5,
        "duration": 0.417,
        "velocity": 1,
        "hand": "right"
      },
      {
        "midi": 59,
        "time": 227.917,
        "duration": 0.208,
        "velocity": 1,
        "hand": "left"
      },
      {
        "midi": 69,
        "time": 227.917,
        "duration": 0.833,
        "velocity": 1,
        "hand": "right"
      },
      {
        "midi": 61,
        "time": 228.125,
        "duration": 0.208,
        "velocity": 1,
        "hand": "right"
      },
      {
        "midi": 62,
        "time": 228.333,
        "duration": 0.417,
        "velocity": 1,
        "hand": "right"
      },
      {
        "midi": 61,
        "time": 228.75,
        "duration": 0.417,
        "velocity": 1,
        "hand": "right"
      },
      {
        "midi": 81,
        "time": 228.75,
        "duration": 0.833,
        "velocity": 1,
        "hand": "right"
      },
      {
        "midi": 53,
        "time": 229.167,
        "duration": 0.833,
        "velocity": 1,
        "hand": "left"
      },
      {
        "midi": 59,
        "time": 229.167,
        "duration": 0.417,
        "velocity": 1,
        "hand": "left"
      },
      {
        "midi": 57,
        "time": 229.583,
        "duration": 0.833,
        "velocity": 1,
        "hand": "left"
      },
      {
        "midi": 72,
        "time": 229.583,
        "duration": 0.417,
        "velocity": 1,
        "hand": "right"
      },
      {
        "midi": 75,
        "time": 229.583,
        "duration": 0.417,
        "velocity": 1,
        "hand": "right"
      },
      {
        "midi": 52,
        "time": 230,
        "duration": 0.417,
        "velocity": 1,
        "hand": "left"
      },
      {
        "midi": 73,
        "time": 230,
        "duration": 0.417,
        "velocity": 1,
        "hand": "right"
      },
      {
        "midi": 76,
        "time": 230,
        "duration": 0.417,
        "velocity": 1,
        "hand": "right"
      },
      {
        "midi": 66,
        "time": 230.417,
        "duration": 0.208,
        "velocity": 1,
        "hand": "right"
      },
      {
        "midi": 68,
        "time": 230.625,
        "duration": 0.208,
        "velocity": 1,
        "hand": "right"
      },
      {
        "midi": 69,
        "time": 230.833,
        "duration": 0.417,
        "velocity": 1,
        "hand": "right"
      },
      {
        "midi": 57,
        "time": 231.25,
        "duration": 0.417,
        "velocity": 1,
        "hand": "left"
      },
      {
        "midi": 62,
        "time": 231.25,
        "duration": 1.25,
        "velocity": 1,
        "hand": "right"
      },
      {
        "midi": 64,
        "time": 231.25,
        "duration": 1.667,
        "velocity": 1,
        "hand": "right"
      },
      {
        "midi": 52,
        "time": 231.667,
        "duration": 0.833,
        "velocity": 1,
        "hand": "left"
      },
      {
        "midi": 55,
        "time": 231.667,
        "duration": 0.417,
        "velocity": 1,
        "hand": "left"
      },
      {
        "midi": 56,
        "time": 232.083,
        "duration": 0.417,
        "velocity": 1,
        "hand": "left"
      },
      {
        "midi": 40,
        "time": 232.5,
        "duration": 0.417,
        "velocity": 1,
        "hand": "left"
      },
      {
        "midi": 57,
        "time": 232.5,
        "duration": 0.417,
        "velocity": 1,
        "hand": "left"
      },
      {
        "midi": 61,
        "time": 232.5,
        "duration": 0.417,
        "velocity": 1,
        "hand": "right"
      },
      {
        "midi": 66,
        "time": 232.917,
        "duration": 0.208,
        "velocity": 1,
        "hand": "right"
      },
      {
        "midi": 68,
        "time": 233.125,
        "duration": 0.208,
        "velocity": 1,
        "hand": "right"
      },
      {
        "midi": 69,
        "time": 233.333,
        "duration": 0.417,
        "velocity": 1,
        "hand": "right"
      },
      {
        "midi": 57,
        "time": 233.75,
        "duration": 0.417,
        "velocity": 1,
        "hand": "left"
      },
      {
        "midi": 62,
        "time": 233.75,
        "duration": 1.25,
        "velocity": 1,
        "hand": "right"
      },
      {
        "midi": 64,
        "time": 233.75,
        "duration": 1.667,
        "velocity": 1,
        "hand": "right"
      },
      {
        "midi": 52,
        "time": 234.167,
        "duration": 0.833,
        "velocity": 1,
        "hand": "left"
      },
      {
        "midi": 55,
        "time": 234.167,
        "duration": 0.417,
        "velocity": 1,
        "hand": "left"
      },
      {
        "midi": 56,
        "time": 234.583,
        "duration": 0.417,
        "velocity": 1,
        "hand": "left"
      },
      {
        "midi": 40,
        "time": 235,
        "duration": 0.417,
        "velocity": 1,
        "hand": "left"
      },
      {
        "midi": 57,
        "time": 235,
        "duration": 0.417,
        "velocity": 1,
        "hand": "left"
      },
      {
        "midi": 61,
        "time": 235,
        "duration": 0.417,
        "velocity": 1,
        "hand": "right"
      },
      {
        "midi": 66,
        "time": 235.417,
        "duration": 0.208,
        "velocity": 1,
        "hand": "right"
      },
      {
        "midi": 68,
        "time": 235.625,
        "duration": 0.208,
        "velocity": 1,
        "hand": "right"
      },
      {
        "midi": 69,
        "time": 235.833,
        "duration": 0.833,
        "velocity": 1,
        "hand": "right"
      },
      {
        "midi": 54,
        "time": 236.25,
        "duration": 0.208,
        "velocity": 1,
        "hand": "left"
      },
      {
        "midi": 57,
        "time": 236.25,
        "duration": 0.417,
        "velocity": 1,
        "hand": "left"
      },
      {
        "midi": 61,
        "time": 236.25,
        "duration": 0.417,
        "velocity": 1,
        "hand": "right"
      },
      {
        "midi": 53,
        "time": 236.458,
        "duration": 0.208,
        "velocity": 1,
        "hand": "left"
      },
      {
        "midi": 52,
        "time": 236.667,
        "duration": 0.417,
        "velocity": 1,
        "hand": "left"
      },
      {
        "midi": 57,
        "time": 236.667,
        "duration": 0.417,
        "velocity": 1,
        "hand": "left"
      },
      {
        "midi": 61,
        "time": 236.667,
        "duration": 0.417,
        "velocity": 1,
        "hand": "right"
      },
      {
        "midi": 42,
        "time": 237.083,
        "duration": 0.208,
        "velocity": 1,
        "hand": "left"
      },
      {
        "midi": 57,
        "time": 237.083,
        "duration": 0.833,
        "velocity": 1,
        "hand": "left"
      },
      {
        "midi": 60,
        "time": 237.083,
        "duration": 0.833,
        "velocity": 1,
        "hand": "right"
      },
      {
        "midi": 41,
        "time": 237.292,
        "duration": 0.208,
        "velocity": 1,
        "hand": "left"
      },
      {
        "midi": 40,
        "time": 237.5,
        "duration": 1.667,
        "velocity": 1,
        "hand": "left"
      },
      {
        "midi": 52,
        "time": 237.917,
        "duration": 0.417,
        "velocity": 1,
        "hand": "left"
      },
      {
        "midi": 57,
        "time": 237.917,
        "duration": 0.417,
        "velocity": 1,
        "hand": "left"
      },
      {
        "midi": 61,
        "time": 237.917,
        "duration": 0.417,
        "velocity": 1,
        "hand": "right"
      },
      {
        "midi": 54,
        "time": 238.333,
        "duration": 1.25,
        "velocity": 1,
        "hand": "left"
      },
      {
        "midi": 56,
        "time": 238.333,
        "duration": 1.25,
        "velocity": 1,
        "hand": "left"
      },
      {
        "midi": 62,
        "time": 238.333,
        "duration": 1.25,
        "velocity": 1,
        "hand": "right"
      },
      {
        "midi": 52,
        "time": 239.167,
        "duration": 0.833,
        "velocity": 1,
        "hand": "left"
      },
      {
        "midi": 50,
        "time": 239.583,
        "duration": 0.417,
        "velocity": 1,
        "hand": "left"
      },
      {
        "midi": 56,
        "time": 239.583,
        "duration": 0.417,
        "velocity": 1,
        "hand": "left"
      },
      {
        "midi": 33,
        "time": 240,
        "duration": 0.208,
        "velocity": 1,
        "hand": "left"
      },
      {
        "midi": 40,
        "time": 240.208,
        "duration": 0.208,
        "velocity": 1,
        "hand": "left"
      },
      {
        "midi": 45,
        "time": 240.208,
        "duration": 0.208,
        "velocity": 1,
        "hand": "left"
      },
      {
        "midi": 49,
        "time": 240.417,
        "duration": 0.208,
        "velocity": 1,
        "hand": "left"
      },
      {
        "midi": 52,
        "time": 240.625,
        "duration": 0.208,
        "velocity": 1,
        "hand": "left"
      },
      {
        "midi": 57,
        "time": 240.625,
        "duration": 0.208,
        "velocity": 1,
        "hand": "left"
      },
      {
        "midi": 51,
        "time": 240.833,
        "duration": 0.208,
        "velocity": 1,
        "hand": "left"
      },
      {
        "midi": 52,
        "time": 241.042,
        "duration": 0.208,
        "velocity": 1,
        "hand": "left"
      },
      {
        "midi": 57,
        "time": 241.042,
        "duration": 0.208,
        "velocity": 1,
        "hand": "left"
      },
      {
        "midi": 60,
        "time": 241.25,
        "duration": 0.208,
        "velocity": 1,
        "hand": "right"
      },
      {
        "midi": 61,
        "time": 241.458,
        "duration": 0.208,
        "velocity": 1,
        "hand": "right"
      },
      {
        "midi": 64,
        "time": 241.458,
        "duration": 0.208,
        "velocity": 1,
        "hand": "right"
      },
      {
        "midi": 69,
        "time": 241.667,
        "duration": 1.667,
        "velocity": 1,
        "hand": "right"
      },
      {
        "midi": 48,
        "time": 242.5,
        "duration": 2.5,
        "velocity": 1,
        "hand": "left"
      },
      {
        "midi": 53,
        "time": 242.5,
        "duration": 2.5,
        "velocity": 1,
        "hand": "left"
      },
      {
        "midi": 57,
        "time": 242.5,
        "duration": 2.5,
        "velocity": 1,
        "hand": "left"
      },
      {
        "midi": 67,
        "time": 243.333,
        "duration": 0.417,
        "velocity": 1,
        "hand": "right"
      },
      {
        "midi": 65,
        "time": 243.75,
        "duration": 0.417,
        "velocity": 1,
        "hand": "right"
      },
      {
        "midi": 64,
        "time": 244.167,
        "duration": 0.417,
        "velocity": 1,
        "hand": "right"
      },
      {
        "midi": 63,
        "time": 244.583,
        "duration": 0.417,
        "velocity": 1,
        "hand": "right"
      },
      {
        "midi": 45,
        "time": 245,
        "duration": 0.208,
        "velocity": 1,
        "hand": "left"
      },
      {
        "midi": 52,
        "time": 245.208,
        "duration": 0.208,
        "velocity": 1,
        "hand": "left"
      },
      {
        "midi": 57,
        "time": 245.208,
        "duration": 0.208,
        "velocity": 1,
        "hand": "left"
      },
      {
        "midi": 63,
        "time": 245.417,
        "duration": 0.208,
        "velocity": 1,
        "hand": "right"
      },
      {
        "midi": 64,
        "time": 245.625,
        "duration": 0.208,
        "velocity": 1,
        "hand": "right"
      },
      {
        "midi": 69,
        "time": 245.625,
        "duration": 0.208,
        "velocity": 1,
        "hand": "right"
      },
      {
        "midi": 63,
        "time": 245.833,
        "duration": 0.208,
        "velocity": 1,
        "hand": "right"
      },
      {
        "midi": 64,
        "time": 246.042,
        "duration": 0.208,
        "velocity": 1,
        "hand": "right"
      },
      {
        "midi": 69,
        "time": 246.042,
        "duration": 0.208,
        "velocity": 1,
        "hand": "right"
      },
      {
        "midi": 72,
        "time": 246.25,
        "duration": 0.208,
        "velocity": 1,
        "hand": "right"
      },
      {
        "midi": 73,
        "time": 246.458,
        "duration": 0.208,
        "velocity": 1,
        "hand": "right"
      },
      {
        "midi": 76,
        "time": 246.458,
        "duration": 0.208,
        "velocity": 1,
        "hand": "right"
      },
      {
        "midi": 81,
        "time": 246.667,
        "duration": 1.667,
        "velocity": 1,
        "hand": "right"
      },
      {
        "midi": 65,
        "time": 247.5,
        "duration": 2.5,
        "velocity": 1,
        "hand": "right"
      },
      {
        "midi": 69,
        "time": 247.5,
        "duration": 2.5,
        "velocity": 1,
        "hand": "right"
      },
      {
        "midi": 72,
        "time": 247.5,
        "duration": 2.5,
        "velocity": 1,
        "hand": "right"
      },
      {
        "midi": 79,
        "time": 248.333,
        "duration": 0.417,
        "velocity": 1,
        "hand": "right"
      },
      {
        "midi": 77,
        "time": 248.75,
        "duration": 0.417,
        "velocity": 1,
        "hand": "right"
      },
      {
        "midi": 76,
        "time": 249.167,
        "duration": 0.417,
        "velocity": 1,
        "hand": "right"
      },
      {
        "midi": 75,
        "time": 249.583,
        "duration": 0.417,
        "velocity": 1,
        "hand": "right"
      },
      {
        "midi": 57,
        "time": 250.208,
        "duration": 0.208,
        "velocity": 1,
        "hand": "left"
      },
      {
        "midi": 64,
        "time": 250.208,
        "duration": 0.208,
        "velocity": 1,
        "hand": "right"
      },
      {
        "midi": 69,
        "time": 250.417,
        "duration": 0.208,
        "velocity": 1,
        "hand": "right"
      },
      {
        "midi": 73,
        "time": 250.625,
        "duration": 0.208,
        "velocity": 1,
        "hand": "right"
      },
      {
        "midi": 75,
        "time": 250.625,
        "duration": 0.208,
        "velocity": 1,
        "hand": "right"
      },
      {
        "midi": 78,
        "time": 250.833,
        "duration": 0.208,
        "velocity": 1,
        "hand": "right"
      },
      {
        "midi": 73,
        "time": 251.042,
        "duration": 0.208,
        "velocity": 1,
        "hand": "right"
      },
      {
        "midi": 76,
        "time": 251.042,
        "duration": 0.208,
        "velocity": 1,
        "hand": "right"
      },
      {
        "midi": 81,
        "time": 251.25,
        "duration": 0.208,
        "velocity": 1,
        "hand": "right"
      },
      {
        "midi": 85,
        "time": 251.458,
        "duration": 0.208,
        "velocity": 1,
        "hand": "right"
      },
      {
        "midi": 88,
        "time": 251.458,
        "duration": 0.208,
        "velocity": 1,
        "hand": "right"
      },
      {
        "midi": 92,
        "time": 251.667,
        "duration": 0.208,
        "velocity": 1,
        "hand": "right"
      },
      {
        "midi": 93,
        "time": 251.875,
        "duration": 0.208,
        "velocity": 1,
        "hand": "right"
      },
      {
        "midi": 97,
        "time": 251.875,
        "duration": 0.208,
        "velocity": 1,
        "hand": "right"
      },
      {
        "midi": 100,
        "time": 252.083,
        "duration": 5.417,
        "velocity": 1,
        "hand": "right"
      },
      {
        "midi": 69,
        "time": 252.5,
        "duration": 0.833,
        "velocity": 1,
        "hand": "right"
      },
      {
        "midi": 88,
        "time": 252.5,
        "duration": 0.833,
        "velocity": 1,
        "hand": "right"
      },
      {
        "midi": 93,
        "time": 252.5,
        "duration": 0.833,
        "velocity": 1,
        "hand": "right"
      },
      {
        "midi": 69,
        "time": 253.333,
        "duration": 0.833,
        "velocity": 1,
        "hand": "right"
      },
      {
        "midi": 88,
        "time": 253.333,
        "duration": 0.833,
        "velocity": 1,
        "hand": "right"
      },
      {
        "midi": 93,
        "time": 253.333,
        "duration": 0.833,
        "velocity": 1,
        "hand": "right"
      },
      {
        "midi": 69,
        "time": 254.167,
        "duration": 0.833,
        "velocity": 1,
        "hand": "right"
      },
      {
        "midi": 88,
        "time": 254.167,
        "duration": 0.833,
        "velocity": 1,
        "hand": "right"
      },
      {
        "midi": 93,
        "time": 254.167,
        "duration": 0.833,
        "velocity": 1,
        "hand": "right"
      },
      {
        "midi": 69,
        "time": 255,
        "duration": 2.5,
        "velocity": 1,
        "hand": "right"
      },
      {
        "midi": 88,
        "time": 255,
        "duration": 2.5,
        "velocity": 1,
        "hand": "right"
      },
      {
        "midi": 93,
        "time": 255,
        "duration": 2.5,
        "velocity": 1,
        "hand": "right"
      }
    ],
    "hard": [
      {
        "midi": 66,
        "time": 0,
        "duration": 0.417,
        "velocity": 1,
        "hand": "right"
      },
      {
        "midi": 68,
        "time": 0.417,
        "duration": 0.208,
        "velocity": 1,
        "hand": "right"
      },
      {
        "midi": 69,
        "time": 0.625,
        "duration": 0.208,
        "velocity": 1,
        "hand": "right"
      },
      {
        "midi": 50,
        "time": 0.833,
        "duration": 0.833,
        "velocity": 1,
        "hand": "left"
      },
      {
        "midi": 52,
        "time": 0.833,
        "duration": 1.667,
        "velocity": 1,
        "hand": "left"
      },
      {
        "midi": 59,
        "time": 0.833,
        "duration": 0.833,
        "velocity": 1,
        "hand": "left"
      },
      {
        "midi": 64,
        "time": 0.833,
        "duration": 0.833,
        "velocity": 1,
        "hand": "right"
      },
      {
        "midi": 68,
        "time": 0.833,
        "duration": 0.417,
        "velocity": 1,
        "hand": "right"
      },
      {
        "midi": 71,
        "time": 1.25,
        "duration": 0.417,
        "velocity": 1,
        "hand": "right"
      },
      {
        "midi": 49,
        "time": 1.667,
        "duration": 0.833,
        "velocity": 1,
        "hand": "left"
      },
      {
        "midi": 64,
        "time": 1.667,
        "duration": 1.667,
        "velocity": 1,
        "hand": "right"
      },
      {
        "midi": 69,
        "time": 2.083,
        "duration": 0.417,
        "velocity": 1,
        "hand": "right"
      },
      {
        "midi": 47,
        "time": 2.5,
        "duration": 0.417,
        "velocity": 1,
        "hand": "left"
      },
      {
        "midi": 52,
        "time": 2.5,
        "duration": 0.833,
        "velocity": 1,
        "hand": "left"
      },
      {
        "midi": 68,
        "time": 2.5,
        "duration": 0.417,
        "velocity": 1,
        "hand": "right"
      },
      {
        "midi": 71,
        "time": 2.5,
        "duration": 0.417,
        "velocity": 1,
        "hand": "right"
      },
      {
        "midi": 45,
        "time": 2.917,
        "duration": 0.417,
        "velocity": 1,
        "hand": "left"
      },
      {
        "midi": 69,
        "time": 2.917,
        "duration": 0.417,
        "velocity": 1,
        "hand": "right"
      },
      {
        "midi": 73,
        "time": 2.917,
        "duration": 0.417,
        "velocity": 1,
        "hand": "right"
      },
      {
        "midi": 44,
        "time": 3.333,
        "duration": 0.833,
        "velocity": 1,
        "hand": "left"
      },
      {
        "midi": 52,
        "time": 3.333,
        "duration": 1.667,
        "velocity": 1,
        "hand": "left"
      },
      {
        "midi": 64,
        "time": 3.333,
        "duration": 1.667,
        "velocity": 1,
        "hand": "right"
      },
      {
        "midi": 71,
        "time": 3.333,
        "duration": 0.833,
        "velocity": 1,
        "hand": "right"
      },
      {
        "midi": 76,
        "time": 3.333,
        "duration": 0.833,
        "velocity": 1,
        "hand": "right"
      },
      {
        "midi": 45,
        "time": 4.167,
        "duration": 0.833,
        "velocity": 1,
        "hand": "left"
      },
      {
        "midi": 69,
        "time": 4.167,
        "duration": 0.833,
        "velocity": 1,
        "hand": "right"
      },
      {
        "midi": 73,
        "time": 4.167,
        "duration": 0.833,
        "velocity": 1,
        "hand": "right"
      },
      {
        "midi": 73,
        "time": 5,
        "duration": 0.417,
        "velocity": 1,
        "hand": "right"
      },
      {
        "midi": 74,
        "time": 5.417,
        "duration": 0.208,
        "velocity": 1,
        "hand": "right"
      },
      {
        "midi": 76,
        "time": 5.625,
        "duration": 0.208,
        "velocity": 1,
        "hand": "right"
      },
      {
        "midi": 46,
        "time": 5.833,
        "duration": 0.833,
        "velocity": 1,
        "hand": "left"
      },
      {
        "midi": 54,
        "time": 5.833,
        "duration": 0.833,
        "velocity": 1,
        "hand": "left"
      },
      {
        "midi": 61,
        "time": 5.833,
        "duration": 0.833,
        "velocity": 1,
        "hand": "right"
      },
      {
        "midi": 66,
        "time": 5.833,
        "duration": 0.833,
        "velocity": 1,
        "hand": "right"
      },
      {
        "midi": 73,
        "time": 5.833,
        "duration": 0.417,
        "velocity": 1,
        "hand": "right"
      },
      {
        "midi": 78,
        "time": 5.833,
        "duration": 0.417,
        "velocity": 1,
        "hand": "right"
      },
      {
        "midi": 73,
        "time": 6.25,
        "duration": 0.417,
        "velocity": 1,
        "hand": "right"
      },
      {
        "midi": 47,
        "time": 6.667,
        "duration": 0.833,
        "velocity": 1,
        "hand": "left"
      },
      {
        "midi": 54,
        "time": 6.667,
        "duration": 0.833,
        "velocity": 1,
        "hand": "left"
      },
      {
        "midi": 59,
        "time": 6.667,
        "duration": 0.833,
        "velocity": 1,
        "hand": "left"
      },
      {
        "midi": 66,
        "time": 6.667,
        "duration": 0.833,
        "velocity": 1,
        "hand": "right"
      },
      {
        "midi": 71,
        "time": 6.667,
        "duration": 0.833,
        "velocity": 1,
        "hand": "right"
      },
      {
        "midi": 74,
        "time": 6.667,
        "duration": 0.833,
        "velocity": 1,
        "hand": "right"
      },
      {
        "midi": 66,
        "time": 7.5,
        "duration": 0.417,
        "velocity": 1,
        "hand": "right"
      },
      {
        "midi": 68,
        "time": 7.917,
        "duration": 0.208,
        "velocity": 1,
        "hand": "right"
      },
      {
        "midi": 69,
        "time": 8.125,
        "duration": 0.208,
        "velocity": 1,
        "hand": "right"
      },
      {
        "midi": 47,
        "time": 8.333,
        "duration": 0.833,
        "velocity": 1,
        "hand": "left"
      },
      {
        "midi": 57,
        "time": 8.333,
        "duration": 0.833,
        "velocity": 1,
        "hand": "left"
      },
      {
        "midi": 63,
        "time": 8.333,
        "duration": 0.833,
        "velocity": 1,
        "hand": "right"
      },
      {
        "midi": 73,
        "time": 8.333,
        "duration": 0.417,
        "velocity": 1,
        "hand": "right"
      },
      {
        "midi": 70,
        "time": 8.75,
        "duration": 0.833,
        "velocity": 1,
        "hand": "right"
      },
      {
        "midi": 52,
        "time": 9.167,
        "duration": 0.833,
        "velocity": 1,
        "hand": "left"
      },
      {
        "midi": 56,
        "time": 9.167,
        "duration": 0.833,
        "velocity": 1,
        "hand": "left"
      },
      {
        "midi": 62,
        "time": 9.167,
        "duration": 0.833,
        "velocity": 1,
        "hand": "right"
      },
      {
        "midi": 71,
        "time": 9.583,
        "duration": 0.417,
        "velocity": 1,
        "hand": "right"
      },
      {
        "midi": 66,
        "time": 10,
        "duration": 0.417,
        "velocity": 1,
        "hand": "right"
      },
      {
        "midi": 68,
        "time": 10.417,
        "duration": 0.208,
        "velocity": 1,
        "hand": "right"
      },
      {
        "midi": 69,
        "time": 10.625,
        "duration": 0.208,
        "velocity": 1,
        "hand": "right"
      },
      {
        "midi": 50,
        "time": 10.833,
        "duration": 0.833,
        "velocity": 1,
        "hand": "left"
      },
      {
        "midi": 52,
        "time": 10.833,
        "duration": 1.667,
        "velocity": 1,
        "hand": "left"
      },
      {
        "midi": 59,
        "time": 10.833,
        "duration": 0.833,
        "velocity": 1,
        "hand": "left"
      },
      {
        "midi": 64,
        "time": 10.833,
        "duration": 0.833,
        "velocity": 1,
        "hand": "right"
      },
      {
        "midi": 68,
        "time": 10.833,
        "duration": 0.417,
        "velocity": 1,
        "hand": "right"
      },
      {
        "midi": 71,
        "time": 11.25,
        "duration": 0.417,
        "velocity": 1,
        "hand": "right"
      },
      {
        "midi": 49,
        "time": 11.667,
        "duration": 0.833,
        "velocity": 1,
        "hand": "left"
      },
      {
        "midi": 64,
        "time": 11.667,
        "duration": 1.667,
        "velocity": 1,
        "hand": "right"
      },
      {
        "midi": 69,
        "time": 12.083,
        "duration": 0.417,
        "velocity": 1,
        "hand": "right"
      },
      {
        "midi": 47,
        "time": 12.5,
        "duration": 0.417,
        "velocity": 1,
        "hand": "left"
      },
      {
        "midi": 52,
        "time": 12.5,
        "duration": 0.833,
        "velocity": 1,
        "hand": "left"
      },
      {
        "midi": 68,
        "time": 12.5,
        "duration": 0.417,
        "velocity": 1,
        "hand": "right"
      },
      {
        "midi": 71,
        "time": 12.5,
        "duration": 0.417,
        "velocity": 1,
        "hand": "right"
      },
      {
        "midi": 45,
        "time": 12.917,
        "duration": 0.417,
        "velocity": 1,
        "hand": "left"
      },
      {
        "midi": 69,
        "time": 12.917,
        "duration": 0.417,
        "velocity": 1,
        "hand": "right"
      },
      {
        "midi": 73,
        "time": 12.917,
        "duration": 0.417,
        "velocity": 1,
        "hand": "right"
      },
      {
        "midi": 44,
        "time": 13.333,
        "duration": 0.833,
        "velocity": 1,
        "hand": "left"
      },
      {
        "midi": 52,
        "time": 13.333,
        "duration": 1.667,
        "velocity": 1,
        "hand": "left"
      },
      {
        "midi": 64,
        "time": 13.333,
        "duration": 1.667,
        "velocity": 1,
        "hand": "right"
      },
      {
        "midi": 71,
        "time": 13.333,
        "duration": 0.833,
        "velocity": 1,
        "hand": "right"
      },
      {
        "midi": 76,
        "time": 13.333,
        "duration": 0.833,
        "velocity": 1,
        "hand": "right"
      },
      {
        "midi": 45,
        "time": 14.167,
        "duration": 0.833,
        "velocity": 1,
        "hand": "left"
      },
      {
        "midi": 69,
        "time": 14.167,
        "duration": 0.833,
        "velocity": 1,
        "hand": "right"
      },
      {
        "midi": 73,
        "time": 14.167,
        "duration": 0.833,
        "velocity": 1,
        "hand": "right"
      },
      {
        "midi": 73,
        "time": 15,
        "duration": 0.417,
        "velocity": 1,
        "hand": "right"
      },
      {
        "midi": 75,
        "time": 15.417,
        "duration": 0.208,
        "velocity": 1,
        "hand": "right"
      },
      {
        "midi": 76,
        "time": 15.625,
        "duration": 0.208,
        "velocity": 1,
        "hand": "right"
      },
      {
        "midi": 47,
        "time": 15.833,
        "duration": 2.5,
        "velocity": 1,
        "hand": "left"
      },
      {
        "midi": 64,
        "time": 15.833,
        "duration": 0.833,
        "velocity": 1,
        "hand": "right"
      },
      {
        "midi": 68,
        "time": 15.833,
        "duration": 0.417,
        "velocity": 1,
        "hand": "right"
      },
      {
        "midi": 73,
        "time": 16.25,
        "duration": 0.417,
        "velocity": 1,
        "hand": "right"
      },
      {
        "midi": 57,
        "time": 16.667,
        "duration": 0.417,
        "velocity": 1,
        "hand": "left"
      },
      {
        "midi": 63,
        "time": 16.667,
        "duration": 0.833,
        "velocity": 1,
        "hand": "right"
      },
      {
        "midi": 66,
        "time": 16.667,
        "duration": 0.833,
        "velocity": 1,
        "hand": "right"
      },
      {
        "midi": 71,
        "time": 16.667,
        "duration": 0.833,
        "velocity": 1,
        "hand": "right"
      },
      {
        "midi": 59,
        "time": 17.083,
        "duration": 0.417,
        "velocity": 1,
        "hand": "left"
      },
      {
        "midi": 56,
        "time": 17.5,
        "duration": 0.833,
        "velocity": 1,
        "hand": "left"
      },
      {
        "midi": 64,
        "time": 17.5,
        "duration": 0.833,
        "velocity": 1,
        "hand": "right"
      },
      {
        "midi": 71,
        "time": 17.5,
        "duration": 0.833,
        "velocity": 1,
        "hand": "right"
      },
      {
        "midi": 73,
        "time": 17.5,
        "duration": 0.417,
        "velocity": 1,
        "hand": "right"
      },
      {
        "midi": 75,
        "time": 17.917,
        "duration": 0.208,
        "velocity": 1,
        "hand": "right"
      },
      {
        "midi": 76,
        "time": 18.125,
        "duration": 0.208,
        "velocity": 1,
        "hand": "right"
      },
      {
        "midi": 47,
        "time": 18.333,
        "duration": 2.083,
        "velocity": 1,
        "hand": "left"
      },
      {
        "midi": 64,
        "time": 18.333,
        "duration": 0.833,
        "velocity": 1,
        "hand": "right"
      },
      {
        "midi": 68,
        "time": 18.333,
        "duration": 0.417,
        "velocity": 1,
        "hand": "right"
      },
      {
        "midi": 73,
        "time": 18.75,
        "duration": 0.417,
        "velocity": 1,
        "hand": "right"
      },
      {
        "midi": 57,
        "time": 19.167,
        "duration": 0.417,
        "velocity": 1,
        "hand": "left"
      },
      {
        "midi": 63,
        "time": 19.167,
        "duration": 0.833,
        "velocity": 1,
        "hand": "right"
      },
      {
        "midi": 66,
        "time": 19.167,
        "duration": 0.833,
        "velocity": 1,
        "hand": "right"
      },
      {
        "midi": 71,
        "time": 19.167,
        "duration": 0.833,
        "velocity": 1,
        "hand": "right"
      },
      {
        "midi": 59,
        "time": 19.583,
        "duration": 0.417,
        "velocity": 1,
        "hand": "left"
      },
      {
        "midi": 56,
        "time": 20,
        "duration": 0.417,
        "velocity": 1,
        "hand": "left"
      },
      {
        "midi": 64,
        "time": 20,
        "duration": 0.417,
        "velocity": 1,
        "hand": "right"
      },
      {
        "midi": 71,
        "time": 20,
        "duration": 0.417,
        "velocity": 1,
        "hand": "right"
      },
      {
        "midi": 73,
        "time": 20,
        "duration": 0.417,
        "velocity": 1,
        "hand": "right"
      },
      {
        "midi": 75,
        "time": 20.417,
        "duration": 0.208,
        "velocity": 1,
        "hand": "right"
      },
      {
        "midi": 76,
        "time": 20.625,
        "duration": 0.208,
        "velocity": 1,
        "hand": "right"
      },
      {
        "midi": 80,
        "time": 20.833,
        "duration": 0.417,
        "velocity": 1,
        "hand": "right"
      },
      {
        "midi": 76,
        "time": 21.25,
        "duration": 0.417,
        "velocity": 1,
        "hand": "right"
      },
      {
        "midi": 75,
        "time": 21.667,
        "duration": 0.417,
        "velocity": 1,
        "hand": "right"
      },
      {
        "midi": 73,
        "time": 22.083,
        "duration": 0.417,
        "velocity": 1,
        "hand": "right"
      },
      {
        "midi": 54,
        "time": 22.5,
        "duration": 0.417,
        "velocity": 1,
        "hand": "left"
      },
      {
        "midi": 63,
        "time": 22.5,
        "duration": 0.833,
        "velocity": 1,
        "hand": "right"
      },
      {
        "midi": 66,
        "time": 22.5,
        "duration": 0.833,
        "velocity": 1,
        "hand": "right"
      },
      {
        "midi": 73,
        "time": 22.5,
        "duration": 0.833,
        "velocity": 1,
        "hand": "right"
      },
      {
        "midi": 56,
        "time": 22.917,
        "duration": 0.208,
        "velocity": 1,
        "hand": "left"
      },
      {
        "midi": 57,
        "time": 23.125,
        "duration": 0.208,
        "velocity": 1,
        "hand": "left"
      },
      {
        "midi": 47,
        "time": 23.333,
        "duration": 0.833,
        "velocity": 1,
        "hand": "left"
      },
      {
        "midi": 61,
        "time": 23.333,
        "duration": 0.417,
        "velocity": 1,
        "hand": "right"
      },
      {
        "midi": 63,
        "time": 23.333,
        "duration": 0.833,
        "velocity": 1,
        "hand": "right"
      },
      {
        "midi": 66,
        "time": 23.333,
        "duration": 0.833,
        "velocity": 1,
        "hand": "right"
      },
      {
        "midi": 59,
        "time": 23.75,
        "duration": 0.417,
        "velocity": 1,
        "hand": "left"
      },
      {
        "midi": 52,
        "time": 24.167,
        "duration": 0.833,
        "velocity": 1,
        "hand": "left"
      },
      {
        "midi": 57,
        "time": 24.167,
        "duration": 0.417,
        "velocity": 1,
        "hand": "left"
      },
      {
        "midi": 59,
        "time": 24.167,
        "duration": 0.833,
        "velocity": 1,
        "hand": "left"
      },
      {
        "midi": 64,
        "time": 24.167,
        "duration": 0.833,
        "velocity": 1,
        "hand": "right"
      },
      {
        "midi": 56,
        "time": 24.583,
        "duration": 0.417,
        "velocity": 1,
        "hand": "left"
      },
      {
        "midi": 40,
        "time": 25,
        "duration": 0.417,
        "velocity": 1,
        "hand": "left"
      },
      {
        "midi": 74,
        "time": 25,
        "duration": 0.417,
        "velocity": 1,
        "hand": "right"
      },
      {
        "midi": 52,
        "time": 25.208,
        "duration": 0.208,
        "velocity": 1,
        "hand": "left"
      },
      {
        "midi": 54,
        "time": 25.417,
        "duration": 0.208,
        "velocity": 1,
        "hand": "left"
      },
      {
        "midi": 73,
        "time": 25.417,
        "duration": 0.208,
        "velocity": 1,
        "hand": "right"
      },
      {
        "midi": 56,
        "time": 25.625,
        "duration": 0.208,
        "velocity": 1,
        "hand": "left"
      },
      {
        "midi": 71,
        "time": 25.625,
        "duration": 0.208,
        "velocity": 1,
        "hand": "right"
      },
      {
        "midi": 52,
        "time": 25.833,
        "duration": 1.667,
        "velocity": 1,
        "hand": "left"
      },
      {
        "midi": 57,
        "time": 25.833,
        "duration": 0.208,
        "velocity": 1,
        "hand": "left"
      },
      {
        "midi": 63,
        "time": 25.833,
        "duration": 0.833,
        "velocity": 1,
        "hand": "right"
      },
      {
        "midi": 66,
        "time": 25.833,
        "duration": 0.417,
        "velocity": 1,
        "hand": "right"
      },
      {
        "midi": 59,
        "time": 26.042,
        "duration": 0.208,
        "velocity": 1,
        "hand": "left"
      },
      {
        "midi": 60,
        "time": 26.25,
        "duration": 0.833,
        "velocity": 1,
        "hand": "right"
      },
      {
        "midi": 69,
        "time": 26.25,
        "duration": 0.417,
        "velocity": 1,
        "hand": "right"
      },
      {
        "midi": 64,
        "time": 26.667,
        "duration": 0.833,
        "velocity": 1,
        "hand": "right"
      },
      {
        "midi": 68,
        "time": 26.667,
        "duration": 0.833,
        "velocity": 1,
        "hand": "right"
      },
      {
        "midi": 59,
        "time": 27.083,
        "duration": 0.417,
        "velocity": 1,
        "hand": "left"
      },
      {
        "midi": 45,
        "time": 27.5,
        "duration": 0.417,
        "velocity": 1,
        "hand": "left"
      },
      {
        "midi": 52,
        "time": 27.5,
        "duration": 1.667,
        "velocity": 1,
        "hand": "left"
      },
      {
        "midi": 61,
        "time": 27.5,
        "duration": 0.417,
        "velocity": 1,
        "hand": "right"
      },
      {
        "midi": 66,
        "time": 27.5,
        "duration": 0.417,
        "velocity": 1,
        "hand": "right"
      },
      {
        "midi": 44,
        "time": 27.917,
        "duration": 0.417,
        "velocity": 1,
        "hand": "left"
      },
      {
        "midi": 60,
        "time": 27.917,
        "duration": 0.417,
        "velocity": 1,
        "hand": "right"
      },
      {
        "midi": 68,
        "time": 27.917,
        "duration": 0.417,
        "velocity": 1,
        "hand": "right"
      },
      {
        "midi": 45,
        "time": 28.333,
        "duration": 0.417,
        "velocity": 1,
        "hand": "left"
      },
      {
        "midi": 61,
        "time": 28.333,
        "duration": 0.417,
        "velocity": 1,
        "hand": "right"
      },
      {
        "midi": 66,
        "time": 28.333,
        "duration": 0.417,
        "velocity": 1,
        "hand": "right"
      },
      {
        "midi": 44,
        "time": 28.75,
        "duration": 0.417,
        "velocity": 1,
        "hand": "left"
      },
      {
        "midi": 60,
        "time": 28.75,
        "duration": 0.417,
        "velocity": 1,
        "hand": "right"
      },
      {
        "midi": 68,
        "time": 28.75,
        "duration": 0.417,
        "velocity": 1,
        "hand": "right"
      },
      {
        "midi": 52,
        "time": 29.167,
        "duration": 0.833,
        "velocity": 1,
        "hand": "left"
      },
      {
        "midi": 57,
        "time": 29.167,
        "duration": 0.417,
        "velocity": 1,
        "hand": "left"
      },
      {
        "midi": 59,
        "time": 29.167,
        "duration": 0.833,
        "velocity": 1,
        "hand": "left"
      },
      {
        "midi": 64,
        "time": 29.167,
        "duration": 0.833,
        "velocity": 1,
        "hand": "right"
      },
      {
        "midi": 56,
        "time": 29.583,
        "duration": 0.417,
        "velocity": 1,
        "hand": "left"
      },
      {
        "midi": 40,
        "time": 30,
        "duration": 0.417,
        "velocity": 1,
        "hand": "left"
      },
      {
        "midi": 74,
        "time": 30,
        "duration": 0.417,
        "velocity": 1,
        "hand": "right"
      },
      {
        "midi": 52,
        "time": 30.208,
        "duration": 0.208,
        "velocity": 1,
        "hand": "left"
      },
      {
        "midi": 54,
        "time": 30.417,
        "duration": 0.208,
        "velocity": 1,
        "hand": "left"
      },
      {
        "midi": 73,
        "time": 30.417,
        "duration": 0.208,
        "velocity": 1,
        "hand": "right"
      },
      {
        "midi": 56,
        "time": 30.625,
        "duration": 0.208,
        "velocity": 1,
        "hand": "left"
      },
      {
        "midi": 71,
        "time": 30.625,
        "duration": 0.208,
        "velocity": 1,
        "hand": "right"
      },
      {
        "midi": 52,
        "time": 30.833,
        "duration": 1.667,
        "velocity": 1,
        "hand": "left"
      },
      {
        "midi": 57,
        "time": 30.833,
        "duration": 0.208,
        "velocity": 1,
        "hand": "left"
      },
      {
        "midi": 63,
        "time": 30.833,
        "duration": 0.833,
        "velocity": 1,
        "hand": "right"
      },
      {
        "midi": 66,
        "time": 30.833,
        "duration": 0.417,
        "velocity": 1,
        "hand": "right"
      },
      {
        "midi": 59,
        "time": 31.042,
        "duration": 0.208,
        "velocity": 1,
        "hand": "left"
      },
      {
        "midi": 60,
        "time": 31.25,
        "duration": 0.833,
        "velocity": 1,
        "hand": "right"
      },
      {
        "midi": 69,
        "time": 31.25,
        "duration": 0.417,
        "velocity": 1,
        "hand": "right"
      },
      {
        "midi": 64,
        "time": 31.667,
        "duration": 0.833,
        "velocity": 1,
        "hand": "right"
      },
      {
        "midi": 68,
        "time": 31.667,
        "duration": 0.833,
        "velocity": 1,
        "hand": "right"
      },
      {
        "midi": 59,
        "time": 32.083,
        "duration": 0.417,
        "velocity": 1,
        "hand": "left"
      },
      {
        "midi": 45,
        "time": 32.5,
        "duration": 0.417,
        "velocity": 1,
        "hand": "left"
      },
      {
        "midi": 52,
        "time": 32.5,
        "duration": 1.667,
        "velocity": 1,
        "hand": "left"
      },
      {
        "midi": 61,
        "time": 32.5,
        "duration": 0.417,
        "velocity": 1,
        "hand": "right"
      },
      {
        "midi": 66,
        "time": 32.5,
        "duration": 0.417,
        "velocity": 1,
        "hand": "right"
      },
      {
        "midi": 44,
        "time": 32.917,
        "duration": 0.417,
        "velocity": 1,
        "hand": "left"
      },
      {
        "midi": 60,
        "time": 32.917,
        "duration": 0.417,
        "velocity": 1,
        "hand": "right"
      },
      {
        "midi": 68,
        "time": 32.917,
        "duration": 0.417,
        "velocity": 1,
        "hand": "right"
      },
      {
        "midi": 45,
        "time": 33.333,
        "duration": 0.417,
        "velocity": 1,
        "hand": "left"
      },
      {
        "midi": 61,
        "time": 33.333,
        "duration": 0.417,
        "velocity": 1,
        "hand": "right"
      },
      {
        "midi": 66,
        "time": 33.333,
        "duration": 0.417,
        "velocity": 1,
        "hand": "right"
      },
      {
        "midi": 44,
        "time": 33.75,
        "duration": 0.417,
        "velocity": 1,
        "hand": "left"
      },
      {
        "midi": 60,
        "time": 33.75,
        "duration": 0.417,
        "velocity": 1,
        "hand": "right"
      },
      {
        "midi": 68,
        "time": 33.75,
        "duration": 0.417,
        "velocity": 1,
        "hand": "right"
      },
      {
        "midi": 52,
        "time": 34.167,
        "duration": 0.833,
        "velocity": 1,
        "hand": "left"
      },
      {
        "midi": 57,
        "time": 34.167,
        "duration": 0.417,
        "velocity": 1,
        "hand": "left"
      },
      {
        "midi": 59,
        "time": 34.167,
        "duration": 0.833,
        "velocity": 1,
        "hand": "left"
      },
      {
        "midi": 64,
        "time": 34.167,
        "duration": 0.833,
        "velocity": 1,
        "hand": "right"
      },
      {
        "midi": 56,
        "time": 34.583,
        "duration": 0.417,
        "velocity": 1,
        "hand": "left"
      },
      {
        "midi": 49,
        "time": 35,
        "duration": 0.417,
        "velocity": 1,
        "hand": "left"
      },
      {
        "midi": 56,
        "time": 35,
        "duration": 1.667,
        "velocity": 1,
        "hand": "left"
      },
      {
        "midi": 64,
        "time": 35,
        "duration": 0.417,
        "velocity": 1,
        "hand": "right"
      },
      {
        "midi": 70,
        "time": 35,
        "duration": 0.417,
        "velocity": 1,
        "hand": "right"
      },
      {
        "midi": 48,
        "time": 35.417,
        "duration": 0.417,
        "velocity": 1,
        "hand": "left"
      },
      {
        "midi": 63,
        "time": 35.417,
        "duration": 0.417,
        "velocity": 1,
        "hand": "right"
      },
      {
        "midi": 72,
        "time": 35.417,
        "duration": 0.417,
        "velocity": 1,
        "hand": "right"
      },
      {
        "midi": 49,
        "time": 35.833,
        "duration": 0.417,
        "velocity": 1,
        "hand": "left"
      },
      {
        "midi": 64,
        "time": 35.833,
        "duration": 0.417,
        "velocity": 1,
        "hand": "right"
      },
      {
        "midi": 70,
        "time": 35.833,
        "duration": 0.417,
        "velocity": 1,
        "hand": "right"
      },
      {
        "midi": 48,
        "time": 36.25,
        "duration": 0.417,
        "velocity": 1,
        "hand": "left"
      },
      {
        "midi": 63,
        "time": 36.25,
        "duration": 0.417,
        "velocity": 1,
        "hand": "right"
      },
      {
        "midi": 72,
        "time": 36.25,
        "duration": 0.417,
        "velocity": 1,
        "hand": "right"
      },
      {
        "midi": 56,
        "time": 36.667,
        "duration": 0.833,
        "velocity": 1,
        "hand": "left"
      },
      {
        "midi": 61,
        "time": 36.667,
        "duration": 0.417,
        "velocity": 1,
        "hand": "right"
      },
      {
        "midi": 63,
        "time": 36.667,
        "duration": 0.833,
        "velocity": 1,
        "hand": "right"
      },
      {
        "midi": 68,
        "time": 36.667,
        "duration": 0.833,
        "velocity": 1,
        "hand": "right"
      },
      {
        "midi": 60,
        "time": 37.083,
        "duration": 0.417,
        "velocity": 1,
        "hand": "right"
      },
      {
        "midi": 53,
        "time": 37.5,
        "duration": 0.417,
        "velocity": 1,
        "hand": "left"
      },
      {
        "midi": 60,
        "time": 37.5,
        "duration": 1.667,
        "velocity": 1,
        "hand": "right"
      },
      {
        "midi": 68,
        "time": 37.5,
        "duration": 0.417,
        "velocity": 1,
        "hand": "right"
      },
      {
        "midi": 74,
        "time": 37.5,
        "duration": 0.417,
        "velocity": 1,
        "hand": "right"
      },
      {
        "midi": 52,
        "time": 37.917,
        "duration": 0.417,
        "velocity": 1,
        "hand": "left"
      },
      {
        "midi": 67,
        "time": 37.917,
        "duration": 0.417,
        "velocity": 1,
        "hand": "right"
      },
      {
        "midi": 76,
        "time": 37.917,
        "duration": 0.417,
        "velocity": 1,
        "hand": "right"
      },
      {
        "midi": 53,
        "time": 38.333,
        "duration": 0.417,
        "velocity": 1,
        "hand": "left"
      },
      {
        "midi": 68,
        "time": 38.333,
        "duration": 0.417,
        "velocity": 1,
        "hand": "right"
      },
      {
        "midi": 74,
        "time": 38.333,
        "duration": 0.417,
        "velocity": 1,
        "hand": "right"
      },
      {
        "midi": 52,
        "time": 38.75,
        "duration": 0.417,
        "velocity": 1,
        "hand": "left"
      },
      {
        "midi": 67,
        "time": 38.75,
        "duration": 0.417,
        "velocity": 1,
        "hand": "right"
      },
      {
        "midi": 76,
        "time": 38.75,
        "duration": 0.417,
        "velocity": 1,
        "hand": "right"
      },
      {
        "midi": 56,
        "time": 39.167,
        "duration": 0.417,
        "velocity": 1,
        "hand": "left"
      },
      {
        "midi": 60,
        "time": 39.167,
        "duration": 0.417,
        "velocity": 1,
        "hand": "right"
      },
      {
        "midi": 63,
        "time": 39.167,
        "duration": 0.417,
        "velocity": 1,
        "hand": "right"
      },
      {
        "midi": 66,
        "time": 39.167,
        "duration": 0.417,
        "velocity": 1,
        "hand": "right"
      },
      {
        "midi": 72,
        "time": 39.167,
        "duration": 0.833,
        "velocity": 1,
        "hand": "right"
      },
      {
        "midi": 48,
        "time": 39.583,
        "duration": 0.417,
        "velocity": 1,
        "hand": "left"
      },
      {
        "midi": 55,
        "time": 39.583,
        "duration": 0.417,
        "velocity": 1,
        "hand": "left"
      },
      {
        "midi": 64,
        "time": 39.583,
        "duration": 0.417,
        "velocity": 1,
        "hand": "right"
      },
      {
        "midi": 67,
        "time": 39.583,
        "duration": 0.417,
        "velocity": 1,
        "hand": "right"
      },
      {
        "midi": 53,
        "time": 40,
        "duration": 0.417,
        "velocity": 1,
        "hand": "left"
      },
      {
        "midi": 60,
        "time": 40,
        "duration": 1.667,
        "velocity": 1,
        "hand": "right"
      },
      {
        "midi": 68,
        "time": 40,
        "duration": 0.417,
        "velocity": 1,
        "hand": "right"
      },
      {
        "midi": 74,
        "time": 40,
        "duration": 0.208,
        "velocity": 1,
        "hand": "right"
      },
      {
        "midi": 77,
        "time": 40.208,
        "duration": 0.208,
        "velocity": 1,
        "hand": "right"
      },
      {
        "midi": 55,
        "time": 40.417,
        "duration": 0.417,
        "velocity": 1,
        "hand": "left"
      },
      {
        "midi": 67,
        "time": 40.417,
        "duration": 0.417,
        "velocity": 1,
        "hand": "right"
      },
      {
        "midi": 72,
        "time": 40.417,
        "duration": 0.417,
        "velocity": 1,
        "hand": "right"
      },
      {
        "midi": 76,
        "time": 40.417,
        "duration": 0.417,
        "velocity": 1,
        "hand": "right"
      },
      {
        "midi": 53,
        "time": 40.833,
        "duration": 0.417,
        "velocity": 1,
        "hand": "left"
      },
      {
        "midi": 68,
        "time": 40.833,
        "duration": 0.417,
        "velocity": 1,
        "hand": "right"
      },
      {
        "midi": 74,
        "time": 40.833,
        "duration": 0.208,
        "velocity": 1,
        "hand": "right"
      },
      {
        "midi": 77,
        "time": 41.042,
        "duration": 0.208,
        "velocity": 1,
        "hand": "right"
      },
      {
        "midi": 55,
        "time": 41.25,
        "duration": 0.417,
        "velocity": 1,
        "hand": "left"
      },
      {
        "midi": 67,
        "time": 41.25,
        "duration": 0.417,
        "velocity": 1,
        "hand": "right"
      },
      {
        "midi": 72,
        "time": 41.25,
        "duration": 0.417,
        "velocity": 1,
        "hand": "right"
      },
      {
        "midi": 76,
        "time": 41.25,
        "duration": 0.417,
        "velocity": 1,
        "hand": "right"
      },
      {
        "midi": 56,
        "time": 41.667,
        "duration": 0.417,
        "velocity": 1,
        "hand": "left"
      },
      {
        "midi": 60,
        "time": 41.667,
        "duration": 0.417,
        "velocity": 1,
        "hand": "right"
      },
      {
        "midi": 63,
        "time": 41.667,
        "duration": 0.417,
        "velocity": 1,
        "hand": "right"
      },
      {
        "midi": 66,
        "time": 41.667,
        "duration": 0.417,
        "velocity": 1,
        "hand": "right"
      },
      {
        "midi": 72,
        "time": 41.667,
        "duration": 0.833,
        "velocity": 1,
        "hand": "right"
      },
      {
        "midi": 48,
        "time": 42.083,
        "duration": 0.417,
        "velocity": 1,
        "hand": "left"
      },
      {
        "midi": 55,
        "time": 42.083,
        "duration": 0.417,
        "velocity": 1,
        "hand": "left"
      },
      {
        "midi": 64,
        "time": 42.083,
        "duration": 0.417,
        "velocity": 1,
        "hand": "right"
      },
      {
        "midi": 67,
        "time": 42.083,
        "duration": 0.417,
        "velocity": 1,
        "hand": "right"
      },
      {
        "midi": 53,
        "time": 42.5,
        "duration": 0.417,
        "velocity": 1,
        "hand": "left"
      },
      {
        "midi": 60,
        "time": 42.5,
        "duration": 1.667,
        "velocity": 1,
        "hand": "right"
      },
      {
        "midi": 68,
        "time": 42.5,
        "duration": 0.417,
        "velocity": 1,
        "hand": "right"
      },
      {
        "midi": 74,
        "time": 42.5,
        "duration": 0.208,
        "velocity": 1,
        "hand": "right"
      },
      {
        "midi": 77,
        "time": 42.708,
        "duration": 0.208,
        "velocity": 1,
        "hand": "right"
      },
      {
        "midi": 55,
        "time": 42.917,
        "duration": 0.417,
        "velocity": 1,
        "hand": "left"
      },
      {
        "midi": 67,
        "time": 42.917,
        "duration": 0.417,
        "velocity": 1,
        "hand": "right"
      },
      {
        "midi": 72,
        "time": 42.917,
        "duration": 0.417,
        "velocity": 1,
        "hand": "right"
      },
      {
        "midi": 76,
        "time": 42.917,
        "duration": 0.417,
        "velocity": 1,
        "hand": "right"
      },
      {
        "midi": 53,
        "time": 43.333,
        "duration": 0.417,
        "velocity": 1,
        "hand": "left"
      },
      {
        "midi": 68,
        "time": 43.333,
        "duration": 0.417,
        "velocity": 1,
        "hand": "right"
      },
      {
        "midi": 74,
        "time": 43.333,
        "duration": 0.208,
        "velocity": 1,
        "hand": "right"
      },
      {
        "midi": 77,
        "time": 43.542,
        "duration": 0.208,
        "velocity": 1,
        "hand": "right"
      },
      {
        "midi": 55,
        "time": 43.75,
        "duration": 0.417,
        "velocity": 1,
        "hand": "left"
      },
      {
        "midi": 67,
        "time": 43.75,
        "duration": 0.417,
        "velocity": 1,
        "hand": "right"
      },
      {
        "midi": 72,
        "time": 43.75,
        "duration": 0.417,
        "velocity": 1,
        "hand": "right"
      },
      {
        "midi": 76,
        "time": 43.75,
        "duration": 0.417,
        "velocity": 1,
        "hand": "right"
      },
      {
        "midi": 56,
        "time": 44.167,
        "duration": 0.417,
        "velocity": 1,
        "hand": "left"
      },
      {
        "midi": 60,
        "time": 44.167,
        "duration": 0.417,
        "velocity": 1,
        "hand": "right"
      },
      {
        "midi": 63,
        "time": 44.167,
        "duration": 0.417,
        "velocity": 1,
        "hand": "right"
      },
      {
        "midi": 66,
        "time": 44.167,
        "duration": 0.417,
        "velocity": 1,
        "hand": "right"
      },
      {
        "midi": 72,
        "time": 44.167,
        "duration": 0.833,
        "velocity": 1,
        "hand": "right"
      },
      {
        "midi": 48,
        "time": 44.583,
        "duration": 0.417,
        "velocity": 1,
        "hand": "left"
      },
      {
        "midi": 55,
        "time": 44.583,
        "duration": 0.417,
        "velocity": 1,
        "hand": "left"
      },
      {
        "midi": 64,
        "time": 44.583,
        "duration": 0.417,
        "velocity": 1,
        "hand": "right"
      },
      {
        "midi": 67,
        "time": 44.583,
        "duration": 0.417,
        "velocity": 1,
        "hand": "right"
      },
      {
        "midi": 53,
        "time": 45,
        "duration": 0.417,
        "velocity": 1,
        "hand": "left"
      },
      {
        "midi": 60,
        "time": 45,
        "duration": 0.417,
        "velocity": 1,
        "hand": "right"
      },
      {
        "midi": 68,
        "time": 45,
        "duration": 0.417,
        "velocity": 1,
        "hand": "right"
      },
      {
        "midi": 74,
        "time": 45,
        "duration": 0.417,
        "velocity": 1,
        "hand": "right"
      },
      {
        "midi": 48,
        "time": 45.417,
        "duration": 0.417,
        "velocity": 1,
        "hand": "left"
      },
      {
        "midi": 67,
        "time": 45.417,
        "duration": 0.417,
        "velocity": 1,
        "hand": "right"
      },
      {
        "midi": 72,
        "time": 45.417,
        "duration": 0.417,
        "velocity": 1,
        "hand": "right"
      },
      {
        "midi": 76,
        "time": 45.417,
        "duration": 0.417,
        "velocity": 1,
        "hand": "right"
      },
      {
        "midi": 57,
        "time": 45.833,
        "duration": 0.417,
        "velocity": 1,
        "hand": "left"
      },
      {
        "midi": 61,
        "time": 45.833,
        "duration": 0.417,
        "velocity": 1,
        "hand": "right"
      },
      {
        "midi": 70,
        "time": 45.833,
        "duration": 0.417,
        "velocity": 1,
        "hand": "right"
      },
      {
        "midi": 79,
        "time": 45.833,
        "duration": 0.417,
        "velocity": 1,
        "hand": "right"
      },
      {
        "midi": 62,
        "time": 46.25,
        "duration": 0.417,
        "velocity": 1,
        "hand": "right"
      },
      {
        "midi": 69,
        "time": 46.25,
        "duration": 0.417,
        "velocity": 1,
        "hand": "right"
      },
      {
        "midi": 78,
        "time": 46.25,
        "duration": 0.417,
        "velocity": 1,
        "hand": "right"
      },
      {
        "midi": 55,
        "time": 46.667,
        "duration": 0.417,
        "velocity": 1,
        "hand": "left"
      },
      {
        "midi": 59,
        "time": 46.667,
        "duration": 0.417,
        "velocity": 1,
        "hand": "left"
      },
      {
        "midi": 68,
        "time": 46.667,
        "duration": 0.417,
        "velocity": 1,
        "hand": "right"
      },
      {
        "midi": 77,
        "time": 46.667,
        "duration": 0.417,
        "velocity": 1,
        "hand": "right"
      },
      {
        "midi": 60,
        "time": 47.083,
        "duration": 0.417,
        "velocity": 1,
        "hand": "right"
      },
      {
        "midi": 67,
        "time": 47.083,
        "duration": 0.417,
        "velocity": 1,
        "hand": "right"
      },
      {
        "midi": 76,
        "time": 47.083,
        "duration": 0.417,
        "velocity": 1,
        "hand": "right"
      },
      {
        "midi": 54,
        "time": 47.5,
        "duration": 0.417,
        "velocity": 1,
        "hand": "left"
      },
      {
        "midi": 58,
        "time": 47.5,
        "duration": 0.417,
        "velocity": 1,
        "hand": "left"
      },
      {
        "midi": 67,
        "time": 47.5,
        "duration": 0.417,
        "velocity": 1,
        "hand": "right"
      },
      {
        "midi": 76,
        "time": 47.5,
        "duration": 0.417,
        "velocity": 1,
        "hand": "right"
      },
      {
        "midi": 59,
        "time": 47.917,
        "duration": 0.417,
        "velocity": 1,
        "hand": "left"
      },
      {
        "midi": 66,
        "time": 47.917,
        "duration": 0.417,
        "velocity": 1,
        "hand": "right"
      },
      {
        "midi": 75,
        "time": 47.917,
        "duration": 0.417,
        "velocity": 1,
        "hand": "right"
      },
      {
        "midi": 55,
        "time": 48.333,
        "duration": 0.417,
        "velocity": 1,
        "hand": "left"
      },
      {
        "midi": 64,
        "time": 48.333,
        "duration": 0.417,
        "velocity": 1,
        "hand": "right"
      },
      {
        "midi": 70,
        "time": 48.333,
        "duration": 0.208,
        "velocity": 1,
        "hand": "right"
      },
      {
        "midi": 73,
        "time": 48.542,
        "duration": 0.208,
        "velocity": 1,
        "hand": "right"
      },
      {
        "midi": 47,
        "time": 48.75,
        "duration": 0.417,
        "velocity": 1,
        "hand": "left"
      },
      {
        "midi": 54,
        "time": 48.75,
        "duration": 0.417,
        "velocity": 1,
        "hand": "left"
      },
      {
        "midi": 63,
        "time": 48.75,
        "duration": 0.417,
        "velocity": 1,
        "hand": "right"
      },
      {
        "midi": 66,
        "time": 48.75,
        "duration": 0.417,
        "velocity": 1,
        "hand": "right"
      },
      {
        "midi": 71,
        "time": 48.75,
        "duration": 0.417,
        "velocity": 1,
        "hand": "right"
      },
      {
        "midi": 54,
        "time": 49.167,
        "duration": 0.417,
        "velocity": 1,
        "hand": "left"
      },
      {
        "midi": 58,
        "time": 49.167,
        "duration": 0.417,
        "velocity": 1,
        "hand": "left"
      },
      {
        "midi": 67,
        "time": 49.167,
        "duration": 0.417,
        "velocity": 1,
        "hand": "right"
      },
      {
        "midi": 76,
        "time": 49.167,
        "duration": 0.417,
        "velocity": 1,
        "hand": "right"
      },
      {
        "midi": 59,
        "time": 49.583,
        "duration": 0.417,
        "velocity": 1,
        "hand": "left"
      },
      {
        "midi": 66,
        "time": 49.583,
        "duration": 0.417,
        "velocity": 1,
        "hand": "right"
      },
      {
        "midi": 75,
        "time": 49.583,
        "duration": 0.417,
        "velocity": 1,
        "hand": "right"
      },
      {
        "midi": 55,
        "time": 50,
        "duration": 0.417,
        "velocity": 1,
        "hand": "left"
      },
      {
        "midi": 64,
        "time": 50,
        "duration": 0.417,
        "velocity": 1,
        "hand": "right"
      },
      {
        "midi": 70,
        "time": 50,
        "duration": 0.208,
        "velocity": 1,
        "hand": "right"
      },
      {
        "midi": 73,
        "time": 50.208,
        "duration": 0.208,
        "velocity": 1,
        "hand": "right"
      },
      {
        "midi": 47,
        "time": 50.417,
        "duration": 0.417,
        "velocity": 1,
        "hand": "left"
      },
      {
        "midi": 54,
        "time": 50.417,
        "duration": 0.417,
        "velocity": 1,
        "hand": "left"
      },
      {
        "midi": 63,
        "time": 50.417,
        "duration": 0.417,
        "velocity": 1,
        "hand": "right"
      },
      {
        "midi": 66,
        "time": 50.417,
        "duration": 0.417,
        "velocity": 1,
        "hand": "right"
      },
      {
        "midi": 71,
        "time": 50.417,
        "duration": 0.417,
        "velocity": 1,
        "hand": "right"
      },
      {
        "midi": 55,
        "time": 50.833,
        "duration": 0.417,
        "velocity": 1,
        "hand": "left"
      },
      {
        "midi": 64,
        "time": 50.833,
        "duration": 0.417,
        "velocity": 1,
        "hand": "right"
      },
      {
        "midi": 70,
        "time": 50.833,
        "duration": 0.208,
        "velocity": 1,
        "hand": "right"
      },
      {
        "midi": 73,
        "time": 51.042,
        "duration": 0.208,
        "velocity": 1,
        "hand": "right"
      },
      {
        "midi": 47,
        "time": 51.25,
        "duration": 0.417,
        "velocity": 1,
        "hand": "left"
      },
      {
        "midi": 54,
        "time": 51.25,
        "duration": 0.417,
        "velocity": 1,
        "hand": "left"
      },
      {
        "midi": 63,
        "time": 51.25,
        "duration": 0.417,
        "velocity": 1,
        "hand": "right"
      },
      {
        "midi": 66,
        "time": 51.25,
        "duration": 0.417,
        "velocity": 1,
        "hand": "right"
      },
      {
        "midi": 71,
        "time": 51.25,
        "duration": 0.417,
        "velocity": 1,
        "hand": "right"
      },
      {
        "midi": 52,
        "time": 51.667,
        "duration": 0.417,
        "velocity": 1,
        "hand": "left"
      },
      {
        "midi": 58,
        "time": 51.667,
        "duration": 0.417,
        "velocity": 1,
        "hand": "left"
      },
      {
        "midi": 61,
        "time": 51.667,
        "duration": 0.417,
        "velocity": 1,
        "hand": "right"
      },
      {
        "midi": 66,
        "time": 51.667,
        "duration": 0.833,
        "velocity": 1,
        "hand": "right"
      },
      {
        "midi": 51,
        "time": 52.083,
        "duration": 0.417,
        "velocity": 1,
        "hand": "left"
      },
      {
        "midi": 59,
        "time": 52.083,
        "duration": 0.417,
        "velocity": 1,
        "hand": "left"
      },
      {
        "midi": 66,
        "time": 52.5,
        "duration": 0.417,
        "velocity": 1,
        "hand": "right"
      },
      {
        "midi": 68,
        "time": 52.917,
        "duration": 0.208,
        "velocity": 1,
        "hand": "right"
      },
      {
        "midi": 69,
        "time": 53.125,
        "duration": 0.208,
        "velocity": 1,
        "hand": "right"
      },
      {
        "midi": 50,
        "time": 53.333,
        "duration": 0.833,
        "velocity": 1,
        "hand": "left"
      },
      {
        "midi": 52,
        "time": 53.333,
        "duration": 1.667,
        "velocity": 1,
        "hand": "left"
      },
      {
        "midi": 59,
        "time": 53.333,
        "duration": 0.833,
        "velocity": 1,
        "hand": "left"
      },
      {
        "midi": 64,
        "time": 53.333,
        "duration": 0.833,
        "velocity": 1,
        "hand": "right"
      },
      {
        "midi": 68,
        "time": 53.333,
        "duration": 0.417,
        "velocity": 1,
        "hand": "right"
      },
      {
        "midi": 71,
        "time": 53.75,
        "duration": 0.417,
        "velocity": 1,
        "hand": "right"
      },
      {
        "midi": 49,
        "time": 54.167,
        "duration": 0.833,
        "velocity": 1,
        "hand": "left"
      },
      {
        "midi": 64,
        "time": 54.167,
        "duration": 1.667,
        "velocity": 1,
        "hand": "right"
      },
      {
        "midi": 69,
        "time": 54.583,
        "duration": 0.417,
        "velocity": 1,
        "hand": "right"
      },
      {
        "midi": 47,
        "time": 55,
        "duration": 0.417,
        "velocity": 1,
        "hand": "left"
      },
      {
        "midi": 52,
        "time": 55,
        "duration": 0.833,
        "velocity": 1,
        "hand": "left"
      },
      {
        "midi": 68,
        "time": 55,
        "duration": 0.417,
        "velocity": 1,
        "hand": "right"
      },
      {
        "midi": 71,
        "time": 55,
        "duration": 0.417,
        "velocity": 1,
        "hand": "right"
      },
      {
        "midi": 45,
        "time": 55.417,
        "duration": 0.417,
        "velocity": 1,
        "hand": "left"
      },
      {
        "midi": 69,
        "time": 55.417,
        "duration": 0.417,
        "velocity": 1,
        "hand": "right"
      },
      {
        "midi": 73,
        "time": 55.417,
        "duration": 0.417,
        "velocity": 1,
        "hand": "right"
      },
      {
        "midi": 44,
        "time": 55.833,
        "duration": 0.833,
        "velocity": 1,
        "hand": "left"
      },
      {
        "midi": 52,
        "time": 55.833,
        "duration": 1.667,
        "velocity": 1,
        "hand": "left"
      },
      {
        "midi": 64,
        "time": 55.833,
        "duration": 1.667,
        "velocity": 1,
        "hand": "right"
      },
      {
        "midi": 71,
        "time": 55.833,
        "duration": 0.833,
        "velocity": 1,
        "hand": "right"
      },
      {
        "midi": 76,
        "time": 55.833,
        "duration": 0.833,
        "velocity": 1,
        "hand": "right"
      },
      {
        "midi": 45,
        "time": 56.667,
        "duration": 0.833,
        "velocity": 1,
        "hand": "left"
      },
      {
        "midi": 69,
        "time": 56.667,
        "duration": 0.833,
        "velocity": 1,
        "hand": "right"
      },
      {
        "midi": 73,
        "time": 56.667,
        "duration": 0.833,
        "velocity": 1,
        "hand": "right"
      },
      {
        "midi": 73,
        "time": 57.5,
        "duration": 0.417,
        "velocity": 1,
        "hand": "right"
      },
      {
        "midi": 74,
        "time": 57.917,
        "duration": 0.208,
        "velocity": 1,
        "hand": "right"
      },
      {
        "midi": 76,
        "time": 58.125,
        "duration": 0.208,
        "velocity": 1,
        "hand": "right"
      },
      {
        "midi": 46,
        "time": 58.333,
        "duration": 0.833,
        "velocity": 1,
        "hand": "left"
      },
      {
        "midi": 54,
        "time": 58.333,
        "duration": 0.833,
        "velocity": 1,
        "hand": "left"
      },
      {
        "midi": 61,
        "time": 58.333,
        "duration": 0.833,
        "velocity": 1,
        "hand": "right"
      },
      {
        "midi": 66,
        "time": 58.333,
        "duration": 0.833,
        "velocity": 1,
        "hand": "right"
      },
      {
        "midi": 73,
        "time": 58.333,
        "duration": 0.417,
        "velocity": 1,
        "hand": "right"
      },
      {
        "midi": 78,
        "time": 58.333,
        "duration": 0.417,
        "velocity": 1,
        "hand": "right"
      },
      {
        "midi": 73,
        "time": 58.75,
        "duration": 0.417,
        "velocity": 1,
        "hand": "right"
      },
      {
        "midi": 47,
        "time": 59.167,
        "duration": 0.833,
        "velocity": 1,
        "hand": "left"
      },
      {
        "midi": 54,
        "time": 59.167,
        "duration": 0.833,
        "velocity": 1,
        "hand": "left"
      },
      {
        "midi": 59,
        "time": 59.167,
        "duration": 0.833,
        "velocity": 1,
        "hand": "left"
      },
      {
        "midi": 66,
        "time": 59.167,
        "duration": 0.833,
        "velocity": 1,
        "hand": "right"
      },
      {
        "midi": 71,
        "time": 59.167,
        "duration": 0.833,
        "velocity": 1,
        "hand": "right"
      },
      {
        "midi": 74,
        "time": 59.167,
        "duration": 0.833,
        "velocity": 1,
        "hand": "right"
      },
      {
        "midi": 66,
        "time": 60,
        "duration": 0.417,
        "velocity": 1,
        "hand": "right"
      },
      {
        "midi": 68,
        "time": 60.417,
        "duration": 0.208,
        "velocity": 1,
        "hand": "right"
      },
      {
        "midi": 69,
        "time": 60.625,
        "duration": 0.208,
        "velocity": 1,
        "hand": "right"
      },
      {
        "midi": 47,
        "time": 60.833,
        "duration": 0.833,
        "velocity": 1,
        "hand": "left"
      },
      {
        "midi": 57,
        "time": 60.833,
        "duration": 0.833,
        "velocity": 1,
        "hand": "left"
      },
      {
        "midi": 63,
        "time": 60.833,
        "duration": 0.833,
        "velocity": 1,
        "hand": "right"
      },
      {
        "midi": 73,
        "time": 60.833,
        "duration": 0.417,
        "velocity": 1,
        "hand": "right"
      },
      {
        "midi": 70,
        "time": 61.25,
        "duration": 0.833,
        "velocity": 1,
        "hand": "right"
      },
      {
        "midi": 52,
        "time": 61.667,
        "duration": 0.833,
        "velocity": 1,
        "hand": "left"
      },
      {
        "midi": 56,
        "time": 61.667,
        "duration": 0.833,
        "velocity": 1,
        "hand": "left"
      },
      {
        "midi": 62,
        "time": 61.667,
        "duration": 0.833,
        "velocity": 1,
        "hand": "right"
      },
      {
        "midi": 71,
        "time": 62.083,
        "duration": 0.417,
        "velocity": 1,
        "hand": "right"
      },
      {
        "midi": 66,
        "time": 62.5,
        "duration": 0.417,
        "velocity": 1,
        "hand": "right"
      },
      {
        "midi": 68,
        "time": 62.917,
        "duration": 0.208,
        "velocity": 1,
        "hand": "right"
      },
      {
        "midi": 69,
        "time": 63.125,
        "duration": 0.208,
        "velocity": 1,
        "hand": "right"
      },
      {
        "midi": 50,
        "time": 63.333,
        "duration": 0.833,
        "velocity": 1,
        "hand": "left"
      },
      {
        "midi": 52,
        "time": 63.333,
        "duration": 1.667,
        "velocity": 1,
        "hand": "left"
      },
      {
        "midi": 59,
        "time": 63.333,
        "duration": 0.833,
        "velocity": 1,
        "hand": "left"
      },
      {
        "midi": 64,
        "time": 63.333,
        "duration": 0.833,
        "velocity": 1,
        "hand": "right"
      },
      {
        "midi": 68,
        "time": 63.333,
        "duration": 0.417,
        "velocity": 1,
        "hand": "right"
      },
      {
        "midi": 71,
        "time": 63.75,
        "duration": 0.417,
        "velocity": 1,
        "hand": "right"
      },
      {
        "midi": 49,
        "time": 64.167,
        "duration": 0.833,
        "velocity": 1,
        "hand": "left"
      },
      {
        "midi": 64,
        "time": 64.167,
        "duration": 1.667,
        "velocity": 1,
        "hand": "right"
      },
      {
        "midi": 69,
        "time": 64.583,
        "duration": 0.417,
        "velocity": 1,
        "hand": "right"
      },
      {
        "midi": 47,
        "time": 65,
        "duration": 0.417,
        "velocity": 1,
        "hand": "left"
      },
      {
        "midi": 52,
        "time": 65,
        "duration": 0.833,
        "velocity": 1,
        "hand": "left"
      },
      {
        "midi": 68,
        "time": 65,
        "duration": 0.417,
        "velocity": 1,
        "hand": "right"
      },
      {
        "midi": 71,
        "time": 65,
        "duration": 0.417,
        "velocity": 1,
        "hand": "right"
      },
      {
        "midi": 45,
        "time": 65.417,
        "duration": 0.417,
        "velocity": 1,
        "hand": "left"
      },
      {
        "midi": 69,
        "time": 65.417,
        "duration": 0.417,
        "velocity": 1,
        "hand": "right"
      },
      {
        "midi": 73,
        "time": 65.417,
        "duration": 0.417,
        "velocity": 1,
        "hand": "right"
      },
      {
        "midi": 44,
        "time": 65.833,
        "duration": 0.833,
        "velocity": 1,
        "hand": "left"
      },
      {
        "midi": 52,
        "time": 65.833,
        "duration": 1.667,
        "velocity": 1,
        "hand": "left"
      },
      {
        "midi": 64,
        "time": 65.833,
        "duration": 1.667,
        "velocity": 1,
        "hand": "right"
      },
      {
        "midi": 71,
        "time": 65.833,
        "duration": 0.833,
        "velocity": 1,
        "hand": "right"
      },
      {
        "midi": 76,
        "time": 65.833,
        "duration": 0.833,
        "velocity": 1,
        "hand": "right"
      },
      {
        "midi": 45,
        "time": 66.667,
        "duration": 0.833,
        "velocity": 1,
        "hand": "left"
      },
      {
        "midi": 69,
        "time": 66.667,
        "duration": 0.833,
        "velocity": 1,
        "hand": "right"
      },
      {
        "midi": 73,
        "time": 66.667,
        "duration": 0.833,
        "velocity": 1,
        "hand": "right"
      },
      {
        "midi": 73,
        "time": 67.5,
        "duration": 0.417,
        "velocity": 1,
        "hand": "right"
      },
      {
        "midi": 75,
        "time": 67.917,
        "duration": 0.208,
        "velocity": 1,
        "hand": "right"
      },
      {
        "midi": 76,
        "time": 68.125,
        "duration": 0.208,
        "velocity": 1,
        "hand": "right"
      },
      {
        "midi": 47,
        "time": 68.333,
        "duration": 2.5,
        "velocity": 1,
        "hand": "left"
      },
      {
        "midi": 64,
        "time": 68.333,
        "duration": 0.833,
        "velocity": 1,
        "hand": "right"
      },
      {
        "midi": 68,
        "time": 68.333,
        "duration": 0.417,
        "velocity": 1,
        "hand": "right"
      },
      {
        "midi": 73,
        "time": 68.75,
        "duration": 0.417,
        "velocity": 1,
        "hand": "right"
      },
      {
        "midi": 57,
        "time": 69.167,
        "duration": 0.417,
        "velocity": 1,
        "hand": "left"
      },
      {
        "midi": 63,
        "time": 69.167,
        "duration": 0.833,
        "velocity": 1,
        "hand": "right"
      },
      {
        "midi": 66,
        "time": 69.167,
        "duration": 0.833,
        "velocity": 1,
        "hand": "right"
      },
      {
        "midi": 71,
        "time": 69.167,
        "duration": 0.833,
        "velocity": 1,
        "hand": "right"
      },
      {
        "midi": 59,
        "time": 69.583,
        "duration": 0.417,
        "velocity": 1,
        "hand": "left"
      },
      {
        "midi": 56,
        "time": 70,
        "duration": 0.833,
        "velocity": 1,
        "hand": "left"
      },
      {
        "midi": 64,
        "time": 70,
        "duration": 0.833,
        "velocity": 1,
        "hand": "right"
      },
      {
        "midi": 71,
        "time": 70,
        "duration": 0.833,
        "velocity": 1,
        "hand": "right"
      },
      {
        "midi": 73,
        "time": 70,
        "duration": 0.417,
        "velocity": 1,
        "hand": "right"
      },
      {
        "midi": 75,
        "time": 70.417,
        "duration": 0.208,
        "velocity": 1,
        "hand": "right"
      },
      {
        "midi": 76,
        "time": 70.625,
        "duration": 0.208,
        "velocity": 1,
        "hand": "right"
      },
      {
        "midi": 47,
        "time": 70.833,
        "duration": 1.667,
        "velocity": 1,
        "hand": "left"
      },
      {
        "midi": 64,
        "time": 70.833,
        "duration": 0.833,
        "velocity": 1,
        "hand": "right"
      },
      {
        "midi": 68,
        "time": 70.833,
        "duration": 0.417,
        "velocity": 1,
        "hand": "right"
      },
      {
        "midi": 73,
        "time": 71.25,
        "duration": 0.417,
        "velocity": 1,
        "hand": "right"
      },
      {
        "midi": 57,
        "time": 71.667,
        "duration": 0.417,
        "velocity": 1,
        "hand": "left"
      },
      {
        "midi": 63,
        "time": 71.667,
        "duration": 0.833,
        "velocity": 1,
        "hand": "right"
      },
      {
        "midi": 66,
        "time": 71.667,
        "duration": 0.833,
        "velocity": 1,
        "hand": "right"
      },
      {
        "midi": 71,
        "time": 71.667,
        "duration": 0.833,
        "velocity": 1,
        "hand": "right"
      },
      {
        "midi": 59,
        "time": 72.083,
        "duration": 0.417,
        "velocity": 1,
        "hand": "left"
      },
      {
        "midi": 48,
        "time": 72.5,
        "duration": 2.5,
        "velocity": 1,
        "hand": "left"
      },
      {
        "midi": 55,
        "time": 72.5,
        "duration": 2.5,
        "velocity": 1,
        "hand": "left"
      },
      {
        "midi": 60,
        "time": 72.5,
        "duration": 2.5,
        "velocity": 1,
        "hand": "right"
      },
      {
        "midi": 64,
        "time": 72.5,
        "duration": 2.5,
        "velocity": 1,
        "hand": "right"
      },
      {
        "midi": 67,
        "time": 72.5,
        "duration": 2.5,
        "velocity": 1,
        "hand": "right"
      },
      {
        "midi": 76,
        "time": 72.5,
        "duration": 0.833,
        "velocity": 1,
        "hand": "right"
      },
      {
        "midi": 74,
        "time": 73.333,
        "duration": 0.417,
        "velocity": 1,
        "hand": "right"
      },
      {
        "midi": 72,
        "time": 73.75,
        "duration": 0.417,
        "velocity": 1,
        "hand": "right"
      },
      {
        "midi": 71,
        "time": 74.167,
        "duration": 0.417,
        "velocity": 1,
        "hand": "right"
      },
      {
        "midi": 70,
        "time": 74.583,
        "duration": 0.417,
        "velocity": 1,
        "hand": "right"
      },
      {
        "midi": 40,
        "time": 75.208,
        "duration": 0.208,
        "velocity": 1,
        "hand": "left"
      },
      {
        "midi": 47,
        "time": 75.208,
        "duration": 0.208,
        "velocity": 1,
        "hand": "left"
      },
      {
        "midi": 55,
        "time": 75.417,
        "duration": 0.208,
        "velocity": 1,
        "hand": "left"
      },
      {
        "midi": 59,
        "time": 75.625,
        "duration": 0.208,
        "velocity": 1,
        "hand": "left"
      },
      {
        "midi": 64,
        "time": 75.625,
        "duration": 0.208,
        "velocity": 1,
        "hand": "right"
      },
      {
        "midi": 69,
        "time": 75.833,
        "duration": 0.208,
        "velocity": 1,
        "hand": "right"
      },
      {
        "midi": 64,
        "time": 76.042,
        "duration": 0.208,
        "velocity": 1,
        "hand": "right"
      },
      {
        "midi": 67,
        "time": 76.042,
        "duration": 0.208,
        "velocity": 1,
        "hand": "right"
      },
      {
        "midi": 70,
        "time": 76.25,
        "duration": 0.208,
        "velocity": 1,
        "hand": "right"
      },
      {
        "midi": 71,
        "time": 76.458,
        "duration": 0.208,
        "velocity": 1,
        "hand": "right"
      },
      {
        "midi": 76,
        "time": 76.458,
        "duration": 0.208,
        "velocity": 1,
        "hand": "right"
      },
      {
        "midi": 78,
        "time": 76.667,
        "duration": 0.208,
        "velocity": 1,
        "hand": "right"
      },
      {
        "midi": 79,
        "time": 76.875,
        "duration": 0.208,
        "velocity": 1,
        "hand": "right"
      },
      {
        "midi": 83,
        "time": 76.875,
        "duration": 0.208,
        "velocity": 1,
        "hand": "right"
      },
      {
        "midi": 88,
        "time": 77.083,
        "duration": 0.417,
        "velocity": 1,
        "hand": "right"
      },
      {
        "midi": 48,
        "time": 77.5,
        "duration": 2.5,
        "velocity": 1,
        "hand": "left"
      },
      {
        "midi": 55,
        "time": 77.5,
        "duration": 2.5,
        "velocity": 1,
        "hand": "left"
      },
      {
        "midi": 60,
        "time": 77.5,
        "duration": 2.5,
        "velocity": 1,
        "hand": "right"
      },
      {
        "midi": 64,
        "time": 77.5,
        "duration": 2.5,
        "velocity": 1,
        "hand": "right"
      },
      {
        "midi": 67,
        "time": 77.5,
        "duration": 2.5,
        "velocity": 1,
        "hand": "right"
      },
      {
        "midi": 76,
        "time": 77.5,
        "duration": 0.833,
        "velocity": 1,
        "hand": "right"
      },
      {
        "midi": 74,
        "time": 78.333,
        "duration": 0.417,
        "velocity": 1,
        "hand": "right"
      },
      {
        "midi": 72,
        "time": 78.75,
        "duration": 0.417,
        "velocity": 1,
        "hand": "right"
      },
      {
        "midi": 71,
        "time": 79.167,
        "duration": 0.417,
        "velocity": 1,
        "hand": "right"
      },
      {
        "midi": 70,
        "time": 79.583,
        "duration": 0.417,
        "velocity": 1,
        "hand": "right"
      },
      {
        "midi": 40,
        "time": 80.208,
        "duration": 0.208,
        "velocity": 1,
        "hand": "left"
      },
      {
        "midi": 47,
        "time": 80.208,
        "duration": 0.208,
        "velocity": 1,
        "hand": "left"
      },
      {
        "midi": 55,
        "time": 80.417,
        "duration": 0.208,
        "velocity": 1,
        "hand": "left"
      },
      {
        "midi": 59,
        "time": 80.625,
        "duration": 0.208,
        "velocity": 1,
        "hand": "left"
      },
      {
        "midi": 64,
        "time": 80.625,
        "duration": 0.208,
        "velocity": 1,
        "hand": "right"
      },
      {
        "midi": 69,
        "time": 80.833,
        "duration": 0.208,
        "velocity": 1,
        "hand": "right"
      },
      {
        "midi": 64,
        "time": 81.042,
        "duration": 0.208,
        "velocity": 1,
        "hand": "right"
      },
      {
        "midi": 67,
        "time": 81.042,
        "duration": 0.208,
        "velocity": 1,
        "hand": "right"
      },
      {
        "midi": 60,
        "time": 81.25,
        "duration": 0.208,
        "velocity": 1,
        "hand": "right"
      },
      {
        "midi": 55,
        "time": 81.458,
        "duration": 0.208,
        "velocity": 1,
        "hand": "left"
      },
      {
        "midi": 59,
        "time": 81.458,
        "duration": 0.208,
        "velocity": 1,
        "hand": "left"
      },
      {
        "midi": 48,
        "time": 81.667,
        "duration": 0.208,
        "velocity": 1,
        "hand": "left"
      },
      {
        "midi": 43,
        "time": 81.875,
        "duration": 0.208,
        "velocity": 1,
        "hand": "left"
      },
      {
        "midi": 47,
        "time": 81.875,
        "duration": 0.208,
        "velocity": 1,
        "hand": "left"
      },
      {
        "midi": 40,
        "time": 82.083,
        "duration": 0.417,
        "velocity": 1,
        "hand": "left"
      },
      {
        "midi": 48,
        "time": 82.5,
        "duration": 2.5,
        "velocity": 1,
        "hand": "left"
      },
      {
        "midi": 55,
        "time": 82.5,
        "duration": 2.5,
        "velocity": 1,
        "hand": "left"
      },
      {
        "midi": 60,
        "time": 82.5,
        "duration": 2.5,
        "velocity": 1,
        "hand": "right"
      },
      {
        "midi": 64,
        "time": 82.5,
        "duration": 2.5,
        "velocity": 1,
        "hand": "right"
      },
      {
        "midi": 67,
        "time": 82.5,
        "duration": 2.5,
        "velocity": 1,
        "hand": "right"
      },
      {
        "midi": 76,
        "time": 82.5,
        "duration": 0.833,
        "velocity": 1,
        "hand": "right"
      },
      {
        "midi": 74,
        "time": 83.333,
        "duration": 0.417,
        "velocity": 1,
        "hand": "right"
      },
      {
        "midi": 72,
        "time": 83.75,
        "duration": 0.417,
        "velocity": 1,
        "hand": "right"
      },
      {
        "midi": 71,
        "time": 84.167,
        "duration": 0.417,
        "velocity": 1,
        "hand": "right"
      },
      {
        "midi": 70,
        "time": 84.583,
        "duration": 0.417,
        "velocity": 1,
        "hand": "right"
      },
      {
        "midi": 40,
        "time": 85.208,
        "duration": 0.208,
        "velocity": 1,
        "hand": "left"
      },
      {
        "midi": 47,
        "time": 85.208,
        "duration": 0.208,
        "velocity": 1,
        "hand": "left"
      },
      {
        "midi": 55,
        "time": 85.417,
        "duration": 0.208,
        "velocity": 1,
        "hand": "left"
      },
      {
        "midi": 59,
        "time": 85.625,
        "duration": 0.208,
        "velocity": 1,
        "hand": "left"
      },
      {
        "midi": 64,
        "time": 85.625,
        "duration": 0.208,
        "velocity": 1,
        "hand": "right"
      },
      {
        "midi": 69,
        "time": 85.833,
        "duration": 0.208,
        "velocity": 1,
        "hand": "right"
      },
      {
        "midi": 64,
        "time": 86.042,
        "duration": 0.208,
        "velocity": 1,
        "hand": "right"
      },
      {
        "midi": 67,
        "time": 86.042,
        "duration": 0.208,
        "velocity": 1,
        "hand": "right"
      },
      {
        "midi": 70,
        "time": 86.25,
        "duration": 0.208,
        "velocity": 1,
        "hand": "right"
      },
      {
        "midi": 71,
        "time": 86.458,
        "duration": 0.208,
        "velocity": 1,
        "hand": "right"
      },
      {
        "midi": 76,
        "time": 86.458,
        "duration": 0.208,
        "velocity": 1,
        "hand": "right"
      },
      {
        "midi": 78,
        "time": 86.667,
        "duration": 0.208,
        "velocity": 1,
        "hand": "right"
      },
      {
        "midi": 79,
        "time": 86.875,
        "duration": 0.208,
        "velocity": 1,
        "hand": "right"
      },
      {
        "midi": 83,
        "time": 86.875,
        "duration": 0.208,
        "velocity": 1,
        "hand": "right"
      },
      {
        "midi": 88,
        "time": 87.083,
        "duration": 0.417,
        "velocity": 1,
        "hand": "right"
      },
      {
        "midi": 48,
        "time": 87.5,
        "duration": 2.5,
        "velocity": 1,
        "hand": "left"
      },
      {
        "midi": 55,
        "time": 87.5,
        "duration": 2.5,
        "velocity": 1,
        "hand": "left"
      },
      {
        "midi": 60,
        "time": 87.5,
        "duration": 2.5,
        "velocity": 1,
        "hand": "right"
      },
      {
        "midi": 64,
        "time": 87.5,
        "duration": 2.5,
        "velocity": 1,
        "hand": "right"
      },
      {
        "midi": 67,
        "time": 87.5,
        "duration": 2.5,
        "velocity": 1,
        "hand": "right"
      },
      {
        "midi": 76,
        "time": 87.5,
        "duration": 0.833,
        "velocity": 1,
        "hand": "right"
      },
      {
        "midi": 74,
        "time": 88.333,
        "duration": 0.417,
        "velocity": 1,
        "hand": "right"
      },
      {
        "midi": 72,
        "time": 88.75,
        "duration": 0.417,
        "velocity": 1,
        "hand": "right"
      },
      {
        "midi": 71,
        "time": 89.167,
        "duration": 0.417,
        "velocity": 1,
        "hand": "right"
      },
      {
        "midi": 70,
        "time": 89.583,
        "duration": 0.417,
        "velocity": 1,
        "hand": "right"
      },
      {
        "midi": 76,
        "time": 90.417,
        "duration": 0.417,
        "velocity": 1,
        "hand": "right"
      },
      {
        "midi": 48,
        "time": 90.833,
        "duration": 1.667,
        "velocity": 1,
        "hand": "left"
      },
      {
        "midi": 55,
        "time": 90.833,
        "duration": 1.667,
        "velocity": 1,
        "hand": "left"
      },
      {
        "midi": 60,
        "time": 90.833,
        "duration": 1.667,
        "velocity": 1,
        "hand": "right"
      },
      {
        "midi": 64,
        "time": 90.833,
        "duration": 1.667,
        "velocity": 1,
        "hand": "right"
      },
      {
        "midi": 67,
        "time": 90.833,
        "duration": 1.667,
        "velocity": 1,
        "hand": "right"
      },
      {
        "midi": 74,
        "time": 90.833,
        "duration": 0.417,
        "velocity": 1,
        "hand": "right"
      },
      {
        "midi": 72,
        "time": 91.25,
        "duration": 0.417,
        "velocity": 1,
        "hand": "right"
      },
      {
        "midi": 71,
        "time": 91.667,
        "duration": 0.417,
        "velocity": 1,
        "hand": "right"
      },
      {
        "midi": 70,
        "time": 92.083,
        "duration": 0.417,
        "velocity": 1,
        "hand": "right"
      },
      {
        "midi": 77,
        "time": 92.5,
        "duration": 0.833,
        "velocity": 1,
        "hand": "right"
      },
      {
        "midi": 49,
        "time": 92.708,
        "duration": 0.208,
        "velocity": 1,
        "hand": "left"
      },
      {
        "midi": 56,
        "time": 92.708,
        "duration": 0.208,
        "velocity": 1,
        "hand": "left"
      },
      {
        "midi": 61,
        "time": 92.917,
        "duration": 0.208,
        "velocity": 1,
        "hand": "right"
      },
      {
        "midi": 65,
        "time": 93.125,
        "duration": 0.208,
        "velocity": 1,
        "hand": "right"
      },
      {
        "midi": 68,
        "time": 93.125,
        "duration": 0.208,
        "velocity": 1,
        "hand": "right"
      },
      {
        "midi": 70,
        "time": 93.333,
        "duration": 0.833,
        "velocity": 1,
        "hand": "right"
      },
      {
        "midi": 49,
        "time": 93.542,
        "duration": 0.208,
        "velocity": 1,
        "hand": "left"
      },
      {
        "midi": 51,
        "time": 93.542,
        "duration": 0.208,
        "velocity": 1,
        "hand": "left"
      },
      {
        "midi": 58,
        "time": 93.75,
        "duration": 0.208,
        "velocity": 1,
        "hand": "left"
      },
      {
        "midi": 63,
        "time": 93.958,
        "duration": 0.208,
        "velocity": 1,
        "hand": "right"
      },
      {
        "midi": 67,
        "time": 93.958,
        "duration": 0.208,
        "velocity": 1,
        "hand": "right"
      },
      {
        "midi": 75,
        "time": 94.167,
        "duration": 0.833,
        "velocity": 1,
        "hand": "right"
      },
      {
        "midi": 48,
        "time": 94.375,
        "duration": 0.208,
        "velocity": 1,
        "hand": "left"
      },
      {
        "midi": 51,
        "time": 94.375,
        "duration": 0.208,
        "velocity": 1,
        "hand": "left"
      },
      {
        "midi": 60,
        "time": 94.583,
        "duration": 0.208,
        "velocity": 1,
        "hand": "right"
      },
      {
        "midi": 63,
        "time": 94.792,
        "duration": 0.208,
        "velocity": 1,
        "hand": "right"
      },
      {
        "midi": 68,
        "time": 94.792,
        "duration": 0.208,
        "velocity": 1,
        "hand": "right"
      },
      {
        "midi": 68,
        "time": 95,
        "duration": 0.833,
        "velocity": 1,
        "hand": "right"
      },
      {
        "midi": 46,
        "time": 95.208,
        "duration": 0.208,
        "velocity": 1,
        "hand": "left"
      },
      {
        "midi": 53,
        "time": 95.208,
        "duration": 0.208,
        "velocity": 1,
        "hand": "left"
      },
      {
        "midi": 58,
        "time": 95.417,
        "duration": 0.208,
        "velocity": 1,
        "hand": "left"
      },
      {
        "midi": 61,
        "time": 95.625,
        "duration": 0.208,
        "velocity": 1,
        "hand": "right"
      },
      {
        "midi": 65,
        "time": 95.625,
        "duration": 0.208,
        "velocity": 1,
        "hand": "right"
      },
      {
        "midi": 67,
        "time": 95.833,
        "duration": 0.417,
        "velocity": 1,
        "hand": "right"
      },
      {
        "midi": 68,
        "time": 96.25,
        "duration": 0.417,
        "velocity": 1,
        "hand": "right"
      },
      {
        "midi": 51,
        "time": 96.667,
        "duration": 0.833,
        "velocity": 1,
        "hand": "left"
      },
      {
        "midi": 55,
        "time": 96.667,
        "duration": 0.833,
        "velocity": 1,
        "hand": "left"
      },
      {
        "midi": 62,
        "time": 96.667,
        "duration": 0.833,
        "velocity": 1,
        "hand": "right"
      },
      {
        "midi": 63,
        "time": 96.667,
        "duration": 0.833,
        "velocity": 1,
        "hand": "right"
      },
      {
        "midi": 72,
        "time": 96.667,
        "duration": 0.417,
        "velocity": 1,
        "hand": "right"
      },
      {
        "midi": 70,
        "time": 97.083,
        "duration": 0.417,
        "velocity": 1,
        "hand": "right"
      },
      {
        "midi": 77,
        "time": 97.5,
        "duration": 0.833,
        "velocity": 1,
        "hand": "right"
      },
      {
        "midi": 49,
        "time": 97.708,
        "duration": 0.208,
        "velocity": 1,
        "hand": "left"
      },
      {
        "midi": 56,
        "time": 97.708,
        "duration": 0.208,
        "velocity": 1,
        "hand": "left"
      },
      {
        "midi": 61,
        "time": 97.917,
        "duration": 0.208,
        "velocity": 1,
        "hand": "right"
      },
      {
        "midi": 65,
        "time": 98.125,
        "duration": 0.208,
        "velocity": 1,
        "hand": "right"
      },
      {
        "midi": 68,
        "time": 98.125,
        "duration": 0.208,
        "velocity": 1,
        "hand": "right"
      },
      {
        "midi": 70,
        "time": 98.333,
        "duration": 0.833,
        "velocity": 1,
        "hand": "right"
      },
      {
        "midi": 49,
        "time": 98.542,
        "duration": 0.208,
        "velocity": 1,
        "hand": "left"
      },
      {
        "midi": 51,
        "time": 98.542,
        "duration": 0.208,
        "velocity": 1,
        "hand": "left"
      },
      {
        "midi": 58,
        "time": 98.75,
        "duration": 0.208,
        "velocity": 1,
        "hand": "left"
      },
      {
        "midi": 63,
        "time": 98.958,
        "duration": 0.208,
        "velocity": 1,
        "hand": "right"
      },
      {
        "midi": 67,
        "time": 98.958,
        "duration": 0.208,
        "velocity": 1,
        "hand": "right"
      },
      {
        "midi": 75,
        "time": 99.167,
        "duration": 0.833,
        "velocity": 1,
        "hand": "right"
      },
      {
        "midi": 48,
        "time": 99.375,
        "duration": 0.208,
        "velocity": 1,
        "hand": "left"
      },
      {
        "midi": 51,
        "time": 99.375,
        "duration": 0.208,
        "velocity": 1,
        "hand": "left"
      },
      {
        "midi": 60,
        "time": 99.583,
        "duration": 0.208,
        "velocity": 1,
        "hand": "right"
      },
      {
        "midi": 63,
        "time": 99.792,
        "duration": 0.208,
        "velocity": 1,
        "hand": "right"
      },
      {
        "midi": 68,
        "time": 99.792,
        "duration": 0.208,
        "velocity": 1,
        "hand": "right"
      },
      {
        "midi": 80,
        "time": 100,
        "duration": 0.833,
        "velocity": 1,
        "hand": "right"
      },
      {
        "midi": 53,
        "time": 100.208,
        "duration": 0.208,
        "velocity": 1,
        "hand": "left"
      },
      {
        "midi": 60,
        "time": 100.208,
        "duration": 0.208,
        "velocity": 1,
        "hand": "right"
      },
      {
        "midi": 65,
        "time": 100.417,
        "duration": 0.208,
        "velocity": 1,
        "hand": "right"
      },
      {
        "midi": 68,
        "time": 100.625,
        "duration": 0.208,
        "velocity": 1,
        "hand": "right"
      },
      {
        "midi": 72,
        "time": 100.625,
        "duration": 0.208,
        "velocity": 1,
        "hand": "right"
      },
      {
        "midi": 74,
        "time": 100.833,
        "duration": 0.833,
        "velocity": 1,
        "hand": "right"
      },
      {
        "midi": 53,
        "time": 101.042,
        "duration": 0.208,
        "velocity": 1,
        "hand": "left"
      },
      {
        "midi": 55,
        "time": 101.042,
        "duration": 0.208,
        "velocity": 1,
        "hand": "left"
      },
      {
        "midi": 62,
        "time": 101.25,
        "duration": 0.208,
        "velocity": 1,
        "hand": "right"
      },
      {
        "midi": 67,
        "time": 101.458,
        "duration": 0.208,
        "velocity": 1,
        "hand": "right"
      },
      {
        "midi": 71,
        "time": 101.458,
        "duration": 0.208,
        "velocity": 1,
        "hand": "right"
      },
      {
        "midi": 79,
        "time": 101.667,
        "duration": 0.833,
        "velocity": 1,
        "hand": "right"
      },
      {
        "midi": 51,
        "time": 101.875,
        "duration": 0.208,
        "velocity": 1,
        "hand": "left"
      },
      {
        "midi": 55,
        "time": 101.875,
        "duration": 0.208,
        "velocity": 1,
        "hand": "left"
      },
      {
        "midi": 64,
        "time": 102.083,
        "duration": 0.208,
        "velocity": 1,
        "hand": "right"
      },
      {
        "midi": 67,
        "time": 102.292,
        "duration": 0.208,
        "velocity": 1,
        "hand": "right"
      },
      {
        "midi": 72,
        "time": 102.292,
        "duration": 0.208,
        "velocity": 1,
        "hand": "right"
      },
      {
        "midi": 71,
        "time": 102.5,
        "duration": 0.833,
        "velocity": 1,
        "hand": "right"
      },
      {
        "midi": 49,
        "time": 102.708,
        "duration": 0.208,
        "velocity": 1,
        "hand": "left"
      },
      {
        "midi": 55,
        "time": 102.708,
        "duration": 0.208,
        "velocity": 1,
        "hand": "left"
      },
      {
        "midi": 61,
        "time": 102.917,
        "duration": 0.208,
        "velocity": 1,
        "hand": "right"
      },
      {
        "midi": 59,
        "time": 103.125,
        "duration": 0.208,
        "velocity": 1,
        "hand": "left"
      },
      {
        "midi": 65,
        "time": 103.125,
        "duration": 0.208,
        "velocity": 1,
        "hand": "right"
      },
      {
        "midi": 70,
        "time": 103.333,
        "duration": 0.417,
        "velocity": 1,
        "hand": "right"
      },
      {
        "midi": 71,
        "time": 103.75,
        "duration": 0.417,
        "velocity": 1,
        "hand": "right"
      },
      {
        "midi": 48,
        "time": 104.167,
        "duration": 0.833,
        "velocity": 1,
        "hand": "left"
      },
      {
        "midi": 55,
        "time": 104.167,
        "duration": 0.833,
        "velocity": 1,
        "hand": "left"
      },
      {
        "midi": 60,
        "time": 104.167,
        "duration": 0.833,
        "velocity": 1,
        "hand": "right"
      },
      {
        "midi": 64,
        "time": 104.167,
        "duration": 0.833,
        "velocity": 1,
        "hand": "right"
      },
      {
        "midi": 67,
        "time": 104.167,
        "duration": 0.833,
        "velocity": 1,
        "hand": "right"
      },
      {
        "midi": 76,
        "time": 104.167,
        "duration": 0.417,
        "velocity": 1,
        "hand": "right"
      },
      {
        "midi": 72,
        "time": 104.583,
        "duration": 0.417,
        "velocity": 1,
        "hand": "right"
      },
      {
        "midi": 71,
        "time": 105,
        "duration": 0.833,
        "velocity": 1,
        "hand": "right"
      },
      {
        "midi": 49,
        "time": 105.208,
        "duration": 0.208,
        "velocity": 1,
        "hand": "left"
      },
      {
        "midi": 55,
        "time": 105.208,
        "duration": 0.208,
        "velocity": 1,
        "hand": "left"
      },
      {
        "midi": 61,
        "time": 105.417,
        "duration": 0.208,
        "velocity": 1,
        "hand": "right"
      },
      {
        "midi": 59,
        "time": 105.625,
        "duration": 0.208,
        "velocity": 1,
        "hand": "left"
      },
      {
        "midi": 65,
        "time": 105.625,
        "duration": 0.208,
        "velocity": 1,
        "hand": "right"
      },
      {
        "midi": 70,
        "time": 105.833,
        "duration": 0.417,
        "velocity": 1,
        "hand": "right"
      },
      {
        "midi": 71,
        "time": 106.25,
        "duration": 0.417,
        "velocity": 1,
        "hand": "right"
      },
      {
        "midi": 48,
        "time": 106.667,
        "duration": 0.833,
        "velocity": 1,
        "hand": "left"
      },
      {
        "midi": 55,
        "time": 106.667,
        "duration": 0.833,
        "velocity": 1,
        "hand": "left"
      },
      {
        "midi": 64,
        "time": 106.667,
        "duration": 0.833,
        "velocity": 1,
        "hand": "right"
      },
      {
        "midi": 67,
        "time": 106.667,
        "duration": 0.833,
        "velocity": 1,
        "hand": "right"
      },
      {
        "midi": 72,
        "time": 106.667,
        "duration": 0.833,
        "velocity": 1,
        "hand": "right"
      },
      {
        "midi": 79,
        "time": 106.667,
        "duration": 0.208,
        "velocity": 1,
        "hand": "right"
      },
      {
        "midi": 76,
        "time": 106.875,
        "duration": 0.208,
        "velocity": 1,
        "hand": "right"
      },
      {
        "midi": 71,
        "time": 107.5,
        "duration": 0.833,
        "velocity": 1,
        "hand": "right"
      },
      {
        "midi": 49,
        "time": 107.708,
        "duration": 0.208,
        "velocity": 1,
        "hand": "left"
      },
      {
        "midi": 55,
        "time": 107.708,
        "duration": 0.208,
        "velocity": 1,
        "hand": "left"
      },
      {
        "midi": 61,
        "time": 107.917,
        "duration": 0.208,
        "velocity": 1,
        "hand": "right"
      },
      {
        "midi": 59,
        "time": 108.125,
        "duration": 0.208,
        "velocity": 1,
        "hand": "left"
      },
      {
        "midi": 65,
        "time": 108.125,
        "duration": 0.208,
        "velocity": 1,
        "hand": "right"
      },
      {
        "midi": 70,
        "time": 108.333,
        "duration": 0.417,
        "velocity": 1,
        "hand": "right"
      },
      {
        "midi": 71,
        "time": 108.75,
        "duration": 0.417,
        "velocity": 1,
        "hand": "right"
      },
      {
        "midi": 48,
        "time": 109.167,
        "duration": 0.833,
        "velocity": 1,
        "hand": "left"
      },
      {
        "midi": 55,
        "time": 109.167,
        "duration": 0.833,
        "velocity": 1,
        "hand": "left"
      },
      {
        "midi": 60,
        "time": 109.167,
        "duration": 0.833,
        "velocity": 1,
        "hand": "right"
      },
      {
        "midi": 64,
        "time": 109.167,
        "duration": 0.833,
        "velocity": 1,
        "hand": "right"
      },
      {
        "midi": 67,
        "time": 109.167,
        "duration": 0.833,
        "velocity": 1,
        "hand": "right"
      },
      {
        "midi": 76,
        "time": 109.167,
        "duration": 0.417,
        "velocity": 1,
        "hand": "right"
      },
      {
        "midi": 72,
        "time": 109.583,
        "duration": 0.417,
        "velocity": 1,
        "hand": "right"
      },
      {
        "midi": 71,
        "time": 110,
        "duration": 0.833,
        "velocity": 1,
        "hand": "right"
      },
      {
        "midi": 49,
        "time": 110.208,
        "duration": 0.208,
        "velocity": 1,
        "hand": "left"
      },
      {
        "midi": 55,
        "time": 110.208,
        "duration": 0.208,
        "velocity": 1,
        "hand": "left"
      },
      {
        "midi": 61,
        "time": 110.417,
        "duration": 0.208,
        "velocity": 1,
        "hand": "right"
      },
      {
        "midi": 59,
        "time": 110.625,
        "duration": 0.208,
        "velocity": 1,
        "hand": "left"
      },
      {
        "midi": 65,
        "time": 110.625,
        "duration": 0.208,
        "velocity": 1,
        "hand": "right"
      },
      {
        "midi": 70,
        "time": 110.833,
        "duration": 0.417,
        "velocity": 1,
        "hand": "right"
      },
      {
        "midi": 71,
        "time": 111.25,
        "duration": 0.208,
        "velocity": 1,
        "hand": "right"
      },
      {
        "midi": 71,
        "time": 111.458,
        "duration": 0.104,
        "velocity": 1,
        "hand": "right"
      },
      {
        "midi": 72,
        "time": 111.458,
        "duration": 0.104,
        "velocity": 1,
        "hand": "right"
      },
      {
        "midi": 70,
        "time": 111.667,
        "duration": 0.104,
        "velocity": 1,
        "hand": "right"
      },
      {
        "midi": 71,
        "time": 111.667,
        "duration": 0.104,
        "velocity": 1,
        "hand": "right"
      },
      {
        "midi": 80,
        "time": 111.667,
        "duration": 0.208,
        "velocity": 1,
        "hand": "right"
      },
      {
        "midi": 79,
        "time": 111.875,
        "duration": 0.417,
        "velocity": 1,
        "hand": "right"
      },
      {
        "midi": 77,
        "time": 112.292,
        "duration": 0.208,
        "velocity": 1,
        "hand": "right"
      },
      {
        "midi": 77,
        "time": 112.5,
        "duration": 0.833,
        "velocity": 1,
        "hand": "right"
      },
      {
        "midi": 48,
        "time": 112.708,
        "duration": 0.208,
        "velocity": 1,
        "hand": "left"
      },
      {
        "midi": 55,
        "time": 112.708,
        "duration": 0.208,
        "velocity": 1,
        "hand": "left"
      },
      {
        "midi": 64,
        "time": 112.917,
        "duration": 0.208,
        "velocity": 1,
        "hand": "right"
      },
      {
        "midi": 67,
        "time": 113.125,
        "duration": 0.208,
        "velocity": 1,
        "hand": "right"
      },
      {
        "midi": 72,
        "time": 113.125,
        "duration": 0.208,
        "velocity": 1,
        "hand": "right"
      },
      {
        "midi": 76,
        "time": 113.333,
        "duration": 0.208,
        "velocity": 1,
        "hand": "right"
      },
      {
        "midi": 75,
        "time": 113.542,
        "duration": 0.208,
        "velocity": 1,
        "hand": "right"
      },
      {
        "midi": 76,
        "time": 113.542,
        "duration": 0.208,
        "velocity": 1,
        "hand": "right"
      },
      {
        "midi": 79,
        "time": 113.75,
        "duration": 0.208,
        "velocity": 1,
        "hand": "right"
      },
      {
        "midi": 78,
        "time": 113.958,
        "duration": 0.208,
        "velocity": 1,
        "hand": "right"
      },
      {
        "midi": 79,
        "time": 113.958,
        "duration": 0.208,
        "velocity": 1,
        "hand": "right"
      },
      {
        "midi": 84,
        "time": 114.167,
        "duration": 0.417,
        "velocity": 1,
        "hand": "right"
      },
      {
        "midi": 48,
        "time": 115,
        "duration": 2.5,
        "velocity": 1,
        "hand": "left"
      },
      {
        "midi": 55,
        "time": 115,
        "duration": 2.5,
        "velocity": 1,
        "hand": "left"
      },
      {
        "midi": 60,
        "time": 115,
        "duration": 2.5,
        "velocity": 1,
        "hand": "right"
      },
      {
        "midi": 64,
        "time": 115,
        "duration": 2.5,
        "velocity": 1,
        "hand": "right"
      },
      {
        "midi": 67,
        "time": 115,
        "duration": 2.5,
        "velocity": 1,
        "hand": "right"
      },
      {
        "midi": 76,
        "time": 115,
        "duration": 0.833,
        "velocity": 1,
        "hand": "right"
      },
      {
        "midi": 74,
        "time": 115.833,
        "duration": 0.417,
        "velocity": 1,
        "hand": "right"
      },
      {
        "midi": 72,
        "time": 116.25,
        "duration": 0.417,
        "velocity": 1,
        "hand": "right"
      },
      {
        "midi": 71,
        "time": 116.667,
        "duration": 0.417,
        "velocity": 1,
        "hand": "right"
      },
      {
        "midi": 70,
        "time": 117.083,
        "duration": 0.417,
        "velocity": 1,
        "hand": "right"
      },
      {
        "midi": 40,
        "time": 117.708,
        "duration": 0.208,
        "velocity": 1,
        "hand": "left"
      },
      {
        "midi": 47,
        "time": 117.708,
        "duration": 0.208,
        "velocity": 1,
        "hand": "left"
      },
      {
        "midi": 55,
        "time": 117.917,
        "duration": 0.208,
        "velocity": 1,
        "hand": "left"
      },
      {
        "midi": 59,
        "time": 118.125,
        "duration": 0.208,
        "velocity": 1,
        "hand": "left"
      },
      {
        "midi": 64,
        "time": 118.125,
        "duration": 0.208,
        "velocity": 1,
        "hand": "right"
      },
      {
        "midi": 69,
        "time": 118.333,
        "duration": 0.208,
        "velocity": 1,
        "hand": "right"
      },
      {
        "midi": 64,
        "time": 118.542,
        "duration": 0.208,
        "velocity": 1,
        "hand": "right"
      },
      {
        "midi": 67,
        "time": 118.542,
        "duration": 0.208,
        "velocity": 1,
        "hand": "right"
      },
      {
        "midi": 70,
        "time": 118.75,
        "duration": 0.208,
        "velocity": 1,
        "hand": "right"
      },
      {
        "midi": 71,
        "time": 118.958,
        "duration": 0.208,
        "velocity": 1,
        "hand": "right"
      },
      {
        "midi": 76,
        "time": 118.958,
        "duration": 0.208,
        "velocity": 1,
        "hand": "right"
      },
      {
        "midi": 78,
        "time": 119.167,
        "duration": 0.208,
        "velocity": 1,
        "hand": "right"
      },
      {
        "midi": 79,
        "time": 119.375,
        "duration": 0.208,
        "velocity": 1,
        "hand": "right"
      },
      {
        "midi": 83,
        "time": 119.375,
        "duration": 0.208,
        "velocity": 1,
        "hand": "right"
      },
      {
        "midi": 88,
        "time": 119.583,
        "duration": 0.417,
        "velocity": 1,
        "hand": "right"
      },
      {
        "midi": 48,
        "time": 120,
        "duration": 2.5,
        "velocity": 1,
        "hand": "left"
      },
      {
        "midi": 55,
        "time": 120,
        "duration": 2.5,
        "velocity": 1,
        "hand": "left"
      },
      {
        "midi": 60,
        "time": 120,
        "duration": 2.5,
        "velocity": 1,
        "hand": "right"
      },
      {
        "midi": 64,
        "time": 120,
        "duration": 2.5,
        "velocity": 1,
        "hand": "right"
      },
      {
        "midi": 67,
        "time": 120,
        "duration": 2.5,
        "velocity": 1,
        "hand": "right"
      },
      {
        "midi": 76,
        "time": 120,
        "duration": 0.833,
        "velocity": 1,
        "hand": "right"
      },
      {
        "midi": 74,
        "time": 120.833,
        "duration": 0.417,
        "velocity": 1,
        "hand": "right"
      },
      {
        "midi": 72,
        "time": 121.25,
        "duration": 0.417,
        "velocity": 1,
        "hand": "right"
      },
      {
        "midi": 71,
        "time": 121.667,
        "duration": 0.417,
        "velocity": 1,
        "hand": "right"
      },
      {
        "midi": 70,
        "time": 122.083,
        "duration": 0.417,
        "velocity": 1,
        "hand": "right"
      },
      {
        "midi": 40,
        "time": 122.708,
        "duration": 0.208,
        "velocity": 1,
        "hand": "left"
      },
      {
        "midi": 47,
        "time": 122.708,
        "duration": 0.208,
        "velocity": 1,
        "hand": "left"
      },
      {
        "midi": 55,
        "time": 122.917,
        "duration": 0.208,
        "velocity": 1,
        "hand": "left"
      },
      {
        "midi": 59,
        "time": 123.125,
        "duration": 0.208,
        "velocity": 1,
        "hand": "left"
      },
      {
        "midi": 64,
        "time": 123.125,
        "duration": 0.208,
        "velocity": 1,
        "hand": "right"
      },
      {
        "midi": 69,
        "time": 123.333,
        "duration": 0.208,
        "velocity": 1,
        "hand": "right"
      },
      {
        "midi": 64,
        "time": 123.542,
        "duration": 0.208,
        "velocity": 1,
        "hand": "right"
      },
      {
        "midi": 67,
        "time": 123.542,
        "duration": 0.208,
        "velocity": 1,
        "hand": "right"
      },
      {
        "midi": 60,
        "time": 123.75,
        "duration": 0.208,
        "velocity": 1,
        "hand": "right"
      },
      {
        "midi": 55,
        "time": 123.958,
        "duration": 0.208,
        "velocity": 1,
        "hand": "left"
      },
      {
        "midi": 59,
        "time": 123.958,
        "duration": 0.208,
        "velocity": 1,
        "hand": "left"
      },
      {
        "midi": 48,
        "time": 124.167,
        "duration": 0.208,
        "velocity": 1,
        "hand": "left"
      },
      {
        "midi": 43,
        "time": 124.375,
        "duration": 0.208,
        "velocity": 1,
        "hand": "left"
      },
      {
        "midi": 47,
        "time": 124.375,
        "duration": 0.208,
        "velocity": 1,
        "hand": "left"
      },
      {
        "midi": 40,
        "time": 124.583,
        "duration": 0.417,
        "velocity": 1,
        "hand": "left"
      },
      {
        "midi": 76,
        "time": 125,
        "duration": 0.833,
        "velocity": 1,
        "hand": "right"
      },
      {
        "midi": 48,
        "time": 125.833,
        "duration": 1.667,
        "velocity": 1,
        "hand": "left"
      },
      {
        "midi": 55,
        "time": 125.833,
        "duration": 1.667,
        "velocity": 1,
        "hand": "left"
      },
      {
        "midi": 60,
        "time": 125.833,
        "duration": 1.667,
        "velocity": 1,
        "hand": "right"
      },
      {
        "midi": 64,
        "time": 125.833,
        "duration": 1.667,
        "velocity": 1,
        "hand": "right"
      },
      {
        "midi": 67,
        "time": 125.833,
        "duration": 1.667,
        "velocity": 1,
        "hand": "right"
      },
      {
        "midi": 74,
        "time": 125.833,
        "duration": 0.417,
        "velocity": 1,
        "hand": "right"
      },
      {
        "midi": 72,
        "time": 126.25,
        "duration": 0.417,
        "velocity": 1,
        "hand": "right"
      },
      {
        "midi": 71,
        "time": 126.667,
        "duration": 0.417,
        "velocity": 1,
        "hand": "right"
      },
      {
        "midi": 70,
        "time": 127.083,
        "duration": 0.417,
        "velocity": 1,
        "hand": "right"
      },
      {
        "midi": 76,
        "time": 127.917,
        "duration": 0.417,
        "velocity": 1,
        "hand": "right"
      },
      {
        "midi": 48,
        "time": 128.333,
        "duration": 1.667,
        "velocity": 1,
        "hand": "left"
      },
      {
        "midi": 54,
        "time": 128.333,
        "duration": 1.667,
        "velocity": 1,
        "hand": "left"
      },
      {
        "midi": 60,
        "time": 128.333,
        "duration": 1.667,
        "velocity": 1,
        "hand": "right"
      },
      {
        "midi": 64,
        "time": 128.333,
        "duration": 1.667,
        "velocity": 1,
        "hand": "right"
      },
      {
        "midi": 66,
        "time": 128.333,
        "duration": 1.667,
        "velocity": 1,
        "hand": "right"
      },
      {
        "midi": 68,
        "time": 128.75,
        "duration": 0.417,
        "velocity": 1,
        "hand": "right"
      },
      {
        "midi": 69,
        "time": 129.167,
        "duration": 0.417,
        "velocity": 1,
        "hand": "right"
      },
      {
        "midi": 70,
        "time": 129.583,
        "duration": 0.417,
        "velocity": 1,
        "hand": "right"
      },
      {
        "midi": 78,
        "time": 130,
        "duration": 0.833,
        "velocity": 1,
        "hand": "right"
      },
      {
        "midi": 47,
        "time": 130.208,
        "duration": 0.208,
        "velocity": 1,
        "hand": "left"
      },
      {
        "midi": 55,
        "time": 130.208,
        "duration": 0.208,
        "velocity": 1,
        "hand": "left"
      },
      {
        "midi": 63,
        "time": 130.417,
        "duration": 0.208,
        "velocity": 1,
        "hand": "right"
      },
      {
        "midi": 66,
        "time": 130.625,
        "duration": 0.208,
        "velocity": 1,
        "hand": "right"
      },
      {
        "midi": 71,
        "time": 130.625,
        "duration": 0.208,
        "velocity": 1,
        "hand": "right"
      },
      {
        "midi": 74,
        "time": 130.833,
        "duration": 0.833,
        "velocity": 1,
        "hand": "right"
      },
      {
        "midi": 47,
        "time": 131.042,
        "duration": 0.208,
        "velocity": 1,
        "hand": "left"
      },
      {
        "midi": 55,
        "time": 131.042,
        "duration": 0.208,
        "velocity": 1,
        "hand": "left"
      },
      {
        "midi": 59,
        "time": 131.25,
        "duration": 0.208,
        "velocity": 1,
        "hand": "left"
      },
      {
        "midi": 62,
        "time": 131.458,
        "duration": 0.208,
        "velocity": 1,
        "hand": "right"
      },
      {
        "midi": 67,
        "time": 131.458,
        "duration": 0.208,
        "velocity": 1,
        "hand": "right"
      },
      {
        "midi": 75,
        "time": 131.667,
        "duration": 0.833,
        "velocity": 1,
        "hand": "right"
      },
      {
        "midi": 47,
        "time": 131.875,
        "duration": 0.208,
        "velocity": 1,
        "hand": "left"
      },
      {
        "midi": 55,
        "time": 131.875,
        "duration": 0.208,
        "velocity": 1,
        "hand": "left"
      },
      {
        "midi": 59,
        "time": 132.083,
        "duration": 0.208,
        "velocity": 1,
        "hand": "left"
      },
      {
        "midi": 63,
        "time": 132.292,
        "duration": 0.208,
        "velocity": 1,
        "hand": "right"
      },
      {
        "midi": 66,
        "time": 132.292,
        "duration": 0.208,
        "velocity": 1,
        "hand": "right"
      },
      {
        "midi": 68,
        "time": 132.5,
        "duration": 0.833,
        "velocity": 1,
        "hand": "right"
      },
      {
        "midi": 47,
        "time": 132.708,
        "duration": 0.208,
        "velocity": 1,
        "hand": "left"
      },
      {
        "midi": 53,
        "time": 132.708,
        "duration": 0.208,
        "velocity": 1,
        "hand": "left"
      },
      {
        "midi": 59,
        "time": 132.917,
        "duration": 0.208,
        "velocity": 1,
        "hand": "left"
      },
      {
        "midi": 61,
        "time": 133.125,
        "duration": 0.208,
        "velocity": 1,
        "hand": "right"
      },
      {
        "midi": 65,
        "time": 133.125,
        "duration": 0.208,
        "velocity": 1,
        "hand": "right"
      },
      {
        "midi": 70,
        "time": 133.333,
        "duration": 0.417,
        "velocity": 1,
        "hand": "right"
      },
      {
        "midi": 71,
        "time": 133.75,
        "duration": 0.417,
        "velocity": 1,
        "hand": "right"
      },
      {
        "midi": 47,
        "time": 134.167,
        "duration": 0.833,
        "velocity": 1,
        "hand": "left"
      },
      {
        "midi": 54,
        "time": 134.167,
        "duration": 0.833,
        "velocity": 1,
        "hand": "left"
      },
      {
        "midi": 58,
        "time": 134.167,
        "duration": 0.833,
        "velocity": 1,
        "hand": "left"
      },
      {
        "midi": 64,
        "time": 134.167,
        "duration": 0.833,
        "velocity": 1,
        "hand": "right"
      },
      {
        "midi": 66,
        "time": 134.167,
        "duration": 0.833,
        "velocity": 1,
        "hand": "right"
      },
      {
        "midi": 75,
        "time": 134.167,
        "duration": 0.417,
        "velocity": 1,
        "hand": "right"
      },
      {
        "midi": 73,
        "time": 134.583,
        "duration": 0.417,
        "velocity": 1,
        "hand": "right"
      },
      {
        "midi": 78,
        "time": 135,
        "duration": 0.833,
        "velocity": 1,
        "hand": "right"
      },
      {
        "midi": 47,
        "time": 135.208,
        "duration": 0.208,
        "velocity": 1,
        "hand": "left"
      },
      {
        "midi": 55,
        "time": 135.208,
        "duration": 0.208,
        "velocity": 1,
        "hand": "left"
      },
      {
        "midi": 63,
        "time": 135.417,
        "duration": 0.208,
        "velocity": 1,
        "hand": "right"
      },
      {
        "midi": 66,
        "time": 135.625,
        "duration": 0.208,
        "velocity": 1,
        "hand": "right"
      },
      {
        "midi": 71,
        "time": 135.625,
        "duration": 0.208,
        "velocity": 1,
        "hand": "right"
      },
      {
        "midi": 74,
        "time": 135.833,
        "duration": 0.833,
        "velocity": 1,
        "hand": "right"
      },
      {
        "midi": 47,
        "time": 136.042,
        "duration": 0.208,
        "velocity": 1,
        "hand": "left"
      },
      {
        "midi": 55,
        "time": 136.042,
        "duration": 0.208,
        "velocity": 1,
        "hand": "left"
      },
      {
        "midi": 59,
        "time": 136.25,
        "duration": 0.208,
        "velocity": 1,
        "hand": "left"
      },
      {
        "midi": 62,
        "time": 136.458,
        "duration": 0.208,
        "velocity": 1,
        "hand": "right"
      },
      {
        "midi": 67,
        "time": 136.458,
        "duration": 0.208,
        "velocity": 1,
        "hand": "right"
      },
      {
        "midi": 75,
        "time": 136.667,
        "duration": 0.833,
        "velocity": 1,
        "hand": "right"
      },
      {
        "midi": 47,
        "time": 136.875,
        "duration": 0.208,
        "velocity": 1,
        "hand": "left"
      },
      {
        "midi": 55,
        "time": 136.875,
        "duration": 0.208,
        "velocity": 1,
        "hand": "left"
      },
      {
        "midi": 59,
        "time": 137.083,
        "duration": 0.208,
        "velocity": 1,
        "hand": "left"
      },
      {
        "midi": 63,
        "time": 137.292,
        "duration": 0.208,
        "velocity": 1,
        "hand": "right"
      },
      {
        "midi": 66,
        "time": 137.292,
        "duration": 0.208,
        "velocity": 1,
        "hand": "right"
      },
      {
        "midi": 68,
        "time": 137.5,
        "duration": 0.833,
        "velocity": 1,
        "hand": "right"
      },
      {
        "midi": 47,
        "time": 137.708,
        "duration": 0.208,
        "velocity": 1,
        "hand": "left"
      },
      {
        "midi": 53,
        "time": 137.708,
        "duration": 0.208,
        "velocity": 1,
        "hand": "left"
      },
      {
        "midi": 59,
        "time": 137.917,
        "duration": 0.208,
        "velocity": 1,
        "hand": "left"
      },
      {
        "midi": 61,
        "time": 138.125,
        "duration": 0.208,
        "velocity": 1,
        "hand": "right"
      },
      {
        "midi": 65,
        "time": 138.125,
        "duration": 0.208,
        "velocity": 1,
        "hand": "right"
      },
      {
        "midi": 70,
        "time": 138.333,
        "duration": 0.417,
        "velocity": 1,
        "hand": "right"
      },
      {
        "midi": 71,
        "time": 138.75,
        "duration": 0.417,
        "velocity": 1,
        "hand": "right"
      },
      {
        "midi": 47,
        "time": 139.167,
        "duration": 0.833,
        "velocity": 1,
        "hand": "left"
      },
      {
        "midi": 54,
        "time": 139.167,
        "duration": 0.833,
        "velocity": 1,
        "hand": "left"
      },
      {
        "midi": 58,
        "time": 139.167,
        "duration": 0.833,
        "velocity": 1,
        "hand": "left"
      },
      {
        "midi": 64,
        "time": 139.167,
        "duration": 0.833,
        "velocity": 1,
        "hand": "right"
      },
      {
        "midi": 66,
        "time": 139.167,
        "duration": 0.833,
        "velocity": 1,
        "hand": "right"
      },
      {
        "midi": 75,
        "time": 139.167,
        "duration": 0.417,
        "velocity": 1,
        "hand": "right"
      },
      {
        "midi": 73,
        "time": 139.583,
        "duration": 0.417,
        "velocity": 1,
        "hand": "right"
      },
      {
        "midi": 78,
        "time": 140,
        "duration": 0.833,
        "velocity": 1,
        "hand": "right"
      },
      {
        "midi": 47,
        "time": 140.208,
        "duration": 0.208,
        "velocity": 1,
        "hand": "left"
      },
      {
        "midi": 55,
        "time": 140.208,
        "duration": 0.208,
        "velocity": 1,
        "hand": "left"
      },
      {
        "midi": 63,
        "time": 140.417,
        "duration": 0.208,
        "velocity": 1,
        "hand": "right"
      },
      {
        "midi": 66,
        "time": 140.625,
        "duration": 0.208,
        "velocity": 1,
        "hand": "right"
      },
      {
        "midi": 71,
        "time": 140.625,
        "duration": 0.208,
        "velocity": 1,
        "hand": "right"
      },
      {
        "midi": 74,
        "time": 140.833,
        "duration": 0.833,
        "velocity": 1,
        "hand": "right"
      },
      {
        "midi": 47,
        "time": 141.042,
        "duration": 0.208,
        "velocity": 1,
        "hand": "left"
      },
      {
        "midi": 55,
        "time": 141.042,
        "duration": 0.208,
        "velocity": 1,
        "hand": "left"
      },
      {
        "midi": 59,
        "time": 141.25,
        "duration": 0.208,
        "velocity": 1,
        "hand": "left"
      },
      {
        "midi": 62,
        "time": 141.458,
        "duration": 0.208,
        "velocity": 1,
        "hand": "right"
      },
      {
        "midi": 67,
        "time": 141.458,
        "duration": 0.208,
        "velocity": 1,
        "hand": "right"
      },
      {
        "midi": 75,
        "time": 141.667,
        "duration": 0.833,
        "velocity": 1,
        "hand": "right"
      },
      {
        "midi": 47,
        "time": 141.875,
        "duration": 0.208,
        "velocity": 1,
        "hand": "left"
      },
      {
        "midi": 55,
        "time": 141.875,
        "duration": 0.208,
        "velocity": 1,
        "hand": "left"
      },
      {
        "midi": 59,
        "time": 142.083,
        "duration": 0.208,
        "velocity": 1,
        "hand": "left"
      },
      {
        "midi": 63,
        "time": 142.292,
        "duration": 0.208,
        "velocity": 1,
        "hand": "right"
      },
      {
        "midi": 66,
        "time": 142.292,
        "duration": 0.208,
        "velocity": 1,
        "hand": "right"
      },
      {
        "midi": 67,
        "time": 142.5,
        "duration": 0.833,
        "velocity": 1,
        "hand": "right"
      },
      {
        "midi": 47,
        "time": 142.708,
        "duration": 0.208,
        "velocity": 1,
        "hand": "left"
      },
      {
        "midi": 53,
        "time": 142.708,
        "duration": 0.208,
        "velocity": 1,
        "hand": "left"
      },
      {
        "midi": 55,
        "time": 142.917,
        "duration": 0.208,
        "velocity": 1,
        "hand": "left"
      },
      {
        "midi": 59,
        "time": 143.125,
        "duration": 0.208,
        "velocity": 1,
        "hand": "left"
      },
      {
        "midi": 62,
        "time": 143.125,
        "duration": 0.208,
        "velocity": 1,
        "hand": "right"
      },
      {
        "midi": 66,
        "time": 143.333,
        "duration": 0.833,
        "velocity": 1,
        "hand": "right"
      },
      {
        "midi": 47,
        "time": 143.542,
        "duration": 0.208,
        "velocity": 1,
        "hand": "left"
      },
      {
        "midi": 55,
        "time": 143.542,
        "duration": 0.208,
        "velocity": 1,
        "hand": "left"
      },
      {
        "midi": 59,
        "time": 143.75,
        "duration": 0.208,
        "velocity": 1,
        "hand": "left"
      },
      {
        "midi": 62,
        "time": 143.958,
        "duration": 0.208,
        "velocity": 1,
        "hand": "right"
      },
      {
        "midi": 63,
        "time": 143.958,
        "duration": 0.208,
        "velocity": 1,
        "hand": "right"
      },
      {
        "midi": 55,
        "time": 144.167,
        "duration": 0.833,
        "velocity": 1,
        "hand": "left"
      },
      {
        "midi": 35,
        "time": 144.375,
        "duration": 0.208,
        "velocity": 1,
        "hand": "left"
      },
      {
        "midi": 41,
        "time": 144.375,
        "duration": 0.208,
        "velocity": 1,
        "hand": "left"
      },
      {
        "midi": 43,
        "time": 144.583,
        "duration": 0.208,
        "velocity": 1,
        "hand": "left"
      },
      {
        "midi": 47,
        "time": 144.792,
        "duration": 0.208,
        "velocity": 1,
        "hand": "left"
      },
      {
        "midi": 50,
        "time": 144.792,
        "duration": 0.208,
        "velocity": 1,
        "hand": "left"
      },
      {
        "midi": 54,
        "time": 145,
        "duration": 0.625,
        "velocity": 1,
        "hand": "left"
      },
      {
        "midi": 35,
        "time": 145.208,
        "duration": 0.208,
        "velocity": 1,
        "hand": "left"
      },
      {
        "midi": 42,
        "time": 145.208,
        "duration": 0.208,
        "velocity": 1,
        "hand": "left"
      },
      {
        "midi": 51,
        "time": 145.417,
        "duration": 0.208,
        "velocity": 1,
        "hand": "left"
      },
      {
        "midi": 53,
        "time": 145.625,
        "duration": 0.208,
        "velocity": 1,
        "hand": "left"
      },
      {
        "midi": 54,
        "time": 145.625,
        "duration": 0.208,
        "velocity": 1,
        "hand": "left"
      },
      {
        "midi": 55,
        "time": 145.833,
        "duration": 0.208,
        "velocity": 1,
        "hand": "left"
      },
      {
        "midi": 56,
        "time": 146.042,
        "duration": 0.208,
        "velocity": 1,
        "hand": "left"
      },
      {
        "midi": 57,
        "time": 146.25,
        "duration": 0.208,
        "velocity": 1,
        "hand": "left"
      },
      {
        "midi": 58,
        "time": 146.458,
        "duration": 0.208,
        "velocity": 1,
        "hand": "left"
      },
      {
        "midi": 59,
        "time": 146.667,
        "duration": 0.208,
        "velocity": 1,
        "hand": "left"
      },
      {
        "midi": 61,
        "time": 146.875,
        "duration": 0.417,
        "velocity": 1,
        "hand": "right"
      },
      {
        "midi": 62,
        "time": 147.292,
        "duration": 0.625,
        "velocity": 1,
        "hand": "right"
      },
      {
        "midi": 63,
        "time": 147.917,
        "duration": 0.833,
        "velocity": 1,
        "hand": "right"
      },
      {
        "midi": 64,
        "time": 148.75,
        "duration": 0.417,
        "velocity": 1,
        "hand": "right"
      },
      {
        "midi": 65,
        "time": 149.167,
        "duration": 0.417,
        "velocity": 1,
        "hand": "right"
      },
      {
        "midi": 66,
        "time": 149.583,
        "duration": 0.417,
        "velocity": 1,
        "hand": "right"
      },
      {
        "midi": 66,
        "time": 152.5,
        "duration": 0.417,
        "velocity": 1,
        "hand": "right"
      },
      {
        "midi": 68,
        "time": 152.917,
        "duration": 0.208,
        "velocity": 1,
        "hand": "right"
      },
      {
        "midi": 69,
        "time": 153.125,
        "duration": 0.208,
        "velocity": 1,
        "hand": "right"
      },
      {
        "midi": 50,
        "time": 153.333,
        "duration": 0.833,
        "velocity": 1,
        "hand": "left"
      },
      {
        "midi": 52,
        "time": 153.333,
        "duration": 1.667,
        "velocity": 1,
        "hand": "left"
      },
      {
        "midi": 59,
        "time": 153.333,
        "duration": 0.833,
        "velocity": 1,
        "hand": "left"
      },
      {
        "midi": 64,
        "time": 153.333,
        "duration": 0.833,
        "velocity": 1,
        "hand": "right"
      },
      {
        "midi": 68,
        "time": 153.333,
        "duration": 0.417,
        "velocity": 1,
        "hand": "right"
      },
      {
        "midi": 71,
        "time": 153.75,
        "duration": 0.417,
        "velocity": 1,
        "hand": "right"
      },
      {
        "midi": 49,
        "time": 154.167,
        "duration": 0.833,
        "velocity": 1,
        "hand": "left"
      },
      {
        "midi": 64,
        "time": 154.167,
        "duration": 1.667,
        "velocity": 1,
        "hand": "right"
      },
      {
        "midi": 69,
        "time": 154.583,
        "duration": 0.417,
        "velocity": 1,
        "hand": "right"
      },
      {
        "midi": 47,
        "time": 155,
        "duration": 0.417,
        "velocity": 1,
        "hand": "left"
      },
      {
        "midi": 52,
        "time": 155,
        "duration": 0.833,
        "velocity": 1,
        "hand": "left"
      },
      {
        "midi": 68,
        "time": 155,
        "duration": 0.417,
        "velocity": 1,
        "hand": "right"
      },
      {
        "midi": 71,
        "time": 155,
        "duration": 0.417,
        "velocity": 1,
        "hand": "right"
      },
      {
        "midi": 45,
        "time": 155.417,
        "duration": 0.417,
        "velocity": 1,
        "hand": "left"
      },
      {
        "midi": 69,
        "time": 155.417,
        "duration": 0.417,
        "velocity": 1,
        "hand": "right"
      },
      {
        "midi": 73,
        "time": 155.417,
        "duration": 0.417,
        "velocity": 1,
        "hand": "right"
      },
      {
        "midi": 44,
        "time": 155.833,
        "duration": 0.833,
        "velocity": 1,
        "hand": "left"
      },
      {
        "midi": 52,
        "time": 155.833,
        "duration": 1.667,
        "velocity": 1,
        "hand": "left"
      },
      {
        "midi": 64,
        "time": 155.833,
        "duration": 1.667,
        "velocity": 1,
        "hand": "right"
      },
      {
        "midi": 71,
        "time": 155.833,
        "duration": 0.833,
        "velocity": 1,
        "hand": "right"
      },
      {
        "midi": 76,
        "time": 155.833,
        "duration": 0.833,
        "velocity": 1,
        "hand": "right"
      },
      {
        "midi": 45,
        "time": 156.667,
        "duration": 0.833,
        "velocity": 1,
        "hand": "left"
      },
      {
        "midi": 69,
        "time": 156.667,
        "duration": 0.833,
        "velocity": 1,
        "hand": "right"
      },
      {
        "midi": 73,
        "time": 156.667,
        "duration": 0.833,
        "velocity": 1,
        "hand": "right"
      },
      {
        "midi": 73,
        "time": 157.5,
        "duration": 0.417,
        "velocity": 1,
        "hand": "right"
      },
      {
        "midi": 74,
        "time": 157.917,
        "duration": 0.208,
        "velocity": 1,
        "hand": "right"
      },
      {
        "midi": 76,
        "time": 158.125,
        "duration": 0.208,
        "velocity": 1,
        "hand": "right"
      },
      {
        "midi": 46,
        "time": 158.333,
        "duration": 0.833,
        "velocity": 1,
        "hand": "left"
      },
      {
        "midi": 54,
        "time": 158.333,
        "duration": 0.833,
        "velocity": 1,
        "hand": "left"
      },
      {
        "midi": 61,
        "time": 158.333,
        "duration": 0.833,
        "velocity": 1,
        "hand": "right"
      },
      {
        "midi": 66,
        "time": 158.333,
        "duration": 0.833,
        "velocity": 1,
        "hand": "right"
      },
      {
        "midi": 73,
        "time": 158.333,
        "duration": 0.417,
        "velocity": 1,
        "hand": "right"
      },
      {
        "midi": 78,
        "time": 158.333,
        "duration": 0.417,
        "velocity": 1,
        "hand": "right"
      },
      {
        "midi": 73,
        "time": 158.75,
        "duration": 0.417,
        "velocity": 1,
        "hand": "right"
      },
      {
        "midi": 47,
        "time": 159.167,
        "duration": 0.833,
        "velocity": 1,
        "hand": "left"
      },
      {
        "midi": 54,
        "time": 159.167,
        "duration": 0.833,
        "velocity": 1,
        "hand": "left"
      },
      {
        "midi": 59,
        "time": 159.167,
        "duration": 0.833,
        "velocity": 1,
        "hand": "left"
      },
      {
        "midi": 66,
        "time": 159.167,
        "duration": 0.833,
        "velocity": 1,
        "hand": "right"
      },
      {
        "midi": 71,
        "time": 159.167,
        "duration": 0.833,
        "velocity": 1,
        "hand": "right"
      },
      {
        "midi": 74,
        "time": 159.167,
        "duration": 0.833,
        "velocity": 1,
        "hand": "right"
      },
      {
        "midi": 66,
        "time": 160,
        "duration": 0.417,
        "velocity": 1,
        "hand": "right"
      },
      {
        "midi": 68,
        "time": 160.417,
        "duration": 0.208,
        "velocity": 1,
        "hand": "right"
      },
      {
        "midi": 69,
        "time": 160.625,
        "duration": 0.208,
        "velocity": 1,
        "hand": "right"
      },
      {
        "midi": 47,
        "time": 160.833,
        "duration": 0.833,
        "velocity": 1,
        "hand": "left"
      },
      {
        "midi": 57,
        "time": 160.833,
        "duration": 0.833,
        "velocity": 1,
        "hand": "left"
      },
      {
        "midi": 63,
        "time": 160.833,
        "duration": 0.833,
        "velocity": 1,
        "hand": "right"
      },
      {
        "midi": 73,
        "time": 160.833,
        "duration": 0.417,
        "velocity": 1,
        "hand": "right"
      },
      {
        "midi": 70,
        "time": 161.25,
        "duration": 0.833,
        "velocity": 1,
        "hand": "right"
      },
      {
        "midi": 52,
        "time": 161.667,
        "duration": 0.833,
        "velocity": 1,
        "hand": "left"
      },
      {
        "midi": 56,
        "time": 161.667,
        "duration": 0.833,
        "velocity": 1,
        "hand": "left"
      },
      {
        "midi": 62,
        "time": 161.667,
        "duration": 0.833,
        "velocity": 1,
        "hand": "right"
      },
      {
        "midi": 71,
        "time": 162.083,
        "duration": 0.417,
        "velocity": 1,
        "hand": "right"
      },
      {
        "midi": 66,
        "time": 162.5,
        "duration": 0.417,
        "velocity": 1,
        "hand": "right"
      },
      {
        "midi": 68,
        "time": 162.917,
        "duration": 0.208,
        "velocity": 1,
        "hand": "right"
      },
      {
        "midi": 69,
        "time": 163.125,
        "duration": 0.208,
        "velocity": 1,
        "hand": "right"
      },
      {
        "midi": 50,
        "time": 163.333,
        "duration": 0.833,
        "velocity": 1,
        "hand": "left"
      },
      {
        "midi": 52,
        "time": 163.333,
        "duration": 1.667,
        "velocity": 1,
        "hand": "left"
      },
      {
        "midi": 59,
        "time": 163.333,
        "duration": 0.833,
        "velocity": 1,
        "hand": "left"
      },
      {
        "midi": 64,
        "time": 163.333,
        "duration": 0.833,
        "velocity": 1,
        "hand": "right"
      },
      {
        "midi": 68,
        "time": 163.333,
        "duration": 0.417,
        "velocity": 1,
        "hand": "right"
      },
      {
        "midi": 71,
        "time": 163.75,
        "duration": 0.417,
        "velocity": 1,
        "hand": "right"
      },
      {
        "midi": 49,
        "time": 164.167,
        "duration": 0.833,
        "velocity": 1,
        "hand": "left"
      },
      {
        "midi": 64,
        "time": 164.167,
        "duration": 1.667,
        "velocity": 1,
        "hand": "right"
      },
      {
        "midi": 69,
        "time": 164.583,
        "duration": 0.417,
        "velocity": 1,
        "hand": "right"
      },
      {
        "midi": 47,
        "time": 165,
        "duration": 0.417,
        "velocity": 1,
        "hand": "left"
      },
      {
        "midi": 52,
        "time": 165,
        "duration": 0.833,
        "velocity": 1,
        "hand": "left"
      },
      {
        "midi": 68,
        "time": 165,
        "duration": 0.417,
        "velocity": 1,
        "hand": "right"
      },
      {
        "midi": 71,
        "time": 165,
        "duration": 0.417,
        "velocity": 1,
        "hand": "right"
      },
      {
        "midi": 45,
        "time": 165.417,
        "duration": 0.417,
        "velocity": 1,
        "hand": "left"
      },
      {
        "midi": 69,
        "time": 165.417,
        "duration": 0.417,
        "velocity": 1,
        "hand": "right"
      },
      {
        "midi": 73,
        "time": 165.417,
        "duration": 0.417,
        "velocity": 1,
        "hand": "right"
      },
      {
        "midi": 44,
        "time": 165.833,
        "duration": 0.833,
        "velocity": 1,
        "hand": "left"
      },
      {
        "midi": 52,
        "time": 165.833,
        "duration": 1.667,
        "velocity": 1,
        "hand": "left"
      },
      {
        "midi": 64,
        "time": 165.833,
        "duration": 1.667,
        "velocity": 1,
        "hand": "right"
      },
      {
        "midi": 71,
        "time": 165.833,
        "duration": 0.833,
        "velocity": 1,
        "hand": "right"
      },
      {
        "midi": 76,
        "time": 165.833,
        "duration": 0.833,
        "velocity": 1,
        "hand": "right"
      },
      {
        "midi": 45,
        "time": 166.667,
        "duration": 0.833,
        "velocity": 1,
        "hand": "left"
      },
      {
        "midi": 69,
        "time": 166.667,
        "duration": 0.833,
        "velocity": 1,
        "hand": "right"
      },
      {
        "midi": 73,
        "time": 166.667,
        "duration": 0.833,
        "velocity": 1,
        "hand": "right"
      },
      {
        "midi": 73,
        "time": 167.5,
        "duration": 0.417,
        "velocity": 1,
        "hand": "right"
      },
      {
        "midi": 75,
        "time": 167.917,
        "duration": 0.208,
        "velocity": 1,
        "hand": "right"
      },
      {
        "midi": 76,
        "time": 168.125,
        "duration": 0.208,
        "velocity": 1,
        "hand": "right"
      },
      {
        "midi": 47,
        "time": 168.333,
        "duration": 2.5,
        "velocity": 1,
        "hand": "left"
      },
      {
        "midi": 64,
        "time": 168.333,
        "duration": 0.833,
        "velocity": 1,
        "hand": "right"
      },
      {
        "midi": 68,
        "time": 168.333,
        "duration": 0.417,
        "velocity": 1,
        "hand": "right"
      },
      {
        "midi": 73,
        "time": 168.75,
        "duration": 0.417,
        "velocity": 1,
        "hand": "right"
      },
      {
        "midi": 57,
        "time": 169.167,
        "duration": 0.417,
        "velocity": 1,
        "hand": "left"
      },
      {
        "midi": 63,
        "time": 169.167,
        "duration": 0.833,
        "velocity": 1,
        "hand": "right"
      },
      {
        "midi": 66,
        "time": 169.167,
        "duration": 0.833,
        "velocity": 1,
        "hand": "right"
      },
      {
        "midi": 71,
        "time": 169.167,
        "duration": 0.833,
        "velocity": 1,
        "hand": "right"
      },
      {
        "midi": 59,
        "time": 169.583,
        "duration": 0.417,
        "velocity": 1,
        "hand": "left"
      },
      {
        "midi": 56,
        "time": 170,
        "duration": 0.833,
        "velocity": 1,
        "hand": "left"
      },
      {
        "midi": 64,
        "time": 170,
        "duration": 0.833,
        "velocity": 1,
        "hand": "right"
      },
      {
        "midi": 71,
        "time": 170,
        "duration": 0.833,
        "velocity": 1,
        "hand": "right"
      },
      {
        "midi": 73,
        "time": 170,
        "duration": 0.417,
        "velocity": 1,
        "hand": "right"
      },
      {
        "midi": 75,
        "time": 170.417,
        "duration": 0.208,
        "velocity": 1,
        "hand": "right"
      },
      {
        "midi": 76,
        "time": 170.625,
        "duration": 0.208,
        "velocity": 1,
        "hand": "right"
      },
      {
        "midi": 47,
        "time": 170.833,
        "duration": 2.083,
        "velocity": 1,
        "hand": "left"
      },
      {
        "midi": 64,
        "time": 170.833,
        "duration": 0.833,
        "velocity": 1,
        "hand": "right"
      },
      {
        "midi": 68,
        "time": 170.833,
        "duration": 0.417,
        "velocity": 1,
        "hand": "right"
      },
      {
        "midi": 73,
        "time": 171.25,
        "duration": 0.417,
        "velocity": 1,
        "hand": "right"
      },
      {
        "midi": 57,
        "time": 171.667,
        "duration": 0.417,
        "velocity": 1,
        "hand": "left"
      },
      {
        "midi": 63,
        "time": 171.667,
        "duration": 0.833,
        "velocity": 1,
        "hand": "right"
      },
      {
        "midi": 66,
        "time": 171.667,
        "duration": 0.833,
        "velocity": 1,
        "hand": "right"
      },
      {
        "midi": 71,
        "time": 171.667,
        "duration": 0.833,
        "velocity": 1,
        "hand": "right"
      },
      {
        "midi": 59,
        "time": 172.083,
        "duration": 0.417,
        "velocity": 1,
        "hand": "left"
      },
      {
        "midi": 56,
        "time": 172.5,
        "duration": 0.417,
        "velocity": 1,
        "hand": "left"
      },
      {
        "midi": 64,
        "time": 172.5,
        "duration": 0.417,
        "velocity": 1,
        "hand": "right"
      },
      {
        "midi": 71,
        "time": 172.5,
        "duration": 0.417,
        "velocity": 1,
        "hand": "right"
      },
      {
        "midi": 73,
        "time": 172.5,
        "duration": 0.417,
        "velocity": 1,
        "hand": "right"
      },
      {
        "midi": 75,
        "time": 172.917,
        "duration": 0.208,
        "velocity": 1,
        "hand": "right"
      },
      {
        "midi": 76,
        "time": 173.125,
        "duration": 0.208,
        "velocity": 1,
        "hand": "right"
      },
      {
        "midi": 80,
        "time": 173.333,
        "duration": 0.417,
        "velocity": 1,
        "hand": "right"
      },
      {
        "midi": 76,
        "time": 173.75,
        "duration": 0.417,
        "velocity": 1,
        "hand": "right"
      },
      {
        "midi": 75,
        "time": 174.167,
        "duration": 0.417,
        "velocity": 1,
        "hand": "right"
      },
      {
        "midi": 73,
        "time": 174.583,
        "duration": 0.417,
        "velocity": 1,
        "hand": "right"
      },
      {
        "midi": 54,
        "time": 175,
        "duration": 0.417,
        "velocity": 1,
        "hand": "left"
      },
      {
        "midi": 63,
        "time": 175,
        "duration": 0.833,
        "velocity": 1,
        "hand": "right"
      },
      {
        "midi": 66,
        "time": 175,
        "duration": 0.833,
        "velocity": 1,
        "hand": "right"
      },
      {
        "midi": 73,
        "time": 175,
        "duration": 0.833,
        "velocity": 1,
        "hand": "right"
      },
      {
        "midi": 56,
        "time": 175.417,
        "duration": 0.208,
        "velocity": 1,
        "hand": "left"
      },
      {
        "midi": 57,
        "time": 175.625,
        "duration": 0.208,
        "velocity": 1,
        "hand": "left"
      },
      {
        "midi": 47,
        "time": 175.833,
        "duration": 0.833,
        "velocity": 1,
        "hand": "left"
      },
      {
        "midi": 61,
        "time": 175.833,
        "duration": 0.417,
        "velocity": 1,
        "hand": "right"
      },
      {
        "midi": 63,
        "time": 175.833,
        "duration": 0.833,
        "velocity": 1,
        "hand": "right"
      },
      {
        "midi": 66,
        "time": 175.833,
        "duration": 0.833,
        "velocity": 1,
        "hand": "right"
      },
      {
        "midi": 59,
        "time": 176.25,
        "duration": 0.417,
        "velocity": 1,
        "hand": "left"
      },
      {
        "midi": 52,
        "time": 176.667,
        "duration": 0.833,
        "velocity": 1,
        "hand": "left"
      },
      {
        "midi": 57,
        "time": 176.667,
        "duration": 0.417,
        "velocity": 1,
        "hand": "left"
      },
      {
        "midi": 59,
        "time": 176.667,
        "duration": 0.833,
        "velocity": 1,
        "hand": "left"
      },
      {
        "midi": 64,
        "time": 176.667,
        "duration": 0.833,
        "velocity": 1,
        "hand": "right"
      },
      {
        "midi": 56,
        "time": 177.083,
        "duration": 0.417,
        "velocity": 1,
        "hand": "left"
      },
      {
        "midi": 40,
        "time": 177.5,
        "duration": 0.417,
        "velocity": 1,
        "hand": "left"
      },
      {
        "midi": 74,
        "time": 177.5,
        "duration": 0.417,
        "velocity": 1,
        "hand": "right"
      },
      {
        "midi": 52,
        "time": 177.708,
        "duration": 0.208,
        "velocity": 1,
        "hand": "left"
      },
      {
        "midi": 54,
        "time": 177.917,
        "duration": 0.208,
        "velocity": 1,
        "hand": "left"
      },
      {
        "midi": 73,
        "time": 177.917,
        "duration": 0.208,
        "velocity": 1,
        "hand": "right"
      },
      {
        "midi": 56,
        "time": 178.125,
        "duration": 0.208,
        "velocity": 1,
        "hand": "left"
      },
      {
        "midi": 71,
        "time": 178.125,
        "duration": 0.208,
        "velocity": 1,
        "hand": "right"
      },
      {
        "midi": 52,
        "time": 178.333,
        "duration": 1.667,
        "velocity": 1,
        "hand": "left"
      },
      {
        "midi": 57,
        "time": 178.333,
        "duration": 0.208,
        "velocity": 1,
        "hand": "left"
      },
      {
        "midi": 63,
        "time": 178.333,
        "duration": 0.833,
        "velocity": 1,
        "hand": "right"
      },
      {
        "midi": 66,
        "time": 178.333,
        "duration": 0.417,
        "velocity": 1,
        "hand": "right"
      },
      {
        "midi": 59,
        "time": 178.542,
        "duration": 0.208,
        "velocity": 1,
        "hand": "left"
      },
      {
        "midi": 60,
        "time": 178.75,
        "duration": 0.833,
        "velocity": 1,
        "hand": "right"
      },
      {
        "midi": 69,
        "time": 178.75,
        "duration": 0.417,
        "velocity": 1,
        "hand": "right"
      },
      {
        "midi": 64,
        "time": 179.167,
        "duration": 0.833,
        "velocity": 1,
        "hand": "right"
      },
      {
        "midi": 68,
        "time": 179.167,
        "duration": 0.833,
        "velocity": 1,
        "hand": "right"
      },
      {
        "midi": 59,
        "time": 179.583,
        "duration": 0.417,
        "velocity": 1,
        "hand": "left"
      },
      {
        "midi": 45,
        "time": 180,
        "duration": 0.417,
        "velocity": 1,
        "hand": "left"
      },
      {
        "midi": 52,
        "time": 180,
        "duration": 1.667,
        "velocity": 1,
        "hand": "left"
      },
      {
        "midi": 61,
        "time": 180,
        "duration": 0.417,
        "velocity": 1,
        "hand": "right"
      },
      {
        "midi": 66,
        "time": 180,
        "duration": 0.417,
        "velocity": 1,
        "hand": "right"
      },
      {
        "midi": 44,
        "time": 180.417,
        "duration": 0.417,
        "velocity": 1,
        "hand": "left"
      },
      {
        "midi": 60,
        "time": 180.417,
        "duration": 0.417,
        "velocity": 1,
        "hand": "right"
      },
      {
        "midi": 68,
        "time": 180.417,
        "duration": 0.417,
        "velocity": 1,
        "hand": "right"
      },
      {
        "midi": 45,
        "time": 180.833,
        "duration": 0.417,
        "velocity": 1,
        "hand": "left"
      },
      {
        "midi": 61,
        "time": 180.833,
        "duration": 0.417,
        "velocity": 1,
        "hand": "right"
      },
      {
        "midi": 66,
        "time": 180.833,
        "duration": 0.417,
        "velocity": 1,
        "hand": "right"
      },
      {
        "midi": 44,
        "time": 181.25,
        "duration": 0.417,
        "velocity": 1,
        "hand": "left"
      },
      {
        "midi": 60,
        "time": 181.25,
        "duration": 0.417,
        "velocity": 1,
        "hand": "right"
      },
      {
        "midi": 68,
        "time": 181.25,
        "duration": 0.417,
        "velocity": 1,
        "hand": "right"
      },
      {
        "midi": 52,
        "time": 181.667,
        "duration": 0.833,
        "velocity": 1,
        "hand": "left"
      },
      {
        "midi": 57,
        "time": 181.667,
        "duration": 0.417,
        "velocity": 1,
        "hand": "left"
      },
      {
        "midi": 59,
        "time": 181.667,
        "duration": 0.833,
        "velocity": 1,
        "hand": "left"
      },
      {
        "midi": 64,
        "time": 181.667,
        "duration": 0.833,
        "velocity": 1,
        "hand": "right"
      },
      {
        "midi": 56,
        "time": 182.083,
        "duration": 0.417,
        "velocity": 1,
        "hand": "left"
      },
      {
        "midi": 40,
        "time": 182.5,
        "duration": 0.417,
        "velocity": 1,
        "hand": "left"
      },
      {
        "midi": 74,
        "time": 182.5,
        "duration": 0.417,
        "velocity": 1,
        "hand": "right"
      },
      {
        "midi": 52,
        "time": 182.708,
        "duration": 0.208,
        "velocity": 1,
        "hand": "left"
      },
      {
        "midi": 54,
        "time": 182.917,
        "duration": 0.208,
        "velocity": 1,
        "hand": "left"
      },
      {
        "midi": 73,
        "time": 182.917,
        "duration": 0.208,
        "velocity": 1,
        "hand": "right"
      },
      {
        "midi": 56,
        "time": 183.125,
        "duration": 0.208,
        "velocity": 1,
        "hand": "left"
      },
      {
        "midi": 71,
        "time": 183.125,
        "duration": 0.208,
        "velocity": 1,
        "hand": "right"
      },
      {
        "midi": 52,
        "time": 183.333,
        "duration": 1.667,
        "velocity": 1,
        "hand": "left"
      },
      {
        "midi": 57,
        "time": 183.333,
        "duration": 0.208,
        "velocity": 1,
        "hand": "left"
      },
      {
        "midi": 63,
        "time": 183.333,
        "duration": 0.833,
        "velocity": 1,
        "hand": "right"
      },
      {
        "midi": 66,
        "time": 183.333,
        "duration": 0.417,
        "velocity": 1,
        "hand": "right"
      },
      {
        "midi": 59,
        "time": 183.542,
        "duration": 0.208,
        "velocity": 1,
        "hand": "left"
      },
      {
        "midi": 60,
        "time": 183.75,
        "duration": 0.833,
        "velocity": 1,
        "hand": "right"
      },
      {
        "midi": 69,
        "time": 183.75,
        "duration": 0.417,
        "velocity": 1,
        "hand": "right"
      },
      {
        "midi": 64,
        "time": 184.167,
        "duration": 0.833,
        "velocity": 1,
        "hand": "right"
      },
      {
        "midi": 68,
        "time": 184.167,
        "duration": 0.833,
        "velocity": 1,
        "hand": "right"
      },
      {
        "midi": 59,
        "time": 184.583,
        "duration": 0.417,
        "velocity": 1,
        "hand": "left"
      },
      {
        "midi": 45,
        "time": 185,
        "duration": 0.417,
        "velocity": 1,
        "hand": "left"
      },
      {
        "midi": 52,
        "time": 185,
        "duration": 1.667,
        "velocity": 1,
        "hand": "left"
      },
      {
        "midi": 61,
        "time": 185,
        "duration": 0.417,
        "velocity": 1,
        "hand": "right"
      },
      {
        "midi": 66,
        "time": 185,
        "duration": 0.417,
        "velocity": 1,
        "hand": "right"
      },
      {
        "midi": 44,
        "time": 185.417,
        "duration": 0.417,
        "velocity": 1,
        "hand": "left"
      },
      {
        "midi": 60,
        "time": 185.417,
        "duration": 0.417,
        "velocity": 1,
        "hand": "right"
      },
      {
        "midi": 68,
        "time": 185.417,
        "duration": 0.417,
        "velocity": 1,
        "hand": "right"
      },
      {
        "midi": 45,
        "time": 185.833,
        "duration": 0.417,
        "velocity": 1,
        "hand": "left"
      },
      {
        "midi": 61,
        "time": 185.833,
        "duration": 0.417,
        "velocity": 1,
        "hand": "right"
      },
      {
        "midi": 66,
        "time": 185.833,
        "duration": 0.417,
        "velocity": 1,
        "hand": "right"
      },
      {
        "midi": 44,
        "time": 186.25,
        "duration": 0.417,
        "velocity": 1,
        "hand": "left"
      },
      {
        "midi": 60,
        "time": 186.25,
        "duration": 0.417,
        "velocity": 1,
        "hand": "right"
      },
      {
        "midi": 68,
        "time": 186.25,
        "duration": 0.417,
        "velocity": 1,
        "hand": "right"
      },
      {
        "midi": 52,
        "time": 186.667,
        "duration": 0.833,
        "velocity": 1,
        "hand": "left"
      },
      {
        "midi": 57,
        "time": 186.667,
        "duration": 0.417,
        "velocity": 1,
        "hand": "left"
      },
      {
        "midi": 59,
        "time": 186.667,
        "duration": 0.833,
        "velocity": 1,
        "hand": "left"
      },
      {
        "midi": 64,
        "time": 186.667,
        "duration": 0.833,
        "velocity": 1,
        "hand": "right"
      },
      {
        "midi": 56,
        "time": 187.083,
        "duration": 0.417,
        "velocity": 1,
        "hand": "left"
      },
      {
        "midi": 49,
        "time": 187.5,
        "duration": 0.417,
        "velocity": 1,
        "hand": "left"
      },
      {
        "midi": 56,
        "time": 187.5,
        "duration": 1.667,
        "velocity": 1,
        "hand": "left"
      },
      {
        "midi": 64,
        "time": 187.5,
        "duration": 0.417,
        "velocity": 1,
        "hand": "right"
      },
      {
        "midi": 70,
        "time": 187.5,
        "duration": 0.417,
        "velocity": 1,
        "hand": "right"
      },
      {
        "midi": 48,
        "time": 187.917,
        "duration": 0.417,
        "velocity": 1,
        "hand": "left"
      },
      {
        "midi": 63,
        "time": 187.917,
        "duration": 0.417,
        "velocity": 1,
        "hand": "right"
      },
      {
        "midi": 72,
        "time": 187.917,
        "duration": 0.417,
        "velocity": 1,
        "hand": "right"
      },
      {
        "midi": 49,
        "time": 188.333,
        "duration": 0.417,
        "velocity": 1,
        "hand": "left"
      },
      {
        "midi": 64,
        "time": 188.333,
        "duration": 0.417,
        "velocity": 1,
        "hand": "right"
      },
      {
        "midi": 70,
        "time": 188.333,
        "duration": 0.417,
        "velocity": 1,
        "hand": "right"
      },
      {
        "midi": 48,
        "time": 188.75,
        "duration": 0.417,
        "velocity": 1,
        "hand": "left"
      },
      {
        "midi": 63,
        "time": 188.75,
        "duration": 0.417,
        "velocity": 1,
        "hand": "right"
      },
      {
        "midi": 72,
        "time": 188.75,
        "duration": 0.417,
        "velocity": 1,
        "hand": "right"
      },
      {
        "midi": 56,
        "time": 189.167,
        "duration": 0.833,
        "velocity": 1,
        "hand": "left"
      },
      {
        "midi": 61,
        "time": 189.167,
        "duration": 0.417,
        "velocity": 1,
        "hand": "right"
      },
      {
        "midi": 63,
        "time": 189.167,
        "duration": 0.833,
        "velocity": 1,
        "hand": "right"
      },
      {
        "midi": 68,
        "time": 189.167,
        "duration": 0.833,
        "velocity": 1,
        "hand": "right"
      },
      {
        "midi": 60,
        "time": 189.583,
        "duration": 0.417,
        "velocity": 1,
        "hand": "right"
      },
      {
        "midi": 53,
        "time": 190,
        "duration": 0.417,
        "velocity": 1,
        "hand": "left"
      },
      {
        "midi": 60,
        "time": 190,
        "duration": 1.667,
        "velocity": 1,
        "hand": "right"
      },
      {
        "midi": 68,
        "time": 190,
        "duration": 0.417,
        "velocity": 1,
        "hand": "right"
      },
      {
        "midi": 74,
        "time": 190,
        "duration": 0.417,
        "velocity": 1,
        "hand": "right"
      },
      {
        "midi": 52,
        "time": 190.417,
        "duration": 0.417,
        "velocity": 1,
        "hand": "left"
      },
      {
        "midi": 67,
        "time": 190.417,
        "duration": 0.417,
        "velocity": 1,
        "hand": "right"
      },
      {
        "midi": 76,
        "time": 190.417,
        "duration": 0.417,
        "velocity": 1,
        "hand": "right"
      },
      {
        "midi": 53,
        "time": 190.833,
        "duration": 0.417,
        "velocity": 1,
        "hand": "left"
      },
      {
        "midi": 68,
        "time": 190.833,
        "duration": 0.417,
        "velocity": 1,
        "hand": "right"
      },
      {
        "midi": 74,
        "time": 190.833,
        "duration": 0.417,
        "velocity": 1,
        "hand": "right"
      },
      {
        "midi": 52,
        "time": 191.25,
        "duration": 0.417,
        "velocity": 1,
        "hand": "left"
      },
      {
        "midi": 67,
        "time": 191.25,
        "duration": 0.417,
        "velocity": 1,
        "hand": "right"
      },
      {
        "midi": 76,
        "time": 191.25,
        "duration": 0.417,
        "velocity": 1,
        "hand": "right"
      },
      {
        "midi": 56,
        "time": 191.667,
        "duration": 0.417,
        "velocity": 1,
        "hand": "left"
      },
      {
        "midi": 60,
        "time": 191.667,
        "duration": 0.417,
        "velocity": 1,
        "hand": "right"
      },
      {
        "midi": 63,
        "time": 191.667,
        "duration": 0.417,
        "velocity": 1,
        "hand": "right"
      },
      {
        "midi": 66,
        "time": 191.667,
        "duration": 0.417,
        "velocity": 1,
        "hand": "right"
      },
      {
        "midi": 72,
        "time": 191.667,
        "duration": 0.833,
        "velocity": 1,
        "hand": "right"
      },
      {
        "midi": 48,
        "time": 192.083,
        "duration": 0.417,
        "velocity": 1,
        "hand": "left"
      },
      {
        "midi": 55,
        "time": 192.083,
        "duration": 0.417,
        "velocity": 1,
        "hand": "left"
      },
      {
        "midi": 64,
        "time": 192.083,
        "duration": 0.417,
        "velocity": 1,
        "hand": "right"
      },
      {
        "midi": 67,
        "time": 192.083,
        "duration": 0.417,
        "velocity": 1,
        "hand": "right"
      },
      {
        "midi": 53,
        "time": 192.5,
        "duration": 0.417,
        "velocity": 1,
        "hand": "left"
      },
      {
        "midi": 60,
        "time": 192.5,
        "duration": 1.667,
        "velocity": 1,
        "hand": "right"
      },
      {
        "midi": 68,
        "time": 192.5,
        "duration": 0.417,
        "velocity": 1,
        "hand": "right"
      },
      {
        "midi": 74,
        "time": 192.5,
        "duration": 0.208,
        "velocity": 1,
        "hand": "right"
      },
      {
        "midi": 77,
        "time": 192.708,
        "duration": 0.208,
        "velocity": 1,
        "hand": "right"
      },
      {
        "midi": 55,
        "time": 192.917,
        "duration": 0.417,
        "velocity": 1,
        "hand": "left"
      },
      {
        "midi": 67,
        "time": 192.917,
        "duration": 0.417,
        "velocity": 1,
        "hand": "right"
      },
      {
        "midi": 72,
        "time": 192.917,
        "duration": 0.417,
        "velocity": 1,
        "hand": "right"
      },
      {
        "midi": 76,
        "time": 192.917,
        "duration": 0.417,
        "velocity": 1,
        "hand": "right"
      },
      {
        "midi": 53,
        "time": 193.333,
        "duration": 0.417,
        "velocity": 1,
        "hand": "left"
      },
      {
        "midi": 68,
        "time": 193.333,
        "duration": 0.417,
        "velocity": 1,
        "hand": "right"
      },
      {
        "midi": 74,
        "time": 193.333,
        "duration": 0.208,
        "velocity": 1,
        "hand": "right"
      },
      {
        "midi": 77,
        "time": 193.542,
        "duration": 0.208,
        "velocity": 1,
        "hand": "right"
      },
      {
        "midi": 55,
        "time": 193.75,
        "duration": 0.417,
        "velocity": 1,
        "hand": "left"
      },
      {
        "midi": 67,
        "time": 193.75,
        "duration": 0.417,
        "velocity": 1,
        "hand": "right"
      },
      {
        "midi": 72,
        "time": 193.75,
        "duration": 0.417,
        "velocity": 1,
        "hand": "right"
      },
      {
        "midi": 76,
        "time": 193.75,
        "duration": 0.417,
        "velocity": 1,
        "hand": "right"
      },
      {
        "midi": 56,
        "time": 194.167,
        "duration": 0.417,
        "velocity": 1,
        "hand": "left"
      },
      {
        "midi": 60,
        "time": 194.167,
        "duration": 0.417,
        "velocity": 1,
        "hand": "right"
      },
      {
        "midi": 63,
        "time": 194.167,
        "duration": 0.417,
        "velocity": 1,
        "hand": "right"
      },
      {
        "midi": 66,
        "time": 194.167,
        "duration": 0.417,
        "velocity": 1,
        "hand": "right"
      },
      {
        "midi": 72,
        "time": 194.167,
        "duration": 0.833,
        "velocity": 1,
        "hand": "right"
      },
      {
        "midi": 48,
        "time": 194.583,
        "duration": 0.417,
        "velocity": 1,
        "hand": "left"
      },
      {
        "midi": 55,
        "time": 194.583,
        "duration": 0.417,
        "velocity": 1,
        "hand": "left"
      },
      {
        "midi": 64,
        "time": 194.583,
        "duration": 0.417,
        "velocity": 1,
        "hand": "right"
      },
      {
        "midi": 67,
        "time": 194.583,
        "duration": 0.417,
        "velocity": 1,
        "hand": "right"
      },
      {
        "midi": 53,
        "time": 195,
        "duration": 0.417,
        "velocity": 1,
        "hand": "left"
      },
      {
        "midi": 60,
        "time": 195,
        "duration": 1.667,
        "velocity": 1,
        "hand": "right"
      },
      {
        "midi": 68,
        "time": 195,
        "duration": 0.417,
        "velocity": 1,
        "hand": "right"
      },
      {
        "midi": 74,
        "time": 195,
        "duration": 0.208,
        "velocity": 1,
        "hand": "right"
      },
      {
        "midi": 77,
        "time": 195.208,
        "duration": 0.208,
        "velocity": 1,
        "hand": "right"
      },
      {
        "midi": 55,
        "time": 195.417,
        "duration": 0.417,
        "velocity": 1,
        "hand": "left"
      },
      {
        "midi": 67,
        "time": 195.417,
        "duration": 0.417,
        "velocity": 1,
        "hand": "right"
      },
      {
        "midi": 72,
        "time": 195.417,
        "duration": 0.417,
        "velocity": 1,
        "hand": "right"
      },
      {
        "midi": 76,
        "time": 195.417,
        "duration": 0.417,
        "velocity": 1,
        "hand": "right"
      },
      {
        "midi": 53,
        "time": 195.833,
        "duration": 0.417,
        "velocity": 1,
        "hand": "left"
      },
      {
        "midi": 68,
        "time": 195.833,
        "duration": 0.417,
        "velocity": 1,
        "hand": "right"
      },
      {
        "midi": 74,
        "time": 195.833,
        "duration": 0.208,
        "velocity": 1,
        "hand": "right"
      },
      {
        "midi": 77,
        "time": 196.042,
        "duration": 0.208,
        "velocity": 1,
        "hand": "right"
      },
      {
        "midi": 55,
        "time": 196.25,
        "duration": 0.417,
        "velocity": 1,
        "hand": "left"
      },
      {
        "midi": 67,
        "time": 196.25,
        "duration": 0.417,
        "velocity": 1,
        "hand": "right"
      },
      {
        "midi": 72,
        "time": 196.25,
        "duration": 0.417,
        "velocity": 1,
        "hand": "right"
      },
      {
        "midi": 76,
        "time": 196.25,
        "duration": 0.417,
        "velocity": 1,
        "hand": "right"
      },
      {
        "midi": 56,
        "time": 196.667,
        "duration": 0.417,
        "velocity": 1,
        "hand": "left"
      },
      {
        "midi": 60,
        "time": 196.667,
        "duration": 0.417,
        "velocity": 1,
        "hand": "right"
      },
      {
        "midi": 63,
        "time": 196.667,
        "duration": 0.417,
        "velocity": 1,
        "hand": "right"
      },
      {
        "midi": 66,
        "time": 196.667,
        "duration": 0.417,
        "velocity": 1,
        "hand": "right"
      },
      {
        "midi": 72,
        "time": 196.667,
        "duration": 0.833,
        "velocity": 1,
        "hand": "right"
      },
      {
        "midi": 48,
        "time": 197.083,
        "duration": 0.417,
        "velocity": 1,
        "hand": "left"
      },
      {
        "midi": 55,
        "time": 197.083,
        "duration": 0.417,
        "velocity": 1,
        "hand": "left"
      },
      {
        "midi": 64,
        "time": 197.083,
        "duration": 0.417,
        "velocity": 1,
        "hand": "right"
      },
      {
        "midi": 67,
        "time": 197.083,
        "duration": 0.417,
        "velocity": 1,
        "hand": "right"
      },
      {
        "midi": 53,
        "time": 197.5,
        "duration": 0.417,
        "velocity": 1,
        "hand": "left"
      },
      {
        "midi": 60,
        "time": 197.5,
        "duration": 0.417,
        "velocity": 1,
        "hand": "right"
      },
      {
        "midi": 68,
        "time": 197.5,
        "duration": 0.417,
        "velocity": 1,
        "hand": "right"
      },
      {
        "midi": 74,
        "time": 197.5,
        "duration": 0.417,
        "velocity": 1,
        "hand": "right"
      },
      {
        "midi": 48,
        "time": 197.917,
        "duration": 0.417,
        "velocity": 1,
        "hand": "left"
      },
      {
        "midi": 67,
        "time": 197.917,
        "duration": 0.417,
        "velocity": 1,
        "hand": "right"
      },
      {
        "midi": 72,
        "time": 197.917,
        "duration": 0.417,
        "velocity": 1,
        "hand": "right"
      },
      {
        "midi": 76,
        "time": 197.917,
        "duration": 0.417,
        "velocity": 1,
        "hand": "right"
      },
      {
        "midi": 57,
        "time": 198.333,
        "duration": 0.417,
        "velocity": 1,
        "hand": "left"
      },
      {
        "midi": 61,
        "time": 198.333,
        "duration": 0.417,
        "velocity": 1,
        "hand": "right"
      },
      {
        "midi": 70,
        "time": 198.333,
        "duration": 0.417,
        "velocity": 1,
        "hand": "right"
      },
      {
        "midi": 79,
        "time": 198.333,
        "duration": 0.417,
        "velocity": 1,
        "hand": "right"
      },
      {
        "midi": 62,
        "time": 198.75,
        "duration": 0.417,
        "velocity": 1,
        "hand": "right"
      },
      {
        "midi": 69,
        "time": 198.75,
        "duration": 0.417,
        "velocity": 1,
        "hand": "right"
      },
      {
        "midi": 78,
        "time": 198.75,
        "duration": 0.417,
        "velocity": 1,
        "hand": "right"
      },
      {
        "midi": 55,
        "time": 199.167,
        "duration": 0.417,
        "velocity": 1,
        "hand": "left"
      },
      {
        "midi": 59,
        "time": 199.167,
        "duration": 0.417,
        "velocity": 1,
        "hand": "left"
      },
      {
        "midi": 68,
        "time": 199.167,
        "duration": 0.417,
        "velocity": 1,
        "hand": "right"
      },
      {
        "midi": 77,
        "time": 199.167,
        "duration": 0.417,
        "velocity": 1,
        "hand": "right"
      },
      {
        "midi": 60,
        "time": 199.583,
        "duration": 0.417,
        "velocity": 1,
        "hand": "right"
      },
      {
        "midi": 67,
        "time": 199.583,
        "duration": 0.417,
        "velocity": 1,
        "hand": "right"
      },
      {
        "midi": 76,
        "time": 199.583,
        "duration": 0.417,
        "velocity": 1,
        "hand": "right"
      },
      {
        "midi": 54,
        "time": 200,
        "duration": 0.417,
        "velocity": 1,
        "hand": "left"
      },
      {
        "midi": 58,
        "time": 200,
        "duration": 0.417,
        "velocity": 1,
        "hand": "left"
      },
      {
        "midi": 67,
        "time": 200,
        "duration": 0.417,
        "velocity": 1,
        "hand": "right"
      },
      {
        "midi": 76,
        "time": 200,
        "duration": 0.417,
        "velocity": 1,
        "hand": "right"
      },
      {
        "midi": 59,
        "time": 200.417,
        "duration": 0.417,
        "velocity": 1,
        "hand": "left"
      },
      {
        "midi": 66,
        "time": 200.417,
        "duration": 0.417,
        "velocity": 1,
        "hand": "right"
      },
      {
        "midi": 75,
        "time": 200.417,
        "duration": 0.417,
        "velocity": 1,
        "hand": "right"
      },
      {
        "midi": 55,
        "time": 200.833,
        "duration": 0.417,
        "velocity": 1,
        "hand": "left"
      },
      {
        "midi": 64,
        "time": 200.833,
        "duration": 0.417,
        "velocity": 1,
        "hand": "right"
      },
      {
        "midi": 70,
        "time": 200.833,
        "duration": 0.208,
        "velocity": 1,
        "hand": "right"
      },
      {
        "midi": 73,
        "time": 201.042,
        "duration": 0.208,
        "velocity": 1,
        "hand": "right"
      },
      {
        "midi": 47,
        "time": 201.25,
        "duration": 0.417,
        "velocity": 1,
        "hand": "left"
      },
      {
        "midi": 54,
        "time": 201.25,
        "duration": 0.417,
        "velocity": 1,
        "hand": "left"
      },
      {
        "midi": 63,
        "time": 201.25,
        "duration": 0.417,
        "velocity": 1,
        "hand": "right"
      },
      {
        "midi": 66,
        "time": 201.25,
        "duration": 0.417,
        "velocity": 1,
        "hand": "right"
      },
      {
        "midi": 71,
        "time": 201.25,
        "duration": 0.417,
        "velocity": 1,
        "hand": "right"
      },
      {
        "midi": 54,
        "time": 201.667,
        "duration": 0.417,
        "velocity": 1,
        "hand": "left"
      },
      {
        "midi": 58,
        "time": 201.667,
        "duration": 0.417,
        "velocity": 1,
        "hand": "left"
      },
      {
        "midi": 67,
        "time": 201.667,
        "duration": 0.417,
        "velocity": 1,
        "hand": "right"
      },
      {
        "midi": 76,
        "time": 201.667,
        "duration": 0.417,
        "velocity": 1,
        "hand": "right"
      },
      {
        "midi": 59,
        "time": 202.083,
        "duration": 0.417,
        "velocity": 1,
        "hand": "left"
      },
      {
        "midi": 66,
        "time": 202.083,
        "duration": 0.417,
        "velocity": 1,
        "hand": "right"
      },
      {
        "midi": 75,
        "time": 202.083,
        "duration": 0.417,
        "velocity": 1,
        "hand": "right"
      },
      {
        "midi": 55,
        "time": 202.5,
        "duration": 0.417,
        "velocity": 1,
        "hand": "left"
      },
      {
        "midi": 64,
        "time": 202.5,
        "duration": 0.417,
        "velocity": 1,
        "hand": "right"
      },
      {
        "midi": 70,
        "time": 202.5,
        "duration": 0.208,
        "velocity": 1,
        "hand": "right"
      },
      {
        "midi": 73,
        "time": 202.708,
        "duration": 0.208,
        "velocity": 1,
        "hand": "right"
      },
      {
        "midi": 47,
        "time": 202.917,
        "duration": 0.417,
        "velocity": 1,
        "hand": "left"
      },
      {
        "midi": 54,
        "time": 202.917,
        "duration": 0.417,
        "velocity": 1,
        "hand": "left"
      },
      {
        "midi": 63,
        "time": 202.917,
        "duration": 0.417,
        "velocity": 1,
        "hand": "right"
      },
      {
        "midi": 66,
        "time": 202.917,
        "duration": 0.417,
        "velocity": 1,
        "hand": "right"
      },
      {
        "midi": 71,
        "time": 202.917,
        "duration": 0.417,
        "velocity": 1,
        "hand": "right"
      },
      {
        "midi": 55,
        "time": 203.333,
        "duration": 0.417,
        "velocity": 1,
        "hand": "left"
      },
      {
        "midi": 64,
        "time": 203.333,
        "duration": 0.417,
        "velocity": 1,
        "hand": "right"
      },
      {
        "midi": 70,
        "time": 203.333,
        "duration": 0.208,
        "velocity": 1,
        "hand": "right"
      },
      {
        "midi": 73,
        "time": 203.542,
        "duration": 0.208,
        "velocity": 1,
        "hand": "right"
      },
      {
        "midi": 47,
        "time": 203.75,
        "duration": 0.417,
        "velocity": 1,
        "hand": "left"
      },
      {
        "midi": 54,
        "time": 203.75,
        "duration": 0.417,
        "velocity": 1,
        "hand": "left"
      },
      {
        "midi": 63,
        "time": 203.75,
        "duration": 0.417,
        "velocity": 1,
        "hand": "right"
      },
      {
        "midi": 66,
        "time": 203.75,
        "duration": 0.417,
        "velocity": 1,
        "hand": "right"
      },
      {
        "midi": 71,
        "time": 203.75,
        "duration": 0.417,
        "velocity": 1,
        "hand": "right"
      },
      {
        "midi": 52,
        "time": 204.167,
        "duration": 0.417,
        "velocity": 1,
        "hand": "left"
      },
      {
        "midi": 58,
        "time": 204.167,
        "duration": 0.417,
        "velocity": 1,
        "hand": "left"
      },
      {
        "midi": 61,
        "time": 204.167,
        "duration": 0.417,
        "velocity": 1,
        "hand": "right"
      },
      {
        "midi": 66,
        "time": 204.167,
        "duration": 0.833,
        "velocity": 1,
        "hand": "right"
      },
      {
        "midi": 51,
        "time": 204.583,
        "duration": 0.417,
        "velocity": 1,
        "hand": "left"
      },
      {
        "midi": 59,
        "time": 204.583,
        "duration": 0.417,
        "velocity": 1,
        "hand": "left"
      },
      {
        "midi": 66,
        "time": 205,
        "duration": 0.417,
        "velocity": 1,
        "hand": "right"
      },
      {
        "midi": 68,
        "time": 205.417,
        "duration": 0.208,
        "velocity": 1,
        "hand": "right"
      },
      {
        "midi": 69,
        "time": 205.625,
        "duration": 0.208,
        "velocity": 1,
        "hand": "right"
      },
      {
        "midi": 50,
        "time": 205.833,
        "duration": 0.833,
        "velocity": 1,
        "hand": "left"
      },
      {
        "midi": 52,
        "time": 205.833,
        "duration": 1.667,
        "velocity": 1,
        "hand": "left"
      },
      {
        "midi": 59,
        "time": 205.833,
        "duration": 0.833,
        "velocity": 1,
        "hand": "left"
      },
      {
        "midi": 64,
        "time": 205.833,
        "duration": 0.833,
        "velocity": 1,
        "hand": "right"
      },
      {
        "midi": 68,
        "time": 205.833,
        "duration": 0.417,
        "velocity": 1,
        "hand": "right"
      },
      {
        "midi": 71,
        "time": 206.25,
        "duration": 0.417,
        "velocity": 1,
        "hand": "right"
      },
      {
        "midi": 49,
        "time": 206.667,
        "duration": 0.833,
        "velocity": 1,
        "hand": "left"
      },
      {
        "midi": 64,
        "time": 206.667,
        "duration": 1.667,
        "velocity": 1,
        "hand": "right"
      },
      {
        "midi": 69,
        "time": 207.083,
        "duration": 0.417,
        "velocity": 1,
        "hand": "right"
      },
      {
        "midi": 47,
        "time": 207.5,
        "duration": 0.417,
        "velocity": 1,
        "hand": "left"
      },
      {
        "midi": 52,
        "time": 207.5,
        "duration": 0.833,
        "velocity": 1,
        "hand": "left"
      },
      {
        "midi": 68,
        "time": 207.5,
        "duration": 0.417,
        "velocity": 1,
        "hand": "right"
      },
      {
        "midi": 71,
        "time": 207.5,
        "duration": 0.417,
        "velocity": 1,
        "hand": "right"
      },
      {
        "midi": 45,
        "time": 207.917,
        "duration": 0.417,
        "velocity": 1,
        "hand": "left"
      },
      {
        "midi": 69,
        "time": 207.917,
        "duration": 0.417,
        "velocity": 1,
        "hand": "right"
      },
      {
        "midi": 73,
        "time": 207.917,
        "duration": 0.417,
        "velocity": 1,
        "hand": "right"
      },
      {
        "midi": 44,
        "time": 208.333,
        "duration": 0.833,
        "velocity": 1,
        "hand": "left"
      },
      {
        "midi": 52,
        "time": 208.333,
        "duration": 1.667,
        "velocity": 1,
        "hand": "left"
      },
      {
        "midi": 64,
        "time": 208.333,
        "duration": 1.667,
        "velocity": 1,
        "hand": "right"
      },
      {
        "midi": 71,
        "time": 208.333,
        "duration": 0.833,
        "velocity": 1,
        "hand": "right"
      },
      {
        "midi": 76,
        "time": 208.333,
        "duration": 0.833,
        "velocity": 1,
        "hand": "right"
      },
      {
        "midi": 45,
        "time": 209.167,
        "duration": 0.833,
        "velocity": 1,
        "hand": "left"
      },
      {
        "midi": 69,
        "time": 209.167,
        "duration": 0.833,
        "velocity": 1,
        "hand": "right"
      },
      {
        "midi": 73,
        "time": 209.167,
        "duration": 0.833,
        "velocity": 1,
        "hand": "right"
      },
      {
        "midi": 73,
        "time": 210,
        "duration": 0.417,
        "velocity": 1,
        "hand": "right"
      },
      {
        "midi": 74,
        "time": 210.417,
        "duration": 0.208,
        "velocity": 1,
        "hand": "right"
      },
      {
        "midi": 76,
        "time": 210.625,
        "duration": 0.208,
        "velocity": 1,
        "hand": "right"
      },
      {
        "midi": 46,
        "time": 210.833,
        "duration": 0.833,
        "velocity": 1,
        "hand": "left"
      },
      {
        "midi": 54,
        "time": 210.833,
        "duration": 0.833,
        "velocity": 1,
        "hand": "left"
      },
      {
        "midi": 61,
        "time": 210.833,
        "duration": 0.833,
        "velocity": 1,
        "hand": "right"
      },
      {
        "midi": 66,
        "time": 210.833,
        "duration": 0.833,
        "velocity": 1,
        "hand": "right"
      },
      {
        "midi": 73,
        "time": 210.833,
        "duration": 0.417,
        "velocity": 1,
        "hand": "right"
      },
      {
        "midi": 78,
        "time": 210.833,
        "duration": 0.417,
        "velocity": 1,
        "hand": "right"
      },
      {
        "midi": 73,
        "time": 211.25,
        "duration": 0.417,
        "velocity": 1,
        "hand": "right"
      },
      {
        "midi": 47,
        "time": 211.667,
        "duration": 0.833,
        "velocity": 1,
        "hand": "left"
      },
      {
        "midi": 54,
        "time": 211.667,
        "duration": 0.833,
        "velocity": 1,
        "hand": "left"
      },
      {
        "midi": 59,
        "time": 211.667,
        "duration": 0.833,
        "velocity": 1,
        "hand": "left"
      },
      {
        "midi": 66,
        "time": 211.667,
        "duration": 0.833,
        "velocity": 1,
        "hand": "right"
      },
      {
        "midi": 71,
        "time": 211.667,
        "duration": 0.833,
        "velocity": 1,
        "hand": "right"
      },
      {
        "midi": 74,
        "time": 211.667,
        "duration": 0.833,
        "velocity": 1,
        "hand": "right"
      },
      {
        "midi": 66,
        "time": 212.5,
        "duration": 0.417,
        "velocity": 1,
        "hand": "right"
      },
      {
        "midi": 68,
        "time": 212.917,
        "duration": 0.208,
        "velocity": 1,
        "hand": "right"
      },
      {
        "midi": 69,
        "time": 213.125,
        "duration": 0.208,
        "velocity": 1,
        "hand": "right"
      },
      {
        "midi": 47,
        "time": 213.333,
        "duration": 0.833,
        "velocity": 1,
        "hand": "left"
      },
      {
        "midi": 57,
        "time": 213.333,
        "duration": 0.833,
        "velocity": 1,
        "hand": "left"
      },
      {
        "midi": 63,
        "time": 213.333,
        "duration": 0.833,
        "velocity": 1,
        "hand": "right"
      },
      {
        "midi": 73,
        "time": 213.333,
        "duration": 0.417,
        "velocity": 1,
        "hand": "right"
      },
      {
        "midi": 70,
        "time": 213.75,
        "duration": 0.833,
        "velocity": 1,
        "hand": "right"
      },
      {
        "midi": 52,
        "time": 214.167,
        "duration": 0.833,
        "velocity": 1,
        "hand": "left"
      },
      {
        "midi": 56,
        "time": 214.167,
        "duration": 0.833,
        "velocity": 1,
        "hand": "left"
      },
      {
        "midi": 62,
        "time": 214.167,
        "duration": 0.833,
        "velocity": 1,
        "hand": "right"
      },
      {
        "midi": 71,
        "time": 214.583,
        "duration": 0.417,
        "velocity": 1,
        "hand": "right"
      },
      {
        "midi": 66,
        "time": 215,
        "duration": 0.417,
        "velocity": 1,
        "hand": "right"
      },
      {
        "midi": 68,
        "time": 215.417,
        "duration": 0.208,
        "velocity": 1,
        "hand": "right"
      },
      {
        "midi": 69,
        "time": 215.625,
        "duration": 0.208,
        "velocity": 1,
        "hand": "right"
      },
      {
        "midi": 50,
        "time": 215.833,
        "duration": 0.833,
        "velocity": 1,
        "hand": "left"
      },
      {
        "midi": 52,
        "time": 215.833,
        "duration": 1.667,
        "velocity": 1,
        "hand": "left"
      },
      {
        "midi": 59,
        "time": 215.833,
        "duration": 0.833,
        "velocity": 1,
        "hand": "left"
      },
      {
        "midi": 64,
        "time": 215.833,
        "duration": 0.833,
        "velocity": 1,
        "hand": "right"
      },
      {
        "midi": 68,
        "time": 215.833,
        "duration": 0.417,
        "velocity": 1,
        "hand": "right"
      },
      {
        "midi": 71,
        "time": 216.25,
        "duration": 0.417,
        "velocity": 1,
        "hand": "right"
      },
      {
        "midi": 49,
        "time": 216.667,
        "duration": 0.833,
        "velocity": 1,
        "hand": "left"
      },
      {
        "midi": 64,
        "time": 216.667,
        "duration": 1.667,
        "velocity": 1,
        "hand": "right"
      },
      {
        "midi": 69,
        "time": 217.083,
        "duration": 0.417,
        "velocity": 1,
        "hand": "right"
      },
      {
        "midi": 47,
        "time": 217.5,
        "duration": 0.417,
        "velocity": 1,
        "hand": "left"
      },
      {
        "midi": 52,
        "time": 217.5,
        "duration": 0.833,
        "velocity": 1,
        "hand": "left"
      },
      {
        "midi": 68,
        "time": 217.5,
        "duration": 0.417,
        "velocity": 1,
        "hand": "right"
      },
      {
        "midi": 71,
        "time": 217.5,
        "duration": 0.417,
        "velocity": 1,
        "hand": "right"
      },
      {
        "midi": 45,
        "time": 217.917,
        "duration": 0.417,
        "velocity": 1,
        "hand": "left"
      },
      {
        "midi": 69,
        "time": 217.917,
        "duration": 0.417,
        "velocity": 1,
        "hand": "right"
      },
      {
        "midi": 73,
        "time": 217.917,
        "duration": 0.417,
        "velocity": 1,
        "hand": "right"
      },
      {
        "midi": 44,
        "time": 218.333,
        "duration": 0.833,
        "velocity": 1,
        "hand": "left"
      },
      {
        "midi": 52,
        "time": 218.333,
        "duration": 1.667,
        "velocity": 1,
        "hand": "left"
      },
      {
        "midi": 64,
        "time": 218.333,
        "duration": 1.667,
        "velocity": 1,
        "hand": "right"
      },
      {
        "midi": 71,
        "time": 218.333,
        "duration": 0.833,
        "velocity": 1,
        "hand": "right"
      },
      {
        "midi": 76,
        "time": 218.333,
        "duration": 0.833,
        "velocity": 1,
        "hand": "right"
      },
      {
        "midi": 45,
        "time": 219.167,
        "duration": 0.833,
        "velocity": 1,
        "hand": "left"
      },
      {
        "midi": 69,
        "time": 219.167,
        "duration": 0.833,
        "velocity": 1,
        "hand": "right"
      },
      {
        "midi": 73,
        "time": 219.167,
        "duration": 0.833,
        "velocity": 1,
        "hand": "right"
      },
      {
        "midi": 73,
        "time": 220,
        "duration": 0.417,
        "velocity": 1,
        "hand": "right"
      },
      {
        "midi": 74,
        "time": 220.417,
        "duration": 0.208,
        "velocity": 1,
        "hand": "right"
      },
      {
        "midi": 76,
        "time": 220.625,
        "duration": 0.208,
        "velocity": 1,
        "hand": "right"
      },
      {
        "midi": 46,
        "time": 220.833,
        "duration": 0.833,
        "velocity": 1,
        "hand": "left"
      },
      {
        "midi": 54,
        "time": 220.833,
        "duration": 0.833,
        "velocity": 1,
        "hand": "left"
      },
      {
        "midi": 61,
        "time": 220.833,
        "duration": 0.833,
        "velocity": 1,
        "hand": "right"
      },
      {
        "midi": 66,
        "time": 220.833,
        "duration": 0.833,
        "velocity": 1,
        "hand": "right"
      },
      {
        "midi": 73,
        "time": 220.833,
        "duration": 0.833,
        "velocity": 1,
        "hand": "right"
      },
      {
        "midi": 78,
        "time": 220.833,
        "duration": 0.417,
        "velocity": 1,
        "hand": "right"
      },
      {
        "midi": 47,
        "time": 221.667,
        "duration": 0.833,
        "velocity": 1,
        "hand": "left"
      },
      {
        "midi": 54,
        "time": 221.667,
        "duration": 0.833,
        "velocity": 1,
        "hand": "left"
      },
      {
        "midi": 59,
        "time": 221.667,
        "duration": 0.833,
        "velocity": 1,
        "hand": "left"
      },
      {
        "midi": 66,
        "time": 221.667,
        "duration": 0.833,
        "velocity": 1,
        "hand": "right"
      },
      {
        "midi": 71,
        "time": 221.667,
        "duration": 0.833,
        "velocity": 1,
        "hand": "right"
      },
      {
        "midi": 74,
        "time": 221.667,
        "duration": 0.833,
        "velocity": 1,
        "hand": "right"
      },
      {
        "midi": 74,
        "time": 222.5,
        "duration": 0.417,
        "velocity": 1,
        "hand": "right"
      },
      {
        "midi": 76,
        "time": 222.917,
        "duration": 0.208,
        "velocity": 1,
        "hand": "right"
      },
      {
        "midi": 78,
        "time": 223.125,
        "duration": 0.208,
        "velocity": 1,
        "hand": "right"
      },
      {
        "midi": 48,
        "time": 223.333,
        "duration": 0.833,
        "velocity": 1,
        "hand": "left"
      },
      {
        "midi": 56,
        "time": 223.333,
        "duration": 0.833,
        "velocity": 1,
        "hand": "left"
      },
      {
        "midi": 63,
        "time": 223.333,
        "duration": 0.833,
        "velocity": 1,
        "hand": "right"
      },
      {
        "midi": 68,
        "time": 223.333,
        "duration": 0.833,
        "velocity": 1,
        "hand": "right"
      },
      {
        "midi": 75,
        "time": 223.333,
        "duration": 0.833,
        "velocity": 1,
        "hand": "right"
      },
      {
        "midi": 80,
        "time": 223.333,
        "duration": 0.417,
        "velocity": 1,
        "hand": "right"
      },
      {
        "midi": 49,
        "time": 224.167,
        "duration": 0.833,
        "velocity": 1,
        "hand": "left"
      },
      {
        "midi": 56,
        "time": 224.167,
        "duration": 0.833,
        "velocity": 1,
        "hand": "left"
      },
      {
        "midi": 61,
        "time": 224.167,
        "duration": 0.833,
        "velocity": 1,
        "hand": "right"
      },
      {
        "midi": 68,
        "time": 224.167,
        "duration": 0.833,
        "velocity": 1,
        "hand": "right"
      },
      {
        "midi": 73,
        "time": 224.167,
        "duration": 0.833,
        "velocity": 1,
        "hand": "right"
      },
      {
        "midi": 76,
        "time": 224.167,
        "duration": 0.833,
        "velocity": 1,
        "hand": "right"
      },
      {
        "midi": 76,
        "time": 225,
        "duration": 0.417,
        "velocity": 1,
        "hand": "right"
      },
      {
        "midi": 78,
        "time": 225.417,
        "duration": 0.208,
        "velocity": 1,
        "hand": "right"
      },
      {
        "midi": 80,
        "time": 225.625,
        "duration": 0.208,
        "velocity": 1,
        "hand": "right"
      },
      {
        "midi": 81,
        "time": 225.833,
        "duration": 0.417,
        "velocity": 1,
        "hand": "right"
      },
      {
        "midi": 80,
        "time": 226.25,
        "duration": 0.417,
        "velocity": 1,
        "hand": "right"
      },
      {
        "midi": 78,
        "time": 226.667,
        "duration": 0.417,
        "velocity": 1,
        "hand": "right"
      },
      {
        "midi": 76,
        "time": 227.083,
        "duration": 0.417,
        "velocity": 1,
        "hand": "right"
      },
      {
        "midi": 54,
        "time": 227.5,
        "duration": 1.667,
        "velocity": 1,
        "hand": "left"
      },
      {
        "midi": 57,
        "time": 227.5,
        "duration": 0.417,
        "velocity": 1,
        "hand": "left"
      },
      {
        "midi": 74,
        "time": 227.5,
        "duration": 0.417,
        "velocity": 1,
        "hand": "right"
      },
      {
        "midi": 59,
        "time": 227.917,
        "duration": 0.208,
        "velocity": 1,
        "hand": "left"
      },
      {
        "midi": 69,
        "time": 227.917,
        "duration": 0.833,
        "velocity": 1,
        "hand": "right"
      },
      {
        "midi": 61,
        "time": 228.125,
        "duration": 0.208,
        "velocity": 1,
        "hand": "right"
      },
      {
        "midi": 62,
        "time": 228.333,
        "duration": 0.417,
        "velocity": 1,
        "hand": "right"
      },
      {
        "midi": 61,
        "time": 228.75,
        "duration": 0.417,
        "velocity": 1,
        "hand": "right"
      },
      {
        "midi": 81,
        "time": 228.75,
        "duration": 0.833,
        "velocity": 1,
        "hand": "right"
      },
      {
        "midi": 53,
        "time": 229.167,
        "duration": 0.833,
        "velocity": 1,
        "hand": "left"
      },
      {
        "midi": 59,
        "time": 229.167,
        "duration": 0.417,
        "velocity": 1,
        "hand": "left"
      },
      {
        "midi": 57,
        "time": 229.583,
        "duration": 0.833,
        "velocity": 1,
        "hand": "left"
      },
      {
        "midi": 63,
        "time": 229.583,
        "duration": 0.417,
        "velocity": 1,
        "hand": "right"
      },
      {
        "midi": 72,
        "time": 229.583,
        "duration": 0.417,
        "velocity": 1,
        "hand": "right"
      },
      {
        "midi": 75,
        "time": 229.583,
        "duration": 0.417,
        "velocity": 1,
        "hand": "right"
      },
      {
        "midi": 52,
        "time": 230,
        "duration": 0.417,
        "velocity": 1,
        "hand": "left"
      },
      {
        "midi": 64,
        "time": 230,
        "duration": 0.417,
        "velocity": 1,
        "hand": "right"
      },
      {
        "midi": 73,
        "time": 230,
        "duration": 0.417,
        "velocity": 1,
        "hand": "right"
      },
      {
        "midi": 76,
        "time": 230,
        "duration": 0.417,
        "velocity": 1,
        "hand": "right"
      },
      {
        "midi": 66,
        "time": 230.417,
        "duration": 0.208,
        "velocity": 1,
        "hand": "right"
      },
      {
        "midi": 68,
        "time": 230.625,
        "duration": 0.208,
        "velocity": 1,
        "hand": "right"
      },
      {
        "midi": 69,
        "time": 230.833,
        "duration": 0.417,
        "velocity": 1,
        "hand": "right"
      },
      {
        "midi": 57,
        "time": 231.25,
        "duration": 0.417,
        "velocity": 1,
        "hand": "left"
      },
      {
        "midi": 59,
        "time": 231.25,
        "duration": 1.25,
        "velocity": 1,
        "hand": "left"
      },
      {
        "midi": 62,
        "time": 231.25,
        "duration": 1.25,
        "velocity": 1,
        "hand": "right"
      },
      {
        "midi": 64,
        "time": 231.25,
        "duration": 1.667,
        "velocity": 1,
        "hand": "right"
      },
      {
        "midi": 52,
        "time": 231.667,
        "duration": 0.833,
        "velocity": 1,
        "hand": "left"
      },
      {
        "midi": 55,
        "time": 231.667,
        "duration": 0.417,
        "velocity": 1,
        "hand": "left"
      },
      {
        "midi": 56,
        "time": 232.083,
        "duration": 0.417,
        "velocity": 1,
        "hand": "left"
      },
      {
        "midi": 40,
        "time": 232.5,
        "duration": 0.417,
        "velocity": 1,
        "hand": "left"
      },
      {
        "midi": 57,
        "time": 232.5,
        "duration": 0.417,
        "velocity": 1,
        "hand": "left"
      },
      {
        "midi": 61,
        "time": 232.5,
        "duration": 0.417,
        "velocity": 1,
        "hand": "right"
      },
      {
        "midi": 66,
        "time": 232.917,
        "duration": 0.208,
        "velocity": 1,
        "hand": "right"
      },
      {
        "midi": 68,
        "time": 233.125,
        "duration": 0.208,
        "velocity": 1,
        "hand": "right"
      },
      {
        "midi": 69,
        "time": 233.333,
        "duration": 0.417,
        "velocity": 1,
        "hand": "right"
      },
      {
        "midi": 57,
        "time": 233.75,
        "duration": 0.417,
        "velocity": 1,
        "hand": "left"
      },
      {
        "midi": 59,
        "time": 233.75,
        "duration": 1.25,
        "velocity": 1,
        "hand": "left"
      },
      {
        "midi": 62,
        "time": 233.75,
        "duration": 1.25,
        "velocity": 1,
        "hand": "right"
      },
      {
        "midi": 64,
        "time": 233.75,
        "duration": 1.667,
        "velocity": 1,
        "hand": "right"
      },
      {
        "midi": 52,
        "time": 234.167,
        "duration": 0.833,
        "velocity": 1,
        "hand": "left"
      },
      {
        "midi": 55,
        "time": 234.167,
        "duration": 0.417,
        "velocity": 1,
        "hand": "left"
      },
      {
        "midi": 56,
        "time": 234.583,
        "duration": 0.417,
        "velocity": 1,
        "hand": "left"
      },
      {
        "midi": 40,
        "time": 235,
        "duration": 0.417,
        "velocity": 1,
        "hand": "left"
      },
      {
        "midi": 57,
        "time": 235,
        "duration": 0.417,
        "velocity": 1,
        "hand": "left"
      },
      {
        "midi": 61,
        "time": 235,
        "duration": 0.417,
        "velocity": 1,
        "hand": "right"
      },
      {
        "midi": 66,
        "time": 235.417,
        "duration": 0.208,
        "velocity": 1,
        "hand": "right"
      },
      {
        "midi": 68,
        "time": 235.625,
        "duration": 0.208,
        "velocity": 1,
        "hand": "right"
      },
      {
        "midi": 69,
        "time": 235.833,
        "duration": 0.833,
        "velocity": 1,
        "hand": "right"
      },
      {
        "midi": 54,
        "time": 236.25,
        "duration": 0.208,
        "velocity": 1,
        "hand": "left"
      },
      {
        "midi": 57,
        "time": 236.25,
        "duration": 0.417,
        "velocity": 1,
        "hand": "left"
      },
      {
        "midi": 61,
        "time": 236.25,
        "duration": 0.417,
        "velocity": 1,
        "hand": "right"
      },
      {
        "midi": 53,
        "time": 236.458,
        "duration": 0.208,
        "velocity": 1,
        "hand": "left"
      },
      {
        "midi": 52,
        "time": 236.667,
        "duration": 0.417,
        "velocity": 1,
        "hand": "left"
      },
      {
        "midi": 57,
        "time": 236.667,
        "duration": 0.417,
        "velocity": 1,
        "hand": "left"
      },
      {
        "midi": 61,
        "time": 236.667,
        "duration": 0.417,
        "velocity": 1,
        "hand": "right"
      },
      {
        "midi": 42,
        "time": 237.083,
        "duration": 0.208,
        "velocity": 1,
        "hand": "left"
      },
      {
        "midi": 51,
        "time": 237.083,
        "duration": 0.833,
        "velocity": 1,
        "hand": "left"
      },
      {
        "midi": 57,
        "time": 237.083,
        "duration": 0.833,
        "velocity": 1,
        "hand": "left"
      },
      {
        "midi": 60,
        "time": 237.083,
        "duration": 0.833,
        "velocity": 1,
        "hand": "right"
      },
      {
        "midi": 41,
        "time": 237.292,
        "duration": 0.208,
        "velocity": 1,
        "hand": "left"
      },
      {
        "midi": 40,
        "time": 237.5,
        "duration": 1.667,
        "velocity": 1,
        "hand": "left"
      },
      {
        "midi": 52,
        "time": 237.917,
        "duration": 0.417,
        "velocity": 1,
        "hand": "left"
      },
      {
        "midi": 57,
        "time": 237.917,
        "duration": 0.417,
        "velocity": 1,
        "hand": "left"
      },
      {
        "midi": 61,
        "time": 237.917,
        "duration": 0.417,
        "velocity": 1,
        "hand": "right"
      },
      {
        "midi": 54,
        "time": 238.333,
        "duration": 1.25,
        "velocity": 1,
        "hand": "left"
      },
      {
        "midi": 56,
        "time": 238.333,
        "duration": 1.25,
        "velocity": 1,
        "hand": "left"
      },
      {
        "midi": 62,
        "time": 238.333,
        "duration": 1.25,
        "velocity": 1,
        "hand": "right"
      },
      {
        "midi": 52,
        "time": 239.167,
        "duration": 0.833,
        "velocity": 1,
        "hand": "left"
      },
      {
        "midi": 50,
        "time": 239.583,
        "duration": 0.417,
        "velocity": 1,
        "hand": "left"
      },
      {
        "midi": 56,
        "time": 239.583,
        "duration": 0.417,
        "velocity": 1,
        "hand": "left"
      },
      {
        "midi": 33,
        "time": 240,
        "duration": 0.208,
        "velocity": 1,
        "hand": "left"
      },
      {
        "midi": 40,
        "time": 240.208,
        "duration": 0.208,
        "velocity": 1,
        "hand": "left"
      },
      {
        "midi": 45,
        "time": 240.208,
        "duration": 0.208,
        "velocity": 1,
        "hand": "left"
      },
      {
        "midi": 49,
        "time": 240.417,
        "duration": 0.208,
        "velocity": 1,
        "hand": "left"
      },
      {
        "midi": 52,
        "time": 240.625,
        "duration": 0.208,
        "velocity": 1,
        "hand": "left"
      },
      {
        "midi": 57,
        "time": 240.625,
        "duration": 0.208,
        "velocity": 1,
        "hand": "left"
      },
      {
        "midi": 51,
        "time": 240.833,
        "duration": 0.208,
        "velocity": 1,
        "hand": "left"
      },
      {
        "midi": 52,
        "time": 241.042,
        "duration": 0.208,
        "velocity": 1,
        "hand": "left"
      },
      {
        "midi": 57,
        "time": 241.042,
        "duration": 0.208,
        "velocity": 1,
        "hand": "left"
      },
      {
        "midi": 60,
        "time": 241.25,
        "duration": 0.208,
        "velocity": 1,
        "hand": "right"
      },
      {
        "midi": 61,
        "time": 241.458,
        "duration": 0.208,
        "velocity": 1,
        "hand": "right"
      },
      {
        "midi": 64,
        "time": 241.458,
        "duration": 0.208,
        "velocity": 1,
        "hand": "right"
      },
      {
        "midi": 69,
        "time": 241.667,
        "duration": 1.667,
        "velocity": 1,
        "hand": "right"
      },
      {
        "midi": 48,
        "time": 242.5,
        "duration": 2.5,
        "velocity": 1,
        "hand": "left"
      },
      {
        "midi": 53,
        "time": 242.5,
        "duration": 2.5,
        "velocity": 1,
        "hand": "left"
      },
      {
        "midi": 57,
        "time": 242.5,
        "duration": 2.5,
        "velocity": 1,
        "hand": "left"
      },
      {
        "midi": 67,
        "time": 243.333,
        "duration": 0.417,
        "velocity": 1,
        "hand": "right"
      },
      {
        "midi": 65,
        "time": 243.75,
        "duration": 0.417,
        "velocity": 1,
        "hand": "right"
      },
      {
        "midi": 64,
        "time": 244.167,
        "duration": 0.417,
        "velocity": 1,
        "hand": "right"
      },
      {
        "midi": 63,
        "time": 244.583,
        "duration": 0.417,
        "velocity": 1,
        "hand": "right"
      },
      {
        "midi": 45,
        "time": 245,
        "duration": 0.208,
        "velocity": 1,
        "hand": "left"
      },
      {
        "midi": 52,
        "time": 245.208,
        "duration": 0.208,
        "velocity": 1,
        "hand": "left"
      },
      {
        "midi": 57,
        "time": 245.208,
        "duration": 0.208,
        "velocity": 1,
        "hand": "left"
      },
      {
        "midi": 63,
        "time": 245.417,
        "duration": 0.208,
        "velocity": 1,
        "hand": "right"
      },
      {
        "midi": 64,
        "time": 245.625,
        "duration": 0.208,
        "velocity": 1,
        "hand": "right"
      },
      {
        "midi": 69,
        "time": 245.625,
        "duration": 0.208,
        "velocity": 1,
        "hand": "right"
      },
      {
        "midi": 63,
        "time": 245.833,
        "duration": 0.208,
        "velocity": 1,
        "hand": "right"
      },
      {
        "midi": 64,
        "time": 246.042,
        "duration": 0.208,
        "velocity": 1,
        "hand": "right"
      },
      {
        "midi": 69,
        "time": 246.042,
        "duration": 0.208,
        "velocity": 1,
        "hand": "right"
      },
      {
        "midi": 72,
        "time": 246.25,
        "duration": 0.208,
        "velocity": 1,
        "hand": "right"
      },
      {
        "midi": 73,
        "time": 246.458,
        "duration": 0.208,
        "velocity": 1,
        "hand": "right"
      },
      {
        "midi": 76,
        "time": 246.458,
        "duration": 0.208,
        "velocity": 1,
        "hand": "right"
      },
      {
        "midi": 81,
        "time": 246.667,
        "duration": 1.667,
        "velocity": 1,
        "hand": "right"
      },
      {
        "midi": 65,
        "time": 247.5,
        "duration": 2.5,
        "velocity": 1,
        "hand": "right"
      },
      {
        "midi": 69,
        "time": 247.5,
        "duration": 2.5,
        "velocity": 1,
        "hand": "right"
      },
      {
        "midi": 72,
        "time": 247.5,
        "duration": 2.5,
        "velocity": 1,
        "hand": "right"
      },
      {
        "midi": 79,
        "time": 248.333,
        "duration": 0.417,
        "velocity": 1,
        "hand": "right"
      },
      {
        "midi": 77,
        "time": 248.75,
        "duration": 0.417,
        "velocity": 1,
        "hand": "right"
      },
      {
        "midi": 76,
        "time": 249.167,
        "duration": 0.417,
        "velocity": 1,
        "hand": "right"
      },
      {
        "midi": 75,
        "time": 249.583,
        "duration": 0.417,
        "velocity": 1,
        "hand": "right"
      },
      {
        "midi": 57,
        "time": 250.208,
        "duration": 0.208,
        "velocity": 1,
        "hand": "left"
      },
      {
        "midi": 64,
        "time": 250.208,
        "duration": 0.208,
        "velocity": 1,
        "hand": "right"
      },
      {
        "midi": 69,
        "time": 250.417,
        "duration": 0.208,
        "velocity": 1,
        "hand": "right"
      },
      {
        "midi": 73,
        "time": 250.625,
        "duration": 0.208,
        "velocity": 1,
        "hand": "right"
      },
      {
        "midi": 75,
        "time": 250.625,
        "duration": 0.208,
        "velocity": 1,
        "hand": "right"
      },
      {
        "midi": 78,
        "time": 250.833,
        "duration": 0.208,
        "velocity": 1,
        "hand": "right"
      },
      {
        "midi": 73,
        "time": 251.042,
        "duration": 0.208,
        "velocity": 1,
        "hand": "right"
      },
      {
        "midi": 76,
        "time": 251.042,
        "duration": 0.208,
        "velocity": 1,
        "hand": "right"
      },
      {
        "midi": 81,
        "time": 251.25,
        "duration": 0.208,
        "velocity": 1,
        "hand": "right"
      },
      {
        "midi": 85,
        "time": 251.458,
        "duration": 0.208,
        "velocity": 1,
        "hand": "right"
      },
      {
        "midi": 88,
        "time": 251.458,
        "duration": 0.208,
        "velocity": 1,
        "hand": "right"
      },
      {
        "midi": 92,
        "time": 251.667,
        "duration": 0.208,
        "velocity": 1,
        "hand": "right"
      },
      {
        "midi": 93,
        "time": 251.875,
        "duration": 0.208,
        "velocity": 1,
        "hand": "right"
      },
      {
        "midi": 97,
        "time": 251.875,
        "duration": 0.208,
        "velocity": 1,
        "hand": "right"
      },
      {
        "midi": 100,
        "time": 252.083,
        "duration": 5.417,
        "velocity": 1,
        "hand": "right"
      },
      {
        "midi": 69,
        "time": 252.5,
        "duration": 0.833,
        "velocity": 1,
        "hand": "right"
      },
      {
        "midi": 73,
        "time": 252.5,
        "duration": 0.833,
        "velocity": 1,
        "hand": "right"
      },
      {
        "midi": 88,
        "time": 252.5,
        "duration": 0.833,
        "velocity": 1,
        "hand": "right"
      },
      {
        "midi": 93,
        "time": 252.5,
        "duration": 0.833,
        "velocity": 1,
        "hand": "right"
      },
      {
        "midi": 69,
        "time": 253.333,
        "duration": 0.833,
        "velocity": 1,
        "hand": "right"
      },
      {
        "midi": 73,
        "time": 253.333,
        "duration": 0.833,
        "velocity": 1,
        "hand": "right"
      },
      {
        "midi": 88,
        "time": 253.333,
        "duration": 0.833,
        "velocity": 1,
        "hand": "right"
      },
      {
        "midi": 93,
        "time": 253.333,
        "duration": 0.833,
        "velocity": 1,
        "hand": "right"
      },
      {
        "midi": 69,
        "time": 254.167,
        "duration": 0.833,
        "velocity": 1,
        "hand": "right"
      },
      {
        "midi": 73,
        "time": 254.167,
        "duration": 0.833,
        "velocity": 1,
        "hand": "right"
      },
      {
        "midi": 88,
        "time": 254.167,
        "duration": 0.833,
        "velocity": 1,
        "hand": "right"
      },
      {
        "midi": 93,
        "time": 254.167,
        "duration": 0.833,
        "velocity": 1,
        "hand": "right"
      },
      {
        "midi": 69,
        "time": 255,
        "duration": 2.5,
        "velocity": 1,
        "hand": "right"
      },
      {
        "midi": 73,
        "time": 255,
        "duration": 2.5,
        "velocity": 1,
        "hand": "right"
      },
      {
        "midi": 88,
        "time": 255,
        "duration": 2.5,
        "velocity": 1,
        "hand": "right"
      },
      {
        "midi": 93,
        "time": 255,
        "duration": 2.5,
        "velocity": 1,
        "hand": "right"
      }
    ]
  },
  "notes1Hand": [
    {
      "midi": 66,
      "time": 0,
      "duration": 0.417,
      "velocity": 1,
      "hand": "right"
    },
    {
      "midi": 68,
      "time": 0.417,
      "duration": 0.417,
      "velocity": 1,
      "hand": "right"
    },
    {
      "midi": 71,
      "time": 1.25,
      "duration": 0.417,
      "velocity": 1,
      "hand": "right"
    },
    {
      "midi": 64,
      "time": 1.667,
      "duration": 1.667,
      "velocity": 1,
      "hand": "right"
    },
    {
      "midi": 71,
      "time": 2.5,
      "duration": 0.417,
      "velocity": 1,
      "hand": "right"
    },
    {
      "midi": 73,
      "time": 2.917,
      "duration": 0.417,
      "velocity": 1,
      "hand": "right"
    },
    {
      "midi": 73,
      "time": 4.167,
      "duration": 0.833,
      "velocity": 1,
      "hand": "right"
    },
    {
      "midi": 73,
      "time": 5,
      "duration": 0.417,
      "velocity": 1,
      "hand": "right"
    },
    {
      "midi": 74,
      "time": 5.417,
      "duration": 0.417,
      "velocity": 1,
      "hand": "right"
    },
    {
      "midi": 73,
      "time": 6.25,
      "duration": 0.417,
      "velocity": 1,
      "hand": "right"
    },
    {
      "midi": 74,
      "time": 6.667,
      "duration": 0.833,
      "velocity": 1,
      "hand": "right"
    },
    {
      "midi": 66,
      "time": 7.5,
      "duration": 0.417,
      "velocity": 1,
      "hand": "right"
    },
    {
      "midi": 68,
      "time": 7.917,
      "duration": 0.417,
      "velocity": 1,
      "hand": "right"
    },
    {
      "midi": 70,
      "time": 8.75,
      "duration": 0.833,
      "velocity": 1,
      "hand": "right"
    },
    {
      "midi": 62,
      "time": 9.167,
      "duration": 0.833,
      "velocity": 1,
      "hand": "right"
    },
    {
      "midi": 66,
      "time": 10,
      "duration": 0.417,
      "velocity": 1,
      "hand": "right"
    },
    {
      "midi": 68,
      "time": 10.417,
      "duration": 0.417,
      "velocity": 1,
      "hand": "right"
    },
    {
      "midi": 71,
      "time": 11.25,
      "duration": 0.417,
      "velocity": 1,
      "hand": "right"
    },
    {
      "midi": 64,
      "time": 11.667,
      "duration": 1.667,
      "velocity": 1,
      "hand": "right"
    },
    {
      "midi": 71,
      "time": 12.5,
      "duration": 0.417,
      "velocity": 1,
      "hand": "right"
    },
    {
      "midi": 73,
      "time": 12.917,
      "duration": 0.417,
      "velocity": 1,
      "hand": "right"
    },
    {
      "midi": 73,
      "time": 14.167,
      "duration": 0.833,
      "velocity": 1,
      "hand": "right"
    },
    {
      "midi": 73,
      "time": 15,
      "duration": 0.417,
      "velocity": 1,
      "hand": "right"
    },
    {
      "midi": 75,
      "time": 15.417,
      "duration": 0.417,
      "velocity": 1,
      "hand": "right"
    },
    {
      "midi": 73,
      "time": 16.25,
      "duration": 0.417,
      "velocity": 1,
      "hand": "right"
    },
    {
      "midi": 71,
      "time": 16.667,
      "duration": 0.833,
      "velocity": 1,
      "hand": "right"
    },
    {
      "midi": 73,
      "time": 17.5,
      "duration": 0.417,
      "velocity": 1,
      "hand": "right"
    },
    {
      "midi": 75,
      "time": 17.917,
      "duration": 0.417,
      "velocity": 1,
      "hand": "right"
    },
    {
      "midi": 73,
      "time": 18.75,
      "duration": 0.417,
      "velocity": 1,
      "hand": "right"
    },
    {
      "midi": 71,
      "time": 19.167,
      "duration": 0.833,
      "velocity": 1,
      "hand": "right"
    },
    {
      "midi": 73,
      "time": 20,
      "duration": 0.417,
      "velocity": 1,
      "hand": "right"
    },
    {
      "midi": 75,
      "time": 20.417,
      "duration": 0.417,
      "velocity": 1,
      "hand": "right"
    },
    {
      "midi": 76,
      "time": 21.25,
      "duration": 0.417,
      "velocity": 1,
      "hand": "right"
    },
    {
      "midi": 75,
      "time": 21.667,
      "duration": 0.417,
      "velocity": 1,
      "hand": "right"
    },
    {
      "midi": 73,
      "time": 22.5,
      "duration": 0.833,
      "velocity": 1,
      "hand": "right"
    },
    {
      "midi": 66,
      "time": 23.333,
      "duration": 0.833,
      "velocity": 1,
      "hand": "right"
    },
    {
      "midi": 64,
      "time": 24.167,
      "duration": 0.833,
      "velocity": 1,
      "hand": "right"
    },
    {
      "midi": 74,
      "time": 25,
      "duration": 0.417,
      "velocity": 1,
      "hand": "right"
    },
    {
      "midi": 73,
      "time": 25.417,
      "duration": 0.417,
      "velocity": 1,
      "hand": "right"
    },
    {
      "midi": 69,
      "time": 26.25,
      "duration": 0.417,
      "velocity": 1,
      "hand": "right"
    },
    {
      "midi": 68,
      "time": 26.667,
      "duration": 0.833,
      "velocity": 1,
      "hand": "right"
    },
    {
      "midi": 66,
      "time": 27.5,
      "duration": 0.417,
      "velocity": 1,
      "hand": "right"
    },
    {
      "midi": 68,
      "time": 27.917,
      "duration": 0.417,
      "velocity": 1,
      "hand": "right"
    },
    {
      "midi": 68,
      "time": 28.75,
      "duration": 0.417,
      "velocity": 1,
      "hand": "right"
    },
    {
      "midi": 64,
      "time": 29.167,
      "duration": 0.833,
      "velocity": 1,
      "hand": "right"
    },
    {
      "midi": 74,
      "time": 30,
      "duration": 0.417,
      "velocity": 1,
      "hand": "right"
    },
    {
      "midi": 73,
      "time": 30.417,
      "duration": 0.417,
      "velocity": 1,
      "hand": "right"
    },
    {
      "midi": 69,
      "time": 31.25,
      "duration": 0.417,
      "velocity": 1,
      "hand": "right"
    },
    {
      "midi": 68,
      "time": 31.667,
      "duration": 0.833,
      "velocity": 1,
      "hand": "right"
    },
    {
      "midi": 66,
      "time": 32.5,
      "duration": 0.417,
      "velocity": 1,
      "hand": "right"
    },
    {
      "midi": 68,
      "time": 32.917,
      "duration": 0.417,
      "velocity": 1,
      "hand": "right"
    },
    {
      "midi": 68,
      "time": 33.75,
      "duration": 0.417,
      "velocity": 1,
      "hand": "right"
    },
    {
      "midi": 64,
      "time": 34.167,
      "duration": 0.833,
      "velocity": 1,
      "hand": "right"
    },
    {
      "midi": 70,
      "time": 35,
      "duration": 0.417,
      "velocity": 1,
      "hand": "right"
    },
    {
      "midi": 72,
      "time": 35.417,
      "duration": 0.417,
      "velocity": 1,
      "hand": "right"
    },
    {
      "midi": 72,
      "time": 36.25,
      "duration": 0.417,
      "velocity": 1,
      "hand": "right"
    },
    {
      "midi": 68,
      "time": 36.667,
      "duration": 0.833,
      "velocity": 1,
      "hand": "right"
    },
    {
      "midi": 74,
      "time": 37.5,
      "duration": 0.417,
      "velocity": 1,
      "hand": "right"
    },
    {
      "midi": 76,
      "time": 37.917,
      "duration": 0.417,
      "velocity": 1,
      "hand": "right"
    },
    {
      "midi": 76,
      "time": 38.75,
      "duration": 0.417,
      "velocity": 1,
      "hand": "right"
    },
    {
      "midi": 72,
      "time": 39.167,
      "duration": 0.833,
      "velocity": 1,
      "hand": "right"
    },
    {
      "midi": 74,
      "time": 40,
      "duration": 0.417,
      "velocity": 1,
      "hand": "right"
    },
    {
      "midi": 76,
      "time": 40.417,
      "duration": 0.417,
      "velocity": 1,
      "hand": "right"
    },
    {
      "midi": 77,
      "time": 41.042,
      "duration": 0.417,
      "velocity": 1,
      "hand": "right"
    },
    {
      "midi": 72,
      "time": 41.667,
      "duration": 0.833,
      "velocity": 1,
      "hand": "right"
    },
    {
      "midi": 74,
      "time": 42.5,
      "duration": 0.417,
      "velocity": 1,
      "hand": "right"
    },
    {
      "midi": 76,
      "time": 42.917,
      "duration": 0.417,
      "velocity": 1,
      "hand": "right"
    },
    {
      "midi": 77,
      "time": 43.542,
      "duration": 0.417,
      "velocity": 1,
      "hand": "right"
    },
    {
      "midi": 72,
      "time": 44.167,
      "duration": 0.833,
      "velocity": 1,
      "hand": "right"
    },
    {
      "midi": 74,
      "time": 45,
      "duration": 0.417,
      "velocity": 1,
      "hand": "right"
    },
    {
      "midi": 76,
      "time": 45.417,
      "duration": 0.417,
      "velocity": 1,
      "hand": "right"
    },
    {
      "midi": 78,
      "time": 46.25,
      "duration": 0.417,
      "velocity": 1,
      "hand": "right"
    },
    {
      "midi": 77,
      "time": 46.667,
      "duration": 0.417,
      "velocity": 1,
      "hand": "right"
    },
    {
      "midi": 76,
      "time": 47.5,
      "duration": 0.417,
      "velocity": 1,
      "hand": "right"
    },
    {
      "midi": 75,
      "time": 47.917,
      "duration": 0.417,
      "velocity": 1,
      "hand": "right"
    },
    {
      "midi": 73,
      "time": 48.542,
      "duration": 0.417,
      "velocity": 1,
      "hand": "right"
    },
    {
      "midi": 76,
      "time": 49.167,
      "duration": 0.417,
      "velocity": 1,
      "hand": "right"
    },
    {
      "midi": 70,
      "time": 50,
      "duration": 0.417,
      "velocity": 1,
      "hand": "right"
    },
    {
      "midi": 71,
      "time": 50.417,
      "duration": 0.417,
      "velocity": 1,
      "hand": "right"
    },
    {
      "midi": 73,
      "time": 51.042,
      "duration": 0.417,
      "velocity": 1,
      "hand": "right"
    },
    {
      "midi": 66,
      "time": 51.667,
      "duration": 0.833,
      "velocity": 1,
      "hand": "right"
    },
    {
      "midi": 66,
      "time": 52.5,
      "duration": 0.417,
      "velocity": 1,
      "hand": "right"
    },
    {
      "midi": 68,
      "time": 52.917,
      "duration": 0.417,
      "velocity": 1,
      "hand": "right"
    },
    {
      "midi": 71,
      "time": 53.75,
      "duration": 0.417,
      "velocity": 1,
      "hand": "right"
    },
    {
      "midi": 64,
      "time": 54.167,
      "duration": 1.667,
      "velocity": 1,
      "hand": "right"
    },
    {
      "midi": 71,
      "time": 55,
      "duration": 0.417,
      "velocity": 1,
      "hand": "right"
    },
    {
      "midi": 73,
      "time": 55.417,
      "duration": 0.417,
      "velocity": 1,
      "hand": "right"
    },
    {
      "midi": 73,
      "time": 56.667,
      "duration": 0.833,
      "velocity": 1,
      "hand": "right"
    },
    {
      "midi": 73,
      "time": 57.5,
      "duration": 0.417,
      "velocity": 1,
      "hand": "right"
    },
    {
      "midi": 74,
      "time": 57.917,
      "duration": 0.417,
      "velocity": 1,
      "hand": "right"
    },
    {
      "midi": 73,
      "time": 58.75,
      "duration": 0.417,
      "velocity": 1,
      "hand": "right"
    },
    {
      "midi": 74,
      "time": 59.167,
      "duration": 0.833,
      "velocity": 1,
      "hand": "right"
    },
    {
      "midi": 66,
      "time": 60,
      "duration": 0.417,
      "velocity": 1,
      "hand": "right"
    },
    {
      "midi": 68,
      "time": 60.417,
      "duration": 0.417,
      "velocity": 1,
      "hand": "right"
    },
    {
      "midi": 70,
      "time": 61.25,
      "duration": 0.833,
      "velocity": 1,
      "hand": "right"
    },
    {
      "midi": 62,
      "time": 61.667,
      "duration": 0.833,
      "velocity": 1,
      "hand": "right"
    },
    {
      "midi": 66,
      "time": 62.5,
      "duration": 0.417,
      "velocity": 1,
      "hand": "right"
    },
    {
      "midi": 68,
      "time": 62.917,
      "duration": 0.417,
      "velocity": 1,
      "hand": "right"
    },
    {
      "midi": 71,
      "time": 63.75,
      "duration": 0.417,
      "velocity": 1,
      "hand": "right"
    },
    {
      "midi": 64,
      "time": 64.167,
      "duration": 1.667,
      "velocity": 1,
      "hand": "right"
    },
    {
      "midi": 71,
      "time": 65,
      "duration": 0.417,
      "velocity": 1,
      "hand": "right"
    },
    {
      "midi": 73,
      "time": 65.417,
      "duration": 0.417,
      "velocity": 1,
      "hand": "right"
    },
    {
      "midi": 73,
      "time": 66.667,
      "duration": 0.833,
      "velocity": 1,
      "hand": "right"
    },
    {
      "midi": 73,
      "time": 67.5,
      "duration": 0.417,
      "velocity": 1,
      "hand": "right"
    },
    {
      "midi": 75,
      "time": 67.917,
      "duration": 0.417,
      "velocity": 1,
      "hand": "right"
    },
    {
      "midi": 73,
      "time": 68.75,
      "duration": 0.417,
      "velocity": 1,
      "hand": "right"
    },
    {
      "midi": 71,
      "time": 69.167,
      "duration": 0.833,
      "velocity": 1,
      "hand": "right"
    },
    {
      "midi": 73,
      "time": 70,
      "duration": 0.417,
      "velocity": 1,
      "hand": "right"
    },
    {
      "midi": 75,
      "time": 70.417,
      "duration": 0.417,
      "velocity": 1,
      "hand": "right"
    },
    {
      "midi": 73,
      "time": 71.25,
      "duration": 0.417,
      "velocity": 1,
      "hand": "right"
    },
    {
      "midi": 71,
      "time": 71.667,
      "duration": 0.833,
      "velocity": 1,
      "hand": "right"
    },
    {
      "midi": 76,
      "time": 72.5,
      "duration": 0.833,
      "velocity": 1,
      "hand": "right"
    },
    {
      "midi": 74,
      "time": 73.333,
      "duration": 0.417,
      "velocity": 1,
      "hand": "right"
    },
    {
      "midi": 72,
      "time": 73.75,
      "duration": 0.417,
      "velocity": 1,
      "hand": "right"
    },
    {
      "midi": 71,
      "time": 74.167,
      "duration": 0.417,
      "velocity": 1,
      "hand": "right"
    },
    {
      "midi": 64,
      "time": 75.625,
      "duration": 0.417,
      "velocity": 1,
      "hand": "right"
    },
    {
      "midi": 67,
      "time": 76.042,
      "duration": 0.417,
      "velocity": 1,
      "hand": "right"
    },
    {
      "midi": 78,
      "time": 76.667,
      "duration": 0.417,
      "velocity": 1,
      "hand": "right"
    },
    {
      "midi": 76,
      "time": 77.5,
      "duration": 0.833,
      "velocity": 1,
      "hand": "right"
    },
    {
      "midi": 74,
      "time": 78.333,
      "duration": 0.417,
      "velocity": 1,
      "hand": "right"
    },
    {
      "midi": 72,
      "time": 78.75,
      "duration": 0.417,
      "velocity": 1,
      "hand": "right"
    },
    {
      "midi": 71,
      "time": 79.167,
      "duration": 0.417,
      "velocity": 1,
      "hand": "right"
    },
    {
      "midi": 64,
      "time": 80.625,
      "duration": 0.417,
      "velocity": 1,
      "hand": "right"
    },
    {
      "midi": 67,
      "time": 81.042,
      "duration": 0.417,
      "velocity": 1,
      "hand": "right"
    },
    {
      "midi": 76,
      "time": 82.5,
      "duration": 0.833,
      "velocity": 1,
      "hand": "right"
    },
    {
      "midi": 74,
      "time": 83.333,
      "duration": 0.417,
      "velocity": 1,
      "hand": "right"
    },
    {
      "midi": 72,
      "time": 83.75,
      "duration": 0.417,
      "velocity": 1,
      "hand": "right"
    },
    {
      "midi": 71,
      "time": 84.167,
      "duration": 0.417,
      "velocity": 1,
      "hand": "right"
    },
    {
      "midi": 64,
      "time": 85.625,
      "duration": 0.417,
      "velocity": 1,
      "hand": "right"
    },
    {
      "midi": 67,
      "time": 86.042,
      "duration": 0.417,
      "velocity": 1,
      "hand": "right"
    },
    {
      "midi": 78,
      "time": 86.667,
      "duration": 0.417,
      "velocity": 1,
      "hand": "right"
    },
    {
      "midi": 76,
      "time": 87.5,
      "duration": 0.833,
      "velocity": 1,
      "hand": "right"
    },
    {
      "midi": 74,
      "time": 88.333,
      "duration": 0.417,
      "velocity": 1,
      "hand": "right"
    },
    {
      "midi": 72,
      "time": 88.75,
      "duration": 0.417,
      "velocity": 1,
      "hand": "right"
    },
    {
      "midi": 71,
      "time": 89.167,
      "duration": 0.417,
      "velocity": 1,
      "hand": "right"
    },
    {
      "midi": 76,
      "time": 90.417,
      "duration": 0.417,
      "velocity": 1,
      "hand": "right"
    },
    {
      "midi": 72,
      "time": 91.25,
      "duration": 0.417,
      "velocity": 1,
      "hand": "right"
    },
    {
      "midi": 71,
      "time": 91.667,
      "duration": 0.417,
      "velocity": 1,
      "hand": "right"
    },
    {
      "midi": 77,
      "time": 92.5,
      "duration": 0.833,
      "velocity": 1,
      "hand": "right"
    },
    {
      "midi": 61,
      "time": 92.917,
      "duration": 0.417,
      "velocity": 1,
      "hand": "right"
    },
    {
      "midi": 67,
      "time": 93.958,
      "duration": 0.417,
      "velocity": 1,
      "hand": "right"
    },
    {
      "midi": 60,
      "time": 94.583,
      "duration": 0.417,
      "velocity": 1,
      "hand": "right"
    },
    {
      "midi": 68,
      "time": 95,
      "duration": 0.833,
      "velocity": 1,
      "hand": "right"
    },
    {
      "midi": 65,
      "time": 95.625,
      "duration": 0.417,
      "velocity": 1,
      "hand": "right"
    },
    {
      "midi": 68,
      "time": 96.25,
      "duration": 0.417,
      "velocity": 1,
      "hand": "right"
    },
    {
      "midi": 72,
      "time": 96.667,
      "duration": 0.417,
      "velocity": 1,
      "hand": "right"
    },
    {
      "midi": 77,
      "time": 97.5,
      "duration": 0.833,
      "velocity": 1,
      "hand": "right"
    },
    {
      "midi": 61,
      "time": 97.917,
      "duration": 0.417,
      "velocity": 1,
      "hand": "right"
    },
    {
      "midi": 67,
      "time": 98.958,
      "duration": 0.417,
      "velocity": 1,
      "hand": "right"
    },
    {
      "midi": 60,
      "time": 99.583,
      "duration": 0.417,
      "velocity": 1,
      "hand": "right"
    },
    {
      "midi": 80,
      "time": 100,
      "duration": 0.833,
      "velocity": 1,
      "hand": "right"
    },
    {
      "midi": 65,
      "time": 100.417,
      "duration": 0.417,
      "velocity": 1,
      "hand": "right"
    },
    {
      "midi": 62,
      "time": 101.25,
      "duration": 0.417,
      "velocity": 1,
      "hand": "right"
    },
    {
      "midi": 79,
      "time": 101.667,
      "duration": 0.833,
      "velocity": 1,
      "hand": "right"
    },
    {
      "midi": 72,
      "time": 102.292,
      "duration": 0.417,
      "velocity": 1,
      "hand": "right"
    },
    {
      "midi": 61,
      "time": 102.917,
      "duration": 0.417,
      "velocity": 1,
      "hand": "right"
    },
    {
      "midi": 71,
      "time": 103.75,
      "duration": 0.417,
      "velocity": 1,
      "hand": "right"
    },
    {
      "midi": 76,
      "time": 104.167,
      "duration": 0.417,
      "velocity": 1,
      "hand": "right"
    },
    {
      "midi": 71,
      "time": 105,
      "duration": 0.833,
      "velocity": 1,
      "hand": "right"
    },
    {
      "midi": 61,
      "time": 105.417,
      "duration": 0.417,
      "velocity": 1,
      "hand": "right"
    },
    {
      "midi": 71,
      "time": 106.25,
      "duration": 0.417,
      "velocity": 1,
      "hand": "right"
    },
    {
      "midi": 79,
      "time": 106.667,
      "duration": 0.417,
      "velocity": 1,
      "hand": "right"
    },
    {
      "midi": 71,
      "time": 107.5,
      "duration": 0.833,
      "velocity": 1,
      "hand": "right"
    },
    {
      "midi": 61,
      "time": 107.917,
      "duration": 0.417,
      "velocity": 1,
      "hand": "right"
    },
    {
      "midi": 71,
      "time": 108.75,
      "duration": 0.417,
      "velocity": 1,
      "hand": "right"
    },
    {
      "midi": 76,
      "time": 109.167,
      "duration": 0.417,
      "velocity": 1,
      "hand": "right"
    },
    {
      "midi": 71,
      "time": 110,
      "duration": 0.833,
      "velocity": 1,
      "hand": "right"
    },
    {
      "midi": 61,
      "time": 110.417,
      "duration": 0.417,
      "velocity": 1,
      "hand": "right"
    },
    {
      "midi": 71,
      "time": 111.25,
      "duration": 0.417,
      "velocity": 1,
      "hand": "right"
    },
    {
      "midi": 80,
      "time": 111.667,
      "duration": 0.417,
      "velocity": 1,
      "hand": "right"
    },
    {
      "midi": 77,
      "time": 112.292,
      "duration": 0.417,
      "velocity": 1,
      "hand": "right"
    },
    {
      "midi": 64,
      "time": 112.917,
      "duration": 0.417,
      "velocity": 1,
      "hand": "right"
    },
    {
      "midi": 76,
      "time": 113.542,
      "duration": 0.417,
      "velocity": 1,
      "hand": "right"
    },
    {
      "midi": 84,
      "time": 114.167,
      "duration": 0.417,
      "velocity": 1,
      "hand": "right"
    },
    {
      "midi": 76,
      "time": 115,
      "duration": 0.833,
      "velocity": 1,
      "hand": "right"
    },
    {
      "midi": 74,
      "time": 115.833,
      "duration": 0.417,
      "velocity": 1,
      "hand": "right"
    },
    {
      "midi": 72,
      "time": 116.25,
      "duration": 0.417,
      "velocity": 1,
      "hand": "right"
    },
    {
      "midi": 71,
      "time": 116.667,
      "duration": 0.417,
      "velocity": 1,
      "hand": "right"
    },
    {
      "midi": 64,
      "time": 118.125,
      "duration": 0.417,
      "velocity": 1,
      "hand": "right"
    },
    {
      "midi": 67,
      "time": 118.542,
      "duration": 0.417,
      "velocity": 1,
      "hand": "right"
    },
    {
      "midi": 78,
      "time": 119.167,
      "duration": 0.417,
      "velocity": 1,
      "hand": "right"
    },
    {
      "midi": 76,
      "time": 120,
      "duration": 0.833,
      "velocity": 1,
      "hand": "right"
    },
    {
      "midi": 74,
      "time": 120.833,
      "duration": 0.417,
      "velocity": 1,
      "hand": "right"
    },
    {
      "midi": 72,
      "time": 121.25,
      "duration": 0.417,
      "velocity": 1,
      "hand": "right"
    },
    {
      "midi": 71,
      "time": 121.667,
      "duration": 0.417,
      "velocity": 1,
      "hand": "right"
    },
    {
      "midi": 64,
      "time": 123.125,
      "duration": 0.417,
      "velocity": 1,
      "hand": "right"
    },
    {
      "midi": 67,
      "time": 123.542,
      "duration": 0.417,
      "velocity": 1,
      "hand": "right"
    },
    {
      "midi": 76,
      "time": 125,
      "duration": 0.833,
      "velocity": 1,
      "hand": "right"
    },
    {
      "midi": 74,
      "time": 125.833,
      "duration": 0.417,
      "velocity": 1,
      "hand": "right"
    },
    {
      "midi": 72,
      "time": 126.25,
      "duration": 0.417,
      "velocity": 1,
      "hand": "right"
    },
    {
      "midi": 71,
      "time": 126.667,
      "duration": 0.417,
      "velocity": 1,
      "hand": "right"
    },
    {
      "midi": 76,
      "time": 127.917,
      "duration": 0.417,
      "velocity": 1,
      "hand": "right"
    },
    {
      "midi": 68,
      "time": 128.75,
      "duration": 0.417,
      "velocity": 1,
      "hand": "right"
    },
    {
      "midi": 69,
      "time": 129.167,
      "duration": 0.417,
      "velocity": 1,
      "hand": "right"
    },
    {
      "midi": 78,
      "time": 130,
      "duration": 0.833,
      "velocity": 1,
      "hand": "right"
    },
    {
      "midi": 63,
      "time": 130.417,
      "duration": 0.417,
      "velocity": 1,
      "hand": "right"
    },
    {
      "midi": 67,
      "time": 131.458,
      "duration": 0.417,
      "velocity": 1,
      "hand": "right"
    },
    {
      "midi": 66,
      "time": 132.292,
      "duration": 0.417,
      "velocity": 1,
      "hand": "right"
    },
    {
      "midi": 65,
      "time": 133.125,
      "duration": 0.417,
      "velocity": 1,
      "hand": "right"
    },
    {
      "midi": 71,
      "time": 133.75,
      "duration": 0.417,
      "velocity": 1,
      "hand": "right"
    },
    {
      "midi": 75,
      "time": 134.167,
      "duration": 0.417,
      "velocity": 1,
      "hand": "right"
    },
    {
      "midi": 78,
      "time": 135,
      "duration": 0.833,
      "velocity": 1,
      "hand": "right"
    },
    {
      "midi": 63,
      "time": 135.417,
      "duration": 0.417,
      "velocity": 1,
      "hand": "right"
    },
    {
      "midi": 67,
      "time": 136.458,
      "duration": 0.417,
      "velocity": 1,
      "hand": "right"
    },
    {
      "midi": 66,
      "time": 137.292,
      "duration": 0.417,
      "velocity": 1,
      "hand": "right"
    },
    {
      "midi": 65,
      "time": 138.125,
      "duration": 0.417,
      "velocity": 1,
      "hand": "right"
    },
    {
      "midi": 71,
      "time": 138.75,
      "duration": 0.417,
      "velocity": 1,
      "hand": "right"
    },
    {
      "midi": 75,
      "time": 139.167,
      "duration": 0.417,
      "velocity": 1,
      "hand": "right"
    },
    {
      "midi": 78,
      "time": 140,
      "duration": 0.833,
      "velocity": 1,
      "hand": "right"
    },
    {
      "midi": 63,
      "time": 140.417,
      "duration": 0.417,
      "velocity": 1,
      "hand": "right"
    },
    {
      "midi": 67,
      "time": 141.458,
      "duration": 0.417,
      "velocity": 1,
      "hand": "right"
    },
    {
      "midi": 66,
      "time": 142.292,
      "duration": 0.417,
      "velocity": 1,
      "hand": "right"
    },
    {
      "midi": 62,
      "time": 143.125,
      "duration": 0.417,
      "velocity": 1,
      "hand": "right"
    },
    {
      "midi": 63,
      "time": 143.958,
      "duration": 0.417,
      "velocity": 1,
      "hand": "right"
    },
    {
      "midi": 61,
      "time": 146.875,
      "duration": 0.417,
      "velocity": 1,
      "hand": "right"
    },
    {
      "midi": 62,
      "time": 147.292,
      "duration": 0.625,
      "velocity": 1,
      "hand": "right"
    },
    {
      "midi": 63,
      "time": 147.917,
      "duration": 0.833,
      "velocity": 1,
      "hand": "right"
    },
    {
      "midi": 64,
      "time": 148.75,
      "duration": 0.417,
      "velocity": 1,
      "hand": "right"
    },
    {
      "midi": 65,
      "time": 149.167,
      "duration": 0.417,
      "velocity": 1,
      "hand": "right"
    },
    {
      "midi": 66,
      "time": 152.5,
      "duration": 0.417,
      "velocity": 1,
      "hand": "right"
    },
    {
      "midi": 68,
      "time": 152.917,
      "duration": 0.417,
      "velocity": 1,
      "hand": "right"
    },
    {
      "midi": 71,
      "time": 153.75,
      "duration": 0.417,
      "velocity": 1,
      "hand": "right"
    },
    {
      "midi": 64,
      "time": 154.167,
      "duration": 1.667,
      "velocity": 1,
      "hand": "right"
    },
    {
      "midi": 71,
      "time": 155,
      "duration": 0.417,
      "velocity": 1,
      "hand": "right"
    },
    {
      "midi": 73,
      "time": 155.417,
      "duration": 0.417,
      "velocity": 1,
      "hand": "right"
    },
    {
      "midi": 73,
      "time": 156.667,
      "duration": 0.833,
      "velocity": 1,
      "hand": "right"
    },
    {
      "midi": 73,
      "time": 157.5,
      "duration": 0.417,
      "velocity": 1,
      "hand": "right"
    },
    {
      "midi": 74,
      "time": 157.917,
      "duration": 0.417,
      "velocity": 1,
      "hand": "right"
    },
    {
      "midi": 73,
      "time": 158.75,
      "duration": 0.417,
      "velocity": 1,
      "hand": "right"
    },
    {
      "midi": 74,
      "time": 159.167,
      "duration": 0.833,
      "velocity": 1,
      "hand": "right"
    },
    {
      "midi": 66,
      "time": 160,
      "duration": 0.417,
      "velocity": 1,
      "hand": "right"
    },
    {
      "midi": 68,
      "time": 160.417,
      "duration": 0.417,
      "velocity": 1,
      "hand": "right"
    },
    {
      "midi": 70,
      "time": 161.25,
      "duration": 0.833,
      "velocity": 1,
      "hand": "right"
    },
    {
      "midi": 62,
      "time": 161.667,
      "duration": 0.833,
      "velocity": 1,
      "hand": "right"
    },
    {
      "midi": 66,
      "time": 162.5,
      "duration": 0.417,
      "velocity": 1,
      "hand": "right"
    },
    {
      "midi": 68,
      "time": 162.917,
      "duration": 0.417,
      "velocity": 1,
      "hand": "right"
    },
    {
      "midi": 71,
      "time": 163.75,
      "duration": 0.417,
      "velocity": 1,
      "hand": "right"
    },
    {
      "midi": 64,
      "time": 164.167,
      "duration": 1.667,
      "velocity": 1,
      "hand": "right"
    },
    {
      "midi": 71,
      "time": 165,
      "duration": 0.417,
      "velocity": 1,
      "hand": "right"
    },
    {
      "midi": 73,
      "time": 165.417,
      "duration": 0.417,
      "velocity": 1,
      "hand": "right"
    },
    {
      "midi": 73,
      "time": 166.667,
      "duration": 0.833,
      "velocity": 1,
      "hand": "right"
    },
    {
      "midi": 73,
      "time": 167.5,
      "duration": 0.417,
      "velocity": 1,
      "hand": "right"
    },
    {
      "midi": 75,
      "time": 167.917,
      "duration": 0.417,
      "velocity": 1,
      "hand": "right"
    },
    {
      "midi": 73,
      "time": 168.75,
      "duration": 0.417,
      "velocity": 1,
      "hand": "right"
    },
    {
      "midi": 71,
      "time": 169.167,
      "duration": 0.833,
      "velocity": 1,
      "hand": "right"
    },
    {
      "midi": 73,
      "time": 170,
      "duration": 0.417,
      "velocity": 1,
      "hand": "right"
    },
    {
      "midi": 75,
      "time": 170.417,
      "duration": 0.417,
      "velocity": 1,
      "hand": "right"
    },
    {
      "midi": 73,
      "time": 171.25,
      "duration": 0.417,
      "velocity": 1,
      "hand": "right"
    },
    {
      "midi": 71,
      "time": 171.667,
      "duration": 0.833,
      "velocity": 1,
      "hand": "right"
    },
    {
      "midi": 73,
      "time": 172.5,
      "duration": 0.417,
      "velocity": 1,
      "hand": "right"
    },
    {
      "midi": 75,
      "time": 172.917,
      "duration": 0.417,
      "velocity": 1,
      "hand": "right"
    },
    {
      "midi": 76,
      "time": 173.75,
      "duration": 0.417,
      "velocity": 1,
      "hand": "right"
    },
    {
      "midi": 75,
      "time": 174.167,
      "duration": 0.417,
      "velocity": 1,
      "hand": "right"
    },
    {
      "midi": 73,
      "time": 175,
      "duration": 0.833,
      "velocity": 1,
      "hand": "right"
    },
    {
      "midi": 66,
      "time": 175.833,
      "duration": 0.833,
      "velocity": 1,
      "hand": "right"
    },
    {
      "midi": 64,
      "time": 176.667,
      "duration": 0.833,
      "velocity": 1,
      "hand": "right"
    },
    {
      "midi": 74,
      "time": 177.5,
      "duration": 0.417,
      "velocity": 1,
      "hand": "right"
    },
    {
      "midi": 73,
      "time": 177.917,
      "duration": 0.417,
      "velocity": 1,
      "hand": "right"
    },
    {
      "midi": 69,
      "time": 178.75,
      "duration": 0.417,
      "velocity": 1,
      "hand": "right"
    },
    {
      "midi": 68,
      "time": 179.167,
      "duration": 0.833,
      "velocity": 1,
      "hand": "right"
    },
    {
      "midi": 66,
      "time": 180,
      "duration": 0.417,
      "velocity": 1,
      "hand": "right"
    },
    {
      "midi": 68,
      "time": 180.417,
      "duration": 0.417,
      "velocity": 1,
      "hand": "right"
    },
    {
      "midi": 68,
      "time": 181.25,
      "duration": 0.417,
      "velocity": 1,
      "hand": "right"
    },
    {
      "midi": 64,
      "time": 181.667,
      "duration": 0.833,
      "velocity": 1,
      "hand": "right"
    },
    {
      "midi": 74,
      "time": 182.5,
      "duration": 0.417,
      "velocity": 1,
      "hand": "right"
    },
    {
      "midi": 73,
      "time": 182.917,
      "duration": 0.417,
      "velocity": 1,
      "hand": "right"
    },
    {
      "midi": 69,
      "time": 183.75,
      "duration": 0.417,
      "velocity": 1,
      "hand": "right"
    },
    {
      "midi": 68,
      "time": 184.167,
      "duration": 0.833,
      "velocity": 1,
      "hand": "right"
    },
    {
      "midi": 66,
      "time": 185,
      "duration": 0.417,
      "velocity": 1,
      "hand": "right"
    },
    {
      "midi": 68,
      "time": 185.417,
      "duration": 0.417,
      "velocity": 1,
      "hand": "right"
    },
    {
      "midi": 68,
      "time": 186.25,
      "duration": 0.417,
      "velocity": 1,
      "hand": "right"
    },
    {
      "midi": 64,
      "time": 186.667,
      "duration": 0.833,
      "velocity": 1,
      "hand": "right"
    },
    {
      "midi": 70,
      "time": 187.5,
      "duration": 0.417,
      "velocity": 1,
      "hand": "right"
    },
    {
      "midi": 72,
      "time": 187.917,
      "duration": 0.417,
      "velocity": 1,
      "hand": "right"
    },
    {
      "midi": 72,
      "time": 188.75,
      "duration": 0.417,
      "velocity": 1,
      "hand": "right"
    },
    {
      "midi": 68,
      "time": 189.167,
      "duration": 0.833,
      "velocity": 1,
      "hand": "right"
    },
    {
      "midi": 74,
      "time": 190,
      "duration": 0.417,
      "velocity": 1,
      "hand": "right"
    },
    {
      "midi": 76,
      "time": 190.417,
      "duration": 0.417,
      "velocity": 1,
      "hand": "right"
    },
    {
      "midi": 76,
      "time": 191.25,
      "duration": 0.417,
      "velocity": 1,
      "hand": "right"
    },
    {
      "midi": 72,
      "time": 191.667,
      "duration": 0.833,
      "velocity": 1,
      "hand": "right"
    },
    {
      "midi": 74,
      "time": 192.5,
      "duration": 0.417,
      "velocity": 1,
      "hand": "right"
    },
    {
      "midi": 76,
      "time": 192.917,
      "duration": 0.417,
      "velocity": 1,
      "hand": "right"
    },
    {
      "midi": 77,
      "time": 193.542,
      "duration": 0.417,
      "velocity": 1,
      "hand": "right"
    },
    {
      "midi": 72,
      "time": 194.167,
      "duration": 0.833,
      "velocity": 1,
      "hand": "right"
    },
    {
      "midi": 74,
      "time": 195,
      "duration": 0.417,
      "velocity": 1,
      "hand": "right"
    },
    {
      "midi": 76,
      "time": 195.417,
      "duration": 0.417,
      "velocity": 1,
      "hand": "right"
    },
    {
      "midi": 77,
      "time": 196.042,
      "duration": 0.417,
      "velocity": 1,
      "hand": "right"
    },
    {
      "midi": 72,
      "time": 196.667,
      "duration": 0.833,
      "velocity": 1,
      "hand": "right"
    },
    {
      "midi": 74,
      "time": 197.5,
      "duration": 0.417,
      "velocity": 1,
      "hand": "right"
    },
    {
      "midi": 76,
      "time": 197.917,
      "duration": 0.417,
      "velocity": 1,
      "hand": "right"
    },
    {
      "midi": 78,
      "time": 198.75,
      "duration": 0.417,
      "velocity": 1,
      "hand": "right"
    },
    {
      "midi": 77,
      "time": 199.167,
      "duration": 0.417,
      "velocity": 1,
      "hand": "right"
    },
    {
      "midi": 76,
      "time": 200,
      "duration": 0.417,
      "velocity": 1,
      "hand": "right"
    },
    {
      "midi": 75,
      "time": 200.417,
      "duration": 0.417,
      "velocity": 1,
      "hand": "right"
    },
    {
      "midi": 73,
      "time": 201.042,
      "duration": 0.417,
      "velocity": 1,
      "hand": "right"
    },
    {
      "midi": 76,
      "time": 201.667,
      "duration": 0.417,
      "velocity": 1,
      "hand": "right"
    },
    {
      "midi": 70,
      "time": 202.5,
      "duration": 0.417,
      "velocity": 1,
      "hand": "right"
    },
    {
      "midi": 71,
      "time": 202.917,
      "duration": 0.417,
      "velocity": 1,
      "hand": "right"
    },
    {
      "midi": 73,
      "time": 203.542,
      "duration": 0.417,
      "velocity": 1,
      "hand": "right"
    },
    {
      "midi": 66,
      "time": 204.167,
      "duration": 0.833,
      "velocity": 1,
      "hand": "right"
    },
    {
      "midi": 66,
      "time": 205,
      "duration": 0.417,
      "velocity": 1,
      "hand": "right"
    },
    {
      "midi": 68,
      "time": 205.417,
      "duration": 0.417,
      "velocity": 1,
      "hand": "right"
    },
    {
      "midi": 71,
      "time": 206.25,
      "duration": 0.417,
      "velocity": 1,
      "hand": "right"
    },
    {
      "midi": 64,
      "time": 206.667,
      "duration": 1.667,
      "velocity": 1,
      "hand": "right"
    },
    {
      "midi": 71,
      "time": 207.5,
      "duration": 0.417,
      "velocity": 1,
      "hand": "right"
    },
    {
      "midi": 73,
      "time": 207.917,
      "duration": 0.417,
      "velocity": 1,
      "hand": "right"
    },
    {
      "midi": 73,
      "time": 209.167,
      "duration": 0.833,
      "velocity": 1,
      "hand": "right"
    },
    {
      "midi": 73,
      "time": 210,
      "duration": 0.417,
      "velocity": 1,
      "hand": "right"
    },
    {
      "midi": 74,
      "time": 210.417,
      "duration": 0.417,
      "velocity": 1,
      "hand": "right"
    },
    {
      "midi": 73,
      "time": 211.25,
      "duration": 0.417,
      "velocity": 1,
      "hand": "right"
    },
    {
      "midi": 74,
      "time": 211.667,
      "duration": 0.833,
      "velocity": 1,
      "hand": "right"
    },
    {
      "midi": 66,
      "time": 212.5,
      "duration": 0.417,
      "velocity": 1,
      "hand": "right"
    },
    {
      "midi": 68,
      "time": 212.917,
      "duration": 0.417,
      "velocity": 1,
      "hand": "right"
    },
    {
      "midi": 70,
      "time": 213.75,
      "duration": 0.833,
      "velocity": 1,
      "hand": "right"
    },
    {
      "midi": 62,
      "time": 214.167,
      "duration": 0.833,
      "velocity": 1,
      "hand": "right"
    },
    {
      "midi": 66,
      "time": 215,
      "duration": 0.417,
      "velocity": 1,
      "hand": "right"
    },
    {
      "midi": 68,
      "time": 215.417,
      "duration": 0.417,
      "velocity": 1,
      "hand": "right"
    },
    {
      "midi": 71,
      "time": 216.25,
      "duration": 0.417,
      "velocity": 1,
      "hand": "right"
    },
    {
      "midi": 64,
      "time": 216.667,
      "duration": 1.667,
      "velocity": 1,
      "hand": "right"
    },
    {
      "midi": 71,
      "time": 217.5,
      "duration": 0.417,
      "velocity": 1,
      "hand": "right"
    },
    {
      "midi": 73,
      "time": 217.917,
      "duration": 0.417,
      "velocity": 1,
      "hand": "right"
    },
    {
      "midi": 73,
      "time": 219.167,
      "duration": 0.833,
      "velocity": 1,
      "hand": "right"
    },
    {
      "midi": 73,
      "time": 220,
      "duration": 0.417,
      "velocity": 1,
      "hand": "right"
    },
    {
      "midi": 74,
      "time": 220.417,
      "duration": 0.417,
      "velocity": 1,
      "hand": "right"
    },
    {
      "midi": 74,
      "time": 221.667,
      "duration": 0.833,
      "velocity": 1,
      "hand": "right"
    },
    {
      "midi": 74,
      "time": 222.5,
      "duration": 0.417,
      "velocity": 1,
      "hand": "right"
    },
    {
      "midi": 76,
      "time": 222.917,
      "duration": 0.417,
      "velocity": 1,
      "hand": "right"
    },
    {
      "midi": 76,
      "time": 224.167,
      "duration": 0.833,
      "velocity": 1,
      "hand": "right"
    },
    {
      "midi": 76,
      "time": 225,
      "duration": 0.417,
      "velocity": 1,
      "hand": "right"
    },
    {
      "midi": 78,
      "time": 225.417,
      "duration": 0.417,
      "velocity": 1,
      "hand": "right"
    },
    {
      "midi": 80,
      "time": 226.25,
      "duration": 0.417,
      "velocity": 1,
      "hand": "right"
    },
    {
      "midi": 78,
      "time": 226.667,
      "duration": 0.417,
      "velocity": 1,
      "hand": "right"
    },
    {
      "midi": 74,
      "time": 227.5,
      "duration": 0.417,
      "velocity": 1,
      "hand": "right"
    },
    {
      "midi": 69,
      "time": 227.917,
      "duration": 0.833,
      "velocity": 1,
      "hand": "right"
    },
    {
      "midi": 81,
      "time": 228.75,
      "duration": 0.833,
      "velocity": 1,
      "hand": "right"
    },
    {
      "midi": 75,
      "time": 229.583,
      "duration": 0.417,
      "velocity": 1,
      "hand": "right"
    },
    {
      "midi": 76,
      "time": 230,
      "duration": 0.417,
      "velocity": 1,
      "hand": "right"
    },
    {
      "midi": 66,
      "time": 230.417,
      "duration": 0.417,
      "velocity": 1,
      "hand": "right"
    },
    {
      "midi": 64,
      "time": 231.25,
      "duration": 1.667,
      "velocity": 1,
      "hand": "right"
    },
    {
      "midi": 61,
      "time": 232.5,
      "duration": 0.417,
      "velocity": 1,
      "hand": "right"
    },
    {
      "midi": 66,
      "time": 232.917,
      "duration": 0.417,
      "velocity": 1,
      "hand": "right"
    },
    {
      "midi": 64,
      "time": 233.75,
      "duration": 1.667,
      "velocity": 1,
      "hand": "right"
    },
    {
      "midi": 61,
      "time": 235,
      "duration": 0.417,
      "velocity": 1,
      "hand": "right"
    },
    {
      "midi": 66,
      "time": 235.417,
      "duration": 0.417,
      "velocity": 1,
      "hand": "right"
    },
    {
      "midi": 61,
      "time": 236.25,
      "duration": 0.417,
      "velocity": 1,
      "hand": "right"
    },
    {
      "midi": 61,
      "time": 237.917,
      "duration": 0.417,
      "velocity": 1,
      "hand": "right"
    },
    {
      "midi": 60,
      "time": 241.25,
      "duration": 0.417,
      "velocity": 1,
      "hand": "right"
    },
    {
      "midi": 69,
      "time": 241.667,
      "duration": 1.667,
      "velocity": 1,
      "hand": "right"
    },
    {
      "midi": 67,
      "time": 243.333,
      "duration": 0.417,
      "velocity": 1,
      "hand": "right"
    },
    {
      "midi": 65,
      "time": 243.75,
      "duration": 0.417,
      "velocity": 1,
      "hand": "right"
    },
    {
      "midi": 64,
      "time": 244.167,
      "duration": 0.417,
      "velocity": 1,
      "hand": "right"
    },
    {
      "midi": 63,
      "time": 245.417,
      "duration": 0.417,
      "velocity": 1,
      "hand": "right"
    },
    {
      "midi": 69,
      "time": 246.042,
      "duration": 0.417,
      "velocity": 1,
      "hand": "right"
    },
    {
      "midi": 81,
      "time": 246.667,
      "duration": 1.667,
      "velocity": 1,
      "hand": "right"
    },
    {
      "midi": 72,
      "time": 247.5,
      "duration": 2.5,
      "velocity": 1,
      "hand": "right"
    },
    {
      "midi": 79,
      "time": 248.333,
      "duration": 0.417,
      "velocity": 1,
      "hand": "right"
    },
    {
      "midi": 77,
      "time": 248.75,
      "duration": 0.417,
      "velocity": 1,
      "hand": "right"
    },
    {
      "midi": 76,
      "time": 249.167,
      "duration": 0.417,
      "velocity": 1,
      "hand": "right"
    },
    {
      "midi": 64,
      "time": 250.208,
      "duration": 0.417,
      "velocity": 1,
      "hand": "right"
    },
    {
      "midi": 75,
      "time": 250.625,
      "duration": 0.417,
      "velocity": 1,
      "hand": "right"
    },
    {
      "midi": 76,
      "time": 251.042,
      "duration": 0.417,
      "velocity": 1,
      "hand": "right"
    },
    {
      "midi": 92,
      "time": 251.667,
      "duration": 0.417,
      "velocity": 1,
      "hand": "right"
    },
    {
      "midi": 93,
      "time": 252.5,
      "duration": 0.833,
      "velocity": 1,
      "hand": "right"
    },
    {
      "midi": 93,
      "time": 253.333,
      "duration": 0.833,
      "velocity": 1,
      "hand": "right"
    },
    {
      "midi": 93,
      "time": 254.167,
      "duration": 0.833,
      "velocity": 1,
      "hand": "right"
    },
    {
      "midi": 93,
      "time": 255,
      "duration": 2.5,
      "velocity": 1,
      "hand": "right"
    }
  ],
  "notes2Hands": [
    {
      "midi": 66,
      "time": 0,
      "duration": 0.417,
      "velocity": 1,
      "hand": "right"
    },
    {
      "midi": 68,
      "time": 0.417,
      "duration": 0.208,
      "velocity": 1,
      "hand": "right"
    },
    {
      "midi": 69,
      "time": 0.625,
      "duration": 0.208,
      "velocity": 1,
      "hand": "right"
    },
    {
      "midi": 50,
      "time": 0.833,
      "duration": 0.833,
      "velocity": 1,
      "hand": "left"
    },
    {
      "midi": 52,
      "time": 0.833,
      "duration": 1.667,
      "velocity": 1,
      "hand": "left"
    },
    {
      "midi": 59,
      "time": 0.833,
      "duration": 0.833,
      "velocity": 1,
      "hand": "left"
    },
    {
      "midi": 64,
      "time": 0.833,
      "duration": 0.833,
      "velocity": 1,
      "hand": "right"
    },
    {
      "midi": 68,
      "time": 0.833,
      "duration": 0.417,
      "velocity": 1,
      "hand": "right"
    },
    {
      "midi": 71,
      "time": 1.25,
      "duration": 0.417,
      "velocity": 1,
      "hand": "right"
    },
    {
      "midi": 49,
      "time": 1.667,
      "duration": 0.833,
      "velocity": 1,
      "hand": "left"
    },
    {
      "midi": 64,
      "time": 1.667,
      "duration": 1.667,
      "velocity": 1,
      "hand": "right"
    },
    {
      "midi": 69,
      "time": 2.083,
      "duration": 0.417,
      "velocity": 1,
      "hand": "right"
    },
    {
      "midi": 47,
      "time": 2.5,
      "duration": 0.417,
      "velocity": 1,
      "hand": "left"
    },
    {
      "midi": 52,
      "time": 2.5,
      "duration": 0.833,
      "velocity": 1,
      "hand": "left"
    },
    {
      "midi": 68,
      "time": 2.5,
      "duration": 0.417,
      "velocity": 1,
      "hand": "right"
    },
    {
      "midi": 71,
      "time": 2.5,
      "duration": 0.417,
      "velocity": 1,
      "hand": "right"
    },
    {
      "midi": 45,
      "time": 2.917,
      "duration": 0.417,
      "velocity": 1,
      "hand": "left"
    },
    {
      "midi": 69,
      "time": 2.917,
      "duration": 0.417,
      "velocity": 1,
      "hand": "right"
    },
    {
      "midi": 73,
      "time": 2.917,
      "duration": 0.417,
      "velocity": 1,
      "hand": "right"
    },
    {
      "midi": 44,
      "time": 3.333,
      "duration": 0.833,
      "velocity": 1,
      "hand": "left"
    },
    {
      "midi": 52,
      "time": 3.333,
      "duration": 1.667,
      "velocity": 1,
      "hand": "left"
    },
    {
      "midi": 64,
      "time": 3.333,
      "duration": 1.667,
      "velocity": 1,
      "hand": "right"
    },
    {
      "midi": 71,
      "time": 3.333,
      "duration": 0.833,
      "velocity": 1,
      "hand": "right"
    },
    {
      "midi": 76,
      "time": 3.333,
      "duration": 0.833,
      "velocity": 1,
      "hand": "right"
    },
    {
      "midi": 45,
      "time": 4.167,
      "duration": 0.833,
      "velocity": 1,
      "hand": "left"
    },
    {
      "midi": 69,
      "time": 4.167,
      "duration": 0.833,
      "velocity": 1,
      "hand": "right"
    },
    {
      "midi": 73,
      "time": 4.167,
      "duration": 0.833,
      "velocity": 1,
      "hand": "right"
    },
    {
      "midi": 73,
      "time": 5,
      "duration": 0.417,
      "velocity": 1,
      "hand": "right"
    },
    {
      "midi": 74,
      "time": 5.417,
      "duration": 0.208,
      "velocity": 1,
      "hand": "right"
    },
    {
      "midi": 76,
      "time": 5.625,
      "duration": 0.208,
      "velocity": 1,
      "hand": "right"
    },
    {
      "midi": 46,
      "time": 5.833,
      "duration": 0.833,
      "velocity": 1,
      "hand": "left"
    },
    {
      "midi": 54,
      "time": 5.833,
      "duration": 0.833,
      "velocity": 1,
      "hand": "left"
    },
    {
      "midi": 61,
      "time": 5.833,
      "duration": 0.833,
      "velocity": 1,
      "hand": "right"
    },
    {
      "midi": 66,
      "time": 5.833,
      "duration": 0.833,
      "velocity": 1,
      "hand": "right"
    },
    {
      "midi": 73,
      "time": 5.833,
      "duration": 0.417,
      "velocity": 1,
      "hand": "right"
    },
    {
      "midi": 78,
      "time": 5.833,
      "duration": 0.417,
      "velocity": 1,
      "hand": "right"
    },
    {
      "midi": 73,
      "time": 6.25,
      "duration": 0.417,
      "velocity": 1,
      "hand": "right"
    },
    {
      "midi": 47,
      "time": 6.667,
      "duration": 0.833,
      "velocity": 1,
      "hand": "left"
    },
    {
      "midi": 54,
      "time": 6.667,
      "duration": 0.833,
      "velocity": 1,
      "hand": "left"
    },
    {
      "midi": 59,
      "time": 6.667,
      "duration": 0.833,
      "velocity": 1,
      "hand": "left"
    },
    {
      "midi": 66,
      "time": 6.667,
      "duration": 0.833,
      "velocity": 1,
      "hand": "right"
    },
    {
      "midi": 71,
      "time": 6.667,
      "duration": 0.833,
      "velocity": 1,
      "hand": "right"
    },
    {
      "midi": 74,
      "time": 6.667,
      "duration": 0.833,
      "velocity": 1,
      "hand": "right"
    },
    {
      "midi": 66,
      "time": 7.5,
      "duration": 0.417,
      "velocity": 1,
      "hand": "right"
    },
    {
      "midi": 68,
      "time": 7.917,
      "duration": 0.208,
      "velocity": 1,
      "hand": "right"
    },
    {
      "midi": 69,
      "time": 8.125,
      "duration": 0.208,
      "velocity": 1,
      "hand": "right"
    },
    {
      "midi": 47,
      "time": 8.333,
      "duration": 0.833,
      "velocity": 1,
      "hand": "left"
    },
    {
      "midi": 57,
      "time": 8.333,
      "duration": 0.833,
      "velocity": 1,
      "hand": "left"
    },
    {
      "midi": 63,
      "time": 8.333,
      "duration": 0.833,
      "velocity": 1,
      "hand": "right"
    },
    {
      "midi": 73,
      "time": 8.333,
      "duration": 0.417,
      "velocity": 1,
      "hand": "right"
    },
    {
      "midi": 70,
      "time": 8.75,
      "duration": 0.833,
      "velocity": 1,
      "hand": "right"
    },
    {
      "midi": 52,
      "time": 9.167,
      "duration": 0.833,
      "velocity": 1,
      "hand": "left"
    },
    {
      "midi": 56,
      "time": 9.167,
      "duration": 0.833,
      "velocity": 1,
      "hand": "left"
    },
    {
      "midi": 62,
      "time": 9.167,
      "duration": 0.833,
      "velocity": 1,
      "hand": "right"
    },
    {
      "midi": 71,
      "time": 9.583,
      "duration": 0.417,
      "velocity": 1,
      "hand": "right"
    },
    {
      "midi": 66,
      "time": 10,
      "duration": 0.417,
      "velocity": 1,
      "hand": "right"
    },
    {
      "midi": 68,
      "time": 10.417,
      "duration": 0.208,
      "velocity": 1,
      "hand": "right"
    },
    {
      "midi": 69,
      "time": 10.625,
      "duration": 0.208,
      "velocity": 1,
      "hand": "right"
    },
    {
      "midi": 50,
      "time": 10.833,
      "duration": 0.833,
      "velocity": 1,
      "hand": "left"
    },
    {
      "midi": 52,
      "time": 10.833,
      "duration": 1.667,
      "velocity": 1,
      "hand": "left"
    },
    {
      "midi": 59,
      "time": 10.833,
      "duration": 0.833,
      "velocity": 1,
      "hand": "left"
    },
    {
      "midi": 64,
      "time": 10.833,
      "duration": 0.833,
      "velocity": 1,
      "hand": "right"
    },
    {
      "midi": 68,
      "time": 10.833,
      "duration": 0.417,
      "velocity": 1,
      "hand": "right"
    },
    {
      "midi": 71,
      "time": 11.25,
      "duration": 0.417,
      "velocity": 1,
      "hand": "right"
    },
    {
      "midi": 49,
      "time": 11.667,
      "duration": 0.833,
      "velocity": 1,
      "hand": "left"
    },
    {
      "midi": 64,
      "time": 11.667,
      "duration": 1.667,
      "velocity": 1,
      "hand": "right"
    },
    {
      "midi": 69,
      "time": 12.083,
      "duration": 0.417,
      "velocity": 1,
      "hand": "right"
    },
    {
      "midi": 47,
      "time": 12.5,
      "duration": 0.417,
      "velocity": 1,
      "hand": "left"
    },
    {
      "midi": 52,
      "time": 12.5,
      "duration": 0.833,
      "velocity": 1,
      "hand": "left"
    },
    {
      "midi": 68,
      "time": 12.5,
      "duration": 0.417,
      "velocity": 1,
      "hand": "right"
    },
    {
      "midi": 71,
      "time": 12.5,
      "duration": 0.417,
      "velocity": 1,
      "hand": "right"
    },
    {
      "midi": 45,
      "time": 12.917,
      "duration": 0.417,
      "velocity": 1,
      "hand": "left"
    },
    {
      "midi": 69,
      "time": 12.917,
      "duration": 0.417,
      "velocity": 1,
      "hand": "right"
    },
    {
      "midi": 73,
      "time": 12.917,
      "duration": 0.417,
      "velocity": 1,
      "hand": "right"
    },
    {
      "midi": 44,
      "time": 13.333,
      "duration": 0.833,
      "velocity": 1,
      "hand": "left"
    },
    {
      "midi": 52,
      "time": 13.333,
      "duration": 1.667,
      "velocity": 1,
      "hand": "left"
    },
    {
      "midi": 64,
      "time": 13.333,
      "duration": 1.667,
      "velocity": 1,
      "hand": "right"
    },
    {
      "midi": 71,
      "time": 13.333,
      "duration": 0.833,
      "velocity": 1,
      "hand": "right"
    },
    {
      "midi": 76,
      "time": 13.333,
      "duration": 0.833,
      "velocity": 1,
      "hand": "right"
    },
    {
      "midi": 45,
      "time": 14.167,
      "duration": 0.833,
      "velocity": 1,
      "hand": "left"
    },
    {
      "midi": 69,
      "time": 14.167,
      "duration": 0.833,
      "velocity": 1,
      "hand": "right"
    },
    {
      "midi": 73,
      "time": 14.167,
      "duration": 0.833,
      "velocity": 1,
      "hand": "right"
    },
    {
      "midi": 73,
      "time": 15,
      "duration": 0.417,
      "velocity": 1,
      "hand": "right"
    },
    {
      "midi": 75,
      "time": 15.417,
      "duration": 0.208,
      "velocity": 1,
      "hand": "right"
    },
    {
      "midi": 76,
      "time": 15.625,
      "duration": 0.208,
      "velocity": 1,
      "hand": "right"
    },
    {
      "midi": 47,
      "time": 15.833,
      "duration": 2.5,
      "velocity": 1,
      "hand": "left"
    },
    {
      "midi": 64,
      "time": 15.833,
      "duration": 0.833,
      "velocity": 1,
      "hand": "right"
    },
    {
      "midi": 68,
      "time": 15.833,
      "duration": 0.417,
      "velocity": 1,
      "hand": "right"
    },
    {
      "midi": 73,
      "time": 16.25,
      "duration": 0.417,
      "velocity": 1,
      "hand": "right"
    },
    {
      "midi": 57,
      "time": 16.667,
      "duration": 0.417,
      "velocity": 1,
      "hand": "left"
    },
    {
      "midi": 63,
      "time": 16.667,
      "duration": 0.833,
      "velocity": 1,
      "hand": "right"
    },
    {
      "midi": 66,
      "time": 16.667,
      "duration": 0.833,
      "velocity": 1,
      "hand": "right"
    },
    {
      "midi": 71,
      "time": 16.667,
      "duration": 0.833,
      "velocity": 1,
      "hand": "right"
    },
    {
      "midi": 59,
      "time": 17.083,
      "duration": 0.417,
      "velocity": 1,
      "hand": "left"
    },
    {
      "midi": 56,
      "time": 17.5,
      "duration": 0.833,
      "velocity": 1,
      "hand": "left"
    },
    {
      "midi": 64,
      "time": 17.5,
      "duration": 0.833,
      "velocity": 1,
      "hand": "right"
    },
    {
      "midi": 71,
      "time": 17.5,
      "duration": 0.833,
      "velocity": 1,
      "hand": "right"
    },
    {
      "midi": 73,
      "time": 17.5,
      "duration": 0.417,
      "velocity": 1,
      "hand": "right"
    },
    {
      "midi": 75,
      "time": 17.917,
      "duration": 0.208,
      "velocity": 1,
      "hand": "right"
    },
    {
      "midi": 76,
      "time": 18.125,
      "duration": 0.208,
      "velocity": 1,
      "hand": "right"
    },
    {
      "midi": 47,
      "time": 18.333,
      "duration": 2.083,
      "velocity": 1,
      "hand": "left"
    },
    {
      "midi": 64,
      "time": 18.333,
      "duration": 0.833,
      "velocity": 1,
      "hand": "right"
    },
    {
      "midi": 68,
      "time": 18.333,
      "duration": 0.417,
      "velocity": 1,
      "hand": "right"
    },
    {
      "midi": 73,
      "time": 18.75,
      "duration": 0.417,
      "velocity": 1,
      "hand": "right"
    },
    {
      "midi": 57,
      "time": 19.167,
      "duration": 0.417,
      "velocity": 1,
      "hand": "left"
    },
    {
      "midi": 63,
      "time": 19.167,
      "duration": 0.833,
      "velocity": 1,
      "hand": "right"
    },
    {
      "midi": 66,
      "time": 19.167,
      "duration": 0.833,
      "velocity": 1,
      "hand": "right"
    },
    {
      "midi": 71,
      "time": 19.167,
      "duration": 0.833,
      "velocity": 1,
      "hand": "right"
    },
    {
      "midi": 59,
      "time": 19.583,
      "duration": 0.417,
      "velocity": 1,
      "hand": "left"
    },
    {
      "midi": 56,
      "time": 20,
      "duration": 0.417,
      "velocity": 1,
      "hand": "left"
    },
    {
      "midi": 64,
      "time": 20,
      "duration": 0.417,
      "velocity": 1,
      "hand": "right"
    },
    {
      "midi": 71,
      "time": 20,
      "duration": 0.417,
      "velocity": 1,
      "hand": "right"
    },
    {
      "midi": 73,
      "time": 20,
      "duration": 0.417,
      "velocity": 1,
      "hand": "right"
    },
    {
      "midi": 75,
      "time": 20.417,
      "duration": 0.208,
      "velocity": 1,
      "hand": "right"
    },
    {
      "midi": 76,
      "time": 20.625,
      "duration": 0.208,
      "velocity": 1,
      "hand": "right"
    },
    {
      "midi": 80,
      "time": 20.833,
      "duration": 0.417,
      "velocity": 1,
      "hand": "right"
    },
    {
      "midi": 76,
      "time": 21.25,
      "duration": 0.417,
      "velocity": 1,
      "hand": "right"
    },
    {
      "midi": 75,
      "time": 21.667,
      "duration": 0.417,
      "velocity": 1,
      "hand": "right"
    },
    {
      "midi": 73,
      "time": 22.083,
      "duration": 0.417,
      "velocity": 1,
      "hand": "right"
    },
    {
      "midi": 54,
      "time": 22.5,
      "duration": 0.417,
      "velocity": 1,
      "hand": "left"
    },
    {
      "midi": 63,
      "time": 22.5,
      "duration": 0.833,
      "velocity": 1,
      "hand": "right"
    },
    {
      "midi": 66,
      "time": 22.5,
      "duration": 0.833,
      "velocity": 1,
      "hand": "right"
    },
    {
      "midi": 73,
      "time": 22.5,
      "duration": 0.833,
      "velocity": 1,
      "hand": "right"
    },
    {
      "midi": 56,
      "time": 22.917,
      "duration": 0.208,
      "velocity": 1,
      "hand": "left"
    },
    {
      "midi": 57,
      "time": 23.125,
      "duration": 0.208,
      "velocity": 1,
      "hand": "left"
    },
    {
      "midi": 47,
      "time": 23.333,
      "duration": 0.833,
      "velocity": 1,
      "hand": "left"
    },
    {
      "midi": 61,
      "time": 23.333,
      "duration": 0.417,
      "velocity": 1,
      "hand": "right"
    },
    {
      "midi": 63,
      "time": 23.333,
      "duration": 0.833,
      "velocity": 1,
      "hand": "right"
    },
    {
      "midi": 66,
      "time": 23.333,
      "duration": 0.833,
      "velocity": 1,
      "hand": "right"
    },
    {
      "midi": 59,
      "time": 23.75,
      "duration": 0.417,
      "velocity": 1,
      "hand": "left"
    },
    {
      "midi": 52,
      "time": 24.167,
      "duration": 0.833,
      "velocity": 1,
      "hand": "left"
    },
    {
      "midi": 57,
      "time": 24.167,
      "duration": 0.417,
      "velocity": 1,
      "hand": "left"
    },
    {
      "midi": 59,
      "time": 24.167,
      "duration": 0.833,
      "velocity": 1,
      "hand": "left"
    },
    {
      "midi": 64,
      "time": 24.167,
      "duration": 0.833,
      "velocity": 1,
      "hand": "right"
    },
    {
      "midi": 56,
      "time": 24.583,
      "duration": 0.417,
      "velocity": 1,
      "hand": "left"
    },
    {
      "midi": 40,
      "time": 25,
      "duration": 0.417,
      "velocity": 1,
      "hand": "left"
    },
    {
      "midi": 74,
      "time": 25,
      "duration": 0.417,
      "velocity": 1,
      "hand": "right"
    },
    {
      "midi": 52,
      "time": 25.208,
      "duration": 0.208,
      "velocity": 1,
      "hand": "left"
    },
    {
      "midi": 54,
      "time": 25.417,
      "duration": 0.208,
      "velocity": 1,
      "hand": "left"
    },
    {
      "midi": 73,
      "time": 25.417,
      "duration": 0.208,
      "velocity": 1,
      "hand": "right"
    },
    {
      "midi": 56,
      "time": 25.625,
      "duration": 0.208,
      "velocity": 1,
      "hand": "left"
    },
    {
      "midi": 71,
      "time": 25.625,
      "duration": 0.208,
      "velocity": 1,
      "hand": "right"
    },
    {
      "midi": 52,
      "time": 25.833,
      "duration": 1.667,
      "velocity": 1,
      "hand": "left"
    },
    {
      "midi": 57,
      "time": 25.833,
      "duration": 0.208,
      "velocity": 1,
      "hand": "left"
    },
    {
      "midi": 63,
      "time": 25.833,
      "duration": 0.833,
      "velocity": 1,
      "hand": "right"
    },
    {
      "midi": 66,
      "time": 25.833,
      "duration": 0.417,
      "velocity": 1,
      "hand": "right"
    },
    {
      "midi": 59,
      "time": 26.042,
      "duration": 0.208,
      "velocity": 1,
      "hand": "left"
    },
    {
      "midi": 60,
      "time": 26.25,
      "duration": 0.833,
      "velocity": 1,
      "hand": "right"
    },
    {
      "midi": 69,
      "time": 26.25,
      "duration": 0.417,
      "velocity": 1,
      "hand": "right"
    },
    {
      "midi": 64,
      "time": 26.667,
      "duration": 0.833,
      "velocity": 1,
      "hand": "right"
    },
    {
      "midi": 68,
      "time": 26.667,
      "duration": 0.833,
      "velocity": 1,
      "hand": "right"
    },
    {
      "midi": 59,
      "time": 27.083,
      "duration": 0.417,
      "velocity": 1,
      "hand": "left"
    },
    {
      "midi": 45,
      "time": 27.5,
      "duration": 0.417,
      "velocity": 1,
      "hand": "left"
    },
    {
      "midi": 52,
      "time": 27.5,
      "duration": 1.667,
      "velocity": 1,
      "hand": "left"
    },
    {
      "midi": 61,
      "time": 27.5,
      "duration": 0.417,
      "velocity": 1,
      "hand": "right"
    },
    {
      "midi": 66,
      "time": 27.5,
      "duration": 0.417,
      "velocity": 1,
      "hand": "right"
    },
    {
      "midi": 44,
      "time": 27.917,
      "duration": 0.417,
      "velocity": 1,
      "hand": "left"
    },
    {
      "midi": 60,
      "time": 27.917,
      "duration": 0.417,
      "velocity": 1,
      "hand": "right"
    },
    {
      "midi": 68,
      "time": 27.917,
      "duration": 0.417,
      "velocity": 1,
      "hand": "right"
    },
    {
      "midi": 45,
      "time": 28.333,
      "duration": 0.417,
      "velocity": 1,
      "hand": "left"
    },
    {
      "midi": 61,
      "time": 28.333,
      "duration": 0.417,
      "velocity": 1,
      "hand": "right"
    },
    {
      "midi": 66,
      "time": 28.333,
      "duration": 0.417,
      "velocity": 1,
      "hand": "right"
    },
    {
      "midi": 44,
      "time": 28.75,
      "duration": 0.417,
      "velocity": 1,
      "hand": "left"
    },
    {
      "midi": 60,
      "time": 28.75,
      "duration": 0.417,
      "velocity": 1,
      "hand": "right"
    },
    {
      "midi": 68,
      "time": 28.75,
      "duration": 0.417,
      "velocity": 1,
      "hand": "right"
    },
    {
      "midi": 52,
      "time": 29.167,
      "duration": 0.833,
      "velocity": 1,
      "hand": "left"
    },
    {
      "midi": 57,
      "time": 29.167,
      "duration": 0.417,
      "velocity": 1,
      "hand": "left"
    },
    {
      "midi": 59,
      "time": 29.167,
      "duration": 0.833,
      "velocity": 1,
      "hand": "left"
    },
    {
      "midi": 64,
      "time": 29.167,
      "duration": 0.833,
      "velocity": 1,
      "hand": "right"
    },
    {
      "midi": 56,
      "time": 29.583,
      "duration": 0.417,
      "velocity": 1,
      "hand": "left"
    },
    {
      "midi": 40,
      "time": 30,
      "duration": 0.417,
      "velocity": 1,
      "hand": "left"
    },
    {
      "midi": 74,
      "time": 30,
      "duration": 0.417,
      "velocity": 1,
      "hand": "right"
    },
    {
      "midi": 52,
      "time": 30.208,
      "duration": 0.208,
      "velocity": 1,
      "hand": "left"
    },
    {
      "midi": 54,
      "time": 30.417,
      "duration": 0.208,
      "velocity": 1,
      "hand": "left"
    },
    {
      "midi": 73,
      "time": 30.417,
      "duration": 0.208,
      "velocity": 1,
      "hand": "right"
    },
    {
      "midi": 56,
      "time": 30.625,
      "duration": 0.208,
      "velocity": 1,
      "hand": "left"
    },
    {
      "midi": 71,
      "time": 30.625,
      "duration": 0.208,
      "velocity": 1,
      "hand": "right"
    },
    {
      "midi": 52,
      "time": 30.833,
      "duration": 1.667,
      "velocity": 1,
      "hand": "left"
    },
    {
      "midi": 57,
      "time": 30.833,
      "duration": 0.208,
      "velocity": 1,
      "hand": "left"
    },
    {
      "midi": 63,
      "time": 30.833,
      "duration": 0.833,
      "velocity": 1,
      "hand": "right"
    },
    {
      "midi": 66,
      "time": 30.833,
      "duration": 0.417,
      "velocity": 1,
      "hand": "right"
    },
    {
      "midi": 59,
      "time": 31.042,
      "duration": 0.208,
      "velocity": 1,
      "hand": "left"
    },
    {
      "midi": 60,
      "time": 31.25,
      "duration": 0.833,
      "velocity": 1,
      "hand": "right"
    },
    {
      "midi": 69,
      "time": 31.25,
      "duration": 0.417,
      "velocity": 1,
      "hand": "right"
    },
    {
      "midi": 64,
      "time": 31.667,
      "duration": 0.833,
      "velocity": 1,
      "hand": "right"
    },
    {
      "midi": 68,
      "time": 31.667,
      "duration": 0.833,
      "velocity": 1,
      "hand": "right"
    },
    {
      "midi": 59,
      "time": 32.083,
      "duration": 0.417,
      "velocity": 1,
      "hand": "left"
    },
    {
      "midi": 45,
      "time": 32.5,
      "duration": 0.417,
      "velocity": 1,
      "hand": "left"
    },
    {
      "midi": 52,
      "time": 32.5,
      "duration": 1.667,
      "velocity": 1,
      "hand": "left"
    },
    {
      "midi": 61,
      "time": 32.5,
      "duration": 0.417,
      "velocity": 1,
      "hand": "right"
    },
    {
      "midi": 66,
      "time": 32.5,
      "duration": 0.417,
      "velocity": 1,
      "hand": "right"
    },
    {
      "midi": 44,
      "time": 32.917,
      "duration": 0.417,
      "velocity": 1,
      "hand": "left"
    },
    {
      "midi": 60,
      "time": 32.917,
      "duration": 0.417,
      "velocity": 1,
      "hand": "right"
    },
    {
      "midi": 68,
      "time": 32.917,
      "duration": 0.417,
      "velocity": 1,
      "hand": "right"
    },
    {
      "midi": 45,
      "time": 33.333,
      "duration": 0.417,
      "velocity": 1,
      "hand": "left"
    },
    {
      "midi": 61,
      "time": 33.333,
      "duration": 0.417,
      "velocity": 1,
      "hand": "right"
    },
    {
      "midi": 66,
      "time": 33.333,
      "duration": 0.417,
      "velocity": 1,
      "hand": "right"
    },
    {
      "midi": 44,
      "time": 33.75,
      "duration": 0.417,
      "velocity": 1,
      "hand": "left"
    },
    {
      "midi": 60,
      "time": 33.75,
      "duration": 0.417,
      "velocity": 1,
      "hand": "right"
    },
    {
      "midi": 68,
      "time": 33.75,
      "duration": 0.417,
      "velocity": 1,
      "hand": "right"
    },
    {
      "midi": 52,
      "time": 34.167,
      "duration": 0.833,
      "velocity": 1,
      "hand": "left"
    },
    {
      "midi": 57,
      "time": 34.167,
      "duration": 0.417,
      "velocity": 1,
      "hand": "left"
    },
    {
      "midi": 59,
      "time": 34.167,
      "duration": 0.833,
      "velocity": 1,
      "hand": "left"
    },
    {
      "midi": 64,
      "time": 34.167,
      "duration": 0.833,
      "velocity": 1,
      "hand": "right"
    },
    {
      "midi": 56,
      "time": 34.583,
      "duration": 0.417,
      "velocity": 1,
      "hand": "left"
    },
    {
      "midi": 49,
      "time": 35,
      "duration": 0.417,
      "velocity": 1,
      "hand": "left"
    },
    {
      "midi": 56,
      "time": 35,
      "duration": 1.667,
      "velocity": 1,
      "hand": "left"
    },
    {
      "midi": 64,
      "time": 35,
      "duration": 0.417,
      "velocity": 1,
      "hand": "right"
    },
    {
      "midi": 70,
      "time": 35,
      "duration": 0.417,
      "velocity": 1,
      "hand": "right"
    },
    {
      "midi": 48,
      "time": 35.417,
      "duration": 0.417,
      "velocity": 1,
      "hand": "left"
    },
    {
      "midi": 63,
      "time": 35.417,
      "duration": 0.417,
      "velocity": 1,
      "hand": "right"
    },
    {
      "midi": 72,
      "time": 35.417,
      "duration": 0.417,
      "velocity": 1,
      "hand": "right"
    },
    {
      "midi": 49,
      "time": 35.833,
      "duration": 0.417,
      "velocity": 1,
      "hand": "left"
    },
    {
      "midi": 64,
      "time": 35.833,
      "duration": 0.417,
      "velocity": 1,
      "hand": "right"
    },
    {
      "midi": 70,
      "time": 35.833,
      "duration": 0.417,
      "velocity": 1,
      "hand": "right"
    },
    {
      "midi": 48,
      "time": 36.25,
      "duration": 0.417,
      "velocity": 1,
      "hand": "left"
    },
    {
      "midi": 63,
      "time": 36.25,
      "duration": 0.417,
      "velocity": 1,
      "hand": "right"
    },
    {
      "midi": 72,
      "time": 36.25,
      "duration": 0.417,
      "velocity": 1,
      "hand": "right"
    },
    {
      "midi": 56,
      "time": 36.667,
      "duration": 0.833,
      "velocity": 1,
      "hand": "left"
    },
    {
      "midi": 61,
      "time": 36.667,
      "duration": 0.417,
      "velocity": 1,
      "hand": "right"
    },
    {
      "midi": 63,
      "time": 36.667,
      "duration": 0.833,
      "velocity": 1,
      "hand": "right"
    },
    {
      "midi": 68,
      "time": 36.667,
      "duration": 0.833,
      "velocity": 1,
      "hand": "right"
    },
    {
      "midi": 60,
      "time": 37.083,
      "duration": 0.417,
      "velocity": 1,
      "hand": "right"
    },
    {
      "midi": 53,
      "time": 37.5,
      "duration": 0.417,
      "velocity": 1,
      "hand": "left"
    },
    {
      "midi": 60,
      "time": 37.5,
      "duration": 1.667,
      "velocity": 1,
      "hand": "right"
    },
    {
      "midi": 68,
      "time": 37.5,
      "duration": 0.417,
      "velocity": 1,
      "hand": "right"
    },
    {
      "midi": 74,
      "time": 37.5,
      "duration": 0.417,
      "velocity": 1,
      "hand": "right"
    },
    {
      "midi": 52,
      "time": 37.917,
      "duration": 0.417,
      "velocity": 1,
      "hand": "left"
    },
    {
      "midi": 67,
      "time": 37.917,
      "duration": 0.417,
      "velocity": 1,
      "hand": "right"
    },
    {
      "midi": 76,
      "time": 37.917,
      "duration": 0.417,
      "velocity": 1,
      "hand": "right"
    },
    {
      "midi": 53,
      "time": 38.333,
      "duration": 0.417,
      "velocity": 1,
      "hand": "left"
    },
    {
      "midi": 68,
      "time": 38.333,
      "duration": 0.417,
      "velocity": 1,
      "hand": "right"
    },
    {
      "midi": 74,
      "time": 38.333,
      "duration": 0.417,
      "velocity": 1,
      "hand": "right"
    },
    {
      "midi": 52,
      "time": 38.75,
      "duration": 0.417,
      "velocity": 1,
      "hand": "left"
    },
    {
      "midi": 67,
      "time": 38.75,
      "duration": 0.417,
      "velocity": 1,
      "hand": "right"
    },
    {
      "midi": 76,
      "time": 38.75,
      "duration": 0.417,
      "velocity": 1,
      "hand": "right"
    },
    {
      "midi": 56,
      "time": 39.167,
      "duration": 0.417,
      "velocity": 1,
      "hand": "left"
    },
    {
      "midi": 60,
      "time": 39.167,
      "duration": 0.417,
      "velocity": 1,
      "hand": "right"
    },
    {
      "midi": 63,
      "time": 39.167,
      "duration": 0.417,
      "velocity": 1,
      "hand": "right"
    },
    {
      "midi": 66,
      "time": 39.167,
      "duration": 0.417,
      "velocity": 1,
      "hand": "right"
    },
    {
      "midi": 72,
      "time": 39.167,
      "duration": 0.833,
      "velocity": 1,
      "hand": "right"
    },
    {
      "midi": 48,
      "time": 39.583,
      "duration": 0.417,
      "velocity": 1,
      "hand": "left"
    },
    {
      "midi": 55,
      "time": 39.583,
      "duration": 0.417,
      "velocity": 1,
      "hand": "left"
    },
    {
      "midi": 64,
      "time": 39.583,
      "duration": 0.417,
      "velocity": 1,
      "hand": "right"
    },
    {
      "midi": 67,
      "time": 39.583,
      "duration": 0.417,
      "velocity": 1,
      "hand": "right"
    },
    {
      "midi": 53,
      "time": 40,
      "duration": 0.417,
      "velocity": 1,
      "hand": "left"
    },
    {
      "midi": 60,
      "time": 40,
      "duration": 1.667,
      "velocity": 1,
      "hand": "right"
    },
    {
      "midi": 68,
      "time": 40,
      "duration": 0.417,
      "velocity": 1,
      "hand": "right"
    },
    {
      "midi": 74,
      "time": 40,
      "duration": 0.208,
      "velocity": 1,
      "hand": "right"
    },
    {
      "midi": 77,
      "time": 40.208,
      "duration": 0.208,
      "velocity": 1,
      "hand": "right"
    },
    {
      "midi": 55,
      "time": 40.417,
      "duration": 0.417,
      "velocity": 1,
      "hand": "left"
    },
    {
      "midi": 67,
      "time": 40.417,
      "duration": 0.417,
      "velocity": 1,
      "hand": "right"
    },
    {
      "midi": 72,
      "time": 40.417,
      "duration": 0.417,
      "velocity": 1,
      "hand": "right"
    },
    {
      "midi": 76,
      "time": 40.417,
      "duration": 0.417,
      "velocity": 1,
      "hand": "right"
    },
    {
      "midi": 53,
      "time": 40.833,
      "duration": 0.417,
      "velocity": 1,
      "hand": "left"
    },
    {
      "midi": 68,
      "time": 40.833,
      "duration": 0.417,
      "velocity": 1,
      "hand": "right"
    },
    {
      "midi": 74,
      "time": 40.833,
      "duration": 0.208,
      "velocity": 1,
      "hand": "right"
    },
    {
      "midi": 77,
      "time": 41.042,
      "duration": 0.208,
      "velocity": 1,
      "hand": "right"
    },
    {
      "midi": 55,
      "time": 41.25,
      "duration": 0.417,
      "velocity": 1,
      "hand": "left"
    },
    {
      "midi": 67,
      "time": 41.25,
      "duration": 0.417,
      "velocity": 1,
      "hand": "right"
    },
    {
      "midi": 72,
      "time": 41.25,
      "duration": 0.417,
      "velocity": 1,
      "hand": "right"
    },
    {
      "midi": 76,
      "time": 41.25,
      "duration": 0.417,
      "velocity": 1,
      "hand": "right"
    },
    {
      "midi": 56,
      "time": 41.667,
      "duration": 0.417,
      "velocity": 1,
      "hand": "left"
    },
    {
      "midi": 60,
      "time": 41.667,
      "duration": 0.417,
      "velocity": 1,
      "hand": "right"
    },
    {
      "midi": 63,
      "time": 41.667,
      "duration": 0.417,
      "velocity": 1,
      "hand": "right"
    },
    {
      "midi": 66,
      "time": 41.667,
      "duration": 0.417,
      "velocity": 1,
      "hand": "right"
    },
    {
      "midi": 72,
      "time": 41.667,
      "duration": 0.833,
      "velocity": 1,
      "hand": "right"
    },
    {
      "midi": 48,
      "time": 42.083,
      "duration": 0.417,
      "velocity": 1,
      "hand": "left"
    },
    {
      "midi": 55,
      "time": 42.083,
      "duration": 0.417,
      "velocity": 1,
      "hand": "left"
    },
    {
      "midi": 64,
      "time": 42.083,
      "duration": 0.417,
      "velocity": 1,
      "hand": "right"
    },
    {
      "midi": 67,
      "time": 42.083,
      "duration": 0.417,
      "velocity": 1,
      "hand": "right"
    },
    {
      "midi": 53,
      "time": 42.5,
      "duration": 0.417,
      "velocity": 1,
      "hand": "left"
    },
    {
      "midi": 60,
      "time": 42.5,
      "duration": 1.667,
      "velocity": 1,
      "hand": "right"
    },
    {
      "midi": 68,
      "time": 42.5,
      "duration": 0.417,
      "velocity": 1,
      "hand": "right"
    },
    {
      "midi": 74,
      "time": 42.5,
      "duration": 0.208,
      "velocity": 1,
      "hand": "right"
    },
    {
      "midi": 77,
      "time": 42.708,
      "duration": 0.208,
      "velocity": 1,
      "hand": "right"
    },
    {
      "midi": 55,
      "time": 42.917,
      "duration": 0.417,
      "velocity": 1,
      "hand": "left"
    },
    {
      "midi": 67,
      "time": 42.917,
      "duration": 0.417,
      "velocity": 1,
      "hand": "right"
    },
    {
      "midi": 72,
      "time": 42.917,
      "duration": 0.417,
      "velocity": 1,
      "hand": "right"
    },
    {
      "midi": 76,
      "time": 42.917,
      "duration": 0.417,
      "velocity": 1,
      "hand": "right"
    },
    {
      "midi": 53,
      "time": 43.333,
      "duration": 0.417,
      "velocity": 1,
      "hand": "left"
    },
    {
      "midi": 68,
      "time": 43.333,
      "duration": 0.417,
      "velocity": 1,
      "hand": "right"
    },
    {
      "midi": 74,
      "time": 43.333,
      "duration": 0.208,
      "velocity": 1,
      "hand": "right"
    },
    {
      "midi": 77,
      "time": 43.542,
      "duration": 0.208,
      "velocity": 1,
      "hand": "right"
    },
    {
      "midi": 55,
      "time": 43.75,
      "duration": 0.417,
      "velocity": 1,
      "hand": "left"
    },
    {
      "midi": 67,
      "time": 43.75,
      "duration": 0.417,
      "velocity": 1,
      "hand": "right"
    },
    {
      "midi": 72,
      "time": 43.75,
      "duration": 0.417,
      "velocity": 1,
      "hand": "right"
    },
    {
      "midi": 76,
      "time": 43.75,
      "duration": 0.417,
      "velocity": 1,
      "hand": "right"
    },
    {
      "midi": 56,
      "time": 44.167,
      "duration": 0.417,
      "velocity": 1,
      "hand": "left"
    },
    {
      "midi": 60,
      "time": 44.167,
      "duration": 0.417,
      "velocity": 1,
      "hand": "right"
    },
    {
      "midi": 63,
      "time": 44.167,
      "duration": 0.417,
      "velocity": 1,
      "hand": "right"
    },
    {
      "midi": 66,
      "time": 44.167,
      "duration": 0.417,
      "velocity": 1,
      "hand": "right"
    },
    {
      "midi": 72,
      "time": 44.167,
      "duration": 0.833,
      "velocity": 1,
      "hand": "right"
    },
    {
      "midi": 48,
      "time": 44.583,
      "duration": 0.417,
      "velocity": 1,
      "hand": "left"
    },
    {
      "midi": 55,
      "time": 44.583,
      "duration": 0.417,
      "velocity": 1,
      "hand": "left"
    },
    {
      "midi": 64,
      "time": 44.583,
      "duration": 0.417,
      "velocity": 1,
      "hand": "right"
    },
    {
      "midi": 67,
      "time": 44.583,
      "duration": 0.417,
      "velocity": 1,
      "hand": "right"
    },
    {
      "midi": 53,
      "time": 45,
      "duration": 0.417,
      "velocity": 1,
      "hand": "left"
    },
    {
      "midi": 60,
      "time": 45,
      "duration": 0.417,
      "velocity": 1,
      "hand": "right"
    },
    {
      "midi": 68,
      "time": 45,
      "duration": 0.417,
      "velocity": 1,
      "hand": "right"
    },
    {
      "midi": 74,
      "time": 45,
      "duration": 0.417,
      "velocity": 1,
      "hand": "right"
    },
    {
      "midi": 48,
      "time": 45.417,
      "duration": 0.417,
      "velocity": 1,
      "hand": "left"
    },
    {
      "midi": 67,
      "time": 45.417,
      "duration": 0.417,
      "velocity": 1,
      "hand": "right"
    },
    {
      "midi": 72,
      "time": 45.417,
      "duration": 0.417,
      "velocity": 1,
      "hand": "right"
    },
    {
      "midi": 76,
      "time": 45.417,
      "duration": 0.417,
      "velocity": 1,
      "hand": "right"
    },
    {
      "midi": 57,
      "time": 45.833,
      "duration": 0.417,
      "velocity": 1,
      "hand": "left"
    },
    {
      "midi": 61,
      "time": 45.833,
      "duration": 0.417,
      "velocity": 1,
      "hand": "right"
    },
    {
      "midi": 70,
      "time": 45.833,
      "duration": 0.417,
      "velocity": 1,
      "hand": "right"
    },
    {
      "midi": 79,
      "time": 45.833,
      "duration": 0.417,
      "velocity": 1,
      "hand": "right"
    },
    {
      "midi": 62,
      "time": 46.25,
      "duration": 0.417,
      "velocity": 1,
      "hand": "right"
    },
    {
      "midi": 69,
      "time": 46.25,
      "duration": 0.417,
      "velocity": 1,
      "hand": "right"
    },
    {
      "midi": 78,
      "time": 46.25,
      "duration": 0.417,
      "velocity": 1,
      "hand": "right"
    },
    {
      "midi": 55,
      "time": 46.667,
      "duration": 0.417,
      "velocity": 1,
      "hand": "left"
    },
    {
      "midi": 59,
      "time": 46.667,
      "duration": 0.417,
      "velocity": 1,
      "hand": "left"
    },
    {
      "midi": 68,
      "time": 46.667,
      "duration": 0.417,
      "velocity": 1,
      "hand": "right"
    },
    {
      "midi": 77,
      "time": 46.667,
      "duration": 0.417,
      "velocity": 1,
      "hand": "right"
    },
    {
      "midi": 60,
      "time": 47.083,
      "duration": 0.417,
      "velocity": 1,
      "hand": "right"
    },
    {
      "midi": 67,
      "time": 47.083,
      "duration": 0.417,
      "velocity": 1,
      "hand": "right"
    },
    {
      "midi": 76,
      "time": 47.083,
      "duration": 0.417,
      "velocity": 1,
      "hand": "right"
    },
    {
      "midi": 54,
      "time": 47.5,
      "duration": 0.417,
      "velocity": 1,
      "hand": "left"
    },
    {
      "midi": 58,
      "time": 47.5,
      "duration": 0.417,
      "velocity": 1,
      "hand": "left"
    },
    {
      "midi": 67,
      "time": 47.5,
      "duration": 0.417,
      "velocity": 1,
      "hand": "right"
    },
    {
      "midi": 76,
      "time": 47.5,
      "duration": 0.417,
      "velocity": 1,
      "hand": "right"
    },
    {
      "midi": 59,
      "time": 47.917,
      "duration": 0.417,
      "velocity": 1,
      "hand": "left"
    },
    {
      "midi": 66,
      "time": 47.917,
      "duration": 0.417,
      "velocity": 1,
      "hand": "right"
    },
    {
      "midi": 75,
      "time": 47.917,
      "duration": 0.417,
      "velocity": 1,
      "hand": "right"
    },
    {
      "midi": 55,
      "time": 48.333,
      "duration": 0.417,
      "velocity": 1,
      "hand": "left"
    },
    {
      "midi": 64,
      "time": 48.333,
      "duration": 0.417,
      "velocity": 1,
      "hand": "right"
    },
    {
      "midi": 70,
      "time": 48.333,
      "duration": 0.208,
      "velocity": 1,
      "hand": "right"
    },
    {
      "midi": 73,
      "time": 48.542,
      "duration": 0.208,
      "velocity": 1,
      "hand": "right"
    },
    {
      "midi": 47,
      "time": 48.75,
      "duration": 0.417,
      "velocity": 1,
      "hand": "left"
    },
    {
      "midi": 54,
      "time": 48.75,
      "duration": 0.417,
      "velocity": 1,
      "hand": "left"
    },
    {
      "midi": 63,
      "time": 48.75,
      "duration": 0.417,
      "velocity": 1,
      "hand": "right"
    },
    {
      "midi": 66,
      "time": 48.75,
      "duration": 0.417,
      "velocity": 1,
      "hand": "right"
    },
    {
      "midi": 71,
      "time": 48.75,
      "duration": 0.417,
      "velocity": 1,
      "hand": "right"
    },
    {
      "midi": 54,
      "time": 49.167,
      "duration": 0.417,
      "velocity": 1,
      "hand": "left"
    },
    {
      "midi": 58,
      "time": 49.167,
      "duration": 0.417,
      "velocity": 1,
      "hand": "left"
    },
    {
      "midi": 67,
      "time": 49.167,
      "duration": 0.417,
      "velocity": 1,
      "hand": "right"
    },
    {
      "midi": 76,
      "time": 49.167,
      "duration": 0.417,
      "velocity": 1,
      "hand": "right"
    },
    {
      "midi": 59,
      "time": 49.583,
      "duration": 0.417,
      "velocity": 1,
      "hand": "left"
    },
    {
      "midi": 66,
      "time": 49.583,
      "duration": 0.417,
      "velocity": 1,
      "hand": "right"
    },
    {
      "midi": 75,
      "time": 49.583,
      "duration": 0.417,
      "velocity": 1,
      "hand": "right"
    },
    {
      "midi": 55,
      "time": 50,
      "duration": 0.417,
      "velocity": 1,
      "hand": "left"
    },
    {
      "midi": 64,
      "time": 50,
      "duration": 0.417,
      "velocity": 1,
      "hand": "right"
    },
    {
      "midi": 70,
      "time": 50,
      "duration": 0.208,
      "velocity": 1,
      "hand": "right"
    },
    {
      "midi": 73,
      "time": 50.208,
      "duration": 0.208,
      "velocity": 1,
      "hand": "right"
    },
    {
      "midi": 47,
      "time": 50.417,
      "duration": 0.417,
      "velocity": 1,
      "hand": "left"
    },
    {
      "midi": 54,
      "time": 50.417,
      "duration": 0.417,
      "velocity": 1,
      "hand": "left"
    },
    {
      "midi": 63,
      "time": 50.417,
      "duration": 0.417,
      "velocity": 1,
      "hand": "right"
    },
    {
      "midi": 66,
      "time": 50.417,
      "duration": 0.417,
      "velocity": 1,
      "hand": "right"
    },
    {
      "midi": 71,
      "time": 50.417,
      "duration": 0.417,
      "velocity": 1,
      "hand": "right"
    },
    {
      "midi": 55,
      "time": 50.833,
      "duration": 0.417,
      "velocity": 1,
      "hand": "left"
    },
    {
      "midi": 64,
      "time": 50.833,
      "duration": 0.417,
      "velocity": 1,
      "hand": "right"
    },
    {
      "midi": 70,
      "time": 50.833,
      "duration": 0.208,
      "velocity": 1,
      "hand": "right"
    },
    {
      "midi": 73,
      "time": 51.042,
      "duration": 0.208,
      "velocity": 1,
      "hand": "right"
    },
    {
      "midi": 47,
      "time": 51.25,
      "duration": 0.417,
      "velocity": 1,
      "hand": "left"
    },
    {
      "midi": 54,
      "time": 51.25,
      "duration": 0.417,
      "velocity": 1,
      "hand": "left"
    },
    {
      "midi": 63,
      "time": 51.25,
      "duration": 0.417,
      "velocity": 1,
      "hand": "right"
    },
    {
      "midi": 66,
      "time": 51.25,
      "duration": 0.417,
      "velocity": 1,
      "hand": "right"
    },
    {
      "midi": 71,
      "time": 51.25,
      "duration": 0.417,
      "velocity": 1,
      "hand": "right"
    },
    {
      "midi": 52,
      "time": 51.667,
      "duration": 0.417,
      "velocity": 1,
      "hand": "left"
    },
    {
      "midi": 58,
      "time": 51.667,
      "duration": 0.417,
      "velocity": 1,
      "hand": "left"
    },
    {
      "midi": 61,
      "time": 51.667,
      "duration": 0.417,
      "velocity": 1,
      "hand": "right"
    },
    {
      "midi": 66,
      "time": 51.667,
      "duration": 0.833,
      "velocity": 1,
      "hand": "right"
    },
    {
      "midi": 51,
      "time": 52.083,
      "duration": 0.417,
      "velocity": 1,
      "hand": "left"
    },
    {
      "midi": 59,
      "time": 52.083,
      "duration": 0.417,
      "velocity": 1,
      "hand": "left"
    },
    {
      "midi": 66,
      "time": 52.5,
      "duration": 0.417,
      "velocity": 1,
      "hand": "right"
    },
    {
      "midi": 68,
      "time": 52.917,
      "duration": 0.208,
      "velocity": 1,
      "hand": "right"
    },
    {
      "midi": 69,
      "time": 53.125,
      "duration": 0.208,
      "velocity": 1,
      "hand": "right"
    },
    {
      "midi": 50,
      "time": 53.333,
      "duration": 0.833,
      "velocity": 1,
      "hand": "left"
    },
    {
      "midi": 52,
      "time": 53.333,
      "duration": 1.667,
      "velocity": 1,
      "hand": "left"
    },
    {
      "midi": 59,
      "time": 53.333,
      "duration": 0.833,
      "velocity": 1,
      "hand": "left"
    },
    {
      "midi": 64,
      "time": 53.333,
      "duration": 0.833,
      "velocity": 1,
      "hand": "right"
    },
    {
      "midi": 68,
      "time": 53.333,
      "duration": 0.417,
      "velocity": 1,
      "hand": "right"
    },
    {
      "midi": 71,
      "time": 53.75,
      "duration": 0.417,
      "velocity": 1,
      "hand": "right"
    },
    {
      "midi": 49,
      "time": 54.167,
      "duration": 0.833,
      "velocity": 1,
      "hand": "left"
    },
    {
      "midi": 64,
      "time": 54.167,
      "duration": 1.667,
      "velocity": 1,
      "hand": "right"
    },
    {
      "midi": 69,
      "time": 54.583,
      "duration": 0.417,
      "velocity": 1,
      "hand": "right"
    },
    {
      "midi": 47,
      "time": 55,
      "duration": 0.417,
      "velocity": 1,
      "hand": "left"
    },
    {
      "midi": 52,
      "time": 55,
      "duration": 0.833,
      "velocity": 1,
      "hand": "left"
    },
    {
      "midi": 68,
      "time": 55,
      "duration": 0.417,
      "velocity": 1,
      "hand": "right"
    },
    {
      "midi": 71,
      "time": 55,
      "duration": 0.417,
      "velocity": 1,
      "hand": "right"
    },
    {
      "midi": 45,
      "time": 55.417,
      "duration": 0.417,
      "velocity": 1,
      "hand": "left"
    },
    {
      "midi": 69,
      "time": 55.417,
      "duration": 0.417,
      "velocity": 1,
      "hand": "right"
    },
    {
      "midi": 73,
      "time": 55.417,
      "duration": 0.417,
      "velocity": 1,
      "hand": "right"
    },
    {
      "midi": 44,
      "time": 55.833,
      "duration": 0.833,
      "velocity": 1,
      "hand": "left"
    },
    {
      "midi": 52,
      "time": 55.833,
      "duration": 1.667,
      "velocity": 1,
      "hand": "left"
    },
    {
      "midi": 64,
      "time": 55.833,
      "duration": 1.667,
      "velocity": 1,
      "hand": "right"
    },
    {
      "midi": 71,
      "time": 55.833,
      "duration": 0.833,
      "velocity": 1,
      "hand": "right"
    },
    {
      "midi": 76,
      "time": 55.833,
      "duration": 0.833,
      "velocity": 1,
      "hand": "right"
    },
    {
      "midi": 45,
      "time": 56.667,
      "duration": 0.833,
      "velocity": 1,
      "hand": "left"
    },
    {
      "midi": 69,
      "time": 56.667,
      "duration": 0.833,
      "velocity": 1,
      "hand": "right"
    },
    {
      "midi": 73,
      "time": 56.667,
      "duration": 0.833,
      "velocity": 1,
      "hand": "right"
    },
    {
      "midi": 73,
      "time": 57.5,
      "duration": 0.417,
      "velocity": 1,
      "hand": "right"
    },
    {
      "midi": 74,
      "time": 57.917,
      "duration": 0.208,
      "velocity": 1,
      "hand": "right"
    },
    {
      "midi": 76,
      "time": 58.125,
      "duration": 0.208,
      "velocity": 1,
      "hand": "right"
    },
    {
      "midi": 46,
      "time": 58.333,
      "duration": 0.833,
      "velocity": 1,
      "hand": "left"
    },
    {
      "midi": 54,
      "time": 58.333,
      "duration": 0.833,
      "velocity": 1,
      "hand": "left"
    },
    {
      "midi": 61,
      "time": 58.333,
      "duration": 0.833,
      "velocity": 1,
      "hand": "right"
    },
    {
      "midi": 66,
      "time": 58.333,
      "duration": 0.833,
      "velocity": 1,
      "hand": "right"
    },
    {
      "midi": 73,
      "time": 58.333,
      "duration": 0.417,
      "velocity": 1,
      "hand": "right"
    },
    {
      "midi": 78,
      "time": 58.333,
      "duration": 0.417,
      "velocity": 1,
      "hand": "right"
    },
    {
      "midi": 73,
      "time": 58.75,
      "duration": 0.417,
      "velocity": 1,
      "hand": "right"
    },
    {
      "midi": 47,
      "time": 59.167,
      "duration": 0.833,
      "velocity": 1,
      "hand": "left"
    },
    {
      "midi": 54,
      "time": 59.167,
      "duration": 0.833,
      "velocity": 1,
      "hand": "left"
    },
    {
      "midi": 59,
      "time": 59.167,
      "duration": 0.833,
      "velocity": 1,
      "hand": "left"
    },
    {
      "midi": 66,
      "time": 59.167,
      "duration": 0.833,
      "velocity": 1,
      "hand": "right"
    },
    {
      "midi": 71,
      "time": 59.167,
      "duration": 0.833,
      "velocity": 1,
      "hand": "right"
    },
    {
      "midi": 74,
      "time": 59.167,
      "duration": 0.833,
      "velocity": 1,
      "hand": "right"
    },
    {
      "midi": 66,
      "time": 60,
      "duration": 0.417,
      "velocity": 1,
      "hand": "right"
    },
    {
      "midi": 68,
      "time": 60.417,
      "duration": 0.208,
      "velocity": 1,
      "hand": "right"
    },
    {
      "midi": 69,
      "time": 60.625,
      "duration": 0.208,
      "velocity": 1,
      "hand": "right"
    },
    {
      "midi": 47,
      "time": 60.833,
      "duration": 0.833,
      "velocity": 1,
      "hand": "left"
    },
    {
      "midi": 57,
      "time": 60.833,
      "duration": 0.833,
      "velocity": 1,
      "hand": "left"
    },
    {
      "midi": 63,
      "time": 60.833,
      "duration": 0.833,
      "velocity": 1,
      "hand": "right"
    },
    {
      "midi": 73,
      "time": 60.833,
      "duration": 0.417,
      "velocity": 1,
      "hand": "right"
    },
    {
      "midi": 70,
      "time": 61.25,
      "duration": 0.833,
      "velocity": 1,
      "hand": "right"
    },
    {
      "midi": 52,
      "time": 61.667,
      "duration": 0.833,
      "velocity": 1,
      "hand": "left"
    },
    {
      "midi": 56,
      "time": 61.667,
      "duration": 0.833,
      "velocity": 1,
      "hand": "left"
    },
    {
      "midi": 62,
      "time": 61.667,
      "duration": 0.833,
      "velocity": 1,
      "hand": "right"
    },
    {
      "midi": 71,
      "time": 62.083,
      "duration": 0.417,
      "velocity": 1,
      "hand": "right"
    },
    {
      "midi": 66,
      "time": 62.5,
      "duration": 0.417,
      "velocity": 1,
      "hand": "right"
    },
    {
      "midi": 68,
      "time": 62.917,
      "duration": 0.208,
      "velocity": 1,
      "hand": "right"
    },
    {
      "midi": 69,
      "time": 63.125,
      "duration": 0.208,
      "velocity": 1,
      "hand": "right"
    },
    {
      "midi": 50,
      "time": 63.333,
      "duration": 0.833,
      "velocity": 1,
      "hand": "left"
    },
    {
      "midi": 52,
      "time": 63.333,
      "duration": 1.667,
      "velocity": 1,
      "hand": "left"
    },
    {
      "midi": 59,
      "time": 63.333,
      "duration": 0.833,
      "velocity": 1,
      "hand": "left"
    },
    {
      "midi": 64,
      "time": 63.333,
      "duration": 0.833,
      "velocity": 1,
      "hand": "right"
    },
    {
      "midi": 68,
      "time": 63.333,
      "duration": 0.417,
      "velocity": 1,
      "hand": "right"
    },
    {
      "midi": 71,
      "time": 63.75,
      "duration": 0.417,
      "velocity": 1,
      "hand": "right"
    },
    {
      "midi": 49,
      "time": 64.167,
      "duration": 0.833,
      "velocity": 1,
      "hand": "left"
    },
    {
      "midi": 64,
      "time": 64.167,
      "duration": 1.667,
      "velocity": 1,
      "hand": "right"
    },
    {
      "midi": 69,
      "time": 64.583,
      "duration": 0.417,
      "velocity": 1,
      "hand": "right"
    },
    {
      "midi": 47,
      "time": 65,
      "duration": 0.417,
      "velocity": 1,
      "hand": "left"
    },
    {
      "midi": 52,
      "time": 65,
      "duration": 0.833,
      "velocity": 1,
      "hand": "left"
    },
    {
      "midi": 68,
      "time": 65,
      "duration": 0.417,
      "velocity": 1,
      "hand": "right"
    },
    {
      "midi": 71,
      "time": 65,
      "duration": 0.417,
      "velocity": 1,
      "hand": "right"
    },
    {
      "midi": 45,
      "time": 65.417,
      "duration": 0.417,
      "velocity": 1,
      "hand": "left"
    },
    {
      "midi": 69,
      "time": 65.417,
      "duration": 0.417,
      "velocity": 1,
      "hand": "right"
    },
    {
      "midi": 73,
      "time": 65.417,
      "duration": 0.417,
      "velocity": 1,
      "hand": "right"
    },
    {
      "midi": 44,
      "time": 65.833,
      "duration": 0.833,
      "velocity": 1,
      "hand": "left"
    },
    {
      "midi": 52,
      "time": 65.833,
      "duration": 1.667,
      "velocity": 1,
      "hand": "left"
    },
    {
      "midi": 64,
      "time": 65.833,
      "duration": 1.667,
      "velocity": 1,
      "hand": "right"
    },
    {
      "midi": 71,
      "time": 65.833,
      "duration": 0.833,
      "velocity": 1,
      "hand": "right"
    },
    {
      "midi": 76,
      "time": 65.833,
      "duration": 0.833,
      "velocity": 1,
      "hand": "right"
    },
    {
      "midi": 45,
      "time": 66.667,
      "duration": 0.833,
      "velocity": 1,
      "hand": "left"
    },
    {
      "midi": 69,
      "time": 66.667,
      "duration": 0.833,
      "velocity": 1,
      "hand": "right"
    },
    {
      "midi": 73,
      "time": 66.667,
      "duration": 0.833,
      "velocity": 1,
      "hand": "right"
    },
    {
      "midi": 73,
      "time": 67.5,
      "duration": 0.417,
      "velocity": 1,
      "hand": "right"
    },
    {
      "midi": 75,
      "time": 67.917,
      "duration": 0.208,
      "velocity": 1,
      "hand": "right"
    },
    {
      "midi": 76,
      "time": 68.125,
      "duration": 0.208,
      "velocity": 1,
      "hand": "right"
    },
    {
      "midi": 47,
      "time": 68.333,
      "duration": 2.5,
      "velocity": 1,
      "hand": "left"
    },
    {
      "midi": 64,
      "time": 68.333,
      "duration": 0.833,
      "velocity": 1,
      "hand": "right"
    },
    {
      "midi": 68,
      "time": 68.333,
      "duration": 0.417,
      "velocity": 1,
      "hand": "right"
    },
    {
      "midi": 73,
      "time": 68.75,
      "duration": 0.417,
      "velocity": 1,
      "hand": "right"
    },
    {
      "midi": 57,
      "time": 69.167,
      "duration": 0.417,
      "velocity": 1,
      "hand": "left"
    },
    {
      "midi": 63,
      "time": 69.167,
      "duration": 0.833,
      "velocity": 1,
      "hand": "right"
    },
    {
      "midi": 66,
      "time": 69.167,
      "duration": 0.833,
      "velocity": 1,
      "hand": "right"
    },
    {
      "midi": 71,
      "time": 69.167,
      "duration": 0.833,
      "velocity": 1,
      "hand": "right"
    },
    {
      "midi": 59,
      "time": 69.583,
      "duration": 0.417,
      "velocity": 1,
      "hand": "left"
    },
    {
      "midi": 56,
      "time": 70,
      "duration": 0.833,
      "velocity": 1,
      "hand": "left"
    },
    {
      "midi": 64,
      "time": 70,
      "duration": 0.833,
      "velocity": 1,
      "hand": "right"
    },
    {
      "midi": 71,
      "time": 70,
      "duration": 0.833,
      "velocity": 1,
      "hand": "right"
    },
    {
      "midi": 73,
      "time": 70,
      "duration": 0.417,
      "velocity": 1,
      "hand": "right"
    },
    {
      "midi": 75,
      "time": 70.417,
      "duration": 0.208,
      "velocity": 1,
      "hand": "right"
    },
    {
      "midi": 76,
      "time": 70.625,
      "duration": 0.208,
      "velocity": 1,
      "hand": "right"
    },
    {
      "midi": 47,
      "time": 70.833,
      "duration": 1.667,
      "velocity": 1,
      "hand": "left"
    },
    {
      "midi": 64,
      "time": 70.833,
      "duration": 0.833,
      "velocity": 1,
      "hand": "right"
    },
    {
      "midi": 68,
      "time": 70.833,
      "duration": 0.417,
      "velocity": 1,
      "hand": "right"
    },
    {
      "midi": 73,
      "time": 71.25,
      "duration": 0.417,
      "velocity": 1,
      "hand": "right"
    },
    {
      "midi": 57,
      "time": 71.667,
      "duration": 0.417,
      "velocity": 1,
      "hand": "left"
    },
    {
      "midi": 63,
      "time": 71.667,
      "duration": 0.833,
      "velocity": 1,
      "hand": "right"
    },
    {
      "midi": 66,
      "time": 71.667,
      "duration": 0.833,
      "velocity": 1,
      "hand": "right"
    },
    {
      "midi": 71,
      "time": 71.667,
      "duration": 0.833,
      "velocity": 1,
      "hand": "right"
    },
    {
      "midi": 59,
      "time": 72.083,
      "duration": 0.417,
      "velocity": 1,
      "hand": "left"
    },
    {
      "midi": 48,
      "time": 72.5,
      "duration": 2.5,
      "velocity": 1,
      "hand": "left"
    },
    {
      "midi": 55,
      "time": 72.5,
      "duration": 2.5,
      "velocity": 1,
      "hand": "left"
    },
    {
      "midi": 60,
      "time": 72.5,
      "duration": 2.5,
      "velocity": 1,
      "hand": "right"
    },
    {
      "midi": 64,
      "time": 72.5,
      "duration": 2.5,
      "velocity": 1,
      "hand": "right"
    },
    {
      "midi": 67,
      "time": 72.5,
      "duration": 2.5,
      "velocity": 1,
      "hand": "right"
    },
    {
      "midi": 76,
      "time": 72.5,
      "duration": 0.833,
      "velocity": 1,
      "hand": "right"
    },
    {
      "midi": 74,
      "time": 73.333,
      "duration": 0.417,
      "velocity": 1,
      "hand": "right"
    },
    {
      "midi": 72,
      "time": 73.75,
      "duration": 0.417,
      "velocity": 1,
      "hand": "right"
    },
    {
      "midi": 71,
      "time": 74.167,
      "duration": 0.417,
      "velocity": 1,
      "hand": "right"
    },
    {
      "midi": 70,
      "time": 74.583,
      "duration": 0.417,
      "velocity": 1,
      "hand": "right"
    },
    {
      "midi": 40,
      "time": 75.208,
      "duration": 0.208,
      "velocity": 1,
      "hand": "left"
    },
    {
      "midi": 47,
      "time": 75.208,
      "duration": 0.208,
      "velocity": 1,
      "hand": "left"
    },
    {
      "midi": 55,
      "time": 75.417,
      "duration": 0.208,
      "velocity": 1,
      "hand": "left"
    },
    {
      "midi": 59,
      "time": 75.625,
      "duration": 0.208,
      "velocity": 1,
      "hand": "left"
    },
    {
      "midi": 64,
      "time": 75.625,
      "duration": 0.208,
      "velocity": 1,
      "hand": "right"
    },
    {
      "midi": 69,
      "time": 75.833,
      "duration": 0.208,
      "velocity": 1,
      "hand": "right"
    },
    {
      "midi": 64,
      "time": 76.042,
      "duration": 0.208,
      "velocity": 1,
      "hand": "right"
    },
    {
      "midi": 67,
      "time": 76.042,
      "duration": 0.208,
      "velocity": 1,
      "hand": "right"
    },
    {
      "midi": 70,
      "time": 76.25,
      "duration": 0.208,
      "velocity": 1,
      "hand": "right"
    },
    {
      "midi": 71,
      "time": 76.458,
      "duration": 0.208,
      "velocity": 1,
      "hand": "right"
    },
    {
      "midi": 76,
      "time": 76.458,
      "duration": 0.208,
      "velocity": 1,
      "hand": "right"
    },
    {
      "midi": 78,
      "time": 76.667,
      "duration": 0.208,
      "velocity": 1,
      "hand": "right"
    },
    {
      "midi": 79,
      "time": 76.875,
      "duration": 0.208,
      "velocity": 1,
      "hand": "right"
    },
    {
      "midi": 83,
      "time": 76.875,
      "duration": 0.208,
      "velocity": 1,
      "hand": "right"
    },
    {
      "midi": 88,
      "time": 77.083,
      "duration": 0.417,
      "velocity": 1,
      "hand": "right"
    },
    {
      "midi": 48,
      "time": 77.5,
      "duration": 2.5,
      "velocity": 1,
      "hand": "left"
    },
    {
      "midi": 55,
      "time": 77.5,
      "duration": 2.5,
      "velocity": 1,
      "hand": "left"
    },
    {
      "midi": 60,
      "time": 77.5,
      "duration": 2.5,
      "velocity": 1,
      "hand": "right"
    },
    {
      "midi": 64,
      "time": 77.5,
      "duration": 2.5,
      "velocity": 1,
      "hand": "right"
    },
    {
      "midi": 67,
      "time": 77.5,
      "duration": 2.5,
      "velocity": 1,
      "hand": "right"
    },
    {
      "midi": 76,
      "time": 77.5,
      "duration": 0.833,
      "velocity": 1,
      "hand": "right"
    },
    {
      "midi": 74,
      "time": 78.333,
      "duration": 0.417,
      "velocity": 1,
      "hand": "right"
    },
    {
      "midi": 72,
      "time": 78.75,
      "duration": 0.417,
      "velocity": 1,
      "hand": "right"
    },
    {
      "midi": 71,
      "time": 79.167,
      "duration": 0.417,
      "velocity": 1,
      "hand": "right"
    },
    {
      "midi": 70,
      "time": 79.583,
      "duration": 0.417,
      "velocity": 1,
      "hand": "right"
    },
    {
      "midi": 40,
      "time": 80.208,
      "duration": 0.208,
      "velocity": 1,
      "hand": "left"
    },
    {
      "midi": 47,
      "time": 80.208,
      "duration": 0.208,
      "velocity": 1,
      "hand": "left"
    },
    {
      "midi": 55,
      "time": 80.417,
      "duration": 0.208,
      "velocity": 1,
      "hand": "left"
    },
    {
      "midi": 59,
      "time": 80.625,
      "duration": 0.208,
      "velocity": 1,
      "hand": "left"
    },
    {
      "midi": 64,
      "time": 80.625,
      "duration": 0.208,
      "velocity": 1,
      "hand": "right"
    },
    {
      "midi": 69,
      "time": 80.833,
      "duration": 0.208,
      "velocity": 1,
      "hand": "right"
    },
    {
      "midi": 64,
      "time": 81.042,
      "duration": 0.208,
      "velocity": 1,
      "hand": "right"
    },
    {
      "midi": 67,
      "time": 81.042,
      "duration": 0.208,
      "velocity": 1,
      "hand": "right"
    },
    {
      "midi": 60,
      "time": 81.25,
      "duration": 0.208,
      "velocity": 1,
      "hand": "right"
    },
    {
      "midi": 55,
      "time": 81.458,
      "duration": 0.208,
      "velocity": 1,
      "hand": "left"
    },
    {
      "midi": 59,
      "time": 81.458,
      "duration": 0.208,
      "velocity": 1,
      "hand": "left"
    },
    {
      "midi": 48,
      "time": 81.667,
      "duration": 0.208,
      "velocity": 1,
      "hand": "left"
    },
    {
      "midi": 43,
      "time": 81.875,
      "duration": 0.208,
      "velocity": 1,
      "hand": "left"
    },
    {
      "midi": 47,
      "time": 81.875,
      "duration": 0.208,
      "velocity": 1,
      "hand": "left"
    },
    {
      "midi": 40,
      "time": 82.083,
      "duration": 0.417,
      "velocity": 1,
      "hand": "left"
    },
    {
      "midi": 48,
      "time": 82.5,
      "duration": 2.5,
      "velocity": 1,
      "hand": "left"
    },
    {
      "midi": 55,
      "time": 82.5,
      "duration": 2.5,
      "velocity": 1,
      "hand": "left"
    },
    {
      "midi": 60,
      "time": 82.5,
      "duration": 2.5,
      "velocity": 1,
      "hand": "right"
    },
    {
      "midi": 64,
      "time": 82.5,
      "duration": 2.5,
      "velocity": 1,
      "hand": "right"
    },
    {
      "midi": 67,
      "time": 82.5,
      "duration": 2.5,
      "velocity": 1,
      "hand": "right"
    },
    {
      "midi": 76,
      "time": 82.5,
      "duration": 0.833,
      "velocity": 1,
      "hand": "right"
    },
    {
      "midi": 74,
      "time": 83.333,
      "duration": 0.417,
      "velocity": 1,
      "hand": "right"
    },
    {
      "midi": 72,
      "time": 83.75,
      "duration": 0.417,
      "velocity": 1,
      "hand": "right"
    },
    {
      "midi": 71,
      "time": 84.167,
      "duration": 0.417,
      "velocity": 1,
      "hand": "right"
    },
    {
      "midi": 70,
      "time": 84.583,
      "duration": 0.417,
      "velocity": 1,
      "hand": "right"
    },
    {
      "midi": 40,
      "time": 85.208,
      "duration": 0.208,
      "velocity": 1,
      "hand": "left"
    },
    {
      "midi": 47,
      "time": 85.208,
      "duration": 0.208,
      "velocity": 1,
      "hand": "left"
    },
    {
      "midi": 55,
      "time": 85.417,
      "duration": 0.208,
      "velocity": 1,
      "hand": "left"
    },
    {
      "midi": 59,
      "time": 85.625,
      "duration": 0.208,
      "velocity": 1,
      "hand": "left"
    },
    {
      "midi": 64,
      "time": 85.625,
      "duration": 0.208,
      "velocity": 1,
      "hand": "right"
    },
    {
      "midi": 69,
      "time": 85.833,
      "duration": 0.208,
      "velocity": 1,
      "hand": "right"
    },
    {
      "midi": 64,
      "time": 86.042,
      "duration": 0.208,
      "velocity": 1,
      "hand": "right"
    },
    {
      "midi": 67,
      "time": 86.042,
      "duration": 0.208,
      "velocity": 1,
      "hand": "right"
    },
    {
      "midi": 70,
      "time": 86.25,
      "duration": 0.208,
      "velocity": 1,
      "hand": "right"
    },
    {
      "midi": 71,
      "time": 86.458,
      "duration": 0.208,
      "velocity": 1,
      "hand": "right"
    },
    {
      "midi": 76,
      "time": 86.458,
      "duration": 0.208,
      "velocity": 1,
      "hand": "right"
    },
    {
      "midi": 78,
      "time": 86.667,
      "duration": 0.208,
      "velocity": 1,
      "hand": "right"
    },
    {
      "midi": 79,
      "time": 86.875,
      "duration": 0.208,
      "velocity": 1,
      "hand": "right"
    },
    {
      "midi": 83,
      "time": 86.875,
      "duration": 0.208,
      "velocity": 1,
      "hand": "right"
    },
    {
      "midi": 88,
      "time": 87.083,
      "duration": 0.417,
      "velocity": 1,
      "hand": "right"
    },
    {
      "midi": 48,
      "time": 87.5,
      "duration": 2.5,
      "velocity": 1,
      "hand": "left"
    },
    {
      "midi": 55,
      "time": 87.5,
      "duration": 2.5,
      "velocity": 1,
      "hand": "left"
    },
    {
      "midi": 60,
      "time": 87.5,
      "duration": 2.5,
      "velocity": 1,
      "hand": "right"
    },
    {
      "midi": 64,
      "time": 87.5,
      "duration": 2.5,
      "velocity": 1,
      "hand": "right"
    },
    {
      "midi": 67,
      "time": 87.5,
      "duration": 2.5,
      "velocity": 1,
      "hand": "right"
    },
    {
      "midi": 76,
      "time": 87.5,
      "duration": 0.833,
      "velocity": 1,
      "hand": "right"
    },
    {
      "midi": 74,
      "time": 88.333,
      "duration": 0.417,
      "velocity": 1,
      "hand": "right"
    },
    {
      "midi": 72,
      "time": 88.75,
      "duration": 0.417,
      "velocity": 1,
      "hand": "right"
    },
    {
      "midi": 71,
      "time": 89.167,
      "duration": 0.417,
      "velocity": 1,
      "hand": "right"
    },
    {
      "midi": 70,
      "time": 89.583,
      "duration": 0.417,
      "velocity": 1,
      "hand": "right"
    },
    {
      "midi": 76,
      "time": 90.417,
      "duration": 0.417,
      "velocity": 1,
      "hand": "right"
    },
    {
      "midi": 48,
      "time": 90.833,
      "duration": 1.667,
      "velocity": 1,
      "hand": "left"
    },
    {
      "midi": 55,
      "time": 90.833,
      "duration": 1.667,
      "velocity": 1,
      "hand": "left"
    },
    {
      "midi": 60,
      "time": 90.833,
      "duration": 1.667,
      "velocity": 1,
      "hand": "right"
    },
    {
      "midi": 64,
      "time": 90.833,
      "duration": 1.667,
      "velocity": 1,
      "hand": "right"
    },
    {
      "midi": 67,
      "time": 90.833,
      "duration": 1.667,
      "velocity": 1,
      "hand": "right"
    },
    {
      "midi": 74,
      "time": 90.833,
      "duration": 0.417,
      "velocity": 1,
      "hand": "right"
    },
    {
      "midi": 72,
      "time": 91.25,
      "duration": 0.417,
      "velocity": 1,
      "hand": "right"
    },
    {
      "midi": 71,
      "time": 91.667,
      "duration": 0.417,
      "velocity": 1,
      "hand": "right"
    },
    {
      "midi": 70,
      "time": 92.083,
      "duration": 0.417,
      "velocity": 1,
      "hand": "right"
    },
    {
      "midi": 77,
      "time": 92.5,
      "duration": 0.833,
      "velocity": 1,
      "hand": "right"
    },
    {
      "midi": 49,
      "time": 92.708,
      "duration": 0.208,
      "velocity": 1,
      "hand": "left"
    },
    {
      "midi": 56,
      "time": 92.708,
      "duration": 0.208,
      "velocity": 1,
      "hand": "left"
    },
    {
      "midi": 61,
      "time": 92.917,
      "duration": 0.208,
      "velocity": 1,
      "hand": "right"
    },
    {
      "midi": 65,
      "time": 93.125,
      "duration": 0.208,
      "velocity": 1,
      "hand": "right"
    },
    {
      "midi": 68,
      "time": 93.125,
      "duration": 0.208,
      "velocity": 1,
      "hand": "right"
    },
    {
      "midi": 70,
      "time": 93.333,
      "duration": 0.833,
      "velocity": 1,
      "hand": "right"
    },
    {
      "midi": 49,
      "time": 93.542,
      "duration": 0.208,
      "velocity": 1,
      "hand": "left"
    },
    {
      "midi": 51,
      "time": 93.542,
      "duration": 0.208,
      "velocity": 1,
      "hand": "left"
    },
    {
      "midi": 58,
      "time": 93.75,
      "duration": 0.208,
      "velocity": 1,
      "hand": "left"
    },
    {
      "midi": 63,
      "time": 93.958,
      "duration": 0.208,
      "velocity": 1,
      "hand": "right"
    },
    {
      "midi": 67,
      "time": 93.958,
      "duration": 0.208,
      "velocity": 1,
      "hand": "right"
    },
    {
      "midi": 75,
      "time": 94.167,
      "duration": 0.833,
      "velocity": 1,
      "hand": "right"
    },
    {
      "midi": 48,
      "time": 94.375,
      "duration": 0.208,
      "velocity": 1,
      "hand": "left"
    },
    {
      "midi": 51,
      "time": 94.375,
      "duration": 0.208,
      "velocity": 1,
      "hand": "left"
    },
    {
      "midi": 60,
      "time": 94.583,
      "duration": 0.208,
      "velocity": 1,
      "hand": "right"
    },
    {
      "midi": 63,
      "time": 94.792,
      "duration": 0.208,
      "velocity": 1,
      "hand": "right"
    },
    {
      "midi": 68,
      "time": 94.792,
      "duration": 0.208,
      "velocity": 1,
      "hand": "right"
    },
    {
      "midi": 68,
      "time": 95,
      "duration": 0.833,
      "velocity": 1,
      "hand": "right"
    },
    {
      "midi": 46,
      "time": 95.208,
      "duration": 0.208,
      "velocity": 1,
      "hand": "left"
    },
    {
      "midi": 53,
      "time": 95.208,
      "duration": 0.208,
      "velocity": 1,
      "hand": "left"
    },
    {
      "midi": 58,
      "time": 95.417,
      "duration": 0.208,
      "velocity": 1,
      "hand": "left"
    },
    {
      "midi": 61,
      "time": 95.625,
      "duration": 0.208,
      "velocity": 1,
      "hand": "right"
    },
    {
      "midi": 65,
      "time": 95.625,
      "duration": 0.208,
      "velocity": 1,
      "hand": "right"
    },
    {
      "midi": 67,
      "time": 95.833,
      "duration": 0.417,
      "velocity": 1,
      "hand": "right"
    },
    {
      "midi": 68,
      "time": 96.25,
      "duration": 0.417,
      "velocity": 1,
      "hand": "right"
    },
    {
      "midi": 51,
      "time": 96.667,
      "duration": 0.833,
      "velocity": 1,
      "hand": "left"
    },
    {
      "midi": 55,
      "time": 96.667,
      "duration": 0.833,
      "velocity": 1,
      "hand": "left"
    },
    {
      "midi": 62,
      "time": 96.667,
      "duration": 0.833,
      "velocity": 1,
      "hand": "right"
    },
    {
      "midi": 63,
      "time": 96.667,
      "duration": 0.833,
      "velocity": 1,
      "hand": "right"
    },
    {
      "midi": 72,
      "time": 96.667,
      "duration": 0.417,
      "velocity": 1,
      "hand": "right"
    },
    {
      "midi": 70,
      "time": 97.083,
      "duration": 0.417,
      "velocity": 1,
      "hand": "right"
    },
    {
      "midi": 77,
      "time": 97.5,
      "duration": 0.833,
      "velocity": 1,
      "hand": "right"
    },
    {
      "midi": 49,
      "time": 97.708,
      "duration": 0.208,
      "velocity": 1,
      "hand": "left"
    },
    {
      "midi": 56,
      "time": 97.708,
      "duration": 0.208,
      "velocity": 1,
      "hand": "left"
    },
    {
      "midi": 61,
      "time": 97.917,
      "duration": 0.208,
      "velocity": 1,
      "hand": "right"
    },
    {
      "midi": 65,
      "time": 98.125,
      "duration": 0.208,
      "velocity": 1,
      "hand": "right"
    },
    {
      "midi": 68,
      "time": 98.125,
      "duration": 0.208,
      "velocity": 1,
      "hand": "right"
    },
    {
      "midi": 70,
      "time": 98.333,
      "duration": 0.833,
      "velocity": 1,
      "hand": "right"
    },
    {
      "midi": 49,
      "time": 98.542,
      "duration": 0.208,
      "velocity": 1,
      "hand": "left"
    },
    {
      "midi": 51,
      "time": 98.542,
      "duration": 0.208,
      "velocity": 1,
      "hand": "left"
    },
    {
      "midi": 58,
      "time": 98.75,
      "duration": 0.208,
      "velocity": 1,
      "hand": "left"
    },
    {
      "midi": 63,
      "time": 98.958,
      "duration": 0.208,
      "velocity": 1,
      "hand": "right"
    },
    {
      "midi": 67,
      "time": 98.958,
      "duration": 0.208,
      "velocity": 1,
      "hand": "right"
    },
    {
      "midi": 75,
      "time": 99.167,
      "duration": 0.833,
      "velocity": 1,
      "hand": "right"
    },
    {
      "midi": 48,
      "time": 99.375,
      "duration": 0.208,
      "velocity": 1,
      "hand": "left"
    },
    {
      "midi": 51,
      "time": 99.375,
      "duration": 0.208,
      "velocity": 1,
      "hand": "left"
    },
    {
      "midi": 60,
      "time": 99.583,
      "duration": 0.208,
      "velocity": 1,
      "hand": "right"
    },
    {
      "midi": 63,
      "time": 99.792,
      "duration": 0.208,
      "velocity": 1,
      "hand": "right"
    },
    {
      "midi": 68,
      "time": 99.792,
      "duration": 0.208,
      "velocity": 1,
      "hand": "right"
    },
    {
      "midi": 80,
      "time": 100,
      "duration": 0.833,
      "velocity": 1,
      "hand": "right"
    },
    {
      "midi": 53,
      "time": 100.208,
      "duration": 0.208,
      "velocity": 1,
      "hand": "left"
    },
    {
      "midi": 60,
      "time": 100.208,
      "duration": 0.208,
      "velocity": 1,
      "hand": "right"
    },
    {
      "midi": 65,
      "time": 100.417,
      "duration": 0.208,
      "velocity": 1,
      "hand": "right"
    },
    {
      "midi": 68,
      "time": 100.625,
      "duration": 0.208,
      "velocity": 1,
      "hand": "right"
    },
    {
      "midi": 72,
      "time": 100.625,
      "duration": 0.208,
      "velocity": 1,
      "hand": "right"
    },
    {
      "midi": 74,
      "time": 100.833,
      "duration": 0.833,
      "velocity": 1,
      "hand": "right"
    },
    {
      "midi": 53,
      "time": 101.042,
      "duration": 0.208,
      "velocity": 1,
      "hand": "left"
    },
    {
      "midi": 55,
      "time": 101.042,
      "duration": 0.208,
      "velocity": 1,
      "hand": "left"
    },
    {
      "midi": 62,
      "time": 101.25,
      "duration": 0.208,
      "velocity": 1,
      "hand": "right"
    },
    {
      "midi": 67,
      "time": 101.458,
      "duration": 0.208,
      "velocity": 1,
      "hand": "right"
    },
    {
      "midi": 71,
      "time": 101.458,
      "duration": 0.208,
      "velocity": 1,
      "hand": "right"
    },
    {
      "midi": 79,
      "time": 101.667,
      "duration": 0.833,
      "velocity": 1,
      "hand": "right"
    },
    {
      "midi": 51,
      "time": 101.875,
      "duration": 0.208,
      "velocity": 1,
      "hand": "left"
    },
    {
      "midi": 55,
      "time": 101.875,
      "duration": 0.208,
      "velocity": 1,
      "hand": "left"
    },
    {
      "midi": 64,
      "time": 102.083,
      "duration": 0.208,
      "velocity": 1,
      "hand": "right"
    },
    {
      "midi": 67,
      "time": 102.292,
      "duration": 0.208,
      "velocity": 1,
      "hand": "right"
    },
    {
      "midi": 72,
      "time": 102.292,
      "duration": 0.208,
      "velocity": 1,
      "hand": "right"
    },
    {
      "midi": 71,
      "time": 102.5,
      "duration": 0.833,
      "velocity": 1,
      "hand": "right"
    },
    {
      "midi": 49,
      "time": 102.708,
      "duration": 0.208,
      "velocity": 1,
      "hand": "left"
    },
    {
      "midi": 55,
      "time": 102.708,
      "duration": 0.208,
      "velocity": 1,
      "hand": "left"
    },
    {
      "midi": 61,
      "time": 102.917,
      "duration": 0.208,
      "velocity": 1,
      "hand": "right"
    },
    {
      "midi": 59,
      "time": 103.125,
      "duration": 0.208,
      "velocity": 1,
      "hand": "left"
    },
    {
      "midi": 65,
      "time": 103.125,
      "duration": 0.208,
      "velocity": 1,
      "hand": "right"
    },
    {
      "midi": 70,
      "time": 103.333,
      "duration": 0.417,
      "velocity": 1,
      "hand": "right"
    },
    {
      "midi": 71,
      "time": 103.75,
      "duration": 0.417,
      "velocity": 1,
      "hand": "right"
    },
    {
      "midi": 48,
      "time": 104.167,
      "duration": 0.833,
      "velocity": 1,
      "hand": "left"
    },
    {
      "midi": 55,
      "time": 104.167,
      "duration": 0.833,
      "velocity": 1,
      "hand": "left"
    },
    {
      "midi": 60,
      "time": 104.167,
      "duration": 0.833,
      "velocity": 1,
      "hand": "right"
    },
    {
      "midi": 64,
      "time": 104.167,
      "duration": 0.833,
      "velocity": 1,
      "hand": "right"
    },
    {
      "midi": 67,
      "time": 104.167,
      "duration": 0.833,
      "velocity": 1,
      "hand": "right"
    },
    {
      "midi": 76,
      "time": 104.167,
      "duration": 0.417,
      "velocity": 1,
      "hand": "right"
    },
    {
      "midi": 72,
      "time": 104.583,
      "duration": 0.417,
      "velocity": 1,
      "hand": "right"
    },
    {
      "midi": 71,
      "time": 105,
      "duration": 0.833,
      "velocity": 1,
      "hand": "right"
    },
    {
      "midi": 49,
      "time": 105.208,
      "duration": 0.208,
      "velocity": 1,
      "hand": "left"
    },
    {
      "midi": 55,
      "time": 105.208,
      "duration": 0.208,
      "velocity": 1,
      "hand": "left"
    },
    {
      "midi": 61,
      "time": 105.417,
      "duration": 0.208,
      "velocity": 1,
      "hand": "right"
    },
    {
      "midi": 59,
      "time": 105.625,
      "duration": 0.208,
      "velocity": 1,
      "hand": "left"
    },
    {
      "midi": 65,
      "time": 105.625,
      "duration": 0.208,
      "velocity": 1,
      "hand": "right"
    },
    {
      "midi": 70,
      "time": 105.833,
      "duration": 0.417,
      "velocity": 1,
      "hand": "right"
    },
    {
      "midi": 71,
      "time": 106.25,
      "duration": 0.417,
      "velocity": 1,
      "hand": "right"
    },
    {
      "midi": 48,
      "time": 106.667,
      "duration": 0.833,
      "velocity": 1,
      "hand": "left"
    },
    {
      "midi": 55,
      "time": 106.667,
      "duration": 0.833,
      "velocity": 1,
      "hand": "left"
    },
    {
      "midi": 64,
      "time": 106.667,
      "duration": 0.833,
      "velocity": 1,
      "hand": "right"
    },
    {
      "midi": 67,
      "time": 106.667,
      "duration": 0.833,
      "velocity": 1,
      "hand": "right"
    },
    {
      "midi": 72,
      "time": 106.667,
      "duration": 0.833,
      "velocity": 1,
      "hand": "right"
    },
    {
      "midi": 79,
      "time": 106.667,
      "duration": 0.208,
      "velocity": 1,
      "hand": "right"
    },
    {
      "midi": 76,
      "time": 106.875,
      "duration": 0.208,
      "velocity": 1,
      "hand": "right"
    },
    {
      "midi": 71,
      "time": 107.5,
      "duration": 0.833,
      "velocity": 1,
      "hand": "right"
    },
    {
      "midi": 49,
      "time": 107.708,
      "duration": 0.208,
      "velocity": 1,
      "hand": "left"
    },
    {
      "midi": 55,
      "time": 107.708,
      "duration": 0.208,
      "velocity": 1,
      "hand": "left"
    },
    {
      "midi": 61,
      "time": 107.917,
      "duration": 0.208,
      "velocity": 1,
      "hand": "right"
    },
    {
      "midi": 59,
      "time": 108.125,
      "duration": 0.208,
      "velocity": 1,
      "hand": "left"
    },
    {
      "midi": 65,
      "time": 108.125,
      "duration": 0.208,
      "velocity": 1,
      "hand": "right"
    },
    {
      "midi": 70,
      "time": 108.333,
      "duration": 0.417,
      "velocity": 1,
      "hand": "right"
    },
    {
      "midi": 71,
      "time": 108.75,
      "duration": 0.417,
      "velocity": 1,
      "hand": "right"
    },
    {
      "midi": 48,
      "time": 109.167,
      "duration": 0.833,
      "velocity": 1,
      "hand": "left"
    },
    {
      "midi": 55,
      "time": 109.167,
      "duration": 0.833,
      "velocity": 1,
      "hand": "left"
    },
    {
      "midi": 60,
      "time": 109.167,
      "duration": 0.833,
      "velocity": 1,
      "hand": "right"
    },
    {
      "midi": 64,
      "time": 109.167,
      "duration": 0.833,
      "velocity": 1,
      "hand": "right"
    },
    {
      "midi": 67,
      "time": 109.167,
      "duration": 0.833,
      "velocity": 1,
      "hand": "right"
    },
    {
      "midi": 76,
      "time": 109.167,
      "duration": 0.417,
      "velocity": 1,
      "hand": "right"
    },
    {
      "midi": 72,
      "time": 109.583,
      "duration": 0.417,
      "velocity": 1,
      "hand": "right"
    },
    {
      "midi": 71,
      "time": 110,
      "duration": 0.833,
      "velocity": 1,
      "hand": "right"
    },
    {
      "midi": 49,
      "time": 110.208,
      "duration": 0.208,
      "velocity": 1,
      "hand": "left"
    },
    {
      "midi": 55,
      "time": 110.208,
      "duration": 0.208,
      "velocity": 1,
      "hand": "left"
    },
    {
      "midi": 61,
      "time": 110.417,
      "duration": 0.208,
      "velocity": 1,
      "hand": "right"
    },
    {
      "midi": 59,
      "time": 110.625,
      "duration": 0.208,
      "velocity": 1,
      "hand": "left"
    },
    {
      "midi": 65,
      "time": 110.625,
      "duration": 0.208,
      "velocity": 1,
      "hand": "right"
    },
    {
      "midi": 70,
      "time": 110.833,
      "duration": 0.417,
      "velocity": 1,
      "hand": "right"
    },
    {
      "midi": 71,
      "time": 111.25,
      "duration": 0.208,
      "velocity": 1,
      "hand": "right"
    },
    {
      "midi": 71,
      "time": 111.458,
      "duration": 0.104,
      "velocity": 1,
      "hand": "right"
    },
    {
      "midi": 72,
      "time": 111.458,
      "duration": 0.104,
      "velocity": 1,
      "hand": "right"
    },
    {
      "midi": 70,
      "time": 111.667,
      "duration": 0.104,
      "velocity": 1,
      "hand": "right"
    },
    {
      "midi": 71,
      "time": 111.667,
      "duration": 0.104,
      "velocity": 1,
      "hand": "right"
    },
    {
      "midi": 80,
      "time": 111.667,
      "duration": 0.208,
      "velocity": 1,
      "hand": "right"
    },
    {
      "midi": 79,
      "time": 111.875,
      "duration": 0.417,
      "velocity": 1,
      "hand": "right"
    },
    {
      "midi": 77,
      "time": 112.292,
      "duration": 0.208,
      "velocity": 1,
      "hand": "right"
    },
    {
      "midi": 77,
      "time": 112.5,
      "duration": 0.833,
      "velocity": 1,
      "hand": "right"
    },
    {
      "midi": 48,
      "time": 112.708,
      "duration": 0.208,
      "velocity": 1,
      "hand": "left"
    },
    {
      "midi": 55,
      "time": 112.708,
      "duration": 0.208,
      "velocity": 1,
      "hand": "left"
    },
    {
      "midi": 64,
      "time": 112.917,
      "duration": 0.208,
      "velocity": 1,
      "hand": "right"
    },
    {
      "midi": 67,
      "time": 113.125,
      "duration": 0.208,
      "velocity": 1,
      "hand": "right"
    },
    {
      "midi": 72,
      "time": 113.125,
      "duration": 0.208,
      "velocity": 1,
      "hand": "right"
    },
    {
      "midi": 76,
      "time": 113.333,
      "duration": 0.208,
      "velocity": 1,
      "hand": "right"
    },
    {
      "midi": 75,
      "time": 113.542,
      "duration": 0.208,
      "velocity": 1,
      "hand": "right"
    },
    {
      "midi": 76,
      "time": 113.542,
      "duration": 0.208,
      "velocity": 1,
      "hand": "right"
    },
    {
      "midi": 79,
      "time": 113.75,
      "duration": 0.208,
      "velocity": 1,
      "hand": "right"
    },
    {
      "midi": 78,
      "time": 113.958,
      "duration": 0.208,
      "velocity": 1,
      "hand": "right"
    },
    {
      "midi": 79,
      "time": 113.958,
      "duration": 0.208,
      "velocity": 1,
      "hand": "right"
    },
    {
      "midi": 84,
      "time": 114.167,
      "duration": 0.417,
      "velocity": 1,
      "hand": "right"
    },
    {
      "midi": 48,
      "time": 115,
      "duration": 2.5,
      "velocity": 1,
      "hand": "left"
    },
    {
      "midi": 55,
      "time": 115,
      "duration": 2.5,
      "velocity": 1,
      "hand": "left"
    },
    {
      "midi": 60,
      "time": 115,
      "duration": 2.5,
      "velocity": 1,
      "hand": "right"
    },
    {
      "midi": 64,
      "time": 115,
      "duration": 2.5,
      "velocity": 1,
      "hand": "right"
    },
    {
      "midi": 67,
      "time": 115,
      "duration": 2.5,
      "velocity": 1,
      "hand": "right"
    },
    {
      "midi": 76,
      "time": 115,
      "duration": 0.833,
      "velocity": 1,
      "hand": "right"
    },
    {
      "midi": 74,
      "time": 115.833,
      "duration": 0.417,
      "velocity": 1,
      "hand": "right"
    },
    {
      "midi": 72,
      "time": 116.25,
      "duration": 0.417,
      "velocity": 1,
      "hand": "right"
    },
    {
      "midi": 71,
      "time": 116.667,
      "duration": 0.417,
      "velocity": 1,
      "hand": "right"
    },
    {
      "midi": 70,
      "time": 117.083,
      "duration": 0.417,
      "velocity": 1,
      "hand": "right"
    },
    {
      "midi": 40,
      "time": 117.708,
      "duration": 0.208,
      "velocity": 1,
      "hand": "left"
    },
    {
      "midi": 47,
      "time": 117.708,
      "duration": 0.208,
      "velocity": 1,
      "hand": "left"
    },
    {
      "midi": 55,
      "time": 117.917,
      "duration": 0.208,
      "velocity": 1,
      "hand": "left"
    },
    {
      "midi": 59,
      "time": 118.125,
      "duration": 0.208,
      "velocity": 1,
      "hand": "left"
    },
    {
      "midi": 64,
      "time": 118.125,
      "duration": 0.208,
      "velocity": 1,
      "hand": "right"
    },
    {
      "midi": 69,
      "time": 118.333,
      "duration": 0.208,
      "velocity": 1,
      "hand": "right"
    },
    {
      "midi": 64,
      "time": 118.542,
      "duration": 0.208,
      "velocity": 1,
      "hand": "right"
    },
    {
      "midi": 67,
      "time": 118.542,
      "duration": 0.208,
      "velocity": 1,
      "hand": "right"
    },
    {
      "midi": 70,
      "time": 118.75,
      "duration": 0.208,
      "velocity": 1,
      "hand": "right"
    },
    {
      "midi": 71,
      "time": 118.958,
      "duration": 0.208,
      "velocity": 1,
      "hand": "right"
    },
    {
      "midi": 76,
      "time": 118.958,
      "duration": 0.208,
      "velocity": 1,
      "hand": "right"
    },
    {
      "midi": 78,
      "time": 119.167,
      "duration": 0.208,
      "velocity": 1,
      "hand": "right"
    },
    {
      "midi": 79,
      "time": 119.375,
      "duration": 0.208,
      "velocity": 1,
      "hand": "right"
    },
    {
      "midi": 83,
      "time": 119.375,
      "duration": 0.208,
      "velocity": 1,
      "hand": "right"
    },
    {
      "midi": 88,
      "time": 119.583,
      "duration": 0.417,
      "velocity": 1,
      "hand": "right"
    },
    {
      "midi": 48,
      "time": 120,
      "duration": 2.5,
      "velocity": 1,
      "hand": "left"
    },
    {
      "midi": 55,
      "time": 120,
      "duration": 2.5,
      "velocity": 1,
      "hand": "left"
    },
    {
      "midi": 60,
      "time": 120,
      "duration": 2.5,
      "velocity": 1,
      "hand": "right"
    },
    {
      "midi": 64,
      "time": 120,
      "duration": 2.5,
      "velocity": 1,
      "hand": "right"
    },
    {
      "midi": 67,
      "time": 120,
      "duration": 2.5,
      "velocity": 1,
      "hand": "right"
    },
    {
      "midi": 76,
      "time": 120,
      "duration": 0.833,
      "velocity": 1,
      "hand": "right"
    },
    {
      "midi": 74,
      "time": 120.833,
      "duration": 0.417,
      "velocity": 1,
      "hand": "right"
    },
    {
      "midi": 72,
      "time": 121.25,
      "duration": 0.417,
      "velocity": 1,
      "hand": "right"
    },
    {
      "midi": 71,
      "time": 121.667,
      "duration": 0.417,
      "velocity": 1,
      "hand": "right"
    },
    {
      "midi": 70,
      "time": 122.083,
      "duration": 0.417,
      "velocity": 1,
      "hand": "right"
    },
    {
      "midi": 40,
      "time": 122.708,
      "duration": 0.208,
      "velocity": 1,
      "hand": "left"
    },
    {
      "midi": 47,
      "time": 122.708,
      "duration": 0.208,
      "velocity": 1,
      "hand": "left"
    },
    {
      "midi": 55,
      "time": 122.917,
      "duration": 0.208,
      "velocity": 1,
      "hand": "left"
    },
    {
      "midi": 59,
      "time": 123.125,
      "duration": 0.208,
      "velocity": 1,
      "hand": "left"
    },
    {
      "midi": 64,
      "time": 123.125,
      "duration": 0.208,
      "velocity": 1,
      "hand": "right"
    },
    {
      "midi": 69,
      "time": 123.333,
      "duration": 0.208,
      "velocity": 1,
      "hand": "right"
    },
    {
      "midi": 64,
      "time": 123.542,
      "duration": 0.208,
      "velocity": 1,
      "hand": "right"
    },
    {
      "midi": 67,
      "time": 123.542,
      "duration": 0.208,
      "velocity": 1,
      "hand": "right"
    },
    {
      "midi": 60,
      "time": 123.75,
      "duration": 0.208,
      "velocity": 1,
      "hand": "right"
    },
    {
      "midi": 55,
      "time": 123.958,
      "duration": 0.208,
      "velocity": 1,
      "hand": "left"
    },
    {
      "midi": 59,
      "time": 123.958,
      "duration": 0.208,
      "velocity": 1,
      "hand": "left"
    },
    {
      "midi": 48,
      "time": 124.167,
      "duration": 0.208,
      "velocity": 1,
      "hand": "left"
    },
    {
      "midi": 43,
      "time": 124.375,
      "duration": 0.208,
      "velocity": 1,
      "hand": "left"
    },
    {
      "midi": 47,
      "time": 124.375,
      "duration": 0.208,
      "velocity": 1,
      "hand": "left"
    },
    {
      "midi": 40,
      "time": 124.583,
      "duration": 0.417,
      "velocity": 1,
      "hand": "left"
    },
    {
      "midi": 76,
      "time": 125,
      "duration": 0.833,
      "velocity": 1,
      "hand": "right"
    },
    {
      "midi": 48,
      "time": 125.833,
      "duration": 1.667,
      "velocity": 1,
      "hand": "left"
    },
    {
      "midi": 55,
      "time": 125.833,
      "duration": 1.667,
      "velocity": 1,
      "hand": "left"
    },
    {
      "midi": 60,
      "time": 125.833,
      "duration": 1.667,
      "velocity": 1,
      "hand": "right"
    },
    {
      "midi": 64,
      "time": 125.833,
      "duration": 1.667,
      "velocity": 1,
      "hand": "right"
    },
    {
      "midi": 67,
      "time": 125.833,
      "duration": 1.667,
      "velocity": 1,
      "hand": "right"
    },
    {
      "midi": 74,
      "time": 125.833,
      "duration": 0.417,
      "velocity": 1,
      "hand": "right"
    },
    {
      "midi": 72,
      "time": 126.25,
      "duration": 0.417,
      "velocity": 1,
      "hand": "right"
    },
    {
      "midi": 71,
      "time": 126.667,
      "duration": 0.417,
      "velocity": 1,
      "hand": "right"
    },
    {
      "midi": 70,
      "time": 127.083,
      "duration": 0.417,
      "velocity": 1,
      "hand": "right"
    },
    {
      "midi": 76,
      "time": 127.917,
      "duration": 0.417,
      "velocity": 1,
      "hand": "right"
    },
    {
      "midi": 48,
      "time": 128.333,
      "duration": 1.667,
      "velocity": 1,
      "hand": "left"
    },
    {
      "midi": 54,
      "time": 128.333,
      "duration": 1.667,
      "velocity": 1,
      "hand": "left"
    },
    {
      "midi": 60,
      "time": 128.333,
      "duration": 1.667,
      "velocity": 1,
      "hand": "right"
    },
    {
      "midi": 64,
      "time": 128.333,
      "duration": 1.667,
      "velocity": 1,
      "hand": "right"
    },
    {
      "midi": 66,
      "time": 128.333,
      "duration": 1.667,
      "velocity": 1,
      "hand": "right"
    },
    {
      "midi": 68,
      "time": 128.75,
      "duration": 0.417,
      "velocity": 1,
      "hand": "right"
    },
    {
      "midi": 69,
      "time": 129.167,
      "duration": 0.417,
      "velocity": 1,
      "hand": "right"
    },
    {
      "midi": 70,
      "time": 129.583,
      "duration": 0.417,
      "velocity": 1,
      "hand": "right"
    },
    {
      "midi": 78,
      "time": 130,
      "duration": 0.833,
      "velocity": 1,
      "hand": "right"
    },
    {
      "midi": 47,
      "time": 130.208,
      "duration": 0.208,
      "velocity": 1,
      "hand": "left"
    },
    {
      "midi": 55,
      "time": 130.208,
      "duration": 0.208,
      "velocity": 1,
      "hand": "left"
    },
    {
      "midi": 63,
      "time": 130.417,
      "duration": 0.208,
      "velocity": 1,
      "hand": "right"
    },
    {
      "midi": 66,
      "time": 130.625,
      "duration": 0.208,
      "velocity": 1,
      "hand": "right"
    },
    {
      "midi": 71,
      "time": 130.625,
      "duration": 0.208,
      "velocity": 1,
      "hand": "right"
    },
    {
      "midi": 74,
      "time": 130.833,
      "duration": 0.833,
      "velocity": 1,
      "hand": "right"
    },
    {
      "midi": 47,
      "time": 131.042,
      "duration": 0.208,
      "velocity": 1,
      "hand": "left"
    },
    {
      "midi": 55,
      "time": 131.042,
      "duration": 0.208,
      "velocity": 1,
      "hand": "left"
    },
    {
      "midi": 59,
      "time": 131.25,
      "duration": 0.208,
      "velocity": 1,
      "hand": "left"
    },
    {
      "midi": 62,
      "time": 131.458,
      "duration": 0.208,
      "velocity": 1,
      "hand": "right"
    },
    {
      "midi": 67,
      "time": 131.458,
      "duration": 0.208,
      "velocity": 1,
      "hand": "right"
    },
    {
      "midi": 75,
      "time": 131.667,
      "duration": 0.833,
      "velocity": 1,
      "hand": "right"
    },
    {
      "midi": 47,
      "time": 131.875,
      "duration": 0.208,
      "velocity": 1,
      "hand": "left"
    },
    {
      "midi": 55,
      "time": 131.875,
      "duration": 0.208,
      "velocity": 1,
      "hand": "left"
    },
    {
      "midi": 59,
      "time": 132.083,
      "duration": 0.208,
      "velocity": 1,
      "hand": "left"
    },
    {
      "midi": 63,
      "time": 132.292,
      "duration": 0.208,
      "velocity": 1,
      "hand": "right"
    },
    {
      "midi": 66,
      "time": 132.292,
      "duration": 0.208,
      "velocity": 1,
      "hand": "right"
    },
    {
      "midi": 68,
      "time": 132.5,
      "duration": 0.833,
      "velocity": 1,
      "hand": "right"
    },
    {
      "midi": 47,
      "time": 132.708,
      "duration": 0.208,
      "velocity": 1,
      "hand": "left"
    },
    {
      "midi": 53,
      "time": 132.708,
      "duration": 0.208,
      "velocity": 1,
      "hand": "left"
    },
    {
      "midi": 59,
      "time": 132.917,
      "duration": 0.208,
      "velocity": 1,
      "hand": "left"
    },
    {
      "midi": 61,
      "time": 133.125,
      "duration": 0.208,
      "velocity": 1,
      "hand": "right"
    },
    {
      "midi": 65,
      "time": 133.125,
      "duration": 0.208,
      "velocity": 1,
      "hand": "right"
    },
    {
      "midi": 70,
      "time": 133.333,
      "duration": 0.417,
      "velocity": 1,
      "hand": "right"
    },
    {
      "midi": 71,
      "time": 133.75,
      "duration": 0.417,
      "velocity": 1,
      "hand": "right"
    },
    {
      "midi": 47,
      "time": 134.167,
      "duration": 0.833,
      "velocity": 1,
      "hand": "left"
    },
    {
      "midi": 54,
      "time": 134.167,
      "duration": 0.833,
      "velocity": 1,
      "hand": "left"
    },
    {
      "midi": 58,
      "time": 134.167,
      "duration": 0.833,
      "velocity": 1,
      "hand": "left"
    },
    {
      "midi": 64,
      "time": 134.167,
      "duration": 0.833,
      "velocity": 1,
      "hand": "right"
    },
    {
      "midi": 66,
      "time": 134.167,
      "duration": 0.833,
      "velocity": 1,
      "hand": "right"
    },
    {
      "midi": 75,
      "time": 134.167,
      "duration": 0.417,
      "velocity": 1,
      "hand": "right"
    },
    {
      "midi": 73,
      "time": 134.583,
      "duration": 0.417,
      "velocity": 1,
      "hand": "right"
    },
    {
      "midi": 78,
      "time": 135,
      "duration": 0.833,
      "velocity": 1,
      "hand": "right"
    },
    {
      "midi": 47,
      "time": 135.208,
      "duration": 0.208,
      "velocity": 1,
      "hand": "left"
    },
    {
      "midi": 55,
      "time": 135.208,
      "duration": 0.208,
      "velocity": 1,
      "hand": "left"
    },
    {
      "midi": 63,
      "time": 135.417,
      "duration": 0.208,
      "velocity": 1,
      "hand": "right"
    },
    {
      "midi": 66,
      "time": 135.625,
      "duration": 0.208,
      "velocity": 1,
      "hand": "right"
    },
    {
      "midi": 71,
      "time": 135.625,
      "duration": 0.208,
      "velocity": 1,
      "hand": "right"
    },
    {
      "midi": 74,
      "time": 135.833,
      "duration": 0.833,
      "velocity": 1,
      "hand": "right"
    },
    {
      "midi": 47,
      "time": 136.042,
      "duration": 0.208,
      "velocity": 1,
      "hand": "left"
    },
    {
      "midi": 55,
      "time": 136.042,
      "duration": 0.208,
      "velocity": 1,
      "hand": "left"
    },
    {
      "midi": 59,
      "time": 136.25,
      "duration": 0.208,
      "velocity": 1,
      "hand": "left"
    },
    {
      "midi": 62,
      "time": 136.458,
      "duration": 0.208,
      "velocity": 1,
      "hand": "right"
    },
    {
      "midi": 67,
      "time": 136.458,
      "duration": 0.208,
      "velocity": 1,
      "hand": "right"
    },
    {
      "midi": 75,
      "time": 136.667,
      "duration": 0.833,
      "velocity": 1,
      "hand": "right"
    },
    {
      "midi": 47,
      "time": 136.875,
      "duration": 0.208,
      "velocity": 1,
      "hand": "left"
    },
    {
      "midi": 55,
      "time": 136.875,
      "duration": 0.208,
      "velocity": 1,
      "hand": "left"
    },
    {
      "midi": 59,
      "time": 137.083,
      "duration": 0.208,
      "velocity": 1,
      "hand": "left"
    },
    {
      "midi": 63,
      "time": 137.292,
      "duration": 0.208,
      "velocity": 1,
      "hand": "right"
    },
    {
      "midi": 66,
      "time": 137.292,
      "duration": 0.208,
      "velocity": 1,
      "hand": "right"
    },
    {
      "midi": 68,
      "time": 137.5,
      "duration": 0.833,
      "velocity": 1,
      "hand": "right"
    },
    {
      "midi": 47,
      "time": 137.708,
      "duration": 0.208,
      "velocity": 1,
      "hand": "left"
    },
    {
      "midi": 53,
      "time": 137.708,
      "duration": 0.208,
      "velocity": 1,
      "hand": "left"
    },
    {
      "midi": 59,
      "time": 137.917,
      "duration": 0.208,
      "velocity": 1,
      "hand": "left"
    },
    {
      "midi": 61,
      "time": 138.125,
      "duration": 0.208,
      "velocity": 1,
      "hand": "right"
    },
    {
      "midi": 65,
      "time": 138.125,
      "duration": 0.208,
      "velocity": 1,
      "hand": "right"
    },
    {
      "midi": 70,
      "time": 138.333,
      "duration": 0.417,
      "velocity": 1,
      "hand": "right"
    },
    {
      "midi": 71,
      "time": 138.75,
      "duration": 0.417,
      "velocity": 1,
      "hand": "right"
    },
    {
      "midi": 47,
      "time": 139.167,
      "duration": 0.833,
      "velocity": 1,
      "hand": "left"
    },
    {
      "midi": 54,
      "time": 139.167,
      "duration": 0.833,
      "velocity": 1,
      "hand": "left"
    },
    {
      "midi": 58,
      "time": 139.167,
      "duration": 0.833,
      "velocity": 1,
      "hand": "left"
    },
    {
      "midi": 64,
      "time": 139.167,
      "duration": 0.833,
      "velocity": 1,
      "hand": "right"
    },
    {
      "midi": 66,
      "time": 139.167,
      "duration": 0.833,
      "velocity": 1,
      "hand": "right"
    },
    {
      "midi": 75,
      "time": 139.167,
      "duration": 0.417,
      "velocity": 1,
      "hand": "right"
    },
    {
      "midi": 73,
      "time": 139.583,
      "duration": 0.417,
      "velocity": 1,
      "hand": "right"
    },
    {
      "midi": 78,
      "time": 140,
      "duration": 0.833,
      "velocity": 1,
      "hand": "right"
    },
    {
      "midi": 47,
      "time": 140.208,
      "duration": 0.208,
      "velocity": 1,
      "hand": "left"
    },
    {
      "midi": 55,
      "time": 140.208,
      "duration": 0.208,
      "velocity": 1,
      "hand": "left"
    },
    {
      "midi": 63,
      "time": 140.417,
      "duration": 0.208,
      "velocity": 1,
      "hand": "right"
    },
    {
      "midi": 66,
      "time": 140.625,
      "duration": 0.208,
      "velocity": 1,
      "hand": "right"
    },
    {
      "midi": 71,
      "time": 140.625,
      "duration": 0.208,
      "velocity": 1,
      "hand": "right"
    },
    {
      "midi": 74,
      "time": 140.833,
      "duration": 0.833,
      "velocity": 1,
      "hand": "right"
    },
    {
      "midi": 47,
      "time": 141.042,
      "duration": 0.208,
      "velocity": 1,
      "hand": "left"
    },
    {
      "midi": 55,
      "time": 141.042,
      "duration": 0.208,
      "velocity": 1,
      "hand": "left"
    },
    {
      "midi": 59,
      "time": 141.25,
      "duration": 0.208,
      "velocity": 1,
      "hand": "left"
    },
    {
      "midi": 62,
      "time": 141.458,
      "duration": 0.208,
      "velocity": 1,
      "hand": "right"
    },
    {
      "midi": 67,
      "time": 141.458,
      "duration": 0.208,
      "velocity": 1,
      "hand": "right"
    },
    {
      "midi": 75,
      "time": 141.667,
      "duration": 0.833,
      "velocity": 1,
      "hand": "right"
    },
    {
      "midi": 47,
      "time": 141.875,
      "duration": 0.208,
      "velocity": 1,
      "hand": "left"
    },
    {
      "midi": 55,
      "time": 141.875,
      "duration": 0.208,
      "velocity": 1,
      "hand": "left"
    },
    {
      "midi": 59,
      "time": 142.083,
      "duration": 0.208,
      "velocity": 1,
      "hand": "left"
    },
    {
      "midi": 63,
      "time": 142.292,
      "duration": 0.208,
      "velocity": 1,
      "hand": "right"
    },
    {
      "midi": 66,
      "time": 142.292,
      "duration": 0.208,
      "velocity": 1,
      "hand": "right"
    },
    {
      "midi": 67,
      "time": 142.5,
      "duration": 0.833,
      "velocity": 1,
      "hand": "right"
    },
    {
      "midi": 47,
      "time": 142.708,
      "duration": 0.208,
      "velocity": 1,
      "hand": "left"
    },
    {
      "midi": 53,
      "time": 142.708,
      "duration": 0.208,
      "velocity": 1,
      "hand": "left"
    },
    {
      "midi": 55,
      "time": 142.917,
      "duration": 0.208,
      "velocity": 1,
      "hand": "left"
    },
    {
      "midi": 59,
      "time": 143.125,
      "duration": 0.208,
      "velocity": 1,
      "hand": "left"
    },
    {
      "midi": 62,
      "time": 143.125,
      "duration": 0.208,
      "velocity": 1,
      "hand": "right"
    },
    {
      "midi": 66,
      "time": 143.333,
      "duration": 0.833,
      "velocity": 1,
      "hand": "right"
    },
    {
      "midi": 47,
      "time": 143.542,
      "duration": 0.208,
      "velocity": 1,
      "hand": "left"
    },
    {
      "midi": 55,
      "time": 143.542,
      "duration": 0.208,
      "velocity": 1,
      "hand": "left"
    },
    {
      "midi": 59,
      "time": 143.75,
      "duration": 0.208,
      "velocity": 1,
      "hand": "left"
    },
    {
      "midi": 62,
      "time": 143.958,
      "duration": 0.208,
      "velocity": 1,
      "hand": "right"
    },
    {
      "midi": 63,
      "time": 143.958,
      "duration": 0.208,
      "velocity": 1,
      "hand": "right"
    },
    {
      "midi": 55,
      "time": 144.167,
      "duration": 0.833,
      "velocity": 1,
      "hand": "left"
    },
    {
      "midi": 35,
      "time": 144.375,
      "duration": 0.208,
      "velocity": 1,
      "hand": "left"
    },
    {
      "midi": 41,
      "time": 144.375,
      "duration": 0.208,
      "velocity": 1,
      "hand": "left"
    },
    {
      "midi": 43,
      "time": 144.583,
      "duration": 0.208,
      "velocity": 1,
      "hand": "left"
    },
    {
      "midi": 47,
      "time": 144.792,
      "duration": 0.208,
      "velocity": 1,
      "hand": "left"
    },
    {
      "midi": 50,
      "time": 144.792,
      "duration": 0.208,
      "velocity": 1,
      "hand": "left"
    },
    {
      "midi": 54,
      "time": 145,
      "duration": 0.625,
      "velocity": 1,
      "hand": "left"
    },
    {
      "midi": 35,
      "time": 145.208,
      "duration": 0.208,
      "velocity": 1,
      "hand": "left"
    },
    {
      "midi": 42,
      "time": 145.208,
      "duration": 0.208,
      "velocity": 1,
      "hand": "left"
    },
    {
      "midi": 51,
      "time": 145.417,
      "duration": 0.208,
      "velocity": 1,
      "hand": "left"
    },
    {
      "midi": 53,
      "time": 145.625,
      "duration": 0.208,
      "velocity": 1,
      "hand": "left"
    },
    {
      "midi": 54,
      "time": 145.625,
      "duration": 0.208,
      "velocity": 1,
      "hand": "left"
    },
    {
      "midi": 55,
      "time": 145.833,
      "duration": 0.208,
      "velocity": 1,
      "hand": "left"
    },
    {
      "midi": 56,
      "time": 146.042,
      "duration": 0.208,
      "velocity": 1,
      "hand": "left"
    },
    {
      "midi": 57,
      "time": 146.25,
      "duration": 0.208,
      "velocity": 1,
      "hand": "left"
    },
    {
      "midi": 58,
      "time": 146.458,
      "duration": 0.208,
      "velocity": 1,
      "hand": "left"
    },
    {
      "midi": 59,
      "time": 146.667,
      "duration": 0.208,
      "velocity": 1,
      "hand": "left"
    },
    {
      "midi": 61,
      "time": 146.875,
      "duration": 0.417,
      "velocity": 1,
      "hand": "right"
    },
    {
      "midi": 62,
      "time": 147.292,
      "duration": 0.625,
      "velocity": 1,
      "hand": "right"
    },
    {
      "midi": 63,
      "time": 147.917,
      "duration": 0.833,
      "velocity": 1,
      "hand": "right"
    },
    {
      "midi": 64,
      "time": 148.75,
      "duration": 0.417,
      "velocity": 1,
      "hand": "right"
    },
    {
      "midi": 65,
      "time": 149.167,
      "duration": 0.417,
      "velocity": 1,
      "hand": "right"
    },
    {
      "midi": 66,
      "time": 149.583,
      "duration": 0.417,
      "velocity": 1,
      "hand": "right"
    },
    {
      "midi": 66,
      "time": 152.5,
      "duration": 0.417,
      "velocity": 1,
      "hand": "right"
    },
    {
      "midi": 68,
      "time": 152.917,
      "duration": 0.208,
      "velocity": 1,
      "hand": "right"
    },
    {
      "midi": 69,
      "time": 153.125,
      "duration": 0.208,
      "velocity": 1,
      "hand": "right"
    },
    {
      "midi": 50,
      "time": 153.333,
      "duration": 0.833,
      "velocity": 1,
      "hand": "left"
    },
    {
      "midi": 52,
      "time": 153.333,
      "duration": 1.667,
      "velocity": 1,
      "hand": "left"
    },
    {
      "midi": 59,
      "time": 153.333,
      "duration": 0.833,
      "velocity": 1,
      "hand": "left"
    },
    {
      "midi": 64,
      "time": 153.333,
      "duration": 0.833,
      "velocity": 1,
      "hand": "right"
    },
    {
      "midi": 68,
      "time": 153.333,
      "duration": 0.417,
      "velocity": 1,
      "hand": "right"
    },
    {
      "midi": 71,
      "time": 153.75,
      "duration": 0.417,
      "velocity": 1,
      "hand": "right"
    },
    {
      "midi": 49,
      "time": 154.167,
      "duration": 0.833,
      "velocity": 1,
      "hand": "left"
    },
    {
      "midi": 64,
      "time": 154.167,
      "duration": 1.667,
      "velocity": 1,
      "hand": "right"
    },
    {
      "midi": 69,
      "time": 154.583,
      "duration": 0.417,
      "velocity": 1,
      "hand": "right"
    },
    {
      "midi": 47,
      "time": 155,
      "duration": 0.417,
      "velocity": 1,
      "hand": "left"
    },
    {
      "midi": 52,
      "time": 155,
      "duration": 0.833,
      "velocity": 1,
      "hand": "left"
    },
    {
      "midi": 68,
      "time": 155,
      "duration": 0.417,
      "velocity": 1,
      "hand": "right"
    },
    {
      "midi": 71,
      "time": 155,
      "duration": 0.417,
      "velocity": 1,
      "hand": "right"
    },
    {
      "midi": 45,
      "time": 155.417,
      "duration": 0.417,
      "velocity": 1,
      "hand": "left"
    },
    {
      "midi": 69,
      "time": 155.417,
      "duration": 0.417,
      "velocity": 1,
      "hand": "right"
    },
    {
      "midi": 73,
      "time": 155.417,
      "duration": 0.417,
      "velocity": 1,
      "hand": "right"
    },
    {
      "midi": 44,
      "time": 155.833,
      "duration": 0.833,
      "velocity": 1,
      "hand": "left"
    },
    {
      "midi": 52,
      "time": 155.833,
      "duration": 1.667,
      "velocity": 1,
      "hand": "left"
    },
    {
      "midi": 64,
      "time": 155.833,
      "duration": 1.667,
      "velocity": 1,
      "hand": "right"
    },
    {
      "midi": 71,
      "time": 155.833,
      "duration": 0.833,
      "velocity": 1,
      "hand": "right"
    },
    {
      "midi": 76,
      "time": 155.833,
      "duration": 0.833,
      "velocity": 1,
      "hand": "right"
    },
    {
      "midi": 45,
      "time": 156.667,
      "duration": 0.833,
      "velocity": 1,
      "hand": "left"
    },
    {
      "midi": 69,
      "time": 156.667,
      "duration": 0.833,
      "velocity": 1,
      "hand": "right"
    },
    {
      "midi": 73,
      "time": 156.667,
      "duration": 0.833,
      "velocity": 1,
      "hand": "right"
    },
    {
      "midi": 73,
      "time": 157.5,
      "duration": 0.417,
      "velocity": 1,
      "hand": "right"
    },
    {
      "midi": 74,
      "time": 157.917,
      "duration": 0.208,
      "velocity": 1,
      "hand": "right"
    },
    {
      "midi": 76,
      "time": 158.125,
      "duration": 0.208,
      "velocity": 1,
      "hand": "right"
    },
    {
      "midi": 46,
      "time": 158.333,
      "duration": 0.833,
      "velocity": 1,
      "hand": "left"
    },
    {
      "midi": 54,
      "time": 158.333,
      "duration": 0.833,
      "velocity": 1,
      "hand": "left"
    },
    {
      "midi": 61,
      "time": 158.333,
      "duration": 0.833,
      "velocity": 1,
      "hand": "right"
    },
    {
      "midi": 66,
      "time": 158.333,
      "duration": 0.833,
      "velocity": 1,
      "hand": "right"
    },
    {
      "midi": 73,
      "time": 158.333,
      "duration": 0.417,
      "velocity": 1,
      "hand": "right"
    },
    {
      "midi": 78,
      "time": 158.333,
      "duration": 0.417,
      "velocity": 1,
      "hand": "right"
    },
    {
      "midi": 73,
      "time": 158.75,
      "duration": 0.417,
      "velocity": 1,
      "hand": "right"
    },
    {
      "midi": 47,
      "time": 159.167,
      "duration": 0.833,
      "velocity": 1,
      "hand": "left"
    },
    {
      "midi": 54,
      "time": 159.167,
      "duration": 0.833,
      "velocity": 1,
      "hand": "left"
    },
    {
      "midi": 59,
      "time": 159.167,
      "duration": 0.833,
      "velocity": 1,
      "hand": "left"
    },
    {
      "midi": 66,
      "time": 159.167,
      "duration": 0.833,
      "velocity": 1,
      "hand": "right"
    },
    {
      "midi": 71,
      "time": 159.167,
      "duration": 0.833,
      "velocity": 1,
      "hand": "right"
    },
    {
      "midi": 74,
      "time": 159.167,
      "duration": 0.833,
      "velocity": 1,
      "hand": "right"
    },
    {
      "midi": 66,
      "time": 160,
      "duration": 0.417,
      "velocity": 1,
      "hand": "right"
    },
    {
      "midi": 68,
      "time": 160.417,
      "duration": 0.208,
      "velocity": 1,
      "hand": "right"
    },
    {
      "midi": 69,
      "time": 160.625,
      "duration": 0.208,
      "velocity": 1,
      "hand": "right"
    },
    {
      "midi": 47,
      "time": 160.833,
      "duration": 0.833,
      "velocity": 1,
      "hand": "left"
    },
    {
      "midi": 57,
      "time": 160.833,
      "duration": 0.833,
      "velocity": 1,
      "hand": "left"
    },
    {
      "midi": 63,
      "time": 160.833,
      "duration": 0.833,
      "velocity": 1,
      "hand": "right"
    },
    {
      "midi": 73,
      "time": 160.833,
      "duration": 0.417,
      "velocity": 1,
      "hand": "right"
    },
    {
      "midi": 70,
      "time": 161.25,
      "duration": 0.833,
      "velocity": 1,
      "hand": "right"
    },
    {
      "midi": 52,
      "time": 161.667,
      "duration": 0.833,
      "velocity": 1,
      "hand": "left"
    },
    {
      "midi": 56,
      "time": 161.667,
      "duration": 0.833,
      "velocity": 1,
      "hand": "left"
    },
    {
      "midi": 62,
      "time": 161.667,
      "duration": 0.833,
      "velocity": 1,
      "hand": "right"
    },
    {
      "midi": 71,
      "time": 162.083,
      "duration": 0.417,
      "velocity": 1,
      "hand": "right"
    },
    {
      "midi": 66,
      "time": 162.5,
      "duration": 0.417,
      "velocity": 1,
      "hand": "right"
    },
    {
      "midi": 68,
      "time": 162.917,
      "duration": 0.208,
      "velocity": 1,
      "hand": "right"
    },
    {
      "midi": 69,
      "time": 163.125,
      "duration": 0.208,
      "velocity": 1,
      "hand": "right"
    },
    {
      "midi": 50,
      "time": 163.333,
      "duration": 0.833,
      "velocity": 1,
      "hand": "left"
    },
    {
      "midi": 52,
      "time": 163.333,
      "duration": 1.667,
      "velocity": 1,
      "hand": "left"
    },
    {
      "midi": 59,
      "time": 163.333,
      "duration": 0.833,
      "velocity": 1,
      "hand": "left"
    },
    {
      "midi": 64,
      "time": 163.333,
      "duration": 0.833,
      "velocity": 1,
      "hand": "right"
    },
    {
      "midi": 68,
      "time": 163.333,
      "duration": 0.417,
      "velocity": 1,
      "hand": "right"
    },
    {
      "midi": 71,
      "time": 163.75,
      "duration": 0.417,
      "velocity": 1,
      "hand": "right"
    },
    {
      "midi": 49,
      "time": 164.167,
      "duration": 0.833,
      "velocity": 1,
      "hand": "left"
    },
    {
      "midi": 64,
      "time": 164.167,
      "duration": 1.667,
      "velocity": 1,
      "hand": "right"
    },
    {
      "midi": 69,
      "time": 164.583,
      "duration": 0.417,
      "velocity": 1,
      "hand": "right"
    },
    {
      "midi": 47,
      "time": 165,
      "duration": 0.417,
      "velocity": 1,
      "hand": "left"
    },
    {
      "midi": 52,
      "time": 165,
      "duration": 0.833,
      "velocity": 1,
      "hand": "left"
    },
    {
      "midi": 68,
      "time": 165,
      "duration": 0.417,
      "velocity": 1,
      "hand": "right"
    },
    {
      "midi": 71,
      "time": 165,
      "duration": 0.417,
      "velocity": 1,
      "hand": "right"
    },
    {
      "midi": 45,
      "time": 165.417,
      "duration": 0.417,
      "velocity": 1,
      "hand": "left"
    },
    {
      "midi": 69,
      "time": 165.417,
      "duration": 0.417,
      "velocity": 1,
      "hand": "right"
    },
    {
      "midi": 73,
      "time": 165.417,
      "duration": 0.417,
      "velocity": 1,
      "hand": "right"
    },
    {
      "midi": 44,
      "time": 165.833,
      "duration": 0.833,
      "velocity": 1,
      "hand": "left"
    },
    {
      "midi": 52,
      "time": 165.833,
      "duration": 1.667,
      "velocity": 1,
      "hand": "left"
    },
    {
      "midi": 64,
      "time": 165.833,
      "duration": 1.667,
      "velocity": 1,
      "hand": "right"
    },
    {
      "midi": 71,
      "time": 165.833,
      "duration": 0.833,
      "velocity": 1,
      "hand": "right"
    },
    {
      "midi": 76,
      "time": 165.833,
      "duration": 0.833,
      "velocity": 1,
      "hand": "right"
    },
    {
      "midi": 45,
      "time": 166.667,
      "duration": 0.833,
      "velocity": 1,
      "hand": "left"
    },
    {
      "midi": 69,
      "time": 166.667,
      "duration": 0.833,
      "velocity": 1,
      "hand": "right"
    },
    {
      "midi": 73,
      "time": 166.667,
      "duration": 0.833,
      "velocity": 1,
      "hand": "right"
    },
    {
      "midi": 73,
      "time": 167.5,
      "duration": 0.417,
      "velocity": 1,
      "hand": "right"
    },
    {
      "midi": 75,
      "time": 167.917,
      "duration": 0.208,
      "velocity": 1,
      "hand": "right"
    },
    {
      "midi": 76,
      "time": 168.125,
      "duration": 0.208,
      "velocity": 1,
      "hand": "right"
    },
    {
      "midi": 47,
      "time": 168.333,
      "duration": 2.5,
      "velocity": 1,
      "hand": "left"
    },
    {
      "midi": 64,
      "time": 168.333,
      "duration": 0.833,
      "velocity": 1,
      "hand": "right"
    },
    {
      "midi": 68,
      "time": 168.333,
      "duration": 0.417,
      "velocity": 1,
      "hand": "right"
    },
    {
      "midi": 73,
      "time": 168.75,
      "duration": 0.417,
      "velocity": 1,
      "hand": "right"
    },
    {
      "midi": 57,
      "time": 169.167,
      "duration": 0.417,
      "velocity": 1,
      "hand": "left"
    },
    {
      "midi": 63,
      "time": 169.167,
      "duration": 0.833,
      "velocity": 1,
      "hand": "right"
    },
    {
      "midi": 66,
      "time": 169.167,
      "duration": 0.833,
      "velocity": 1,
      "hand": "right"
    },
    {
      "midi": 71,
      "time": 169.167,
      "duration": 0.833,
      "velocity": 1,
      "hand": "right"
    },
    {
      "midi": 59,
      "time": 169.583,
      "duration": 0.417,
      "velocity": 1,
      "hand": "left"
    },
    {
      "midi": 56,
      "time": 170,
      "duration": 0.833,
      "velocity": 1,
      "hand": "left"
    },
    {
      "midi": 64,
      "time": 170,
      "duration": 0.833,
      "velocity": 1,
      "hand": "right"
    },
    {
      "midi": 71,
      "time": 170,
      "duration": 0.833,
      "velocity": 1,
      "hand": "right"
    },
    {
      "midi": 73,
      "time": 170,
      "duration": 0.417,
      "velocity": 1,
      "hand": "right"
    },
    {
      "midi": 75,
      "time": 170.417,
      "duration": 0.208,
      "velocity": 1,
      "hand": "right"
    },
    {
      "midi": 76,
      "time": 170.625,
      "duration": 0.208,
      "velocity": 1,
      "hand": "right"
    },
    {
      "midi": 47,
      "time": 170.833,
      "duration": 2.083,
      "velocity": 1,
      "hand": "left"
    },
    {
      "midi": 64,
      "time": 170.833,
      "duration": 0.833,
      "velocity": 1,
      "hand": "right"
    },
    {
      "midi": 68,
      "time": 170.833,
      "duration": 0.417,
      "velocity": 1,
      "hand": "right"
    },
    {
      "midi": 73,
      "time": 171.25,
      "duration": 0.417,
      "velocity": 1,
      "hand": "right"
    },
    {
      "midi": 57,
      "time": 171.667,
      "duration": 0.417,
      "velocity": 1,
      "hand": "left"
    },
    {
      "midi": 63,
      "time": 171.667,
      "duration": 0.833,
      "velocity": 1,
      "hand": "right"
    },
    {
      "midi": 66,
      "time": 171.667,
      "duration": 0.833,
      "velocity": 1,
      "hand": "right"
    },
    {
      "midi": 71,
      "time": 171.667,
      "duration": 0.833,
      "velocity": 1,
      "hand": "right"
    },
    {
      "midi": 59,
      "time": 172.083,
      "duration": 0.417,
      "velocity": 1,
      "hand": "left"
    },
    {
      "midi": 56,
      "time": 172.5,
      "duration": 0.417,
      "velocity": 1,
      "hand": "left"
    },
    {
      "midi": 64,
      "time": 172.5,
      "duration": 0.417,
      "velocity": 1,
      "hand": "right"
    },
    {
      "midi": 71,
      "time": 172.5,
      "duration": 0.417,
      "velocity": 1,
      "hand": "right"
    },
    {
      "midi": 73,
      "time": 172.5,
      "duration": 0.417,
      "velocity": 1,
      "hand": "right"
    },
    {
      "midi": 75,
      "time": 172.917,
      "duration": 0.208,
      "velocity": 1,
      "hand": "right"
    },
    {
      "midi": 76,
      "time": 173.125,
      "duration": 0.208,
      "velocity": 1,
      "hand": "right"
    },
    {
      "midi": 80,
      "time": 173.333,
      "duration": 0.417,
      "velocity": 1,
      "hand": "right"
    },
    {
      "midi": 76,
      "time": 173.75,
      "duration": 0.417,
      "velocity": 1,
      "hand": "right"
    },
    {
      "midi": 75,
      "time": 174.167,
      "duration": 0.417,
      "velocity": 1,
      "hand": "right"
    },
    {
      "midi": 73,
      "time": 174.583,
      "duration": 0.417,
      "velocity": 1,
      "hand": "right"
    },
    {
      "midi": 54,
      "time": 175,
      "duration": 0.417,
      "velocity": 1,
      "hand": "left"
    },
    {
      "midi": 63,
      "time": 175,
      "duration": 0.833,
      "velocity": 1,
      "hand": "right"
    },
    {
      "midi": 66,
      "time": 175,
      "duration": 0.833,
      "velocity": 1,
      "hand": "right"
    },
    {
      "midi": 73,
      "time": 175,
      "duration": 0.833,
      "velocity": 1,
      "hand": "right"
    },
    {
      "midi": 56,
      "time": 175.417,
      "duration": 0.208,
      "velocity": 1,
      "hand": "left"
    },
    {
      "midi": 57,
      "time": 175.625,
      "duration": 0.208,
      "velocity": 1,
      "hand": "left"
    },
    {
      "midi": 47,
      "time": 175.833,
      "duration": 0.833,
      "velocity": 1,
      "hand": "left"
    },
    {
      "midi": 61,
      "time": 175.833,
      "duration": 0.417,
      "velocity": 1,
      "hand": "right"
    },
    {
      "midi": 63,
      "time": 175.833,
      "duration": 0.833,
      "velocity": 1,
      "hand": "right"
    },
    {
      "midi": 66,
      "time": 175.833,
      "duration": 0.833,
      "velocity": 1,
      "hand": "right"
    },
    {
      "midi": 59,
      "time": 176.25,
      "duration": 0.417,
      "velocity": 1,
      "hand": "left"
    },
    {
      "midi": 52,
      "time": 176.667,
      "duration": 0.833,
      "velocity": 1,
      "hand": "left"
    },
    {
      "midi": 57,
      "time": 176.667,
      "duration": 0.417,
      "velocity": 1,
      "hand": "left"
    },
    {
      "midi": 59,
      "time": 176.667,
      "duration": 0.833,
      "velocity": 1,
      "hand": "left"
    },
    {
      "midi": 64,
      "time": 176.667,
      "duration": 0.833,
      "velocity": 1,
      "hand": "right"
    },
    {
      "midi": 56,
      "time": 177.083,
      "duration": 0.417,
      "velocity": 1,
      "hand": "left"
    },
    {
      "midi": 40,
      "time": 177.5,
      "duration": 0.417,
      "velocity": 1,
      "hand": "left"
    },
    {
      "midi": 74,
      "time": 177.5,
      "duration": 0.417,
      "velocity": 1,
      "hand": "right"
    },
    {
      "midi": 52,
      "time": 177.708,
      "duration": 0.208,
      "velocity": 1,
      "hand": "left"
    },
    {
      "midi": 54,
      "time": 177.917,
      "duration": 0.208,
      "velocity": 1,
      "hand": "left"
    },
    {
      "midi": 73,
      "time": 177.917,
      "duration": 0.208,
      "velocity": 1,
      "hand": "right"
    },
    {
      "midi": 56,
      "time": 178.125,
      "duration": 0.208,
      "velocity": 1,
      "hand": "left"
    },
    {
      "midi": 71,
      "time": 178.125,
      "duration": 0.208,
      "velocity": 1,
      "hand": "right"
    },
    {
      "midi": 52,
      "time": 178.333,
      "duration": 1.667,
      "velocity": 1,
      "hand": "left"
    },
    {
      "midi": 57,
      "time": 178.333,
      "duration": 0.208,
      "velocity": 1,
      "hand": "left"
    },
    {
      "midi": 63,
      "time": 178.333,
      "duration": 0.833,
      "velocity": 1,
      "hand": "right"
    },
    {
      "midi": 66,
      "time": 178.333,
      "duration": 0.417,
      "velocity": 1,
      "hand": "right"
    },
    {
      "midi": 59,
      "time": 178.542,
      "duration": 0.208,
      "velocity": 1,
      "hand": "left"
    },
    {
      "midi": 60,
      "time": 178.75,
      "duration": 0.833,
      "velocity": 1,
      "hand": "right"
    },
    {
      "midi": 69,
      "time": 178.75,
      "duration": 0.417,
      "velocity": 1,
      "hand": "right"
    },
    {
      "midi": 64,
      "time": 179.167,
      "duration": 0.833,
      "velocity": 1,
      "hand": "right"
    },
    {
      "midi": 68,
      "time": 179.167,
      "duration": 0.833,
      "velocity": 1,
      "hand": "right"
    },
    {
      "midi": 59,
      "time": 179.583,
      "duration": 0.417,
      "velocity": 1,
      "hand": "left"
    },
    {
      "midi": 45,
      "time": 180,
      "duration": 0.417,
      "velocity": 1,
      "hand": "left"
    },
    {
      "midi": 52,
      "time": 180,
      "duration": 1.667,
      "velocity": 1,
      "hand": "left"
    },
    {
      "midi": 61,
      "time": 180,
      "duration": 0.417,
      "velocity": 1,
      "hand": "right"
    },
    {
      "midi": 66,
      "time": 180,
      "duration": 0.417,
      "velocity": 1,
      "hand": "right"
    },
    {
      "midi": 44,
      "time": 180.417,
      "duration": 0.417,
      "velocity": 1,
      "hand": "left"
    },
    {
      "midi": 60,
      "time": 180.417,
      "duration": 0.417,
      "velocity": 1,
      "hand": "right"
    },
    {
      "midi": 68,
      "time": 180.417,
      "duration": 0.417,
      "velocity": 1,
      "hand": "right"
    },
    {
      "midi": 45,
      "time": 180.833,
      "duration": 0.417,
      "velocity": 1,
      "hand": "left"
    },
    {
      "midi": 61,
      "time": 180.833,
      "duration": 0.417,
      "velocity": 1,
      "hand": "right"
    },
    {
      "midi": 66,
      "time": 180.833,
      "duration": 0.417,
      "velocity": 1,
      "hand": "right"
    },
    {
      "midi": 44,
      "time": 181.25,
      "duration": 0.417,
      "velocity": 1,
      "hand": "left"
    },
    {
      "midi": 60,
      "time": 181.25,
      "duration": 0.417,
      "velocity": 1,
      "hand": "right"
    },
    {
      "midi": 68,
      "time": 181.25,
      "duration": 0.417,
      "velocity": 1,
      "hand": "right"
    },
    {
      "midi": 52,
      "time": 181.667,
      "duration": 0.833,
      "velocity": 1,
      "hand": "left"
    },
    {
      "midi": 57,
      "time": 181.667,
      "duration": 0.417,
      "velocity": 1,
      "hand": "left"
    },
    {
      "midi": 59,
      "time": 181.667,
      "duration": 0.833,
      "velocity": 1,
      "hand": "left"
    },
    {
      "midi": 64,
      "time": 181.667,
      "duration": 0.833,
      "velocity": 1,
      "hand": "right"
    },
    {
      "midi": 56,
      "time": 182.083,
      "duration": 0.417,
      "velocity": 1,
      "hand": "left"
    },
    {
      "midi": 40,
      "time": 182.5,
      "duration": 0.417,
      "velocity": 1,
      "hand": "left"
    },
    {
      "midi": 74,
      "time": 182.5,
      "duration": 0.417,
      "velocity": 1,
      "hand": "right"
    },
    {
      "midi": 52,
      "time": 182.708,
      "duration": 0.208,
      "velocity": 1,
      "hand": "left"
    },
    {
      "midi": 54,
      "time": 182.917,
      "duration": 0.208,
      "velocity": 1,
      "hand": "left"
    },
    {
      "midi": 73,
      "time": 182.917,
      "duration": 0.208,
      "velocity": 1,
      "hand": "right"
    },
    {
      "midi": 56,
      "time": 183.125,
      "duration": 0.208,
      "velocity": 1,
      "hand": "left"
    },
    {
      "midi": 71,
      "time": 183.125,
      "duration": 0.208,
      "velocity": 1,
      "hand": "right"
    },
    {
      "midi": 52,
      "time": 183.333,
      "duration": 1.667,
      "velocity": 1,
      "hand": "left"
    },
    {
      "midi": 57,
      "time": 183.333,
      "duration": 0.208,
      "velocity": 1,
      "hand": "left"
    },
    {
      "midi": 63,
      "time": 183.333,
      "duration": 0.833,
      "velocity": 1,
      "hand": "right"
    },
    {
      "midi": 66,
      "time": 183.333,
      "duration": 0.417,
      "velocity": 1,
      "hand": "right"
    },
    {
      "midi": 59,
      "time": 183.542,
      "duration": 0.208,
      "velocity": 1,
      "hand": "left"
    },
    {
      "midi": 60,
      "time": 183.75,
      "duration": 0.833,
      "velocity": 1,
      "hand": "right"
    },
    {
      "midi": 69,
      "time": 183.75,
      "duration": 0.417,
      "velocity": 1,
      "hand": "right"
    },
    {
      "midi": 64,
      "time": 184.167,
      "duration": 0.833,
      "velocity": 1,
      "hand": "right"
    },
    {
      "midi": 68,
      "time": 184.167,
      "duration": 0.833,
      "velocity": 1,
      "hand": "right"
    },
    {
      "midi": 59,
      "time": 184.583,
      "duration": 0.417,
      "velocity": 1,
      "hand": "left"
    },
    {
      "midi": 45,
      "time": 185,
      "duration": 0.417,
      "velocity": 1,
      "hand": "left"
    },
    {
      "midi": 52,
      "time": 185,
      "duration": 1.667,
      "velocity": 1,
      "hand": "left"
    },
    {
      "midi": 61,
      "time": 185,
      "duration": 0.417,
      "velocity": 1,
      "hand": "right"
    },
    {
      "midi": 66,
      "time": 185,
      "duration": 0.417,
      "velocity": 1,
      "hand": "right"
    },
    {
      "midi": 44,
      "time": 185.417,
      "duration": 0.417,
      "velocity": 1,
      "hand": "left"
    },
    {
      "midi": 60,
      "time": 185.417,
      "duration": 0.417,
      "velocity": 1,
      "hand": "right"
    },
    {
      "midi": 68,
      "time": 185.417,
      "duration": 0.417,
      "velocity": 1,
      "hand": "right"
    },
    {
      "midi": 45,
      "time": 185.833,
      "duration": 0.417,
      "velocity": 1,
      "hand": "left"
    },
    {
      "midi": 61,
      "time": 185.833,
      "duration": 0.417,
      "velocity": 1,
      "hand": "right"
    },
    {
      "midi": 66,
      "time": 185.833,
      "duration": 0.417,
      "velocity": 1,
      "hand": "right"
    },
    {
      "midi": 44,
      "time": 186.25,
      "duration": 0.417,
      "velocity": 1,
      "hand": "left"
    },
    {
      "midi": 60,
      "time": 186.25,
      "duration": 0.417,
      "velocity": 1,
      "hand": "right"
    },
    {
      "midi": 68,
      "time": 186.25,
      "duration": 0.417,
      "velocity": 1,
      "hand": "right"
    },
    {
      "midi": 52,
      "time": 186.667,
      "duration": 0.833,
      "velocity": 1,
      "hand": "left"
    },
    {
      "midi": 57,
      "time": 186.667,
      "duration": 0.417,
      "velocity": 1,
      "hand": "left"
    },
    {
      "midi": 59,
      "time": 186.667,
      "duration": 0.833,
      "velocity": 1,
      "hand": "left"
    },
    {
      "midi": 64,
      "time": 186.667,
      "duration": 0.833,
      "velocity": 1,
      "hand": "right"
    },
    {
      "midi": 56,
      "time": 187.083,
      "duration": 0.417,
      "velocity": 1,
      "hand": "left"
    },
    {
      "midi": 49,
      "time": 187.5,
      "duration": 0.417,
      "velocity": 1,
      "hand": "left"
    },
    {
      "midi": 56,
      "time": 187.5,
      "duration": 1.667,
      "velocity": 1,
      "hand": "left"
    },
    {
      "midi": 64,
      "time": 187.5,
      "duration": 0.417,
      "velocity": 1,
      "hand": "right"
    },
    {
      "midi": 70,
      "time": 187.5,
      "duration": 0.417,
      "velocity": 1,
      "hand": "right"
    },
    {
      "midi": 48,
      "time": 187.917,
      "duration": 0.417,
      "velocity": 1,
      "hand": "left"
    },
    {
      "midi": 63,
      "time": 187.917,
      "duration": 0.417,
      "velocity": 1,
      "hand": "right"
    },
    {
      "midi": 72,
      "time": 187.917,
      "duration": 0.417,
      "velocity": 1,
      "hand": "right"
    },
    {
      "midi": 49,
      "time": 188.333,
      "duration": 0.417,
      "velocity": 1,
      "hand": "left"
    },
    {
      "midi": 64,
      "time": 188.333,
      "duration": 0.417,
      "velocity": 1,
      "hand": "right"
    },
    {
      "midi": 70,
      "time": 188.333,
      "duration": 0.417,
      "velocity": 1,
      "hand": "right"
    },
    {
      "midi": 48,
      "time": 188.75,
      "duration": 0.417,
      "velocity": 1,
      "hand": "left"
    },
    {
      "midi": 63,
      "time": 188.75,
      "duration": 0.417,
      "velocity": 1,
      "hand": "right"
    },
    {
      "midi": 72,
      "time": 188.75,
      "duration": 0.417,
      "velocity": 1,
      "hand": "right"
    },
    {
      "midi": 56,
      "time": 189.167,
      "duration": 0.833,
      "velocity": 1,
      "hand": "left"
    },
    {
      "midi": 61,
      "time": 189.167,
      "duration": 0.417,
      "velocity": 1,
      "hand": "right"
    },
    {
      "midi": 63,
      "time": 189.167,
      "duration": 0.833,
      "velocity": 1,
      "hand": "right"
    },
    {
      "midi": 68,
      "time": 189.167,
      "duration": 0.833,
      "velocity": 1,
      "hand": "right"
    },
    {
      "midi": 60,
      "time": 189.583,
      "duration": 0.417,
      "velocity": 1,
      "hand": "right"
    },
    {
      "midi": 53,
      "time": 190,
      "duration": 0.417,
      "velocity": 1,
      "hand": "left"
    },
    {
      "midi": 60,
      "time": 190,
      "duration": 1.667,
      "velocity": 1,
      "hand": "right"
    },
    {
      "midi": 68,
      "time": 190,
      "duration": 0.417,
      "velocity": 1,
      "hand": "right"
    },
    {
      "midi": 74,
      "time": 190,
      "duration": 0.417,
      "velocity": 1,
      "hand": "right"
    },
    {
      "midi": 52,
      "time": 190.417,
      "duration": 0.417,
      "velocity": 1,
      "hand": "left"
    },
    {
      "midi": 67,
      "time": 190.417,
      "duration": 0.417,
      "velocity": 1,
      "hand": "right"
    },
    {
      "midi": 76,
      "time": 190.417,
      "duration": 0.417,
      "velocity": 1,
      "hand": "right"
    },
    {
      "midi": 53,
      "time": 190.833,
      "duration": 0.417,
      "velocity": 1,
      "hand": "left"
    },
    {
      "midi": 68,
      "time": 190.833,
      "duration": 0.417,
      "velocity": 1,
      "hand": "right"
    },
    {
      "midi": 74,
      "time": 190.833,
      "duration": 0.417,
      "velocity": 1,
      "hand": "right"
    },
    {
      "midi": 52,
      "time": 191.25,
      "duration": 0.417,
      "velocity": 1,
      "hand": "left"
    },
    {
      "midi": 67,
      "time": 191.25,
      "duration": 0.417,
      "velocity": 1,
      "hand": "right"
    },
    {
      "midi": 76,
      "time": 191.25,
      "duration": 0.417,
      "velocity": 1,
      "hand": "right"
    },
    {
      "midi": 56,
      "time": 191.667,
      "duration": 0.417,
      "velocity": 1,
      "hand": "left"
    },
    {
      "midi": 60,
      "time": 191.667,
      "duration": 0.417,
      "velocity": 1,
      "hand": "right"
    },
    {
      "midi": 63,
      "time": 191.667,
      "duration": 0.417,
      "velocity": 1,
      "hand": "right"
    },
    {
      "midi": 66,
      "time": 191.667,
      "duration": 0.417,
      "velocity": 1,
      "hand": "right"
    },
    {
      "midi": 72,
      "time": 191.667,
      "duration": 0.833,
      "velocity": 1,
      "hand": "right"
    },
    {
      "midi": 48,
      "time": 192.083,
      "duration": 0.417,
      "velocity": 1,
      "hand": "left"
    },
    {
      "midi": 55,
      "time": 192.083,
      "duration": 0.417,
      "velocity": 1,
      "hand": "left"
    },
    {
      "midi": 64,
      "time": 192.083,
      "duration": 0.417,
      "velocity": 1,
      "hand": "right"
    },
    {
      "midi": 67,
      "time": 192.083,
      "duration": 0.417,
      "velocity": 1,
      "hand": "right"
    },
    {
      "midi": 53,
      "time": 192.5,
      "duration": 0.417,
      "velocity": 1,
      "hand": "left"
    },
    {
      "midi": 60,
      "time": 192.5,
      "duration": 1.667,
      "velocity": 1,
      "hand": "right"
    },
    {
      "midi": 68,
      "time": 192.5,
      "duration": 0.417,
      "velocity": 1,
      "hand": "right"
    },
    {
      "midi": 74,
      "time": 192.5,
      "duration": 0.208,
      "velocity": 1,
      "hand": "right"
    },
    {
      "midi": 77,
      "time": 192.708,
      "duration": 0.208,
      "velocity": 1,
      "hand": "right"
    },
    {
      "midi": 55,
      "time": 192.917,
      "duration": 0.417,
      "velocity": 1,
      "hand": "left"
    },
    {
      "midi": 67,
      "time": 192.917,
      "duration": 0.417,
      "velocity": 1,
      "hand": "right"
    },
    {
      "midi": 72,
      "time": 192.917,
      "duration": 0.417,
      "velocity": 1,
      "hand": "right"
    },
    {
      "midi": 76,
      "time": 192.917,
      "duration": 0.417,
      "velocity": 1,
      "hand": "right"
    },
    {
      "midi": 53,
      "time": 193.333,
      "duration": 0.417,
      "velocity": 1,
      "hand": "left"
    },
    {
      "midi": 68,
      "time": 193.333,
      "duration": 0.417,
      "velocity": 1,
      "hand": "right"
    },
    {
      "midi": 74,
      "time": 193.333,
      "duration": 0.208,
      "velocity": 1,
      "hand": "right"
    },
    {
      "midi": 77,
      "time": 193.542,
      "duration": 0.208,
      "velocity": 1,
      "hand": "right"
    },
    {
      "midi": 55,
      "time": 193.75,
      "duration": 0.417,
      "velocity": 1,
      "hand": "left"
    },
    {
      "midi": 67,
      "time": 193.75,
      "duration": 0.417,
      "velocity": 1,
      "hand": "right"
    },
    {
      "midi": 72,
      "time": 193.75,
      "duration": 0.417,
      "velocity": 1,
      "hand": "right"
    },
    {
      "midi": 76,
      "time": 193.75,
      "duration": 0.417,
      "velocity": 1,
      "hand": "right"
    },
    {
      "midi": 56,
      "time": 194.167,
      "duration": 0.417,
      "velocity": 1,
      "hand": "left"
    },
    {
      "midi": 60,
      "time": 194.167,
      "duration": 0.417,
      "velocity": 1,
      "hand": "right"
    },
    {
      "midi": 63,
      "time": 194.167,
      "duration": 0.417,
      "velocity": 1,
      "hand": "right"
    },
    {
      "midi": 66,
      "time": 194.167,
      "duration": 0.417,
      "velocity": 1,
      "hand": "right"
    },
    {
      "midi": 72,
      "time": 194.167,
      "duration": 0.833,
      "velocity": 1,
      "hand": "right"
    },
    {
      "midi": 48,
      "time": 194.583,
      "duration": 0.417,
      "velocity": 1,
      "hand": "left"
    },
    {
      "midi": 55,
      "time": 194.583,
      "duration": 0.417,
      "velocity": 1,
      "hand": "left"
    },
    {
      "midi": 64,
      "time": 194.583,
      "duration": 0.417,
      "velocity": 1,
      "hand": "right"
    },
    {
      "midi": 67,
      "time": 194.583,
      "duration": 0.417,
      "velocity": 1,
      "hand": "right"
    },
    {
      "midi": 53,
      "time": 195,
      "duration": 0.417,
      "velocity": 1,
      "hand": "left"
    },
    {
      "midi": 60,
      "time": 195,
      "duration": 1.667,
      "velocity": 1,
      "hand": "right"
    },
    {
      "midi": 68,
      "time": 195,
      "duration": 0.417,
      "velocity": 1,
      "hand": "right"
    },
    {
      "midi": 74,
      "time": 195,
      "duration": 0.208,
      "velocity": 1,
      "hand": "right"
    },
    {
      "midi": 77,
      "time": 195.208,
      "duration": 0.208,
      "velocity": 1,
      "hand": "right"
    },
    {
      "midi": 55,
      "time": 195.417,
      "duration": 0.417,
      "velocity": 1,
      "hand": "left"
    },
    {
      "midi": 67,
      "time": 195.417,
      "duration": 0.417,
      "velocity": 1,
      "hand": "right"
    },
    {
      "midi": 72,
      "time": 195.417,
      "duration": 0.417,
      "velocity": 1,
      "hand": "right"
    },
    {
      "midi": 76,
      "time": 195.417,
      "duration": 0.417,
      "velocity": 1,
      "hand": "right"
    },
    {
      "midi": 53,
      "time": 195.833,
      "duration": 0.417,
      "velocity": 1,
      "hand": "left"
    },
    {
      "midi": 68,
      "time": 195.833,
      "duration": 0.417,
      "velocity": 1,
      "hand": "right"
    },
    {
      "midi": 74,
      "time": 195.833,
      "duration": 0.208,
      "velocity": 1,
      "hand": "right"
    },
    {
      "midi": 77,
      "time": 196.042,
      "duration": 0.208,
      "velocity": 1,
      "hand": "right"
    },
    {
      "midi": 55,
      "time": 196.25,
      "duration": 0.417,
      "velocity": 1,
      "hand": "left"
    },
    {
      "midi": 67,
      "time": 196.25,
      "duration": 0.417,
      "velocity": 1,
      "hand": "right"
    },
    {
      "midi": 72,
      "time": 196.25,
      "duration": 0.417,
      "velocity": 1,
      "hand": "right"
    },
    {
      "midi": 76,
      "time": 196.25,
      "duration": 0.417,
      "velocity": 1,
      "hand": "right"
    },
    {
      "midi": 56,
      "time": 196.667,
      "duration": 0.417,
      "velocity": 1,
      "hand": "left"
    },
    {
      "midi": 60,
      "time": 196.667,
      "duration": 0.417,
      "velocity": 1,
      "hand": "right"
    },
    {
      "midi": 63,
      "time": 196.667,
      "duration": 0.417,
      "velocity": 1,
      "hand": "right"
    },
    {
      "midi": 66,
      "time": 196.667,
      "duration": 0.417,
      "velocity": 1,
      "hand": "right"
    },
    {
      "midi": 72,
      "time": 196.667,
      "duration": 0.833,
      "velocity": 1,
      "hand": "right"
    },
    {
      "midi": 48,
      "time": 197.083,
      "duration": 0.417,
      "velocity": 1,
      "hand": "left"
    },
    {
      "midi": 55,
      "time": 197.083,
      "duration": 0.417,
      "velocity": 1,
      "hand": "left"
    },
    {
      "midi": 64,
      "time": 197.083,
      "duration": 0.417,
      "velocity": 1,
      "hand": "right"
    },
    {
      "midi": 67,
      "time": 197.083,
      "duration": 0.417,
      "velocity": 1,
      "hand": "right"
    },
    {
      "midi": 53,
      "time": 197.5,
      "duration": 0.417,
      "velocity": 1,
      "hand": "left"
    },
    {
      "midi": 60,
      "time": 197.5,
      "duration": 0.417,
      "velocity": 1,
      "hand": "right"
    },
    {
      "midi": 68,
      "time": 197.5,
      "duration": 0.417,
      "velocity": 1,
      "hand": "right"
    },
    {
      "midi": 74,
      "time": 197.5,
      "duration": 0.417,
      "velocity": 1,
      "hand": "right"
    },
    {
      "midi": 48,
      "time": 197.917,
      "duration": 0.417,
      "velocity": 1,
      "hand": "left"
    },
    {
      "midi": 67,
      "time": 197.917,
      "duration": 0.417,
      "velocity": 1,
      "hand": "right"
    },
    {
      "midi": 72,
      "time": 197.917,
      "duration": 0.417,
      "velocity": 1,
      "hand": "right"
    },
    {
      "midi": 76,
      "time": 197.917,
      "duration": 0.417,
      "velocity": 1,
      "hand": "right"
    },
    {
      "midi": 57,
      "time": 198.333,
      "duration": 0.417,
      "velocity": 1,
      "hand": "left"
    },
    {
      "midi": 61,
      "time": 198.333,
      "duration": 0.417,
      "velocity": 1,
      "hand": "right"
    },
    {
      "midi": 70,
      "time": 198.333,
      "duration": 0.417,
      "velocity": 1,
      "hand": "right"
    },
    {
      "midi": 79,
      "time": 198.333,
      "duration": 0.417,
      "velocity": 1,
      "hand": "right"
    },
    {
      "midi": 62,
      "time": 198.75,
      "duration": 0.417,
      "velocity": 1,
      "hand": "right"
    },
    {
      "midi": 69,
      "time": 198.75,
      "duration": 0.417,
      "velocity": 1,
      "hand": "right"
    },
    {
      "midi": 78,
      "time": 198.75,
      "duration": 0.417,
      "velocity": 1,
      "hand": "right"
    },
    {
      "midi": 55,
      "time": 199.167,
      "duration": 0.417,
      "velocity": 1,
      "hand": "left"
    },
    {
      "midi": 59,
      "time": 199.167,
      "duration": 0.417,
      "velocity": 1,
      "hand": "left"
    },
    {
      "midi": 68,
      "time": 199.167,
      "duration": 0.417,
      "velocity": 1,
      "hand": "right"
    },
    {
      "midi": 77,
      "time": 199.167,
      "duration": 0.417,
      "velocity": 1,
      "hand": "right"
    },
    {
      "midi": 60,
      "time": 199.583,
      "duration": 0.417,
      "velocity": 1,
      "hand": "right"
    },
    {
      "midi": 67,
      "time": 199.583,
      "duration": 0.417,
      "velocity": 1,
      "hand": "right"
    },
    {
      "midi": 76,
      "time": 199.583,
      "duration": 0.417,
      "velocity": 1,
      "hand": "right"
    },
    {
      "midi": 54,
      "time": 200,
      "duration": 0.417,
      "velocity": 1,
      "hand": "left"
    },
    {
      "midi": 58,
      "time": 200,
      "duration": 0.417,
      "velocity": 1,
      "hand": "left"
    },
    {
      "midi": 67,
      "time": 200,
      "duration": 0.417,
      "velocity": 1,
      "hand": "right"
    },
    {
      "midi": 76,
      "time": 200,
      "duration": 0.417,
      "velocity": 1,
      "hand": "right"
    },
    {
      "midi": 59,
      "time": 200.417,
      "duration": 0.417,
      "velocity": 1,
      "hand": "left"
    },
    {
      "midi": 66,
      "time": 200.417,
      "duration": 0.417,
      "velocity": 1,
      "hand": "right"
    },
    {
      "midi": 75,
      "time": 200.417,
      "duration": 0.417,
      "velocity": 1,
      "hand": "right"
    },
    {
      "midi": 55,
      "time": 200.833,
      "duration": 0.417,
      "velocity": 1,
      "hand": "left"
    },
    {
      "midi": 64,
      "time": 200.833,
      "duration": 0.417,
      "velocity": 1,
      "hand": "right"
    },
    {
      "midi": 70,
      "time": 200.833,
      "duration": 0.208,
      "velocity": 1,
      "hand": "right"
    },
    {
      "midi": 73,
      "time": 201.042,
      "duration": 0.208,
      "velocity": 1,
      "hand": "right"
    },
    {
      "midi": 47,
      "time": 201.25,
      "duration": 0.417,
      "velocity": 1,
      "hand": "left"
    },
    {
      "midi": 54,
      "time": 201.25,
      "duration": 0.417,
      "velocity": 1,
      "hand": "left"
    },
    {
      "midi": 63,
      "time": 201.25,
      "duration": 0.417,
      "velocity": 1,
      "hand": "right"
    },
    {
      "midi": 66,
      "time": 201.25,
      "duration": 0.417,
      "velocity": 1,
      "hand": "right"
    },
    {
      "midi": 71,
      "time": 201.25,
      "duration": 0.417,
      "velocity": 1,
      "hand": "right"
    },
    {
      "midi": 54,
      "time": 201.667,
      "duration": 0.417,
      "velocity": 1,
      "hand": "left"
    },
    {
      "midi": 58,
      "time": 201.667,
      "duration": 0.417,
      "velocity": 1,
      "hand": "left"
    },
    {
      "midi": 67,
      "time": 201.667,
      "duration": 0.417,
      "velocity": 1,
      "hand": "right"
    },
    {
      "midi": 76,
      "time": 201.667,
      "duration": 0.417,
      "velocity": 1,
      "hand": "right"
    },
    {
      "midi": 59,
      "time": 202.083,
      "duration": 0.417,
      "velocity": 1,
      "hand": "left"
    },
    {
      "midi": 66,
      "time": 202.083,
      "duration": 0.417,
      "velocity": 1,
      "hand": "right"
    },
    {
      "midi": 75,
      "time": 202.083,
      "duration": 0.417,
      "velocity": 1,
      "hand": "right"
    },
    {
      "midi": 55,
      "time": 202.5,
      "duration": 0.417,
      "velocity": 1,
      "hand": "left"
    },
    {
      "midi": 64,
      "time": 202.5,
      "duration": 0.417,
      "velocity": 1,
      "hand": "right"
    },
    {
      "midi": 70,
      "time": 202.5,
      "duration": 0.208,
      "velocity": 1,
      "hand": "right"
    },
    {
      "midi": 73,
      "time": 202.708,
      "duration": 0.208,
      "velocity": 1,
      "hand": "right"
    },
    {
      "midi": 47,
      "time": 202.917,
      "duration": 0.417,
      "velocity": 1,
      "hand": "left"
    },
    {
      "midi": 54,
      "time": 202.917,
      "duration": 0.417,
      "velocity": 1,
      "hand": "left"
    },
    {
      "midi": 63,
      "time": 202.917,
      "duration": 0.417,
      "velocity": 1,
      "hand": "right"
    },
    {
      "midi": 66,
      "time": 202.917,
      "duration": 0.417,
      "velocity": 1,
      "hand": "right"
    },
    {
      "midi": 71,
      "time": 202.917,
      "duration": 0.417,
      "velocity": 1,
      "hand": "right"
    },
    {
      "midi": 55,
      "time": 203.333,
      "duration": 0.417,
      "velocity": 1,
      "hand": "left"
    },
    {
      "midi": 64,
      "time": 203.333,
      "duration": 0.417,
      "velocity": 1,
      "hand": "right"
    },
    {
      "midi": 70,
      "time": 203.333,
      "duration": 0.208,
      "velocity": 1,
      "hand": "right"
    },
    {
      "midi": 73,
      "time": 203.542,
      "duration": 0.208,
      "velocity": 1,
      "hand": "right"
    },
    {
      "midi": 47,
      "time": 203.75,
      "duration": 0.417,
      "velocity": 1,
      "hand": "left"
    },
    {
      "midi": 54,
      "time": 203.75,
      "duration": 0.417,
      "velocity": 1,
      "hand": "left"
    },
    {
      "midi": 63,
      "time": 203.75,
      "duration": 0.417,
      "velocity": 1,
      "hand": "right"
    },
    {
      "midi": 66,
      "time": 203.75,
      "duration": 0.417,
      "velocity": 1,
      "hand": "right"
    },
    {
      "midi": 71,
      "time": 203.75,
      "duration": 0.417,
      "velocity": 1,
      "hand": "right"
    },
    {
      "midi": 52,
      "time": 204.167,
      "duration": 0.417,
      "velocity": 1,
      "hand": "left"
    },
    {
      "midi": 58,
      "time": 204.167,
      "duration": 0.417,
      "velocity": 1,
      "hand": "left"
    },
    {
      "midi": 61,
      "time": 204.167,
      "duration": 0.417,
      "velocity": 1,
      "hand": "right"
    },
    {
      "midi": 66,
      "time": 204.167,
      "duration": 0.833,
      "velocity": 1,
      "hand": "right"
    },
    {
      "midi": 51,
      "time": 204.583,
      "duration": 0.417,
      "velocity": 1,
      "hand": "left"
    },
    {
      "midi": 59,
      "time": 204.583,
      "duration": 0.417,
      "velocity": 1,
      "hand": "left"
    },
    {
      "midi": 66,
      "time": 205,
      "duration": 0.417,
      "velocity": 1,
      "hand": "right"
    },
    {
      "midi": 68,
      "time": 205.417,
      "duration": 0.208,
      "velocity": 1,
      "hand": "right"
    },
    {
      "midi": 69,
      "time": 205.625,
      "duration": 0.208,
      "velocity": 1,
      "hand": "right"
    },
    {
      "midi": 50,
      "time": 205.833,
      "duration": 0.833,
      "velocity": 1,
      "hand": "left"
    },
    {
      "midi": 52,
      "time": 205.833,
      "duration": 1.667,
      "velocity": 1,
      "hand": "left"
    },
    {
      "midi": 59,
      "time": 205.833,
      "duration": 0.833,
      "velocity": 1,
      "hand": "left"
    },
    {
      "midi": 64,
      "time": 205.833,
      "duration": 0.833,
      "velocity": 1,
      "hand": "right"
    },
    {
      "midi": 68,
      "time": 205.833,
      "duration": 0.417,
      "velocity": 1,
      "hand": "right"
    },
    {
      "midi": 71,
      "time": 206.25,
      "duration": 0.417,
      "velocity": 1,
      "hand": "right"
    },
    {
      "midi": 49,
      "time": 206.667,
      "duration": 0.833,
      "velocity": 1,
      "hand": "left"
    },
    {
      "midi": 64,
      "time": 206.667,
      "duration": 1.667,
      "velocity": 1,
      "hand": "right"
    },
    {
      "midi": 69,
      "time": 207.083,
      "duration": 0.417,
      "velocity": 1,
      "hand": "right"
    },
    {
      "midi": 47,
      "time": 207.5,
      "duration": 0.417,
      "velocity": 1,
      "hand": "left"
    },
    {
      "midi": 52,
      "time": 207.5,
      "duration": 0.833,
      "velocity": 1,
      "hand": "left"
    },
    {
      "midi": 68,
      "time": 207.5,
      "duration": 0.417,
      "velocity": 1,
      "hand": "right"
    },
    {
      "midi": 71,
      "time": 207.5,
      "duration": 0.417,
      "velocity": 1,
      "hand": "right"
    },
    {
      "midi": 45,
      "time": 207.917,
      "duration": 0.417,
      "velocity": 1,
      "hand": "left"
    },
    {
      "midi": 69,
      "time": 207.917,
      "duration": 0.417,
      "velocity": 1,
      "hand": "right"
    },
    {
      "midi": 73,
      "time": 207.917,
      "duration": 0.417,
      "velocity": 1,
      "hand": "right"
    },
    {
      "midi": 44,
      "time": 208.333,
      "duration": 0.833,
      "velocity": 1,
      "hand": "left"
    },
    {
      "midi": 52,
      "time": 208.333,
      "duration": 1.667,
      "velocity": 1,
      "hand": "left"
    },
    {
      "midi": 64,
      "time": 208.333,
      "duration": 1.667,
      "velocity": 1,
      "hand": "right"
    },
    {
      "midi": 71,
      "time": 208.333,
      "duration": 0.833,
      "velocity": 1,
      "hand": "right"
    },
    {
      "midi": 76,
      "time": 208.333,
      "duration": 0.833,
      "velocity": 1,
      "hand": "right"
    },
    {
      "midi": 45,
      "time": 209.167,
      "duration": 0.833,
      "velocity": 1,
      "hand": "left"
    },
    {
      "midi": 69,
      "time": 209.167,
      "duration": 0.833,
      "velocity": 1,
      "hand": "right"
    },
    {
      "midi": 73,
      "time": 209.167,
      "duration": 0.833,
      "velocity": 1,
      "hand": "right"
    },
    {
      "midi": 73,
      "time": 210,
      "duration": 0.417,
      "velocity": 1,
      "hand": "right"
    },
    {
      "midi": 74,
      "time": 210.417,
      "duration": 0.208,
      "velocity": 1,
      "hand": "right"
    },
    {
      "midi": 76,
      "time": 210.625,
      "duration": 0.208,
      "velocity": 1,
      "hand": "right"
    },
    {
      "midi": 46,
      "time": 210.833,
      "duration": 0.833,
      "velocity": 1,
      "hand": "left"
    },
    {
      "midi": 54,
      "time": 210.833,
      "duration": 0.833,
      "velocity": 1,
      "hand": "left"
    },
    {
      "midi": 61,
      "time": 210.833,
      "duration": 0.833,
      "velocity": 1,
      "hand": "right"
    },
    {
      "midi": 66,
      "time": 210.833,
      "duration": 0.833,
      "velocity": 1,
      "hand": "right"
    },
    {
      "midi": 73,
      "time": 210.833,
      "duration": 0.417,
      "velocity": 1,
      "hand": "right"
    },
    {
      "midi": 78,
      "time": 210.833,
      "duration": 0.417,
      "velocity": 1,
      "hand": "right"
    },
    {
      "midi": 73,
      "time": 211.25,
      "duration": 0.417,
      "velocity": 1,
      "hand": "right"
    },
    {
      "midi": 47,
      "time": 211.667,
      "duration": 0.833,
      "velocity": 1,
      "hand": "left"
    },
    {
      "midi": 54,
      "time": 211.667,
      "duration": 0.833,
      "velocity": 1,
      "hand": "left"
    },
    {
      "midi": 59,
      "time": 211.667,
      "duration": 0.833,
      "velocity": 1,
      "hand": "left"
    },
    {
      "midi": 66,
      "time": 211.667,
      "duration": 0.833,
      "velocity": 1,
      "hand": "right"
    },
    {
      "midi": 71,
      "time": 211.667,
      "duration": 0.833,
      "velocity": 1,
      "hand": "right"
    },
    {
      "midi": 74,
      "time": 211.667,
      "duration": 0.833,
      "velocity": 1,
      "hand": "right"
    },
    {
      "midi": 66,
      "time": 212.5,
      "duration": 0.417,
      "velocity": 1,
      "hand": "right"
    },
    {
      "midi": 68,
      "time": 212.917,
      "duration": 0.208,
      "velocity": 1,
      "hand": "right"
    },
    {
      "midi": 69,
      "time": 213.125,
      "duration": 0.208,
      "velocity": 1,
      "hand": "right"
    },
    {
      "midi": 47,
      "time": 213.333,
      "duration": 0.833,
      "velocity": 1,
      "hand": "left"
    },
    {
      "midi": 57,
      "time": 213.333,
      "duration": 0.833,
      "velocity": 1,
      "hand": "left"
    },
    {
      "midi": 63,
      "time": 213.333,
      "duration": 0.833,
      "velocity": 1,
      "hand": "right"
    },
    {
      "midi": 73,
      "time": 213.333,
      "duration": 0.417,
      "velocity": 1,
      "hand": "right"
    },
    {
      "midi": 70,
      "time": 213.75,
      "duration": 0.833,
      "velocity": 1,
      "hand": "right"
    },
    {
      "midi": 52,
      "time": 214.167,
      "duration": 0.833,
      "velocity": 1,
      "hand": "left"
    },
    {
      "midi": 56,
      "time": 214.167,
      "duration": 0.833,
      "velocity": 1,
      "hand": "left"
    },
    {
      "midi": 62,
      "time": 214.167,
      "duration": 0.833,
      "velocity": 1,
      "hand": "right"
    },
    {
      "midi": 71,
      "time": 214.583,
      "duration": 0.417,
      "velocity": 1,
      "hand": "right"
    },
    {
      "midi": 66,
      "time": 215,
      "duration": 0.417,
      "velocity": 1,
      "hand": "right"
    },
    {
      "midi": 68,
      "time": 215.417,
      "duration": 0.208,
      "velocity": 1,
      "hand": "right"
    },
    {
      "midi": 69,
      "time": 215.625,
      "duration": 0.208,
      "velocity": 1,
      "hand": "right"
    },
    {
      "midi": 50,
      "time": 215.833,
      "duration": 0.833,
      "velocity": 1,
      "hand": "left"
    },
    {
      "midi": 52,
      "time": 215.833,
      "duration": 1.667,
      "velocity": 1,
      "hand": "left"
    },
    {
      "midi": 59,
      "time": 215.833,
      "duration": 0.833,
      "velocity": 1,
      "hand": "left"
    },
    {
      "midi": 64,
      "time": 215.833,
      "duration": 0.833,
      "velocity": 1,
      "hand": "right"
    },
    {
      "midi": 68,
      "time": 215.833,
      "duration": 0.417,
      "velocity": 1,
      "hand": "right"
    },
    {
      "midi": 71,
      "time": 216.25,
      "duration": 0.417,
      "velocity": 1,
      "hand": "right"
    },
    {
      "midi": 49,
      "time": 216.667,
      "duration": 0.833,
      "velocity": 1,
      "hand": "left"
    },
    {
      "midi": 64,
      "time": 216.667,
      "duration": 1.667,
      "velocity": 1,
      "hand": "right"
    },
    {
      "midi": 69,
      "time": 217.083,
      "duration": 0.417,
      "velocity": 1,
      "hand": "right"
    },
    {
      "midi": 47,
      "time": 217.5,
      "duration": 0.417,
      "velocity": 1,
      "hand": "left"
    },
    {
      "midi": 52,
      "time": 217.5,
      "duration": 0.833,
      "velocity": 1,
      "hand": "left"
    },
    {
      "midi": 68,
      "time": 217.5,
      "duration": 0.417,
      "velocity": 1,
      "hand": "right"
    },
    {
      "midi": 71,
      "time": 217.5,
      "duration": 0.417,
      "velocity": 1,
      "hand": "right"
    },
    {
      "midi": 45,
      "time": 217.917,
      "duration": 0.417,
      "velocity": 1,
      "hand": "left"
    },
    {
      "midi": 69,
      "time": 217.917,
      "duration": 0.417,
      "velocity": 1,
      "hand": "right"
    },
    {
      "midi": 73,
      "time": 217.917,
      "duration": 0.417,
      "velocity": 1,
      "hand": "right"
    },
    {
      "midi": 44,
      "time": 218.333,
      "duration": 0.833,
      "velocity": 1,
      "hand": "left"
    },
    {
      "midi": 52,
      "time": 218.333,
      "duration": 1.667,
      "velocity": 1,
      "hand": "left"
    },
    {
      "midi": 64,
      "time": 218.333,
      "duration": 1.667,
      "velocity": 1,
      "hand": "right"
    },
    {
      "midi": 71,
      "time": 218.333,
      "duration": 0.833,
      "velocity": 1,
      "hand": "right"
    },
    {
      "midi": 76,
      "time": 218.333,
      "duration": 0.833,
      "velocity": 1,
      "hand": "right"
    },
    {
      "midi": 45,
      "time": 219.167,
      "duration": 0.833,
      "velocity": 1,
      "hand": "left"
    },
    {
      "midi": 69,
      "time": 219.167,
      "duration": 0.833,
      "velocity": 1,
      "hand": "right"
    },
    {
      "midi": 73,
      "time": 219.167,
      "duration": 0.833,
      "velocity": 1,
      "hand": "right"
    },
    {
      "midi": 73,
      "time": 220,
      "duration": 0.417,
      "velocity": 1,
      "hand": "right"
    },
    {
      "midi": 74,
      "time": 220.417,
      "duration": 0.208,
      "velocity": 1,
      "hand": "right"
    },
    {
      "midi": 76,
      "time": 220.625,
      "duration": 0.208,
      "velocity": 1,
      "hand": "right"
    },
    {
      "midi": 46,
      "time": 220.833,
      "duration": 0.833,
      "velocity": 1,
      "hand": "left"
    },
    {
      "midi": 54,
      "time": 220.833,
      "duration": 0.833,
      "velocity": 1,
      "hand": "left"
    },
    {
      "midi": 61,
      "time": 220.833,
      "duration": 0.833,
      "velocity": 1,
      "hand": "right"
    },
    {
      "midi": 66,
      "time": 220.833,
      "duration": 0.833,
      "velocity": 1,
      "hand": "right"
    },
    {
      "midi": 73,
      "time": 220.833,
      "duration": 0.833,
      "velocity": 1,
      "hand": "right"
    },
    {
      "midi": 78,
      "time": 220.833,
      "duration": 0.417,
      "velocity": 1,
      "hand": "right"
    },
    {
      "midi": 47,
      "time": 221.667,
      "duration": 0.833,
      "velocity": 1,
      "hand": "left"
    },
    {
      "midi": 54,
      "time": 221.667,
      "duration": 0.833,
      "velocity": 1,
      "hand": "left"
    },
    {
      "midi": 59,
      "time": 221.667,
      "duration": 0.833,
      "velocity": 1,
      "hand": "left"
    },
    {
      "midi": 66,
      "time": 221.667,
      "duration": 0.833,
      "velocity": 1,
      "hand": "right"
    },
    {
      "midi": 71,
      "time": 221.667,
      "duration": 0.833,
      "velocity": 1,
      "hand": "right"
    },
    {
      "midi": 74,
      "time": 221.667,
      "duration": 0.833,
      "velocity": 1,
      "hand": "right"
    },
    {
      "midi": 74,
      "time": 222.5,
      "duration": 0.417,
      "velocity": 1,
      "hand": "right"
    },
    {
      "midi": 76,
      "time": 222.917,
      "duration": 0.208,
      "velocity": 1,
      "hand": "right"
    },
    {
      "midi": 78,
      "time": 223.125,
      "duration": 0.208,
      "velocity": 1,
      "hand": "right"
    },
    {
      "midi": 48,
      "time": 223.333,
      "duration": 0.833,
      "velocity": 1,
      "hand": "left"
    },
    {
      "midi": 56,
      "time": 223.333,
      "duration": 0.833,
      "velocity": 1,
      "hand": "left"
    },
    {
      "midi": 63,
      "time": 223.333,
      "duration": 0.833,
      "velocity": 1,
      "hand": "right"
    },
    {
      "midi": 68,
      "time": 223.333,
      "duration": 0.833,
      "velocity": 1,
      "hand": "right"
    },
    {
      "midi": 75,
      "time": 223.333,
      "duration": 0.833,
      "velocity": 1,
      "hand": "right"
    },
    {
      "midi": 80,
      "time": 223.333,
      "duration": 0.417,
      "velocity": 1,
      "hand": "right"
    },
    {
      "midi": 49,
      "time": 224.167,
      "duration": 0.833,
      "velocity": 1,
      "hand": "left"
    },
    {
      "midi": 56,
      "time": 224.167,
      "duration": 0.833,
      "velocity": 1,
      "hand": "left"
    },
    {
      "midi": 61,
      "time": 224.167,
      "duration": 0.833,
      "velocity": 1,
      "hand": "right"
    },
    {
      "midi": 68,
      "time": 224.167,
      "duration": 0.833,
      "velocity": 1,
      "hand": "right"
    },
    {
      "midi": 73,
      "time": 224.167,
      "duration": 0.833,
      "velocity": 1,
      "hand": "right"
    },
    {
      "midi": 76,
      "time": 224.167,
      "duration": 0.833,
      "velocity": 1,
      "hand": "right"
    },
    {
      "midi": 76,
      "time": 225,
      "duration": 0.417,
      "velocity": 1,
      "hand": "right"
    },
    {
      "midi": 78,
      "time": 225.417,
      "duration": 0.208,
      "velocity": 1,
      "hand": "right"
    },
    {
      "midi": 80,
      "time": 225.625,
      "duration": 0.208,
      "velocity": 1,
      "hand": "right"
    },
    {
      "midi": 81,
      "time": 225.833,
      "duration": 0.417,
      "velocity": 1,
      "hand": "right"
    },
    {
      "midi": 80,
      "time": 226.25,
      "duration": 0.417,
      "velocity": 1,
      "hand": "right"
    },
    {
      "midi": 78,
      "time": 226.667,
      "duration": 0.417,
      "velocity": 1,
      "hand": "right"
    },
    {
      "midi": 76,
      "time": 227.083,
      "duration": 0.417,
      "velocity": 1,
      "hand": "right"
    },
    {
      "midi": 54,
      "time": 227.5,
      "duration": 1.667,
      "velocity": 1,
      "hand": "left"
    },
    {
      "midi": 57,
      "time": 227.5,
      "duration": 0.417,
      "velocity": 1,
      "hand": "left"
    },
    {
      "midi": 74,
      "time": 227.5,
      "duration": 0.417,
      "velocity": 1,
      "hand": "right"
    },
    {
      "midi": 59,
      "time": 227.917,
      "duration": 0.208,
      "velocity": 1,
      "hand": "left"
    },
    {
      "midi": 69,
      "time": 227.917,
      "duration": 0.833,
      "velocity": 1,
      "hand": "right"
    },
    {
      "midi": 61,
      "time": 228.125,
      "duration": 0.208,
      "velocity": 1,
      "hand": "right"
    },
    {
      "midi": 62,
      "time": 228.333,
      "duration": 0.417,
      "velocity": 1,
      "hand": "right"
    },
    {
      "midi": 61,
      "time": 228.75,
      "duration": 0.417,
      "velocity": 1,
      "hand": "right"
    },
    {
      "midi": 81,
      "time": 228.75,
      "duration": 0.833,
      "velocity": 1,
      "hand": "right"
    },
    {
      "midi": 53,
      "time": 229.167,
      "duration": 0.833,
      "velocity": 1,
      "hand": "left"
    },
    {
      "midi": 59,
      "time": 229.167,
      "duration": 0.417,
      "velocity": 1,
      "hand": "left"
    },
    {
      "midi": 57,
      "time": 229.583,
      "duration": 0.833,
      "velocity": 1,
      "hand": "left"
    },
    {
      "midi": 63,
      "time": 229.583,
      "duration": 0.417,
      "velocity": 1,
      "hand": "right"
    },
    {
      "midi": 72,
      "time": 229.583,
      "duration": 0.417,
      "velocity": 1,
      "hand": "right"
    },
    {
      "midi": 75,
      "time": 229.583,
      "duration": 0.417,
      "velocity": 1,
      "hand": "right"
    },
    {
      "midi": 52,
      "time": 230,
      "duration": 0.417,
      "velocity": 1,
      "hand": "left"
    },
    {
      "midi": 64,
      "time": 230,
      "duration": 0.417,
      "velocity": 1,
      "hand": "right"
    },
    {
      "midi": 73,
      "time": 230,
      "duration": 0.417,
      "velocity": 1,
      "hand": "right"
    },
    {
      "midi": 76,
      "time": 230,
      "duration": 0.417,
      "velocity": 1,
      "hand": "right"
    },
    {
      "midi": 66,
      "time": 230.417,
      "duration": 0.208,
      "velocity": 1,
      "hand": "right"
    },
    {
      "midi": 68,
      "time": 230.625,
      "duration": 0.208,
      "velocity": 1,
      "hand": "right"
    },
    {
      "midi": 69,
      "time": 230.833,
      "duration": 0.417,
      "velocity": 1,
      "hand": "right"
    },
    {
      "midi": 57,
      "time": 231.25,
      "duration": 0.417,
      "velocity": 1,
      "hand": "left"
    },
    {
      "midi": 59,
      "time": 231.25,
      "duration": 1.25,
      "velocity": 1,
      "hand": "left"
    },
    {
      "midi": 62,
      "time": 231.25,
      "duration": 1.25,
      "velocity": 1,
      "hand": "right"
    },
    {
      "midi": 64,
      "time": 231.25,
      "duration": 1.667,
      "velocity": 1,
      "hand": "right"
    },
    {
      "midi": 52,
      "time": 231.667,
      "duration": 0.833,
      "velocity": 1,
      "hand": "left"
    },
    {
      "midi": 55,
      "time": 231.667,
      "duration": 0.417,
      "velocity": 1,
      "hand": "left"
    },
    {
      "midi": 56,
      "time": 232.083,
      "duration": 0.417,
      "velocity": 1,
      "hand": "left"
    },
    {
      "midi": 40,
      "time": 232.5,
      "duration": 0.417,
      "velocity": 1,
      "hand": "left"
    },
    {
      "midi": 57,
      "time": 232.5,
      "duration": 0.417,
      "velocity": 1,
      "hand": "left"
    },
    {
      "midi": 61,
      "time": 232.5,
      "duration": 0.417,
      "velocity": 1,
      "hand": "right"
    },
    {
      "midi": 66,
      "time": 232.917,
      "duration": 0.208,
      "velocity": 1,
      "hand": "right"
    },
    {
      "midi": 68,
      "time": 233.125,
      "duration": 0.208,
      "velocity": 1,
      "hand": "right"
    },
    {
      "midi": 69,
      "time": 233.333,
      "duration": 0.417,
      "velocity": 1,
      "hand": "right"
    },
    {
      "midi": 57,
      "time": 233.75,
      "duration": 0.417,
      "velocity": 1,
      "hand": "left"
    },
    {
      "midi": 59,
      "time": 233.75,
      "duration": 1.25,
      "velocity": 1,
      "hand": "left"
    },
    {
      "midi": 62,
      "time": 233.75,
      "duration": 1.25,
      "velocity": 1,
      "hand": "right"
    },
    {
      "midi": 64,
      "time": 233.75,
      "duration": 1.667,
      "velocity": 1,
      "hand": "right"
    },
    {
      "midi": 52,
      "time": 234.167,
      "duration": 0.833,
      "velocity": 1,
      "hand": "left"
    },
    {
      "midi": 55,
      "time": 234.167,
      "duration": 0.417,
      "velocity": 1,
      "hand": "left"
    },
    {
      "midi": 56,
      "time": 234.583,
      "duration": 0.417,
      "velocity": 1,
      "hand": "left"
    },
    {
      "midi": 40,
      "time": 235,
      "duration": 0.417,
      "velocity": 1,
      "hand": "left"
    },
    {
      "midi": 57,
      "time": 235,
      "duration": 0.417,
      "velocity": 1,
      "hand": "left"
    },
    {
      "midi": 61,
      "time": 235,
      "duration": 0.417,
      "velocity": 1,
      "hand": "right"
    },
    {
      "midi": 66,
      "time": 235.417,
      "duration": 0.208,
      "velocity": 1,
      "hand": "right"
    },
    {
      "midi": 68,
      "time": 235.625,
      "duration": 0.208,
      "velocity": 1,
      "hand": "right"
    },
    {
      "midi": 69,
      "time": 235.833,
      "duration": 0.833,
      "velocity": 1,
      "hand": "right"
    },
    {
      "midi": 54,
      "time": 236.25,
      "duration": 0.208,
      "velocity": 1,
      "hand": "left"
    },
    {
      "midi": 57,
      "time": 236.25,
      "duration": 0.417,
      "velocity": 1,
      "hand": "left"
    },
    {
      "midi": 61,
      "time": 236.25,
      "duration": 0.417,
      "velocity": 1,
      "hand": "right"
    },
    {
      "midi": 53,
      "time": 236.458,
      "duration": 0.208,
      "velocity": 1,
      "hand": "left"
    },
    {
      "midi": 52,
      "time": 236.667,
      "duration": 0.417,
      "velocity": 1,
      "hand": "left"
    },
    {
      "midi": 57,
      "time": 236.667,
      "duration": 0.417,
      "velocity": 1,
      "hand": "left"
    },
    {
      "midi": 61,
      "time": 236.667,
      "duration": 0.417,
      "velocity": 1,
      "hand": "right"
    },
    {
      "midi": 42,
      "time": 237.083,
      "duration": 0.208,
      "velocity": 1,
      "hand": "left"
    },
    {
      "midi": 51,
      "time": 237.083,
      "duration": 0.833,
      "velocity": 1,
      "hand": "left"
    },
    {
      "midi": 57,
      "time": 237.083,
      "duration": 0.833,
      "velocity": 1,
      "hand": "left"
    },
    {
      "midi": 60,
      "time": 237.083,
      "duration": 0.833,
      "velocity": 1,
      "hand": "right"
    },
    {
      "midi": 41,
      "time": 237.292,
      "duration": 0.208,
      "velocity": 1,
      "hand": "left"
    },
    {
      "midi": 40,
      "time": 237.5,
      "duration": 1.667,
      "velocity": 1,
      "hand": "left"
    },
    {
      "midi": 52,
      "time": 237.917,
      "duration": 0.417,
      "velocity": 1,
      "hand": "left"
    },
    {
      "midi": 57,
      "time": 237.917,
      "duration": 0.417,
      "velocity": 1,
      "hand": "left"
    },
    {
      "midi": 61,
      "time": 237.917,
      "duration": 0.417,
      "velocity": 1,
      "hand": "right"
    },
    {
      "midi": 54,
      "time": 238.333,
      "duration": 1.25,
      "velocity": 1,
      "hand": "left"
    },
    {
      "midi": 56,
      "time": 238.333,
      "duration": 1.25,
      "velocity": 1,
      "hand": "left"
    },
    {
      "midi": 62,
      "time": 238.333,
      "duration": 1.25,
      "velocity": 1,
      "hand": "right"
    },
    {
      "midi": 52,
      "time": 239.167,
      "duration": 0.833,
      "velocity": 1,
      "hand": "left"
    },
    {
      "midi": 50,
      "time": 239.583,
      "duration": 0.417,
      "velocity": 1,
      "hand": "left"
    },
    {
      "midi": 56,
      "time": 239.583,
      "duration": 0.417,
      "velocity": 1,
      "hand": "left"
    },
    {
      "midi": 33,
      "time": 240,
      "duration": 0.208,
      "velocity": 1,
      "hand": "left"
    },
    {
      "midi": 40,
      "time": 240.208,
      "duration": 0.208,
      "velocity": 1,
      "hand": "left"
    },
    {
      "midi": 45,
      "time": 240.208,
      "duration": 0.208,
      "velocity": 1,
      "hand": "left"
    },
    {
      "midi": 49,
      "time": 240.417,
      "duration": 0.208,
      "velocity": 1,
      "hand": "left"
    },
    {
      "midi": 52,
      "time": 240.625,
      "duration": 0.208,
      "velocity": 1,
      "hand": "left"
    },
    {
      "midi": 57,
      "time": 240.625,
      "duration": 0.208,
      "velocity": 1,
      "hand": "left"
    },
    {
      "midi": 51,
      "time": 240.833,
      "duration": 0.208,
      "velocity": 1,
      "hand": "left"
    },
    {
      "midi": 52,
      "time": 241.042,
      "duration": 0.208,
      "velocity": 1,
      "hand": "left"
    },
    {
      "midi": 57,
      "time": 241.042,
      "duration": 0.208,
      "velocity": 1,
      "hand": "left"
    },
    {
      "midi": 60,
      "time": 241.25,
      "duration": 0.208,
      "velocity": 1,
      "hand": "right"
    },
    {
      "midi": 61,
      "time": 241.458,
      "duration": 0.208,
      "velocity": 1,
      "hand": "right"
    },
    {
      "midi": 64,
      "time": 241.458,
      "duration": 0.208,
      "velocity": 1,
      "hand": "right"
    },
    {
      "midi": 69,
      "time": 241.667,
      "duration": 1.667,
      "velocity": 1,
      "hand": "right"
    },
    {
      "midi": 48,
      "time": 242.5,
      "duration": 2.5,
      "velocity": 1,
      "hand": "left"
    },
    {
      "midi": 53,
      "time": 242.5,
      "duration": 2.5,
      "velocity": 1,
      "hand": "left"
    },
    {
      "midi": 57,
      "time": 242.5,
      "duration": 2.5,
      "velocity": 1,
      "hand": "left"
    },
    {
      "midi": 67,
      "time": 243.333,
      "duration": 0.417,
      "velocity": 1,
      "hand": "right"
    },
    {
      "midi": 65,
      "time": 243.75,
      "duration": 0.417,
      "velocity": 1,
      "hand": "right"
    },
    {
      "midi": 64,
      "time": 244.167,
      "duration": 0.417,
      "velocity": 1,
      "hand": "right"
    },
    {
      "midi": 63,
      "time": 244.583,
      "duration": 0.417,
      "velocity": 1,
      "hand": "right"
    },
    {
      "midi": 45,
      "time": 245,
      "duration": 0.208,
      "velocity": 1,
      "hand": "left"
    },
    {
      "midi": 52,
      "time": 245.208,
      "duration": 0.208,
      "velocity": 1,
      "hand": "left"
    },
    {
      "midi": 57,
      "time": 245.208,
      "duration": 0.208,
      "velocity": 1,
      "hand": "left"
    },
    {
      "midi": 63,
      "time": 245.417,
      "duration": 0.208,
      "velocity": 1,
      "hand": "right"
    },
    {
      "midi": 64,
      "time": 245.625,
      "duration": 0.208,
      "velocity": 1,
      "hand": "right"
    },
    {
      "midi": 69,
      "time": 245.625,
      "duration": 0.208,
      "velocity": 1,
      "hand": "right"
    },
    {
      "midi": 63,
      "time": 245.833,
      "duration": 0.208,
      "velocity": 1,
      "hand": "right"
    },
    {
      "midi": 64,
      "time": 246.042,
      "duration": 0.208,
      "velocity": 1,
      "hand": "right"
    },
    {
      "midi": 69,
      "time": 246.042,
      "duration": 0.208,
      "velocity": 1,
      "hand": "right"
    },
    {
      "midi": 72,
      "time": 246.25,
      "duration": 0.208,
      "velocity": 1,
      "hand": "right"
    },
    {
      "midi": 73,
      "time": 246.458,
      "duration": 0.208,
      "velocity": 1,
      "hand": "right"
    },
    {
      "midi": 76,
      "time": 246.458,
      "duration": 0.208,
      "velocity": 1,
      "hand": "right"
    },
    {
      "midi": 81,
      "time": 246.667,
      "duration": 1.667,
      "velocity": 1,
      "hand": "right"
    },
    {
      "midi": 65,
      "time": 247.5,
      "duration": 2.5,
      "velocity": 1,
      "hand": "right"
    },
    {
      "midi": 69,
      "time": 247.5,
      "duration": 2.5,
      "velocity": 1,
      "hand": "right"
    },
    {
      "midi": 72,
      "time": 247.5,
      "duration": 2.5,
      "velocity": 1,
      "hand": "right"
    },
    {
      "midi": 79,
      "time": 248.333,
      "duration": 0.417,
      "velocity": 1,
      "hand": "right"
    },
    {
      "midi": 77,
      "time": 248.75,
      "duration": 0.417,
      "velocity": 1,
      "hand": "right"
    },
    {
      "midi": 76,
      "time": 249.167,
      "duration": 0.417,
      "velocity": 1,
      "hand": "right"
    },
    {
      "midi": 75,
      "time": 249.583,
      "duration": 0.417,
      "velocity": 1,
      "hand": "right"
    },
    {
      "midi": 57,
      "time": 250.208,
      "duration": 0.208,
      "velocity": 1,
      "hand": "left"
    },
    {
      "midi": 64,
      "time": 250.208,
      "duration": 0.208,
      "velocity": 1,
      "hand": "right"
    },
    {
      "midi": 69,
      "time": 250.417,
      "duration": 0.208,
      "velocity": 1,
      "hand": "right"
    },
    {
      "midi": 73,
      "time": 250.625,
      "duration": 0.208,
      "velocity": 1,
      "hand": "right"
    },
    {
      "midi": 75,
      "time": 250.625,
      "duration": 0.208,
      "velocity": 1,
      "hand": "right"
    },
    {
      "midi": 78,
      "time": 250.833,
      "duration": 0.208,
      "velocity": 1,
      "hand": "right"
    },
    {
      "midi": 73,
      "time": 251.042,
      "duration": 0.208,
      "velocity": 1,
      "hand": "right"
    },
    {
      "midi": 76,
      "time": 251.042,
      "duration": 0.208,
      "velocity": 1,
      "hand": "right"
    },
    {
      "midi": 81,
      "time": 251.25,
      "duration": 0.208,
      "velocity": 1,
      "hand": "right"
    },
    {
      "midi": 85,
      "time": 251.458,
      "duration": 0.208,
      "velocity": 1,
      "hand": "right"
    },
    {
      "midi": 88,
      "time": 251.458,
      "duration": 0.208,
      "velocity": 1,
      "hand": "right"
    },
    {
      "midi": 92,
      "time": 251.667,
      "duration": 0.208,
      "velocity": 1,
      "hand": "right"
    },
    {
      "midi": 93,
      "time": 251.875,
      "duration": 0.208,
      "velocity": 1,
      "hand": "right"
    },
    {
      "midi": 97,
      "time": 251.875,
      "duration": 0.208,
      "velocity": 1,
      "hand": "right"
    },
    {
      "midi": 100,
      "time": 252.083,
      "duration": 5.417,
      "velocity": 1,
      "hand": "right"
    },
    {
      "midi": 69,
      "time": 252.5,
      "duration": 0.833,
      "velocity": 1,
      "hand": "right"
    },
    {
      "midi": 73,
      "time": 252.5,
      "duration": 0.833,
      "velocity": 1,
      "hand": "right"
    },
    {
      "midi": 88,
      "time": 252.5,
      "duration": 0.833,
      "velocity": 1,
      "hand": "right"
    },
    {
      "midi": 93,
      "time": 252.5,
      "duration": 0.833,
      "velocity": 1,
      "hand": "right"
    },
    {
      "midi": 69,
      "time": 253.333,
      "duration": 0.833,
      "velocity": 1,
      "hand": "right"
    },
    {
      "midi": 73,
      "time": 253.333,
      "duration": 0.833,
      "velocity": 1,
      "hand": "right"
    },
    {
      "midi": 88,
      "time": 253.333,
      "duration": 0.833,
      "velocity": 1,
      "hand": "right"
    },
    {
      "midi": 93,
      "time": 253.333,
      "duration": 0.833,
      "velocity": 1,
      "hand": "right"
    },
    {
      "midi": 69,
      "time": 254.167,
      "duration": 0.833,
      "velocity": 1,
      "hand": "right"
    },
    {
      "midi": 73,
      "time": 254.167,
      "duration": 0.833,
      "velocity": 1,
      "hand": "right"
    },
    {
      "midi": 88,
      "time": 254.167,
      "duration": 0.833,
      "velocity": 1,
      "hand": "right"
    },
    {
      "midi": 93,
      "time": 254.167,
      "duration": 0.833,
      "velocity": 1,
      "hand": "right"
    },
    {
      "midi": 69,
      "time": 255,
      "duration": 2.5,
      "velocity": 1,
      "hand": "right"
    },
    {
      "midi": 73,
      "time": 255,
      "duration": 2.5,
      "velocity": 1,
      "hand": "right"
    },
    {
      "midi": 88,
      "time": 255,
      "duration": 2.5,
      "velocity": 1,
      "hand": "right"
    },
    {
      "midi": 93,
      "time": 255,
      "duration": 2.5,
      "velocity": 1,
      "hand": "right"
    }
  ]
}
