{
  "id": "the-seasons-augusttchaikovsky",
  "title": "As Estações: Agosto",
  "artist": "Piotr Ilitch Tchaikovsky",
  "difficulty": "Difícil",
  "bpm": 108,
  "duration": 332,
  "category": "Clássicos",
  "isPremium": true,
  "coverUrl": "/images/covers/placeholder.png",
  "notes": [
    {
      "midi": 62,
      "time": 0,
      "duration": 0.278,
      "velocity": 1,
      "hand": "right"
    },
    {
      "midi": 66,
      "time": 0,
      "duration": 0.278,
      "velocity": 1,
      "hand": "right"
    },
    {
      "midi": 71,
      "time": 0,
      "duration": 0.278,
      "velocity": 1,
      "hand": "right"
    },
    {
      "midi": 61,
      "time": 0.278,
      "duration": 0.278,
      "velocity": 1,
      "hand": "right"
    },
    {
      "midi": 65,
      "time": 0.278,
      "duration": 0.278,
      "velocity": 1,
      "hand": "right"
    },
    {
      "midi": 62,
      "time": 0.555,
      "duration": 0.556,
      "velocity": 1,
      "hand": "right"
    },
    {
      "midi": 66,
      "time": 0.555,
      "duration": 0.556,
      "velocity": 1,
      "hand": "right"
    },
    {
      "midi": 71,
      "time": 0.555,
      "duration": 0.556,
      "velocity": 1,
      "hand": "right"
    },
    {
      "midi": 47,
      "time": 0.833,
      "duration": 0.278,
      "velocity": 1,
      "hand": "left"
    },
    {
      "midi": 61,
      "time": 1.111,
      "duration": 0.278,
      "velocity": 1,
      "hand": "right"
    },
    {
      "midi": 64,
      "time": 1.111,
      "duration": 0.278,
      "velocity": 1,
      "hand": "right"
    },
    {
      "midi": 70,
      "time": 1.111,
      "duration": 0.278,
      "velocity": 1,
      "hand": "right"
    },
    {
      "midi": 47,
      "time": 1.389,
      "duration": 0.278,
      "velocity": 1,
      "hand": "left"
    },
    {
      "midi": 59,
      "time": 1.666,
      "duration": 0.278,
      "velocity": 1,
      "hand": "left"
    },
    {
      "midi": 62,
      "time": 1.666,
      "duration": 0.278,
      "velocity": 1,
      "hand": "right"
    },
    {
      "midi": 67,
      "time": 1.666,
      "duration": 0.278,
      "velocity": 1,
      "hand": "right"
    },
    {
      "midi": 58,
      "time": 1.944,
      "duration": 0.278,
      "velocity": 1,
      "hand": "left"
    },
    {
      "midi": 61,
      "time": 1.944,
      "duration": 0.278,
      "velocity": 1,
      "hand": "right"
    },
    {
      "midi": 59,
      "time": 2.222,
      "duration": 0.556,
      "velocity": 1,
      "hand": "left"
    },
    {
      "midi": 62,
      "time": 2.222,
      "duration": 0.556,
      "velocity": 1,
      "hand": "right"
    },
    {
      "midi": 67,
      "time": 2.222,
      "duration": 0.556,
      "velocity": 1,
      "hand": "right"
    },
    {
      "midi": 47,
      "time": 2.5,
      "duration": 0.278,
      "velocity": 1,
      "hand": "left"
    },
    {
      "midi": 58,
      "time": 2.778,
      "duration": 0.278,
      "velocity": 1,
      "hand": "left"
    },
    {
      "midi": 61,
      "time": 2.778,
      "duration": 0.278,
      "velocity": 1,
      "hand": "right"
    },
    {
      "midi": 66,
      "time": 2.778,
      "duration": 0.278,
      "velocity": 1,
      "hand": "right"
    },
    {
      "midi": 47,
      "time": 3.055,
      "duration": 0.278,
      "velocity": 1,
      "hand": "left"
    },
    {
      "midi": 57,
      "time": 3.333,
      "duration": 0.278,
      "velocity": 1,
      "hand": "left"
    },
    {
      "midi": 60,
      "time": 3.333,
      "duration": 0.278,
      "velocity": 1,
      "hand": "right"
    },
    {
      "midi": 66,
      "time": 3.333,
      "duration": 0.278,
      "velocity": 1,
      "hand": "right"
    },
    {
      "midi": 56,
      "time": 3.611,
      "duration": 0.278,
      "velocity": 1,
      "hand": "left"
    },
    {
      "midi": 59,
      "time": 3.611,
      "duration": 0.278,
      "velocity": 1,
      "hand": "left"
    },
    {
      "midi": 57,
      "time": 3.889,
      "duration": 0.556,
      "velocity": 1,
      "hand": "left"
    },
    {
      "midi": 60,
      "time": 3.889,
      "duration": 0.556,
      "velocity": 1,
      "hand": "right"
    },
    {
      "midi": 66,
      "time": 3.889,
      "duration": 0.556,
      "velocity": 1,
      "hand": "right"
    },
    {
      "midi": 47,
      "time": 4.166,
      "duration": 0.278,
      "velocity": 1,
      "hand": "left"
    },
    {
      "midi": 56,
      "time": 4.444,
      "duration": 0.278,
      "velocity": 1,
      "hand": "left"
    },
    {
      "midi": 59,
      "time": 4.444,
      "duration": 0.278,
      "velocity": 1,
      "hand": "left"
    },
    {
      "midi": 64,
      "time": 4.444,
      "duration": 0.278,
      "velocity": 1,
      "hand": "right"
    },
    {
      "midi": 47,
      "time": 4.722,
      "duration": 0.278,
      "velocity": 1,
      "hand": "left"
    },
    {
      "midi": 55,
      "time": 5,
      "duration": 0.278,
      "velocity": 1,
      "hand": "left"
    },
    {
      "midi": 58,
      "time": 5,
      "duration": 0.278,
      "velocity": 1,
      "hand": "left"
    },
    {
      "midi": 64,
      "time": 5,
      "duration": 0.278,
      "velocity": 1,
      "hand": "right"
    },
    {
      "midi": 47,
      "time": 5.278,
      "duration": 0.278,
      "velocity": 1,
      "hand": "left"
    },
    {
      "midi": 54,
      "time": 5.555,
      "duration": 0.278,
      "velocity": 1,
      "hand": "left"
    },
    {
      "midi": 58,
      "time": 5.555,
      "duration": 0.278,
      "velocity": 1,
      "hand": "left"
    },
    {
      "midi": 62,
      "time": 5.555,
      "duration": 0.278,
      "velocity": 1,
      "hand": "right"
    },
    {
      "midi": 47,
      "time": 5.833,
      "duration": 0.278,
      "velocity": 1,
      "hand": "left"
    },
    {
      "midi": 52,
      "time": 6.111,
      "duration": 0.278,
      "velocity": 1,
      "hand": "left"
    },
    {
      "midi": 58,
      "time": 6.111,
      "duration": 0.278,
      "velocity": 1,
      "hand": "left"
    },
    {
      "midi": 61,
      "time": 6.111,
      "duration": 0.278,
      "velocity": 1,
      "hand": "right"
    },
    {
      "midi": 47,
      "time": 6.389,
      "duration": 0.278,
      "velocity": 1,
      "hand": "left"
    },
    {
      "midi": 50,
      "time": 6.389,
      "duration": 0.278,
      "velocity": 1,
      "hand": "left"
    },
    {
      "midi": 53,
      "time": 6.666,
      "duration": 0.278,
      "velocity": 1,
      "hand": "left"
    },
    {
      "midi": 54,
      "time": 6.944,
      "duration": 0.278,
      "velocity": 1,
      "hand": "left"
    },
    {
      "midi": 55,
      "time": 7.222,
      "duration": 0.833,
      "velocity": 1,
      "hand": "left"
    },
    {
      "midi": 62,
      "time": 7.5,
      "duration": 0.278,
      "velocity": 1,
      "hand": "right"
    },
    {
      "midi": 71,
      "time": 7.5,
      "duration": 0.263,
      "velocity": 1,
      "hand": "right"
    },
    {
      "midi": 74,
      "time": 7.5,
      "duration": 0.263,
      "velocity": 1,
      "hand": "right"
    },
    {
      "midi": 64,
      "time": 7.778,
      "duration": 0.278,
      "velocity": 1,
      "hand": "right"
    },
    {
      "midi": 71,
      "time": 7.778,
      "duration": 0.262,
      "velocity": 1,
      "hand": "right"
    },
    {
      "midi": 74,
      "time": 7.778,
      "duration": 0.262,
      "velocity": 1,
      "hand": "right"
    },
    {
      "midi": 43,
      "time": 8.055,
      "duration": 0.278,
      "velocity": 1,
      "hand": "left"
    },
    {
      "midi": 65,
      "time": 8.055,
      "duration": 0.278,
      "velocity": 1,
      "hand": "right"
    },
    {
      "midi": 71,
      "time": 8.055,
      "duration": 0.278,
      "velocity": 1,
      "hand": "right"
    },
    {
      "midi": 74,
      "time": 8.055,
      "duration": 0.278,
      "velocity": 1,
      "hand": "right"
    },
    {
      "midi": 45,
      "time": 8.333,
      "duration": 0.278,
      "velocity": 1,
      "hand": "left"
    },
    {
      "midi": 43,
      "time": 8.611,
      "duration": 0.278,
      "velocity": 1,
      "hand": "left"
    },
    {
      "midi": 42,
      "time": 8.889,
      "duration": 0.833,
      "velocity": 1,
      "hand": "left"
    },
    {
      "midi": 56,
      "time": 9.166,
      "duration": 0.278,
      "velocity": 1,
      "hand": "left"
    },
    {
      "midi": 59,
      "time": 9.166,
      "duration": 0.278,
      "velocity": 1,
      "hand": "left"
    },
    {
      "midi": 66,
      "time": 9.166,
      "duration": 0.278,
      "velocity": 1,
      "hand": "right"
    },
    {
      "midi": 58,
      "time": 9.444,
      "duration": 0.278,
      "velocity": 1,
      "hand": "left"
    },
    {
      "midi": 61,
      "time": 9.444,
      "duration": 0.278,
      "velocity": 1,
      "hand": "right"
    },
    {
      "midi": 64,
      "time": 9.444,
      "duration": 0.278,
      "velocity": 1,
      "hand": "right"
    },
    {
      "midi": 47,
      "time": 9.722,
      "duration": 0.278,
      "velocity": 1,
      "hand": "left"
    },
    {
      "midi": 59,
      "time": 9.722,
      "duration": 0.278,
      "velocity": 1,
      "hand": "left"
    },
    {
      "midi": 62,
      "time": 9.722,
      "duration": 0.278,
      "velocity": 1,
      "hand": "right"
    },
    {
      "midi": 53,
      "time": 10,
      "duration": 0.278,
      "velocity": 1,
      "hand": "left"
    },
    {
      "midi": 54,
      "time": 10.278,
      "duration": 0.278,
      "velocity": 1,
      "hand": "left"
    },
    {
      "midi": 55,
      "time": 10.555,
      "duration": 0.833,
      "velocity": 1,
      "hand": "left"
    },
    {
      "midi": 62,
      "time": 10.833,
      "duration": 0.278,
      "velocity": 1,
      "hand": "right"
    },
    {
      "midi": 71,
      "time": 10.833,
      "duration": 0.263,
      "velocity": 1,
      "hand": "right"
    },
    {
      "midi": 74,
      "time": 10.833,
      "duration": 0.263,
      "velocity": 1,
      "hand": "right"
    },
    {
      "midi": 64,
      "time": 11.111,
      "duration": 0.278,
      "velocity": 1,
      "hand": "right"
    },
    {
      "midi": 71,
      "time": 11.111,
      "duration": 0.263,
      "velocity": 1,
      "hand": "right"
    },
    {
      "midi": 74,
      "time": 11.111,
      "duration": 0.263,
      "velocity": 1,
      "hand": "right"
    },
    {
      "midi": 43,
      "time": 11.389,
      "duration": 0.278,
      "velocity": 1,
      "hand": "left"
    },
    {
      "midi": 65,
      "time": 11.389,
      "duration": 0.278,
      "velocity": 1,
      "hand": "right"
    },
    {
      "midi": 71,
      "time": 11.389,
      "duration": 0.278,
      "velocity": 1,
      "hand": "right"
    },
    {
      "midi": 74,
      "time": 11.389,
      "duration": 0.278,
      "velocity": 1,
      "hand": "right"
    },
    {
      "midi": 45,
      "time": 11.666,
      "duration": 0.278,
      "velocity": 1,
      "hand": "left"
    },
    {
      "midi": 43,
      "time": 11.944,
      "duration": 0.278,
      "velocity": 1,
      "hand": "left"
    },
    {
      "midi": 42,
      "time": 12.222,
      "duration": 0.833,
      "velocity": 1,
      "hand": "left"
    },
    {
      "midi": 56,
      "time": 12.5,
      "duration": 0.278,
      "velocity": 1,
      "hand": "left"
    },
    {
      "midi": 59,
      "time": 12.5,
      "duration": 0.278,
      "velocity": 1,
      "hand": "left"
    },
    {
      "midi": 66,
      "time": 12.5,
      "duration": 0.278,
      "velocity": 1,
      "hand": "right"
    },
    {
      "midi": 58,
      "time": 12.778,
      "duration": 0.278,
      "velocity": 1,
      "hand": "left"
    },
    {
      "midi": 61,
      "time": 12.778,
      "duration": 0.278,
      "velocity": 1,
      "hand": "right"
    },
    {
      "midi": 64,
      "time": 12.778,
      "duration": 0.278,
      "velocity": 1,
      "hand": "right"
    },
    {
      "midi": 47,
      "time": 13.055,
      "duration": 0.278,
      "velocity": 1,
      "hand": "left"
    },
    {
      "midi": 59,
      "time": 13.055,
      "duration": 0.278,
      "velocity": 1,
      "hand": "left"
    },
    {
      "midi": 62,
      "time": 13.055,
      "duration": 0.263,
      "velocity": 1,
      "hand": "right"
    },
    {
      "midi": 62,
      "time": 13.333,
      "duration": 0.278,
      "velocity": 1,
      "hand": "right"
    },
    {
      "midi": 66,
      "time": 13.333,
      "duration": 0.278,
      "velocity": 1,
      "hand": "right"
    },
    {
      "midi": 71,
      "time": 13.333,
      "duration": 0.278,
      "velocity": 1,
      "hand": "right"
    },
    {
      "midi": 61,
      "time": 13.611,
      "duration": 0.278,
      "velocity": 1,
      "hand": "right"
    },
    {
      "midi": 65,
      "time": 13.611,
      "duration": 0.278,
      "velocity": 1,
      "hand": "right"
    },
    {
      "midi": 62,
      "time": 13.889,
      "duration": 0.556,
      "velocity": 1,
      "hand": "right"
    },
    {
      "midi": 66,
      "time": 13.889,
      "duration": 0.556,
      "velocity": 1,
      "hand": "right"
    },
    {
      "midi": 71,
      "time": 13.889,
      "duration": 0.556,
      "velocity": 1,
      "hand": "right"
    },
    {
      "midi": 47,
      "time": 14.166,
      "duration": 0.278,
      "velocity": 1,
      "hand": "left"
    },
    {
      "midi": 61,
      "time": 14.444,
      "duration": 0.278,
      "velocity": 1,
      "hand": "right"
    },
    {
      "midi": 64,
      "time": 14.444,
      "duration": 0.278,
      "velocity": 1,
      "hand": "right"
    },
    {
      "midi": 70,
      "time": 14.444,
      "duration": 0.278,
      "velocity": 1,
      "hand": "right"
    },
    {
      "midi": 47,
      "time": 14.722,
      "duration": 0.278,
      "velocity": 1,
      "hand": "left"
    },
    {
      "midi": 59,
      "time": 15,
      "duration": 0.278,
      "velocity": 1,
      "hand": "left"
    },
    {
      "midi": 62,
      "time": 15,
      "duration": 0.278,
      "velocity": 1,
      "hand": "right"
    },
    {
      "midi": 67,
      "time": 15,
      "duration": 0.278,
      "velocity": 1,
      "hand": "right"
    },
    {
      "midi": 58,
      "time": 15.278,
      "duration": 0.278,
      "velocity": 1,
      "hand": "left"
    },
    {
      "midi": 61,
      "time": 15.278,
      "duration": 0.278,
      "velocity": 1,
      "hand": "right"
    },
    {
      "midi": 59,
      "time": 15.555,
      "duration": 0.556,
      "velocity": 1,
      "hand": "left"
    },
    {
      "midi": 62,
      "time": 15.555,
      "duration": 0.556,
      "velocity": 1,
      "hand": "right"
    },
    {
      "midi": 67,
      "time": 15.555,
      "duration": 0.556,
      "velocity": 1,
      "hand": "right"
    },
    {
      "midi": 47,
      "time": 15.833,
      "duration": 0.278,
      "velocity": 1,
      "hand": "left"
    },
    {
      "midi": 58,
      "time": 16.111,
      "duration": 0.278,
      "velocity": 1,
      "hand": "left"
    },
    {
      "midi": 61,
      "time": 16.111,
      "duration": 0.278,
      "velocity": 1,
      "hand": "right"
    },
    {
      "midi": 66,
      "time": 16.111,
      "duration": 0.278,
      "velocity": 1,
      "hand": "right"
    },
    {
      "midi": 47,
      "time": 16.389,
      "duration": 0.278,
      "velocity": 1,
      "hand": "left"
    },
    {
      "midi": 57,
      "time": 16.666,
      "duration": 0.278,
      "velocity": 1,
      "hand": "left"
    },
    {
      "midi": 60,
      "time": 16.666,
      "duration": 0.278,
      "velocity": 1,
      "hand": "right"
    },
    {
      "midi": 66,
      "time": 16.666,
      "duration": 0.278,
      "velocity": 1,
      "hand": "right"
    },
    {
      "midi": 56,
      "time": 16.944,
      "duration": 0.278,
      "velocity": 1,
      "hand": "left"
    },
    {
      "midi": 59,
      "time": 16.944,
      "duration": 0.278,
      "velocity": 1,
      "hand": "left"
    },
    {
      "midi": 57,
      "time": 17.222,
      "duration": 0.556,
      "velocity": 1,
      "hand": "left"
    },
    {
      "midi": 60,
      "time": 17.222,
      "duration": 0.556,
      "velocity": 1,
      "hand": "right"
    },
    {
      "midi": 66,
      "time": 17.222,
      "duration": 0.556,
      "velocity": 1,
      "hand": "right"
    },
    {
      "midi": 47,
      "time": 17.5,
      "duration": 0.278,
      "velocity": 1,
      "hand": "left"
    },
    {
      "midi": 56,
      "time": 17.778,
      "duration": 0.278,
      "velocity": 1,
      "hand": "left"
    },
    {
      "midi": 59,
      "time": 17.778,
      "duration": 0.278,
      "velocity": 1,
      "hand": "left"
    },
    {
      "midi": 64,
      "time": 17.778,
      "duration": 0.278,
      "velocity": 1,
      "hand": "right"
    },
    {
      "midi": 47,
      "time": 18.055,
      "duration": 0.278,
      "velocity": 1,
      "hand": "left"
    },
    {
      "midi": 55,
      "time": 18.333,
      "duration": 0.278,
      "velocity": 1,
      "hand": "left"
    },
    {
      "midi": 58,
      "time": 18.333,
      "duration": 0.278,
      "velocity": 1,
      "hand": "left"
    },
    {
      "midi": 64,
      "time": 18.333,
      "duration": 0.278,
      "velocity": 1,
      "hand": "right"
    },
    {
      "midi": 47,
      "time": 18.611,
      "duration": 0.278,
      "velocity": 1,
      "hand": "left"
    },
    {
      "midi": 54,
      "time": 18.889,
      "duration": 0.278,
      "velocity": 1,
      "hand": "left"
    },
    {
      "midi": 58,
      "time": 18.889,
      "duration": 0.278,
      "velocity": 1,
      "hand": "left"
    },
    {
      "midi": 62,
      "time": 18.889,
      "duration": 0.278,
      "velocity": 1,
      "hand": "right"
    },
    {
      "midi": 47,
      "time": 19.166,
      "duration": 0.278,
      "velocity": 1,
      "hand": "left"
    },
    {
      "midi": 52,
      "time": 19.444,
      "duration": 0.278,
      "velocity": 1,
      "hand": "left"
    },
    {
      "midi": 58,
      "time": 19.444,
      "duration": 0.278,
      "velocity": 1,
      "hand": "left"
    },
    {
      "midi": 61,
      "time": 19.444,
      "duration": 0.278,
      "velocity": 1,
      "hand": "right"
    },
    {
      "midi": 47,
      "time": 19.722,
      "duration": 0.278,
      "velocity": 1,
      "hand": "left"
    },
    {
      "midi": 50,
      "time": 19.722,
      "duration": 0.278,
      "velocity": 1,
      "hand": "left"
    },
    {
      "midi": 53,
      "time": 20,
      "duration": 0.278,
      "velocity": 1,
      "hand": "left"
    },
    {
      "midi": 54,
      "time": 20.278,
      "duration": 0.278,
      "velocity": 1,
      "hand": "left"
    },
    {
      "midi": 55,
      "time": 20.555,
      "duration": 0.833,
      "velocity": 1,
      "hand": "left"
    },
    {
      "midi": 62,
      "time": 20.833,
      "duration": 0.278,
      "velocity": 1,
      "hand": "right"
    },
    {
      "midi": 71,
      "time": 20.833,
      "duration": 0.263,
      "velocity": 1,
      "hand": "right"
    },
    {
      "midi": 74,
      "time": 20.833,
      "duration": 0.263,
      "velocity": 1,
      "hand": "right"
    },
    {
      "midi": 64,
      "time": 21.111,
      "duration": 0.278,
      "velocity": 1,
      "hand": "right"
    },
    {
      "midi": 71,
      "time": 21.111,
      "duration": 0.263,
      "velocity": 1,
      "hand": "right"
    },
    {
      "midi": 74,
      "time": 21.111,
      "duration": 0.263,
      "velocity": 1,
      "hand": "right"
    },
    {
      "midi": 43,
      "time": 21.389,
      "duration": 0.278,
      "velocity": 1,
      "hand": "left"
    },
    {
      "midi": 65,
      "time": 21.389,
      "duration": 0.278,
      "velocity": 1,
      "hand": "right"
    },
    {
      "midi": 71,
      "time": 21.389,
      "duration": 0.278,
      "velocity": 1,
      "hand": "right"
    },
    {
      "midi": 74,
      "time": 21.389,
      "duration": 0.278,
      "velocity": 1,
      "hand": "right"
    },
    {
      "midi": 45,
      "time": 21.666,
      "duration": 0.278,
      "velocity": 1,
      "hand": "left"
    },
    {
      "midi": 43,
      "time": 21.944,
      "duration": 0.278,
      "velocity": 1,
      "hand": "left"
    },
    {
      "midi": 42,
      "time": 22.222,
      "duration": 0.833,
      "velocity": 1,
      "hand": "left"
    },
    {
      "midi": 56,
      "time": 22.5,
      "duration": 0.278,
      "velocity": 1,
      "hand": "left"
    },
    {
      "midi": 59,
      "time": 22.5,
      "duration": 0.278,
      "velocity": 1,
      "hand": "left"
    },
    {
      "midi": 66,
      "time": 22.5,
      "duration": 0.278,
      "velocity": 1,
      "hand": "right"
    },
    {
      "midi": 58,
      "time": 22.778,
      "duration": 0.278,
      "velocity": 1,
      "hand": "left"
    },
    {
      "midi": 61,
      "time": 22.778,
      "duration": 0.278,
      "velocity": 1,
      "hand": "right"
    },
    {
      "midi": 64,
      "time": 22.778,
      "duration": 0.278,
      "velocity": 1,
      "hand": "right"
    },
    {
      "midi": 47,
      "time": 23.055,
      "duration": 0.278,
      "velocity": 1,
      "hand": "left"
    },
    {
      "midi": 59,
      "time": 23.055,
      "duration": 0.278,
      "velocity": 1,
      "hand": "left"
    },
    {
      "midi": 62,
      "time": 23.055,
      "duration": 0.278,
      "velocity": 1,
      "hand": "right"
    },
    {
      "midi": 53,
      "time": 23.333,
      "duration": 0.278,
      "velocity": 1,
      "hand": "left"
    },
    {
      "midi": 54,
      "time": 23.611,
      "duration": 0.278,
      "velocity": 1,
      "hand": "left"
    },
    {
      "midi": 55,
      "time": 23.889,
      "duration": 0.818,
      "velocity": 1,
      "hand": "left"
    },
    {
      "midi": 62,
      "time": 24.166,
      "duration": 0.278,
      "velocity": 1,
      "hand": "right"
    },
    {
      "midi": 71,
      "time": 24.166,
      "duration": 0.263,
      "velocity": 1,
      "hand": "right"
    },
    {
      "midi": 74,
      "time": 24.166,
      "duration": 0.263,
      "velocity": 1,
      "hand": "right"
    },
    {
      "midi": 64,
      "time": 24.444,
      "duration": 0.278,
      "velocity": 1,
      "hand": "right"
    },
    {
      "midi": 71,
      "time": 24.444,
      "duration": 0.263,
      "velocity": 1,
      "hand": "right"
    },
    {
      "midi": 74,
      "time": 24.444,
      "duration": 0.263,
      "velocity": 1,
      "hand": "right"
    },
    {
      "midi": 55,
      "time": 24.722,
      "duration": 0.278,
      "velocity": 1,
      "hand": "left"
    },
    {
      "midi": 65,
      "time": 24.722,
      "duration": 0.541,
      "velocity": 1,
      "hand": "right"
    },
    {
      "midi": 71,
      "time": 24.722,
      "duration": 0.541,
      "velocity": 1,
      "hand": "right"
    },
    {
      "midi": 74,
      "time": 24.722,
      "duration": 0.556,
      "velocity": 1,
      "hand": "right"
    },
    {
      "midi": 56,
      "time": 25,
      "duration": 0.556,
      "velocity": 1,
      "hand": "left"
    },
    {
      "midi": 65,
      "time": 25.278,
      "duration": 0.556,
      "velocity": 1,
      "hand": "right"
    },
    {
      "midi": 71,
      "time": 25.278,
      "duration": 0.54,
      "velocity": 1,
      "hand": "right"
    },
    {
      "midi": 73,
      "time": 25.278,
      "duration": 0.54,
      "velocity": 1,
      "hand": "right"
    },
    {
      "midi": 61,
      "time": 25.555,
      "duration": 0.556,
      "velocity": 1,
      "hand": "right"
    },
    {
      "midi": 71,
      "time": 25.833,
      "duration": 0.556,
      "velocity": 1,
      "hand": "right"
    },
    {
      "midi": 73,
      "time": 25.833,
      "duration": 0.541,
      "velocity": 1,
      "hand": "right"
    },
    {
      "midi": 77,
      "time": 25.833,
      "duration": 0.556,
      "velocity": 1,
      "hand": "right"
    },
    {
      "midi": 68,
      "time": 26.111,
      "duration": 0.278,
      "velocity": 1,
      "hand": "right"
    },
    {
      "midi": 66,
      "time": 26.389,
      "duration": 0.278,
      "velocity": 1,
      "hand": "right"
    },
    {
      "midi": 70,
      "time": 26.389,
      "duration": 0.278,
      "velocity": 1,
      "hand": "right"
    },
    {
      "midi": 73,
      "time": 26.389,
      "duration": 0.278,
      "velocity": 1,
      "hand": "right"
    },
    {
      "midi": 78,
      "time": 26.389,
      "duration": 0.262,
      "velocity": 1,
      "hand": "right"
    },
    {
      "midi": 74,
      "time": 26.666,
      "duration": 0.278,
      "velocity": 1,
      "hand": "right"
    },
    {
      "midi": 78,
      "time": 26.666,
      "duration": 0.278,
      "velocity": 1,
      "hand": "right"
    },
    {
      "midi": 83,
      "time": 26.666,
      "duration": 0.278,
      "velocity": 1,
      "hand": "right"
    },
    {
      "midi": 73,
      "time": 26.944,
      "duration": 0.278,
      "velocity": 1,
      "hand": "right"
    },
    {
      "midi": 77,
      "time": 26.944,
      "duration": 0.278,
      "velocity": 1,
      "hand": "right"
    },
    {
      "midi": 74,
      "time": 27.222,
      "duration": 0.556,
      "velocity": 1,
      "hand": "right"
    },
    {
      "midi": 78,
      "time": 27.222,
      "duration": 0.556,
      "velocity": 1,
      "hand": "right"
    },
    {
      "midi": 83,
      "time": 27.222,
      "duration": 0.556,
      "velocity": 1,
      "hand": "right"
    },
    {
      "midi": 66,
      "time": 27.5,
      "duration": 0.278,
      "velocity": 1,
      "hand": "right"
    },
    {
      "midi": 73,
      "time": 27.778,
      "duration": 0.278,
      "velocity": 1,
      "hand": "right"
    },
    {
      "midi": 76,
      "time": 27.778,
      "duration": 0.278,
      "velocity": 1,
      "hand": "right"
    },
    {
      "midi": 82,
      "time": 27.778,
      "duration": 0.278,
      "velocity": 1,
      "hand": "right"
    },
    {
      "midi": 66,
      "time": 28.055,
      "duration": 1.096,
      "velocity": 1,
      "hand": "right"
    },
    {
      "midi": 71,
      "time": 28.333,
      "duration": 0.278,
      "velocity": 1,
      "hand": "right"
    },
    {
      "midi": 74,
      "time": 28.333,
      "duration": 0.278,
      "velocity": 1,
      "hand": "right"
    },
    {
      "midi": 79,
      "time": 28.333,
      "duration": 0.278,
      "velocity": 1,
      "hand": "right"
    },
    {
      "midi": 70,
      "time": 28.611,
      "duration": 0.278,
      "velocity": 1,
      "hand": "right"
    },
    {
      "midi": 73,
      "time": 28.611,
      "duration": 0.278,
      "velocity": 1,
      "hand": "right"
    },
    {
      "midi": 71,
      "time": 28.889,
      "duration": 0.556,
      "velocity": 1,
      "hand": "right"
    },
    {
      "midi": 74,
      "time": 28.889,
      "duration": 0.556,
      "velocity": 1,
      "hand": "right"
    },
    {
      "midi": 79,
      "time": 28.889,
      "duration": 0.556,
      "velocity": 1,
      "hand": "right"
    },
    {
      "midi": 66,
      "time": 29.166,
      "duration": 0.541,
      "velocity": 1,
      "hand": "right"
    },
    {
      "midi": 70,
      "time": 29.444,
      "duration": 0.278,
      "velocity": 1,
      "hand": "right"
    },
    {
      "midi": 73,
      "time": 29.444,
      "duration": 0.278,
      "velocity": 1,
      "hand": "right"
    },
    {
      "midi": 78,
      "time": 29.444,
      "duration": 0.278,
      "velocity": 1,
      "hand": "right"
    },
    {
      "midi": 66,
      "time": 29.722,
      "duration": 0.278,
      "velocity": 1,
      "hand": "right"
    },
    {
      "midi": 64,
      "time": 30,
      "duration": 0.818,
      "velocity": 1,
      "hand": "right"
    },
    {
      "midi": 69,
      "time": 30,
      "duration": 0.833,
      "velocity": 1,
      "hand": "right"
    },
    {
      "midi": 72,
      "time": 30,
      "duration": 0.278,
      "velocity": 1,
      "hand": "right"
    },
    {
      "midi": 78,
      "time": 30,
      "duration": 0.278,
      "velocity": 1,
      "hand": "right"
    },
    {
      "midi": 71,
      "time": 30.278,
      "duration": 0.278,
      "velocity": 1,
      "hand": "right"
    },
    {
      "midi": 72,
      "time": 30.555,
      "duration": 0.263,
      "velocity": 1,
      "hand": "right"
    },
    {
      "midi": 78,
      "time": 30.555,
      "duration": 0.278,
      "velocity": 1,
      "hand": "right"
    },
    {
      "midi": 57,
      "time": 30.833,
      "duration": 0.818,
      "velocity": 1,
      "hand": "left"
    },
    {
      "midi": 64,
      "time": 30.833,
      "duration": 0.818,
      "velocity": 1,
      "hand": "right"
    },
    {
      "midi": 66,
      "time": 30.833,
      "duration": 0.278,
      "velocity": 1,
      "hand": "right"
    },
    {
      "midi": 72,
      "time": 30.833,
      "duration": 0.278,
      "velocity": 1,
      "hand": "right"
    },
    {
      "midi": 65,
      "time": 31.111,
      "duration": 0.278,
      "velocity": 1,
      "hand": "right"
    },
    {
      "midi": 66,
      "time": 31.389,
      "duration": 0.278,
      "velocity": 1,
      "hand": "right"
    },
    {
      "midi": 72,
      "time": 31.389,
      "duration": 0.278,
      "velocity": 1,
      "hand": "right"
    },
    {
      "midi": 54,
      "time": 31.666,
      "duration": 0.833,
      "velocity": 1,
      "hand": "left"
    },
    {
      "midi": 57,
      "time": 31.666,
      "duration": 0.833,
      "velocity": 1,
      "hand": "left"
    },
    {
      "midi": 60,
      "time": 31.666,
      "duration": 0.278,
      "velocity": 1,
      "hand": "right"
    },
    {
      "midi": 64,
      "time": 31.666,
      "duration": 0.278,
      "velocity": 1,
      "hand": "right"
    },
    {
      "midi": 59,
      "time": 31.944,
      "duration": 0.278,
      "velocity": 1,
      "hand": "left"
    },
    {
      "midi": 60,
      "time": 32.222,
      "duration": 0.278,
      "velocity": 1,
      "hand": "right"
    },
    {
      "midi": 64,
      "time": 32.222,
      "duration": 0.278,
      "velocity": 1,
      "hand": "right"
    },
    {
      "midi": 48,
      "time": 32.5,
      "duration": 0.278,
      "velocity": 1,
      "hand": "left"
    },
    {
      "midi": 47,
      "time": 32.778,
      "duration": 0.278,
      "velocity": 1,
      "hand": "left"
    },
    {
      "midi": 54,
      "time": 32.778,
      "duration": 0.278,
      "velocity": 1,
      "hand": "left"
    },
    {
      "midi": 63,
      "time": 32.778,
      "duration": 0.278,
      "velocity": 1,
      "hand": "right"
    },
    {
      "midi": 52,
      "time": 33.055,
      "duration": 0.278,
      "velocity": 1,
      "hand": "left"
    },
    {
      "midi": 55,
      "time": 33.055,
      "duration": 0.278,
      "velocity": 1,
      "hand": "left"
    },
    {
      "midi": 64,
      "time": 33.055,
      "duration": 0.278,
      "velocity": 1,
      "hand": "right"
    },
    {
      "midi": 76,
      "time": 33.333,
      "duration": 0.278,
      "velocity": 1,
      "hand": "right"
    },
    {
      "midi": 79,
      "time": 33.333,
      "duration": 0.278,
      "velocity": 1,
      "hand": "right"
    },
    {
      "midi": 83,
      "time": 33.333,
      "duration": 0.278,
      "velocity": 1,
      "hand": "right"
    },
    {
      "midi": 78,
      "time": 33.611,
      "duration": 0.278,
      "velocity": 1,
      "hand": "right"
    },
    {
      "midi": 82,
      "time": 33.611,
      "duration": 0.278,
      "velocity": 1,
      "hand": "right"
    },
    {
      "midi": 76,
      "time": 33.889,
      "duration": 0.556,
      "velocity": 1,
      "hand": "right"
    },
    {
      "midi": 79,
      "time": 33.889,
      "duration": 0.556,
      "velocity": 1,
      "hand": "right"
    },
    {
      "midi": 83,
      "time": 33.889,
      "duration": 0.556,
      "velocity": 1,
      "hand": "right"
    },
    {
      "midi": 71,
      "time": 34.166,
      "duration": 0.278,
      "velocity": 1,
      "hand": "right"
    },
    {
      "midi": 75,
      "time": 34.444,
      "duration": 0.278,
      "velocity": 1,
      "hand": "right"
    },
    {
      "midi": 78,
      "time": 34.444,
      "duration": 0.278,
      "velocity": 1,
      "hand": "right"
    },
    {
      "midi": 81,
      "time": 34.444,
      "duration": 0.278,
      "velocity": 1,
      "hand": "right"
    },
    {
      "midi": 71,
      "time": 34.722,
      "duration": 1.096,
      "velocity": 1,
      "hand": "right"
    },
    {
      "midi": 76,
      "time": 35,
      "duration": 0.278,
      "velocity": 1,
      "hand": "right"
    },
    {
      "midi": 79,
      "time": 35,
      "duration": 0.278,
      "velocity": 1,
      "hand": "right"
    },
    {
      "midi": 84,
      "time": 35,
      "duration": 0.278,
      "velocity": 1,
      "hand": "right"
    },
    {
      "midi": 75,
      "time": 35.278,
      "duration": 0.278,
      "velocity": 1,
      "hand": "right"
    },
    {
      "midi": 78,
      "time": 35.278,
      "duration": 0.278,
      "velocity": 1,
      "hand": "right"
    },
    {
      "midi": 76,
      "time": 35.555,
      "duration": 0.556,
      "velocity": 1,
      "hand": "right"
    },
    {
      "midi": 79,
      "time": 35.555,
      "duration": 0.556,
      "velocity": 1,
      "hand": "right"
    },
    {
      "midi": 84,
      "time": 35.555,
      "duration": 0.556,
      "velocity": 1,
      "hand": "right"
    },
    {
      "midi": 71,
      "time": 35.833,
      "duration": 0.541,
      "velocity": 1,
      "hand": "right"
    },
    {
      "midi": 75,
      "time": 36.111,
      "duration": 0.278,
      "velocity": 1,
      "hand": "right"
    },
    {
      "midi": 78,
      "time": 36.111,
      "duration": 0.278,
      "velocity": 1,
      "hand": "right"
    },
    {
      "midi": 83,
      "time": 36.111,
      "duration": 0.278,
      "velocity": 1,
      "hand": "right"
    },
    {
      "midi": 71,
      "time": 36.389,
      "duration": 0.278,
      "velocity": 1,
      "hand": "right"
    },
    {
      "midi": 69,
      "time": 36.666,
      "duration": 0.819,
      "velocity": 1,
      "hand": "right"
    },
    {
      "midi": 74,
      "time": 36.666,
      "duration": 0.833,
      "velocity": 1,
      "hand": "right"
    },
    {
      "midi": 77,
      "time": 36.666,
      "duration": 0.278,
      "velocity": 1,
      "hand": "right"
    },
    {
      "midi": 83,
      "time": 36.666,
      "duration": 0.278,
      "velocity": 1,
      "hand": "right"
    },
    {
      "midi": 76,
      "time": 36.944,
      "duration": 0.278,
      "velocity": 1,
      "hand": "right"
    },
    {
      "midi": 77,
      "time": 37.222,
      "duration": 0.263,
      "velocity": 1,
      "hand": "right"
    },
    {
      "midi": 83,
      "time": 37.222,
      "duration": 0.278,
      "velocity": 1,
      "hand": "right"
    },
    {
      "midi": 62,
      "time": 37.5,
      "duration": 0.818,
      "velocity": 1,
      "hand": "right"
    },
    {
      "midi": 69,
      "time": 37.5,
      "duration": 0.833,
      "velocity": 1,
      "hand": "right"
    },
    {
      "midi": 71,
      "time": 37.5,
      "duration": 0.278,
      "velocity": 1,
      "hand": "right"
    },
    {
      "midi": 77,
      "time": 37.5,
      "duration": 0.278,
      "velocity": 1,
      "hand": "right"
    },
    {
      "midi": 70,
      "time": 37.778,
      "duration": 0.278,
      "velocity": 1,
      "hand": "right"
    },
    {
      "midi": 71,
      "time": 38.055,
      "duration": 0.278,
      "velocity": 1,
      "hand": "right"
    },
    {
      "midi": 77,
      "time": 38.055,
      "duration": 0.278,
      "velocity": 1,
      "hand": "right"
    },
    {
      "midi": 59,
      "time": 38.333,
      "duration": 0.833,
      "velocity": 1,
      "hand": "left"
    },
    {
      "midi": 62,
      "time": 38.333,
      "duration": 0.833,
      "velocity": 1,
      "hand": "right"
    },
    {
      "midi": 65,
      "time": 38.333,
      "duration": 0.278,
      "velocity": 1,
      "hand": "right"
    },
    {
      "midi": 70,
      "time": 38.333,
      "duration": 0.278,
      "velocity": 1,
      "hand": "right"
    },
    {
      "midi": 64,
      "time": 38.611,
      "duration": 0.278,
      "velocity": 1,
      "hand": "right"
    },
    {
      "midi": 65,
      "time": 38.889,
      "duration": 0.278,
      "velocity": 1,
      "hand": "right"
    },
    {
      "midi": 70,
      "time": 38.889,
      "duration": 0.278,
      "velocity": 1,
      "hand": "right"
    },
    {
      "midi": 53,
      "time": 39.166,
      "duration": 0.278,
      "velocity": 1,
      "hand": "left"
    },
    {
      "midi": 52,
      "time": 39.444,
      "duration": 0.278,
      "velocity": 1,
      "hand": "left"
    },
    {
      "midi": 59,
      "time": 39.444,
      "duration": 0.278,
      "velocity": 1,
      "hand": "left"
    },
    {
      "midi": 62,
      "time": 39.444,
      "duration": 0.278,
      "velocity": 1,
      "hand": "right"
    },
    {
      "midi": 68,
      "time": 39.444,
      "duration": 0.278,
      "velocity": 1,
      "hand": "right"
    },
    {
      "midi": 45,
      "time": 39.722,
      "duration": 0.278,
      "velocity": 1,
      "hand": "left"
    },
    {
      "midi": 60,
      "time": 39.722,
      "duration": 0.263,
      "velocity": 1,
      "hand": "right"
    },
    {
      "midi": 69,
      "time": 39.722,
      "duration": 0.263,
      "velocity": 1,
      "hand": "right"
    },
    {
      "midi": 53,
      "time": 40,
      "duration": 0.278,
      "velocity": 1,
      "hand": "left"
    },
    {
      "midi": 60,
      "time": 40,
      "duration": 0.556,
      "velocity": 1,
      "hand": "right"
    },
    {
      "midi": 69,
      "time": 40,
      "duration": 0.556,
      "velocity": 1,
      "hand": "right"
    },
    {
      "midi": 52,
      "time": 40.278,
      "duration": 0.278,
      "velocity": 1,
      "hand": "left"
    },
    {
      "midi": 45,
      "time": 40.555,
      "duration": 0.278,
      "velocity": 1,
      "hand": "left"
    },
    {
      "midi": 62,
      "time": 40.555,
      "duration": 0.556,
      "velocity": 1,
      "hand": "right"
    },
    {
      "midi": 68,
      "time": 40.555,
      "duration": 0.556,
      "velocity": 1,
      "hand": "right"
    },
    {
      "midi": 71,
      "time": 40.555,
      "duration": 0.556,
      "velocity": 1,
      "hand": "right"
    },
    {
      "midi": 53,
      "time": 40.833,
      "duration": 0.278,
      "velocity": 1,
      "hand": "left"
    },
    {
      "midi": 52,
      "time": 41.111,
      "duration": 0.278,
      "velocity": 1,
      "hand": "left"
    },
    {
      "midi": 60,
      "time": 41.111,
      "duration": 0.278,
      "velocity": 1,
      "hand": "right"
    },
    {
      "midi": 69,
      "time": 41.111,
      "duration": 0.278,
      "velocity": 1,
      "hand": "right"
    },
    {
      "midi": 72,
      "time": 41.111,
      "duration": 0.278,
      "velocity": 1,
      "hand": "right"
    },
    {
      "midi": 45,
      "time": 41.389,
      "duration": 0.278,
      "velocity": 1,
      "hand": "left"
    },
    {
      "midi": 53,
      "time": 41.666,
      "duration": 0.278,
      "velocity": 1,
      "hand": "left"
    },
    {
      "midi": 60,
      "time": 41.666,
      "duration": 0.556,
      "velocity": 1,
      "hand": "right"
    },
    {
      "midi": 69,
      "time": 41.666,
      "duration": 0.556,
      "velocity": 1,
      "hand": "right"
    },
    {
      "midi": 52,
      "time": 41.944,
      "duration": 0.278,
      "velocity": 1,
      "hand": "left"
    },
    {
      "midi": 45,
      "time": 42.222,
      "duration": 0.278,
      "velocity": 1,
      "hand": "left"
    },
    {
      "midi": 59,
      "time": 42.222,
      "duration": 0.556,
      "velocity": 1,
      "hand": "left"
    },
    {
      "midi": 62,
      "time": 42.222,
      "duration": 0.556,
      "velocity": 1,
      "hand": "right"
    },
    {
      "midi": 68,
      "time": 42.222,
      "duration": 0.556,
      "velocity": 1,
      "hand": "right"
    },
    {
      "midi": 53,
      "time": 42.5,
      "duration": 0.278,
      "velocity": 1,
      "hand": "left"
    },
    {
      "midi": 52,
      "time": 42.778,
      "duration": 0.278,
      "velocity": 1,
      "hand": "left"
    },
    {
      "midi": 57,
      "time": 42.778,
      "duration": 0.278,
      "velocity": 1,
      "hand": "left"
    },
    {
      "midi": 60,
      "time": 42.778,
      "duration": 0.278,
      "velocity": 1,
      "hand": "right"
    },
    {
      "midi": 69,
      "time": 42.778,
      "duration": 0.278,
      "velocity": 1,
      "hand": "right"
    },
    {
      "midi": 45,
      "time": 43.055,
      "duration": 0.278,
      "velocity": 1,
      "hand": "left"
    },
    {
      "midi": 57,
      "time": 43.333,
      "duration": 0.278,
      "velocity": 1,
      "hand": "left"
    },
    {
      "midi": 64,
      "time": 43.333,
      "duration": 0.556,
      "velocity": 1,
      "hand": "right"
    },
    {
      "midi": 72,
      "time": 43.333,
      "duration": 0.556,
      "velocity": 1,
      "hand": "right"
    },
    {
      "midi": 56,
      "time": 43.611,
      "duration": 0.278,
      "velocity": 1,
      "hand": "left"
    },
    {
      "midi": 48,
      "time": 43.889,
      "duration": 0.278,
      "velocity": 1,
      "hand": "left"
    },
    {
      "midi": 65,
      "time": 43.889,
      "duration": 0.556,
      "velocity": 1,
      "hand": "right"
    },
    {
      "midi": 71,
      "time": 43.889,
      "duration": 0.556,
      "velocity": 1,
      "hand": "right"
    },
    {
      "midi": 74,
      "time": 43.889,
      "duration": 0.556,
      "velocity": 1,
      "hand": "right"
    },
    {
      "midi": 57,
      "time": 44.166,
      "duration": 0.278,
      "velocity": 1,
      "hand": "left"
    },
    {
      "midi": 56,
      "time": 44.444,
      "duration": 0.278,
      "velocity": 1,
      "hand": "left"
    },
    {
      "midi": 64,
      "time": 44.444,
      "duration": 0.278,
      "velocity": 1,
      "hand": "right"
    },
    {
      "midi": 72,
      "time": 44.444,
      "duration": 0.278,
      "velocity": 1,
      "hand": "right"
    },
    {
      "midi": 76,
      "time": 44.444,
      "duration": 0.278,
      "velocity": 1,
      "hand": "right"
    },
    {
      "midi": 48,
      "time": 44.722,
      "duration": 0.278,
      "velocity": 1,
      "hand": "left"
    },
    {
      "midi": 57,
      "time": 45,
      "duration": 0.278,
      "velocity": 1,
      "hand": "left"
    },
    {
      "midi": 64,
      "time": 45,
      "duration": 0.556,
      "velocity": 1,
      "hand": "right"
    },
    {
      "midi": 72,
      "time": 45,
      "duration": 0.556,
      "velocity": 1,
      "hand": "right"
    },
    {
      "midi": 56,
      "time": 45.278,
      "duration": 0.278,
      "velocity": 1,
      "hand": "left"
    },
    {
      "midi": 48,
      "time": 45.555,
      "duration": 0.278,
      "velocity": 1,
      "hand": "left"
    },
    {
      "midi": 62,
      "time": 45.555,
      "duration": 0.556,
      "velocity": 1,
      "hand": "right"
    },
    {
      "midi": 65,
      "time": 45.555,
      "duration": 0.556,
      "velocity": 1,
      "hand": "right"
    },
    {
      "midi": 71,
      "time": 45.555,
      "duration": 0.556,
      "velocity": 1,
      "hand": "right"
    },
    {
      "midi": 57,
      "time": 45.833,
      "duration": 0.278,
      "velocity": 1,
      "hand": "left"
    },
    {
      "midi": 56,
      "time": 46.111,
      "duration": 0.278,
      "velocity": 1,
      "hand": "left"
    },
    {
      "midi": 60,
      "time": 46.111,
      "duration": 0.278,
      "velocity": 1,
      "hand": "right"
    },
    {
      "midi": 64,
      "time": 46.111,
      "duration": 0.278,
      "velocity": 1,
      "hand": "right"
    },
    {
      "midi": 72,
      "time": 46.111,
      "duration": 0.278,
      "velocity": 1,
      "hand": "right"
    },
    {
      "midi": 48,
      "time": 46.389,
      "duration": 0.278,
      "velocity": 1,
      "hand": "left"
    },
    {
      "midi": 60,
      "time": 46.666,
      "duration": 0.278,
      "velocity": 1,
      "hand": "right"
    },
    {
      "midi": 67,
      "time": 46.666,
      "duration": 0.556,
      "velocity": 1,
      "hand": "right"
    },
    {
      "midi": 76,
      "time": 46.666,
      "duration": 0.556,
      "velocity": 1,
      "hand": "right"
    },
    {
      "midi": 59,
      "time": 46.944,
      "duration": 0.278,
      "velocity": 1,
      "hand": "left"
    },
    {
      "midi": 52,
      "time": 47.222,
      "duration": 0.278,
      "velocity": 1,
      "hand": "left"
    },
    {
      "midi": 69,
      "time": 47.222,
      "duration": 0.556,
      "velocity": 1,
      "hand": "right"
    },
    {
      "midi": 75,
      "time": 47.222,
      "duration": 0.556,
      "velocity": 1,
      "hand": "right"
    },
    {
      "midi": 78,
      "time": 47.222,
      "duration": 0.556,
      "velocity": 1,
      "hand": "right"
    },
    {
      "midi": 60,
      "time": 47.5,
      "duration": 0.278,
      "velocity": 1,
      "hand": "right"
    },
    {
      "midi": 59,
      "time": 47.778,
      "duration": 0.278,
      "velocity": 1,
      "hand": "left"
    },
    {
      "midi": 67,
      "time": 47.778,
      "duration": 0.278,
      "velocity": 1,
      "hand": "right"
    },
    {
      "midi": 76,
      "time": 47.778,
      "duration": 0.278,
      "velocity": 1,
      "hand": "right"
    },
    {
      "midi": 79,
      "time": 47.778,
      "duration": 0.278,
      "velocity": 1,
      "hand": "right"
    },
    {
      "midi": 52,
      "time": 48.055,
      "duration": 0.278,
      "velocity": 1,
      "hand": "left"
    },
    {
      "midi": 64,
      "time": 48.333,
      "duration": 0.278,
      "velocity": 1,
      "hand": "right"
    },
    {
      "midi": 71,
      "time": 48.333,
      "duration": 0.556,
      "velocity": 1,
      "hand": "right"
    },
    {
      "midi": 79,
      "time": 48.333,
      "duration": 0.556,
      "velocity": 1,
      "hand": "right"
    },
    {
      "midi": 63,
      "time": 48.611,
      "duration": 0.278,
      "velocity": 1,
      "hand": "right"
    },
    {
      "midi": 55,
      "time": 48.889,
      "duration": 0.278,
      "velocity": 1,
      "hand": "left"
    },
    {
      "midi": 72,
      "time": 48.889,
      "duration": 0.556,
      "velocity": 1,
      "hand": "right"
    },
    {
      "midi": 78,
      "time": 48.889,
      "duration": 0.556,
      "velocity": 1,
      "hand": "right"
    },
    {
      "midi": 81,
      "time": 48.889,
      "duration": 0.556,
      "velocity": 1,
      "hand": "right"
    },
    {
      "midi": 64,
      "time": 49.166,
      "duration": 0.278,
      "velocity": 1,
      "hand": "right"
    },
    {
      "midi": 63,
      "time": 49.444,
      "duration": 0.278,
      "velocity": 1,
      "hand": "right"
    },
    {
      "midi": 71,
      "time": 49.444,
      "duration": 0.278,
      "velocity": 1,
      "hand": "right"
    },
    {
      "midi": 79,
      "time": 49.444,
      "duration": 0.278,
      "velocity": 1,
      "hand": "right"
    },
    {
      "midi": 83,
      "time": 49.444,
      "duration": 0.278,
      "velocity": 1,
      "hand": "right"
    },
    {
      "midi": 55,
      "time": 49.722,
      "duration": 0.278,
      "velocity": 1,
      "hand": "left"
    },
    {
      "midi": 67,
      "time": 50,
      "duration": 0.278,
      "velocity": 1,
      "hand": "right"
    },
    {
      "midi": 74,
      "time": 50,
      "duration": 0.556,
      "velocity": 1,
      "hand": "right"
    },
    {
      "midi": 83,
      "time": 50,
      "duration": 0.556,
      "velocity": 1,
      "hand": "right"
    },
    {
      "midi": 66,
      "time": 50.278,
      "duration": 0.278,
      "velocity": 1,
      "hand": "right"
    },
    {
      "midi": 59,
      "time": 50.555,
      "duration": 0.278,
      "velocity": 1,
      "hand": "left"
    },
    {
      "midi": 73,
      "time": 50.555,
      "duration": 0.556,
      "velocity": 1,
      "hand": "right"
    },
    {
      "midi": 76,
      "time": 50.555,
      "duration": 0.556,
      "velocity": 1,
      "hand": "right"
    },
    {
      "midi": 82,
      "time": 50.555,
      "duration": 0.556,
      "velocity": 1,
      "hand": "right"
    },
    {
      "midi": 67,
      "time": 50.833,
      "duration": 0.278,
      "velocity": 1,
      "hand": "right"
    },
    {
      "midi": 66,
      "time": 51.111,
      "duration": 0.278,
      "velocity": 1,
      "hand": "right"
    },
    {
      "midi": 74,
      "time": 51.111,
      "duration": 0.278,
      "velocity": 1,
      "hand": "right"
    },
    {
      "midi": 83,
      "time": 51.111,
      "duration": 0.278,
      "velocity": 1,
      "hand": "right"
    },
    {
      "midi": 59,
      "time": 51.389,
      "duration": 0.278,
      "velocity": 1,
      "hand": "left"
    },
    {
      "midi": 71,
      "time": 51.666,
      "duration": 0.278,
      "velocity": 1,
      "hand": "right"
    },
    {
      "midi": 74,
      "time": 51.666,
      "duration": 0.556,
      "velocity": 1,
      "hand": "right"
    },
    {
      "midi": 78,
      "time": 51.666,
      "duration": 0.556,
      "velocity": 1,
      "hand": "right"
    },
    {
      "midi": 70,
      "time": 51.944,
      "duration": 0.278,
      "velocity": 1,
      "hand": "right"
    },
    {
      "midi": 62,
      "time": 52.222,
      "duration": 0.278,
      "velocity": 1,
      "hand": "right"
    },
    {
      "midi": 73,
      "time": 52.222,
      "duration": 0.556,
      "velocity": 1,
      "hand": "right"
    },
    {
      "midi": 76,
      "time": 52.222,
      "duration": 0.556,
      "velocity": 1,
      "hand": "right"
    },
    {
      "midi": 79,
      "time": 52.222,
      "duration": 0.556,
      "velocity": 1,
      "hand": "right"
    },
    {
      "midi": 71,
      "time": 52.5,
      "duration": 0.278,
      "velocity": 1,
      "hand": "right"
    },
    {
      "midi": 70,
      "time": 52.778,
      "duration": 0.278,
      "velocity": 1,
      "hand": "right"
    },
    {
      "midi": 74,
      "time": 52.778,
      "duration": 0.278,
      "velocity": 1,
      "hand": "right"
    },
    {
      "midi": 78,
      "time": 52.778,
      "duration": 0.278,
      "velocity": 1,
      "hand": "right"
    },
    {
      "midi": 62,
      "time": 53.055,
      "duration": 0.278,
      "velocity": 1,
      "hand": "right"
    },
    {
      "midi": 70,
      "time": 53.333,
      "duration": 0.278,
      "velocity": 1,
      "hand": "right"
    },
    {
      "midi": 74,
      "time": 53.333,
      "duration": 0.541,
      "velocity": 1,
      "hand": "right"
    },
    {
      "midi": 78,
      "time": 53.333,
      "duration": 0.541,
      "velocity": 1,
      "hand": "right"
    },
    {
      "midi": 62,
      "time": 53.611,
      "duration": 0.278,
      "velocity": 1,
      "hand": "right"
    },
    {
      "midi": 70,
      "time": 53.889,
      "duration": 0.278,
      "velocity": 1,
      "hand": "right"
    },
    {
      "midi": 74,
      "time": 53.889,
      "duration": 0.54,
      "velocity": 1,
      "hand": "right"
    },
    {
      "midi": 78,
      "time": 53.889,
      "duration": 0.54,
      "velocity": 1,
      "hand": "right"
    },
    {
      "midi": 62,
      "time": 54.166,
      "duration": 0.278,
      "velocity": 1,
      "hand": "right"
    },
    {
      "midi": 70,
      "time": 54.444,
      "duration": 0.278,
      "velocity": 1,
      "hand": "right"
    },
    {
      "midi": 74,
      "time": 54.444,
      "duration": 0.556,
      "velocity": 1,
      "hand": "right"
    },
    {
      "midi": 78,
      "time": 54.444,
      "duration": 0.541,
      "velocity": 1,
      "hand": "right"
    },
    {
      "midi": 62,
      "time": 54.722,
      "duration": 0.278,
      "velocity": 1,
      "hand": "right"
    },
    {
      "midi": 70,
      "time": 55,
      "duration": 0.278,
      "velocity": 1,
      "hand": "right"
    },
    {
      "midi": 76,
      "time": 55,
      "duration": 0.54,
      "velocity": 1,
      "hand": "right"
    },
    {
      "midi": 78,
      "time": 55,
      "duration": 0.54,
      "velocity": 1,
      "hand": "right"
    },
    {
      "midi": 61,
      "time": 55.278,
      "duration": 0.278,
      "velocity": 1,
      "hand": "right"
    },
    {
      "midi": 70,
      "time": 55.555,
      "duration": 0.278,
      "velocity": 1,
      "hand": "right"
    },
    {
      "midi": 76,
      "time": 55.555,
      "duration": 0.541,
      "velocity": 1,
      "hand": "right"
    },
    {
      "midi": 78,
      "time": 55.555,
      "duration": 0.541,
      "velocity": 1,
      "hand": "right"
    },
    {
      "midi": 61,
      "time": 55.833,
      "duration": 0.278,
      "velocity": 1,
      "hand": "right"
    },
    {
      "midi": 70,
      "time": 56.111,
      "duration": 0.278,
      "velocity": 1,
      "hand": "right"
    },
    {
      "midi": 76,
      "time": 56.111,
      "duration": 0.54,
      "velocity": 1,
      "hand": "right"
    },
    {
      "midi": 78,
      "time": 56.111,
      "duration": 0.54,
      "velocity": 1,
      "hand": "right"
    },
    {
      "midi": 61,
      "time": 56.389,
      "duration": 0.262,
      "velocity": 1,
      "hand": "right"
    },
    {
      "midi": 61,
      "time": 56.666,
      "duration": 0.278,
      "velocity": 1,
      "hand": "right"
    },
    {
      "midi": 70,
      "time": 56.666,
      "duration": 0.541,
      "velocity": 1,
      "hand": "right"
    },
    {
      "midi": 76,
      "time": 56.666,
      "duration": 0.541,
      "velocity": 1,
      "hand": "right"
    },
    {
      "midi": 78,
      "time": 56.666,
      "duration": 0.541,
      "velocity": 1,
      "hand": "right"
    },
    {
      "midi": 54,
      "time": 56.944,
      "duration": 0.278,
      "velocity": 1,
      "hand": "left"
    },
    {
      "midi": 61,
      "time": 57.222,
      "duration": 0.278,
      "velocity": 1,
      "hand": "right"
    },
    {
      "midi": 70,
      "time": 57.222,
      "duration": 0.541,
      "velocity": 1,
      "hand": "right"
    },
    {
      "midi": 76,
      "time": 57.222,
      "duration": 0.541,
      "velocity": 1,
      "hand": "right"
    },
    {
      "midi": 78,
      "time": 57.222,
      "duration": 0.541,
      "velocity": 1,
      "hand": "right"
    },
    {
      "midi": 54,
      "time": 57.5,
      "duration": 0.278,
      "velocity": 1,
      "hand": "left"
    },
    {
      "midi": 61,
      "time": 57.778,
      "duration": 0.278,
      "velocity": 1,
      "hand": "right"
    },
    {
      "midi": 70,
      "time": 57.778,
      "duration": 0.556,
      "velocity": 1,
      "hand": "right"
    },
    {
      "midi": 76,
      "time": 57.778,
      "duration": 0.556,
      "velocity": 1,
      "hand": "right"
    },
    {
      "midi": 78,
      "time": 57.778,
      "duration": 0.556,
      "velocity": 1,
      "hand": "right"
    },
    {
      "midi": 54,
      "time": 58.055,
      "duration": 0.278,
      "velocity": 1,
      "hand": "left"
    },
    {
      "midi": 49,
      "time": 58.333,
      "duration": 0.278,
      "velocity": 1,
      "hand": "left"
    },
    {
      "midi": 58,
      "time": 58.333,
      "duration": 0.541,
      "velocity": 1,
      "hand": "left"
    },
    {
      "midi": 64,
      "time": 58.333,
      "duration": 0.541,
      "velocity": 1,
      "hand": "right"
    },
    {
      "midi": 66,
      "time": 58.333,
      "duration": 0.541,
      "velocity": 1,
      "hand": "right"
    },
    {
      "midi": 42,
      "time": 58.611,
      "duration": 0.278,
      "velocity": 1,
      "hand": "left"
    },
    {
      "midi": 49,
      "time": 58.889,
      "duration": 0.278,
      "velocity": 1,
      "hand": "left"
    },
    {
      "midi": 58,
      "time": 58.889,
      "duration": 0.54,
      "velocity": 1,
      "hand": "left"
    },
    {
      "midi": 64,
      "time": 58.889,
      "duration": 0.54,
      "velocity": 1,
      "hand": "right"
    },
    {
      "midi": 66,
      "time": 58.889,
      "duration": 0.54,
      "velocity": 1,
      "hand": "right"
    },
    {
      "midi": 42,
      "time": 59.166,
      "duration": 0.278,
      "velocity": 1,
      "hand": "left"
    },
    {
      "midi": 49,
      "time": 59.444,
      "duration": 0.278,
      "velocity": 1,
      "hand": "left"
    },
    {
      "midi": 58,
      "time": 59.444,
      "duration": 0.556,
      "velocity": 1,
      "hand": "left"
    },
    {
      "midi": 64,
      "time": 59.444,
      "duration": 0.556,
      "velocity": 1,
      "hand": "right"
    },
    {
      "midi": 66,
      "time": 59.444,
      "duration": 0.541,
      "velocity": 1,
      "hand": "right"
    },
    {
      "midi": 42,
      "time": 59.722,
      "duration": 0.278,
      "velocity": 1,
      "hand": "left"
    },
    {
      "midi": 62,
      "time": 60,
      "duration": 0.278,
      "velocity": 1,
      "hand": "right"
    },
    {
      "midi": 66,
      "time": 60,
      "duration": 0.278,
      "velocity": 1,
      "hand": "right"
    },
    {
      "midi": 71,
      "time": 60,
      "duration": 0.278,
      "velocity": 1,
      "hand": "right"
    },
    {
      "midi": 61,
      "time": 60.278,
      "duration": 0.278,
      "velocity": 1,
      "hand": "right"
    },
    {
      "midi": 65,
      "time": 60.278,
      "duration": 0.278,
      "velocity": 1,
      "hand": "right"
    },
    {
      "midi": 62,
      "time": 60.555,
      "duration": 0.556,
      "velocity": 1,
      "hand": "right"
    },
    {
      "midi": 66,
      "time": 60.555,
      "duration": 0.556,
      "velocity": 1,
      "hand": "right"
    },
    {
      "midi": 71,
      "time": 60.555,
      "duration": 0.556,
      "velocity": 1,
      "hand": "right"
    },
    {
      "midi": 47,
      "time": 60.833,
      "duration": 0.278,
      "velocity": 1,
      "hand": "left"
    },
    {
      "midi": 61,
      "time": 61.111,
      "duration": 0.278,
      "velocity": 1,
      "hand": "right"
    },
    {
      "midi": 64,
      "time": 61.111,
      "duration": 0.278,
      "velocity": 1,
      "hand": "right"
    },
    {
      "midi": 70,
      "time": 61.111,
      "duration": 0.278,
      "velocity": 1,
      "hand": "right"
    },
    {
      "midi": 47,
      "time": 61.389,
      "duration": 0.278,
      "velocity": 1,
      "hand": "left"
    },
    {
      "midi": 59,
      "time": 61.666,
      "duration": 0.278,
      "velocity": 1,
      "hand": "left"
    },
    {
      "midi": 62,
      "time": 61.666,
      "duration": 0.278,
      "velocity": 1,
      "hand": "right"
    },
    {
      "midi": 67,
      "time": 61.666,
      "duration": 0.278,
      "velocity": 1,
      "hand": "right"
    },
    {
      "midi": 58,
      "time": 61.944,
      "duration": 0.278,
      "velocity": 1,
      "hand": "left"
    },
    {
      "midi": 61,
      "time": 61.944,
      "duration": 0.278,
      "velocity": 1,
      "hand": "right"
    },
    {
      "midi": 66,
      "time": 61.944,
      "duration": 0.278,
      "velocity": 1,
      "hand": "right"
    },
    {
      "midi": 59,
      "time": 62.222,
      "duration": 0.556,
      "velocity": 1,
      "hand": "left"
    },
    {
      "midi": 62,
      "time": 62.222,
      "duration": 0.556,
      "velocity": 1,
      "hand": "right"
    },
    {
      "midi": 67,
      "time": 62.222,
      "duration": 0.556,
      "velocity": 1,
      "hand": "right"
    },
    {
      "midi": 47,
      "time": 62.5,
      "duration": 0.278,
      "velocity": 1,
      "hand": "left"
    },
    {
      "midi": 58,
      "time": 62.778,
      "duration": 0.278,
      "velocity": 1,
      "hand": "left"
    },
    {
      "midi": 61,
      "time": 62.778,
      "duration": 0.278,
      "velocity": 1,
      "hand": "right"
    },
    {
      "midi": 66,
      "time": 62.778,
      "duration": 0.278,
      "velocity": 1,
      "hand": "right"
    },
    {
      "midi": 47,
      "time": 63.055,
      "duration": 0.278,
      "velocity": 1,
      "hand": "left"
    },
    {
      "midi": 57,
      "time": 63.333,
      "duration": 0.278,
      "velocity": 1,
      "hand": "left"
    },
    {
      "midi": 60,
      "time": 63.333,
      "duration": 0.278,
      "velocity": 1,
      "hand": "right"
    },
    {
      "midi": 66,
      "time": 63.333,
      "duration": 0.278,
      "velocity": 1,
      "hand": "right"
    },
    {
      "midi": 56,
      "time": 63.611,
      "duration": 0.278,
      "velocity": 1,
      "hand": "left"
    },
    {
      "midi": 59,
      "time": 63.611,
      "duration": 0.278,
      "velocity": 1,
      "hand": "left"
    },
    {
      "midi": 57,
      "time": 63.889,
      "duration": 0.556,
      "velocity": 1,
      "hand": "left"
    },
    {
      "midi": 60,
      "time": 63.889,
      "duration": 0.556,
      "velocity": 1,
      "hand": "right"
    },
    {
      "midi": 66,
      "time": 63.889,
      "duration": 0.556,
      "velocity": 1,
      "hand": "right"
    },
    {
      "midi": 47,
      "time": 64.166,
      "duration": 0.278,
      "velocity": 1,
      "hand": "left"
    },
    {
      "midi": 56,
      "time": 64.444,
      "duration": 0.278,
      "velocity": 1,
      "hand": "left"
    },
    {
      "midi": 59,
      "time": 64.444,
      "duration": 0.278,
      "velocity": 1,
      "hand": "left"
    },
    {
      "midi": 64,
      "time": 64.444,
      "duration": 0.278,
      "velocity": 1,
      "hand": "right"
    },
    {
      "midi": 47,
      "time": 64.722,
      "duration": 0.278,
      "velocity": 1,
      "hand": "left"
    },
    {
      "midi": 55,
      "time": 65,
      "duration": 0.278,
      "velocity": 1,
      "hand": "left"
    },
    {
      "midi": 58,
      "time": 65,
      "duration": 0.278,
      "velocity": 1,
      "hand": "left"
    },
    {
      "midi": 64,
      "time": 65,
      "duration": 0.278,
      "velocity": 1,
      "hand": "right"
    },
    {
      "midi": 47,
      "time": 65.278,
      "duration": 0.278,
      "velocity": 1,
      "hand": "left"
    },
    {
      "midi": 54,
      "time": 65.555,
      "duration": 0.278,
      "velocity": 1,
      "hand": "left"
    },
    {
      "midi": 58,
      "time": 65.555,
      "duration": 0.278,
      "velocity": 1,
      "hand": "left"
    },
    {
      "midi": 62,
      "time": 65.555,
      "duration": 0.278,
      "velocity": 1,
      "hand": "right"
    },
    {
      "midi": 47,
      "time": 65.833,
      "duration": 0.278,
      "velocity": 1,
      "hand": "left"
    },
    {
      "midi": 52,
      "time": 66.111,
      "duration": 0.278,
      "velocity": 1,
      "hand": "left"
    },
    {
      "midi": 58,
      "time": 66.111,
      "duration": 0.278,
      "velocity": 1,
      "hand": "left"
    },
    {
      "midi": 61,
      "time": 66.111,
      "duration": 0.278,
      "velocity": 1,
      "hand": "right"
    },
    {
      "midi": 47,
      "time": 66.389,
      "duration": 0.278,
      "velocity": 1,
      "hand": "left"
    },
    {
      "midi": 50,
      "time": 66.389,
      "duration": 0.278,
      "velocity": 1,
      "hand": "left"
    },
    {
      "midi": 53,
      "time": 66.666,
      "duration": 0.278,
      "velocity": 1,
      "hand": "left"
    },
    {
      "midi": 54,
      "time": 66.944,
      "duration": 0.278,
      "velocity": 1,
      "hand": "left"
    },
    {
      "midi": 55,
      "time": 67.222,
      "duration": 0.833,
      "velocity": 1,
      "hand": "left"
    },
    {
      "midi": 62,
      "time": 67.5,
      "duration": 0.278,
      "velocity": 1,
      "hand": "right"
    },
    {
      "midi": 71,
      "time": 67.5,
      "duration": 0.263,
      "velocity": 1,
      "hand": "right"
    },
    {
      "midi": 74,
      "time": 67.5,
      "duration": 0.263,
      "velocity": 1,
      "hand": "right"
    },
    {
      "midi": 64,
      "time": 67.778,
      "duration": 0.278,
      "velocity": 1,
      "hand": "right"
    },
    {
      "midi": 71,
      "time": 67.778,
      "duration": 0.262,
      "velocity": 1,
      "hand": "right"
    },
    {
      "midi": 74,
      "time": 67.778,
      "duration": 0.262,
      "velocity": 1,
      "hand": "right"
    },
    {
      "midi": 43,
      "time": 68.055,
      "duration": 0.278,
      "velocity": 1,
      "hand": "left"
    },
    {
      "midi": 65,
      "time": 68.055,
      "duration": 0.278,
      "velocity": 1,
      "hand": "right"
    },
    {
      "midi": 71,
      "time": 68.055,
      "duration": 0.278,
      "velocity": 1,
      "hand": "right"
    },
    {
      "midi": 74,
      "time": 68.055,
      "duration": 0.278,
      "velocity": 1,
      "hand": "right"
    },
    {
      "midi": 45,
      "time": 68.333,
      "duration": 0.278,
      "velocity": 1,
      "hand": "left"
    },
    {
      "midi": 43,
      "time": 68.611,
      "duration": 0.278,
      "velocity": 1,
      "hand": "left"
    },
    {
      "midi": 42,
      "time": 68.889,
      "duration": 0.833,
      "velocity": 1,
      "hand": "left"
    },
    {
      "midi": 56,
      "time": 69.166,
      "duration": 0.278,
      "velocity": 1,
      "hand": "left"
    },
    {
      "midi": 59,
      "time": 69.166,
      "duration": 0.278,
      "velocity": 1,
      "hand": "left"
    },
    {
      "midi": 66,
      "time": 69.166,
      "duration": 0.278,
      "velocity": 1,
      "hand": "right"
    },
    {
      "midi": 58,
      "time": 69.444,
      "duration": 0.278,
      "velocity": 1,
      "hand": "left"
    },
    {
      "midi": 61,
      "time": 69.444,
      "duration": 0.278,
      "velocity": 1,
      "hand": "right"
    },
    {
      "midi": 64,
      "time": 69.444,
      "duration": 0.278,
      "velocity": 1,
      "hand": "right"
    },
    {
      "midi": 47,
      "time": 69.722,
      "duration": 0.278,
      "velocity": 1,
      "hand": "left"
    },
    {
      "midi": 59,
      "time": 69.722,
      "duration": 0.278,
      "velocity": 1,
      "hand": "left"
    },
    {
      "midi": 62,
      "time": 69.722,
      "duration": 0.278,
      "velocity": 1,
      "hand": "right"
    },
    {
      "midi": 53,
      "time": 70,
      "duration": 0.278,
      "velocity": 1,
      "hand": "left"
    },
    {
      "midi": 54,
      "time": 70.278,
      "duration": 0.278,
      "velocity": 1,
      "hand": "left"
    },
    {
      "midi": 55,
      "time": 70.555,
      "duration": 0.833,
      "velocity": 1,
      "hand": "left"
    },
    {
      "midi": 62,
      "time": 70.833,
      "duration": 0.278,
      "velocity": 1,
      "hand": "right"
    },
    {
      "midi": 71,
      "time": 70.833,
      "duration": 0.263,
      "velocity": 1,
      "hand": "right"
    },
    {
      "midi": 74,
      "time": 70.833,
      "duration": 0.263,
      "velocity": 1,
      "hand": "right"
    },
    {
      "midi": 64,
      "time": 71.111,
      "duration": 0.278,
      "velocity": 1,
      "hand": "right"
    },
    {
      "midi": 71,
      "time": 71.111,
      "duration": 0.263,
      "velocity": 1,
      "hand": "right"
    },
    {
      "midi": 74,
      "time": 71.111,
      "duration": 0.263,
      "velocity": 1,
      "hand": "right"
    },
    {
      "midi": 43,
      "time": 71.389,
      "duration": 0.278,
      "velocity": 1,
      "hand": "left"
    },
    {
      "midi": 65,
      "time": 71.389,
      "duration": 0.278,
      "velocity": 1,
      "hand": "right"
    },
    {
      "midi": 71,
      "time": 71.389,
      "duration": 0.278,
      "velocity": 1,
      "hand": "right"
    },
    {
      "midi": 74,
      "time": 71.389,
      "duration": 0.278,
      "velocity": 1,
      "hand": "right"
    },
    {
      "midi": 45,
      "time": 71.666,
      "duration": 0.278,
      "velocity": 1,
      "hand": "left"
    },
    {
      "midi": 43,
      "time": 71.944,
      "duration": 0.278,
      "velocity": 1,
      "hand": "left"
    },
    {
      "midi": 42,
      "time": 72.222,
      "duration": 0.833,
      "velocity": 1,
      "hand": "left"
    },
    {
      "midi": 56,
      "time": 72.5,
      "duration": 0.278,
      "velocity": 1,
      "hand": "left"
    },
    {
      "midi": 59,
      "time": 72.5,
      "duration": 0.278,
      "velocity": 1,
      "hand": "left"
    },
    {
      "midi": 66,
      "time": 72.5,
      "duration": 0.278,
      "velocity": 1,
      "hand": "right"
    },
    {
      "midi": 58,
      "time": 72.778,
      "duration": 0.278,
      "velocity": 1,
      "hand": "left"
    },
    {
      "midi": 61,
      "time": 72.778,
      "duration": 0.278,
      "velocity": 1,
      "hand": "right"
    },
    {
      "midi": 64,
      "time": 72.778,
      "duration": 0.278,
      "velocity": 1,
      "hand": "right"
    },
    {
      "midi": 47,
      "time": 73.055,
      "duration": 0.278,
      "velocity": 1,
      "hand": "left"
    },
    {
      "midi": 59,
      "time": 73.055,
      "duration": 0.278,
      "velocity": 1,
      "hand": "left"
    },
    {
      "midi": 62,
      "time": 73.055,
      "duration": 0.278,
      "velocity": 1,
      "hand": "right"
    },
    {
      "midi": 52,
      "time": 73.333,
      "duration": 0.278,
      "velocity": 1,
      "hand": "left"
    },
    {
      "midi": 50,
      "time": 73.611,
      "duration": 0.278,
      "velocity": 1,
      "hand": "left"
    },
    {
      "midi": 49,
      "time": 73.889,
      "duration": 0.833,
      "velocity": 1,
      "hand": "left"
    },
    {
      "midi": 57,
      "time": 74.166,
      "duration": 0.263,
      "velocity": 1,
      "hand": "left"
    },
    {
      "midi": 64,
      "time": 74.166,
      "duration": 0.263,
      "velocity": 1,
      "hand": "right"
    },
    {
      "midi": 69,
      "time": 74.166,
      "duration": 0.278,
      "velocity": 1,
      "hand": "right"
    },
    {
      "midi": 57,
      "time": 74.444,
      "duration": 0.263,
      "velocity": 1,
      "hand": "left"
    },
    {
      "midi": 64,
      "time": 74.444,
      "duration": 0.278,
      "velocity": 1,
      "hand": "right"
    },
    {
      "midi": 67,
      "time": 74.444,
      "duration": 0.278,
      "velocity": 1,
      "hand": "right"
    },
    {
      "midi": 50,
      "time": 74.722,
      "duration": 0.278,
      "velocity": 1,
      "hand": "left"
    },
    {
      "midi": 57,
      "time": 74.722,
      "duration": 0.278,
      "velocity": 1,
      "hand": "left"
    },
    {
      "midi": 62,
      "time": 74.722,
      "duration": 0.278,
      "velocity": 1,
      "hand": "right"
    },
    {
      "midi": 66,
      "time": 74.722,
      "duration": 0.278,
      "velocity": 1,
      "hand": "right"
    },
    {
      "midi": 56,
      "time": 75,
      "duration": 0.278,
      "velocity": 1,
      "hand": "left"
    },
    {
      "midi": 54,
      "time": 75.278,
      "duration": 0.278,
      "velocity": 1,
      "hand": "left"
    },
    {
      "midi": 53,
      "time": 75.555,
      "duration": 0.833,
      "velocity": 1,
      "hand": "left"
    },
    {
      "midi": 61,
      "time": 75.833,
      "duration": 0.263,
      "velocity": 1,
      "hand": "right"
    },
    {
      "midi": 68,
      "time": 75.833,
      "duration": 0.263,
      "velocity": 1,
      "hand": "right"
    },
    {
      "midi": 73,
      "time": 75.833,
      "duration": 0.278,
      "velocity": 1,
      "hand": "right"
    },
    {
      "midi": 61,
      "time": 76.111,
      "duration": 0.263,
      "velocity": 1,
      "hand": "right"
    },
    {
      "midi": 68,
      "time": 76.111,
      "duration": 0.278,
      "velocity": 1,
      "hand": "right"
    },
    {
      "midi": 71,
      "time": 76.111,
      "duration": 0.278,
      "velocity": 1,
      "hand": "right"
    },
    {
      "midi": 54,
      "time": 76.389,
      "duration": 0.278,
      "velocity": 1,
      "hand": "left"
    },
    {
      "midi": 61,
      "time": 76.389,
      "duration": 0.278,
      "velocity": 1,
      "hand": "right"
    },
    {
      "midi": 66,
      "time": 76.389,
      "duration": 0.262,
      "velocity": 1,
      "hand": "right"
    },
    {
      "midi": 70,
      "time": 76.389,
      "duration": 0.278,
      "velocity": 1,
      "hand": "right"
    },
    {
      "midi": 58,
      "time": 76.666,
      "duration": 0.556,
      "velocity": 1,
      "hand": "left"
    },
    {
      "midi": 66,
      "time": 76.666,
      "duration": 0.541,
      "velocity": 1,
      "hand": "right"
    },
    {
      "midi": 73,
      "time": 76.666,
      "duration": 0.556,
      "velocity": 1,
      "hand": "right"
    },
    {
      "midi": 78,
      "time": 76.666,
      "duration": 0.278,
      "velocity": 1,
      "hand": "right"
    },
    {
      "midi": 76,
      "time": 76.944,
      "duration": 0.278,
      "velocity": 1,
      "hand": "right"
    },
    {
      "midi": 56,
      "time": 77.222,
      "duration": 0.278,
      "velocity": 1,
      "hand": "left"
    },
    {
      "midi": 66,
      "time": 77.222,
      "duration": 0.263,
      "velocity": 1,
      "hand": "right"
    },
    {
      "midi": 71,
      "time": 77.222,
      "duration": 0.278,
      "velocity": 1,
      "hand": "right"
    },
    {
      "midi": 74,
      "time": 77.222,
      "duration": 0.278,
      "velocity": 1,
      "hand": "right"
    },
    {
      "midi": 58,
      "time": 77.5,
      "duration": 0.556,
      "velocity": 1,
      "hand": "left"
    },
    {
      "midi": 66,
      "time": 77.5,
      "duration": 0.54,
      "velocity": 1,
      "hand": "right"
    },
    {
      "midi": 73,
      "time": 77.5,
      "duration": 0.556,
      "velocity": 1,
      "hand": "right"
    },
    {
      "midi": 78,
      "time": 77.5,
      "duration": 0.278,
      "velocity": 1,
      "hand": "right"
    },
    {
      "midi": 76,
      "time": 77.778,
      "duration": 0.278,
      "velocity": 1,
      "hand": "right"
    },
    {
      "midi": 56,
      "time": 78.055,
      "duration": 0.278,
      "velocity": 1,
      "hand": "left"
    },
    {
      "midi": 66,
      "time": 78.055,
      "duration": 0.263,
      "velocity": 1,
      "hand": "right"
    },
    {
      "midi": 71,
      "time": 78.055,
      "duration": 0.278,
      "velocity": 1,
      "hand": "right"
    },
    {
      "midi": 74,
      "time": 78.055,
      "duration": 0.278,
      "velocity": 1,
      "hand": "right"
    },
    {
      "midi": 58,
      "time": 78.333,
      "duration": 0.556,
      "velocity": 1,
      "hand": "left"
    },
    {
      "midi": 66,
      "time": 78.333,
      "duration": 0.541,
      "velocity": 1,
      "hand": "right"
    },
    {
      "midi": 73,
      "time": 78.333,
      "duration": 0.556,
      "velocity": 1,
      "hand": "right"
    },
    {
      "midi": 78,
      "time": 78.333,
      "duration": 0.278,
      "velocity": 1,
      "hand": "right"
    },
    {
      "midi": 76,
      "time": 78.611,
      "duration": 0.278,
      "velocity": 1,
      "hand": "right"
    },
    {
      "midi": 56,
      "time": 78.889,
      "duration": 0.278,
      "velocity": 1,
      "hand": "left"
    },
    {
      "midi": 66,
      "time": 78.889,
      "duration": 0.262,
      "velocity": 1,
      "hand": "right"
    },
    {
      "midi": 71,
      "time": 78.889,
      "duration": 0.278,
      "velocity": 1,
      "hand": "right"
    },
    {
      "midi": 74,
      "time": 78.889,
      "duration": 0.278,
      "velocity": 1,
      "hand": "right"
    },
    {
      "midi": 58,
      "time": 79.166,
      "duration": 0.278,
      "velocity": 1,
      "hand": "left"
    },
    {
      "midi": 66,
      "time": 79.166,
      "duration": 0.263,
      "velocity": 1,
      "hand": "right"
    },
    {
      "midi": 73,
      "time": 79.166,
      "duration": 0.278,
      "velocity": 1,
      "hand": "right"
    },
    {
      "midi": 78,
      "time": 79.166,
      "duration": 0.278,
      "velocity": 1,
      "hand": "right"
    },
    {
      "midi": 59,
      "time": 79.444,
      "duration": 0.263,
      "velocity": 1,
      "hand": "left"
    },
    {
      "midi": 66,
      "time": 79.444,
      "duration": 0.278,
      "velocity": 1,
      "hand": "right"
    },
    {
      "midi": 71,
      "time": 79.444,
      "duration": 0.263,
      "velocity": 1,
      "hand": "right"
    },
    {
      "midi": 74,
      "time": 79.444,
      "duration": 0.278,
      "velocity": 1,
      "hand": "right"
    },
    {
      "midi": 52,
      "time": 79.722,
      "duration": 0.818,
      "velocity": 1,
      "hand": "left"
    },
    {
      "midi": 59,
      "time": 79.722,
      "duration": 0.833,
      "velocity": 1,
      "hand": "left"
    },
    {
      "midi": 67,
      "time": 79.722,
      "duration": 0.833,
      "velocity": 1,
      "hand": "right"
    },
    {
      "midi": 71,
      "time": 79.722,
      "duration": 0.833,
      "velocity": 1,
      "hand": "right"
    },
    {
      "midi": 76,
      "time": 79.722,
      "duration": 0.833,
      "velocity": 1,
      "hand": "right"
    },
    {
      "midi": 79,
      "time": 79.722,
      "duration": 0.833,
      "velocity": 1,
      "hand": "right"
    },
    {
      "midi": 52,
      "time": 80.555,
      "duration": 0.556,
      "velocity": 1,
      "hand": "left"
    },
    {
      "midi": 55,
      "time": 80.694,
      "duration": 0.139,
      "velocity": 1,
      "hand": "left"
    },
    {
      "midi": 59,
      "time": 80.833,
      "duration": 0.139,
      "velocity": 1,
      "hand": "left"
    },
    {
      "midi": 61,
      "time": 80.972,
      "duration": 0.139,
      "velocity": 1,
      "hand": "right"
    },
    {
      "midi": 64,
      "time": 81.111,
      "duration": 0.139,
      "velocity": 1,
      "hand": "right"
    },
    {
      "midi": 67,
      "time": 81.25,
      "duration": 0.139,
      "velocity": 1,
      "hand": "right"
    },
    {
      "midi": 76,
      "time": 81.389,
      "duration": 0.139,
      "velocity": 1,
      "hand": "right"
    },
    {
      "midi": 73,
      "time": 81.528,
      "duration": 0.139,
      "velocity": 1,
      "hand": "right"
    },
    {
      "midi": 71,
      "time": 81.666,
      "duration": 0.139,
      "velocity": 1,
      "hand": "right"
    },
    {
      "midi": 67,
      "time": 81.805,
      "duration": 0.139,
      "velocity": 1,
      "hand": "right"
    },
    {
      "midi": 64,
      "time": 81.944,
      "duration": 0.139,
      "velocity": 1,
      "hand": "right"
    },
    {
      "midi": 61,
      "time": 82.083,
      "duration": 0.139,
      "velocity": 1,
      "hand": "right"
    },
    {
      "midi": 59,
      "time": 82.222,
      "duration": 0.139,
      "velocity": 1,
      "hand": "left"
    },
    {
      "midi": 55,
      "time": 82.361,
      "duration": 0.139,
      "velocity": 1,
      "hand": "left"
    },
    {
      "midi": 52,
      "time": 82.5,
      "duration": 0.139,
      "velocity": 1,
      "hand": "left"
    },
    {
      "midi": 49,
      "time": 82.639,
      "duration": 0.139,
      "velocity": 1,
      "hand": "left"
    },
    {
      "midi": 47,
      "time": 82.778,
      "duration": 0.139,
      "velocity": 1,
      "hand": "left"
    },
    {
      "midi": 43,
      "time": 82.916,
      "duration": 0.139,
      "velocity": 1,
      "hand": "left"
    },
    {
      "midi": 40,
      "time": 83.055,
      "duration": 0.278,
      "velocity": 1,
      "hand": "left"
    },
    {
      "midi": 49,
      "time": 83.333,
      "duration": 0.278,
      "velocity": 1,
      "hand": "left"
    },
    {
      "midi": 55,
      "time": 83.611,
      "duration": 0.278,
      "velocity": 1,
      "hand": "left"
    },
    {
      "midi": 59,
      "time": 83.611,
      "duration": 0.278,
      "velocity": 1,
      "hand": "left"
    },
    {
      "midi": 64,
      "time": 83.611,
      "duration": 0.278,
      "velocity": 1,
      "hand": "right"
    },
    {
      "midi": 52,
      "time": 83.889,
      "duration": 0.556,
      "velocity": 1,
      "hand": "left"
    },
    {
      "midi": 59,
      "time": 84.028,
      "duration": 0.139,
      "velocity": 1,
      "hand": "left"
    },
    {
      "midi": 61,
      "time": 84.166,
      "duration": 0.139,
      "velocity": 1,
      "hand": "right"
    },
    {
      "midi": 64,
      "time": 84.305,
      "duration": 0.139,
      "velocity": 1,
      "hand": "right"
    },
    {
      "midi": 67,
      "time": 84.444,
      "duration": 0.139,
      "velocity": 1,
      "hand": "right"
    },
    {
      "midi": 71,
      "time": 84.583,
      "duration": 0.139,
      "velocity": 1,
      "hand": "right"
    },
    {
      "midi": 79,
      "time": 84.722,
      "duration": 0.139,
      "velocity": 1,
      "hand": "right"
    },
    {
      "midi": 76,
      "time": 84.861,
      "duration": 0.139,
      "velocity": 1,
      "hand": "right"
    },
    {
      "midi": 73,
      "time": 85,
      "duration": 0.139,
      "velocity": 1,
      "hand": "right"
    },
    {
      "midi": 71,
      "time": 85.139,
      "duration": 0.139,
      "velocity": 1,
      "hand": "right"
    },
    {
      "midi": 67,
      "time": 85.278,
      "duration": 0.139,
      "velocity": 1,
      "hand": "right"
    },
    {
      "midi": 64,
      "time": 85.416,
      "duration": 0.139,
      "velocity": 1,
      "hand": "right"
    },
    {
      "midi": 61,
      "time": 85.555,
      "duration": 0.139,
      "velocity": 1,
      "hand": "right"
    },
    {
      "midi": 59,
      "time": 85.694,
      "duration": 0.139,
      "velocity": 1,
      "hand": "left"
    },
    {
      "midi": 55,
      "time": 85.833,
      "duration": 0.139,
      "velocity": 1,
      "hand": "left"
    },
    {
      "midi": 52,
      "time": 85.972,
      "duration": 0.139,
      "velocity": 1,
      "hand": "left"
    },
    {
      "midi": 49,
      "time": 86.111,
      "duration": 0.139,
      "velocity": 1,
      "hand": "left"
    },
    {
      "midi": 47,
      "time": 86.25,
      "duration": 0.139,
      "velocity": 1,
      "hand": "left"
    },
    {
      "midi": 43,
      "time": 86.389,
      "duration": 0.278,
      "velocity": 1,
      "hand": "left"
    },
    {
      "midi": 49,
      "time": 86.666,
      "duration": 0.278,
      "velocity": 1,
      "hand": "left"
    },
    {
      "midi": 59,
      "time": 86.944,
      "duration": 0.278,
      "velocity": 1,
      "hand": "left"
    },
    {
      "midi": 64,
      "time": 86.944,
      "duration": 0.278,
      "velocity": 1,
      "hand": "right"
    },
    {
      "midi": 67,
      "time": 86.944,
      "duration": 0.278,
      "velocity": 1,
      "hand": "right"
    },
    {
      "midi": 71,
      "time": 86.944,
      "duration": 0.278,
      "velocity": 1,
      "hand": "right"
    },
    {
      "midi": 42,
      "time": 87.222,
      "duration": 0.556,
      "velocity": 1,
      "hand": "left"
    },
    {
      "midi": 47,
      "time": 87.361,
      "duration": 0.139,
      "velocity": 1,
      "hand": "left"
    },
    {
      "midi": 50,
      "time": 87.5,
      "duration": 0.139,
      "velocity": 1,
      "hand": "left"
    },
    {
      "midi": 54,
      "time": 87.639,
      "duration": 0.139,
      "velocity": 1,
      "hand": "left"
    },
    {
      "midi": 59,
      "time": 87.778,
      "duration": 0.139,
      "velocity": 1,
      "hand": "left"
    },
    {
      "midi": 62,
      "time": 87.916,
      "duration": 0.139,
      "velocity": 1,
      "hand": "right"
    },
    {
      "midi": 54,
      "time": 88.055,
      "duration": 0.139,
      "velocity": 1,
      "hand": "left"
    },
    {
      "midi": 66,
      "time": 88.055,
      "duration": 0.139,
      "velocity": 1,
      "hand": "right"
    },
    {
      "midi": 59,
      "time": 88.194,
      "duration": 0.139,
      "velocity": 1,
      "hand": "left"
    },
    {
      "midi": 71,
      "time": 88.194,
      "duration": 0.139,
      "velocity": 1,
      "hand": "right"
    },
    {
      "midi": 62,
      "time": 88.333,
      "duration": 0.139,
      "velocity": 1,
      "hand": "right"
    },
    {
      "midi": 74,
      "time": 88.333,
      "duration": 0.139,
      "velocity": 1,
      "hand": "right"
    },
    {
      "midi": 66,
      "time": 88.472,
      "duration": 0.139,
      "velocity": 1,
      "hand": "right"
    },
    {
      "midi": 78,
      "time": 88.472,
      "duration": 0.139,
      "velocity": 1,
      "hand": "right"
    },
    {
      "midi": 71,
      "time": 88.611,
      "duration": 0.139,
      "velocity": 1,
      "hand": "right"
    },
    {
      "midi": 83,
      "time": 88.611,
      "duration": 0.139,
      "velocity": 1,
      "hand": "right"
    },
    {
      "midi": 74,
      "time": 88.75,
      "duration": 0.139,
      "velocity": 1,
      "hand": "right"
    },
    {
      "midi": 78,
      "time": 88.889,
      "duration": 0.278,
      "velocity": 1,
      "hand": "right"
    },
    {
      "midi": 64,
      "time": 89.166,
      "duration": 0.278,
      "velocity": 1,
      "hand": "right"
    },
    {
      "midi": 76,
      "time": 89.166,
      "duration": 0.263,
      "velocity": 1,
      "hand": "right"
    },
    {
      "midi": 79,
      "time": 89.166,
      "duration": 0.278,
      "velocity": 1,
      "hand": "right"
    },
    {
      "midi": 61,
      "time": 89.444,
      "duration": 0.278,
      "velocity": 1,
      "hand": "right"
    },
    {
      "midi": 73,
      "time": 89.444,
      "duration": 0.278,
      "velocity": 1,
      "hand": "right"
    },
    {
      "midi": 76,
      "time": 89.444,
      "duration": 0.278,
      "velocity": 1,
      "hand": "right"
    },
    {
      "midi": 62,
      "time": 89.722,
      "duration": 0.278,
      "velocity": 1,
      "hand": "right"
    },
    {
      "midi": 74,
      "time": 89.722,
      "duration": 0.263,
      "velocity": 1,
      "hand": "right"
    },
    {
      "midi": 78,
      "time": 89.722,
      "duration": 0.278,
      "velocity": 1,
      "hand": "right"
    },
    {
      "midi": 59,
      "time": 90,
      "duration": 0.278,
      "velocity": 1,
      "hand": "left"
    },
    {
      "midi": 71,
      "time": 90,
      "duration": 0.278,
      "velocity": 1,
      "hand": "right"
    },
    {
      "midi": 74,
      "time": 90,
      "duration": 0.278,
      "velocity": 1,
      "hand": "right"
    },
    {
      "midi": 61,
      "time": 90.278,
      "duration": 0.278,
      "velocity": 1,
      "hand": "right"
    },
    {
      "midi": 73,
      "time": 90.278,
      "duration": 0.262,
      "velocity": 1,
      "hand": "right"
    },
    {
      "midi": 76,
      "time": 90.278,
      "duration": 0.278,
      "velocity": 1,
      "hand": "right"
    },
    {
      "midi": 58,
      "time": 90.555,
      "duration": 0.278,
      "velocity": 1,
      "hand": "left"
    },
    {
      "midi": 70,
      "time": 90.555,
      "duration": 0.278,
      "velocity": 1,
      "hand": "right"
    },
    {
      "midi": 73,
      "time": 90.555,
      "duration": 0.278,
      "velocity": 1,
      "hand": "right"
    },
    {
      "midi": 59,
      "time": 90.833,
      "duration": 0.278,
      "velocity": 1,
      "hand": "left"
    },
    {
      "midi": 71,
      "time": 90.833,
      "duration": 0.278,
      "velocity": 1,
      "hand": "right"
    },
    {
      "midi": 74,
      "time": 90.833,
      "duration": 0.278,
      "velocity": 1,
      "hand": "right"
    },
    {
      "midi": 54,
      "time": 91.111,
      "duration": 0.278,
      "velocity": 1,
      "hand": "left"
    },
    {
      "midi": 66,
      "time": 91.111,
      "duration": 0.278,
      "velocity": 1,
      "hand": "right"
    },
    {
      "midi": 70,
      "time": 91.111,
      "duration": 0.278,
      "velocity": 1,
      "hand": "right"
    },
    {
      "midi": 82,
      "time": 91.111,
      "duration": 0.278,
      "velocity": 1,
      "hand": "right"
    },
    {
      "midi": 55,
      "time": 91.389,
      "duration": 0.278,
      "velocity": 1,
      "hand": "left"
    },
    {
      "midi": 67,
      "time": 91.389,
      "duration": 0.278,
      "velocity": 1,
      "hand": "right"
    },
    {
      "midi": 71,
      "time": 91.389,
      "duration": 0.278,
      "velocity": 1,
      "hand": "right"
    },
    {
      "midi": 83,
      "time": 91.389,
      "duration": 0.278,
      "velocity": 1,
      "hand": "right"
    },
    {
      "midi": 50,
      "time": 91.666,
      "duration": 0.278,
      "velocity": 1,
      "hand": "left"
    },
    {
      "midi": 62,
      "time": 91.666,
      "duration": 0.278,
      "velocity": 1,
      "hand": "right"
    },
    {
      "midi": 66,
      "time": 91.666,
      "duration": 0.278,
      "velocity": 1,
      "hand": "right"
    },
    {
      "midi": 78,
      "time": 91.666,
      "duration": 0.278,
      "velocity": 1,
      "hand": "right"
    },
    {
      "midi": 52,
      "time": 91.944,
      "duration": 0.278,
      "velocity": 1,
      "hand": "left"
    },
    {
      "midi": 64,
      "time": 91.944,
      "duration": 0.263,
      "velocity": 1,
      "hand": "right"
    },
    {
      "midi": 67,
      "time": 91.944,
      "duration": 0.278,
      "velocity": 1,
      "hand": "right"
    },
    {
      "midi": 79,
      "time": 91.944,
      "duration": 0.278,
      "velocity": 1,
      "hand": "right"
    },
    {
      "midi": 49,
      "time": 92.222,
      "duration": 0.278,
      "velocity": 1,
      "hand": "left"
    },
    {
      "midi": 61,
      "time": 92.222,
      "duration": 0.278,
      "velocity": 1,
      "hand": "right"
    },
    {
      "midi": 64,
      "time": 92.222,
      "duration": 0.278,
      "velocity": 1,
      "hand": "right"
    },
    {
      "midi": 76,
      "time": 92.222,
      "duration": 0.278,
      "velocity": 1,
      "hand": "right"
    },
    {
      "midi": 50,
      "time": 92.5,
      "duration": 0.278,
      "velocity": 1,
      "hand": "left"
    },
    {
      "midi": 62,
      "time": 92.5,
      "duration": 0.263,
      "velocity": 1,
      "hand": "right"
    },
    {
      "midi": 66,
      "time": 92.5,
      "duration": 0.278,
      "velocity": 1,
      "hand": "right"
    },
    {
      "midi": 78,
      "time": 92.5,
      "duration": 0.278,
      "velocity": 1,
      "hand": "right"
    },
    {
      "midi": 47,
      "time": 92.778,
      "duration": 0.278,
      "velocity": 1,
      "hand": "left"
    },
    {
      "midi": 59,
      "time": 92.778,
      "duration": 0.278,
      "velocity": 1,
      "hand": "left"
    },
    {
      "midi": 62,
      "time": 92.778,
      "duration": 0.278,
      "velocity": 1,
      "hand": "right"
    },
    {
      "midi": 74,
      "time": 92.778,
      "duration": 0.278,
      "velocity": 1,
      "hand": "right"
    },
    {
      "midi": 49,
      "time": 93.055,
      "duration": 0.278,
      "velocity": 1,
      "hand": "left"
    },
    {
      "midi": 61,
      "time": 93.055,
      "duration": 0.263,
      "velocity": 1,
      "hand": "right"
    },
    {
      "midi": 64,
      "time": 93.055,
      "duration": 0.278,
      "velocity": 1,
      "hand": "right"
    },
    {
      "midi": 76,
      "time": 93.055,
      "duration": 0.278,
      "velocity": 1,
      "hand": "right"
    },
    {
      "midi": 46,
      "time": 93.333,
      "duration": 0.278,
      "velocity": 1,
      "hand": "left"
    },
    {
      "midi": 58,
      "time": 93.333,
      "duration": 0.278,
      "velocity": 1,
      "hand": "left"
    },
    {
      "midi": 61,
      "time": 93.333,
      "duration": 0.278,
      "velocity": 1,
      "hand": "right"
    },
    {
      "midi": 73,
      "time": 93.333,
      "duration": 0.278,
      "velocity": 1,
      "hand": "right"
    },
    {
      "midi": 47,
      "time": 93.611,
      "duration": 0.278,
      "velocity": 1,
      "hand": "left"
    },
    {
      "midi": 59,
      "time": 93.611,
      "duration": 0.278,
      "velocity": 1,
      "hand": "left"
    },
    {
      "midi": 62,
      "time": 93.611,
      "duration": 0.278,
      "velocity": 1,
      "hand": "right"
    },
    {
      "midi": 74,
      "time": 93.611,
      "duration": 0.278,
      "velocity": 1,
      "hand": "right"
    },
    {
      "midi": 42,
      "time": 93.889,
      "duration": 0.278,
      "velocity": 1,
      "hand": "left"
    },
    {
      "midi": 54,
      "time": 93.889,
      "duration": 0.278,
      "velocity": 1,
      "hand": "left"
    },
    {
      "midi": 70,
      "time": 93.889,
      "duration": 0.278,
      "velocity": 1,
      "hand": "right"
    },
    {
      "midi": 43,
      "time": 94.166,
      "duration": 0.278,
      "velocity": 1,
      "hand": "left"
    },
    {
      "midi": 55,
      "time": 94.166,
      "duration": 0.278,
      "velocity": 1,
      "hand": "left"
    },
    {
      "midi": 71,
      "time": 94.166,
      "duration": 0.278,
      "velocity": 1,
      "hand": "right"
    },
    {
      "midi": 38,
      "time": 94.444,
      "duration": 0.278,
      "velocity": 1,
      "hand": "left"
    },
    {
      "midi": 50,
      "time": 94.444,
      "duration": 0.278,
      "velocity": 1,
      "hand": "left"
    },
    {
      "midi": 66,
      "time": 94.444,
      "duration": 0.278,
      "velocity": 1,
      "hand": "right"
    },
    {
      "midi": 40,
      "time": 94.722,
      "duration": 0.556,
      "velocity": 1,
      "hand": "left"
    },
    {
      "midi": 52,
      "time": 94.722,
      "duration": 0.556,
      "velocity": 1,
      "hand": "left"
    },
    {
      "midi": 67,
      "time": 94.722,
      "duration": 0.556,
      "velocity": 1,
      "hand": "right"
    },
    {
      "midi": 42,
      "time": 95.278,
      "duration": 0.278,
      "velocity": 1,
      "hand": "left"
    },
    {
      "midi": 54,
      "time": 95.278,
      "duration": 0.278,
      "velocity": 1,
      "hand": "left"
    },
    {
      "midi": 61,
      "time": 95.278,
      "duration": 0.278,
      "velocity": 1,
      "hand": "right"
    },
    {
      "midi": 64,
      "time": 95.278,
      "duration": 0.278,
      "velocity": 1,
      "hand": "right"
    },
    {
      "midi": 70,
      "time": 95.278,
      "duration": 0.278,
      "velocity": 1,
      "hand": "right"
    },
    {
      "midi": 47,
      "time": 95.555,
      "duration": 0.278,
      "velocity": 1,
      "hand": "left"
    },
    {
      "midi": 62,
      "time": 95.555,
      "duration": 0.278,
      "velocity": 1,
      "hand": "right"
    },
    {
      "midi": 66,
      "time": 95.555,
      "duration": 0.278,
      "velocity": 1,
      "hand": "right"
    },
    {
      "midi": 71,
      "time": 95.555,
      "duration": 0.278,
      "velocity": 1,
      "hand": "right"
    },
    {
      "midi": 52,
      "time": 95.833,
      "duration": 0.278,
      "velocity": 1,
      "hand": "left"
    },
    {
      "midi": 54,
      "time": 96.111,
      "duration": 0.278,
      "velocity": 1,
      "hand": "left"
    },
    {
      "midi": 55,
      "time": 96.389,
      "duration": 1.111,
      "velocity": 1,
      "hand": "left"
    },
    {
      "midi": 61,
      "time": 96.666,
      "duration": 0.278,
      "velocity": 1,
      "hand": "right"
    },
    {
      "midi": 71,
      "time": 96.666,
      "duration": 0.263,
      "velocity": 1,
      "hand": "right"
    },
    {
      "midi": 73,
      "time": 96.666,
      "duration": 0.263,
      "velocity": 1,
      "hand": "right"
    },
    {
      "midi": 62,
      "time": 96.944,
      "duration": 0.278,
      "velocity": 1,
      "hand": "right"
    },
    {
      "midi": 71,
      "time": 96.944,
      "duration": 0.263,
      "velocity": 1,
      "hand": "right"
    },
    {
      "midi": 73,
      "time": 96.944,
      "duration": 0.263,
      "velocity": 1,
      "hand": "right"
    },
    {
      "midi": 64,
      "time": 97.222,
      "duration": 0.278,
      "velocity": 1,
      "hand": "right"
    },
    {
      "midi": 71,
      "time": 97.222,
      "duration": 0.278,
      "velocity": 1,
      "hand": "right"
    },
    {
      "midi": 73,
      "time": 97.222,
      "duration": 0.278,
      "velocity": 1,
      "hand": "right"
    },
    {
      "midi": 45,
      "time": 97.5,
      "duration": 0.278,
      "velocity": 1,
      "hand": "left"
    },
    {
      "midi": 43,
      "time": 97.778,
      "duration": 0.278,
      "velocity": 1,
      "hand": "left"
    },
    {
      "midi": 42,
      "time": 98.055,
      "duration": 0.833,
      "velocity": 1,
      "hand": "left"
    },
    {
      "midi": 56,
      "time": 98.333,
      "duration": 0.278,
      "velocity": 1,
      "hand": "left"
    },
    {
      "midi": 59,
      "time": 98.333,
      "duration": 0.278,
      "velocity": 1,
      "hand": "left"
    },
    {
      "midi": 66,
      "time": 98.333,
      "duration": 0.263,
      "velocity": 1,
      "hand": "right"
    },
    {
      "midi": 58,
      "time": 98.611,
      "duration": 0.278,
      "velocity": 1,
      "hand": "left"
    },
    {
      "midi": 61,
      "time": 98.611,
      "duration": 0.278,
      "velocity": 1,
      "hand": "right"
    },
    {
      "midi": 66,
      "time": 98.611,
      "duration": 0.263,
      "velocity": 1,
      "hand": "right"
    },
    {
      "midi": 47,
      "time": 98.889,
      "duration": 0.278,
      "velocity": 1,
      "hand": "left"
    },
    {
      "midi": 59,
      "time": 98.889,
      "duration": 0.278,
      "velocity": 1,
      "hand": "left"
    },
    {
      "midi": 62,
      "time": 98.889,
      "duration": 0.278,
      "velocity": 1,
      "hand": "right"
    },
    {
      "midi": 66,
      "time": 98.889,
      "duration": 0.278,
      "velocity": 1,
      "hand": "right"
    },
    {
      "midi": 52,
      "time": 99.166,
      "duration": 0.278,
      "velocity": 1,
      "hand": "left"
    },
    {
      "midi": 54,
      "time": 99.444,
      "duration": 0.278,
      "velocity": 1,
      "hand": "left"
    },
    {
      "midi": 55,
      "time": 99.722,
      "duration": 1.111,
      "velocity": 1,
      "hand": "left"
    },
    {
      "midi": 61,
      "time": 100,
      "duration": 0.278,
      "velocity": 1,
      "hand": "right"
    },
    {
      "midi": 71,
      "time": 100,
      "duration": 0.263,
      "velocity": 1,
      "hand": "right"
    },
    {
      "midi": 73,
      "time": 100,
      "duration": 0.263,
      "velocity": 1,
      "hand": "right"
    },
    {
      "midi": 62,
      "time": 100.278,
      "duration": 0.278,
      "velocity": 1,
      "hand": "right"
    },
    {
      "midi": 71,
      "time": 100.278,
      "duration": 0.262,
      "velocity": 1,
      "hand": "right"
    },
    {
      "midi": 73,
      "time": 100.278,
      "duration": 0.262,
      "velocity": 1,
      "hand": "right"
    },
    {
      "midi": 64,
      "time": 100.555,
      "duration": 0.278,
      "velocity": 1,
      "hand": "right"
    },
    {
      "midi": 71,
      "time": 100.555,
      "duration": 0.278,
      "velocity": 1,
      "hand": "right"
    },
    {
      "midi": 73,
      "time": 100.555,
      "duration": 0.278,
      "velocity": 1,
      "hand": "right"
    },
    {
      "midi": 45,
      "time": 100.833,
      "duration": 0.278,
      "velocity": 1,
      "hand": "left"
    },
    {
      "midi": 43,
      "time": 101.111,
      "duration": 0.278,
      "velocity": 1,
      "hand": "left"
    },
    {
      "midi": 42,
      "time": 101.389,
      "duration": 0.833,
      "velocity": 1,
      "hand": "left"
    },
    {
      "midi": 56,
      "time": 101.666,
      "duration": 0.278,
      "velocity": 1,
      "hand": "left"
    },
    {
      "midi": 59,
      "time": 101.666,
      "duration": 0.278,
      "velocity": 1,
      "hand": "left"
    },
    {
      "midi": 66,
      "time": 101.666,
      "duration": 0.263,
      "velocity": 1,
      "hand": "right"
    },
    {
      "midi": 58,
      "time": 101.944,
      "duration": 0.278,
      "velocity": 1,
      "hand": "left"
    },
    {
      "midi": 61,
      "time": 101.944,
      "duration": 0.278,
      "velocity": 1,
      "hand": "right"
    },
    {
      "midi": 66,
      "time": 101.944,
      "duration": 0.263,
      "velocity": 1,
      "hand": "right"
    },
    {
      "midi": 47,
      "time": 102.222,
      "duration": 0.278,
      "velocity": 1,
      "hand": "left"
    },
    {
      "midi": 59,
      "time": 102.222,
      "duration": 0.263,
      "velocity": 1,
      "hand": "left"
    },
    {
      "midi": 62,
      "time": 102.222,
      "duration": 0.263,
      "velocity": 1,
      "hand": "right"
    },
    {
      "midi": 66,
      "time": 102.222,
      "duration": 0.263,
      "velocity": 1,
      "hand": "right"
    },
    {
      "midi": 50,
      "time": 102.5,
      "duration": 0.263,
      "velocity": 1,
      "hand": "left"
    },
    {
      "midi": 54,
      "time": 102.5,
      "duration": 0.263,
      "velocity": 1,
      "hand": "left"
    },
    {
      "midi": 62,
      "time": 102.5,
      "duration": 0.263,
      "velocity": 1,
      "hand": "right"
    },
    {
      "midi": 66,
      "time": 102.5,
      "duration": 0.263,
      "velocity": 1,
      "hand": "right"
    },
    {
      "midi": 71,
      "time": 102.5,
      "duration": 0.278,
      "velocity": 1,
      "hand": "right"
    },
    {
      "midi": 50,
      "time": 102.778,
      "duration": 0.262,
      "velocity": 1,
      "hand": "left"
    },
    {
      "midi": 54,
      "time": 102.778,
      "duration": 0.262,
      "velocity": 1,
      "hand": "left"
    },
    {
      "midi": 62,
      "time": 102.778,
      "duration": 0.262,
      "velocity": 1,
      "hand": "right"
    },
    {
      "midi": 66,
      "time": 102.778,
      "duration": 0.262,
      "velocity": 1,
      "hand": "right"
    },
    {
      "midi": 70,
      "time": 102.778,
      "duration": 0.278,
      "velocity": 1,
      "hand": "right"
    },
    {
      "midi": 50,
      "time": 103.055,
      "duration": 0.278,
      "velocity": 1,
      "hand": "left"
    },
    {
      "midi": 54,
      "time": 103.055,
      "duration": 0.263,
      "velocity": 1,
      "hand": "left"
    },
    {
      "midi": 62,
      "time": 103.055,
      "duration": 0.263,
      "velocity": 1,
      "hand": "right"
    },
    {
      "midi": 66,
      "time": 103.055,
      "duration": 0.263,
      "velocity": 1,
      "hand": "right"
    },
    {
      "midi": 71,
      "time": 103.055,
      "duration": 0.263,
      "velocity": 1,
      "hand": "right"
    },
    {
      "midi": 54,
      "time": 103.333,
      "duration": 0.263,
      "velocity": 1,
      "hand": "left"
    },
    {
      "midi": 59,
      "time": 103.333,
      "duration": 0.263,
      "velocity": 1,
      "hand": "left"
    },
    {
      "midi": 62,
      "time": 103.333,
      "duration": 0.278,
      "velocity": 1,
      "hand": "right"
    },
    {
      "midi": 66,
      "time": 103.333,
      "duration": 0.263,
      "velocity": 1,
      "hand": "right"
    },
    {
      "midi": 71,
      "time": 103.333,
      "duration": 0.263,
      "velocity": 1,
      "hand": "right"
    },
    {
      "midi": 74,
      "time": 103.333,
      "duration": 0.278,
      "velocity": 1,
      "hand": "right"
    },
    {
      "midi": 54,
      "time": 103.611,
      "duration": 0.263,
      "velocity": 1,
      "hand": "left"
    },
    {
      "midi": 59,
      "time": 103.611,
      "duration": 0.263,
      "velocity": 1,
      "hand": "left"
    },
    {
      "midi": 61,
      "time": 103.611,
      "duration": 0.278,
      "velocity": 1,
      "hand": "right"
    },
    {
      "midi": 66,
      "time": 103.611,
      "duration": 0.263,
      "velocity": 1,
      "hand": "right"
    },
    {
      "midi": 71,
      "time": 103.611,
      "duration": 0.263,
      "velocity": 1,
      "hand": "right"
    },
    {
      "midi": 73,
      "time": 103.611,
      "duration": 0.278,
      "velocity": 1,
      "hand": "right"
    },
    {
      "midi": 54,
      "time": 103.889,
      "duration": 0.278,
      "velocity": 1,
      "hand": "left"
    },
    {
      "midi": 59,
      "time": 103.889,
      "duration": 0.262,
      "velocity": 1,
      "hand": "left"
    },
    {
      "midi": 62,
      "time": 103.889,
      "duration": 0.262,
      "velocity": 1,
      "hand": "right"
    },
    {
      "midi": 66,
      "time": 103.889,
      "duration": 0.262,
      "velocity": 1,
      "hand": "right"
    },
    {
      "midi": 71,
      "time": 103.889,
      "duration": 0.262,
      "velocity": 1,
      "hand": "right"
    },
    {
      "midi": 74,
      "time": 103.889,
      "duration": 0.262,
      "velocity": 1,
      "hand": "right"
    },
    {
      "midi": 59,
      "time": 104.166,
      "duration": 0.263,
      "velocity": 1,
      "hand": "left"
    },
    {
      "midi": 66,
      "time": 104.166,
      "duration": 0.278,
      "velocity": 1,
      "hand": "right"
    },
    {
      "midi": 71,
      "time": 104.166,
      "duration": 0.263,
      "velocity": 1,
      "hand": "right"
    },
    {
      "midi": 74,
      "time": 104.166,
      "duration": 0.263,
      "velocity": 1,
      "hand": "right"
    },
    {
      "midi": 78,
      "time": 104.166,
      "duration": 0.278,
      "velocity": 1,
      "hand": "right"
    },
    {
      "midi": 59,
      "time": 104.444,
      "duration": 0.263,
      "velocity": 1,
      "hand": "left"
    },
    {
      "midi": 65,
      "time": 104.444,
      "duration": 0.278,
      "velocity": 1,
      "hand": "right"
    },
    {
      "midi": 71,
      "time": 104.444,
      "duration": 0.263,
      "velocity": 1,
      "hand": "right"
    },
    {
      "midi": 74,
      "time": 104.444,
      "duration": 0.263,
      "velocity": 1,
      "hand": "right"
    },
    {
      "midi": 77,
      "time": 104.444,
      "duration": 0.278,
      "velocity": 1,
      "hand": "right"
    },
    {
      "midi": 59,
      "time": 104.722,
      "duration": 0.278,
      "velocity": 1,
      "hand": "left"
    },
    {
      "midi": 66,
      "time": 104.722,
      "duration": 0.263,
      "velocity": 1,
      "hand": "right"
    },
    {
      "midi": 71,
      "time": 104.722,
      "duration": 0.263,
      "velocity": 1,
      "hand": "right"
    },
    {
      "midi": 74,
      "time": 104.722,
      "duration": 0.263,
      "velocity": 1,
      "hand": "right"
    },
    {
      "midi": 78,
      "time": 104.722,
      "duration": 0.263,
      "velocity": 1,
      "hand": "right"
    },
    {
      "midi": 71,
      "time": 105,
      "duration": 0.278,
      "velocity": 1,
      "hand": "right"
    },
    {
      "midi": 74,
      "time": 105,
      "duration": 0.263,
      "velocity": 1,
      "hand": "right"
    },
    {
      "midi": 78,
      "time": 105,
      "duration": 0.263,
      "velocity": 1,
      "hand": "right"
    },
    {
      "midi": 83,
      "time": 105,
      "duration": 0.278,
      "velocity": 1,
      "hand": "right"
    },
    {
      "midi": 70,
      "time": 105.278,
      "duration": 0.278,
      "velocity": 1,
      "hand": "right"
    },
    {
      "midi": 74,
      "time": 105.278,
      "duration": 0.262,
      "velocity": 1,
      "hand": "right"
    },
    {
      "midi": 78,
      "time": 105.278,
      "duration": 0.262,
      "velocity": 1,
      "hand": "right"
    },
    {
      "midi": 82,
      "time": 105.278,
      "duration": 0.278,
      "velocity": 1,
      "hand": "right"
    },
    {
      "midi": 71,
      "time": 105.555,
      "duration": 0.263,
      "velocity": 1,
      "hand": "right"
    },
    {
      "midi": 74,
      "time": 105.555,
      "duration": 0.263,
      "velocity": 1,
      "hand": "right"
    },
    {
      "midi": 78,
      "time": 105.555,
      "duration": 0.263,
      "velocity": 1,
      "hand": "right"
    },
    {
      "midi": 83,
      "time": 105.555,
      "duration": 0.263,
      "velocity": 1,
      "hand": "right"
    },
    {
      "midi": 71,
      "time": 105.833,
      "duration": 0.263,
      "velocity": 1,
      "hand": "right"
    },
    {
      "midi": 74,
      "time": 105.833,
      "duration": 0.278,
      "velocity": 1,
      "hand": "right"
    },
    {
      "midi": 78,
      "time": 105.833,
      "duration": 0.263,
      "velocity": 1,
      "hand": "right"
    },
    {
      "midi": 83,
      "time": 105.833,
      "duration": 0.263,
      "velocity": 1,
      "hand": "right"
    },
    {
      "midi": 71,
      "time": 106.111,
      "duration": 0.263,
      "velocity": 1,
      "hand": "right"
    },
    {
      "midi": 73,
      "time": 106.111,
      "duration": 0.278,
      "velocity": 1,
      "hand": "right"
    },
    {
      "midi": 78,
      "time": 106.111,
      "duration": 0.263,
      "velocity": 1,
      "hand": "right"
    },
    {
      "midi": 83,
      "time": 106.111,
      "duration": 0.263,
      "velocity": 1,
      "hand": "right"
    },
    {
      "midi": 71,
      "time": 106.389,
      "duration": 0.262,
      "velocity": 1,
      "hand": "right"
    },
    {
      "midi": 74,
      "time": 106.389,
      "duration": 0.262,
      "velocity": 1,
      "hand": "right"
    },
    {
      "midi": 78,
      "time": 106.389,
      "duration": 0.262,
      "velocity": 1,
      "hand": "right"
    },
    {
      "midi": 83,
      "time": 106.389,
      "duration": 0.262,
      "velocity": 1,
      "hand": "right"
    },
    {
      "midi": 71,
      "time": 106.666,
      "duration": 0.263,
      "velocity": 1,
      "hand": "right"
    },
    {
      "midi": 74,
      "time": 106.666,
      "duration": 0.263,
      "velocity": 1,
      "hand": "right"
    },
    {
      "midi": 78,
      "time": 106.666,
      "duration": 0.278,
      "velocity": 1,
      "hand": "right"
    },
    {
      "midi": 83,
      "time": 106.666,
      "duration": 0.263,
      "velocity": 1,
      "hand": "right"
    },
    {
      "midi": 71,
      "time": 106.944,
      "duration": 0.263,
      "velocity": 1,
      "hand": "right"
    },
    {
      "midi": 74,
      "time": 106.944,
      "duration": 0.263,
      "velocity": 1,
      "hand": "right"
    },
    {
      "midi": 77,
      "time": 106.944,
      "duration": 0.278,
      "velocity": 1,
      "hand": "right"
    },
    {
      "midi": 83,
      "time": 106.944,
      "duration": 0.263,
      "velocity": 1,
      "hand": "right"
    },
    {
      "midi": 71,
      "time": 107.222,
      "duration": 0.263,
      "velocity": 1,
      "hand": "right"
    },
    {
      "midi": 74,
      "time": 107.222,
      "duration": 0.263,
      "velocity": 1,
      "hand": "right"
    },
    {
      "midi": 78,
      "time": 107.222,
      "duration": 0.263,
      "velocity": 1,
      "hand": "right"
    },
    {
      "midi": 83,
      "time": 107.222,
      "duration": 0.263,
      "velocity": 1,
      "hand": "right"
    },
    {
      "midi": 71,
      "time": 107.5,
      "duration": 0.263,
      "velocity": 1,
      "hand": "right"
    },
    {
      "midi": 74,
      "time": 107.5,
      "duration": 0.263,
      "velocity": 1,
      "hand": "right"
    },
    {
      "midi": 78,
      "time": 107.5,
      "duration": 0.263,
      "velocity": 1,
      "hand": "right"
    },
    {
      "midi": 83,
      "time": 107.5,
      "duration": 0.278,
      "velocity": 1,
      "hand": "right"
    },
    {
      "midi": 71,
      "time": 107.778,
      "duration": 0.262,
      "velocity": 1,
      "hand": "right"
    },
    {
      "midi": 74,
      "time": 107.778,
      "duration": 0.262,
      "velocity": 1,
      "hand": "right"
    },
    {
      "midi": 78,
      "time": 107.778,
      "duration": 0.262,
      "velocity": 1,
      "hand": "right"
    },
    {
      "midi": 82,
      "time": 107.778,
      "duration": 0.278,
      "velocity": 1,
      "hand": "right"
    },
    {
      "midi": 71,
      "time": 108.055,
      "duration": 0.263,
      "velocity": 1,
      "hand": "right"
    },
    {
      "midi": 74,
      "time": 108.055,
      "duration": 0.263,
      "velocity": 1,
      "hand": "right"
    },
    {
      "midi": 78,
      "time": 108.055,
      "duration": 0.263,
      "velocity": 1,
      "hand": "right"
    },
    {
      "midi": 83,
      "time": 108.055,
      "duration": 0.263,
      "velocity": 1,
      "hand": "right"
    },
    {
      "midi": 71,
      "time": 108.333,
      "duration": 0.263,
      "velocity": 1,
      "hand": "right"
    },
    {
      "midi": 74,
      "time": 108.333,
      "duration": 0.263,
      "velocity": 1,
      "hand": "right"
    },
    {
      "midi": 78,
      "time": 108.333,
      "duration": 0.263,
      "velocity": 1,
      "hand": "right"
    },
    {
      "midi": 83,
      "time": 108.333,
      "duration": 0.278,
      "velocity": 1,
      "hand": "right"
    },
    {
      "midi": 71,
      "time": 108.611,
      "duration": 0.263,
      "velocity": 1,
      "hand": "right"
    },
    {
      "midi": 74,
      "time": 108.611,
      "duration": 0.263,
      "velocity": 1,
      "hand": "right"
    },
    {
      "midi": 78,
      "time": 108.611,
      "duration": 0.263,
      "velocity": 1,
      "hand": "right"
    },
    {
      "midi": 82,
      "time": 108.611,
      "duration": 0.278,
      "velocity": 1,
      "hand": "right"
    },
    {
      "midi": 71,
      "time": 108.889,
      "duration": 0.278,
      "velocity": 1,
      "hand": "right"
    },
    {
      "midi": 74,
      "time": 108.889,
      "duration": 0.278,
      "velocity": 1,
      "hand": "right"
    },
    {
      "midi": 78,
      "time": 108.889,
      "duration": 0.278,
      "velocity": 1,
      "hand": "right"
    },
    {
      "midi": 83,
      "time": 108.889,
      "duration": 0.278,
      "velocity": 1,
      "hand": "right"
    },
    {
      "midi": 59,
      "time": 109.722,
      "duration": 0.278,
      "velocity": 1,
      "hand": "left"
    },
    {
      "midi": 71,
      "time": 109.722,
      "duration": 0.278,
      "velocity": 1,
      "hand": "right"
    },
    {
      "midi": 74,
      "time": 109.722,
      "duration": 0.278,
      "velocity": 1,
      "hand": "right"
    },
    {
      "midi": 78,
      "time": 109.722,
      "duration": 0.278,
      "velocity": 1,
      "hand": "right"
    },
    {
      "midi": 83,
      "time": 109.722,
      "duration": 0.278,
      "velocity": 1,
      "hand": "right"
    },
    {
      "midi": 47,
      "time": 110.555,
      "duration": 0.278,
      "velocity": 1,
      "hand": "left"
    },
    {
      "midi": 54,
      "time": 110.555,
      "duration": 0.278,
      "velocity": 1,
      "hand": "left"
    },
    {
      "midi": 62,
      "time": 110.555,
      "duration": 0.278,
      "velocity": 1,
      "hand": "right"
    },
    {
      "midi": 66,
      "time": 110.555,
      "duration": 0.278,
      "velocity": 1,
      "hand": "right"
    },
    {
      "midi": 71,
      "time": 110.555,
      "duration": 0.278,
      "velocity": 1,
      "hand": "right"
    },
    {
      "midi": 42,
      "time": 111.389,
      "duration": 0.278,
      "velocity": 1,
      "hand": "left"
    },
    {
      "midi": 47,
      "time": 111.389,
      "duration": 0.278,
      "velocity": 1,
      "hand": "left"
    },
    {
      "midi": 50,
      "time": 112.222,
      "duration": 3.333,
      "velocity": 1,
      "hand": "left"
    },
    {
      "midi": 57,
      "time": 112.222,
      "duration": 3.318,
      "velocity": 1,
      "hand": "left"
    },
    {
      "midi": 66,
      "time": 112.222,
      "duration": 3.333,
      "velocity": 1,
      "hand": "right"
    },
    {
      "midi": 74,
      "time": 112.222,
      "duration": 0.833,
      "velocity": 1,
      "hand": "right"
    },
    {
      "midi": 73,
      "time": 113.055,
      "duration": 0.833,
      "velocity": 1,
      "hand": "right"
    },
    {
      "midi": 71,
      "time": 113.889,
      "duration": 0.556,
      "velocity": 1,
      "hand": "right"
    },
    {
      "midi": 69,
      "time": 114.444,
      "duration": 0.263,
      "velocity": 1,
      "hand": "right"
    },
    {
      "midi": 69,
      "time": 114.722,
      "duration": 0.833,
      "velocity": 1,
      "hand": "right"
    },
    {
      "midi": 49,
      "time": 115.555,
      "duration": 1.667,
      "velocity": 1,
      "hand": "left"
    },
    {
      "midi": 57,
      "time": 115.555,
      "duration": 3.333,
      "velocity": 1,
      "hand": "left"
    },
    {
      "midi": 64,
      "time": 115.555,
      "duration": 1.667,
      "velocity": 1,
      "hand": "right"
    },
    {
      "midi": 71,
      "time": 115.555,
      "duration": 0.833,
      "velocity": 1,
      "hand": "right"
    },
    {
      "midi": 69,
      "time": 116.389,
      "duration": 0.833,
      "velocity": 1,
      "hand": "right"
    },
    {
      "midi": 48,
      "time": 117.222,
      "duration": 1.667,
      "velocity": 1,
      "hand": "left"
    },
    {
      "midi": 63,
      "time": 117.222,
      "duration": 1.667,
      "velocity": 1,
      "hand": "right"
    },
    {
      "midi": 67,
      "time": 117.222,
      "duration": 0.556,
      "velocity": 1,
      "hand": "right"
    },
    {
      "midi": 66,
      "time": 117.778,
      "duration": 0.262,
      "velocity": 1,
      "hand": "right"
    },
    {
      "midi": 66,
      "time": 118.055,
      "duration": 0.833,
      "velocity": 1,
      "hand": "right"
    },
    {
      "midi": 47,
      "time": 118.889,
      "duration": 3.333,
      "velocity": 1,
      "hand": "left"
    },
    {
      "midi": 54,
      "time": 118.889,
      "duration": 1.667,
      "velocity": 1,
      "hand": "left"
    },
    {
      "midi": 62,
      "time": 118.889,
      "duration": 0.818,
      "velocity": 1,
      "hand": "right"
    },
    {
      "midi": 69,
      "time": 118.889,
      "duration": 0.833,
      "velocity": 1,
      "hand": "right"
    },
    {
      "midi": 62,
      "time": 119.722,
      "duration": 0.818,
      "velocity": 1,
      "hand": "right"
    },
    {
      "midi": 56,
      "time": 120.555,
      "duration": 1.667,
      "velocity": 1,
      "hand": "left"
    },
    {
      "midi": 62,
      "time": 120.555,
      "duration": 1.667,
      "velocity": 1,
      "hand": "right"
    },
    {
      "midi": 66,
      "time": 120.555,
      "duration": 0.556,
      "velocity": 1,
      "hand": "right"
    },
    {
      "midi": 64,
      "time": 121.111,
      "duration": 0.263,
      "velocity": 1,
      "hand": "right"
    },
    {
      "midi": 64,
      "time": 121.389,
      "duration": 0.833,
      "velocity": 1,
      "hand": "right"
    },
    {
      "midi": 44,
      "time": 122.222,
      "duration": 1.667,
      "velocity": 1,
      "hand": "left"
    },
    {
      "midi": 50,
      "time": 122.222,
      "duration": 1.667,
      "velocity": 1,
      "hand": "left"
    },
    {
      "midi": 66,
      "time": 122.222,
      "duration": 0.833,
      "velocity": 1,
      "hand": "right"
    },
    {
      "midi": 59,
      "time": 123.055,
      "duration": 0.833,
      "velocity": 1,
      "hand": "left"
    },
    {
      "midi": 43,
      "time": 123.889,
      "duration": 1.667,
      "velocity": 1,
      "hand": "left"
    },
    {
      "midi": 52,
      "time": 123.889,
      "duration": 1.667,
      "velocity": 1,
      "hand": "left"
    },
    {
      "midi": 62,
      "time": 123.889,
      "duration": 0.556,
      "velocity": 1,
      "hand": "right"
    },
    {
      "midi": 61,
      "time": 124.444,
      "duration": 0.263,
      "velocity": 1,
      "hand": "right"
    },
    {
      "midi": 61,
      "time": 124.722,
      "duration": 0.833,
      "velocity": 1,
      "hand": "right"
    },
    {
      "midi": 42,
      "time": 125.555,
      "duration": 1.667,
      "velocity": 1,
      "hand": "left"
    },
    {
      "midi": 45,
      "time": 125.555,
      "duration": 0.833,
      "velocity": 1,
      "hand": "left"
    },
    {
      "midi": 62,
      "time": 125.555,
      "duration": 1.667,
      "velocity": 1,
      "hand": "right"
    },
    {
      "midi": 69,
      "time": 125.555,
      "duration": 1.667,
      "velocity": 1,
      "hand": "right"
    },
    {
      "midi": 47,
      "time": 126.389,
      "duration": 0.833,
      "velocity": 1,
      "hand": "left"
    },
    {
      "midi": 45,
      "time": 127.222,
      "duration": 1.667,
      "velocity": 1,
      "hand": "left"
    },
    {
      "midi": 49,
      "time": 127.222,
      "duration": 0.556,
      "velocity": 1,
      "hand": "left"
    },
    {
      "midi": 50,
      "time": 127.778,
      "duration": 0.262,
      "velocity": 1,
      "hand": "left"
    },
    {
      "midi": 50,
      "time": 128.055,
      "duration": 0.833,
      "velocity": 1,
      "hand": "left"
    },
    {
      "midi": 44,
      "time": 128.889,
      "duration": 1.667,
      "velocity": 1,
      "hand": "left"
    },
    {
      "midi": 52,
      "time": 128.889,
      "duration": 0.833,
      "velocity": 1,
      "hand": "left"
    },
    {
      "midi": 62,
      "time": 128.889,
      "duration": 1.667,
      "velocity": 1,
      "hand": "right"
    },
    {
      "midi": 71,
      "time": 128.889,
      "duration": 1.667,
      "velocity": 1,
      "hand": "right"
    },
    {
      "midi": 74,
      "time": 128.889,
      "duration": 1.667,
      "velocity": 1,
      "hand": "right"
    },
    {
      "midi": 54,
      "time": 129.722,
      "duration": 0.833,
      "velocity": 1,
      "hand": "left"
    },
    {
      "midi": 50,
      "time": 130.555,
      "duration": 1.667,
      "velocity": 1,
      "hand": "left"
    },
    {
      "midi": 55,
      "time": 130.555,
      "duration": 0.556,
      "velocity": 1,
      "hand": "left"
    },
    {
      "midi": 64,
      "time": 130.555,
      "duration": 1.652,
      "velocity": 1,
      "hand": "right"
    },
    {
      "midi": 56,
      "time": 131.111,
      "duration": 0.263,
      "velocity": 1,
      "hand": "left"
    },
    {
      "midi": 56,
      "time": 131.389,
      "duration": 0.818,
      "velocity": 1,
      "hand": "left"
    },
    {
      "midi": 49,
      "time": 132.222,
      "duration": 1.667,
      "velocity": 1,
      "hand": "left"
    },
    {
      "midi": 56,
      "time": 132.222,
      "duration": 0.833,
      "velocity": 1,
      "hand": "left"
    },
    {
      "midi": 64,
      "time": 132.222,
      "duration": 1.667,
      "velocity": 1,
      "hand": "right"
    },
    {
      "midi": 76,
      "time": 132.222,
      "duration": 1.667,
      "velocity": 1,
      "hand": "right"
    },
    {
      "midi": 57,
      "time": 133.055,
      "duration": 0.833,
      "velocity": 1,
      "hand": "left"
    },
    {
      "midi": 54,
      "time": 133.889,
      "duration": 1.667,
      "velocity": 1,
      "hand": "left"
    },
    {
      "midi": 59,
      "time": 133.889,
      "duration": 0.556,
      "velocity": 1,
      "hand": "left"
    },
    {
      "midi": 69,
      "time": 133.889,
      "duration": 1.651,
      "velocity": 1,
      "hand": "right"
    },
    {
      "midi": 75,
      "time": 133.889,
      "duration": 1.667,
      "velocity": 1,
      "hand": "right"
    },
    {
      "midi": 60,
      "time": 134.444,
      "duration": 0.263,
      "velocity": 1,
      "hand": "right"
    },
    {
      "midi": 60,
      "time": 134.722,
      "duration": 0.833,
      "velocity": 1,
      "hand": "right"
    },
    {
      "midi": 52,
      "time": 135.555,
      "duration": 1.652,
      "velocity": 1,
      "hand": "left"
    },
    {
      "midi": 61,
      "time": 135.555,
      "duration": 0.833,
      "velocity": 1,
      "hand": "right"
    },
    {
      "midi": 69,
      "time": 135.555,
      "duration": 0.819,
      "velocity": 1,
      "hand": "right"
    },
    {
      "midi": 76,
      "time": 135.555,
      "duration": 0.833,
      "velocity": 1,
      "hand": "right"
    },
    {
      "midi": 81,
      "time": 135.555,
      "duration": 0.833,
      "velocity": 1,
      "hand": "right"
    },
    {
      "midi": 66,
      "time": 136.389,
      "duration": 0.556,
      "velocity": 1,
      "hand": "right"
    },
    {
      "midi": 69,
      "time": 136.389,
      "duration": 0.833,
      "velocity": 1,
      "hand": "right"
    },
    {
      "midi": 73,
      "time": 136.389,
      "duration": 0.818,
      "velocity": 1,
      "hand": "right"
    },
    {
      "midi": 64,
      "time": 136.944,
      "duration": 0.278,
      "velocity": 1,
      "hand": "right"
    },
    {
      "midi": 52,
      "time": 137.222,
      "duration": 0.833,
      "velocity": 1,
      "hand": "left"
    },
    {
      "midi": 62,
      "time": 137.222,
      "duration": 0.833,
      "velocity": 1,
      "hand": "right"
    },
    {
      "midi": 68,
      "time": 137.222,
      "duration": 0.833,
      "velocity": 1,
      "hand": "right"
    },
    {
      "midi": 73,
      "time": 137.222,
      "duration": 0.556,
      "velocity": 1,
      "hand": "right"
    },
    {
      "midi": 71,
      "time": 137.778,
      "duration": 0.278,
      "velocity": 1,
      "hand": "right"
    },
    {
      "midi": 57,
      "time": 138.055,
      "duration": 0.819,
      "velocity": 1,
      "hand": "left"
    },
    {
      "midi": 61,
      "time": 138.055,
      "duration": 0.833,
      "velocity": 1,
      "hand": "right"
    },
    {
      "midi": 69,
      "time": 138.055,
      "duration": 0.833,
      "velocity": 1,
      "hand": "right"
    },
    {
      "midi": 49,
      "time": 138.889,
      "duration": 1.667,
      "velocity": 1,
      "hand": "left"
    },
    {
      "midi": 57,
      "time": 138.889,
      "duration": 3.333,
      "velocity": 1,
      "hand": "left"
    },
    {
      "midi": 67,
      "time": 138.889,
      "duration": 1.667,
      "velocity": 1,
      "hand": "right"
    },
    {
      "midi": 76,
      "time": 138.889,
      "duration": 0.833,
      "velocity": 1,
      "hand": "right"
    },
    {
      "midi": 69,
      "time": 139.722,
      "duration": 0.833,
      "velocity": 1,
      "hand": "right"
    },
    {
      "midi": 50,
      "time": 140.555,
      "duration": 1.667,
      "velocity": 1,
      "hand": "left"
    },
    {
      "midi": 66,
      "time": 140.555,
      "duration": 1.652,
      "velocity": 1,
      "hand": "right"
    },
    {
      "midi": 71,
      "time": 140.555,
      "duration": 0.556,
      "velocity": 1,
      "hand": "right"
    },
    {
      "midi": 69,
      "time": 141.111,
      "duration": 0.263,
      "velocity": 1,
      "hand": "right"
    },
    {
      "midi": 69,
      "time": 141.389,
      "duration": 0.818,
      "velocity": 1,
      "hand": "right"
    },
    {
      "midi": 51,
      "time": 142.222,
      "duration": 1.667,
      "velocity": 1,
      "hand": "left"
    },
    {
      "midi": 66,
      "time": 142.222,
      "duration": 0.833,
      "velocity": 1,
      "hand": "right"
    },
    {
      "midi": 69,
      "time": 142.222,
      "duration": 1.667,
      "velocity": 1,
      "hand": "right"
    },
    {
      "midi": 71,
      "time": 142.222,
      "duration": 1.667,
      "velocity": 1,
      "hand": "right"
    },
    {
      "midi": 59,
      "time": 143.055,
      "duration": 0.833,
      "velocity": 1,
      "hand": "left"
    },
    {
      "midi": 52,
      "time": 143.889,
      "duration": 1.667,
      "velocity": 1,
      "hand": "left"
    },
    {
      "midi": 61,
      "time": 143.889,
      "duration": 0.556,
      "velocity": 1,
      "hand": "right"
    },
    {
      "midi": 67,
      "time": 143.889,
      "duration": 0.833,
      "velocity": 1,
      "hand": "right"
    },
    {
      "midi": 70,
      "time": 143.889,
      "duration": 0.833,
      "velocity": 1,
      "hand": "right"
    },
    {
      "midi": 59,
      "time": 144.444,
      "duration": 0.263,
      "velocity": 1,
      "hand": "left"
    },
    {
      "midi": 59,
      "time": 144.722,
      "duration": 0.833,
      "velocity": 1,
      "hand": "left"
    },
    {
      "midi": 68,
      "time": 144.722,
      "duration": 0.833,
      "velocity": 1,
      "hand": "right"
    },
    {
      "midi": 71,
      "time": 144.722,
      "duration": 0.818,
      "velocity": 1,
      "hand": "right"
    },
    {
      "midi": 53,
      "time": 145.555,
      "duration": 1.667,
      "velocity": 1,
      "hand": "left"
    },
    {
      "midi": 61,
      "time": 145.555,
      "duration": 3.333,
      "velocity": 1,
      "hand": "right"
    },
    {
      "midi": 71,
      "time": 145.555,
      "duration": 1.667,
      "velocity": 1,
      "hand": "right"
    },
    {
      "midi": 80,
      "time": 145.555,
      "duration": 0.833,
      "velocity": 1,
      "hand": "right"
    },
    {
      "midi": 73,
      "time": 146.389,
      "duration": 0.833,
      "velocity": 1,
      "hand": "right"
    },
    {
      "midi": 54,
      "time": 147.222,
      "duration": 1.652,
      "velocity": 1,
      "hand": "left"
    },
    {
      "midi": 69,
      "time": 147.222,
      "duration": 1.652,
      "velocity": 1,
      "hand": "right"
    },
    {
      "midi": 74,
      "time": 147.222,
      "duration": 0.556,
      "velocity": 1,
      "hand": "right"
    },
    {
      "midi": 73,
      "time": 147.778,
      "duration": 0.262,
      "velocity": 1,
      "hand": "right"
    },
    {
      "midi": 73,
      "time": 148.055,
      "duration": 0.833,
      "velocity": 1,
      "hand": "right"
    },
    {
      "midi": 54,
      "time": 148.889,
      "duration": 1.667,
      "velocity": 1,
      "hand": "left"
    },
    {
      "midi": 69,
      "time": 148.889,
      "duration": 0.833,
      "velocity": 1,
      "hand": "right"
    },
    {
      "midi": 72,
      "time": 148.889,
      "duration": 1.667,
      "velocity": 1,
      "hand": "right"
    },
    {
      "midi": 74,
      "time": 148.889,
      "duration": 1.667,
      "velocity": 1,
      "hand": "right"
    },
    {
      "midi": 62,
      "time": 149.722,
      "duration": 0.833,
      "velocity": 1,
      "hand": "right"
    },
    {
      "midi": 55,
      "time": 150.555,
      "duration": 1.667,
      "velocity": 1,
      "hand": "left"
    },
    {
      "midi": 64,
      "time": 150.555,
      "duration": 0.556,
      "velocity": 1,
      "hand": "right"
    },
    {
      "midi": 70,
      "time": 150.555,
      "duration": 0.833,
      "velocity": 1,
      "hand": "right"
    },
    {
      "midi": 73,
      "time": 150.555,
      "duration": 0.833,
      "velocity": 1,
      "hand": "right"
    },
    {
      "midi": 62,
      "time": 151.111,
      "duration": 0.263,
      "velocity": 1,
      "hand": "right"
    },
    {
      "midi": 62,
      "time": 151.389,
      "duration": 0.833,
      "velocity": 1,
      "hand": "right"
    },
    {
      "midi": 71,
      "time": 151.389,
      "duration": 0.833,
      "velocity": 1,
      "hand": "right"
    },
    {
      "midi": 74,
      "time": 151.389,
      "duration": 0.818,
      "velocity": 1,
      "hand": "right"
    },
    {
      "midi": 56,
      "time": 152.222,
      "duration": 1.667,
      "velocity": 1,
      "hand": "left"
    },
    {
      "midi": 64,
      "time": 152.222,
      "duration": 3.333,
      "velocity": 1,
      "hand": "right"
    },
    {
      "midi": 74,
      "time": 152.222,
      "duration": 1.667,
      "velocity": 1,
      "hand": "right"
    },
    {
      "midi": 83,
      "time": 152.222,
      "duration": 0.833,
      "velocity": 1,
      "hand": "right"
    },
    {
      "midi": 76,
      "time": 153.055,
      "duration": 0.833,
      "velocity": 1,
      "hand": "right"
    },
    {
      "midi": 57,
      "time": 153.889,
      "duration": 1.667,
      "velocity": 1,
      "hand": "left"
    },
    {
      "midi": 73,
      "time": 153.889,
      "duration": 1.651,
      "velocity": 1,
      "hand": "right"
    },
    {
      "midi": 75,
      "time": 153.889,
      "duration": 0.556,
      "velocity": 1,
      "hand": "right"
    },
    {
      "midi": 76,
      "time": 154.444,
      "duration": 0.263,
      "velocity": 1,
      "hand": "right"
    },
    {
      "midi": 76,
      "time": 154.722,
      "duration": 0.818,
      "velocity": 1,
      "hand": "right"
    },
    {
      "midi": 58,
      "time": 155.555,
      "duration": 1.667,
      "velocity": 1,
      "hand": "left"
    },
    {
      "midi": 66,
      "time": 155.555,
      "duration": 3.319,
      "velocity": 1,
      "hand": "right"
    },
    {
      "midi": 73,
      "time": 155.555,
      "duration": 0.833,
      "velocity": 1,
      "hand": "right"
    },
    {
      "midi": 76,
      "time": 155.555,
      "duration": 1.667,
      "velocity": 1,
      "hand": "right"
    },
    {
      "midi": 78,
      "time": 156.389,
      "duration": 0.833,
      "velocity": 1,
      "hand": "right"
    },
    {
      "midi": 59,
      "time": 157.222,
      "duration": 1.667,
      "velocity": 1,
      "hand": "left"
    },
    {
      "midi": 74,
      "time": 157.222,
      "duration": 1.667,
      "velocity": 1,
      "hand": "right"
    },
    {
      "midi": 77,
      "time": 157.222,
      "duration": 0.556,
      "velocity": 1,
      "hand": "right"
    },
    {
      "midi": 78,
      "time": 157.778,
      "duration": 0.262,
      "velocity": 1,
      "hand": "right"
    },
    {
      "midi": 78,
      "time": 158.055,
      "duration": 0.833,
      "velocity": 1,
      "hand": "right"
    },
    {
      "midi": 52,
      "time": 158.889,
      "duration": 3.318,
      "velocity": 1,
      "hand": "left"
    },
    {
      "midi": 66,
      "time": 158.889,
      "duration": 0.833,
      "velocity": 1,
      "hand": "right"
    },
    {
      "midi": 68,
      "time": 158.889,
      "duration": 3.333,
      "velocity": 1,
      "hand": "right"
    },
    {
      "midi": 71,
      "time": 158.889,
      "duration": 3.333,
      "velocity": 1,
      "hand": "right"
    },
    {
      "midi": 59,
      "time": 159.722,
      "duration": 0.833,
      "velocity": 1,
      "hand": "left"
    },
    {
      "midi": 66,
      "time": 160.555,
      "duration": 0.556,
      "velocity": 1,
      "hand": "right"
    },
    {
      "midi": 64,
      "time": 161.111,
      "duration": 0.263,
      "velocity": 1,
      "hand": "right"
    },
    {
      "midi": 64,
      "time": 161.389,
      "duration": 0.833,
      "velocity": 1,
      "hand": "right"
    },
    {
      "midi": 46,
      "time": 162.222,
      "duration": 1.667,
      "velocity": 1,
      "hand": "left"
    },
    {
      "midi": 52,
      "time": 162.222,
      "duration": 3.333,
      "velocity": 1,
      "hand": "left"
    },
    {
      "midi": 67,
      "time": 162.222,
      "duration": 0.818,
      "velocity": 1,
      "hand": "right"
    },
    {
      "midi": 74,
      "time": 162.222,
      "duration": 0.833,
      "velocity": 1,
      "hand": "right"
    },
    {
      "midi": 67,
      "time": 163.055,
      "duration": 0.819,
      "velocity": 1,
      "hand": "right"
    },
    {
      "midi": 45,
      "time": 163.889,
      "duration": 1.667,
      "velocity": 1,
      "hand": "left"
    },
    {
      "midi": 67,
      "time": 163.889,
      "duration": 1.667,
      "velocity": 1,
      "hand": "right"
    },
    {
      "midi": 74,
      "time": 163.889,
      "duration": 0.556,
      "velocity": 1,
      "hand": "right"
    },
    {
      "midi": 73,
      "time": 164.444,
      "duration": 0.263,
      "velocity": 1,
      "hand": "right"
    },
    {
      "midi": 73,
      "time": 164.722,
      "duration": 0.833,
      "velocity": 1,
      "hand": "right"
    },
    {
      "midi": 50,
      "time": 165.555,
      "duration": 3.333,
      "velocity": 1,
      "hand": "left"
    },
    {
      "midi": 57,
      "time": 165.555,
      "duration": 3.319,
      "velocity": 1,
      "hand": "left"
    },
    {
      "midi": 66,
      "time": 165.555,
      "duration": 3.333,
      "velocity": 1,
      "hand": "right"
    },
    {
      "midi": 74,
      "time": 165.555,
      "duration": 0.833,
      "velocity": 1,
      "hand": "right"
    },
    {
      "midi": 73,
      "time": 166.389,
      "duration": 0.833,
      "velocity": 1,
      "hand": "right"
    },
    {
      "midi": 71,
      "time": 167.222,
      "duration": 0.556,
      "velocity": 1,
      "hand": "right"
    },
    {
      "midi": 69,
      "time": 167.778,
      "duration": 0.262,
      "velocity": 1,
      "hand": "right"
    },
    {
      "midi": 69,
      "time": 168.055,
      "duration": 0.833,
      "velocity": 1,
      "hand": "right"
    },
    {
      "midi": 49,
      "time": 168.889,
      "duration": 1.667,
      "velocity": 1,
      "hand": "left"
    },
    {
      "midi": 57,
      "time": 168.889,
      "duration": 3.333,
      "velocity": 1,
      "hand": "left"
    },
    {
      "midi": 64,
      "time": 168.889,
      "duration": 1.667,
      "velocity": 1,
      "hand": "right"
    },
    {
      "midi": 71,
      "time": 168.889,
      "duration": 0.833,
      "velocity": 1,
      "hand": "right"
    },
    {
      "midi": 69,
      "time": 169.722,
      "duration": 0.833,
      "velocity": 1,
      "hand": "right"
    },
    {
      "midi": 48,
      "time": 170.555,
      "duration": 1.667,
      "velocity": 1,
      "hand": "left"
    },
    {
      "midi": 63,
      "time": 170.555,
      "duration": 1.667,
      "velocity": 1,
      "hand": "right"
    },
    {
      "midi": 67,
      "time": 170.555,
      "duration": 0.556,
      "velocity": 1,
      "hand": "right"
    },
    {
      "midi": 66,
      "time": 171.111,
      "duration": 0.263,
      "velocity": 1,
      "hand": "right"
    },
    {
      "midi": 66,
      "time": 171.389,
      "duration": 0.833,
      "velocity": 1,
      "hand": "right"
    },
    {
      "midi": 47,
      "time": 172.222,
      "duration": 3.333,
      "velocity": 1,
      "hand": "left"
    },
    {
      "midi": 54,
      "time": 172.222,
      "duration": 1.667,
      "velocity": 1,
      "hand": "left"
    },
    {
      "midi": 62,
      "time": 172.222,
      "duration": 0.818,
      "velocity": 1,
      "hand": "right"
    },
    {
      "midi": 69,
      "time": 172.222,
      "duration": 0.833,
      "velocity": 1,
      "hand": "right"
    },
    {
      "midi": 62,
      "time": 173.055,
      "duration": 0.819,
      "velocity": 1,
      "hand": "right"
    },
    {
      "midi": 56,
      "time": 173.889,
      "duration": 1.667,
      "velocity": 1,
      "hand": "left"
    },
    {
      "midi": 62,
      "time": 173.889,
      "duration": 1.667,
      "velocity": 1,
      "hand": "right"
    },
    {
      "midi": 66,
      "time": 173.889,
      "duration": 0.556,
      "velocity": 1,
      "hand": "right"
    },
    {
      "midi": 64,
      "time": 174.444,
      "duration": 0.263,
      "velocity": 1,
      "hand": "right"
    },
    {
      "midi": 64,
      "time": 174.722,
      "duration": 0.833,
      "velocity": 1,
      "hand": "right"
    },
    {
      "midi": 44,
      "time": 175.555,
      "duration": 1.667,
      "velocity": 1,
      "hand": "left"
    },
    {
      "midi": 50,
      "time": 175.555,
      "duration": 1.667,
      "velocity": 1,
      "hand": "left"
    },
    {
      "midi": 66,
      "time": 175.555,
      "duration": 0.833,
      "velocity": 1,
      "hand": "right"
    },
    {
      "midi": 59,
      "time": 176.389,
      "duration": 0.833,
      "velocity": 1,
      "hand": "left"
    },
    {
      "midi": 43,
      "time": 177.222,
      "duration": 1.667,
      "velocity": 1,
      "hand": "left"
    },
    {
      "midi": 52,
      "time": 177.222,
      "duration": 1.667,
      "velocity": 1,
      "hand": "left"
    },
    {
      "midi": 62,
      "time": 177.222,
      "duration": 0.556,
      "velocity": 1,
      "hand": "right"
    },
    {
      "midi": 61,
      "time": 177.778,
      "duration": 0.262,
      "velocity": 1,
      "hand": "right"
    },
    {
      "midi": 61,
      "time": 178.055,
      "duration": 0.833,
      "velocity": 1,
      "hand": "right"
    },
    {
      "midi": 42,
      "time": 178.889,
      "duration": 1.667,
      "velocity": 1,
      "hand": "left"
    },
    {
      "midi": 45,
      "time": 178.889,
      "duration": 0.833,
      "velocity": 1,
      "hand": "left"
    },
    {
      "midi": 62,
      "time": 178.889,
      "duration": 1.651,
      "velocity": 1,
      "hand": "right"
    },
    {
      "midi": 69,
      "time": 178.889,
      "duration": 1.667,
      "velocity": 1,
      "hand": "right"
    },
    {
      "midi": 47,
      "time": 179.722,
      "duration": 0.818,
      "velocity": 1,
      "hand": "left"
    },
    {
      "midi": 45,
      "time": 180.555,
      "duration": 1.667,
      "velocity": 1,
      "hand": "left"
    },
    {
      "midi": 47,
      "time": 180.555,
      "duration": 0.556,
      "velocity": 1,
      "hand": "left"
    },
    {
      "midi": 62,
      "time": 180.555,
      "duration": 1.652,
      "velocity": 1,
      "hand": "right"
    },
    {
      "midi": 48,
      "time": 181.111,
      "duration": 0.263,
      "velocity": 1,
      "hand": "left"
    },
    {
      "midi": 48,
      "time": 181.389,
      "duration": 0.833,
      "velocity": 1,
      "hand": "left"
    },
    {
      "midi": 43,
      "time": 182.222,
      "duration": 1.667,
      "velocity": 1,
      "hand": "left"
    },
    {
      "midi": 46,
      "time": 182.222,
      "duration": 0.833,
      "velocity": 1,
      "hand": "left"
    },
    {
      "midi": 62,
      "time": 182.222,
      "duration": 1.667,
      "velocity": 1,
      "hand": "right"
    },
    {
      "midi": 67,
      "time": 182.222,
      "duration": 1.667,
      "velocity": 1,
      "hand": "right"
    },
    {
      "midi": 74,
      "time": 182.222,
      "duration": 1.667,
      "velocity": 1,
      "hand": "right"
    },
    {
      "midi": 47,
      "time": 183.055,
      "duration": 0.833,
      "velocity": 1,
      "hand": "left"
    },
    {
      "midi": 44,
      "time": 183.889,
      "duration": 1.667,
      "velocity": 1,
      "hand": "left"
    },
    {
      "midi": 49,
      "time": 183.889,
      "duration": 0.556,
      "velocity": 1,
      "hand": "left"
    },
    {
      "midi": 65,
      "time": 183.889,
      "duration": 1.667,
      "velocity": 1,
      "hand": "right"
    },
    {
      "midi": 71,
      "time": 183.889,
      "duration": 1.667,
      "velocity": 1,
      "hand": "right"
    },
    {
      "midi": 50,
      "time": 184.444,
      "duration": 0.263,
      "velocity": 1,
      "hand": "left"
    },
    {
      "midi": 50,
      "time": 184.722,
      "duration": 0.818,
      "velocity": 1,
      "hand": "left"
    },
    {
      "midi": 42,
      "time": 185.555,
      "duration": 1.667,
      "velocity": 1,
      "hand": "left"
    },
    {
      "midi": 50,
      "time": 185.555,
      "duration": 0.833,
      "velocity": 1,
      "hand": "left"
    },
    {
      "midi": 66,
      "time": 185.555,
      "duration": 1.667,
      "velocity": 1,
      "hand": "right"
    },
    {
      "midi": 69,
      "time": 185.555,
      "duration": 1.667,
      "velocity": 1,
      "hand": "right"
    },
    {
      "midi": 51,
      "time": 186.389,
      "duration": 0.833,
      "velocity": 1,
      "hand": "left"
    },
    {
      "midi": 43,
      "time": 187.222,
      "duration": 1.667,
      "velocity": 1,
      "hand": "left"
    },
    {
      "midi": 57,
      "time": 187.222,
      "duration": 0.556,
      "velocity": 1,
      "hand": "left"
    },
    {
      "midi": 64,
      "time": 187.222,
      "duration": 1.667,
      "velocity": 1,
      "hand": "right"
    },
    {
      "midi": 55,
      "time": 187.778,
      "duration": 0.262,
      "velocity": 1,
      "hand": "left"
    },
    {
      "midi": 55,
      "time": 188.055,
      "duration": 0.819,
      "velocity": 1,
      "hand": "left"
    },
    {
      "midi": 45,
      "time": 188.889,
      "duration": 1.667,
      "velocity": 1,
      "hand": "left"
    },
    {
      "midi": 54,
      "time": 188.889,
      "duration": 0.556,
      "velocity": 1,
      "hand": "left"
    },
    {
      "midi": 61,
      "time": 188.889,
      "duration": 1.667,
      "velocity": 1,
      "hand": "right"
    },
    {
      "midi": 52,
      "time": 189.444,
      "duration": 0.263,
      "velocity": 1,
      "hand": "left"
    },
    {
      "midi": 52,
      "time": 189.722,
      "duration": 0.833,
      "velocity": 1,
      "hand": "left"
    },
    {
      "midi": 38,
      "time": 190.555,
      "duration": 1.667,
      "velocity": 1,
      "hand": "left"
    },
    {
      "midi": 46,
      "time": 190.555,
      "duration": 0.556,
      "velocity": 1,
      "hand": "left"
    },
    {
      "midi": 62,
      "time": 190.555,
      "duration": 1.652,
      "velocity": 1,
      "hand": "right"
    },
    {
      "midi": 45,
      "time": 191.111,
      "duration": 0.263,
      "velocity": 1,
      "hand": "left"
    },
    {
      "midi": 45,
      "time": 191.389,
      "duration": 0.833,
      "velocity": 1,
      "hand": "left"
    },
    {
      "midi": 54,
      "time": 192.222,
      "duration": 3.318,
      "velocity": 1,
      "hand": "left"
    },
    {
      "midi": 62,
      "time": 192.222,
      "duration": 0.833,
      "velocity": 1,
      "hand": "right"
    },
    {
      "midi": 66,
      "time": 192.222,
      "duration": 1.667,
      "velocity": 1,
      "hand": "right"
    },
    {
      "midi": 71,
      "time": 192.222,
      "duration": 0.833,
      "velocity": 1,
      "hand": "right"
    },
    {
      "midi": 61,
      "time": 193.055,
      "duration": 0.819,
      "velocity": 1,
      "hand": "right"
    },
    {
      "midi": 70,
      "time": 193.055,
      "duration": 0.833,
      "velocity": 1,
      "hand": "right"
    },
    {
      "midi": 59,
      "time": 193.889,
      "duration": 0.833,
      "velocity": 1,
      "hand": "left"
    },
    {
      "midi": 61,
      "time": 193.889,
      "duration": 1.667,
      "velocity": 1,
      "hand": "right"
    },
    {
      "midi": 67,
      "time": 193.889,
      "duration": 0.556,
      "velocity": 1,
      "hand": "right"
    },
    {
      "midi": 66,
      "time": 194.444,
      "duration": 0.263,
      "velocity": 1,
      "hand": "right"
    },
    {
      "midi": 58,
      "time": 194.722,
      "duration": 0.833,
      "velocity": 1,
      "hand": "left"
    },
    {
      "midi": 66,
      "time": 194.722,
      "duration": 0.818,
      "velocity": 1,
      "hand": "right"
    },
    {
      "midi": 54,
      "time": 195.555,
      "duration": 3.333,
      "velocity": 1,
      "hand": "left"
    },
    {
      "midi": 56,
      "time": 195.555,
      "duration": 0.833,
      "velocity": 1,
      "hand": "left"
    },
    {
      "midi": 64,
      "time": 195.555,
      "duration": 1.667,
      "velocity": 1,
      "hand": "right"
    },
    {
      "midi": 66,
      "time": 195.555,
      "duration": 1.652,
      "velocity": 1,
      "hand": "right"
    },
    {
      "midi": 74,
      "time": 195.555,
      "duration": 0.833,
      "velocity": 1,
      "hand": "right"
    },
    {
      "midi": 58,
      "time": 196.389,
      "duration": 0.833,
      "velocity": 1,
      "hand": "left"
    },
    {
      "midi": 73,
      "time": 196.389,
      "duration": 0.833,
      "velocity": 1,
      "hand": "right"
    },
    {
      "midi": 59,
      "time": 197.222,
      "duration": 0.556,
      "velocity": 1,
      "hand": "left"
    },
    {
      "midi": 62,
      "time": 197.222,
      "duration": 0.833,
      "velocity": 1,
      "hand": "right"
    },
    {
      "midi": 66,
      "time": 197.222,
      "duration": 0.818,
      "velocity": 1,
      "hand": "right"
    },
    {
      "midi": 71,
      "time": 197.222,
      "duration": 0.833,
      "velocity": 1,
      "hand": "right"
    },
    {
      "midi": 61,
      "time": 197.778,
      "duration": 0.262,
      "velocity": 1,
      "hand": "right"
    },
    {
      "midi": 61,
      "time": 198.055,
      "duration": 0.833,
      "velocity": 1,
      "hand": "right"
    },
    {
      "midi": 66,
      "time": 198.055,
      "duration": 0.819,
      "velocity": 1,
      "hand": "right"
    },
    {
      "midi": 70,
      "time": 198.055,
      "duration": 0.833,
      "velocity": 1,
      "hand": "right"
    },
    {
      "midi": 66,
      "time": 198.889,
      "duration": 3.318,
      "velocity": 1,
      "hand": "right"
    },
    {
      "midi": 74,
      "time": 198.889,
      "duration": 0.833,
      "velocity": 1,
      "hand": "right"
    },
    {
      "midi": 78,
      "time": 198.889,
      "duration": 1.667,
      "velocity": 1,
      "hand": "right"
    },
    {
      "midi": 83,
      "time": 198.889,
      "duration": 0.833,
      "velocity": 1,
      "hand": "right"
    },
    {
      "midi": 73,
      "time": 199.722,
      "duration": 0.818,
      "velocity": 1,
      "hand": "right"
    },
    {
      "midi": 82,
      "time": 199.722,
      "duration": 0.833,
      "velocity": 1,
      "hand": "right"
    },
    {
      "midi": 71,
      "time": 200.555,
      "duration": 0.833,
      "velocity": 1,
      "hand": "right"
    },
    {
      "midi": 73,
      "time": 200.555,
      "duration": 1.667,
      "velocity": 1,
      "hand": "right"
    },
    {
      "midi": 79,
      "time": 200.555,
      "duration": 0.556,
      "velocity": 1,
      "hand": "right"
    },
    {
      "midi": 78,
      "time": 201.111,
      "duration": 0.263,
      "velocity": 1,
      "hand": "right"
    },
    {
      "midi": 70,
      "time": 201.389,
      "duration": 0.833,
      "velocity": 1,
      "hand": "right"
    },
    {
      "midi": 78,
      "time": 201.389,
      "duration": 0.818,
      "velocity": 1,
      "hand": "right"
    },
    {
      "midi": 68,
      "time": 202.222,
      "duration": 0.833,
      "velocity": 1,
      "hand": "right"
    },
    {
      "midi": 74,
      "time": 202.222,
      "duration": 0.833,
      "velocity": 1,
      "hand": "right"
    },
    {
      "midi": 76,
      "time": 202.222,
      "duration": 1.667,
      "velocity": 1,
      "hand": "right"
    },
    {
      "midi": 78,
      "time": 202.222,
      "duration": 1.652,
      "velocity": 1,
      "hand": "right"
    },
    {
      "midi": 70,
      "time": 203.055,
      "duration": 0.833,
      "velocity": 1,
      "hand": "right"
    },
    {
      "midi": 73,
      "time": 203.055,
      "duration": 0.833,
      "velocity": 1,
      "hand": "right"
    },
    {
      "midi": 71,
      "time": 203.889,
      "duration": 0.556,
      "velocity": 1,
      "hand": "right"
    },
    {
      "midi": 74,
      "time": 203.889,
      "duration": 0.833,
      "velocity": 1,
      "hand": "right"
    },
    {
      "midi": 78,
      "time": 203.889,
      "duration": 0.818,
      "velocity": 1,
      "hand": "right"
    },
    {
      "midi": 83,
      "time": 203.889,
      "duration": 0.833,
      "velocity": 1,
      "hand": "right"
    },
    {
      "midi": 73,
      "time": 204.444,
      "duration": 0.263,
      "velocity": 1,
      "hand": "right"
    },
    {
      "midi": 73,
      "time": 204.722,
      "duration": 0.818,
      "velocity": 1,
      "hand": "right"
    },
    {
      "midi": 78,
      "time": 204.722,
      "duration": 0.833,
      "velocity": 1,
      "hand": "right"
    },
    {
      "midi": 82,
      "time": 204.722,
      "duration": 0.833,
      "velocity": 1,
      "hand": "right"
    },
    {
      "midi": 67,
      "time": 205.555,
      "duration": 0.833,
      "velocity": 1,
      "hand": "right"
    },
    {
      "midi": 73,
      "time": 205.555,
      "duration": 1.667,
      "velocity": 1,
      "hand": "right"
    },
    {
      "midi": 76,
      "time": 205.555,
      "duration": 1.667,
      "velocity": 1,
      "hand": "right"
    },
    {
      "midi": 83,
      "time": 205.555,
      "duration": 0.556,
      "velocity": 1,
      "hand": "right"
    },
    {
      "midi": 82,
      "time": 206.111,
      "duration": 0.263,
      "velocity": 1,
      "hand": "right"
    },
    {
      "midi": 66,
      "time": 206.389,
      "duration": 0.833,
      "velocity": 1,
      "hand": "right"
    },
    {
      "midi": 82,
      "time": 206.389,
      "duration": 0.833,
      "velocity": 1,
      "hand": "right"
    },
    {
      "midi": 67,
      "time": 207.222,
      "duration": 0.556,
      "velocity": 1,
      "hand": "right"
    },
    {
      "midi": 66,
      "time": 207.778,
      "duration": 0.262,
      "velocity": 1,
      "hand": "right"
    },
    {
      "midi": 66,
      "time": 208.055,
      "duration": 0.833,
      "velocity": 1,
      "hand": "right"
    },
    {
      "midi": 55,
      "time": 208.889,
      "duration": 0.833,
      "velocity": 1,
      "hand": "left"
    },
    {
      "midi": 61,
      "time": 208.889,
      "duration": 1.667,
      "velocity": 1,
      "hand": "right"
    },
    {
      "midi": 64,
      "time": 208.889,
      "duration": 1.667,
      "velocity": 1,
      "hand": "right"
    },
    {
      "midi": 71,
      "time": 208.889,
      "duration": 0.556,
      "velocity": 1,
      "hand": "right"
    },
    {
      "midi": 70,
      "time": 209.444,
      "duration": 0.263,
      "velocity": 1,
      "hand": "right"
    },
    {
      "midi": 54,
      "time": 209.722,
      "duration": 0.833,
      "velocity": 1,
      "hand": "left"
    },
    {
      "midi": 70,
      "time": 209.722,
      "duration": 0.833,
      "velocity": 1,
      "hand": "right"
    },
    {
      "midi": 55,
      "time": 210.555,
      "duration": 0.556,
      "velocity": 1,
      "hand": "left"
    },
    {
      "midi": 54,
      "time": 211.111,
      "duration": 0.263,
      "velocity": 1,
      "hand": "left"
    },
    {
      "midi": 54,
      "time": 211.389,
      "duration": 0.833,
      "velocity": 1,
      "hand": "left"
    },
    {
      "midi": 55,
      "time": 212.222,
      "duration": 0.556,
      "velocity": 1,
      "hand": "left"
    },
    {
      "midi": 54,
      "time": 212.778,
      "duration": 0.262,
      "velocity": 1,
      "hand": "left"
    },
    {
      "midi": 54,
      "time": 213.055,
      "duration": 0.833,
      "velocity": 1,
      "hand": "left"
    },
    {
      "midi": 55,
      "time": 213.889,
      "duration": 0.556,
      "velocity": 1,
      "hand": "left"
    },
    {
      "midi": 54,
      "time": 214.444,
      "duration": 0.263,
      "velocity": 1,
      "hand": "left"
    },
    {
      "midi": 54,
      "time": 214.722,
      "duration": 0.278,
      "velocity": 1,
      "hand": "left"
    },
    {
      "midi": 62,
      "time": 215,
      "duration": 0.278,
      "velocity": 1,
      "hand": "right"
    },
    {
      "midi": 66,
      "time": 215,
      "duration": 0.278,
      "velocity": 1,
      "hand": "right"
    },
    {
      "midi": 71,
      "time": 215,
      "duration": 0.278,
      "velocity": 1,
      "hand": "right"
    },
    {
      "midi": 61,
      "time": 215.278,
      "duration": 0.278,
      "velocity": 1,
      "hand": "right"
    },
    {
      "midi": 65,
      "time": 215.278,
      "duration": 0.278,
      "velocity": 1,
      "hand": "right"
    },
    {
      "midi": 62,
      "time": 215.555,
      "duration": 0.556,
      "velocity": 1,
      "hand": "right"
    },
    {
      "midi": 66,
      "time": 215.555,
      "duration": 0.556,
      "velocity": 1,
      "hand": "right"
    },
    {
      "midi": 71,
      "time": 215.555,
      "duration": 0.556,
      "velocity": 1,
      "hand": "right"
    },
    {
      "midi": 47,
      "time": 215.833,
      "duration": 0.278,
      "velocity": 1,
      "hand": "left"
    },
    {
      "midi": 61,
      "time": 216.111,
      "duration": 0.278,
      "velocity": 1,
      "hand": "right"
    },
    {
      "midi": 64,
      "time": 216.111,
      "duration": 0.278,
      "velocity": 1,
      "hand": "right"
    },
    {
      "midi": 70,
      "time": 216.111,
      "duration": 0.278,
      "velocity": 1,
      "hand": "right"
    },
    {
      "midi": 47,
      "time": 216.389,
      "duration": 0.278,
      "velocity": 1,
      "hand": "left"
    },
    {
      "midi": 59,
      "time": 216.666,
      "duration": 0.278,
      "velocity": 1,
      "hand": "left"
    },
    {
      "midi": 62,
      "time": 216.666,
      "duration": 0.278,
      "velocity": 1,
      "hand": "right"
    },
    {
      "midi": 67,
      "time": 216.666,
      "duration": 0.278,
      "velocity": 1,
      "hand": "right"
    },
    {
      "midi": 58,
      "time": 216.944,
      "duration": 0.278,
      "velocity": 1,
      "hand": "left"
    },
    {
      "midi": 61,
      "time": 216.944,
      "duration": 0.278,
      "velocity": 1,
      "hand": "right"
    },
    {
      "midi": 59,
      "time": 217.222,
      "duration": 0.556,
      "velocity": 1,
      "hand": "left"
    },
    {
      "midi": 62,
      "time": 217.222,
      "duration": 0.556,
      "velocity": 1,
      "hand": "right"
    },
    {
      "midi": 67,
      "time": 217.222,
      "duration": 0.556,
      "velocity": 1,
      "hand": "right"
    },
    {
      "midi": 47,
      "time": 217.5,
      "duration": 0.278,
      "velocity": 1,
      "hand": "left"
    },
    {
      "midi": 58,
      "time": 217.778,
      "duration": 0.278,
      "velocity": 1,
      "hand": "left"
    },
    {
      "midi": 61,
      "time": 217.778,
      "duration": 0.278,
      "velocity": 1,
      "hand": "right"
    },
    {
      "midi": 66,
      "time": 217.778,
      "duration": 0.278,
      "velocity": 1,
      "hand": "right"
    },
    {
      "midi": 47,
      "time": 218.055,
      "duration": 0.278,
      "velocity": 1,
      "hand": "left"
    },
    {
      "midi": 57,
      "time": 218.333,
      "duration": 0.278,
      "velocity": 1,
      "hand": "left"
    },
    {
      "midi": 60,
      "time": 218.333,
      "duration": 0.278,
      "velocity": 1,
      "hand": "right"
    },
    {
      "midi": 66,
      "time": 218.333,
      "duration": 0.278,
      "velocity": 1,
      "hand": "right"
    },
    {
      "midi": 56,
      "time": 218.611,
      "duration": 0.278,
      "velocity": 1,
      "hand": "left"
    },
    {
      "midi": 59,
      "time": 218.611,
      "duration": 0.278,
      "velocity": 1,
      "hand": "left"
    },
    {
      "midi": 57,
      "time": 218.889,
      "duration": 0.556,
      "velocity": 1,
      "hand": "left"
    },
    {
      "midi": 60,
      "time": 218.889,
      "duration": 0.556,
      "velocity": 1,
      "hand": "right"
    },
    {
      "midi": 66,
      "time": 218.889,
      "duration": 0.556,
      "velocity": 1,
      "hand": "right"
    },
    {
      "midi": 47,
      "time": 219.166,
      "duration": 0.278,
      "velocity": 1,
      "hand": "left"
    },
    {
      "midi": 56,
      "time": 219.444,
      "duration": 0.278,
      "velocity": 1,
      "hand": "left"
    },
    {
      "midi": 59,
      "time": 219.444,
      "duration": 0.278,
      "velocity": 1,
      "hand": "left"
    },
    {
      "midi": 64,
      "time": 219.444,
      "duration": 0.278,
      "velocity": 1,
      "hand": "right"
    },
    {
      "midi": 47,
      "time": 219.722,
      "duration": 0.278,
      "velocity": 1,
      "hand": "left"
    },
    {
      "midi": 55,
      "time": 220,
      "duration": 0.278,
      "velocity": 1,
      "hand": "left"
    },
    {
      "midi": 58,
      "time": 220,
      "duration": 0.278,
      "velocity": 1,
      "hand": "left"
    },
    {
      "midi": 64,
      "time": 220,
      "duration": 0.278,
      "velocity": 1,
      "hand": "right"
    },
    {
      "midi": 47,
      "time": 220.278,
      "duration": 0.278,
      "velocity": 1,
      "hand": "left"
    },
    {
      "midi": 54,
      "time": 220.555,
      "duration": 0.278,
      "velocity": 1,
      "hand": "left"
    },
    {
      "midi": 58,
      "time": 220.555,
      "duration": 0.278,
      "velocity": 1,
      "hand": "left"
    },
    {
      "midi": 62,
      "time": 220.555,
      "duration": 0.278,
      "velocity": 1,
      "hand": "right"
    },
    {
      "midi": 47,
      "time": 220.833,
      "duration": 0.278,
      "velocity": 1,
      "hand": "left"
    },
    {
      "midi": 52,
      "time": 221.111,
      "duration": 0.278,
      "velocity": 1,
      "hand": "left"
    },
    {
      "midi": 58,
      "time": 221.111,
      "duration": 0.278,
      "velocity": 1,
      "hand": "left"
    },
    {
      "midi": 61,
      "time": 221.111,
      "duration": 0.278,
      "velocity": 1,
      "hand": "right"
    },
    {
      "midi": 47,
      "time": 221.389,
      "duration": 0.278,
      "velocity": 1,
      "hand": "left"
    },
    {
      "midi": 50,
      "time": 221.389,
      "duration": 0.278,
      "velocity": 1,
      "hand": "left"
    },
    {
      "midi": 53,
      "time": 221.666,
      "duration": 0.278,
      "velocity": 1,
      "hand": "left"
    },
    {
      "midi": 54,
      "time": 221.944,
      "duration": 0.278,
      "velocity": 1,
      "hand": "left"
    },
    {
      "midi": 55,
      "time": 222.222,
      "duration": 0.833,
      "velocity": 1,
      "hand": "left"
    },
    {
      "midi": 62,
      "time": 222.5,
      "duration": 0.278,
      "velocity": 1,
      "hand": "right"
    },
    {
      "midi": 71,
      "time": 222.5,
      "duration": 0.263,
      "velocity": 1,
      "hand": "right"
    },
    {
      "midi": 74,
      "time": 222.5,
      "duration": 0.263,
      "velocity": 1,
      "hand": "right"
    },
    {
      "midi": 64,
      "time": 222.778,
      "duration": 0.278,
      "velocity": 1,
      "hand": "right"
    },
    {
      "midi": 71,
      "time": 222.778,
      "duration": 0.262,
      "velocity": 1,
      "hand": "right"
    },
    {
      "midi": 74,
      "time": 222.778,
      "duration": 0.262,
      "velocity": 1,
      "hand": "right"
    },
    {
      "midi": 43,
      "time": 223.055,
      "duration": 0.278,
      "velocity": 1,
      "hand": "left"
    },
    {
      "midi": 65,
      "time": 223.055,
      "duration": 0.278,
      "velocity": 1,
      "hand": "right"
    },
    {
      "midi": 71,
      "time": 223.055,
      "duration": 0.278,
      "velocity": 1,
      "hand": "right"
    },
    {
      "midi": 74,
      "time": 223.055,
      "duration": 0.278,
      "velocity": 1,
      "hand": "right"
    },
    {
      "midi": 45,
      "time": 223.333,
      "duration": 0.278,
      "velocity": 1,
      "hand": "left"
    },
    {
      "midi": 43,
      "time": 223.611,
      "duration": 0.278,
      "velocity": 1,
      "hand": "left"
    },
    {
      "midi": 42,
      "time": 223.889,
      "duration": 0.833,
      "velocity": 1,
      "hand": "left"
    },
    {
      "midi": 56,
      "time": 224.166,
      "duration": 0.278,
      "velocity": 1,
      "hand": "left"
    },
    {
      "midi": 59,
      "time": 224.166,
      "duration": 0.278,
      "velocity": 1,
      "hand": "left"
    },
    {
      "midi": 66,
      "time": 224.166,
      "duration": 0.278,
      "velocity": 1,
      "hand": "right"
    },
    {
      "midi": 58,
      "time": 224.444,
      "duration": 0.278,
      "velocity": 1,
      "hand": "left"
    },
    {
      "midi": 61,
      "time": 224.444,
      "duration": 0.278,
      "velocity": 1,
      "hand": "right"
    },
    {
      "midi": 64,
      "time": 224.444,
      "duration": 0.278,
      "velocity": 1,
      "hand": "right"
    },
    {
      "midi": 47,
      "time": 224.722,
      "duration": 0.278,
      "velocity": 1,
      "hand": "left"
    },
    {
      "midi": 59,
      "time": 224.722,
      "duration": 0.278,
      "velocity": 1,
      "hand": "left"
    },
    {
      "midi": 62,
      "time": 224.722,
      "duration": 0.278,
      "velocity": 1,
      "hand": "right"
    },
    {
      "midi": 53,
      "time": 225,
      "duration": 0.278,
      "velocity": 1,
      "hand": "left"
    },
    {
      "midi": 54,
      "time": 225.278,
      "duration": 0.278,
      "velocity": 1,
      "hand": "left"
    },
    {
      "midi": 55,
      "time": 225.555,
      "duration": 0.833,
      "velocity": 1,
      "hand": "left"
    },
    {
      "midi": 62,
      "time": 225.833,
      "duration": 0.278,
      "velocity": 1,
      "hand": "right"
    },
    {
      "midi": 71,
      "time": 225.833,
      "duration": 0.263,
      "velocity": 1,
      "hand": "right"
    },
    {
      "midi": 74,
      "time": 225.833,
      "duration": 0.263,
      "velocity": 1,
      "hand": "right"
    },
    {
      "midi": 64,
      "time": 226.111,
      "duration": 0.278,
      "velocity": 1,
      "hand": "right"
    },
    {
      "midi": 71,
      "time": 226.111,
      "duration": 0.263,
      "velocity": 1,
      "hand": "right"
    },
    {
      "midi": 74,
      "time": 226.111,
      "duration": 0.263,
      "velocity": 1,
      "hand": "right"
    },
    {
      "midi": 43,
      "time": 226.389,
      "duration": 0.278,
      "velocity": 1,
      "hand": "left"
    },
    {
      "midi": 65,
      "time": 226.389,
      "duration": 0.278,
      "velocity": 1,
      "hand": "right"
    },
    {
      "midi": 71,
      "time": 226.389,
      "duration": 0.278,
      "velocity": 1,
      "hand": "right"
    },
    {
      "midi": 74,
      "time": 226.389,
      "duration": 0.278,
      "velocity": 1,
      "hand": "right"
    },
    {
      "midi": 45,
      "time": 226.666,
      "duration": 0.278,
      "velocity": 1,
      "hand": "left"
    },
    {
      "midi": 43,
      "time": 226.944,
      "duration": 0.278,
      "velocity": 1,
      "hand": "left"
    },
    {
      "midi": 42,
      "time": 227.222,
      "duration": 0.833,
      "velocity": 1,
      "hand": "left"
    },
    {
      "midi": 56,
      "time": 227.5,
      "duration": 0.278,
      "velocity": 1,
      "hand": "left"
    },
    {
      "midi": 59,
      "time": 227.5,
      "duration": 0.278,
      "velocity": 1,
      "hand": "left"
    },
    {
      "midi": 66,
      "time": 227.5,
      "duration": 0.278,
      "velocity": 1,
      "hand": "right"
    },
    {
      "midi": 58,
      "time": 227.778,
      "duration": 0.278,
      "velocity": 1,
      "hand": "left"
    },
    {
      "midi": 61,
      "time": 227.778,
      "duration": 0.278,
      "velocity": 1,
      "hand": "right"
    },
    {
      "midi": 64,
      "time": 227.778,
      "duration": 0.278,
      "velocity": 1,
      "hand": "right"
    },
    {
      "midi": 47,
      "time": 228.055,
      "duration": 0.278,
      "velocity": 1,
      "hand": "left"
    },
    {
      "midi": 59,
      "time": 228.055,
      "duration": 0.278,
      "velocity": 1,
      "hand": "left"
    },
    {
      "midi": 62,
      "time": 228.055,
      "duration": 0.263,
      "velocity": 1,
      "hand": "right"
    },
    {
      "midi": 62,
      "time": 228.333,
      "duration": 0.278,
      "velocity": 1,
      "hand": "right"
    },
    {
      "midi": 66,
      "time": 228.333,
      "duration": 0.278,
      "velocity": 1,
      "hand": "right"
    },
    {
      "midi": 71,
      "time": 228.333,
      "duration": 0.278,
      "velocity": 1,
      "hand": "right"
    },
    {
      "midi": 61,
      "time": 228.611,
      "duration": 0.278,
      "velocity": 1,
      "hand": "right"
    },
    {
      "midi": 65,
      "time": 228.611,
      "duration": 0.278,
      "velocity": 1,
      "hand": "right"
    },
    {
      "midi": 62,
      "time": 228.889,
      "duration": 0.556,
      "velocity": 1,
      "hand": "right"
    },
    {
      "midi": 66,
      "time": 228.889,
      "duration": 0.556,
      "velocity": 1,
      "hand": "right"
    },
    {
      "midi": 71,
      "time": 228.889,
      "duration": 0.556,
      "velocity": 1,
      "hand": "right"
    },
    {
      "midi": 47,
      "time": 229.166,
      "duration": 0.278,
      "velocity": 1,
      "hand": "left"
    },
    {
      "midi": 61,
      "time": 229.444,
      "duration": 0.278,
      "velocity": 1,
      "hand": "right"
    },
    {
      "midi": 64,
      "time": 229.444,
      "duration": 0.278,
      "velocity": 1,
      "hand": "right"
    },
    {
      "midi": 70,
      "time": 229.444,
      "duration": 0.278,
      "velocity": 1,
      "hand": "right"
    },
    {
      "midi": 47,
      "time": 229.722,
      "duration": 0.278,
      "velocity": 1,
      "hand": "left"
    },
    {
      "midi": 59,
      "time": 230,
      "duration": 0.278,
      "velocity": 1,
      "hand": "left"
    },
    {
      "midi": 62,
      "time": 230,
      "duration": 0.278,
      "velocity": 1,
      "hand": "right"
    },
    {
      "midi": 67,
      "time": 230,
      "duration": 0.278,
      "velocity": 1,
      "hand": "right"
    },
    {
      "midi": 58,
      "time": 230.278,
      "duration": 0.278,
      "velocity": 1,
      "hand": "left"
    },
    {
      "midi": 61,
      "time": 230.278,
      "duration": 0.278,
      "velocity": 1,
      "hand": "right"
    },
    {
      "midi": 59,
      "time": 230.555,
      "duration": 0.556,
      "velocity": 1,
      "hand": "left"
    },
    {
      "midi": 62,
      "time": 230.555,
      "duration": 0.556,
      "velocity": 1,
      "hand": "right"
    },
    {
      "midi": 67,
      "time": 230.555,
      "duration": 0.556,
      "velocity": 1,
      "hand": "right"
    },
    {
      "midi": 47,
      "time": 230.833,
      "duration": 0.278,
      "velocity": 1,
      "hand": "left"
    },
    {
      "midi": 58,
      "time": 231.111,
      "duration": 0.278,
      "velocity": 1,
      "hand": "left"
    },
    {
      "midi": 61,
      "time": 231.111,
      "duration": 0.278,
      "velocity": 1,
      "hand": "right"
    },
    {
      "midi": 66,
      "time": 231.111,
      "duration": 0.278,
      "velocity": 1,
      "hand": "right"
    },
    {
      "midi": 47,
      "time": 231.389,
      "duration": 0.278,
      "velocity": 1,
      "hand": "left"
    },
    {
      "midi": 57,
      "time": 231.666,
      "duration": 0.278,
      "velocity": 1,
      "hand": "left"
    },
    {
      "midi": 60,
      "time": 231.666,
      "duration": 0.278,
      "velocity": 1,
      "hand": "right"
    },
    {
      "midi": 66,
      "time": 231.666,
      "duration": 0.278,
      "velocity": 1,
      "hand": "right"
    },
    {
      "midi": 56,
      "time": 231.944,
      "duration": 0.278,
      "velocity": 1,
      "hand": "left"
    },
    {
      "midi": 59,
      "time": 231.944,
      "duration": 0.278,
      "velocity": 1,
      "hand": "left"
    },
    {
      "midi": 57,
      "time": 232.222,
      "duration": 0.556,
      "velocity": 1,
      "hand": "left"
    },
    {
      "midi": 60,
      "time": 232.222,
      "duration": 0.556,
      "velocity": 1,
      "hand": "right"
    },
    {
      "midi": 66,
      "time": 232.222,
      "duration": 0.556,
      "velocity": 1,
      "hand": "right"
    },
    {
      "midi": 47,
      "time": 232.5,
      "duration": 0.278,
      "velocity": 1,
      "hand": "left"
    },
    {
      "midi": 56,
      "time": 232.778,
      "duration": 0.278,
      "velocity": 1,
      "hand": "left"
    },
    {
      "midi": 59,
      "time": 232.778,
      "duration": 0.278,
      "velocity": 1,
      "hand": "left"
    },
    {
      "midi": 64,
      "time": 232.778,
      "duration": 0.278,
      "velocity": 1,
      "hand": "right"
    },
    {
      "midi": 47,
      "time": 233.055,
      "duration": 0.278,
      "velocity": 1,
      "hand": "left"
    },
    {
      "midi": 55,
      "time": 233.333,
      "duration": 0.278,
      "velocity": 1,
      "hand": "left"
    },
    {
      "midi": 58,
      "time": 233.333,
      "duration": 0.278,
      "velocity": 1,
      "hand": "left"
    },
    {
      "midi": 64,
      "time": 233.333,
      "duration": 0.278,
      "velocity": 1,
      "hand": "right"
    },
    {
      "midi": 47,
      "time": 233.611,
      "duration": 0.278,
      "velocity": 1,
      "hand": "left"
    },
    {
      "midi": 54,
      "time": 233.889,
      "duration": 0.278,
      "velocity": 1,
      "hand": "left"
    },
    {
      "midi": 58,
      "time": 233.889,
      "duration": 0.278,
      "velocity": 1,
      "hand": "left"
    },
    {
      "midi": 62,
      "time": 233.889,
      "duration": 0.278,
      "velocity": 1,
      "hand": "right"
    },
    {
      "midi": 47,
      "time": 234.166,
      "duration": 0.278,
      "velocity": 1,
      "hand": "left"
    },
    {
      "midi": 52,
      "time": 234.444,
      "duration": 0.278,
      "velocity": 1,
      "hand": "left"
    },
    {
      "midi": 58,
      "time": 234.444,
      "duration": 0.278,
      "velocity": 1,
      "hand": "left"
    },
    {
      "midi": 61,
      "time": 234.444,
      "duration": 0.278,
      "velocity": 1,
      "hand": "right"
    },
    {
      "midi": 47,
      "time": 234.722,
      "duration": 0.278,
      "velocity": 1,
      "hand": "left"
    },
    {
      "midi": 50,
      "time": 234.722,
      "duration": 0.278,
      "velocity": 1,
      "hand": "left"
    },
    {
      "midi": 53,
      "time": 235,
      "duration": 0.278,
      "velocity": 1,
      "hand": "left"
    },
    {
      "midi": 54,
      "time": 235.278,
      "duration": 0.278,
      "velocity": 1,
      "hand": "left"
    },
    {
      "midi": 55,
      "time": 235.555,
      "duration": 0.833,
      "velocity": 1,
      "hand": "left"
    },
    {
      "midi": 62,
      "time": 235.833,
      "duration": 0.278,
      "velocity": 1,
      "hand": "right"
    },
    {
      "midi": 71,
      "time": 235.833,
      "duration": 0.263,
      "velocity": 1,
      "hand": "right"
    },
    {
      "midi": 74,
      "time": 235.833,
      "duration": 0.263,
      "velocity": 1,
      "hand": "right"
    },
    {
      "midi": 64,
      "time": 236.111,
      "duration": 0.278,
      "velocity": 1,
      "hand": "right"
    },
    {
      "midi": 71,
      "time": 236.111,
      "duration": 0.263,
      "velocity": 1,
      "hand": "right"
    },
    {
      "midi": 74,
      "time": 236.111,
      "duration": 0.263,
      "velocity": 1,
      "hand": "right"
    },
    {
      "midi": 43,
      "time": 236.389,
      "duration": 0.278,
      "velocity": 1,
      "hand": "left"
    },
    {
      "midi": 65,
      "time": 236.389,
      "duration": 0.278,
      "velocity": 1,
      "hand": "right"
    },
    {
      "midi": 71,
      "time": 236.389,
      "duration": 0.278,
      "velocity": 1,
      "hand": "right"
    },
    {
      "midi": 74,
      "time": 236.389,
      "duration": 0.278,
      "velocity": 1,
      "hand": "right"
    },
    {
      "midi": 45,
      "time": 236.666,
      "duration": 0.278,
      "velocity": 1,
      "hand": "left"
    },
    {
      "midi": 43,
      "time": 236.944,
      "duration": 0.278,
      "velocity": 1,
      "hand": "left"
    },
    {
      "midi": 42,
      "time": 237.222,
      "duration": 0.833,
      "velocity": 1,
      "hand": "left"
    },
    {
      "midi": 56,
      "time": 237.5,
      "duration": 0.278,
      "velocity": 1,
      "hand": "left"
    },
    {
      "midi": 59,
      "time": 237.5,
      "duration": 0.278,
      "velocity": 1,
      "hand": "left"
    },
    {
      "midi": 66,
      "time": 237.5,
      "duration": 0.278,
      "velocity": 1,
      "hand": "right"
    },
    {
      "midi": 58,
      "time": 237.778,
      "duration": 0.278,
      "velocity": 1,
      "hand": "left"
    },
    {
      "midi": 61,
      "time": 237.778,
      "duration": 0.278,
      "velocity": 1,
      "hand": "right"
    },
    {
      "midi": 64,
      "time": 237.778,
      "duration": 0.278,
      "velocity": 1,
      "hand": "right"
    },
    {
      "midi": 47,
      "time": 238.055,
      "duration": 0.278,
      "velocity": 1,
      "hand": "left"
    },
    {
      "midi": 59,
      "time": 238.055,
      "duration": 0.278,
      "velocity": 1,
      "hand": "left"
    },
    {
      "midi": 62,
      "time": 238.055,
      "duration": 0.278,
      "velocity": 1,
      "hand": "right"
    },
    {
      "midi": 53,
      "time": 238.333,
      "duration": 0.278,
      "velocity": 1,
      "hand": "left"
    },
    {
      "midi": 54,
      "time": 238.611,
      "duration": 0.278,
      "velocity": 1,
      "hand": "left"
    },
    {
      "midi": 55,
      "time": 238.889,
      "duration": 0.818,
      "velocity": 1,
      "hand": "left"
    },
    {
      "midi": 62,
      "time": 239.166,
      "duration": 0.278,
      "velocity": 1,
      "hand": "right"
    },
    {
      "midi": 71,
      "time": 239.166,
      "duration": 0.263,
      "velocity": 1,
      "hand": "right"
    },
    {
      "midi": 74,
      "time": 239.166,
      "duration": 0.263,
      "velocity": 1,
      "hand": "right"
    },
    {
      "midi": 64,
      "time": 239.444,
      "duration": 0.278,
      "velocity": 1,
      "hand": "right"
    },
    {
      "midi": 71,
      "time": 239.444,
      "duration": 0.263,
      "velocity": 1,
      "hand": "right"
    },
    {
      "midi": 74,
      "time": 239.444,
      "duration": 0.263,
      "velocity": 1,
      "hand": "right"
    },
    {
      "midi": 55,
      "time": 239.722,
      "duration": 0.278,
      "velocity": 1,
      "hand": "left"
    },
    {
      "midi": 65,
      "time": 239.722,
      "duration": 0.541,
      "velocity": 1,
      "hand": "right"
    },
    {
      "midi": 71,
      "time": 239.722,
      "duration": 0.541,
      "velocity": 1,
      "hand": "right"
    },
    {
      "midi": 74,
      "time": 239.722,
      "duration": 0.556,
      "velocity": 1,
      "hand": "right"
    },
    {
      "midi": 56,
      "time": 240,
      "duration": 0.556,
      "velocity": 1,
      "hand": "left"
    },
    {
      "midi": 65,
      "time": 240.278,
      "duration": 0.556,
      "velocity": 1,
      "hand": "right"
    },
    {
      "midi": 71,
      "time": 240.278,
      "duration": 0.54,
      "velocity": 1,
      "hand": "right"
    },
    {
      "midi": 73,
      "time": 240.278,
      "duration": 0.54,
      "velocity": 1,
      "hand": "right"
    },
    {
      "midi": 61,
      "time": 240.555,
      "duration": 0.556,
      "velocity": 1,
      "hand": "right"
    },
    {
      "midi": 71,
      "time": 240.833,
      "duration": 0.556,
      "velocity": 1,
      "hand": "right"
    },
    {
      "midi": 73,
      "time": 240.833,
      "duration": 0.541,
      "velocity": 1,
      "hand": "right"
    },
    {
      "midi": 77,
      "time": 240.833,
      "duration": 0.556,
      "velocity": 1,
      "hand": "right"
    },
    {
      "midi": 68,
      "time": 241.111,
      "duration": 0.278,
      "velocity": 1,
      "hand": "right"
    },
    {
      "midi": 66,
      "time": 241.389,
      "duration": 0.278,
      "velocity": 1,
      "hand": "right"
    },
    {
      "midi": 70,
      "time": 241.389,
      "duration": 0.278,
      "velocity": 1,
      "hand": "right"
    },
    {
      "midi": 73,
      "time": 241.389,
      "duration": 0.278,
      "velocity": 1,
      "hand": "right"
    },
    {
      "midi": 78,
      "time": 241.389,
      "duration": 0.262,
      "velocity": 1,
      "hand": "right"
    },
    {
      "midi": 74,
      "time": 241.666,
      "duration": 0.278,
      "velocity": 1,
      "hand": "right"
    },
    {
      "midi": 78,
      "time": 241.666,
      "duration": 0.278,
      "velocity": 1,
      "hand": "right"
    },
    {
      "midi": 83,
      "time": 241.666,
      "duration": 0.278,
      "velocity": 1,
      "hand": "right"
    },
    {
      "midi": 73,
      "time": 241.944,
      "duration": 0.278,
      "velocity": 1,
      "hand": "right"
    },
    {
      "midi": 77,
      "time": 241.944,
      "duration": 0.278,
      "velocity": 1,
      "hand": "right"
    },
    {
      "midi": 74,
      "time": 242.222,
      "duration": 0.556,
      "velocity": 1,
      "hand": "right"
    },
    {
      "midi": 78,
      "time": 242.222,
      "duration": 0.556,
      "velocity": 1,
      "hand": "right"
    },
    {
      "midi": 83,
      "time": 242.222,
      "duration": 0.556,
      "velocity": 1,
      "hand": "right"
    },
    {
      "midi": 66,
      "time": 242.5,
      "duration": 0.278,
      "velocity": 1,
      "hand": "right"
    },
    {
      "midi": 73,
      "time": 242.778,
      "duration": 0.278,
      "velocity": 1,
      "hand": "right"
    },
    {
      "midi": 76,
      "time": 242.778,
      "duration": 0.278,
      "velocity": 1,
      "hand": "right"
    },
    {
      "midi": 82,
      "time": 242.778,
      "duration": 0.278,
      "velocity": 1,
      "hand": "right"
    },
    {
      "midi": 66,
      "time": 243.055,
      "duration": 1.096,
      "velocity": 1,
      "hand": "right"
    },
    {
      "midi": 71,
      "time": 243.333,
      "duration": 0.278,
      "velocity": 1,
      "hand": "right"
    },
    {
      "midi": 74,
      "time": 243.333,
      "duration": 0.278,
      "velocity": 1,
      "hand": "right"
    },
    {
      "midi": 79,
      "time": 243.333,
      "duration": 0.278,
      "velocity": 1,
      "hand": "right"
    },
    {
      "midi": 70,
      "time": 243.611,
      "duration": 0.278,
      "velocity": 1,
      "hand": "right"
    },
    {
      "midi": 73,
      "time": 243.611,
      "duration": 0.278,
      "velocity": 1,
      "hand": "right"
    },
    {
      "midi": 71,
      "time": 243.889,
      "duration": 0.556,
      "velocity": 1,
      "hand": "right"
    },
    {
      "midi": 74,
      "time": 243.889,
      "duration": 0.556,
      "velocity": 1,
      "hand": "right"
    },
    {
      "midi": 79,
      "time": 243.889,
      "duration": 0.556,
      "velocity": 1,
      "hand": "right"
    },
    {
      "midi": 66,
      "time": 244.166,
      "duration": 0.541,
      "velocity": 1,
      "hand": "right"
    },
    {
      "midi": 70,
      "time": 244.444,
      "duration": 0.278,
      "velocity": 1,
      "hand": "right"
    },
    {
      "midi": 73,
      "time": 244.444,
      "duration": 0.278,
      "velocity": 1,
      "hand": "right"
    },
    {
      "midi": 78,
      "time": 244.444,
      "duration": 0.278,
      "velocity": 1,
      "hand": "right"
    },
    {
      "midi": 66,
      "time": 244.722,
      "duration": 0.278,
      "velocity": 1,
      "hand": "right"
    },
    {
      "midi": 64,
      "time": 245,
      "duration": 0.818,
      "velocity": 1,
      "hand": "right"
    },
    {
      "midi": 69,
      "time": 245,
      "duration": 0.833,
      "velocity": 1,
      "hand": "right"
    },
    {
      "midi": 72,
      "time": 245,
      "duration": 0.278,
      "velocity": 1,
      "hand": "right"
    },
    {
      "midi": 78,
      "time": 245,
      "duration": 0.278,
      "velocity": 1,
      "hand": "right"
    },
    {
      "midi": 71,
      "time": 245.278,
      "duration": 0.278,
      "velocity": 1,
      "hand": "right"
    },
    {
      "midi": 72,
      "time": 245.555,
      "duration": 0.263,
      "velocity": 1,
      "hand": "right"
    },
    {
      "midi": 78,
      "time": 245.555,
      "duration": 0.278,
      "velocity": 1,
      "hand": "right"
    },
    {
      "midi": 57,
      "time": 245.833,
      "duration": 0.818,
      "velocity": 1,
      "hand": "left"
    },
    {
      "midi": 64,
      "time": 245.833,
      "duration": 0.818,
      "velocity": 1,
      "hand": "right"
    },
    {
      "midi": 66,
      "time": 245.833,
      "duration": 0.278,
      "velocity": 1,
      "hand": "right"
    },
    {
      "midi": 72,
      "time": 245.833,
      "duration": 0.278,
      "velocity": 1,
      "hand": "right"
    },
    {
      "midi": 65,
      "time": 246.111,
      "duration": 0.278,
      "velocity": 1,
      "hand": "right"
    },
    {
      "midi": 66,
      "time": 246.389,
      "duration": 0.278,
      "velocity": 1,
      "hand": "right"
    },
    {
      "midi": 72,
      "time": 246.389,
      "duration": 0.278,
      "velocity": 1,
      "hand": "right"
    },
    {
      "midi": 54,
      "time": 246.666,
      "duration": 0.833,
      "velocity": 1,
      "hand": "left"
    },
    {
      "midi": 57,
      "time": 246.666,
      "duration": 0.833,
      "velocity": 1,
      "hand": "left"
    },
    {
      "midi": 60,
      "time": 246.666,
      "duration": 0.278,
      "velocity": 1,
      "hand": "right"
    },
    {
      "midi": 64,
      "time": 246.666,
      "duration": 0.278,
      "velocity": 1,
      "hand": "right"
    },
    {
      "midi": 59,
      "time": 246.944,
      "duration": 0.278,
      "velocity": 1,
      "hand": "left"
    },
    {
      "midi": 60,
      "time": 247.222,
      "duration": 0.278,
      "velocity": 1,
      "hand": "right"
    },
    {
      "midi": 64,
      "time": 247.222,
      "duration": 0.278,
      "velocity": 1,
      "hand": "right"
    },
    {
      "midi": 48,
      "time": 247.5,
      "duration": 0.278,
      "velocity": 1,
      "hand": "left"
    },
    {
      "midi": 47,
      "time": 247.778,
      "duration": 0.278,
      "velocity": 1,
      "hand": "left"
    },
    {
      "midi": 54,
      "time": 247.778,
      "duration": 0.278,
      "velocity": 1,
      "hand": "left"
    },
    {
      "midi": 63,
      "time": 247.778,
      "duration": 0.278,
      "velocity": 1,
      "hand": "right"
    },
    {
      "midi": 52,
      "time": 248.055,
      "duration": 0.278,
      "velocity": 1,
      "hand": "left"
    },
    {
      "midi": 55,
      "time": 248.055,
      "duration": 0.278,
      "velocity": 1,
      "hand": "left"
    },
    {
      "midi": 64,
      "time": 248.055,
      "duration": 0.278,
      "velocity": 1,
      "hand": "right"
    },
    {
      "midi": 76,
      "time": 248.333,
      "duration": 0.278,
      "velocity": 1,
      "hand": "right"
    },
    {
      "midi": 79,
      "time": 248.333,
      "duration": 0.278,
      "velocity": 1,
      "hand": "right"
    },
    {
      "midi": 83,
      "time": 248.333,
      "duration": 0.278,
      "velocity": 1,
      "hand": "right"
    },
    {
      "midi": 78,
      "time": 248.611,
      "duration": 0.278,
      "velocity": 1,
      "hand": "right"
    },
    {
      "midi": 82,
      "time": 248.611,
      "duration": 0.278,
      "velocity": 1,
      "hand": "right"
    },
    {
      "midi": 76,
      "time": 248.889,
      "duration": 0.556,
      "velocity": 1,
      "hand": "right"
    },
    {
      "midi": 79,
      "time": 248.889,
      "duration": 0.556,
      "velocity": 1,
      "hand": "right"
    },
    {
      "midi": 83,
      "time": 248.889,
      "duration": 0.556,
      "velocity": 1,
      "hand": "right"
    },
    {
      "midi": 71,
      "time": 249.166,
      "duration": 0.278,
      "velocity": 1,
      "hand": "right"
    },
    {
      "midi": 75,
      "time": 249.444,
      "duration": 0.278,
      "velocity": 1,
      "hand": "right"
    },
    {
      "midi": 78,
      "time": 249.444,
      "duration": 0.278,
      "velocity": 1,
      "hand": "right"
    },
    {
      "midi": 81,
      "time": 249.444,
      "duration": 0.278,
      "velocity": 1,
      "hand": "right"
    },
    {
      "midi": 71,
      "time": 249.722,
      "duration": 1.096,
      "velocity": 1,
      "hand": "right"
    },
    {
      "midi": 76,
      "time": 250,
      "duration": 0.278,
      "velocity": 1,
      "hand": "right"
    },
    {
      "midi": 79,
      "time": 250,
      "duration": 0.278,
      "velocity": 1,
      "hand": "right"
    },
    {
      "midi": 84,
      "time": 250,
      "duration": 0.278,
      "velocity": 1,
      "hand": "right"
    },
    {
      "midi": 75,
      "time": 250.278,
      "duration": 0.278,
      "velocity": 1,
      "hand": "right"
    },
    {
      "midi": 78,
      "time": 250.278,
      "duration": 0.278,
      "velocity": 1,
      "hand": "right"
    },
    {
      "midi": 76,
      "time": 250.555,
      "duration": 0.556,
      "velocity": 1,
      "hand": "right"
    },
    {
      "midi": 79,
      "time": 250.555,
      "duration": 0.556,
      "velocity": 1,
      "hand": "right"
    },
    {
      "midi": 84,
      "time": 250.555,
      "duration": 0.556,
      "velocity": 1,
      "hand": "right"
    },
    {
      "midi": 71,
      "time": 250.833,
      "duration": 0.541,
      "velocity": 1,
      "hand": "right"
    },
    {
      "midi": 75,
      "time": 251.111,
      "duration": 0.278,
      "velocity": 1,
      "hand": "right"
    },
    {
      "midi": 78,
      "time": 251.111,
      "duration": 0.278,
      "velocity": 1,
      "hand": "right"
    },
    {
      "midi": 83,
      "time": 251.111,
      "duration": 0.278,
      "velocity": 1,
      "hand": "right"
    },
    {
      "midi": 71,
      "time": 251.389,
      "duration": 0.278,
      "velocity": 1,
      "hand": "right"
    },
    {
      "midi": 69,
      "time": 251.666,
      "duration": 0.819,
      "velocity": 1,
      "hand": "right"
    },
    {
      "midi": 74,
      "time": 251.666,
      "duration": 0.833,
      "velocity": 1,
      "hand": "right"
    },
    {
      "midi": 77,
      "time": 251.666,
      "duration": 0.278,
      "velocity": 1,
      "hand": "right"
    },
    {
      "midi": 83,
      "time": 251.666,
      "duration": 0.278,
      "velocity": 1,
      "hand": "right"
    },
    {
      "midi": 76,
      "time": 251.944,
      "duration": 0.278,
      "velocity": 1,
      "hand": "right"
    },
    {
      "midi": 77,
      "time": 252.222,
      "duration": 0.263,
      "velocity": 1,
      "hand": "right"
    },
    {
      "midi": 83,
      "time": 252.222,
      "duration": 0.278,
      "velocity": 1,
      "hand": "right"
    },
    {
      "midi": 62,
      "time": 252.5,
      "duration": 0.818,
      "velocity": 1,
      "hand": "right"
    },
    {
      "midi": 69,
      "time": 252.5,
      "duration": 0.833,
      "velocity": 1,
      "hand": "right"
    },
    {
      "midi": 71,
      "time": 252.5,
      "duration": 0.278,
      "velocity": 1,
      "hand": "right"
    },
    {
      "midi": 77,
      "time": 252.5,
      "duration": 0.278,
      "velocity": 1,
      "hand": "right"
    },
    {
      "midi": 70,
      "time": 252.778,
      "duration": 0.278,
      "velocity": 1,
      "hand": "right"
    },
    {
      "midi": 71,
      "time": 253.055,
      "duration": 0.278,
      "velocity": 1,
      "hand": "right"
    },
    {
      "midi": 77,
      "time": 253.055,
      "duration": 0.278,
      "velocity": 1,
      "hand": "right"
    },
    {
      "midi": 59,
      "time": 253.333,
      "duration": 0.833,
      "velocity": 1,
      "hand": "left"
    },
    {
      "midi": 62,
      "time": 253.333,
      "duration": 0.833,
      "velocity": 1,
      "hand": "right"
    },
    {
      "midi": 65,
      "time": 253.333,
      "duration": 0.278,
      "velocity": 1,
      "hand": "right"
    },
    {
      "midi": 70,
      "time": 253.333,
      "duration": 0.278,
      "velocity": 1,
      "hand": "right"
    },
    {
      "midi": 64,
      "time": 253.611,
      "duration": 0.278,
      "velocity": 1,
      "hand": "right"
    },
    {
      "midi": 65,
      "time": 253.889,
      "duration": 0.278,
      "velocity": 1,
      "hand": "right"
    },
    {
      "midi": 70,
      "time": 253.889,
      "duration": 0.278,
      "velocity": 1,
      "hand": "right"
    },
    {
      "midi": 53,
      "time": 254.166,
      "duration": 0.278,
      "velocity": 1,
      "hand": "left"
    },
    {
      "midi": 52,
      "time": 254.444,
      "duration": 0.278,
      "velocity": 1,
      "hand": "left"
    },
    {
      "midi": 59,
      "time": 254.444,
      "duration": 0.278,
      "velocity": 1,
      "hand": "left"
    },
    {
      "midi": 62,
      "time": 254.444,
      "duration": 0.278,
      "velocity": 1,
      "hand": "right"
    },
    {
      "midi": 68,
      "time": 254.444,
      "duration": 0.278,
      "velocity": 1,
      "hand": "right"
    },
    {
      "midi": 45,
      "time": 254.722,
      "duration": 0.278,
      "velocity": 1,
      "hand": "left"
    },
    {
      "midi": 60,
      "time": 254.722,
      "duration": 0.263,
      "velocity": 1,
      "hand": "right"
    },
    {
      "midi": 69,
      "time": 254.722,
      "duration": 0.263,
      "velocity": 1,
      "hand": "right"
    },
    {
      "midi": 53,
      "time": 255,
      "duration": 0.278,
      "velocity": 1,
      "hand": "left"
    },
    {
      "midi": 60,
      "time": 255,
      "duration": 0.556,
      "velocity": 1,
      "hand": "right"
    },
    {
      "midi": 69,
      "time": 255,
      "duration": 0.556,
      "velocity": 1,
      "hand": "right"
    },
    {
      "midi": 52,
      "time": 255.278,
      "duration": 0.278,
      "velocity": 1,
      "hand": "left"
    },
    {
      "midi": 45,
      "time": 255.555,
      "duration": 0.278,
      "velocity": 1,
      "hand": "left"
    },
    {
      "midi": 62,
      "time": 255.555,
      "duration": 0.556,
      "velocity": 1,
      "hand": "right"
    },
    {
      "midi": 68,
      "time": 255.555,
      "duration": 0.556,
      "velocity": 1,
      "hand": "right"
    },
    {
      "midi": 71,
      "time": 255.555,
      "duration": 0.556,
      "velocity": 1,
      "hand": "right"
    },
    {
      "midi": 53,
      "time": 255.833,
      "duration": 0.278,
      "velocity": 1,
      "hand": "left"
    },
    {
      "midi": 52,
      "time": 256.111,
      "duration": 0.278,
      "velocity": 1,
      "hand": "left"
    },
    {
      "midi": 60,
      "time": 256.111,
      "duration": 0.278,
      "velocity": 1,
      "hand": "right"
    },
    {
      "midi": 69,
      "time": 256.111,
      "duration": 0.278,
      "velocity": 1,
      "hand": "right"
    },
    {
      "midi": 72,
      "time": 256.111,
      "duration": 0.278,
      "velocity": 1,
      "hand": "right"
    },
    {
      "midi": 45,
      "time": 256.389,
      "duration": 0.278,
      "velocity": 1,
      "hand": "left"
    },
    {
      "midi": 53,
      "time": 256.666,
      "duration": 0.278,
      "velocity": 1,
      "hand": "left"
    },
    {
      "midi": 60,
      "time": 256.666,
      "duration": 0.556,
      "velocity": 1,
      "hand": "right"
    },
    {
      "midi": 69,
      "time": 256.666,
      "duration": 0.556,
      "velocity": 1,
      "hand": "right"
    },
    {
      "midi": 52,
      "time": 256.944,
      "duration": 0.278,
      "velocity": 1,
      "hand": "left"
    },
    {
      "midi": 45,
      "time": 257.222,
      "duration": 0.278,
      "velocity": 1,
      "hand": "left"
    },
    {
      "midi": 59,
      "time": 257.222,
      "duration": 0.556,
      "velocity": 1,
      "hand": "left"
    },
    {
      "midi": 62,
      "time": 257.222,
      "duration": 0.556,
      "velocity": 1,
      "hand": "right"
    },
    {
      "midi": 68,
      "time": 257.222,
      "duration": 0.556,
      "velocity": 1,
      "hand": "right"
    },
    {
      "midi": 53,
      "time": 257.5,
      "duration": 0.278,
      "velocity": 1,
      "hand": "left"
    },
    {
      "midi": 52,
      "time": 257.778,
      "duration": 0.278,
      "velocity": 1,
      "hand": "left"
    },
    {
      "midi": 57,
      "time": 257.778,
      "duration": 0.278,
      "velocity": 1,
      "hand": "left"
    },
    {
      "midi": 60,
      "time": 257.778,
      "duration": 0.278,
      "velocity": 1,
      "hand": "right"
    },
    {
      "midi": 69,
      "time": 257.778,
      "duration": 0.278,
      "velocity": 1,
      "hand": "right"
    },
    {
      "midi": 45,
      "time": 258.055,
      "duration": 0.278,
      "velocity": 1,
      "hand": "left"
    },
    {
      "midi": 57,
      "time": 258.333,
      "duration": 0.278,
      "velocity": 1,
      "hand": "left"
    },
    {
      "midi": 64,
      "time": 258.333,
      "duration": 0.556,
      "velocity": 1,
      "hand": "right"
    },
    {
      "midi": 72,
      "time": 258.333,
      "duration": 0.556,
      "velocity": 1,
      "hand": "right"
    },
    {
      "midi": 56,
      "time": 258.611,
      "duration": 0.278,
      "velocity": 1,
      "hand": "left"
    },
    {
      "midi": 48,
      "time": 258.889,
      "duration": 0.278,
      "velocity": 1,
      "hand": "left"
    },
    {
      "midi": 65,
      "time": 258.889,
      "duration": 0.556,
      "velocity": 1,
      "hand": "right"
    },
    {
      "midi": 71,
      "time": 258.889,
      "duration": 0.556,
      "velocity": 1,
      "hand": "right"
    },
    {
      "midi": 74,
      "time": 258.889,
      "duration": 0.556,
      "velocity": 1,
      "hand": "right"
    },
    {
      "midi": 57,
      "time": 259.166,
      "duration": 0.278,
      "velocity": 1,
      "hand": "left"
    },
    {
      "midi": 56,
      "time": 259.444,
      "duration": 0.278,
      "velocity": 1,
      "hand": "left"
    },
    {
      "midi": 64,
      "time": 259.444,
      "duration": 0.278,
      "velocity": 1,
      "hand": "right"
    },
    {
      "midi": 72,
      "time": 259.444,
      "duration": 0.278,
      "velocity": 1,
      "hand": "right"
    },
    {
      "midi": 76,
      "time": 259.444,
      "duration": 0.278,
      "velocity": 1,
      "hand": "right"
    },
    {
      "midi": 48,
      "time": 259.722,
      "duration": 0.278,
      "velocity": 1,
      "hand": "left"
    },
    {
      "midi": 57,
      "time": 260,
      "duration": 0.278,
      "velocity": 1,
      "hand": "left"
    },
    {
      "midi": 64,
      "time": 260,
      "duration": 0.556,
      "velocity": 1,
      "hand": "right"
    },
    {
      "midi": 72,
      "time": 260,
      "duration": 0.556,
      "velocity": 1,
      "hand": "right"
    },
    {
      "midi": 56,
      "time": 260.278,
      "duration": 0.278,
      "velocity": 1,
      "hand": "left"
    },
    {
      "midi": 48,
      "time": 260.555,
      "duration": 0.278,
      "velocity": 1,
      "hand": "left"
    },
    {
      "midi": 62,
      "time": 260.555,
      "duration": 0.556,
      "velocity": 1,
      "hand": "right"
    },
    {
      "midi": 65,
      "time": 260.555,
      "duration": 0.556,
      "velocity": 1,
      "hand": "right"
    },
    {
      "midi": 71,
      "time": 260.555,
      "duration": 0.556,
      "velocity": 1,
      "hand": "right"
    },
    {
      "midi": 57,
      "time": 260.833,
      "duration": 0.278,
      "velocity": 1,
      "hand": "left"
    },
    {
      "midi": 56,
      "time": 261.111,
      "duration": 0.278,
      "velocity": 1,
      "hand": "left"
    },
    {
      "midi": 60,
      "time": 261.111,
      "duration": 0.278,
      "velocity": 1,
      "hand": "right"
    },
    {
      "midi": 64,
      "time": 261.111,
      "duration": 0.278,
      "velocity": 1,
      "hand": "right"
    },
    {
      "midi": 72,
      "time": 261.111,
      "duration": 0.278,
      "velocity": 1,
      "hand": "right"
    },
    {
      "midi": 48,
      "time": 261.389,
      "duration": 0.278,
      "velocity": 1,
      "hand": "left"
    },
    {
      "midi": 60,
      "time": 261.666,
      "duration": 0.278,
      "velocity": 1,
      "hand": "right"
    },
    {
      "midi": 67,
      "time": 261.666,
      "duration": 0.556,
      "velocity": 1,
      "hand": "right"
    },
    {
      "midi": 76,
      "time": 261.666,
      "duration": 0.556,
      "velocity": 1,
      "hand": "right"
    },
    {
      "midi": 59,
      "time": 261.944,
      "duration": 0.278,
      "velocity": 1,
      "hand": "left"
    },
    {
      "midi": 52,
      "time": 262.222,
      "duration": 0.278,
      "velocity": 1,
      "hand": "left"
    },
    {
      "midi": 69,
      "time": 262.222,
      "duration": 0.556,
      "velocity": 1,
      "hand": "right"
    },
    {
      "midi": 75,
      "time": 262.222,
      "duration": 0.556,
      "velocity": 1,
      "hand": "right"
    },
    {
      "midi": 78,
      "time": 262.222,
      "duration": 0.556,
      "velocity": 1,
      "hand": "right"
    },
    {
      "midi": 60,
      "time": 262.5,
      "duration": 0.278,
      "velocity": 1,
      "hand": "right"
    },
    {
      "midi": 59,
      "time": 262.778,
      "duration": 0.278,
      "velocity": 1,
      "hand": "left"
    },
    {
      "midi": 67,
      "time": 262.778,
      "duration": 0.278,
      "velocity": 1,
      "hand": "right"
    },
    {
      "midi": 76,
      "time": 262.778,
      "duration": 0.278,
      "velocity": 1,
      "hand": "right"
    },
    {
      "midi": 79,
      "time": 262.778,
      "duration": 0.278,
      "velocity": 1,
      "hand": "right"
    },
    {
      "midi": 52,
      "time": 263.055,
      "duration": 0.278,
      "velocity": 1,
      "hand": "left"
    },
    {
      "midi": 64,
      "time": 263.333,
      "duration": 0.278,
      "velocity": 1,
      "hand": "right"
    },
    {
      "midi": 71,
      "time": 263.333,
      "duration": 0.556,
      "velocity": 1,
      "hand": "right"
    },
    {
      "midi": 79,
      "time": 263.333,
      "duration": 0.556,
      "velocity": 1,
      "hand": "right"
    },
    {
      "midi": 63,
      "time": 263.611,
      "duration": 0.278,
      "velocity": 1,
      "hand": "right"
    },
    {
      "midi": 55,
      "time": 263.889,
      "duration": 0.278,
      "velocity": 1,
      "hand": "left"
    },
    {
      "midi": 72,
      "time": 263.889,
      "duration": 0.556,
      "velocity": 1,
      "hand": "right"
    },
    {
      "midi": 78,
      "time": 263.889,
      "duration": 0.556,
      "velocity": 1,
      "hand": "right"
    },
    {
      "midi": 81,
      "time": 263.889,
      "duration": 0.556,
      "velocity": 1,
      "hand": "right"
    },
    {
      "midi": 64,
      "time": 264.166,
      "duration": 0.278,
      "velocity": 1,
      "hand": "right"
    },
    {
      "midi": 63,
      "time": 264.444,
      "duration": 0.278,
      "velocity": 1,
      "hand": "right"
    },
    {
      "midi": 71,
      "time": 264.444,
      "duration": 0.278,
      "velocity": 1,
      "hand": "right"
    },
    {
      "midi": 79,
      "time": 264.444,
      "duration": 0.278,
      "velocity": 1,
      "hand": "right"
    },
    {
      "midi": 83,
      "time": 264.444,
      "duration": 0.278,
      "velocity": 1,
      "hand": "right"
    },
    {
      "midi": 55,
      "time": 264.722,
      "duration": 0.278,
      "velocity": 1,
      "hand": "left"
    },
    {
      "midi": 67,
      "time": 265,
      "duration": 0.278,
      "velocity": 1,
      "hand": "right"
    },
    {
      "midi": 74,
      "time": 265,
      "duration": 0.556,
      "velocity": 1,
      "hand": "right"
    },
    {
      "midi": 83,
      "time": 265,
      "duration": 0.556,
      "velocity": 1,
      "hand": "right"
    },
    {
      "midi": 66,
      "time": 265.278,
      "duration": 0.278,
      "velocity": 1,
      "hand": "right"
    },
    {
      "midi": 59,
      "time": 265.555,
      "duration": 0.278,
      "velocity": 1,
      "hand": "left"
    },
    {
      "midi": 73,
      "time": 265.555,
      "duration": 0.556,
      "velocity": 1,
      "hand": "right"
    },
    {
      "midi": 76,
      "time": 265.555,
      "duration": 0.556,
      "velocity": 1,
      "hand": "right"
    },
    {
      "midi": 82,
      "time": 265.555,
      "duration": 0.556,
      "velocity": 1,
      "hand": "right"
    },
    {
      "midi": 67,
      "time": 265.833,
      "duration": 0.278,
      "velocity": 1,
      "hand": "right"
    },
    {
      "midi": 66,
      "time": 266.111,
      "duration": 0.278,
      "velocity": 1,
      "hand": "right"
    },
    {
      "midi": 74,
      "time": 266.111,
      "duration": 0.278,
      "velocity": 1,
      "hand": "right"
    },
    {
      "midi": 83,
      "time": 266.111,
      "duration": 0.278,
      "velocity": 1,
      "hand": "right"
    },
    {
      "midi": 59,
      "time": 266.389,
      "duration": 0.278,
      "velocity": 1,
      "hand": "left"
    },
    {
      "midi": 71,
      "time": 266.666,
      "duration": 0.278,
      "velocity": 1,
      "hand": "right"
    },
    {
      "midi": 74,
      "time": 266.666,
      "duration": 0.556,
      "velocity": 1,
      "hand": "right"
    },
    {
      "midi": 78,
      "time": 266.666,
      "duration": 0.556,
      "velocity": 1,
      "hand": "right"
    },
    {
      "midi": 70,
      "time": 266.944,
      "duration": 0.278,
      "velocity": 1,
      "hand": "right"
    },
    {
      "midi": 62,
      "time": 267.222,
      "duration": 0.278,
      "velocity": 1,
      "hand": "right"
    },
    {
      "midi": 73,
      "time": 267.222,
      "duration": 0.556,
      "velocity": 1,
      "hand": "right"
    },
    {
      "midi": 76,
      "time": 267.222,
      "duration": 0.556,
      "velocity": 1,
      "hand": "right"
    },
    {
      "midi": 79,
      "time": 267.222,
      "duration": 0.556,
      "velocity": 1,
      "hand": "right"
    },
    {
      "midi": 71,
      "time": 267.5,
      "duration": 0.278,
      "velocity": 1,
      "hand": "right"
    },
    {
      "midi": 70,
      "time": 267.778,
      "duration": 0.278,
      "velocity": 1,
      "hand": "right"
    },
    {
      "midi": 74,
      "time": 267.778,
      "duration": 0.278,
      "velocity": 1,
      "hand": "right"
    },
    {
      "midi": 78,
      "time": 267.778,
      "duration": 0.278,
      "velocity": 1,
      "hand": "right"
    },
    {
      "midi": 62,
      "time": 268.055,
      "duration": 0.278,
      "velocity": 1,
      "hand": "right"
    },
    {
      "midi": 70,
      "time": 268.333,
      "duration": 0.278,
      "velocity": 1,
      "hand": "right"
    },
    {
      "midi": 74,
      "time": 268.333,
      "duration": 0.541,
      "velocity": 1,
      "hand": "right"
    },
    {
      "midi": 78,
      "time": 268.333,
      "duration": 0.541,
      "velocity": 1,
      "hand": "right"
    },
    {
      "midi": 62,
      "time": 268.611,
      "duration": 0.278,
      "velocity": 1,
      "hand": "right"
    },
    {
      "midi": 70,
      "time": 268.889,
      "duration": 0.278,
      "velocity": 1,
      "hand": "right"
    },
    {
      "midi": 74,
      "time": 268.889,
      "duration": 0.54,
      "velocity": 1,
      "hand": "right"
    },
    {
      "midi": 78,
      "time": 268.889,
      "duration": 0.54,
      "velocity": 1,
      "hand": "right"
    },
    {
      "midi": 62,
      "time": 269.166,
      "duration": 0.278,
      "velocity": 1,
      "hand": "right"
    },
    {
      "midi": 70,
      "time": 269.444,
      "duration": 0.278,
      "velocity": 1,
      "hand": "right"
    },
    {
      "midi": 74,
      "time": 269.444,
      "duration": 0.556,
      "velocity": 1,
      "hand": "right"
    },
    {
      "midi": 78,
      "time": 269.444,
      "duration": 0.541,
      "velocity": 1,
      "hand": "right"
    },
    {
      "midi": 62,
      "time": 269.722,
      "duration": 0.278,
      "velocity": 1,
      "hand": "right"
    },
    {
      "midi": 70,
      "time": 270,
      "duration": 0.278,
      "velocity": 1,
      "hand": "right"
    },
    {
      "midi": 76,
      "time": 270,
      "duration": 0.54,
      "velocity": 1,
      "hand": "right"
    },
    {
      "midi": 78,
      "time": 270,
      "duration": 0.54,
      "velocity": 1,
      "hand": "right"
    },
    {
      "midi": 61,
      "time": 270.278,
      "duration": 0.278,
      "velocity": 1,
      "hand": "right"
    },
    {
      "midi": 70,
      "time": 270.555,
      "duration": 0.278,
      "velocity": 1,
      "hand": "right"
    },
    {
      "midi": 76,
      "time": 270.555,
      "duration": 0.541,
      "velocity": 1,
      "hand": "right"
    },
    {
      "midi": 78,
      "time": 270.555,
      "duration": 0.541,
      "velocity": 1,
      "hand": "right"
    },
    {
      "midi": 61,
      "time": 270.833,
      "duration": 0.278,
      "velocity": 1,
      "hand": "right"
    },
    {
      "midi": 70,
      "time": 271.111,
      "duration": 0.278,
      "velocity": 1,
      "hand": "right"
    },
    {
      "midi": 76,
      "time": 271.111,
      "duration": 0.54,
      "velocity": 1,
      "hand": "right"
    },
    {
      "midi": 78,
      "time": 271.111,
      "duration": 0.54,
      "velocity": 1,
      "hand": "right"
    },
    {
      "midi": 61,
      "time": 271.389,
      "duration": 0.262,
      "velocity": 1,
      "hand": "right"
    },
    {
      "midi": 61,
      "time": 271.666,
      "duration": 0.278,
      "velocity": 1,
      "hand": "right"
    },
    {
      "midi": 70,
      "time": 271.666,
      "duration": 0.541,
      "velocity": 1,
      "hand": "right"
    },
    {
      "midi": 76,
      "time": 271.666,
      "duration": 0.541,
      "velocity": 1,
      "hand": "right"
    },
    {
      "midi": 78,
      "time": 271.666,
      "duration": 0.541,
      "velocity": 1,
      "hand": "right"
    },
    {
      "midi": 54,
      "time": 271.944,
      "duration": 0.278,
      "velocity": 1,
      "hand": "left"
    },
    {
      "midi": 61,
      "time": 272.222,
      "duration": 0.278,
      "velocity": 1,
      "hand": "right"
    },
    {
      "midi": 70,
      "time": 272.222,
      "duration": 0.541,
      "velocity": 1,
      "hand": "right"
    },
    {
      "midi": 76,
      "time": 272.222,
      "duration": 0.541,
      "velocity": 1,
      "hand": "right"
    },
    {
      "midi": 78,
      "time": 272.222,
      "duration": 0.541,
      "velocity": 1,
      "hand": "right"
    },
    {
      "midi": 54,
      "time": 272.5,
      "duration": 0.278,
      "velocity": 1,
      "hand": "left"
    },
    {
      "midi": 61,
      "time": 272.778,
      "duration": 0.278,
      "velocity": 1,
      "hand": "right"
    },
    {
      "midi": 70,
      "time": 272.778,
      "duration": 0.556,
      "velocity": 1,
      "hand": "right"
    },
    {
      "midi": 76,
      "time": 272.778,
      "duration": 0.556,
      "velocity": 1,
      "hand": "right"
    },
    {
      "midi": 78,
      "time": 272.778,
      "duration": 0.556,
      "velocity": 1,
      "hand": "right"
    },
    {
      "midi": 54,
      "time": 273.055,
      "duration": 0.278,
      "velocity": 1,
      "hand": "left"
    },
    {
      "midi": 49,
      "time": 273.333,
      "duration": 0.278,
      "velocity": 1,
      "hand": "left"
    },
    {
      "midi": 58,
      "time": 273.333,
      "duration": 0.541,
      "velocity": 1,
      "hand": "left"
    },
    {
      "midi": 64,
      "time": 273.333,
      "duration": 0.541,
      "velocity": 1,
      "hand": "right"
    },
    {
      "midi": 66,
      "time": 273.333,
      "duration": 0.541,
      "velocity": 1,
      "hand": "right"
    },
    {
      "midi": 42,
      "time": 273.611,
      "duration": 0.278,
      "velocity": 1,
      "hand": "left"
    },
    {
      "midi": 49,
      "time": 273.889,
      "duration": 0.278,
      "velocity": 1,
      "hand": "left"
    },
    {
      "midi": 58,
      "time": 273.889,
      "duration": 0.54,
      "velocity": 1,
      "hand": "left"
    },
    {
      "midi": 64,
      "time": 273.889,
      "duration": 0.54,
      "velocity": 1,
      "hand": "right"
    },
    {
      "midi": 66,
      "time": 273.889,
      "duration": 0.54,
      "velocity": 1,
      "hand": "right"
    },
    {
      "midi": 42,
      "time": 274.166,
      "duration": 0.278,
      "velocity": 1,
      "hand": "left"
    },
    {
      "midi": 49,
      "time": 274.444,
      "duration": 0.278,
      "velocity": 1,
      "hand": "left"
    },
    {
      "midi": 58,
      "time": 274.444,
      "duration": 0.556,
      "velocity": 1,
      "hand": "left"
    },
    {
      "midi": 64,
      "time": 274.444,
      "duration": 0.556,
      "velocity": 1,
      "hand": "right"
    },
    {
      "midi": 66,
      "time": 274.444,
      "duration": 0.541,
      "velocity": 1,
      "hand": "right"
    },
    {
      "midi": 42,
      "time": 274.722,
      "duration": 0.278,
      "velocity": 1,
      "hand": "left"
    },
    {
      "midi": 62,
      "time": 275,
      "duration": 0.278,
      "velocity": 1,
      "hand": "right"
    },
    {
      "midi": 66,
      "time": 275,
      "duration": 0.278,
      "velocity": 1,
      "hand": "right"
    },
    {
      "midi": 71,
      "time": 275,
      "duration": 0.278,
      "velocity": 1,
      "hand": "right"
    },
    {
      "midi": 61,
      "time": 275.278,
      "duration": 0.278,
      "velocity": 1,
      "hand": "right"
    },
    {
      "midi": 65,
      "time": 275.278,
      "duration": 0.278,
      "velocity": 1,
      "hand": "right"
    },
    {
      "midi": 62,
      "time": 275.555,
      "duration": 0.556,
      "velocity": 1,
      "hand": "right"
    },
    {
      "midi": 66,
      "time": 275.555,
      "duration": 0.556,
      "velocity": 1,
      "hand": "right"
    },
    {
      "midi": 71,
      "time": 275.555,
      "duration": 0.556,
      "velocity": 1,
      "hand": "right"
    },
    {
      "midi": 47,
      "time": 275.833,
      "duration": 0.278,
      "velocity": 1,
      "hand": "left"
    },
    {
      "midi": 61,
      "time": 276.111,
      "duration": 0.278,
      "velocity": 1,
      "hand": "right"
    },
    {
      "midi": 64,
      "time": 276.111,
      "duration": 0.278,
      "velocity": 1,
      "hand": "right"
    },
    {
      "midi": 70,
      "time": 276.111,
      "duration": 0.278,
      "velocity": 1,
      "hand": "right"
    },
    {
      "midi": 47,
      "time": 276.389,
      "duration": 0.278,
      "velocity": 1,
      "hand": "left"
    },
    {
      "midi": 59,
      "time": 276.666,
      "duration": 0.278,
      "velocity": 1,
      "hand": "left"
    },
    {
      "midi": 62,
      "time": 276.666,
      "duration": 0.278,
      "velocity": 1,
      "hand": "right"
    },
    {
      "midi": 67,
      "time": 276.666,
      "duration": 0.278,
      "velocity": 1,
      "hand": "right"
    },
    {
      "midi": 58,
      "time": 276.944,
      "duration": 0.278,
      "velocity": 1,
      "hand": "left"
    },
    {
      "midi": 61,
      "time": 276.944,
      "duration": 0.278,
      "velocity": 1,
      "hand": "right"
    },
    {
      "midi": 66,
      "time": 276.944,
      "duration": 0.278,
      "velocity": 1,
      "hand": "right"
    },
    {
      "midi": 59,
      "time": 277.222,
      "duration": 0.556,
      "velocity": 1,
      "hand": "left"
    },
    {
      "midi": 62,
      "time": 277.222,
      "duration": 0.556,
      "velocity": 1,
      "hand": "right"
    },
    {
      "midi": 67,
      "time": 277.222,
      "duration": 0.556,
      "velocity": 1,
      "hand": "right"
    },
    {
      "midi": 47,
      "time": 277.5,
      "duration": 0.278,
      "velocity": 1,
      "hand": "left"
    },
    {
      "midi": 58,
      "time": 277.778,
      "duration": 0.278,
      "velocity": 1,
      "hand": "left"
    },
    {
      "midi": 61,
      "time": 277.778,
      "duration": 0.278,
      "velocity": 1,
      "hand": "right"
    },
    {
      "midi": 66,
      "time": 277.778,
      "duration": 0.278,
      "velocity": 1,
      "hand": "right"
    },
    {
      "midi": 47,
      "time": 278.055,
      "duration": 0.278,
      "velocity": 1,
      "hand": "left"
    },
    {
      "midi": 57,
      "time": 278.333,
      "duration": 0.278,
      "velocity": 1,
      "hand": "left"
    },
    {
      "midi": 60,
      "time": 278.333,
      "duration": 0.278,
      "velocity": 1,
      "hand": "right"
    },
    {
      "midi": 66,
      "time": 278.333,
      "duration": 0.278,
      "velocity": 1,
      "hand": "right"
    },
    {
      "midi": 56,
      "time": 278.611,
      "duration": 0.278,
      "velocity": 1,
      "hand": "left"
    },
    {
      "midi": 59,
      "time": 278.611,
      "duration": 0.278,
      "velocity": 1,
      "hand": "left"
    },
    {
      "midi": 57,
      "time": 278.889,
      "duration": 0.556,
      "velocity": 1,
      "hand": "left"
    },
    {
      "midi": 60,
      "time": 278.889,
      "duration": 0.556,
      "velocity": 1,
      "hand": "right"
    },
    {
      "midi": 66,
      "time": 278.889,
      "duration": 0.556,
      "velocity": 1,
      "hand": "right"
    },
    {
      "midi": 47,
      "time": 279.166,
      "duration": 0.278,
      "velocity": 1,
      "hand": "left"
    },
    {
      "midi": 56,
      "time": 279.444,
      "duration": 0.278,
      "velocity": 1,
      "hand": "left"
    },
    {
      "midi": 59,
      "time": 279.444,
      "duration": 0.278,
      "velocity": 1,
      "hand": "left"
    },
    {
      "midi": 64,
      "time": 279.444,
      "duration": 0.278,
      "velocity": 1,
      "hand": "right"
    },
    {
      "midi": 47,
      "time": 279.722,
      "duration": 0.278,
      "velocity": 1,
      "hand": "left"
    },
    {
      "midi": 55,
      "time": 280,
      "duration": 0.278,
      "velocity": 1,
      "hand": "left"
    },
    {
      "midi": 58,
      "time": 280,
      "duration": 0.278,
      "velocity": 1,
      "hand": "left"
    },
    {
      "midi": 64,
      "time": 280,
      "duration": 0.278,
      "velocity": 1,
      "hand": "right"
    },
    {
      "midi": 47,
      "time": 280.278,
      "duration": 0.278,
      "velocity": 1,
      "hand": "left"
    },
    {
      "midi": 54,
      "time": 280.555,
      "duration": 0.278,
      "velocity": 1,
      "hand": "left"
    },
    {
      "midi": 58,
      "time": 280.555,
      "duration": 0.278,
      "velocity": 1,
      "hand": "left"
    },
    {
      "midi": 62,
      "time": 280.555,
      "duration": 0.278,
      "velocity": 1,
      "hand": "right"
    },
    {
      "midi": 47,
      "time": 280.833,
      "duration": 0.278,
      "velocity": 1,
      "hand": "left"
    },
    {
      "midi": 52,
      "time": 281.111,
      "duration": 0.278,
      "velocity": 1,
      "hand": "left"
    },
    {
      "midi": 58,
      "time": 281.111,
      "duration": 0.278,
      "velocity": 1,
      "hand": "left"
    },
    {
      "midi": 61,
      "time": 281.111,
      "duration": 0.278,
      "velocity": 1,
      "hand": "right"
    },
    {
      "midi": 47,
      "time": 281.389,
      "duration": 0.278,
      "velocity": 1,
      "hand": "left"
    },
    {
      "midi": 50,
      "time": 281.389,
      "duration": 0.278,
      "velocity": 1,
      "hand": "left"
    },
    {
      "midi": 53,
      "time": 281.666,
      "duration": 0.278,
      "velocity": 1,
      "hand": "left"
    },
    {
      "midi": 54,
      "time": 281.944,
      "duration": 0.278,
      "velocity": 1,
      "hand": "left"
    },
    {
      "midi": 55,
      "time": 282.222,
      "duration": 0.833,
      "velocity": 1,
      "hand": "left"
    },
    {
      "midi": 62,
      "time": 282.5,
      "duration": 0.278,
      "velocity": 1,
      "hand": "right"
    },
    {
      "midi": 71,
      "time": 282.5,
      "duration": 0.263,
      "velocity": 1,
      "hand": "right"
    },
    {
      "midi": 74,
      "time": 282.5,
      "duration": 0.263,
      "velocity": 1,
      "hand": "right"
    },
    {
      "midi": 64,
      "time": 282.778,
      "duration": 0.278,
      "velocity": 1,
      "hand": "right"
    },
    {
      "midi": 71,
      "time": 282.778,
      "duration": 0.262,
      "velocity": 1,
      "hand": "right"
    },
    {
      "midi": 74,
      "time": 282.778,
      "duration": 0.262,
      "velocity": 1,
      "hand": "right"
    },
    {
      "midi": 43,
      "time": 283.055,
      "duration": 0.278,
      "velocity": 1,
      "hand": "left"
    },
    {
      "midi": 65,
      "time": 283.055,
      "duration": 0.278,
      "velocity": 1,
      "hand": "right"
    },
    {
      "midi": 71,
      "time": 283.055,
      "duration": 0.278,
      "velocity": 1,
      "hand": "right"
    },
    {
      "midi": 74,
      "time": 283.055,
      "duration": 0.278,
      "velocity": 1,
      "hand": "right"
    },
    {
      "midi": 45,
      "time": 283.333,
      "duration": 0.278,
      "velocity": 1,
      "hand": "left"
    },
    {
      "midi": 43,
      "time": 283.611,
      "duration": 0.278,
      "velocity": 1,
      "hand": "left"
    },
    {
      "midi": 42,
      "time": 283.889,
      "duration": 0.833,
      "velocity": 1,
      "hand": "left"
    },
    {
      "midi": 56,
      "time": 284.166,
      "duration": 0.278,
      "velocity": 1,
      "hand": "left"
    },
    {
      "midi": 59,
      "time": 284.166,
      "duration": 0.278,
      "velocity": 1,
      "hand": "left"
    },
    {
      "midi": 66,
      "time": 284.166,
      "duration": 0.278,
      "velocity": 1,
      "hand": "right"
    },
    {
      "midi": 58,
      "time": 284.444,
      "duration": 0.278,
      "velocity": 1,
      "hand": "left"
    },
    {
      "midi": 61,
      "time": 284.444,
      "duration": 0.278,
      "velocity": 1,
      "hand": "right"
    },
    {
      "midi": 64,
      "time": 284.444,
      "duration": 0.278,
      "velocity": 1,
      "hand": "right"
    },
    {
      "midi": 47,
      "time": 284.722,
      "duration": 0.278,
      "velocity": 1,
      "hand": "left"
    },
    {
      "midi": 59,
      "time": 284.722,
      "duration": 0.278,
      "velocity": 1,
      "hand": "left"
    },
    {
      "midi": 62,
      "time": 284.722,
      "duration": 0.278,
      "velocity": 1,
      "hand": "right"
    },
    {
      "midi": 53,
      "time": 285,
      "duration": 0.278,
      "velocity": 1,
      "hand": "left"
    },
    {
      "midi": 54,
      "time": 285.278,
      "duration": 0.278,
      "velocity": 1,
      "hand": "left"
    },
    {
      "midi": 55,
      "time": 285.555,
      "duration": 0.833,
      "velocity": 1,
      "hand": "left"
    },
    {
      "midi": 62,
      "time": 285.833,
      "duration": 0.278,
      "velocity": 1,
      "hand": "right"
    },
    {
      "midi": 71,
      "time": 285.833,
      "duration": 0.263,
      "velocity": 1,
      "hand": "right"
    },
    {
      "midi": 74,
      "time": 285.833,
      "duration": 0.263,
      "velocity": 1,
      "hand": "right"
    },
    {
      "midi": 64,
      "time": 286.111,
      "duration": 0.278,
      "velocity": 1,
      "hand": "right"
    },
    {
      "midi": 71,
      "time": 286.111,
      "duration": 0.263,
      "velocity": 1,
      "hand": "right"
    },
    {
      "midi": 74,
      "time": 286.111,
      "duration": 0.263,
      "velocity": 1,
      "hand": "right"
    },
    {
      "midi": 43,
      "time": 286.389,
      "duration": 0.278,
      "velocity": 1,
      "hand": "left"
    },
    {
      "midi": 65,
      "time": 286.389,
      "duration": 0.278,
      "velocity": 1,
      "hand": "right"
    },
    {
      "midi": 71,
      "time": 286.389,
      "duration": 0.278,
      "velocity": 1,
      "hand": "right"
    },
    {
      "midi": 74,
      "time": 286.389,
      "duration": 0.278,
      "velocity": 1,
      "hand": "right"
    },
    {
      "midi": 45,
      "time": 286.666,
      "duration": 0.278,
      "velocity": 1,
      "hand": "left"
    },
    {
      "midi": 43,
      "time": 286.944,
      "duration": 0.278,
      "velocity": 1,
      "hand": "left"
    },
    {
      "midi": 42,
      "time": 287.222,
      "duration": 0.833,
      "velocity": 1,
      "hand": "left"
    },
    {
      "midi": 56,
      "time": 287.5,
      "duration": 0.278,
      "velocity": 1,
      "hand": "left"
    },
    {
      "midi": 59,
      "time": 287.5,
      "duration": 0.278,
      "velocity": 1,
      "hand": "left"
    },
    {
      "midi": 66,
      "time": 287.5,
      "duration": 0.278,
      "velocity": 1,
      "hand": "right"
    },
    {
      "midi": 58,
      "time": 287.778,
      "duration": 0.278,
      "velocity": 1,
      "hand": "left"
    },
    {
      "midi": 61,
      "time": 287.778,
      "duration": 0.278,
      "velocity": 1,
      "hand": "right"
    },
    {
      "midi": 64,
      "time": 287.778,
      "duration": 0.278,
      "velocity": 1,
      "hand": "right"
    },
    {
      "midi": 47,
      "time": 288.055,
      "duration": 0.278,
      "velocity": 1,
      "hand": "left"
    },
    {
      "midi": 59,
      "time": 288.055,
      "duration": 0.278,
      "velocity": 1,
      "hand": "left"
    },
    {
      "midi": 62,
      "time": 288.055,
      "duration": 0.278,
      "velocity": 1,
      "hand": "right"
    },
    {
      "midi": 52,
      "time": 288.333,
      "duration": 0.278,
      "velocity": 1,
      "hand": "left"
    },
    {
      "midi": 50,
      "time": 288.611,
      "duration": 0.278,
      "velocity": 1,
      "hand": "left"
    },
    {
      "midi": 49,
      "time": 288.889,
      "duration": 0.833,
      "velocity": 1,
      "hand": "left"
    },
    {
      "midi": 57,
      "time": 289.166,
      "duration": 0.263,
      "velocity": 1,
      "hand": "left"
    },
    {
      "midi": 64,
      "time": 289.166,
      "duration": 0.263,
      "velocity": 1,
      "hand": "right"
    },
    {
      "midi": 69,
      "time": 289.166,
      "duration": 0.278,
      "velocity": 1,
      "hand": "right"
    },
    {
      "midi": 57,
      "time": 289.444,
      "duration": 0.263,
      "velocity": 1,
      "hand": "left"
    },
    {
      "midi": 64,
      "time": 289.444,
      "duration": 0.278,
      "velocity": 1,
      "hand": "right"
    },
    {
      "midi": 67,
      "time": 289.444,
      "duration": 0.278,
      "velocity": 1,
      "hand": "right"
    },
    {
      "midi": 50,
      "time": 289.722,
      "duration": 0.278,
      "velocity": 1,
      "hand": "left"
    },
    {
      "midi": 57,
      "time": 289.722,
      "duration": 0.278,
      "velocity": 1,
      "hand": "left"
    },
    {
      "midi": 62,
      "time": 289.722,
      "duration": 0.278,
      "velocity": 1,
      "hand": "right"
    },
    {
      "midi": 66,
      "time": 289.722,
      "duration": 0.278,
      "velocity": 1,
      "hand": "right"
    },
    {
      "midi": 56,
      "time": 290,
      "duration": 0.278,
      "velocity": 1,
      "hand": "left"
    },
    {
      "midi": 54,
      "time": 290.278,
      "duration": 0.278,
      "velocity": 1,
      "hand": "left"
    },
    {
      "midi": 53,
      "time": 290.555,
      "duration": 0.833,
      "velocity": 1,
      "hand": "left"
    },
    {
      "midi": 61,
      "time": 290.833,
      "duration": 0.263,
      "velocity": 1,
      "hand": "right"
    },
    {
      "midi": 68,
      "time": 290.833,
      "duration": 0.263,
      "velocity": 1,
      "hand": "right"
    },
    {
      "midi": 73,
      "time": 290.833,
      "duration": 0.278,
      "velocity": 1,
      "hand": "right"
    },
    {
      "midi": 61,
      "time": 291.111,
      "duration": 0.263,
      "velocity": 1,
      "hand": "right"
    },
    {
      "midi": 68,
      "time": 291.111,
      "duration": 0.278,
      "velocity": 1,
      "hand": "right"
    },
    {
      "midi": 71,
      "time": 291.111,
      "duration": 0.278,
      "velocity": 1,
      "hand": "right"
    },
    {
      "midi": 54,
      "time": 291.389,
      "duration": 0.278,
      "velocity": 1,
      "hand": "left"
    },
    {
      "midi": 61,
      "time": 291.389,
      "duration": 0.278,
      "velocity": 1,
      "hand": "right"
    },
    {
      "midi": 66,
      "time": 291.389,
      "duration": 0.262,
      "velocity": 1,
      "hand": "right"
    },
    {
      "midi": 70,
      "time": 291.389,
      "duration": 0.278,
      "velocity": 1,
      "hand": "right"
    },
    {
      "midi": 58,
      "time": 291.666,
      "duration": 0.556,
      "velocity": 1,
      "hand": "left"
    },
    {
      "midi": 66,
      "time": 291.666,
      "duration": 0.541,
      "velocity": 1,
      "hand": "right"
    },
    {
      "midi": 73,
      "time": 291.666,
      "duration": 0.556,
      "velocity": 1,
      "hand": "right"
    },
    {
      "midi": 78,
      "time": 291.666,
      "duration": 0.278,
      "velocity": 1,
      "hand": "right"
    },
    {
      "midi": 76,
      "time": 291.944,
      "duration": 0.278,
      "velocity": 1,
      "hand": "right"
    },
    {
      "midi": 56,
      "time": 292.222,
      "duration": 0.278,
      "velocity": 1,
      "hand": "left"
    },
    {
      "midi": 66,
      "time": 292.222,
      "duration": 0.263,
      "velocity": 1,
      "hand": "right"
    },
    {
      "midi": 71,
      "time": 292.222,
      "duration": 0.278,
      "velocity": 1,
      "hand": "right"
    },
    {
      "midi": 74,
      "time": 292.222,
      "duration": 0.278,
      "velocity": 1,
      "hand": "right"
    },
    {
      "midi": 58,
      "time": 292.5,
      "duration": 0.556,
      "velocity": 1,
      "hand": "left"
    },
    {
      "midi": 66,
      "time": 292.5,
      "duration": 0.54,
      "velocity": 1,
      "hand": "right"
    },
    {
      "midi": 73,
      "time": 292.5,
      "duration": 0.556,
      "velocity": 1,
      "hand": "right"
    },
    {
      "midi": 78,
      "time": 292.5,
      "duration": 0.278,
      "velocity": 1,
      "hand": "right"
    },
    {
      "midi": 76,
      "time": 292.778,
      "duration": 0.278,
      "velocity": 1,
      "hand": "right"
    },
    {
      "midi": 56,
      "time": 293.055,
      "duration": 0.278,
      "velocity": 1,
      "hand": "left"
    },
    {
      "midi": 66,
      "time": 293.055,
      "duration": 0.263,
      "velocity": 1,
      "hand": "right"
    },
    {
      "midi": 71,
      "time": 293.055,
      "duration": 0.278,
      "velocity": 1,
      "hand": "right"
    },
    {
      "midi": 74,
      "time": 293.055,
      "duration": 0.278,
      "velocity": 1,
      "hand": "right"
    },
    {
      "midi": 58,
      "time": 293.333,
      "duration": 0.556,
      "velocity": 1,
      "hand": "left"
    },
    {
      "midi": 66,
      "time": 293.333,
      "duration": 0.541,
      "velocity": 1,
      "hand": "right"
    },
    {
      "midi": 73,
      "time": 293.333,
      "duration": 0.556,
      "velocity": 1,
      "hand": "right"
    },
    {
      "midi": 78,
      "time": 293.333,
      "duration": 0.278,
      "velocity": 1,
      "hand": "right"
    },
    {
      "midi": 76,
      "time": 293.611,
      "duration": 0.278,
      "velocity": 1,
      "hand": "right"
    },
    {
      "midi": 56,
      "time": 293.889,
      "duration": 0.278,
      "velocity": 1,
      "hand": "left"
    },
    {
      "midi": 66,
      "time": 293.889,
      "duration": 0.262,
      "velocity": 1,
      "hand": "right"
    },
    {
      "midi": 71,
      "time": 293.889,
      "duration": 0.278,
      "velocity": 1,
      "hand": "right"
    },
    {
      "midi": 74,
      "time": 293.889,
      "duration": 0.278,
      "velocity": 1,
      "hand": "right"
    },
    {
      "midi": 58,
      "time": 294.166,
      "duration": 0.278,
      "velocity": 1,
      "hand": "left"
    },
    {
      "midi": 66,
      "time": 294.166,
      "duration": 0.263,
      "velocity": 1,
      "hand": "right"
    },
    {
      "midi": 73,
      "time": 294.166,
      "duration": 0.278,
      "velocity": 1,
      "hand": "right"
    },
    {
      "midi": 78,
      "time": 294.166,
      "duration": 0.278,
      "velocity": 1,
      "hand": "right"
    },
    {
      "midi": 59,
      "time": 294.444,
      "duration": 0.263,
      "velocity": 1,
      "hand": "left"
    },
    {
      "midi": 66,
      "time": 294.444,
      "duration": 0.278,
      "velocity": 1,
      "hand": "right"
    },
    {
      "midi": 71,
      "time": 294.444,
      "duration": 0.263,
      "velocity": 1,
      "hand": "right"
    },
    {
      "midi": 74,
      "time": 294.444,
      "duration": 0.278,
      "velocity": 1,
      "hand": "right"
    },
    {
      "midi": 52,
      "time": 294.722,
      "duration": 0.818,
      "velocity": 1,
      "hand": "left"
    },
    {
      "midi": 59,
      "time": 294.722,
      "duration": 0.833,
      "velocity": 1,
      "hand": "left"
    },
    {
      "midi": 67,
      "time": 294.722,
      "duration": 0.833,
      "velocity": 1,
      "hand": "right"
    },
    {
      "midi": 71,
      "time": 294.722,
      "duration": 0.833,
      "velocity": 1,
      "hand": "right"
    },
    {
      "midi": 76,
      "time": 294.722,
      "duration": 0.833,
      "velocity": 1,
      "hand": "right"
    },
    {
      "midi": 79,
      "time": 294.722,
      "duration": 0.833,
      "velocity": 1,
      "hand": "right"
    },
    {
      "midi": 52,
      "time": 295.555,
      "duration": 0.556,
      "velocity": 1,
      "hand": "left"
    },
    {
      "midi": 55,
      "time": 295.694,
      "duration": 0.139,
      "velocity": 1,
      "hand": "left"
    },
    {
      "midi": 59,
      "time": 295.833,
      "duration": 0.139,
      "velocity": 1,
      "hand": "left"
    },
    {
      "midi": 61,
      "time": 295.972,
      "duration": 0.139,
      "velocity": 1,
      "hand": "right"
    },
    {
      "midi": 64,
      "time": 296.111,
      "duration": 0.139,
      "velocity": 1,
      "hand": "right"
    },
    {
      "midi": 67,
      "time": 296.25,
      "duration": 0.139,
      "velocity": 1,
      "hand": "right"
    },
    {
      "midi": 76,
      "time": 296.389,
      "duration": 0.139,
      "velocity": 1,
      "hand": "right"
    },
    {
      "midi": 73,
      "time": 296.528,
      "duration": 0.139,
      "velocity": 1,
      "hand": "right"
    },
    {
      "midi": 71,
      "time": 296.666,
      "duration": 0.139,
      "velocity": 1,
      "hand": "right"
    },
    {
      "midi": 67,
      "time": 296.805,
      "duration": 0.139,
      "velocity": 1,
      "hand": "right"
    },
    {
      "midi": 64,
      "time": 296.944,
      "duration": 0.139,
      "velocity": 1,
      "hand": "right"
    },
    {
      "midi": 61,
      "time": 297.083,
      "duration": 0.139,
      "velocity": 1,
      "hand": "right"
    },
    {
      "midi": 59,
      "time": 297.222,
      "duration": 0.139,
      "velocity": 1,
      "hand": "left"
    },
    {
      "midi": 55,
      "time": 297.361,
      "duration": 0.139,
      "velocity": 1,
      "hand": "left"
    },
    {
      "midi": 52,
      "time": 297.5,
      "duration": 0.139,
      "velocity": 1,
      "hand": "left"
    },
    {
      "midi": 49,
      "time": 297.639,
      "duration": 0.139,
      "velocity": 1,
      "hand": "left"
    },
    {
      "midi": 47,
      "time": 297.778,
      "duration": 0.139,
      "velocity": 1,
      "hand": "left"
    },
    {
      "midi": 43,
      "time": 297.916,
      "duration": 0.139,
      "velocity": 1,
      "hand": "left"
    },
    {
      "midi": 40,
      "time": 298.055,
      "duration": 0.278,
      "velocity": 1,
      "hand": "left"
    },
    {
      "midi": 49,
      "time": 298.333,
      "duration": 0.278,
      "velocity": 1,
      "hand": "left"
    },
    {
      "midi": 55,
      "time": 298.611,
      "duration": 0.278,
      "velocity": 1,
      "hand": "left"
    },
    {
      "midi": 59,
      "time": 298.611,
      "duration": 0.278,
      "velocity": 1,
      "hand": "left"
    },
    {
      "midi": 64,
      "time": 298.611,
      "duration": 0.278,
      "velocity": 1,
      "hand": "right"
    },
    {
      "midi": 52,
      "time": 298.889,
      "duration": 0.556,
      "velocity": 1,
      "hand": "left"
    },
    {
      "midi": 59,
      "time": 299.028,
      "duration": 0.139,
      "velocity": 1,
      "hand": "left"
    },
    {
      "midi": 61,
      "time": 299.166,
      "duration": 0.139,
      "velocity": 1,
      "hand": "right"
    },
    {
      "midi": 64,
      "time": 299.305,
      "duration": 0.139,
      "velocity": 1,
      "hand": "right"
    },
    {
      "midi": 67,
      "time": 299.444,
      "duration": 0.139,
      "velocity": 1,
      "hand": "right"
    },
    {
      "midi": 71,
      "time": 299.583,
      "duration": 0.139,
      "velocity": 1,
      "hand": "right"
    },
    {
      "midi": 79,
      "time": 299.722,
      "duration": 0.139,
      "velocity": 1,
      "hand": "right"
    },
    {
      "midi": 76,
      "time": 299.861,
      "duration": 0.139,
      "velocity": 1,
      "hand": "right"
    },
    {
      "midi": 73,
      "time": 300,
      "duration": 0.139,
      "velocity": 1,
      "hand": "right"
    },
    {
      "midi": 71,
      "time": 300.139,
      "duration": 0.139,
      "velocity": 1,
      "hand": "right"
    },
    {
      "midi": 67,
      "time": 300.278,
      "duration": 0.139,
      "velocity": 1,
      "hand": "right"
    },
    {
      "midi": 64,
      "time": 300.416,
      "duration": 0.139,
      "velocity": 1,
      "hand": "right"
    },
    {
      "midi": 61,
      "time": 300.555,
      "duration": 0.139,
      "velocity": 1,
      "hand": "right"
    },
    {
      "midi": 59,
      "time": 300.694,
      "duration": 0.139,
      "velocity": 1,
      "hand": "left"
    },
    {
      "midi": 55,
      "time": 300.833,
      "duration": 0.139,
      "velocity": 1,
      "hand": "left"
    },
    {
      "midi": 52,
      "time": 300.972,
      "duration": 0.139,
      "velocity": 1,
      "hand": "left"
    },
    {
      "midi": 49,
      "time": 301.111,
      "duration": 0.139,
      "velocity": 1,
      "hand": "left"
    },
    {
      "midi": 47,
      "time": 301.25,
      "duration": 0.139,
      "velocity": 1,
      "hand": "left"
    },
    {
      "midi": 43,
      "time": 301.389,
      "duration": 0.278,
      "velocity": 1,
      "hand": "left"
    },
    {
      "midi": 49,
      "time": 301.666,
      "duration": 0.278,
      "velocity": 1,
      "hand": "left"
    },
    {
      "midi": 59,
      "time": 301.944,
      "duration": 0.278,
      "velocity": 1,
      "hand": "left"
    },
    {
      "midi": 64,
      "time": 301.944,
      "duration": 0.278,
      "velocity": 1,
      "hand": "right"
    },
    {
      "midi": 67,
      "time": 301.944,
      "duration": 0.278,
      "velocity": 1,
      "hand": "right"
    },
    {
      "midi": 71,
      "time": 301.944,
      "duration": 0.278,
      "velocity": 1,
      "hand": "right"
    },
    {
      "midi": 42,
      "time": 302.222,
      "duration": 0.556,
      "velocity": 1,
      "hand": "left"
    },
    {
      "midi": 47,
      "time": 302.361,
      "duration": 0.139,
      "velocity": 1,
      "hand": "left"
    },
    {
      "midi": 50,
      "time": 302.5,
      "duration": 0.139,
      "velocity": 1,
      "hand": "left"
    },
    {
      "midi": 54,
      "time": 302.639,
      "duration": 0.139,
      "velocity": 1,
      "hand": "left"
    },
    {
      "midi": 59,
      "time": 302.778,
      "duration": 0.139,
      "velocity": 1,
      "hand": "left"
    },
    {
      "midi": 62,
      "time": 302.916,
      "duration": 0.139,
      "velocity": 1,
      "hand": "right"
    },
    {
      "midi": 54,
      "time": 303.055,
      "duration": 0.139,
      "velocity": 1,
      "hand": "left"
    },
    {
      "midi": 66,
      "time": 303.055,
      "duration": 0.139,
      "velocity": 1,
      "hand": "right"
    },
    {
      "midi": 59,
      "time": 303.194,
      "duration": 0.139,
      "velocity": 1,
      "hand": "left"
    },
    {
      "midi": 71,
      "time": 303.194,
      "duration": 0.139,
      "velocity": 1,
      "hand": "right"
    },
    {
      "midi": 62,
      "time": 303.333,
      "duration": 0.139,
      "velocity": 1,
      "hand": "right"
    },
    {
      "midi": 74,
      "time": 303.333,
      "duration": 0.139,
      "velocity": 1,
      "hand": "right"
    },
    {
      "midi": 66,
      "time": 303.472,
      "duration": 0.139,
      "velocity": 1,
      "hand": "right"
    },
    {
      "midi": 78,
      "time": 303.472,
      "duration": 0.139,
      "velocity": 1,
      "hand": "right"
    },
    {
      "midi": 71,
      "time": 303.611,
      "duration": 0.139,
      "velocity": 1,
      "hand": "right"
    },
    {
      "midi": 83,
      "time": 303.611,
      "duration": 0.139,
      "velocity": 1,
      "hand": "right"
    },
    {
      "midi": 74,
      "time": 303.75,
      "duration": 0.139,
      "velocity": 1,
      "hand": "right"
    },
    {
      "midi": 78,
      "time": 303.889,
      "duration": 0.278,
      "velocity": 1,
      "hand": "right"
    },
    {
      "midi": 64,
      "time": 304.166,
      "duration": 0.278,
      "velocity": 1,
      "hand": "right"
    },
    {
      "midi": 76,
      "time": 304.166,
      "duration": 0.263,
      "velocity": 1,
      "hand": "right"
    },
    {
      "midi": 79,
      "time": 304.166,
      "duration": 0.278,
      "velocity": 1,
      "hand": "right"
    },
    {
      "midi": 61,
      "time": 304.444,
      "duration": 0.278,
      "velocity": 1,
      "hand": "right"
    },
    {
      "midi": 73,
      "time": 304.444,
      "duration": 0.278,
      "velocity": 1,
      "hand": "right"
    },
    {
      "midi": 76,
      "time": 304.444,
      "duration": 0.278,
      "velocity": 1,
      "hand": "right"
    },
    {
      "midi": 62,
      "time": 304.722,
      "duration": 0.278,
      "velocity": 1,
      "hand": "right"
    },
    {
      "midi": 74,
      "time": 304.722,
      "duration": 0.263,
      "velocity": 1,
      "hand": "right"
    },
    {
      "midi": 78,
      "time": 304.722,
      "duration": 0.278,
      "velocity": 1,
      "hand": "right"
    },
    {
      "midi": 59,
      "time": 305,
      "duration": 0.278,
      "velocity": 1,
      "hand": "left"
    },
    {
      "midi": 71,
      "time": 305,
      "duration": 0.278,
      "velocity": 1,
      "hand": "right"
    },
    {
      "midi": 74,
      "time": 305,
      "duration": 0.278,
      "velocity": 1,
      "hand": "right"
    },
    {
      "midi": 61,
      "time": 305.278,
      "duration": 0.278,
      "velocity": 1,
      "hand": "right"
    },
    {
      "midi": 73,
      "time": 305.278,
      "duration": 0.262,
      "velocity": 1,
      "hand": "right"
    },
    {
      "midi": 76,
      "time": 305.278,
      "duration": 0.278,
      "velocity": 1,
      "hand": "right"
    },
    {
      "midi": 58,
      "time": 305.555,
      "duration": 0.278,
      "velocity": 1,
      "hand": "left"
    },
    {
      "midi": 70,
      "time": 305.555,
      "duration": 0.278,
      "velocity": 1,
      "hand": "right"
    },
    {
      "midi": 73,
      "time": 305.555,
      "duration": 0.278,
      "velocity": 1,
      "hand": "right"
    },
    {
      "midi": 59,
      "time": 305.833,
      "duration": 0.278,
      "velocity": 1,
      "hand": "left"
    },
    {
      "midi": 71,
      "time": 305.833,
      "duration": 0.278,
      "velocity": 1,
      "hand": "right"
    },
    {
      "midi": 74,
      "time": 305.833,
      "duration": 0.278,
      "velocity": 1,
      "hand": "right"
    },
    {
      "midi": 54,
      "time": 306.111,
      "duration": 0.278,
      "velocity": 1,
      "hand": "left"
    },
    {
      "midi": 66,
      "time": 306.111,
      "duration": 0.278,
      "velocity": 1,
      "hand": "right"
    },
    {
      "midi": 70,
      "time": 306.111,
      "duration": 0.278,
      "velocity": 1,
      "hand": "right"
    },
    {
      "midi": 82,
      "time": 306.111,
      "duration": 0.278,
      "velocity": 1,
      "hand": "right"
    },
    {
      "midi": 55,
      "time": 306.389,
      "duration": 0.278,
      "velocity": 1,
      "hand": "left"
    },
    {
      "midi": 67,
      "time": 306.389,
      "duration": 0.278,
      "velocity": 1,
      "hand": "right"
    },
    {
      "midi": 71,
      "time": 306.389,
      "duration": 0.278,
      "velocity": 1,
      "hand": "right"
    },
    {
      "midi": 83,
      "time": 306.389,
      "duration": 0.278,
      "velocity": 1,
      "hand": "right"
    },
    {
      "midi": 50,
      "time": 306.666,
      "duration": 0.278,
      "velocity": 1,
      "hand": "left"
    },
    {
      "midi": 62,
      "time": 306.666,
      "duration": 0.278,
      "velocity": 1,
      "hand": "right"
    },
    {
      "midi": 66,
      "time": 306.666,
      "duration": 0.278,
      "velocity": 1,
      "hand": "right"
    },
    {
      "midi": 78,
      "time": 306.666,
      "duration": 0.278,
      "velocity": 1,
      "hand": "right"
    },
    {
      "midi": 52,
      "time": 306.944,
      "duration": 0.278,
      "velocity": 1,
      "hand": "left"
    },
    {
      "midi": 64,
      "time": 306.944,
      "duration": 0.263,
      "velocity": 1,
      "hand": "right"
    },
    {
      "midi": 67,
      "time": 306.944,
      "duration": 0.278,
      "velocity": 1,
      "hand": "right"
    },
    {
      "midi": 79,
      "time": 306.944,
      "duration": 0.278,
      "velocity": 1,
      "hand": "right"
    },
    {
      "midi": 49,
      "time": 307.222,
      "duration": 0.278,
      "velocity": 1,
      "hand": "left"
    },
    {
      "midi": 61,
      "time": 307.222,
      "duration": 0.278,
      "velocity": 1,
      "hand": "right"
    },
    {
      "midi": 64,
      "time": 307.222,
      "duration": 0.278,
      "velocity": 1,
      "hand": "right"
    },
    {
      "midi": 76,
      "time": 307.222,
      "duration": 0.278,
      "velocity": 1,
      "hand": "right"
    },
    {
      "midi": 50,
      "time": 307.5,
      "duration": 0.278,
      "velocity": 1,
      "hand": "left"
    },
    {
      "midi": 62,
      "time": 307.5,
      "duration": 0.263,
      "velocity": 1,
      "hand": "right"
    },
    {
      "midi": 66,
      "time": 307.5,
      "duration": 0.278,
      "velocity": 1,
      "hand": "right"
    },
    {
      "midi": 78,
      "time": 307.5,
      "duration": 0.278,
      "velocity": 1,
      "hand": "right"
    },
    {
      "midi": 47,
      "time": 307.778,
      "duration": 0.278,
      "velocity": 1,
      "hand": "left"
    },
    {
      "midi": 59,
      "time": 307.778,
      "duration": 0.278,
      "velocity": 1,
      "hand": "left"
    },
    {
      "midi": 62,
      "time": 307.778,
      "duration": 0.278,
      "velocity": 1,
      "hand": "right"
    },
    {
      "midi": 74,
      "time": 307.778,
      "duration": 0.278,
      "velocity": 1,
      "hand": "right"
    },
    {
      "midi": 49,
      "time": 308.055,
      "duration": 0.278,
      "velocity": 1,
      "hand": "left"
    },
    {
      "midi": 61,
      "time": 308.055,
      "duration": 0.263,
      "velocity": 1,
      "hand": "right"
    },
    {
      "midi": 64,
      "time": 308.055,
      "duration": 0.278,
      "velocity": 1,
      "hand": "right"
    },
    {
      "midi": 76,
      "time": 308.055,
      "duration": 0.278,
      "velocity": 1,
      "hand": "right"
    },
    {
      "midi": 46,
      "time": 308.333,
      "duration": 0.278,
      "velocity": 1,
      "hand": "left"
    },
    {
      "midi": 58,
      "time": 308.333,
      "duration": 0.278,
      "velocity": 1,
      "hand": "left"
    },
    {
      "midi": 61,
      "time": 308.333,
      "duration": 0.278,
      "velocity": 1,
      "hand": "right"
    },
    {
      "midi": 73,
      "time": 308.333,
      "duration": 0.278,
      "velocity": 1,
      "hand": "right"
    },
    {
      "midi": 47,
      "time": 308.611,
      "duration": 0.278,
      "velocity": 1,
      "hand": "left"
    },
    {
      "midi": 59,
      "time": 308.611,
      "duration": 0.278,
      "velocity": 1,
      "hand": "left"
    },
    {
      "midi": 62,
      "time": 308.611,
      "duration": 0.278,
      "velocity": 1,
      "hand": "right"
    },
    {
      "midi": 74,
      "time": 308.611,
      "duration": 0.278,
      "velocity": 1,
      "hand": "right"
    },
    {
      "midi": 42,
      "time": 308.889,
      "duration": 0.278,
      "velocity": 1,
      "hand": "left"
    },
    {
      "midi": 54,
      "time": 308.889,
      "duration": 0.278,
      "velocity": 1,
      "hand": "left"
    },
    {
      "midi": 70,
      "time": 308.889,
      "duration": 0.278,
      "velocity": 1,
      "hand": "right"
    },
    {
      "midi": 43,
      "time": 309.166,
      "duration": 0.278,
      "velocity": 1,
      "hand": "left"
    },
    {
      "midi": 55,
      "time": 309.166,
      "duration": 0.278,
      "velocity": 1,
      "hand": "left"
    },
    {
      "midi": 71,
      "time": 309.166,
      "duration": 0.278,
      "velocity": 1,
      "hand": "right"
    },
    {
      "midi": 38,
      "time": 309.444,
      "duration": 0.278,
      "velocity": 1,
      "hand": "left"
    },
    {
      "midi": 50,
      "time": 309.444,
      "duration": 0.278,
      "velocity": 1,
      "hand": "left"
    },
    {
      "midi": 66,
      "time": 309.444,
      "duration": 0.278,
      "velocity": 1,
      "hand": "right"
    },
    {
      "midi": 40,
      "time": 309.722,
      "duration": 0.556,
      "velocity": 1,
      "hand": "left"
    },
    {
      "midi": 52,
      "time": 309.722,
      "duration": 0.556,
      "velocity": 1,
      "hand": "left"
    },
    {
      "midi": 67,
      "time": 309.722,
      "duration": 0.556,
      "velocity": 1,
      "hand": "right"
    },
    {
      "midi": 42,
      "time": 310.278,
      "duration": 0.278,
      "velocity": 1,
      "hand": "left"
    },
    {
      "midi": 54,
      "time": 310.278,
      "duration": 0.278,
      "velocity": 1,
      "hand": "left"
    },
    {
      "midi": 61,
      "time": 310.278,
      "duration": 0.278,
      "velocity": 1,
      "hand": "right"
    },
    {
      "midi": 64,
      "time": 310.278,
      "duration": 0.278,
      "velocity": 1,
      "hand": "right"
    },
    {
      "midi": 70,
      "time": 310.278,
      "duration": 0.278,
      "velocity": 1,
      "hand": "right"
    },
    {
      "midi": 47,
      "time": 310.555,
      "duration": 0.278,
      "velocity": 1,
      "hand": "left"
    },
    {
      "midi": 62,
      "time": 310.555,
      "duration": 0.278,
      "velocity": 1,
      "hand": "right"
    },
    {
      "midi": 66,
      "time": 310.555,
      "duration": 0.278,
      "velocity": 1,
      "hand": "right"
    },
    {
      "midi": 71,
      "time": 310.555,
      "duration": 0.278,
      "velocity": 1,
      "hand": "right"
    },
    {
      "midi": 52,
      "time": 310.833,
      "duration": 0.278,
      "velocity": 1,
      "hand": "left"
    },
    {
      "midi": 54,
      "time": 311.111,
      "duration": 0.278,
      "velocity": 1,
      "hand": "left"
    },
    {
      "midi": 55,
      "time": 311.389,
      "duration": 1.111,
      "velocity": 1,
      "hand": "left"
    },
    {
      "midi": 61,
      "time": 311.666,
      "duration": 0.278,
      "velocity": 1,
      "hand": "right"
    },
    {
      "midi": 71,
      "time": 311.666,
      "duration": 0.263,
      "velocity": 1,
      "hand": "right"
    },
    {
      "midi": 73,
      "time": 311.666,
      "duration": 0.263,
      "velocity": 1,
      "hand": "right"
    },
    {
      "midi": 62,
      "time": 311.944,
      "duration": 0.278,
      "velocity": 1,
      "hand": "right"
    },
    {
      "midi": 71,
      "time": 311.944,
      "duration": 0.263,
      "velocity": 1,
      "hand": "right"
    },
    {
      "midi": 73,
      "time": 311.944,
      "duration": 0.263,
      "velocity": 1,
      "hand": "right"
    },
    {
      "midi": 64,
      "time": 312.222,
      "duration": 0.278,
      "velocity": 1,
      "hand": "right"
    },
    {
      "midi": 71,
      "time": 312.222,
      "duration": 0.278,
      "velocity": 1,
      "hand": "right"
    },
    {
      "midi": 73,
      "time": 312.222,
      "duration": 0.278,
      "velocity": 1,
      "hand": "right"
    },
    {
      "midi": 45,
      "time": 312.5,
      "duration": 0.278,
      "velocity": 1,
      "hand": "left"
    },
    {
      "midi": 43,
      "time": 312.778,
      "duration": 0.278,
      "velocity": 1,
      "hand": "left"
    },
    {
      "midi": 42,
      "time": 313.055,
      "duration": 0.833,
      "velocity": 1,
      "hand": "left"
    },
    {
      "midi": 56,
      "time": 313.333,
      "duration": 0.278,
      "velocity": 1,
      "hand": "left"
    },
    {
      "midi": 59,
      "time": 313.333,
      "duration": 0.278,
      "velocity": 1,
      "hand": "left"
    },
    {
      "midi": 66,
      "time": 313.333,
      "duration": 0.263,
      "velocity": 1,
      "hand": "right"
    },
    {
      "midi": 58,
      "time": 313.611,
      "duration": 0.278,
      "velocity": 1,
      "hand": "left"
    },
    {
      "midi": 61,
      "time": 313.611,
      "duration": 0.278,
      "velocity": 1,
      "hand": "right"
    },
    {
      "midi": 66,
      "time": 313.611,
      "duration": 0.263,
      "velocity": 1,
      "hand": "right"
    },
    {
      "midi": 47,
      "time": 313.889,
      "duration": 0.278,
      "velocity": 1,
      "hand": "left"
    },
    {
      "midi": 59,
      "time": 313.889,
      "duration": 0.278,
      "velocity": 1,
      "hand": "left"
    },
    {
      "midi": 62,
      "time": 313.889,
      "duration": 0.278,
      "velocity": 1,
      "hand": "right"
    },
    {
      "midi": 66,
      "time": 313.889,
      "duration": 0.278,
      "velocity": 1,
      "hand": "right"
    },
    {
      "midi": 52,
      "time": 314.166,
      "duration": 0.278,
      "velocity": 1,
      "hand": "left"
    },
    {
      "midi": 54,
      "time": 314.444,
      "duration": 0.278,
      "velocity": 1,
      "hand": "left"
    },
    {
      "midi": 55,
      "time": 314.722,
      "duration": 1.111,
      "velocity": 1,
      "hand": "left"
    },
    {
      "midi": 61,
      "time": 315,
      "duration": 0.278,
      "velocity": 1,
      "hand": "right"
    },
    {
      "midi": 71,
      "time": 315,
      "duration": 0.263,
      "velocity": 1,
      "hand": "right"
    },
    {
      "midi": 73,
      "time": 315,
      "duration": 0.263,
      "velocity": 1,
      "hand": "right"
    },
    {
      "midi": 62,
      "time": 315.278,
      "duration": 0.278,
      "velocity": 1,
      "hand": "right"
    },
    {
      "midi": 71,
      "time": 315.278,
      "duration": 0.262,
      "velocity": 1,
      "hand": "right"
    },
    {
      "midi": 73,
      "time": 315.278,
      "duration": 0.262,
      "velocity": 1,
      "hand": "right"
    },
    {
      "midi": 64,
      "time": 315.555,
      "duration": 0.278,
      "velocity": 1,
      "hand": "right"
    },
    {
      "midi": 71,
      "time": 315.555,
      "duration": 0.278,
      "velocity": 1,
      "hand": "right"
    },
    {
      "midi": 73,
      "time": 315.555,
      "duration": 0.278,
      "velocity": 1,
      "hand": "right"
    },
    {
      "midi": 45,
      "time": 315.833,
      "duration": 0.278,
      "velocity": 1,
      "hand": "left"
    },
    {
      "midi": 43,
      "time": 316.111,
      "duration": 0.278,
      "velocity": 1,
      "hand": "left"
    },
    {
      "midi": 42,
      "time": 316.389,
      "duration": 0.833,
      "velocity": 1,
      "hand": "left"
    },
    {
      "midi": 56,
      "time": 316.666,
      "duration": 0.278,
      "velocity": 1,
      "hand": "left"
    },
    {
      "midi": 59,
      "time": 316.666,
      "duration": 0.278,
      "velocity": 1,
      "hand": "left"
    },
    {
      "midi": 66,
      "time": 316.666,
      "duration": 0.263,
      "velocity": 1,
      "hand": "right"
    },
    {
      "midi": 58,
      "time": 316.944,
      "duration": 0.278,
      "velocity": 1,
      "hand": "left"
    },
    {
      "midi": 61,
      "time": 316.944,
      "duration": 0.278,
      "velocity": 1,
      "hand": "right"
    },
    {
      "midi": 66,
      "time": 316.944,
      "duration": 0.263,
      "velocity": 1,
      "hand": "right"
    },
    {
      "midi": 47,
      "time": 317.222,
      "duration": 0.278,
      "velocity": 1,
      "hand": "left"
    },
    {
      "midi": 59,
      "time": 317.222,
      "duration": 0.263,
      "velocity": 1,
      "hand": "left"
    },
    {
      "midi": 62,
      "time": 317.222,
      "duration": 0.263,
      "velocity": 1,
      "hand": "right"
    },
    {
      "midi": 66,
      "time": 317.222,
      "duration": 0.263,
      "velocity": 1,
      "hand": "right"
    },
    {
      "midi": 50,
      "time": 317.5,
      "duration": 0.263,
      "velocity": 1,
      "hand": "left"
    },
    {
      "midi": 54,
      "time": 317.5,
      "duration": 0.263,
      "velocity": 1,
      "hand": "left"
    },
    {
      "midi": 62,
      "time": 317.5,
      "duration": 0.263,
      "velocity": 1,
      "hand": "right"
    },
    {
      "midi": 66,
      "time": 317.5,
      "duration": 0.263,
      "velocity": 1,
      "hand": "right"
    },
    {
      "midi": 71,
      "time": 317.5,
      "duration": 0.278,
      "velocity": 1,
      "hand": "right"
    },
    {
      "midi": 50,
      "time": 317.778,
      "duration": 0.262,
      "velocity": 1,
      "hand": "left"
    },
    {
      "midi": 54,
      "time": 317.778,
      "duration": 0.262,
      "velocity": 1,
      "hand": "left"
    },
    {
      "midi": 62,
      "time": 317.778,
      "duration": 0.262,
      "velocity": 1,
      "hand": "right"
    },
    {
      "midi": 66,
      "time": 317.778,
      "duration": 0.262,
      "velocity": 1,
      "hand": "right"
    },
    {
      "midi": 70,
      "time": 317.778,
      "duration": 0.278,
      "velocity": 1,
      "hand": "right"
    },
    {
      "midi": 50,
      "time": 318.055,
      "duration": 0.278,
      "velocity": 1,
      "hand": "left"
    },
    {
      "midi": 54,
      "time": 318.055,
      "duration": 0.263,
      "velocity": 1,
      "hand": "left"
    },
    {
      "midi": 62,
      "time": 318.055,
      "duration": 0.263,
      "velocity": 1,
      "hand": "right"
    },
    {
      "midi": 66,
      "time": 318.055,
      "duration": 0.263,
      "velocity": 1,
      "hand": "right"
    },
    {
      "midi": 71,
      "time": 318.055,
      "duration": 0.263,
      "velocity": 1,
      "hand": "right"
    },
    {
      "midi": 54,
      "time": 318.333,
      "duration": 0.263,
      "velocity": 1,
      "hand": "left"
    },
    {
      "midi": 59,
      "time": 318.333,
      "duration": 0.263,
      "velocity": 1,
      "hand": "left"
    },
    {
      "midi": 62,
      "time": 318.333,
      "duration": 0.278,
      "velocity": 1,
      "hand": "right"
    },
    {
      "midi": 66,
      "time": 318.333,
      "duration": 0.263,
      "velocity": 1,
      "hand": "right"
    },
    {
      "midi": 71,
      "time": 318.333,
      "duration": 0.263,
      "velocity": 1,
      "hand": "right"
    },
    {
      "midi": 74,
      "time": 318.333,
      "duration": 0.278,
      "velocity": 1,
      "hand": "right"
    },
    {
      "midi": 54,
      "time": 318.611,
      "duration": 0.263,
      "velocity": 1,
      "hand": "left"
    },
    {
      "midi": 59,
      "time": 318.611,
      "duration": 0.263,
      "velocity": 1,
      "hand": "left"
    },
    {
      "midi": 61,
      "time": 318.611,
      "duration": 0.278,
      "velocity": 1,
      "hand": "right"
    },
    {
      "midi": 66,
      "time": 318.611,
      "duration": 0.263,
      "velocity": 1,
      "hand": "right"
    },
    {
      "midi": 71,
      "time": 318.611,
      "duration": 0.263,
      "velocity": 1,
      "hand": "right"
    },
    {
      "midi": 73,
      "time": 318.611,
      "duration": 0.278,
      "velocity": 1,
      "hand": "right"
    },
    {
      "midi": 54,
      "time": 318.889,
      "duration": 0.278,
      "velocity": 1,
      "hand": "left"
    },
    {
      "midi": 59,
      "time": 318.889,
      "duration": 0.262,
      "velocity": 1,
      "hand": "left"
    },
    {
      "midi": 62,
      "time": 318.889,
      "duration": 0.262,
      "velocity": 1,
      "hand": "right"
    },
    {
      "midi": 66,
      "time": 318.889,
      "duration": 0.262,
      "velocity": 1,
      "hand": "right"
    },
    {
      "midi": 71,
      "time": 318.889,
      "duration": 0.262,
      "velocity": 1,
      "hand": "right"
    },
    {
      "midi": 74,
      "time": 318.889,
      "duration": 0.262,
      "velocity": 1,
      "hand": "right"
    },
    {
      "midi": 59,
      "time": 319.166,
      "duration": 0.263,
      "velocity": 1,
      "hand": "left"
    },
    {
      "midi": 66,
      "time": 319.166,
      "duration": 0.278,
      "velocity": 1,
      "hand": "right"
    },
    {
      "midi": 71,
      "time": 319.166,
      "duration": 0.263,
      "velocity": 1,
      "hand": "right"
    },
    {
      "midi": 74,
      "time": 319.166,
      "duration": 0.263,
      "velocity": 1,
      "hand": "right"
    },
    {
      "midi": 78,
      "time": 319.166,
      "duration": 0.278,
      "velocity": 1,
      "hand": "right"
    },
    {
      "midi": 59,
      "time": 319.444,
      "duration": 0.263,
      "velocity": 1,
      "hand": "left"
    },
    {
      "midi": 65,
      "time": 319.444,
      "duration": 0.278,
      "velocity": 1,
      "hand": "right"
    },
    {
      "midi": 71,
      "time": 319.444,
      "duration": 0.263,
      "velocity": 1,
      "hand": "right"
    },
    {
      "midi": 74,
      "time": 319.444,
      "duration": 0.263,
      "velocity": 1,
      "hand": "right"
    },
    {
      "midi": 77,
      "time": 319.444,
      "duration": 0.278,
      "velocity": 1,
      "hand": "right"
    },
    {
      "midi": 59,
      "time": 319.722,
      "duration": 0.278,
      "velocity": 1,
      "hand": "left"
    },
    {
      "midi": 66,
      "time": 319.722,
      "duration": 0.263,
      "velocity": 1,
      "hand": "right"
    },
    {
      "midi": 71,
      "time": 319.722,
      "duration": 0.263,
      "velocity": 1,
      "hand": "right"
    },
    {
      "midi": 74,
      "time": 319.722,
      "duration": 0.263,
      "velocity": 1,
      "hand": "right"
    },
    {
      "midi": 78,
      "time": 319.722,
      "duration": 0.263,
      "velocity": 1,
      "hand": "right"
    },
    {
      "midi": 71,
      "time": 320,
      "duration": 0.278,
      "velocity": 1,
      "hand": "right"
    },
    {
      "midi": 74,
      "time": 320,
      "duration": 0.263,
      "velocity": 1,
      "hand": "right"
    },
    {
      "midi": 78,
      "time": 320,
      "duration": 0.263,
      "velocity": 1,
      "hand": "right"
    },
    {
      "midi": 83,
      "time": 320,
      "duration": 0.278,
      "velocity": 1,
      "hand": "right"
    },
    {
      "midi": 70,
      "time": 320.278,
      "duration": 0.278,
      "velocity": 1,
      "hand": "right"
    },
    {
      "midi": 74,
      "time": 320.278,
      "duration": 0.262,
      "velocity": 1,
      "hand": "right"
    },
    {
      "midi": 78,
      "time": 320.278,
      "duration": 0.262,
      "velocity": 1,
      "hand": "right"
    },
    {
      "midi": 82,
      "time": 320.278,
      "duration": 0.278,
      "velocity": 1,
      "hand": "right"
    },
    {
      "midi": 71,
      "time": 320.555,
      "duration": 0.263,
      "velocity": 1,
      "hand": "right"
    },
    {
      "midi": 74,
      "time": 320.555,
      "duration": 0.263,
      "velocity": 1,
      "hand": "right"
    },
    {
      "midi": 78,
      "time": 320.555,
      "duration": 0.263,
      "velocity": 1,
      "hand": "right"
    },
    {
      "midi": 83,
      "time": 320.555,
      "duration": 0.263,
      "velocity": 1,
      "hand": "right"
    },
    {
      "midi": 71,
      "time": 320.833,
      "duration": 0.263,
      "velocity": 1,
      "hand": "right"
    },
    {
      "midi": 74,
      "time": 320.833,
      "duration": 0.278,
      "velocity": 1,
      "hand": "right"
    },
    {
      "midi": 78,
      "time": 320.833,
      "duration": 0.263,
      "velocity": 1,
      "hand": "right"
    },
    {
      "midi": 83,
      "time": 320.833,
      "duration": 0.263,
      "velocity": 1,
      "hand": "right"
    },
    {
      "midi": 71,
      "time": 321.111,
      "duration": 0.263,
      "velocity": 1,
      "hand": "right"
    },
    {
      "midi": 73,
      "time": 321.111,
      "duration": 0.278,
      "velocity": 1,
      "hand": "right"
    },
    {
      "midi": 78,
      "time": 321.111,
      "duration": 0.263,
      "velocity": 1,
      "hand": "right"
    },
    {
      "midi": 83,
      "time": 321.111,
      "duration": 0.263,
      "velocity": 1,
      "hand": "right"
    },
    {
      "midi": 71,
      "time": 321.389,
      "duration": 0.262,
      "velocity": 1,
      "hand": "right"
    },
    {
      "midi": 74,
      "time": 321.389,
      "duration": 0.262,
      "velocity": 1,
      "hand": "right"
    },
    {
      "midi": 78,
      "time": 321.389,
      "duration": 0.262,
      "velocity": 1,
      "hand": "right"
    },
    {
      "midi": 83,
      "time": 321.389,
      "duration": 0.262,
      "velocity": 1,
      "hand": "right"
    },
    {
      "midi": 71,
      "time": 321.666,
      "duration": 0.263,
      "velocity": 1,
      "hand": "right"
    },
    {
      "midi": 74,
      "time": 321.666,
      "duration": 0.263,
      "velocity": 1,
      "hand": "right"
    },
    {
      "midi": 78,
      "time": 321.666,
      "duration": 0.278,
      "velocity": 1,
      "hand": "right"
    },
    {
      "midi": 83,
      "time": 321.666,
      "duration": 0.263,
      "velocity": 1,
      "hand": "right"
    },
    {
      "midi": 71,
      "time": 321.944,
      "duration": 0.263,
      "velocity": 1,
      "hand": "right"
    },
    {
      "midi": 74,
      "time": 321.944,
      "duration": 0.263,
      "velocity": 1,
      "hand": "right"
    },
    {
      "midi": 77,
      "time": 321.944,
      "duration": 0.278,
      "velocity": 1,
      "hand": "right"
    },
    {
      "midi": 83,
      "time": 321.944,
      "duration": 0.263,
      "velocity": 1,
      "hand": "right"
    },
    {
      "midi": 71,
      "time": 322.222,
      "duration": 0.263,
      "velocity": 1,
      "hand": "right"
    },
    {
      "midi": 74,
      "time": 322.222,
      "duration": 0.263,
      "velocity": 1,
      "hand": "right"
    },
    {
      "midi": 78,
      "time": 322.222,
      "duration": 0.263,
      "velocity": 1,
      "hand": "right"
    },
    {
      "midi": 83,
      "time": 322.222,
      "duration": 0.263,
      "velocity": 1,
      "hand": "right"
    },
    {
      "midi": 71,
      "time": 322.5,
      "duration": 0.263,
      "velocity": 1,
      "hand": "right"
    },
    {
      "midi": 74,
      "time": 322.5,
      "duration": 0.263,
      "velocity": 1,
      "hand": "right"
    },
    {
      "midi": 78,
      "time": 322.5,
      "duration": 0.263,
      "velocity": 1,
      "hand": "right"
    },
    {
      "midi": 83,
      "time": 322.5,
      "duration": 0.278,
      "velocity": 1,
      "hand": "right"
    },
    {
      "midi": 71,
      "time": 322.778,
      "duration": 0.262,
      "velocity": 1,
      "hand": "right"
    },
    {
      "midi": 74,
      "time": 322.778,
      "duration": 0.262,
      "velocity": 1,
      "hand": "right"
    },
    {
      "midi": 78,
      "time": 322.778,
      "duration": 0.262,
      "velocity": 1,
      "hand": "right"
    },
    {
      "midi": 82,
      "time": 322.778,
      "duration": 0.278,
      "velocity": 1,
      "hand": "right"
    },
    {
      "midi": 71,
      "time": 323.055,
      "duration": 0.263,
      "velocity": 1,
      "hand": "right"
    },
    {
      "midi": 74,
      "time": 323.055,
      "duration": 0.263,
      "velocity": 1,
      "hand": "right"
    },
    {
      "midi": 78,
      "time": 323.055,
      "duration": 0.263,
      "velocity": 1,
      "hand": "right"
    },
    {
      "midi": 83,
      "time": 323.055,
      "duration": 0.263,
      "velocity": 1,
      "hand": "right"
    },
    {
      "midi": 71,
      "time": 323.333,
      "duration": 0.263,
      "velocity": 1,
      "hand": "right"
    },
    {
      "midi": 74,
      "time": 323.333,
      "duration": 0.263,
      "velocity": 1,
      "hand": "right"
    },
    {
      "midi": 78,
      "time": 323.333,
      "duration": 0.263,
      "velocity": 1,
      "hand": "right"
    },
    {
      "midi": 83,
      "time": 323.333,
      "duration": 0.278,
      "velocity": 1,
      "hand": "right"
    },
    {
      "midi": 71,
      "time": 323.611,
      "duration": 0.263,
      "velocity": 1,
      "hand": "right"
    },
    {
      "midi": 74,
      "time": 323.611,
      "duration": 0.263,
      "velocity": 1,
      "hand": "right"
    },
    {
      "midi": 78,
      "time": 323.611,
      "duration": 0.263,
      "velocity": 1,
      "hand": "right"
    },
    {
      "midi": 82,
      "time": 323.611,
      "duration": 0.278,
      "velocity": 1,
      "hand": "right"
    },
    {
      "midi": 71,
      "time": 323.889,
      "duration": 0.278,
      "velocity": 1,
      "hand": "right"
    },
    {
      "midi": 74,
      "time": 323.889,
      "duration": 0.278,
      "velocity": 1,
      "hand": "right"
    },
    {
      "midi": 78,
      "time": 323.889,
      "duration": 0.278,
      "velocity": 1,
      "hand": "right"
    },
    {
      "midi": 83,
      "time": 323.889,
      "duration": 0.278,
      "velocity": 1,
      "hand": "right"
    },
    {
      "midi": 59,
      "time": 324.722,
      "duration": 0.278,
      "velocity": 1,
      "hand": "left"
    },
    {
      "midi": 71,
      "time": 324.722,
      "duration": 0.278,
      "velocity": 1,
      "hand": "right"
    },
    {
      "midi": 74,
      "time": 324.722,
      "duration": 0.278,
      "velocity": 1,
      "hand": "right"
    },
    {
      "midi": 78,
      "time": 324.722,
      "duration": 0.278,
      "velocity": 1,
      "hand": "right"
    },
    {
      "midi": 83,
      "time": 324.722,
      "duration": 0.278,
      "velocity": 1,
      "hand": "right"
    },
    {
      "midi": 47,
      "time": 325.555,
      "duration": 0.278,
      "velocity": 1,
      "hand": "left"
    },
    {
      "midi": 54,
      "time": 325.555,
      "duration": 0.278,
      "velocity": 1,
      "hand": "left"
    },
    {
      "midi": 62,
      "time": 325.555,
      "duration": 0.278,
      "velocity": 1,
      "hand": "right"
    },
    {
      "midi": 66,
      "time": 325.555,
      "duration": 0.278,
      "velocity": 1,
      "hand": "right"
    },
    {
      "midi": 71,
      "time": 325.555,
      "duration": 0.278,
      "velocity": 1,
      "hand": "right"
    },
    {
      "midi": 42,
      "time": 326.389,
      "duration": 0.278,
      "velocity": 1,
      "hand": "left"
    },
    {
      "midi": 47,
      "time": 326.389,
      "duration": 0.278,
      "velocity": 1,
      "hand": "left"
    },
    {
      "midi": 47,
      "time": 327.222,
      "duration": 0.278,
      "velocity": 1,
      "hand": "left"
    },
    {
      "midi": 50,
      "time": 327.222,
      "duration": 0.278,
      "velocity": 1,
      "hand": "left"
    },
    {
      "midi": 62,
      "time": 327.222,
      "duration": 0.278,
      "velocity": 1,
      "hand": "right"
    },
    {
      "midi": 66,
      "time": 327.222,
      "duration": 0.278,
      "velocity": 1,
      "hand": "right"
    },
    {
      "midi": 71,
      "time": 327.222,
      "duration": 0.278,
      "velocity": 1,
      "hand": "right"
    },
    {
      "midi": 47,
      "time": 328.055,
      "duration": 0.278,
      "velocity": 1,
      "hand": "left"
    },
    {
      "midi": 54,
      "time": 328.055,
      "duration": 0.278,
      "velocity": 1,
      "hand": "left"
    },
    {
      "midi": 71,
      "time": 328.055,
      "duration": 0.278,
      "velocity": 1,
      "hand": "right"
    },
    {
      "midi": 74,
      "time": 328.055,
      "duration": 0.278,
      "velocity": 1,
      "hand": "right"
    },
    {
      "midi": 78,
      "time": 328.055,
      "duration": 0.278,
      "velocity": 1,
      "hand": "right"
    },
    {
      "midi": 83,
      "time": 328.055,
      "duration": 0.278,
      "velocity": 1,
      "hand": "right"
    },
    {
      "midi": 47,
      "time": 328.889,
      "duration": 1.667,
      "velocity": 1,
      "hand": "left"
    },
    {
      "midi": 59,
      "time": 328.889,
      "duration": 1.667,
      "velocity": 1,
      "hand": "left"
    }
  ],
  "arrangements": {
    "easy": [
      {
        "midi": 71,
        "time": 0,
        "duration": 0.333,
        "velocity": 1,
        "hand": "right"
      },
      {
        "midi": 71,
        "time": 0.555,
        "duration": 0.556,
        "velocity": 1,
        "hand": "right"
      },
      {
        "midi": 70,
        "time": 1.111,
        "duration": 0.333,
        "velocity": 1,
        "hand": "right"
      },
      {
        "midi": 67,
        "time": 1.666,
        "duration": 0.333,
        "velocity": 1,
        "hand": "right"
      },
      {
        "midi": 67,
        "time": 2.222,
        "duration": 0.556,
        "velocity": 1,
        "hand": "right"
      },
      {
        "midi": 66,
        "time": 2.778,
        "duration": 0.333,
        "velocity": 1,
        "hand": "right"
      },
      {
        "midi": 66,
        "time": 3.333,
        "duration": 0.333,
        "velocity": 1,
        "hand": "right"
      },
      {
        "midi": 66,
        "time": 3.889,
        "duration": 0.556,
        "velocity": 1,
        "hand": "right"
      },
      {
        "midi": 64,
        "time": 4.444,
        "duration": 0.333,
        "velocity": 1,
        "hand": "right"
      },
      {
        "midi": 64,
        "time": 5,
        "duration": 0.333,
        "velocity": 1,
        "hand": "right"
      },
      {
        "midi": 62,
        "time": 5.555,
        "duration": 0.333,
        "velocity": 1,
        "hand": "right"
      },
      {
        "midi": 61,
        "time": 6.111,
        "duration": 0.333,
        "velocity": 1,
        "hand": "right"
      },
      {
        "midi": 65,
        "time": 6.666,
        "duration": 0.333,
        "velocity": 1,
        "hand": "right"
      },
      {
        "midi": 55,
        "time": 7.222,
        "duration": 0.833,
        "velocity": 1,
        "hand": "right"
      },
      {
        "midi": 74,
        "time": 7.778,
        "duration": 0.333,
        "velocity": 1,
        "hand": "right"
      },
      {
        "midi": 57,
        "time": 8.333,
        "duration": 0.333,
        "velocity": 1,
        "hand": "right"
      },
      {
        "midi": 66,
        "time": 8.889,
        "duration": 0.833,
        "velocity": 1,
        "hand": "right"
      },
      {
        "midi": 64,
        "time": 9.444,
        "duration": 0.333,
        "velocity": 1,
        "hand": "right"
      },
      {
        "midi": 65,
        "time": 10,
        "duration": 0.333,
        "velocity": 1,
        "hand": "right"
      },
      {
        "midi": 55,
        "time": 10.555,
        "duration": 0.833,
        "velocity": 1,
        "hand": "right"
      },
      {
        "midi": 74,
        "time": 11.111,
        "duration": 0.333,
        "velocity": 1,
        "hand": "right"
      },
      {
        "midi": 57,
        "time": 11.666,
        "duration": 0.333,
        "velocity": 1,
        "hand": "right"
      },
      {
        "midi": 66,
        "time": 12.222,
        "duration": 0.833,
        "velocity": 1,
        "hand": "right"
      },
      {
        "midi": 64,
        "time": 12.778,
        "duration": 0.333,
        "velocity": 1,
        "hand": "right"
      },
      {
        "midi": 71,
        "time": 13.333,
        "duration": 0.333,
        "velocity": 1,
        "hand": "right"
      },
      {
        "midi": 71,
        "time": 13.889,
        "duration": 0.556,
        "velocity": 1,
        "hand": "right"
      },
      {
        "midi": 70,
        "time": 14.444,
        "duration": 0.333,
        "velocity": 1,
        "hand": "right"
      },
      {
        "midi": 67,
        "time": 15,
        "duration": 0.333,
        "velocity": 1,
        "hand": "right"
      },
      {
        "midi": 67,
        "time": 15.555,
        "duration": 0.556,
        "velocity": 1,
        "hand": "right"
      },
      {
        "midi": 66,
        "time": 16.111,
        "duration": 0.333,
        "velocity": 1,
        "hand": "right"
      },
      {
        "midi": 66,
        "time": 16.666,
        "duration": 0.333,
        "velocity": 1,
        "hand": "right"
      },
      {
        "midi": 66,
        "time": 17.222,
        "duration": 0.556,
        "velocity": 1,
        "hand": "right"
      },
      {
        "midi": 64,
        "time": 17.778,
        "duration": 0.333,
        "velocity": 1,
        "hand": "right"
      },
      {
        "midi": 64,
        "time": 18.333,
        "duration": 0.333,
        "velocity": 1,
        "hand": "right"
      },
      {
        "midi": 62,
        "time": 18.889,
        "duration": 0.333,
        "velocity": 1,
        "hand": "right"
      },
      {
        "midi": 61,
        "time": 19.444,
        "duration": 0.333,
        "velocity": 1,
        "hand": "right"
      },
      {
        "midi": 65,
        "time": 20,
        "duration": 0.333,
        "velocity": 1,
        "hand": "right"
      },
      {
        "midi": 55,
        "time": 20.555,
        "duration": 0.833,
        "velocity": 1,
        "hand": "right"
      },
      {
        "midi": 74,
        "time": 21.111,
        "duration": 0.333,
        "velocity": 1,
        "hand": "right"
      },
      {
        "midi": 57,
        "time": 21.666,
        "duration": 0.333,
        "velocity": 1,
        "hand": "right"
      },
      {
        "midi": 66,
        "time": 22.222,
        "duration": 0.833,
        "velocity": 1,
        "hand": "right"
      },
      {
        "midi": 64,
        "time": 22.778,
        "duration": 0.333,
        "velocity": 1,
        "hand": "right"
      },
      {
        "midi": 65,
        "time": 23.333,
        "duration": 0.333,
        "velocity": 1,
        "hand": "right"
      },
      {
        "midi": 55,
        "time": 23.889,
        "duration": 0.818,
        "velocity": 1,
        "hand": "right"
      },
      {
        "midi": 74,
        "time": 24.444,
        "duration": 0.333,
        "velocity": 1,
        "hand": "right"
      },
      {
        "midi": 56,
        "time": 25,
        "duration": 0.556,
        "velocity": 1,
        "hand": "right"
      },
      {
        "midi": 61,
        "time": 25.555,
        "duration": 0.556,
        "velocity": 1,
        "hand": "right"
      },
      {
        "midi": 68,
        "time": 26.111,
        "duration": 0.333,
        "velocity": 1,
        "hand": "right"
      },
      {
        "midi": 83,
        "time": 26.666,
        "duration": 0.333,
        "velocity": 1,
        "hand": "right"
      },
      {
        "midi": 83,
        "time": 27.222,
        "duration": 0.556,
        "velocity": 1,
        "hand": "right"
      },
      {
        "midi": 82,
        "time": 27.778,
        "duration": 0.333,
        "velocity": 1,
        "hand": "right"
      },
      {
        "midi": 79,
        "time": 28.333,
        "duration": 0.333,
        "velocity": 1,
        "hand": "right"
      },
      {
        "midi": 79,
        "time": 28.889,
        "duration": 0.556,
        "velocity": 1,
        "hand": "right"
      },
      {
        "midi": 78,
        "time": 29.444,
        "duration": 0.333,
        "velocity": 1,
        "hand": "right"
      },
      {
        "midi": 78,
        "time": 30,
        "duration": 0.333,
        "velocity": 1,
        "hand": "right"
      },
      {
        "midi": 78,
        "time": 30.555,
        "duration": 0.333,
        "velocity": 1,
        "hand": "right"
      },
      {
        "midi": 65,
        "time": 31.111,
        "duration": 0.333,
        "velocity": 1,
        "hand": "right"
      },
      {
        "midi": 64,
        "time": 31.666,
        "duration": 0.333,
        "velocity": 1,
        "hand": "right"
      },
      {
        "midi": 64,
        "time": 32.222,
        "duration": 0.333,
        "velocity": 1,
        "hand": "right"
      },
      {
        "midi": 63,
        "time": 32.778,
        "duration": 0.333,
        "velocity": 1,
        "hand": "right"
      },
      {
        "midi": 83,
        "time": 33.333,
        "duration": 0.333,
        "velocity": 1,
        "hand": "right"
      },
      {
        "midi": 83,
        "time": 33.889,
        "duration": 0.556,
        "velocity": 1,
        "hand": "right"
      },
      {
        "midi": 81,
        "time": 34.444,
        "duration": 0.333,
        "velocity": 1,
        "hand": "right"
      },
      {
        "midi": 84,
        "time": 35,
        "duration": 0.333,
        "velocity": 1,
        "hand": "right"
      },
      {
        "midi": 84,
        "time": 35.555,
        "duration": 0.556,
        "velocity": 1,
        "hand": "right"
      },
      {
        "midi": 83,
        "time": 36.111,
        "duration": 0.333,
        "velocity": 1,
        "hand": "right"
      },
      {
        "midi": 83,
        "time": 36.666,
        "duration": 0.333,
        "velocity": 1,
        "hand": "right"
      },
      {
        "midi": 83,
        "time": 37.222,
        "duration": 0.333,
        "velocity": 1,
        "hand": "right"
      },
      {
        "midi": 70,
        "time": 37.778,
        "duration": 0.333,
        "velocity": 1,
        "hand": "right"
      },
      {
        "midi": 70,
        "time": 38.333,
        "duration": 0.333,
        "velocity": 1,
        "hand": "right"
      },
      {
        "midi": 70,
        "time": 38.889,
        "duration": 0.333,
        "velocity": 1,
        "hand": "right"
      },
      {
        "midi": 68,
        "time": 39.444,
        "duration": 0.333,
        "velocity": 1,
        "hand": "right"
      },
      {
        "midi": 69,
        "time": 40,
        "duration": 0.556,
        "velocity": 1,
        "hand": "right"
      },
      {
        "midi": 71,
        "time": 40.555,
        "duration": 0.556,
        "velocity": 1,
        "hand": "right"
      },
      {
        "midi": 72,
        "time": 41.111,
        "duration": 0.333,
        "velocity": 1,
        "hand": "right"
      },
      {
        "midi": 69,
        "time": 41.666,
        "duration": 0.556,
        "velocity": 1,
        "hand": "right"
      },
      {
        "midi": 68,
        "time": 42.222,
        "duration": 0.556,
        "velocity": 1,
        "hand": "right"
      },
      {
        "midi": 69,
        "time": 42.778,
        "duration": 0.333,
        "velocity": 1,
        "hand": "right"
      },
      {
        "midi": 72,
        "time": 43.333,
        "duration": 0.556,
        "velocity": 1,
        "hand": "right"
      },
      {
        "midi": 74,
        "time": 43.889,
        "duration": 0.556,
        "velocity": 1,
        "hand": "right"
      },
      {
        "midi": 76,
        "time": 44.444,
        "duration": 0.333,
        "velocity": 1,
        "hand": "right"
      },
      {
        "midi": 72,
        "time": 45,
        "duration": 0.556,
        "velocity": 1,
        "hand": "right"
      },
      {
        "midi": 71,
        "time": 45.555,
        "duration": 0.556,
        "velocity": 1,
        "hand": "right"
      },
      {
        "midi": 72,
        "time": 46.111,
        "duration": 0.333,
        "velocity": 1,
        "hand": "right"
      },
      {
        "midi": 76,
        "time": 46.666,
        "duration": 0.556,
        "velocity": 1,
        "hand": "right"
      },
      {
        "midi": 78,
        "time": 47.222,
        "duration": 0.556,
        "velocity": 1,
        "hand": "right"
      },
      {
        "midi": 79,
        "time": 47.778,
        "duration": 0.333,
        "velocity": 1,
        "hand": "right"
      },
      {
        "midi": 79,
        "time": 48.333,
        "duration": 0.556,
        "velocity": 1,
        "hand": "right"
      },
      {
        "midi": 81,
        "time": 48.889,
        "duration": 0.556,
        "velocity": 1,
        "hand": "right"
      },
      {
        "midi": 83,
        "time": 49.444,
        "duration": 0.333,
        "velocity": 1,
        "hand": "right"
      },
      {
        "midi": 83,
        "time": 50,
        "duration": 0.556,
        "velocity": 1,
        "hand": "right"
      },
      {
        "midi": 82,
        "time": 50.555,
        "duration": 0.556,
        "velocity": 1,
        "hand": "right"
      },
      {
        "midi": 83,
        "time": 51.111,
        "duration": 0.333,
        "velocity": 1,
        "hand": "right"
      },
      {
        "midi": 78,
        "time": 51.666,
        "duration": 0.556,
        "velocity": 1,
        "hand": "right"
      },
      {
        "midi": 79,
        "time": 52.222,
        "duration": 0.556,
        "velocity": 1,
        "hand": "right"
      },
      {
        "midi": 78,
        "time": 52.778,
        "duration": 0.333,
        "velocity": 1,
        "hand": "right"
      },
      {
        "midi": 78,
        "time": 53.333,
        "duration": 0.541,
        "velocity": 1,
        "hand": "right"
      },
      {
        "midi": 78,
        "time": 53.889,
        "duration": 0.54,
        "velocity": 1,
        "hand": "right"
      },
      {
        "midi": 78,
        "time": 54.444,
        "duration": 0.541,
        "velocity": 1,
        "hand": "right"
      },
      {
        "midi": 78,
        "time": 55,
        "duration": 0.54,
        "velocity": 1,
        "hand": "right"
      },
      {
        "midi": 78,
        "time": 55.555,
        "duration": 0.541,
        "velocity": 1,
        "hand": "right"
      },
      {
        "midi": 78,
        "time": 56.111,
        "duration": 0.54,
        "velocity": 1,
        "hand": "right"
      },
      {
        "midi": 78,
        "time": 56.666,
        "duration": 0.541,
        "velocity": 1,
        "hand": "right"
      },
      {
        "midi": 78,
        "time": 57.222,
        "duration": 0.541,
        "velocity": 1,
        "hand": "right"
      },
      {
        "midi": 78,
        "time": 57.778,
        "duration": 0.556,
        "velocity": 1,
        "hand": "right"
      },
      {
        "midi": 66,
        "time": 58.333,
        "duration": 0.541,
        "velocity": 1,
        "hand": "right"
      },
      {
        "midi": 66,
        "time": 58.889,
        "duration": 0.54,
        "velocity": 1,
        "hand": "right"
      },
      {
        "midi": 66,
        "time": 59.444,
        "duration": 0.541,
        "velocity": 1,
        "hand": "right"
      },
      {
        "midi": 71,
        "time": 60,
        "duration": 0.333,
        "velocity": 1,
        "hand": "right"
      },
      {
        "midi": 71,
        "time": 60.555,
        "duration": 0.556,
        "velocity": 1,
        "hand": "right"
      },
      {
        "midi": 70,
        "time": 61.111,
        "duration": 0.333,
        "velocity": 1,
        "hand": "right"
      },
      {
        "midi": 67,
        "time": 61.666,
        "duration": 0.333,
        "velocity": 1,
        "hand": "right"
      },
      {
        "midi": 67,
        "time": 62.222,
        "duration": 0.556,
        "velocity": 1,
        "hand": "right"
      },
      {
        "midi": 66,
        "time": 62.778,
        "duration": 0.333,
        "velocity": 1,
        "hand": "right"
      },
      {
        "midi": 66,
        "time": 63.333,
        "duration": 0.333,
        "velocity": 1,
        "hand": "right"
      },
      {
        "midi": 66,
        "time": 63.889,
        "duration": 0.556,
        "velocity": 1,
        "hand": "right"
      },
      {
        "midi": 64,
        "time": 64.444,
        "duration": 0.333,
        "velocity": 1,
        "hand": "right"
      },
      {
        "midi": 64,
        "time": 65,
        "duration": 0.333,
        "velocity": 1,
        "hand": "right"
      },
      {
        "midi": 62,
        "time": 65.555,
        "duration": 0.333,
        "velocity": 1,
        "hand": "right"
      },
      {
        "midi": 61,
        "time": 66.111,
        "duration": 0.333,
        "velocity": 1,
        "hand": "right"
      },
      {
        "midi": 65,
        "time": 66.666,
        "duration": 0.333,
        "velocity": 1,
        "hand": "right"
      },
      {
        "midi": 55,
        "time": 67.222,
        "duration": 0.833,
        "velocity": 1,
        "hand": "right"
      },
      {
        "midi": 74,
        "time": 67.778,
        "duration": 0.333,
        "velocity": 1,
        "hand": "right"
      },
      {
        "midi": 57,
        "time": 68.333,
        "duration": 0.333,
        "velocity": 1,
        "hand": "right"
      },
      {
        "midi": 66,
        "time": 68.889,
        "duration": 0.833,
        "velocity": 1,
        "hand": "right"
      },
      {
        "midi": 64,
        "time": 69.444,
        "duration": 0.333,
        "velocity": 1,
        "hand": "right"
      },
      {
        "midi": 65,
        "time": 70,
        "duration": 0.333,
        "velocity": 1,
        "hand": "right"
      },
      {
        "midi": 55,
        "time": 70.555,
        "duration": 0.833,
        "velocity": 1,
        "hand": "right"
      },
      {
        "midi": 74,
        "time": 71.111,
        "duration": 0.333,
        "velocity": 1,
        "hand": "right"
      },
      {
        "midi": 57,
        "time": 71.666,
        "duration": 0.333,
        "velocity": 1,
        "hand": "right"
      },
      {
        "midi": 66,
        "time": 72.222,
        "duration": 0.833,
        "velocity": 1,
        "hand": "right"
      },
      {
        "midi": 64,
        "time": 72.778,
        "duration": 0.333,
        "velocity": 1,
        "hand": "right"
      },
      {
        "midi": 64,
        "time": 73.333,
        "duration": 0.333,
        "velocity": 1,
        "hand": "right"
      },
      {
        "midi": 61,
        "time": 73.889,
        "duration": 0.833,
        "velocity": 1,
        "hand": "right"
      },
      {
        "midi": 67,
        "time": 74.444,
        "duration": 0.333,
        "velocity": 1,
        "hand": "right"
      },
      {
        "midi": 56,
        "time": 75,
        "duration": 0.333,
        "velocity": 1,
        "hand": "right"
      },
      {
        "midi": 65,
        "time": 75.555,
        "duration": 0.833,
        "velocity": 1,
        "hand": "right"
      },
      {
        "midi": 71,
        "time": 76.111,
        "duration": 0.333,
        "velocity": 1,
        "hand": "right"
      },
      {
        "midi": 78,
        "time": 76.666,
        "duration": 0.333,
        "velocity": 1,
        "hand": "right"
      },
      {
        "midi": 74,
        "time": 77.222,
        "duration": 0.333,
        "velocity": 1,
        "hand": "right"
      },
      {
        "midi": 76,
        "time": 77.778,
        "duration": 0.333,
        "velocity": 1,
        "hand": "right"
      },
      {
        "midi": 78,
        "time": 78.333,
        "duration": 0.333,
        "velocity": 1,
        "hand": "right"
      },
      {
        "midi": 74,
        "time": 78.889,
        "duration": 0.333,
        "velocity": 1,
        "hand": "right"
      },
      {
        "midi": 74,
        "time": 79.444,
        "duration": 0.333,
        "velocity": 1,
        "hand": "right"
      },
      {
        "midi": 64,
        "time": 80.555,
        "duration": 0.541,
        "velocity": 1,
        "hand": "right"
      },
      {
        "midi": 64,
        "time": 81.111,
        "duration": 0.333,
        "velocity": 1,
        "hand": "right"
      },
      {
        "midi": 71,
        "time": 81.666,
        "duration": 0.333,
        "velocity": 1,
        "hand": "right"
      },
      {
        "midi": 59,
        "time": 82.222,
        "duration": 0.333,
        "velocity": 1,
        "hand": "right"
      },
      {
        "midi": 59,
        "time": 82.778,
        "duration": 0.333,
        "velocity": 1,
        "hand": "right"
      },
      {
        "midi": 61,
        "time": 83.333,
        "duration": 0.333,
        "velocity": 1,
        "hand": "right"
      },
      {
        "midi": 64,
        "time": 83.889,
        "duration": 0.556,
        "velocity": 1,
        "hand": "right"
      },
      {
        "midi": 67,
        "time": 84.444,
        "duration": 0.333,
        "velocity": 1,
        "hand": "right"
      },
      {
        "midi": 73,
        "time": 85,
        "duration": 0.333,
        "velocity": 1,
        "hand": "right"
      },
      {
        "midi": 61,
        "time": 85.555,
        "duration": 0.333,
        "velocity": 1,
        "hand": "right"
      },
      {
        "midi": 61,
        "time": 86.111,
        "duration": 0.333,
        "velocity": 1,
        "hand": "right"
      },
      {
        "midi": 61,
        "time": 86.666,
        "duration": 0.333,
        "velocity": 1,
        "hand": "right"
      },
      {
        "midi": 66,
        "time": 87.222,
        "duration": 0.556,
        "velocity": 1,
        "hand": "right"
      },
      {
        "midi": 59,
        "time": 87.778,
        "duration": 0.333,
        "velocity": 1,
        "hand": "right"
      },
      {
        "midi": 74,
        "time": 88.333,
        "duration": 0.333,
        "velocity": 1,
        "hand": "right"
      },
      {
        "midi": 78,
        "time": 88.889,
        "duration": 0.333,
        "velocity": 1,
        "hand": "right"
      },
      {
        "midi": 76,
        "time": 89.444,
        "duration": 0.333,
        "velocity": 1,
        "hand": "right"
      },
      {
        "midi": 74,
        "time": 90,
        "duration": 0.333,
        "velocity": 1,
        "hand": "right"
      },
      {
        "midi": 73,
        "time": 90.555,
        "duration": 0.333,
        "velocity": 1,
        "hand": "right"
      },
      {
        "midi": 82,
        "time": 91.111,
        "duration": 0.333,
        "velocity": 1,
        "hand": "right"
      },
      {
        "midi": 78,
        "time": 91.666,
        "duration": 0.333,
        "velocity": 1,
        "hand": "right"
      },
      {
        "midi": 76,
        "time": 92.222,
        "duration": 0.333,
        "velocity": 1,
        "hand": "right"
      },
      {
        "midi": 74,
        "time": 92.778,
        "duration": 0.333,
        "velocity": 1,
        "hand": "right"
      },
      {
        "midi": 73,
        "time": 93.333,
        "duration": 0.333,
        "velocity": 1,
        "hand": "right"
      },
      {
        "midi": 70,
        "time": 93.889,
        "duration": 0.333,
        "velocity": 1,
        "hand": "right"
      },
      {
        "midi": 66,
        "time": 94.444,
        "duration": 0.333,
        "velocity": 1,
        "hand": "right"
      },
      {
        "midi": 70,
        "time": 95.278,
        "duration": 0.333,
        "velocity": 1,
        "hand": "right"
      },
      {
        "midi": 64,
        "time": 95.833,
        "duration": 0.333,
        "velocity": 1,
        "hand": "right"
      },
      {
        "midi": 55,
        "time": 96.389,
        "duration": 1.111,
        "velocity": 1,
        "hand": "right"
      },
      {
        "midi": 73,
        "time": 96.944,
        "duration": 0.333,
        "velocity": 1,
        "hand": "right"
      },
      {
        "midi": 57,
        "time": 97.5,
        "duration": 0.333,
        "velocity": 1,
        "hand": "right"
      },
      {
        "midi": 66,
        "time": 98.055,
        "duration": 0.541,
        "velocity": 1,
        "hand": "right"
      },
      {
        "midi": 66,
        "time": 98.611,
        "duration": 0.333,
        "velocity": 1,
        "hand": "right"
      },
      {
        "midi": 64,
        "time": 99.166,
        "duration": 0.333,
        "velocity": 1,
        "hand": "right"
      },
      {
        "midi": 55,
        "time": 99.722,
        "duration": 1.111,
        "velocity": 1,
        "hand": "right"
      },
      {
        "midi": 73,
        "time": 100.278,
        "duration": 0.333,
        "velocity": 1,
        "hand": "right"
      },
      {
        "midi": 57,
        "time": 100.833,
        "duration": 0.333,
        "velocity": 1,
        "hand": "right"
      },
      {
        "midi": 66,
        "time": 101.389,
        "duration": 0.54,
        "velocity": 1,
        "hand": "right"
      },
      {
        "midi": 66,
        "time": 101.944,
        "duration": 0.333,
        "velocity": 1,
        "hand": "right"
      },
      {
        "midi": 71,
        "time": 102.5,
        "duration": 0.333,
        "velocity": 1,
        "hand": "right"
      },
      {
        "midi": 71,
        "time": 103.055,
        "duration": 0.333,
        "velocity": 1,
        "hand": "right"
      },
      {
        "midi": 73,
        "time": 103.611,
        "duration": 0.333,
        "velocity": 1,
        "hand": "right"
      },
      {
        "midi": 78,
        "time": 104.166,
        "duration": 0.333,
        "velocity": 1,
        "hand": "right"
      },
      {
        "midi": 78,
        "time": 104.722,
        "duration": 0.333,
        "velocity": 1,
        "hand": "right"
      },
      {
        "midi": 82,
        "time": 105.278,
        "duration": 0.333,
        "velocity": 1,
        "hand": "right"
      },
      {
        "midi": 83,
        "time": 105.833,
        "duration": 0.333,
        "velocity": 1,
        "hand": "right"
      },
      {
        "midi": 83,
        "time": 106.389,
        "duration": 0.333,
        "velocity": 1,
        "hand": "right"
      },
      {
        "midi": 83,
        "time": 106.944,
        "duration": 0.333,
        "velocity": 1,
        "hand": "right"
      },
      {
        "midi": 83,
        "time": 107.5,
        "duration": 0.333,
        "velocity": 1,
        "hand": "right"
      },
      {
        "midi": 83,
        "time": 108.055,
        "duration": 0.333,
        "velocity": 1,
        "hand": "right"
      },
      {
        "midi": 82,
        "time": 108.611,
        "duration": 0.333,
        "velocity": 1,
        "hand": "right"
      },
      {
        "midi": 83,
        "time": 109.722,
        "duration": 0.333,
        "velocity": 1,
        "hand": "right"
      },
      {
        "midi": 71,
        "time": 110.555,
        "duration": 0.333,
        "velocity": 1,
        "hand": "right"
      },
      {
        "midi": 59,
        "time": 111.389,
        "duration": 0.333,
        "velocity": 1,
        "hand": "right"
      },
      {
        "midi": 74,
        "time": 112.222,
        "duration": 0.833,
        "velocity": 1,
        "hand": "right"
      },
      {
        "midi": 73,
        "time": 113.055,
        "duration": 0.833,
        "velocity": 1,
        "hand": "right"
      },
      {
        "midi": 71,
        "time": 113.889,
        "duration": 0.556,
        "velocity": 1,
        "hand": "right"
      },
      {
        "midi": 69,
        "time": 114.444,
        "duration": 0.333,
        "velocity": 1,
        "hand": "right"
      },
      {
        "midi": 71,
        "time": 115.555,
        "duration": 0.833,
        "velocity": 1,
        "hand": "right"
      },
      {
        "midi": 69,
        "time": 116.389,
        "duration": 0.833,
        "velocity": 1,
        "hand": "right"
      },
      {
        "midi": 67,
        "time": 117.222,
        "duration": 0.556,
        "velocity": 1,
        "hand": "right"
      },
      {
        "midi": 66,
        "time": 117.778,
        "duration": 0.333,
        "velocity": 1,
        "hand": "right"
      },
      {
        "midi": 69,
        "time": 118.889,
        "duration": 0.833,
        "velocity": 1,
        "hand": "right"
      },
      {
        "midi": 62,
        "time": 119.722,
        "duration": 0.818,
        "velocity": 1,
        "hand": "right"
      },
      {
        "midi": 66,
        "time": 120.555,
        "duration": 0.556,
        "velocity": 1,
        "hand": "right"
      },
      {
        "midi": 64,
        "time": 121.111,
        "duration": 0.333,
        "velocity": 1,
        "hand": "right"
      },
      {
        "midi": 66,
        "time": 122.222,
        "duration": 0.833,
        "velocity": 1,
        "hand": "right"
      },
      {
        "midi": 59,
        "time": 123.055,
        "duration": 0.833,
        "velocity": 1,
        "hand": "right"
      },
      {
        "midi": 62,
        "time": 123.889,
        "duration": 0.556,
        "velocity": 1,
        "hand": "right"
      },
      {
        "midi": 61,
        "time": 124.444,
        "duration": 0.333,
        "velocity": 1,
        "hand": "right"
      },
      {
        "midi": 69,
        "time": 125.555,
        "duration": 1.667,
        "velocity": 1,
        "hand": "right"
      },
      {
        "midi": 59,
        "time": 126.389,
        "duration": 0.833,
        "velocity": 1,
        "hand": "right"
      },
      {
        "midi": 61,
        "time": 127.222,
        "duration": 0.556,
        "velocity": 1,
        "hand": "right"
      },
      {
        "midi": 62,
        "time": 127.778,
        "duration": 0.333,
        "velocity": 1,
        "hand": "right"
      },
      {
        "midi": 74,
        "time": 128.889,
        "duration": 1.667,
        "velocity": 1,
        "hand": "right"
      },
      {
        "midi": 66,
        "time": 129.722,
        "duration": 0.833,
        "velocity": 1,
        "hand": "right"
      },
      {
        "midi": 64,
        "time": 130.555,
        "duration": 1.652,
        "velocity": 1,
        "hand": "right"
      },
      {
        "midi": 56,
        "time": 131.111,
        "duration": 0.333,
        "velocity": 1,
        "hand": "right"
      },
      {
        "midi": 76,
        "time": 132.222,
        "duration": 1.667,
        "velocity": 1,
        "hand": "right"
      },
      {
        "midi": 57,
        "time": 133.055,
        "duration": 0.833,
        "velocity": 1,
        "hand": "right"
      },
      {
        "midi": 75,
        "time": 133.889,
        "duration": 1.667,
        "velocity": 1,
        "hand": "right"
      },
      {
        "midi": 60,
        "time": 134.444,
        "duration": 0.333,
        "velocity": 1,
        "hand": "right"
      },
      {
        "midi": 81,
        "time": 135.555,
        "duration": 0.833,
        "velocity": 1,
        "hand": "right"
      },
      {
        "midi": 73,
        "time": 136.389,
        "duration": 0.818,
        "velocity": 1,
        "hand": "right"
      },
      {
        "midi": 64,
        "time": 136.944,
        "duration": 0.333,
        "velocity": 1,
        "hand": "right"
      },
      {
        "midi": 71,
        "time": 137.778,
        "duration": 0.333,
        "velocity": 1,
        "hand": "right"
      },
      {
        "midi": 76,
        "time": 138.889,
        "duration": 0.833,
        "velocity": 1,
        "hand": "right"
      },
      {
        "midi": 69,
        "time": 139.722,
        "duration": 0.833,
        "velocity": 1,
        "hand": "right"
      },
      {
        "midi": 71,
        "time": 140.555,
        "duration": 0.556,
        "velocity": 1,
        "hand": "right"
      },
      {
        "midi": 69,
        "time": 141.111,
        "duration": 0.333,
        "velocity": 1,
        "hand": "right"
      },
      {
        "midi": 71,
        "time": 142.222,
        "duration": 1.667,
        "velocity": 1,
        "hand": "right"
      },
      {
        "midi": 59,
        "time": 143.055,
        "duration": 0.833,
        "velocity": 1,
        "hand": "right"
      },
      {
        "midi": 70,
        "time": 143.889,
        "duration": 0.833,
        "velocity": 1,
        "hand": "right"
      },
      {
        "midi": 59,
        "time": 144.444,
        "duration": 0.333,
        "velocity": 1,
        "hand": "right"
      },
      {
        "midi": 80,
        "time": 145.555,
        "duration": 0.833,
        "velocity": 1,
        "hand": "right"
      },
      {
        "midi": 73,
        "time": 146.389,
        "duration": 0.833,
        "velocity": 1,
        "hand": "right"
      },
      {
        "midi": 74,
        "time": 147.222,
        "duration": 0.556,
        "velocity": 1,
        "hand": "right"
      },
      {
        "midi": 73,
        "time": 147.778,
        "duration": 0.333,
        "velocity": 1,
        "hand": "right"
      },
      {
        "midi": 74,
        "time": 148.889,
        "duration": 1.667,
        "velocity": 1,
        "hand": "right"
      },
      {
        "midi": 62,
        "time": 149.722,
        "duration": 0.833,
        "velocity": 1,
        "hand": "right"
      },
      {
        "midi": 73,
        "time": 150.555,
        "duration": 0.833,
        "velocity": 1,
        "hand": "right"
      },
      {
        "midi": 62,
        "time": 151.111,
        "duration": 0.333,
        "velocity": 1,
        "hand": "right"
      },
      {
        "midi": 83,
        "time": 152.222,
        "duration": 0.833,
        "velocity": 1,
        "hand": "right"
      },
      {
        "midi": 76,
        "time": 153.055,
        "duration": 0.833,
        "velocity": 1,
        "hand": "right"
      },
      {
        "midi": 75,
        "time": 153.889,
        "duration": 0.556,
        "velocity": 1,
        "hand": "right"
      },
      {
        "midi": 76,
        "time": 154.444,
        "duration": 0.333,
        "velocity": 1,
        "hand": "right"
      },
      {
        "midi": 76,
        "time": 155.555,
        "duration": 1.667,
        "velocity": 1,
        "hand": "right"
      },
      {
        "midi": 78,
        "time": 156.389,
        "duration": 0.833,
        "velocity": 1,
        "hand": "right"
      },
      {
        "midi": 77,
        "time": 157.222,
        "duration": 0.556,
        "velocity": 1,
        "hand": "right"
      },
      {
        "midi": 78,
        "time": 157.778,
        "duration": 0.333,
        "velocity": 1,
        "hand": "right"
      },
      {
        "midi": 71,
        "time": 158.889,
        "duration": 2.4,
        "velocity": 1,
        "hand": "right"
      },
      {
        "midi": 59,
        "time": 159.722,
        "duration": 0.833,
        "velocity": 1,
        "hand": "right"
      },
      {
        "midi": 66,
        "time": 160.555,
        "duration": 0.556,
        "velocity": 1,
        "hand": "right"
      },
      {
        "midi": 64,
        "time": 161.111,
        "duration": 0.333,
        "velocity": 1,
        "hand": "right"
      },
      {
        "midi": 74,
        "time": 162.222,
        "duration": 0.833,
        "velocity": 1,
        "hand": "right"
      },
      {
        "midi": 67,
        "time": 163.055,
        "duration": 0.819,
        "velocity": 1,
        "hand": "right"
      },
      {
        "midi": 74,
        "time": 163.889,
        "duration": 0.556,
        "velocity": 1,
        "hand": "right"
      },
      {
        "midi": 73,
        "time": 164.444,
        "duration": 0.333,
        "velocity": 1,
        "hand": "right"
      },
      {
        "midi": 74,
        "time": 165.555,
        "duration": 0.833,
        "velocity": 1,
        "hand": "right"
      },
      {
        "midi": 73,
        "time": 166.389,
        "duration": 0.833,
        "velocity": 1,
        "hand": "right"
      },
      {
        "midi": 71,
        "time": 167.222,
        "duration": 0.556,
        "velocity": 1,
        "hand": "right"
      },
      {
        "midi": 69,
        "time": 167.778,
        "duration": 0.333,
        "velocity": 1,
        "hand": "right"
      },
      {
        "midi": 71,
        "time": 168.889,
        "duration": 0.833,
        "velocity": 1,
        "hand": "right"
      },
      {
        "midi": 69,
        "time": 169.722,
        "duration": 0.833,
        "velocity": 1,
        "hand": "right"
      },
      {
        "midi": 67,
        "time": 170.555,
        "duration": 0.556,
        "velocity": 1,
        "hand": "right"
      },
      {
        "midi": 66,
        "time": 171.111,
        "duration": 0.333,
        "velocity": 1,
        "hand": "right"
      },
      {
        "midi": 69,
        "time": 172.222,
        "duration": 0.833,
        "velocity": 1,
        "hand": "right"
      },
      {
        "midi": 62,
        "time": 173.055,
        "duration": 0.819,
        "velocity": 1,
        "hand": "right"
      },
      {
        "midi": 66,
        "time": 173.889,
        "duration": 0.556,
        "velocity": 1,
        "hand": "right"
      },
      {
        "midi": 64,
        "time": 174.444,
        "duration": 0.333,
        "velocity": 1,
        "hand": "right"
      },
      {
        "midi": 66,
        "time": 175.555,
        "duration": 0.833,
        "velocity": 1,
        "hand": "right"
      },
      {
        "midi": 59,
        "time": 176.389,
        "duration": 0.833,
        "velocity": 1,
        "hand": "right"
      },
      {
        "midi": 62,
        "time": 177.222,
        "duration": 0.556,
        "velocity": 1,
        "hand": "right"
      },
      {
        "midi": 61,
        "time": 177.778,
        "duration": 0.333,
        "velocity": 1,
        "hand": "right"
      },
      {
        "midi": 69,
        "time": 178.889,
        "duration": 1.667,
        "velocity": 1,
        "hand": "right"
      },
      {
        "midi": 59,
        "time": 179.722,
        "duration": 0.818,
        "velocity": 1,
        "hand": "right"
      },
      {
        "midi": 62,
        "time": 180.555,
        "duration": 1.652,
        "velocity": 1,
        "hand": "right"
      },
      {
        "midi": 60,
        "time": 181.111,
        "duration": 0.333,
        "velocity": 1,
        "hand": "right"
      },
      {
        "midi": 74,
        "time": 182.222,
        "duration": 1.667,
        "velocity": 1,
        "hand": "right"
      },
      {
        "midi": 59,
        "time": 183.055,
        "duration": 0.833,
        "velocity": 1,
        "hand": "right"
      },
      {
        "midi": 71,
        "time": 183.889,
        "duration": 1.667,
        "velocity": 1,
        "hand": "right"
      },
      {
        "midi": 62,
        "time": 184.444,
        "duration": 0.333,
        "velocity": 1,
        "hand": "right"
      },
      {
        "midi": 69,
        "time": 185.555,
        "duration": 1.667,
        "velocity": 1,
        "hand": "right"
      },
      {
        "midi": 63,
        "time": 186.389,
        "duration": 0.833,
        "velocity": 1,
        "hand": "right"
      },
      {
        "midi": 64,
        "time": 187.222,
        "duration": 1.667,
        "velocity": 1,
        "hand": "right"
      },
      {
        "midi": 55,
        "time": 187.778,
        "duration": 0.333,
        "velocity": 1,
        "hand": "right"
      },
      {
        "midi": 61,
        "time": 188.889,
        "duration": 1.667,
        "velocity": 1,
        "hand": "right"
      },
      {
        "midi": 64,
        "time": 189.444,
        "duration": 0.333,
        "velocity": 1,
        "hand": "right"
      },
      {
        "midi": 62,
        "time": 190.555,
        "duration": 1.652,
        "velocity": 1,
        "hand": "right"
      },
      {
        "midi": 57,
        "time": 191.111,
        "duration": 0.333,
        "velocity": 1,
        "hand": "right"
      },
      {
        "midi": 71,
        "time": 192.222,
        "duration": 0.833,
        "velocity": 1,
        "hand": "right"
      },
      {
        "midi": 70,
        "time": 193.055,
        "duration": 0.833,
        "velocity": 1,
        "hand": "right"
      },
      {
        "midi": 67,
        "time": 193.889,
        "duration": 0.556,
        "velocity": 1,
        "hand": "right"
      },
      {
        "midi": 66,
        "time": 194.444,
        "duration": 0.333,
        "velocity": 1,
        "hand": "right"
      },
      {
        "midi": 74,
        "time": 195.555,
        "duration": 0.833,
        "velocity": 1,
        "hand": "right"
      },
      {
        "midi": 73,
        "time": 196.389,
        "duration": 0.833,
        "velocity": 1,
        "hand": "right"
      },
      {
        "midi": 71,
        "time": 197.222,
        "duration": 0.833,
        "velocity": 1,
        "hand": "right"
      },
      {
        "midi": 61,
        "time": 197.778,
        "duration": 0.333,
        "velocity": 1,
        "hand": "right"
      },
      {
        "midi": 83,
        "time": 198.889,
        "duration": 0.833,
        "velocity": 1,
        "hand": "right"
      },
      {
        "midi": 82,
        "time": 199.722,
        "duration": 0.833,
        "velocity": 1,
        "hand": "right"
      },
      {
        "midi": 79,
        "time": 200.555,
        "duration": 0.556,
        "velocity": 1,
        "hand": "right"
      },
      {
        "midi": 78,
        "time": 201.111,
        "duration": 0.333,
        "velocity": 1,
        "hand": "right"
      },
      {
        "midi": 78,
        "time": 202.222,
        "duration": 1.652,
        "velocity": 1,
        "hand": "right"
      },
      {
        "midi": 73,
        "time": 203.055,
        "duration": 0.833,
        "velocity": 1,
        "hand": "right"
      },
      {
        "midi": 83,
        "time": 203.889,
        "duration": 0.833,
        "velocity": 1,
        "hand": "right"
      },
      {
        "midi": 73,
        "time": 204.444,
        "duration": 0.333,
        "velocity": 1,
        "hand": "right"
      },
      {
        "midi": 83,
        "time": 205.555,
        "duration": 0.556,
        "velocity": 1,
        "hand": "right"
      },
      {
        "midi": 82,
        "time": 206.111,
        "duration": 0.333,
        "velocity": 1,
        "hand": "right"
      },
      {
        "midi": 67,
        "time": 207.222,
        "duration": 0.556,
        "velocity": 1,
        "hand": "right"
      },
      {
        "midi": 66,
        "time": 207.778,
        "duration": 0.333,
        "velocity": 1,
        "hand": "right"
      },
      {
        "midi": 71,
        "time": 208.889,
        "duration": 0.556,
        "velocity": 1,
        "hand": "right"
      },
      {
        "midi": 70,
        "time": 209.444,
        "duration": 0.333,
        "velocity": 1,
        "hand": "right"
      },
      {
        "midi": 55,
        "time": 210.555,
        "duration": 0.556,
        "velocity": 1,
        "hand": "right"
      },
      {
        "midi": 66,
        "time": 211.111,
        "duration": 0.333,
        "velocity": 1,
        "hand": "right"
      },
      {
        "midi": 55,
        "time": 212.222,
        "duration": 0.556,
        "velocity": 1,
        "hand": "right"
      },
      {
        "midi": 66,
        "time": 212.778,
        "duration": 0.333,
        "velocity": 1,
        "hand": "right"
      },
      {
        "midi": 55,
        "time": 213.889,
        "duration": 0.556,
        "velocity": 1,
        "hand": "right"
      },
      {
        "midi": 66,
        "time": 214.444,
        "duration": 0.333,
        "velocity": 1,
        "hand": "right"
      },
      {
        "midi": 71,
        "time": 215,
        "duration": 0.333,
        "velocity": 1,
        "hand": "right"
      },
      {
        "midi": 71,
        "time": 215.555,
        "duration": 0.556,
        "velocity": 1,
        "hand": "right"
      },
      {
        "midi": 70,
        "time": 216.111,
        "duration": 0.333,
        "velocity": 1,
        "hand": "right"
      },
      {
        "midi": 67,
        "time": 216.666,
        "duration": 0.333,
        "velocity": 1,
        "hand": "right"
      },
      {
        "midi": 67,
        "time": 217.222,
        "duration": 0.556,
        "velocity": 1,
        "hand": "right"
      },
      {
        "midi": 66,
        "time": 217.778,
        "duration": 0.333,
        "velocity": 1,
        "hand": "right"
      },
      {
        "midi": 66,
        "time": 218.333,
        "duration": 0.333,
        "velocity": 1,
        "hand": "right"
      },
      {
        "midi": 66,
        "time": 218.889,
        "duration": 0.556,
        "velocity": 1,
        "hand": "right"
      },
      {
        "midi": 64,
        "time": 219.444,
        "duration": 0.333,
        "velocity": 1,
        "hand": "right"
      },
      {
        "midi": 64,
        "time": 220,
        "duration": 0.333,
        "velocity": 1,
        "hand": "right"
      },
      {
        "midi": 62,
        "time": 220.555,
        "duration": 0.333,
        "velocity": 1,
        "hand": "right"
      },
      {
        "midi": 61,
        "time": 221.111,
        "duration": 0.333,
        "velocity": 1,
        "hand": "right"
      },
      {
        "midi": 65,
        "time": 221.666,
        "duration": 0.333,
        "velocity": 1,
        "hand": "right"
      },
      {
        "midi": 55,
        "time": 222.222,
        "duration": 0.833,
        "velocity": 1,
        "hand": "right"
      },
      {
        "midi": 74,
        "time": 222.778,
        "duration": 0.333,
        "velocity": 1,
        "hand": "right"
      },
      {
        "midi": 57,
        "time": 223.333,
        "duration": 0.333,
        "velocity": 1,
        "hand": "right"
      },
      {
        "midi": 66,
        "time": 223.889,
        "duration": 0.833,
        "velocity": 1,
        "hand": "right"
      },
      {
        "midi": 64,
        "time": 224.444,
        "duration": 0.333,
        "velocity": 1,
        "hand": "right"
      },
      {
        "midi": 65,
        "time": 225,
        "duration": 0.333,
        "velocity": 1,
        "hand": "right"
      },
      {
        "midi": 55,
        "time": 225.555,
        "duration": 0.833,
        "velocity": 1,
        "hand": "right"
      },
      {
        "midi": 74,
        "time": 226.111,
        "duration": 0.333,
        "velocity": 1,
        "hand": "right"
      },
      {
        "midi": 57,
        "time": 226.666,
        "duration": 0.333,
        "velocity": 1,
        "hand": "right"
      },
      {
        "midi": 66,
        "time": 227.222,
        "duration": 0.833,
        "velocity": 1,
        "hand": "right"
      },
      {
        "midi": 64,
        "time": 227.778,
        "duration": 0.333,
        "velocity": 1,
        "hand": "right"
      },
      {
        "midi": 71,
        "time": 228.333,
        "duration": 0.333,
        "velocity": 1,
        "hand": "right"
      },
      {
        "midi": 71,
        "time": 228.889,
        "duration": 0.556,
        "velocity": 1,
        "hand": "right"
      },
      {
        "midi": 70,
        "time": 229.444,
        "duration": 0.333,
        "velocity": 1,
        "hand": "right"
      },
      {
        "midi": 67,
        "time": 230,
        "duration": 0.333,
        "velocity": 1,
        "hand": "right"
      },
      {
        "midi": 67,
        "time": 230.555,
        "duration": 0.556,
        "velocity": 1,
        "hand": "right"
      },
      {
        "midi": 66,
        "time": 231.111,
        "duration": 0.333,
        "velocity": 1,
        "hand": "right"
      },
      {
        "midi": 66,
        "time": 231.666,
        "duration": 0.333,
        "velocity": 1,
        "hand": "right"
      },
      {
        "midi": 66,
        "time": 232.222,
        "duration": 0.556,
        "velocity": 1,
        "hand": "right"
      },
      {
        "midi": 64,
        "time": 232.778,
        "duration": 0.333,
        "velocity": 1,
        "hand": "right"
      },
      {
        "midi": 64,
        "time": 233.333,
        "duration": 0.333,
        "velocity": 1,
        "hand": "right"
      },
      {
        "midi": 62,
        "time": 233.889,
        "duration": 0.333,
        "velocity": 1,
        "hand": "right"
      },
      {
        "midi": 61,
        "time": 234.444,
        "duration": 0.333,
        "velocity": 1,
        "hand": "right"
      },
      {
        "midi": 65,
        "time": 235,
        "duration": 0.333,
        "velocity": 1,
        "hand": "right"
      },
      {
        "midi": 55,
        "time": 235.555,
        "duration": 0.833,
        "velocity": 1,
        "hand": "right"
      },
      {
        "midi": 74,
        "time": 236.111,
        "duration": 0.333,
        "velocity": 1,
        "hand": "right"
      },
      {
        "midi": 57,
        "time": 236.666,
        "duration": 0.333,
        "velocity": 1,
        "hand": "right"
      },
      {
        "midi": 66,
        "time": 237.222,
        "duration": 0.833,
        "velocity": 1,
        "hand": "right"
      },
      {
        "midi": 64,
        "time": 237.778,
        "duration": 0.333,
        "velocity": 1,
        "hand": "right"
      },
      {
        "midi": 65,
        "time": 238.333,
        "duration": 0.333,
        "velocity": 1,
        "hand": "right"
      },
      {
        "midi": 55,
        "time": 238.889,
        "duration": 0.818,
        "velocity": 1,
        "hand": "right"
      },
      {
        "midi": 74,
        "time": 239.444,
        "duration": 0.333,
        "velocity": 1,
        "hand": "right"
      },
      {
        "midi": 56,
        "time": 240,
        "duration": 0.556,
        "velocity": 1,
        "hand": "right"
      },
      {
        "midi": 61,
        "time": 240.555,
        "duration": 0.556,
        "velocity": 1,
        "hand": "right"
      },
      {
        "midi": 68,
        "time": 241.111,
        "duration": 0.333,
        "velocity": 1,
        "hand": "right"
      },
      {
        "midi": 83,
        "time": 241.666,
        "duration": 0.333,
        "velocity": 1,
        "hand": "right"
      },
      {
        "midi": 83,
        "time": 242.222,
        "duration": 0.556,
        "velocity": 1,
        "hand": "right"
      },
      {
        "midi": 82,
        "time": 242.778,
        "duration": 0.333,
        "velocity": 1,
        "hand": "right"
      },
      {
        "midi": 79,
        "time": 243.333,
        "duration": 0.333,
        "velocity": 1,
        "hand": "right"
      },
      {
        "midi": 79,
        "time": 243.889,
        "duration": 0.556,
        "velocity": 1,
        "hand": "right"
      },
      {
        "midi": 78,
        "time": 244.444,
        "duration": 0.333,
        "velocity": 1,
        "hand": "right"
      },
      {
        "midi": 78,
        "time": 245,
        "duration": 0.333,
        "velocity": 1,
        "hand": "right"
      },
      {
        "midi": 78,
        "time": 245.555,
        "duration": 0.333,
        "velocity": 1,
        "hand": "right"
      },
      {
        "midi": 65,
        "time": 246.111,
        "duration": 0.333,
        "velocity": 1,
        "hand": "right"
      },
      {
        "midi": 64,
        "time": 246.666,
        "duration": 0.333,
        "velocity": 1,
        "hand": "right"
      },
      {
        "midi": 64,
        "time": 247.222,
        "duration": 0.333,
        "velocity": 1,
        "hand": "right"
      },
      {
        "midi": 63,
        "time": 247.778,
        "duration": 0.333,
        "velocity": 1,
        "hand": "right"
      },
      {
        "midi": 83,
        "time": 248.333,
        "duration": 0.333,
        "velocity": 1,
        "hand": "right"
      },
      {
        "midi": 83,
        "time": 248.889,
        "duration": 0.556,
        "velocity": 1,
        "hand": "right"
      },
      {
        "midi": 81,
        "time": 249.444,
        "duration": 0.333,
        "velocity": 1,
        "hand": "right"
      },
      {
        "midi": 84,
        "time": 250,
        "duration": 0.333,
        "velocity": 1,
        "hand": "right"
      },
      {
        "midi": 84,
        "time": 250.555,
        "duration": 0.556,
        "velocity": 1,
        "hand": "right"
      },
      {
        "midi": 83,
        "time": 251.111,
        "duration": 0.333,
        "velocity": 1,
        "hand": "right"
      },
      {
        "midi": 83,
        "time": 251.666,
        "duration": 0.333,
        "velocity": 1,
        "hand": "right"
      },
      {
        "midi": 83,
        "time": 252.222,
        "duration": 0.333,
        "velocity": 1,
        "hand": "right"
      },
      {
        "midi": 70,
        "time": 252.778,
        "duration": 0.333,
        "velocity": 1,
        "hand": "right"
      },
      {
        "midi": 70,
        "time": 253.333,
        "duration": 0.333,
        "velocity": 1,
        "hand": "right"
      },
      {
        "midi": 70,
        "time": 253.889,
        "duration": 0.333,
        "velocity": 1,
        "hand": "right"
      },
      {
        "midi": 68,
        "time": 254.444,
        "duration": 0.333,
        "velocity": 1,
        "hand": "right"
      },
      {
        "midi": 69,
        "time": 255,
        "duration": 0.556,
        "velocity": 1,
        "hand": "right"
      },
      {
        "midi": 71,
        "time": 255.555,
        "duration": 0.556,
        "velocity": 1,
        "hand": "right"
      },
      {
        "midi": 72,
        "time": 256.111,
        "duration": 0.333,
        "velocity": 1,
        "hand": "right"
      },
      {
        "midi": 69,
        "time": 256.666,
        "duration": 0.556,
        "velocity": 1,
        "hand": "right"
      },
      {
        "midi": 68,
        "time": 257.222,
        "duration": 0.556,
        "velocity": 1,
        "hand": "right"
      },
      {
        "midi": 69,
        "time": 257.778,
        "duration": 0.333,
        "velocity": 1,
        "hand": "right"
      },
      {
        "midi": 72,
        "time": 258.333,
        "duration": 0.556,
        "velocity": 1,
        "hand": "right"
      },
      {
        "midi": 74,
        "time": 258.889,
        "duration": 0.556,
        "velocity": 1,
        "hand": "right"
      },
      {
        "midi": 76,
        "time": 259.444,
        "duration": 0.333,
        "velocity": 1,
        "hand": "right"
      },
      {
        "midi": 72,
        "time": 260,
        "duration": 0.556,
        "velocity": 1,
        "hand": "right"
      },
      {
        "midi": 71,
        "time": 260.555,
        "duration": 0.556,
        "velocity": 1,
        "hand": "right"
      },
      {
        "midi": 72,
        "time": 261.111,
        "duration": 0.333,
        "velocity": 1,
        "hand": "right"
      },
      {
        "midi": 76,
        "time": 261.666,
        "duration": 0.556,
        "velocity": 1,
        "hand": "right"
      },
      {
        "midi": 78,
        "time": 262.222,
        "duration": 0.556,
        "velocity": 1,
        "hand": "right"
      },
      {
        "midi": 79,
        "time": 262.778,
        "duration": 0.333,
        "velocity": 1,
        "hand": "right"
      },
      {
        "midi": 79,
        "time": 263.333,
        "duration": 0.556,
        "velocity": 1,
        "hand": "right"
      },
      {
        "midi": 81,
        "time": 263.889,
        "duration": 0.556,
        "velocity": 1,
        "hand": "right"
      },
      {
        "midi": 83,
        "time": 264.444,
        "duration": 0.333,
        "velocity": 1,
        "hand": "right"
      },
      {
        "midi": 83,
        "time": 265,
        "duration": 0.556,
        "velocity": 1,
        "hand": "right"
      },
      {
        "midi": 82,
        "time": 265.555,
        "duration": 0.556,
        "velocity": 1,
        "hand": "right"
      },
      {
        "midi": 83,
        "time": 266.111,
        "duration": 0.333,
        "velocity": 1,
        "hand": "right"
      },
      {
        "midi": 78,
        "time": 266.666,
        "duration": 0.556,
        "velocity": 1,
        "hand": "right"
      },
      {
        "midi": 79,
        "time": 267.222,
        "duration": 0.556,
        "velocity": 1,
        "hand": "right"
      },
      {
        "midi": 78,
        "time": 267.778,
        "duration": 0.333,
        "velocity": 1,
        "hand": "right"
      },
      {
        "midi": 78,
        "time": 268.333,
        "duration": 0.541,
        "velocity": 1,
        "hand": "right"
      },
      {
        "midi": 78,
        "time": 268.889,
        "duration": 0.54,
        "velocity": 1,
        "hand": "right"
      },
      {
        "midi": 78,
        "time": 269.444,
        "duration": 0.541,
        "velocity": 1,
        "hand": "right"
      },
      {
        "midi": 78,
        "time": 270,
        "duration": 0.54,
        "velocity": 1,
        "hand": "right"
      },
      {
        "midi": 78,
        "time": 270.555,
        "duration": 0.541,
        "velocity": 1,
        "hand": "right"
      },
      {
        "midi": 78,
        "time": 271.111,
        "duration": 0.54,
        "velocity": 1,
        "hand": "right"
      },
      {
        "midi": 78,
        "time": 271.666,
        "duration": 0.541,
        "velocity": 1,
        "hand": "right"
      },
      {
        "midi": 78,
        "time": 272.222,
        "duration": 0.541,
        "velocity": 1,
        "hand": "right"
      },
      {
        "midi": 78,
        "time": 272.778,
        "duration": 0.556,
        "velocity": 1,
        "hand": "right"
      },
      {
        "midi": 66,
        "time": 273.333,
        "duration": 0.541,
        "velocity": 1,
        "hand": "right"
      },
      {
        "midi": 66,
        "time": 273.889,
        "duration": 0.54,
        "velocity": 1,
        "hand": "right"
      },
      {
        "midi": 66,
        "time": 274.444,
        "duration": 0.541,
        "velocity": 1,
        "hand": "right"
      },
      {
        "midi": 71,
        "time": 275,
        "duration": 0.333,
        "velocity": 1,
        "hand": "right"
      },
      {
        "midi": 71,
        "time": 275.555,
        "duration": 0.556,
        "velocity": 1,
        "hand": "right"
      },
      {
        "midi": 70,
        "time": 276.111,
        "duration": 0.333,
        "velocity": 1,
        "hand": "right"
      },
      {
        "midi": 67,
        "time": 276.666,
        "duration": 0.333,
        "velocity": 1,
        "hand": "right"
      },
      {
        "midi": 67,
        "time": 277.222,
        "duration": 0.556,
        "velocity": 1,
        "hand": "right"
      },
      {
        "midi": 66,
        "time": 277.778,
        "duration": 0.333,
        "velocity": 1,
        "hand": "right"
      },
      {
        "midi": 66,
        "time": 278.333,
        "duration": 0.333,
        "velocity": 1,
        "hand": "right"
      },
      {
        "midi": 66,
        "time": 278.889,
        "duration": 0.556,
        "velocity": 1,
        "hand": "right"
      },
      {
        "midi": 64,
        "time": 279.444,
        "duration": 0.333,
        "velocity": 1,
        "hand": "right"
      },
      {
        "midi": 64,
        "time": 280,
        "duration": 0.333,
        "velocity": 1,
        "hand": "right"
      },
      {
        "midi": 62,
        "time": 280.555,
        "duration": 0.333,
        "velocity": 1,
        "hand": "right"
      },
      {
        "midi": 61,
        "time": 281.111,
        "duration": 0.333,
        "velocity": 1,
        "hand": "right"
      },
      {
        "midi": 65,
        "time": 281.666,
        "duration": 0.333,
        "velocity": 1,
        "hand": "right"
      },
      {
        "midi": 55,
        "time": 282.222,
        "duration": 0.833,
        "velocity": 1,
        "hand": "right"
      },
      {
        "midi": 74,
        "time": 282.778,
        "duration": 0.333,
        "velocity": 1,
        "hand": "right"
      },
      {
        "midi": 57,
        "time": 283.333,
        "duration": 0.333,
        "velocity": 1,
        "hand": "right"
      },
      {
        "midi": 66,
        "time": 283.889,
        "duration": 0.833,
        "velocity": 1,
        "hand": "right"
      },
      {
        "midi": 64,
        "time": 284.444,
        "duration": 0.333,
        "velocity": 1,
        "hand": "right"
      },
      {
        "midi": 65,
        "time": 285,
        "duration": 0.333,
        "velocity": 1,
        "hand": "right"
      },
      {
        "midi": 55,
        "time": 285.555,
        "duration": 0.833,
        "velocity": 1,
        "hand": "right"
      },
      {
        "midi": 74,
        "time": 286.111,
        "duration": 0.333,
        "velocity": 1,
        "hand": "right"
      },
      {
        "midi": 57,
        "time": 286.666,
        "duration": 0.333,
        "velocity": 1,
        "hand": "right"
      },
      {
        "midi": 66,
        "time": 287.222,
        "duration": 0.833,
        "velocity": 1,
        "hand": "right"
      },
      {
        "midi": 64,
        "time": 287.778,
        "duration": 0.333,
        "velocity": 1,
        "hand": "right"
      },
      {
        "midi": 64,
        "time": 288.333,
        "duration": 0.333,
        "velocity": 1,
        "hand": "right"
      },
      {
        "midi": 61,
        "time": 288.889,
        "duration": 0.833,
        "velocity": 1,
        "hand": "right"
      },
      {
        "midi": 67,
        "time": 289.444,
        "duration": 0.333,
        "velocity": 1,
        "hand": "right"
      },
      {
        "midi": 56,
        "time": 290,
        "duration": 0.333,
        "velocity": 1,
        "hand": "right"
      },
      {
        "midi": 65,
        "time": 290.555,
        "duration": 0.833,
        "velocity": 1,
        "hand": "right"
      },
      {
        "midi": 71,
        "time": 291.111,
        "duration": 0.333,
        "velocity": 1,
        "hand": "right"
      },
      {
        "midi": 78,
        "time": 291.666,
        "duration": 0.333,
        "velocity": 1,
        "hand": "right"
      },
      {
        "midi": 74,
        "time": 292.222,
        "duration": 0.333,
        "velocity": 1,
        "hand": "right"
      },
      {
        "midi": 76,
        "time": 292.778,
        "duration": 0.333,
        "velocity": 1,
        "hand": "right"
      },
      {
        "midi": 78,
        "time": 293.333,
        "duration": 0.333,
        "velocity": 1,
        "hand": "right"
      },
      {
        "midi": 74,
        "time": 293.889,
        "duration": 0.333,
        "velocity": 1,
        "hand": "right"
      },
      {
        "midi": 74,
        "time": 294.444,
        "duration": 0.333,
        "velocity": 1,
        "hand": "right"
      },
      {
        "midi": 64,
        "time": 295.555,
        "duration": 0.541,
        "velocity": 1,
        "hand": "right"
      },
      {
        "midi": 64,
        "time": 296.111,
        "duration": 0.333,
        "velocity": 1,
        "hand": "right"
      },
      {
        "midi": 71,
        "time": 296.666,
        "duration": 0.333,
        "velocity": 1,
        "hand": "right"
      },
      {
        "midi": 59,
        "time": 297.222,
        "duration": 0.333,
        "velocity": 1,
        "hand": "right"
      },
      {
        "midi": 59,
        "time": 297.778,
        "duration": 0.333,
        "velocity": 1,
        "hand": "right"
      },
      {
        "midi": 61,
        "time": 298.333,
        "duration": 0.333,
        "velocity": 1,
        "hand": "right"
      },
      {
        "midi": 64,
        "time": 298.889,
        "duration": 0.556,
        "velocity": 1,
        "hand": "right"
      },
      {
        "midi": 67,
        "time": 299.444,
        "duration": 0.333,
        "velocity": 1,
        "hand": "right"
      },
      {
        "midi": 73,
        "time": 300,
        "duration": 0.333,
        "velocity": 1,
        "hand": "right"
      },
      {
        "midi": 61,
        "time": 300.555,
        "duration": 0.333,
        "velocity": 1,
        "hand": "right"
      },
      {
        "midi": 61,
        "time": 301.111,
        "duration": 0.333,
        "velocity": 1,
        "hand": "right"
      },
      {
        "midi": 61,
        "time": 301.666,
        "duration": 0.333,
        "velocity": 1,
        "hand": "right"
      },
      {
        "midi": 66,
        "time": 302.222,
        "duration": 0.556,
        "velocity": 1,
        "hand": "right"
      },
      {
        "midi": 59,
        "time": 302.778,
        "duration": 0.333,
        "velocity": 1,
        "hand": "right"
      },
      {
        "midi": 74,
        "time": 303.333,
        "duration": 0.333,
        "velocity": 1,
        "hand": "right"
      },
      {
        "midi": 78,
        "time": 303.889,
        "duration": 0.333,
        "velocity": 1,
        "hand": "right"
      },
      {
        "midi": 76,
        "time": 304.444,
        "duration": 0.333,
        "velocity": 1,
        "hand": "right"
      },
      {
        "midi": 74,
        "time": 305,
        "duration": 0.333,
        "velocity": 1,
        "hand": "right"
      },
      {
        "midi": 73,
        "time": 305.555,
        "duration": 0.333,
        "velocity": 1,
        "hand": "right"
      },
      {
        "midi": 82,
        "time": 306.111,
        "duration": 0.333,
        "velocity": 1,
        "hand": "right"
      },
      {
        "midi": 78,
        "time": 306.666,
        "duration": 0.333,
        "velocity": 1,
        "hand": "right"
      },
      {
        "midi": 76,
        "time": 307.222,
        "duration": 0.333,
        "velocity": 1,
        "hand": "right"
      },
      {
        "midi": 74,
        "time": 307.778,
        "duration": 0.333,
        "velocity": 1,
        "hand": "right"
      },
      {
        "midi": 73,
        "time": 308.333,
        "duration": 0.333,
        "velocity": 1,
        "hand": "right"
      },
      {
        "midi": 70,
        "time": 308.889,
        "duration": 0.333,
        "velocity": 1,
        "hand": "right"
      },
      {
        "midi": 66,
        "time": 309.444,
        "duration": 0.333,
        "velocity": 1,
        "hand": "right"
      },
      {
        "midi": 70,
        "time": 310.278,
        "duration": 0.333,
        "velocity": 1,
        "hand": "right"
      },
      {
        "midi": 64,
        "time": 310.833,
        "duration": 0.333,
        "velocity": 1,
        "hand": "right"
      },
      {
        "midi": 55,
        "time": 311.389,
        "duration": 1.111,
        "velocity": 1,
        "hand": "right"
      },
      {
        "midi": 73,
        "time": 311.944,
        "duration": 0.333,
        "velocity": 1,
        "hand": "right"
      },
      {
        "midi": 57,
        "time": 312.5,
        "duration": 0.333,
        "velocity": 1,
        "hand": "right"
      },
      {
        "midi": 66,
        "time": 313.055,
        "duration": 0.541,
        "velocity": 1,
        "hand": "right"
      },
      {
        "midi": 66,
        "time": 313.611,
        "duration": 0.333,
        "velocity": 1,
        "hand": "right"
      },
      {
        "midi": 64,
        "time": 314.166,
        "duration": 0.333,
        "velocity": 1,
        "hand": "right"
      },
      {
        "midi": 55,
        "time": 314.722,
        "duration": 1.111,
        "velocity": 1,
        "hand": "right"
      },
      {
        "midi": 73,
        "time": 315.278,
        "duration": 0.333,
        "velocity": 1,
        "hand": "right"
      },
      {
        "midi": 57,
        "time": 315.833,
        "duration": 0.333,
        "velocity": 1,
        "hand": "right"
      },
      {
        "midi": 66,
        "time": 316.389,
        "duration": 0.54,
        "velocity": 1,
        "hand": "right"
      },
      {
        "midi": 66,
        "time": 316.944,
        "duration": 0.333,
        "velocity": 1,
        "hand": "right"
      },
      {
        "midi": 71,
        "time": 317.5,
        "duration": 0.333,
        "velocity": 1,
        "hand": "right"
      },
      {
        "midi": 71,
        "time": 318.055,
        "duration": 0.333,
        "velocity": 1,
        "hand": "right"
      },
      {
        "midi": 73,
        "time": 318.611,
        "duration": 0.333,
        "velocity": 1,
        "hand": "right"
      },
      {
        "midi": 78,
        "time": 319.166,
        "duration": 0.333,
        "velocity": 1,
        "hand": "right"
      },
      {
        "midi": 78,
        "time": 319.722,
        "duration": 0.333,
        "velocity": 1,
        "hand": "right"
      },
      {
        "midi": 82,
        "time": 320.278,
        "duration": 0.333,
        "velocity": 1,
        "hand": "right"
      },
      {
        "midi": 83,
        "time": 320.833,
        "duration": 0.333,
        "velocity": 1,
        "hand": "right"
      },
      {
        "midi": 83,
        "time": 321.389,
        "duration": 0.333,
        "velocity": 1,
        "hand": "right"
      },
      {
        "midi": 83,
        "time": 321.944,
        "duration": 0.333,
        "velocity": 1,
        "hand": "right"
      },
      {
        "midi": 83,
        "time": 322.5,
        "duration": 0.333,
        "velocity": 1,
        "hand": "right"
      },
      {
        "midi": 83,
        "time": 323.055,
        "duration": 0.333,
        "velocity": 1,
        "hand": "right"
      },
      {
        "midi": 82,
        "time": 323.611,
        "duration": 0.333,
        "velocity": 1,
        "hand": "right"
      },
      {
        "midi": 83,
        "time": 324.722,
        "duration": 0.333,
        "velocity": 1,
        "hand": "right"
      },
      {
        "midi": 71,
        "time": 325.555,
        "duration": 0.333,
        "velocity": 1,
        "hand": "right"
      },
      {
        "midi": 59,
        "time": 326.389,
        "duration": 0.333,
        "velocity": 1,
        "hand": "right"
      },
      {
        "midi": 71,
        "time": 327.222,
        "duration": 0.333,
        "velocity": 1,
        "hand": "right"
      },
      {
        "midi": 83,
        "time": 328.055,
        "duration": 0.333,
        "velocity": 1,
        "hand": "right"
      },
      {
        "midi": 59,
        "time": 328.889,
        "duration": 1.667,
        "velocity": 1,
        "hand": "right"
      }
    ],
    "medium": [
      {
        "midi": 62,
        "time": 0,
        "duration": 0.278,
        "velocity": 1,
        "hand": "right"
      },
      {
        "midi": 71,
        "time": 0,
        "duration": 0.278,
        "velocity": 1,
        "hand": "right"
      },
      {
        "midi": 47,
        "time": 0.833,
        "duration": 0.278,
        "velocity": 1,
        "hand": "left"
      },
      {
        "midi": 59,
        "time": 1.666,
        "duration": 0.278,
        "velocity": 1,
        "hand": "left"
      },
      {
        "midi": 67,
        "time": 1.666,
        "duration": 0.278,
        "velocity": 1,
        "hand": "right"
      },
      {
        "midi": 47,
        "time": 2.5,
        "duration": 0.278,
        "velocity": 1,
        "hand": "left"
      },
      {
        "midi": 57,
        "time": 3.333,
        "duration": 0.278,
        "velocity": 1,
        "hand": "left"
      },
      {
        "midi": 66,
        "time": 3.333,
        "duration": 0.278,
        "velocity": 1,
        "hand": "right"
      },
      {
        "midi": 47,
        "time": 4.166,
        "duration": 0.278,
        "velocity": 1,
        "hand": "left"
      },
      {
        "midi": 55,
        "time": 5,
        "duration": 0.278,
        "velocity": 1,
        "hand": "left"
      },
      {
        "midi": 64,
        "time": 5,
        "duration": 0.278,
        "velocity": 1,
        "hand": "right"
      },
      {
        "midi": 47,
        "time": 5.833,
        "duration": 0.278,
        "velocity": 1,
        "hand": "left"
      },
      {
        "midi": 53,
        "time": 6.666,
        "duration": 0.278,
        "velocity": 1,
        "hand": "left"
      },
      {
        "midi": 62,
        "time": 7.5,
        "duration": 0.278,
        "velocity": 1,
        "hand": "right"
      },
      {
        "midi": 74,
        "time": 7.5,
        "duration": 0.263,
        "velocity": 1,
        "hand": "right"
      },
      {
        "midi": 45,
        "time": 8.333,
        "duration": 0.278,
        "velocity": 1,
        "hand": "left"
      },
      {
        "midi": 56,
        "time": 9.166,
        "duration": 0.278,
        "velocity": 1,
        "hand": "left"
      },
      {
        "midi": 66,
        "time": 9.166,
        "duration": 0.278,
        "velocity": 1,
        "hand": "right"
      },
      {
        "midi": 53,
        "time": 10,
        "duration": 0.278,
        "velocity": 1,
        "hand": "left"
      },
      {
        "midi": 62,
        "time": 10.833,
        "duration": 0.278,
        "velocity": 1,
        "hand": "right"
      },
      {
        "midi": 74,
        "time": 10.833,
        "duration": 0.263,
        "velocity": 1,
        "hand": "right"
      },
      {
        "midi": 45,
        "time": 11.666,
        "duration": 0.278,
        "velocity": 1,
        "hand": "left"
      },
      {
        "midi": 56,
        "time": 12.5,
        "duration": 0.278,
        "velocity": 1,
        "hand": "left"
      },
      {
        "midi": 66,
        "time": 12.5,
        "duration": 0.278,
        "velocity": 1,
        "hand": "right"
      },
      {
        "midi": 62,
        "time": 13.333,
        "duration": 0.278,
        "velocity": 1,
        "hand": "right"
      },
      {
        "midi": 71,
        "time": 13.333,
        "duration": 0.278,
        "velocity": 1,
        "hand": "right"
      },
      {
        "midi": 47,
        "time": 14.166,
        "duration": 0.278,
        "velocity": 1,
        "hand": "left"
      },
      {
        "midi": 59,
        "time": 15,
        "duration": 0.278,
        "velocity": 1,
        "hand": "left"
      },
      {
        "midi": 67,
        "time": 15,
        "duration": 0.278,
        "velocity": 1,
        "hand": "right"
      },
      {
        "midi": 47,
        "time": 15.833,
        "duration": 0.278,
        "velocity": 1,
        "hand": "left"
      },
      {
        "midi": 57,
        "time": 16.666,
        "duration": 0.278,
        "velocity": 1,
        "hand": "left"
      },
      {
        "midi": 66,
        "time": 16.666,
        "duration": 0.278,
        "velocity": 1,
        "hand": "right"
      },
      {
        "midi": 47,
        "time": 17.5,
        "duration": 0.278,
        "velocity": 1,
        "hand": "left"
      },
      {
        "midi": 55,
        "time": 18.333,
        "duration": 0.278,
        "velocity": 1,
        "hand": "left"
      },
      {
        "midi": 64,
        "time": 18.333,
        "duration": 0.278,
        "velocity": 1,
        "hand": "right"
      },
      {
        "midi": 47,
        "time": 19.166,
        "duration": 0.278,
        "velocity": 1,
        "hand": "left"
      },
      {
        "midi": 53,
        "time": 20,
        "duration": 0.278,
        "velocity": 1,
        "hand": "left"
      },
      {
        "midi": 62,
        "time": 20.833,
        "duration": 0.278,
        "velocity": 1,
        "hand": "right"
      },
      {
        "midi": 74,
        "time": 20.833,
        "duration": 0.263,
        "velocity": 1,
        "hand": "right"
      },
      {
        "midi": 45,
        "time": 21.666,
        "duration": 0.278,
        "velocity": 1,
        "hand": "left"
      },
      {
        "midi": 56,
        "time": 22.5,
        "duration": 0.278,
        "velocity": 1,
        "hand": "left"
      },
      {
        "midi": 66,
        "time": 22.5,
        "duration": 0.278,
        "velocity": 1,
        "hand": "right"
      },
      {
        "midi": 53,
        "time": 23.333,
        "duration": 0.278,
        "velocity": 1,
        "hand": "left"
      },
      {
        "midi": 62,
        "time": 24.166,
        "duration": 0.278,
        "velocity": 1,
        "hand": "right"
      },
      {
        "midi": 74,
        "time": 24.166,
        "duration": 0.263,
        "velocity": 1,
        "hand": "right"
      },
      {
        "midi": 56,
        "time": 25,
        "duration": 0.556,
        "velocity": 1,
        "hand": "left"
      },
      {
        "midi": 71,
        "time": 25.833,
        "duration": 0.556,
        "velocity": 1,
        "hand": "right"
      },
      {
        "midi": 77,
        "time": 25.833,
        "duration": 0.556,
        "velocity": 1,
        "hand": "right"
      },
      {
        "midi": 74,
        "time": 26.666,
        "duration": 0.278,
        "velocity": 1,
        "hand": "right"
      },
      {
        "midi": 83,
        "time": 26.666,
        "duration": 0.278,
        "velocity": 1,
        "hand": "right"
      },
      {
        "midi": 66,
        "time": 27.5,
        "duration": 0.278,
        "velocity": 1,
        "hand": "right"
      },
      {
        "midi": 71,
        "time": 28.333,
        "duration": 0.278,
        "velocity": 1,
        "hand": "right"
      },
      {
        "midi": 79,
        "time": 28.333,
        "duration": 0.278,
        "velocity": 1,
        "hand": "right"
      },
      {
        "midi": 66,
        "time": 29.166,
        "duration": 0.541,
        "velocity": 1,
        "hand": "right"
      },
      {
        "midi": 64,
        "time": 30,
        "duration": 0.818,
        "velocity": 1,
        "hand": "right"
      },
      {
        "midi": 78,
        "time": 30,
        "duration": 0.278,
        "velocity": 1,
        "hand": "right"
      },
      {
        "midi": 57,
        "time": 30.833,
        "duration": 0.818,
        "velocity": 1,
        "hand": "left"
      },
      {
        "midi": 72,
        "time": 30.833,
        "duration": 0.278,
        "velocity": 1,
        "hand": "right"
      },
      {
        "midi": 54,
        "time": 31.666,
        "duration": 0.833,
        "velocity": 1,
        "hand": "left"
      },
      {
        "midi": 64,
        "time": 31.666,
        "duration": 0.278,
        "velocity": 1,
        "hand": "right"
      },
      {
        "midi": 48,
        "time": 32.5,
        "duration": 0.278,
        "velocity": 1,
        "hand": "left"
      },
      {
        "midi": 76,
        "time": 33.333,
        "duration": 0.278,
        "velocity": 1,
        "hand": "right"
      },
      {
        "midi": 83,
        "time": 33.333,
        "duration": 0.278,
        "velocity": 1,
        "hand": "right"
      },
      {
        "midi": 71,
        "time": 34.166,
        "duration": 0.278,
        "velocity": 1,
        "hand": "right"
      },
      {
        "midi": 76,
        "time": 35,
        "duration": 0.278,
        "velocity": 1,
        "hand": "right"
      },
      {
        "midi": 84,
        "time": 35,
        "duration": 0.278,
        "velocity": 1,
        "hand": "right"
      },
      {
        "midi": 71,
        "time": 35.833,
        "duration": 0.541,
        "velocity": 1,
        "hand": "right"
      },
      {
        "midi": 69,
        "time": 36.666,
        "duration": 0.819,
        "velocity": 1,
        "hand": "right"
      },
      {
        "midi": 83,
        "time": 36.666,
        "duration": 0.278,
        "velocity": 1,
        "hand": "right"
      },
      {
        "midi": 62,
        "time": 37.5,
        "duration": 0.818,
        "velocity": 1,
        "hand": "right"
      },
      {
        "midi": 77,
        "time": 37.5,
        "duration": 0.278,
        "velocity": 1,
        "hand": "right"
      },
      {
        "midi": 59,
        "time": 38.333,
        "duration": 0.833,
        "velocity": 1,
        "hand": "left"
      },
      {
        "midi": 70,
        "time": 38.333,
        "duration": 0.278,
        "velocity": 1,
        "hand": "right"
      },
      {
        "midi": 53,
        "time": 39.166,
        "duration": 0.278,
        "velocity": 1,
        "hand": "left"
      },
      {
        "midi": 53,
        "time": 40,
        "duration": 0.278,
        "velocity": 1,
        "hand": "left"
      },
      {
        "midi": 69,
        "time": 40,
        "duration": 0.556,
        "velocity": 1,
        "hand": "right"
      },
      {
        "midi": 53,
        "time": 40.833,
        "duration": 0.278,
        "velocity": 1,
        "hand": "left"
      },
      {
        "midi": 53,
        "time": 41.666,
        "duration": 0.278,
        "velocity": 1,
        "hand": "left"
      },
      {
        "midi": 69,
        "time": 41.666,
        "duration": 0.556,
        "velocity": 1,
        "hand": "right"
      },
      {
        "midi": 53,
        "time": 42.5,
        "duration": 0.278,
        "velocity": 1,
        "hand": "left"
      },
      {
        "midi": 57,
        "time": 43.333,
        "duration": 0.278,
        "velocity": 1,
        "hand": "left"
      },
      {
        "midi": 72,
        "time": 43.333,
        "duration": 0.556,
        "velocity": 1,
        "hand": "right"
      },
      {
        "midi": 57,
        "time": 44.166,
        "duration": 0.278,
        "velocity": 1,
        "hand": "left"
      },
      {
        "midi": 57,
        "time": 45,
        "duration": 0.278,
        "velocity": 1,
        "hand": "left"
      },
      {
        "midi": 72,
        "time": 45,
        "duration": 0.556,
        "velocity": 1,
        "hand": "right"
      },
      {
        "midi": 57,
        "time": 45.833,
        "duration": 0.278,
        "velocity": 1,
        "hand": "left"
      },
      {
        "midi": 60,
        "time": 46.666,
        "duration": 0.278,
        "velocity": 1,
        "hand": "right"
      },
      {
        "midi": 76,
        "time": 46.666,
        "duration": 0.556,
        "velocity": 1,
        "hand": "right"
      },
      {
        "midi": 60,
        "time": 47.5,
        "duration": 0.278,
        "velocity": 1,
        "hand": "right"
      },
      {
        "midi": 64,
        "time": 48.333,
        "duration": 0.278,
        "velocity": 1,
        "hand": "right"
      },
      {
        "midi": 79,
        "time": 48.333,
        "duration": 0.556,
        "velocity": 1,
        "hand": "right"
      },
      {
        "midi": 64,
        "time": 49.166,
        "duration": 0.278,
        "velocity": 1,
        "hand": "right"
      },
      {
        "midi": 67,
        "time": 50,
        "duration": 0.278,
        "velocity": 1,
        "hand": "right"
      },
      {
        "midi": 83,
        "time": 50,
        "duration": 0.556,
        "velocity": 1,
        "hand": "right"
      },
      {
        "midi": 67,
        "time": 50.833,
        "duration": 0.278,
        "velocity": 1,
        "hand": "right"
      },
      {
        "midi": 71,
        "time": 51.666,
        "duration": 0.278,
        "velocity": 1,
        "hand": "right"
      },
      {
        "midi": 78,
        "time": 51.666,
        "duration": 0.556,
        "velocity": 1,
        "hand": "right"
      },
      {
        "midi": 71,
        "time": 52.5,
        "duration": 0.278,
        "velocity": 1,
        "hand": "right"
      },
      {
        "midi": 70,
        "time": 53.333,
        "duration": 0.278,
        "velocity": 1,
        "hand": "right"
      },
      {
        "midi": 78,
        "time": 53.333,
        "duration": 0.541,
        "velocity": 1,
        "hand": "right"
      },
      {
        "midi": 62,
        "time": 54.166,
        "duration": 0.278,
        "velocity": 1,
        "hand": "right"
      },
      {
        "midi": 70,
        "time": 55,
        "duration": 0.278,
        "velocity": 1,
        "hand": "right"
      },
      {
        "midi": 78,
        "time": 55,
        "duration": 0.54,
        "velocity": 1,
        "hand": "right"
      },
      {
        "midi": 61,
        "time": 55.833,
        "duration": 0.278,
        "velocity": 1,
        "hand": "right"
      },
      {
        "midi": 78,
        "time": 56.666,
        "duration": 0.541,
        "velocity": 1,
        "hand": "right"
      },
      {
        "midi": 54,
        "time": 57.5,
        "duration": 0.278,
        "velocity": 1,
        "hand": "left"
      },
      {
        "midi": 66,
        "time": 58.333,
        "duration": 0.541,
        "velocity": 1,
        "hand": "right"
      },
      {
        "midi": 42,
        "time": 59.166,
        "duration": 0.278,
        "velocity": 1,
        "hand": "left"
      },
      {
        "midi": 62,
        "time": 60,
        "duration": 0.278,
        "velocity": 1,
        "hand": "right"
      },
      {
        "midi": 71,
        "time": 60,
        "duration": 0.278,
        "velocity": 1,
        "hand": "right"
      },
      {
        "midi": 47,
        "time": 60.833,
        "duration": 0.278,
        "velocity": 1,
        "hand": "left"
      },
      {
        "midi": 59,
        "time": 61.666,
        "duration": 0.278,
        "velocity": 1,
        "hand": "left"
      },
      {
        "midi": 67,
        "time": 61.666,
        "duration": 0.278,
        "velocity": 1,
        "hand": "right"
      },
      {
        "midi": 47,
        "time": 62.5,
        "duration": 0.278,
        "velocity": 1,
        "hand": "left"
      },
      {
        "midi": 57,
        "time": 63.333,
        "duration": 0.278,
        "velocity": 1,
        "hand": "left"
      },
      {
        "midi": 66,
        "time": 63.333,
        "duration": 0.278,
        "velocity": 1,
        "hand": "right"
      },
      {
        "midi": 47,
        "time": 64.166,
        "duration": 0.278,
        "velocity": 1,
        "hand": "left"
      },
      {
        "midi": 55,
        "time": 65,
        "duration": 0.278,
        "velocity": 1,
        "hand": "left"
      },
      {
        "midi": 64,
        "time": 65,
        "duration": 0.278,
        "velocity": 1,
        "hand": "right"
      },
      {
        "midi": 47,
        "time": 65.833,
        "duration": 0.278,
        "velocity": 1,
        "hand": "left"
      },
      {
        "midi": 53,
        "time": 66.666,
        "duration": 0.278,
        "velocity": 1,
        "hand": "left"
      },
      {
        "midi": 62,
        "time": 67.5,
        "duration": 0.278,
        "velocity": 1,
        "hand": "right"
      },
      {
        "midi": 74,
        "time": 67.5,
        "duration": 0.263,
        "velocity": 1,
        "hand": "right"
      },
      {
        "midi": 45,
        "time": 68.333,
        "duration": 0.278,
        "velocity": 1,
        "hand": "left"
      },
      {
        "midi": 56,
        "time": 69.166,
        "duration": 0.278,
        "velocity": 1,
        "hand": "left"
      },
      {
        "midi": 66,
        "time": 69.166,
        "duration": 0.278,
        "velocity": 1,
        "hand": "right"
      },
      {
        "midi": 53,
        "time": 70,
        "duration": 0.278,
        "velocity": 1,
        "hand": "left"
      },
      {
        "midi": 62,
        "time": 70.833,
        "duration": 0.278,
        "velocity": 1,
        "hand": "right"
      },
      {
        "midi": 74,
        "time": 70.833,
        "duration": 0.263,
        "velocity": 1,
        "hand": "right"
      },
      {
        "midi": 45,
        "time": 71.666,
        "duration": 0.278,
        "velocity": 1,
        "hand": "left"
      },
      {
        "midi": 56,
        "time": 72.5,
        "duration": 0.278,
        "velocity": 1,
        "hand": "left"
      },
      {
        "midi": 66,
        "time": 72.5,
        "duration": 0.278,
        "velocity": 1,
        "hand": "right"
      },
      {
        "midi": 52,
        "time": 73.333,
        "duration": 0.278,
        "velocity": 1,
        "hand": "left"
      },
      {
        "midi": 57,
        "time": 74.166,
        "duration": 0.263,
        "velocity": 1,
        "hand": "left"
      },
      {
        "midi": 69,
        "time": 74.166,
        "duration": 0.278,
        "velocity": 1,
        "hand": "right"
      },
      {
        "midi": 56,
        "time": 75,
        "duration": 0.278,
        "velocity": 1,
        "hand": "left"
      },
      {
        "midi": 61,
        "time": 75.833,
        "duration": 0.263,
        "velocity": 1,
        "hand": "right"
      },
      {
        "midi": 73,
        "time": 75.833,
        "duration": 0.278,
        "velocity": 1,
        "hand": "right"
      },
      {
        "midi": 78,
        "time": 76.666,
        "duration": 0.278,
        "velocity": 1,
        "hand": "right"
      },
      {
        "midi": 78,
        "time": 77.5,
        "duration": 0.278,
        "velocity": 1,
        "hand": "right"
      },
      {
        "midi": 78,
        "time": 78.333,
        "duration": 0.278,
        "velocity": 1,
        "hand": "right"
      },
      {
        "midi": 78,
        "time": 79.166,
        "duration": 0.278,
        "velocity": 1,
        "hand": "right"
      },
      {
        "midi": 52,
        "time": 80.555,
        "duration": 0.556,
        "velocity": 1,
        "hand": "left"
      },
      {
        "midi": 67,
        "time": 81.25,
        "duration": 0.194,
        "velocity": 1,
        "hand": "right"
      },
      {
        "midi": 64,
        "time": 81.944,
        "duration": 0.194,
        "velocity": 1,
        "hand": "right"
      },
      {
        "midi": 49,
        "time": 82.639,
        "duration": 0.194,
        "velocity": 1,
        "hand": "left"
      },
      {
        "midi": 49,
        "time": 83.333,
        "duration": 0.278,
        "velocity": 1,
        "hand": "left"
      },
      {
        "midi": 59,
        "time": 84.028,
        "duration": 0.194,
        "velocity": 1,
        "hand": "left"
      },
      {
        "midi": 79,
        "time": 84.722,
        "duration": 0.194,
        "velocity": 1,
        "hand": "right"
      },
      {
        "midi": 64,
        "time": 85.416,
        "duration": 0.194,
        "velocity": 1,
        "hand": "right"
      },
      {
        "midi": 49,
        "time": 86.111,
        "duration": 0.194,
        "velocity": 1,
        "hand": "left"
      },
      {
        "midi": 59,
        "time": 86.944,
        "duration": 0.278,
        "velocity": 1,
        "hand": "left"
      },
      {
        "midi": 71,
        "time": 86.944,
        "duration": 0.278,
        "velocity": 1,
        "hand": "right"
      },
      {
        "midi": 54,
        "time": 87.639,
        "duration": 0.194,
        "velocity": 1,
        "hand": "left"
      },
      {
        "midi": 62,
        "time": 88.333,
        "duration": 0.194,
        "velocity": 1,
        "hand": "right"
      },
      {
        "midi": 74,
        "time": 88.333,
        "duration": 0.194,
        "velocity": 1,
        "hand": "right"
      },
      {
        "midi": 64,
        "time": 89.166,
        "duration": 0.278,
        "velocity": 1,
        "hand": "right"
      },
      {
        "midi": 79,
        "time": 89.166,
        "duration": 0.278,
        "velocity": 1,
        "hand": "right"
      },
      {
        "midi": 59,
        "time": 90,
        "duration": 0.278,
        "velocity": 1,
        "hand": "left"
      },
      {
        "midi": 74,
        "time": 90,
        "duration": 0.278,
        "velocity": 1,
        "hand": "right"
      },
      {
        "midi": 59,
        "time": 90.833,
        "duration": 0.278,
        "velocity": 1,
        "hand": "left"
      },
      {
        "midi": 74,
        "time": 90.833,
        "duration": 0.278,
        "velocity": 1,
        "hand": "right"
      },
      {
        "midi": 78,
        "time": 91.666,
        "duration": 0.278,
        "velocity": 1,
        "hand": "right"
      },
      {
        "midi": 78,
        "time": 92.5,
        "duration": 0.278,
        "velocity": 1,
        "hand": "right"
      },
      {
        "midi": 58,
        "time": 93.333,
        "duration": 0.278,
        "velocity": 1,
        "hand": "left"
      },
      {
        "midi": 73,
        "time": 93.333,
        "duration": 0.278,
        "velocity": 1,
        "hand": "right"
      },
      {
        "midi": 55,
        "time": 94.166,
        "duration": 0.278,
        "velocity": 1,
        "hand": "left"
      },
      {
        "midi": 71,
        "time": 94.166,
        "duration": 0.278,
        "velocity": 1,
        "hand": "right"
      },
      {
        "midi": 54,
        "time": 95.278,
        "duration": 0.278,
        "velocity": 1,
        "hand": "left"
      },
      {
        "midi": 70,
        "time": 95.278,
        "duration": 0.278,
        "velocity": 1,
        "hand": "right"
      },
      {
        "midi": 54,
        "time": 96.111,
        "duration": 0.278,
        "velocity": 1,
        "hand": "left"
      },
      {
        "midi": 62,
        "time": 96.944,
        "duration": 0.278,
        "velocity": 1,
        "hand": "right"
      },
      {
        "midi": 73,
        "time": 96.944,
        "duration": 0.263,
        "velocity": 1,
        "hand": "right"
      },
      {
        "midi": 43,
        "time": 97.778,
        "duration": 0.278,
        "velocity": 1,
        "hand": "left"
      },
      {
        "midi": 58,
        "time": 98.611,
        "duration": 0.278,
        "velocity": 1,
        "hand": "left"
      },
      {
        "midi": 66,
        "time": 98.611,
        "duration": 0.263,
        "velocity": 1,
        "hand": "right"
      },
      {
        "midi": 54,
        "time": 99.444,
        "duration": 0.278,
        "velocity": 1,
        "hand": "left"
      },
      {
        "midi": 62,
        "time": 100.278,
        "duration": 0.278,
        "velocity": 1,
        "hand": "right"
      },
      {
        "midi": 73,
        "time": 100.278,
        "duration": 0.262,
        "velocity": 1,
        "hand": "right"
      },
      {
        "midi": 43,
        "time": 101.111,
        "duration": 0.278,
        "velocity": 1,
        "hand": "left"
      },
      {
        "midi": 58,
        "time": 101.944,
        "duration": 0.278,
        "velocity": 1,
        "hand": "left"
      },
      {
        "midi": 66,
        "time": 101.944,
        "duration": 0.263,
        "velocity": 1,
        "hand": "right"
      },
      {
        "midi": 70,
        "time": 102.778,
        "duration": 0.278,
        "velocity": 1,
        "hand": "right"
      },
      {
        "midi": 73,
        "time": 103.611,
        "duration": 0.278,
        "velocity": 1,
        "hand": "right"
      },
      {
        "midi": 77,
        "time": 104.444,
        "duration": 0.278,
        "velocity": 1,
        "hand": "right"
      },
      {
        "midi": 70,
        "time": 105.278,
        "duration": 0.278,
        "velocity": 1,
        "hand": "right"
      },
      {
        "midi": 82,
        "time": 105.278,
        "duration": 0.278,
        "velocity": 1,
        "hand": "right"
      },
      {
        "midi": 71,
        "time": 106.111,
        "duration": 0.263,
        "velocity": 1,
        "hand": "right"
      },
      {
        "midi": 83,
        "time": 106.111,
        "duration": 0.263,
        "velocity": 1,
        "hand": "right"
      },
      {
        "midi": 71,
        "time": 106.944,
        "duration": 0.263,
        "velocity": 1,
        "hand": "right"
      },
      {
        "midi": 83,
        "time": 106.944,
        "duration": 0.263,
        "velocity": 1,
        "hand": "right"
      },
      {
        "midi": 71,
        "time": 107.778,
        "duration": 0.262,
        "velocity": 1,
        "hand": "right"
      },
      {
        "midi": 82,
        "time": 107.778,
        "duration": 0.278,
        "velocity": 1,
        "hand": "right"
      },
      {
        "midi": 71,
        "time": 108.611,
        "duration": 0.263,
        "velocity": 1,
        "hand": "right"
      },
      {
        "midi": 82,
        "time": 108.611,
        "duration": 0.278,
        "velocity": 1,
        "hand": "right"
      },
      {
        "midi": 83,
        "time": 109.722,
        "duration": 0.278,
        "velocity": 1,
        "hand": "right"
      },
      {
        "midi": 59,
        "time": 110.555,
        "duration": 0.278,
        "velocity": 1,
        "hand": "left"
      },
      {
        "midi": 71,
        "time": 110.555,
        "duration": 0.278,
        "velocity": 1,
        "hand": "right"
      },
      {
        "midi": 42,
        "time": 111.389,
        "duration": 0.278,
        "velocity": 1,
        "hand": "left"
      },
      {
        "midi": 47,
        "time": 111.389,
        "duration": 0.278,
        "velocity": 1,
        "hand": "left"
      },
      {
        "midi": 74,
        "time": 112.222,
        "duration": 0.833,
        "velocity": 1,
        "hand": "right"
      },
      {
        "midi": 73,
        "time": 113.055,
        "duration": 0.833,
        "velocity": 1,
        "hand": "right"
      },
      {
        "midi": 71,
        "time": 113.889,
        "duration": 0.556,
        "velocity": 1,
        "hand": "right"
      },
      {
        "midi": 69,
        "time": 114.722,
        "duration": 0.833,
        "velocity": 1,
        "hand": "right"
      },
      {
        "midi": 71,
        "time": 115.555,
        "duration": 0.833,
        "velocity": 1,
        "hand": "right"
      },
      {
        "midi": 69,
        "time": 116.389,
        "duration": 0.833,
        "velocity": 1,
        "hand": "right"
      },
      {
        "midi": 67,
        "time": 117.222,
        "duration": 0.556,
        "velocity": 1,
        "hand": "right"
      },
      {
        "midi": 66,
        "time": 118.055,
        "duration": 0.833,
        "velocity": 1,
        "hand": "right"
      },
      {
        "midi": 59,
        "time": 118.889,
        "duration": 3.333,
        "velocity": 1,
        "hand": "left"
      },
      {
        "midi": 69,
        "time": 118.889,
        "duration": 0.833,
        "velocity": 1,
        "hand": "right"
      },
      {
        "midi": 62,
        "time": 119.722,
        "duration": 0.818,
        "velocity": 1,
        "hand": "right"
      },
      {
        "midi": 56,
        "time": 120.555,
        "duration": 1.652,
        "velocity": 1,
        "hand": "left"
      },
      {
        "midi": 66,
        "time": 120.555,
        "duration": 0.556,
        "velocity": 1,
        "hand": "right"
      },
      {
        "midi": 64,
        "time": 121.389,
        "duration": 0.833,
        "velocity": 1,
        "hand": "right"
      },
      {
        "midi": 56,
        "time": 122.222,
        "duration": 1.667,
        "velocity": 1,
        "hand": "left"
      },
      {
        "midi": 66,
        "time": 122.222,
        "duration": 0.833,
        "velocity": 1,
        "hand": "right"
      },
      {
        "midi": 59,
        "time": 123.055,
        "duration": 0.833,
        "velocity": 1,
        "hand": "left"
      },
      {
        "midi": 55,
        "time": 123.889,
        "duration": 1.667,
        "velocity": 1,
        "hand": "left"
      },
      {
        "midi": 62,
        "time": 123.889,
        "duration": 0.556,
        "velocity": 1,
        "hand": "right"
      },
      {
        "midi": 61,
        "time": 124.722,
        "duration": 0.833,
        "velocity": 1,
        "hand": "right"
      },
      {
        "midi": 54,
        "time": 125.555,
        "duration": 1.667,
        "velocity": 1,
        "hand": "left"
      },
      {
        "midi": 69,
        "time": 125.555,
        "duration": 1.667,
        "velocity": 1,
        "hand": "right"
      },
      {
        "midi": 47,
        "time": 126.389,
        "duration": 0.833,
        "velocity": 1,
        "hand": "left"
      },
      {
        "midi": 45,
        "time": 127.222,
        "duration": 1.667,
        "velocity": 1,
        "hand": "left"
      },
      {
        "midi": 49,
        "time": 127.222,
        "duration": 0.556,
        "velocity": 1,
        "hand": "left"
      },
      {
        "midi": 50,
        "time": 128.055,
        "duration": 0.833,
        "velocity": 1,
        "hand": "left"
      },
      {
        "midi": 74,
        "time": 128.889,
        "duration": 1.667,
        "velocity": 1,
        "hand": "right"
      },
      {
        "midi": 54,
        "time": 129.722,
        "duration": 0.833,
        "velocity": 1,
        "hand": "left"
      },
      {
        "midi": 50,
        "time": 130.555,
        "duration": 1.667,
        "velocity": 1,
        "hand": "left"
      },
      {
        "midi": 64,
        "time": 130.555,
        "duration": 1.652,
        "velocity": 1,
        "hand": "right"
      },
      {
        "midi": 56,
        "time": 131.389,
        "duration": 0.818,
        "velocity": 1,
        "hand": "left"
      },
      {
        "midi": 76,
        "time": 132.222,
        "duration": 1.667,
        "velocity": 1,
        "hand": "right"
      },
      {
        "midi": 57,
        "time": 133.055,
        "duration": 0.833,
        "velocity": 1,
        "hand": "left"
      },
      {
        "midi": 75,
        "time": 133.889,
        "duration": 1.667,
        "velocity": 1,
        "hand": "right"
      },
      {
        "midi": 60,
        "time": 134.722,
        "duration": 0.833,
        "velocity": 1,
        "hand": "right"
      },
      {
        "midi": 81,
        "time": 135.555,
        "duration": 0.833,
        "velocity": 1,
        "hand": "right"
      },
      {
        "midi": 66,
        "time": 136.389,
        "duration": 0.556,
        "velocity": 1,
        "hand": "right"
      },
      {
        "midi": 73,
        "time": 136.389,
        "duration": 0.818,
        "velocity": 1,
        "hand": "right"
      },
      {
        "midi": 73,
        "time": 137.222,
        "duration": 0.556,
        "velocity": 1,
        "hand": "right"
      },
      {
        "midi": 57,
        "time": 138.055,
        "duration": 0.819,
        "velocity": 1,
        "hand": "left"
      },
      {
        "midi": 69,
        "time": 138.055,
        "duration": 0.833,
        "velocity": 1,
        "hand": "right"
      },
      {
        "midi": 76,
        "time": 138.889,
        "duration": 0.833,
        "velocity": 1,
        "hand": "right"
      },
      {
        "midi": 69,
        "time": 139.722,
        "duration": 0.833,
        "velocity": 1,
        "hand": "right"
      },
      {
        "midi": 71,
        "time": 140.555,
        "duration": 0.556,
        "velocity": 1,
        "hand": "right"
      },
      {
        "midi": 69,
        "time": 141.389,
        "duration": 0.818,
        "velocity": 1,
        "hand": "right"
      },
      {
        "midi": 71,
        "time": 142.222,
        "duration": 1.667,
        "velocity": 1,
        "hand": "right"
      },
      {
        "midi": 59,
        "time": 143.055,
        "duration": 0.833,
        "velocity": 1,
        "hand": "left"
      },
      {
        "midi": 70,
        "time": 143.889,
        "duration": 0.833,
        "velocity": 1,
        "hand": "right"
      },
      {
        "midi": 59,
        "time": 144.722,
        "duration": 0.833,
        "velocity": 1,
        "hand": "left"
      },
      {
        "midi": 71,
        "time": 144.722,
        "duration": 0.818,
        "velocity": 1,
        "hand": "right"
      },
      {
        "midi": 80,
        "time": 145.555,
        "duration": 0.833,
        "velocity": 1,
        "hand": "right"
      },
      {
        "midi": 73,
        "time": 146.389,
        "duration": 0.833,
        "velocity": 1,
        "hand": "right"
      },
      {
        "midi": 74,
        "time": 147.222,
        "duration": 0.556,
        "velocity": 1,
        "hand": "right"
      },
      {
        "midi": 73,
        "time": 148.055,
        "duration": 0.833,
        "velocity": 1,
        "hand": "right"
      },
      {
        "midi": 74,
        "time": 148.889,
        "duration": 1.667,
        "velocity": 1,
        "hand": "right"
      },
      {
        "midi": 62,
        "time": 149.722,
        "duration": 0.833,
        "velocity": 1,
        "hand": "right"
      },
      {
        "midi": 73,
        "time": 150.555,
        "duration": 0.833,
        "velocity": 1,
        "hand": "right"
      },
      {
        "midi": 62,
        "time": 151.389,
        "duration": 0.833,
        "velocity": 1,
        "hand": "right"
      },
      {
        "midi": 74,
        "time": 151.389,
        "duration": 0.818,
        "velocity": 1,
        "hand": "right"
      },
      {
        "midi": 83,
        "time": 152.222,
        "duration": 0.833,
        "velocity": 1,
        "hand": "right"
      },
      {
        "midi": 76,
        "time": 153.055,
        "duration": 0.833,
        "velocity": 1,
        "hand": "right"
      },
      {
        "midi": 75,
        "time": 153.889,
        "duration": 0.556,
        "velocity": 1,
        "hand": "right"
      },
      {
        "midi": 76,
        "time": 154.722,
        "duration": 0.818,
        "velocity": 1,
        "hand": "right"
      },
      {
        "midi": 76,
        "time": 155.555,
        "duration": 1.667,
        "velocity": 1,
        "hand": "right"
      },
      {
        "midi": 78,
        "time": 156.389,
        "duration": 0.833,
        "velocity": 1,
        "hand": "right"
      },
      {
        "midi": 77,
        "time": 157.222,
        "duration": 0.556,
        "velocity": 1,
        "hand": "right"
      },
      {
        "midi": 78,
        "time": 158.055,
        "duration": 0.833,
        "velocity": 1,
        "hand": "right"
      },
      {
        "midi": 71,
        "time": 158.889,
        "duration": 3.333,
        "velocity": 1,
        "hand": "right"
      },
      {
        "midi": 59,
        "time": 159.722,
        "duration": 0.833,
        "velocity": 1,
        "hand": "left"
      },
      {
        "midi": 66,
        "time": 160.555,
        "duration": 0.556,
        "velocity": 1,
        "hand": "right"
      },
      {
        "midi": 64,
        "time": 161.389,
        "duration": 0.833,
        "velocity": 1,
        "hand": "right"
      },
      {
        "midi": 58,
        "time": 162.222,
        "duration": 1.667,
        "velocity": 1,
        "hand": "left"
      },
      {
        "midi": 74,
        "time": 162.222,
        "duration": 0.833,
        "velocity": 1,
        "hand": "right"
      },
      {
        "midi": 67,
        "time": 163.055,
        "duration": 0.819,
        "velocity": 1,
        "hand": "right"
      },
      {
        "midi": 74,
        "time": 163.889,
        "duration": 0.556,
        "velocity": 1,
        "hand": "right"
      },
      {
        "midi": 73,
        "time": 164.722,
        "duration": 0.833,
        "velocity": 1,
        "hand": "right"
      },
      {
        "midi": 74,
        "time": 165.555,
        "duration": 0.833,
        "velocity": 1,
        "hand": "right"
      },
      {
        "midi": 73,
        "time": 166.389,
        "duration": 0.833,
        "velocity": 1,
        "hand": "right"
      },
      {
        "midi": 71,
        "time": 167.222,
        "duration": 0.556,
        "velocity": 1,
        "hand": "right"
      },
      {
        "midi": 69,
        "time": 168.055,
        "duration": 0.833,
        "velocity": 1,
        "hand": "right"
      },
      {
        "midi": 71,
        "time": 168.889,
        "duration": 0.833,
        "velocity": 1,
        "hand": "right"
      },
      {
        "midi": 69,
        "time": 169.722,
        "duration": 0.833,
        "velocity": 1,
        "hand": "right"
      },
      {
        "midi": 67,
        "time": 170.555,
        "duration": 0.556,
        "velocity": 1,
        "hand": "right"
      },
      {
        "midi": 66,
        "time": 171.389,
        "duration": 0.833,
        "velocity": 1,
        "hand": "right"
      },
      {
        "midi": 59,
        "time": 172.222,
        "duration": 3.333,
        "velocity": 1,
        "hand": "left"
      },
      {
        "midi": 69,
        "time": 172.222,
        "duration": 0.833,
        "velocity": 1,
        "hand": "right"
      },
      {
        "midi": 62,
        "time": 173.055,
        "duration": 0.819,
        "velocity": 1,
        "hand": "right"
      },
      {
        "midi": 56,
        "time": 173.889,
        "duration": 1.651,
        "velocity": 1,
        "hand": "left"
      },
      {
        "midi": 66,
        "time": 173.889,
        "duration": 0.556,
        "velocity": 1,
        "hand": "right"
      },
      {
        "midi": 64,
        "time": 174.722,
        "duration": 0.833,
        "velocity": 1,
        "hand": "right"
      },
      {
        "midi": 56,
        "time": 175.555,
        "duration": 1.667,
        "velocity": 1,
        "hand": "left"
      },
      {
        "midi": 66,
        "time": 175.555,
        "duration": 0.833,
        "velocity": 1,
        "hand": "right"
      },
      {
        "midi": 59,
        "time": 176.389,
        "duration": 0.833,
        "velocity": 1,
        "hand": "left"
      },
      {
        "midi": 55,
        "time": 177.222,
        "duration": 1.667,
        "velocity": 1,
        "hand": "left"
      },
      {
        "midi": 62,
        "time": 177.222,
        "duration": 0.556,
        "velocity": 1,
        "hand": "right"
      },
      {
        "midi": 61,
        "time": 178.055,
        "duration": 0.833,
        "velocity": 1,
        "hand": "right"
      },
      {
        "midi": 54,
        "time": 178.889,
        "duration": 1.667,
        "velocity": 1,
        "hand": "left"
      },
      {
        "midi": 69,
        "time": 178.889,
        "duration": 1.667,
        "velocity": 1,
        "hand": "right"
      },
      {
        "midi": 47,
        "time": 179.722,
        "duration": 0.818,
        "velocity": 1,
        "hand": "left"
      },
      {
        "midi": 57,
        "time": 180.555,
        "duration": 1.667,
        "velocity": 1,
        "hand": "left"
      },
      {
        "midi": 62,
        "time": 180.555,
        "duration": 1.652,
        "velocity": 1,
        "hand": "right"
      },
      {
        "midi": 48,
        "time": 181.389,
        "duration": 0.833,
        "velocity": 1,
        "hand": "left"
      },
      {
        "midi": 74,
        "time": 182.222,
        "duration": 1.667,
        "velocity": 1,
        "hand": "right"
      },
      {
        "midi": 47,
        "time": 183.055,
        "duration": 0.833,
        "velocity": 1,
        "hand": "left"
      },
      {
        "midi": 56,
        "time": 183.889,
        "duration": 1.667,
        "velocity": 1,
        "hand": "left"
      },
      {
        "midi": 71,
        "time": 183.889,
        "duration": 1.667,
        "velocity": 1,
        "hand": "right"
      },
      {
        "midi": 50,
        "time": 184.722,
        "duration": 0.818,
        "velocity": 1,
        "hand": "left"
      },
      {
        "midi": 54,
        "time": 185.555,
        "duration": 1.667,
        "velocity": 1,
        "hand": "left"
      },
      {
        "midi": 69,
        "time": 185.555,
        "duration": 1.667,
        "velocity": 1,
        "hand": "right"
      },
      {
        "midi": 51,
        "time": 186.389,
        "duration": 0.833,
        "velocity": 1,
        "hand": "left"
      },
      {
        "midi": 55,
        "time": 187.222,
        "duration": 0.818,
        "velocity": 1,
        "hand": "left"
      },
      {
        "midi": 64,
        "time": 187.222,
        "duration": 1.667,
        "velocity": 1,
        "hand": "right"
      },
      {
        "midi": 55,
        "time": 188.055,
        "duration": 0.819,
        "velocity": 1,
        "hand": "left"
      },
      {
        "midi": 45,
        "time": 188.889,
        "duration": 1.667,
        "velocity": 1,
        "hand": "left"
      },
      {
        "midi": 61,
        "time": 188.889,
        "duration": 1.667,
        "velocity": 1,
        "hand": "right"
      },
      {
        "midi": 52,
        "time": 189.722,
        "duration": 0.833,
        "velocity": 1,
        "hand": "left"
      },
      {
        "midi": 50,
        "time": 190.555,
        "duration": 1.667,
        "velocity": 1,
        "hand": "left"
      },
      {
        "midi": 62,
        "time": 190.555,
        "duration": 1.652,
        "velocity": 1,
        "hand": "right"
      },
      {
        "midi": 45,
        "time": 191.389,
        "duration": 0.833,
        "velocity": 1,
        "hand": "left"
      },
      {
        "midi": 71,
        "time": 192.222,
        "duration": 0.833,
        "velocity": 1,
        "hand": "right"
      },
      {
        "midi": 61,
        "time": 193.055,
        "duration": 0.819,
        "velocity": 1,
        "hand": "right"
      },
      {
        "midi": 70,
        "time": 193.055,
        "duration": 0.833,
        "velocity": 1,
        "hand": "right"
      },
      {
        "midi": 59,
        "time": 193.889,
        "duration": 0.833,
        "velocity": 1,
        "hand": "left"
      },
      {
        "midi": 67,
        "time": 193.889,
        "duration": 0.556,
        "velocity": 1,
        "hand": "right"
      },
      {
        "midi": 58,
        "time": 194.722,
        "duration": 0.833,
        "velocity": 1,
        "hand": "left"
      },
      {
        "midi": 66,
        "time": 194.722,
        "duration": 0.818,
        "velocity": 1,
        "hand": "right"
      },
      {
        "midi": 74,
        "time": 195.555,
        "duration": 0.833,
        "velocity": 1,
        "hand": "right"
      },
      {
        "midi": 58,
        "time": 196.389,
        "duration": 0.833,
        "velocity": 1,
        "hand": "left"
      },
      {
        "midi": 73,
        "time": 196.389,
        "duration": 0.833,
        "velocity": 1,
        "hand": "right"
      },
      {
        "midi": 59,
        "time": 197.222,
        "duration": 0.556,
        "velocity": 1,
        "hand": "left"
      },
      {
        "midi": 71,
        "time": 197.222,
        "duration": 0.833,
        "velocity": 1,
        "hand": "right"
      },
      {
        "midi": 61,
        "time": 198.055,
        "duration": 0.833,
        "velocity": 1,
        "hand": "right"
      },
      {
        "midi": 70,
        "time": 198.055,
        "duration": 0.833,
        "velocity": 1,
        "hand": "right"
      },
      {
        "midi": 83,
        "time": 198.889,
        "duration": 0.833,
        "velocity": 1,
        "hand": "right"
      },
      {
        "midi": 73,
        "time": 199.722,
        "duration": 0.818,
        "velocity": 1,
        "hand": "right"
      },
      {
        "midi": 82,
        "time": 199.722,
        "duration": 0.833,
        "velocity": 1,
        "hand": "right"
      },
      {
        "midi": 71,
        "time": 200.555,
        "duration": 0.833,
        "velocity": 1,
        "hand": "right"
      },
      {
        "midi": 79,
        "time": 200.555,
        "duration": 0.556,
        "velocity": 1,
        "hand": "right"
      },
      {
        "midi": 70,
        "time": 201.389,
        "duration": 0.833,
        "velocity": 1,
        "hand": "right"
      },
      {
        "midi": 78,
        "time": 201.389,
        "duration": 0.818,
        "velocity": 1,
        "hand": "right"
      },
      {
        "midi": 68,
        "time": 202.222,
        "duration": 0.833,
        "velocity": 1,
        "hand": "right"
      },
      {
        "midi": 78,
        "time": 202.222,
        "duration": 1.652,
        "velocity": 1,
        "hand": "right"
      },
      {
        "midi": 70,
        "time": 203.055,
        "duration": 0.833,
        "velocity": 1,
        "hand": "right"
      },
      {
        "midi": 73,
        "time": 203.055,
        "duration": 0.833,
        "velocity": 1,
        "hand": "right"
      },
      {
        "midi": 71,
        "time": 203.889,
        "duration": 0.556,
        "velocity": 1,
        "hand": "right"
      },
      {
        "midi": 83,
        "time": 203.889,
        "duration": 0.833,
        "velocity": 1,
        "hand": "right"
      },
      {
        "midi": 73,
        "time": 204.722,
        "duration": 0.818,
        "velocity": 1,
        "hand": "right"
      },
      {
        "midi": 82,
        "time": 204.722,
        "duration": 0.833,
        "velocity": 1,
        "hand": "right"
      },
      {
        "midi": 67,
        "time": 205.555,
        "duration": 0.833,
        "velocity": 1,
        "hand": "right"
      },
      {
        "midi": 83,
        "time": 205.555,
        "duration": 0.556,
        "velocity": 1,
        "hand": "right"
      },
      {
        "midi": 66,
        "time": 206.389,
        "duration": 0.833,
        "velocity": 1,
        "hand": "right"
      },
      {
        "midi": 82,
        "time": 206.389,
        "duration": 0.833,
        "velocity": 1,
        "hand": "right"
      },
      {
        "midi": 67,
        "time": 207.222,
        "duration": 0.556,
        "velocity": 1,
        "hand": "right"
      },
      {
        "midi": 66,
        "time": 208.055,
        "duration": 0.833,
        "velocity": 1,
        "hand": "right"
      },
      {
        "midi": 55,
        "time": 208.889,
        "duration": 0.833,
        "velocity": 1,
        "hand": "left"
      },
      {
        "midi": 71,
        "time": 208.889,
        "duration": 0.556,
        "velocity": 1,
        "hand": "right"
      },
      {
        "midi": 54,
        "time": 209.722,
        "duration": 0.833,
        "velocity": 1,
        "hand": "left"
      },
      {
        "midi": 70,
        "time": 209.722,
        "duration": 0.833,
        "velocity": 1,
        "hand": "right"
      },
      {
        "midi": 55,
        "time": 210.555,
        "duration": 0.556,
        "velocity": 1,
        "hand": "left"
      },
      {
        "midi": 54,
        "time": 211.389,
        "duration": 0.833,
        "velocity": 1,
        "hand": "left"
      },
      {
        "midi": 55,
        "time": 212.222,
        "duration": 0.556,
        "velocity": 1,
        "hand": "left"
      },
      {
        "midi": 54,
        "time": 213.055,
        "duration": 0.833,
        "velocity": 1,
        "hand": "left"
      },
      {
        "midi": 55,
        "time": 213.889,
        "duration": 0.556,
        "velocity": 1,
        "hand": "left"
      },
      {
        "midi": 54,
        "time": 214.722,
        "duration": 0.278,
        "velocity": 1,
        "hand": "left"
      },
      {
        "midi": 62,
        "time": 215.555,
        "duration": 0.556,
        "velocity": 1,
        "hand": "right"
      },
      {
        "midi": 71,
        "time": 215.555,
        "duration": 0.556,
        "velocity": 1,
        "hand": "right"
      },
      {
        "midi": 47,
        "time": 216.389,
        "duration": 0.278,
        "velocity": 1,
        "hand": "left"
      },
      {
        "midi": 59,
        "time": 217.222,
        "duration": 0.556,
        "velocity": 1,
        "hand": "left"
      },
      {
        "midi": 67,
        "time": 217.222,
        "duration": 0.556,
        "velocity": 1,
        "hand": "right"
      },
      {
        "midi": 47,
        "time": 218.055,
        "duration": 0.278,
        "velocity": 1,
        "hand": "left"
      },
      {
        "midi": 57,
        "time": 218.889,
        "duration": 0.556,
        "velocity": 1,
        "hand": "left"
      },
      {
        "midi": 66,
        "time": 218.889,
        "duration": 0.556,
        "velocity": 1,
        "hand": "right"
      },
      {
        "midi": 47,
        "time": 219.722,
        "duration": 0.278,
        "velocity": 1,
        "hand": "left"
      },
      {
        "midi": 54,
        "time": 220.555,
        "duration": 0.278,
        "velocity": 1,
        "hand": "left"
      },
      {
        "midi": 62,
        "time": 220.555,
        "duration": 0.278,
        "velocity": 1,
        "hand": "right"
      },
      {
        "midi": 47,
        "time": 221.389,
        "duration": 0.278,
        "velocity": 1,
        "hand": "left"
      },
      {
        "midi": 50,
        "time": 221.389,
        "duration": 0.278,
        "velocity": 1,
        "hand": "left"
      },
      {
        "midi": 55,
        "time": 222.222,
        "duration": 0.833,
        "velocity": 1,
        "hand": "left"
      },
      {
        "midi": 74,
        "time": 223.055,
        "duration": 0.278,
        "velocity": 1,
        "hand": "right"
      },
      {
        "midi": 42,
        "time": 223.889,
        "duration": 0.833,
        "velocity": 1,
        "hand": "left"
      },
      {
        "midi": 47,
        "time": 224.722,
        "duration": 0.278,
        "velocity": 1,
        "hand": "left"
      },
      {
        "midi": 62,
        "time": 224.722,
        "duration": 0.278,
        "velocity": 1,
        "hand": "right"
      },
      {
        "midi": 55,
        "time": 225.555,
        "duration": 0.833,
        "velocity": 1,
        "hand": "left"
      },
      {
        "midi": 74,
        "time": 226.389,
        "duration": 0.278,
        "velocity": 1,
        "hand": "right"
      },
      {
        "midi": 42,
        "time": 227.222,
        "duration": 0.833,
        "velocity": 1,
        "hand": "left"
      },
      {
        "midi": 47,
        "time": 228.055,
        "duration": 0.278,
        "velocity": 1,
        "hand": "left"
      },
      {
        "midi": 62,
        "time": 228.055,
        "duration": 0.263,
        "velocity": 1,
        "hand": "right"
      },
      {
        "midi": 62,
        "time": 228.889,
        "duration": 0.556,
        "velocity": 1,
        "hand": "right"
      },
      {
        "midi": 71,
        "time": 228.889,
        "duration": 0.556,
        "velocity": 1,
        "hand": "right"
      },
      {
        "midi": 47,
        "time": 229.722,
        "duration": 0.278,
        "velocity": 1,
        "hand": "left"
      },
      {
        "midi": 59,
        "time": 230.555,
        "duration": 0.556,
        "velocity": 1,
        "hand": "left"
      },
      {
        "midi": 67,
        "time": 230.555,
        "duration": 0.556,
        "velocity": 1,
        "hand": "right"
      },
      {
        "midi": 47,
        "time": 231.389,
        "duration": 0.278,
        "velocity": 1,
        "hand": "left"
      },
      {
        "midi": 57,
        "time": 232.222,
        "duration": 0.556,
        "velocity": 1,
        "hand": "left"
      },
      {
        "midi": 66,
        "time": 232.222,
        "duration": 0.556,
        "velocity": 1,
        "hand": "right"
      },
      {
        "midi": 47,
        "time": 233.055,
        "duration": 0.278,
        "velocity": 1,
        "hand": "left"
      },
      {
        "midi": 54,
        "time": 233.889,
        "duration": 0.278,
        "velocity": 1,
        "hand": "left"
      },
      {
        "midi": 62,
        "time": 233.889,
        "duration": 0.278,
        "velocity": 1,
        "hand": "right"
      },
      {
        "midi": 47,
        "time": 234.722,
        "duration": 0.278,
        "velocity": 1,
        "hand": "left"
      },
      {
        "midi": 50,
        "time": 234.722,
        "duration": 0.278,
        "velocity": 1,
        "hand": "left"
      },
      {
        "midi": 55,
        "time": 235.555,
        "duration": 0.833,
        "velocity": 1,
        "hand": "left"
      },
      {
        "midi": 74,
        "time": 236.389,
        "duration": 0.278,
        "velocity": 1,
        "hand": "right"
      },
      {
        "midi": 42,
        "time": 237.222,
        "duration": 0.833,
        "velocity": 1,
        "hand": "left"
      },
      {
        "midi": 47,
        "time": 238.055,
        "duration": 0.278,
        "velocity": 1,
        "hand": "left"
      },
      {
        "midi": 62,
        "time": 238.055,
        "duration": 0.278,
        "velocity": 1,
        "hand": "right"
      },
      {
        "midi": 55,
        "time": 238.889,
        "duration": 0.818,
        "velocity": 1,
        "hand": "left"
      },
      {
        "midi": 74,
        "time": 239.722,
        "duration": 0.556,
        "velocity": 1,
        "hand": "right"
      },
      {
        "midi": 61,
        "time": 240.555,
        "duration": 0.556,
        "velocity": 1,
        "hand": "right"
      },
      {
        "midi": 66,
        "time": 241.389,
        "duration": 0.278,
        "velocity": 1,
        "hand": "right"
      },
      {
        "midi": 78,
        "time": 241.389,
        "duration": 0.262,
        "velocity": 1,
        "hand": "right"
      },
      {
        "midi": 74,
        "time": 242.222,
        "duration": 0.556,
        "velocity": 1,
        "hand": "right"
      },
      {
        "midi": 83,
        "time": 242.222,
        "duration": 0.556,
        "velocity": 1,
        "hand": "right"
      },
      {
        "midi": 66,
        "time": 243.055,
        "duration": 1.096,
        "velocity": 1,
        "hand": "right"
      },
      {
        "midi": 71,
        "time": 243.889,
        "duration": 0.556,
        "velocity": 1,
        "hand": "right"
      },
      {
        "midi": 79,
        "time": 243.889,
        "duration": 0.556,
        "velocity": 1,
        "hand": "right"
      },
      {
        "midi": 66,
        "time": 244.722,
        "duration": 0.278,
        "velocity": 1,
        "hand": "right"
      },
      {
        "midi": 72,
        "time": 245.555,
        "duration": 0.263,
        "velocity": 1,
        "hand": "right"
      },
      {
        "midi": 78,
        "time": 245.555,
        "duration": 0.278,
        "velocity": 1,
        "hand": "right"
      },
      {
        "midi": 66,
        "time": 246.389,
        "duration": 0.278,
        "velocity": 1,
        "hand": "right"
      },
      {
        "midi": 72,
        "time": 246.389,
        "duration": 0.278,
        "velocity": 1,
        "hand": "right"
      },
      {
        "midi": 60,
        "time": 247.222,
        "duration": 0.278,
        "velocity": 1,
        "hand": "right"
      },
      {
        "midi": 64,
        "time": 247.222,
        "duration": 0.278,
        "velocity": 1,
        "hand": "right"
      },
      {
        "midi": 52,
        "time": 248.055,
        "duration": 0.278,
        "velocity": 1,
        "hand": "left"
      },
      {
        "midi": 64,
        "time": 248.055,
        "duration": 0.278,
        "velocity": 1,
        "hand": "right"
      },
      {
        "midi": 76,
        "time": 248.889,
        "duration": 0.556,
        "velocity": 1,
        "hand": "right"
      },
      {
        "midi": 83,
        "time": 248.889,
        "duration": 0.556,
        "velocity": 1,
        "hand": "right"
      },
      {
        "midi": 71,
        "time": 249.722,
        "duration": 1.096,
        "velocity": 1,
        "hand": "right"
      },
      {
        "midi": 76,
        "time": 250.555,
        "duration": 0.556,
        "velocity": 1,
        "hand": "right"
      },
      {
        "midi": 84,
        "time": 250.555,
        "duration": 0.556,
        "velocity": 1,
        "hand": "right"
      },
      {
        "midi": 71,
        "time": 251.389,
        "duration": 0.278,
        "velocity": 1,
        "hand": "right"
      },
      {
        "midi": 77,
        "time": 252.222,
        "duration": 0.263,
        "velocity": 1,
        "hand": "right"
      },
      {
        "midi": 83,
        "time": 252.222,
        "duration": 0.278,
        "velocity": 1,
        "hand": "right"
      },
      {
        "midi": 71,
        "time": 253.055,
        "duration": 0.278,
        "velocity": 1,
        "hand": "right"
      },
      {
        "midi": 77,
        "time": 253.055,
        "duration": 0.278,
        "velocity": 1,
        "hand": "right"
      },
      {
        "midi": 65,
        "time": 253.889,
        "duration": 0.278,
        "velocity": 1,
        "hand": "right"
      },
      {
        "midi": 70,
        "time": 253.889,
        "duration": 0.278,
        "velocity": 1,
        "hand": "right"
      },
      {
        "midi": 57,
        "time": 254.722,
        "duration": 0.278,
        "velocity": 1,
        "hand": "left"
      },
      {
        "midi": 69,
        "time": 254.722,
        "duration": 0.263,
        "velocity": 1,
        "hand": "right"
      },
      {
        "midi": 57,
        "time": 255.555,
        "duration": 0.278,
        "velocity": 1,
        "hand": "left"
      },
      {
        "midi": 71,
        "time": 255.555,
        "duration": 0.556,
        "velocity": 1,
        "hand": "right"
      },
      {
        "midi": 45,
        "time": 256.389,
        "duration": 0.278,
        "velocity": 1,
        "hand": "left"
      },
      {
        "midi": 57,
        "time": 257.222,
        "duration": 0.278,
        "velocity": 1,
        "hand": "left"
      },
      {
        "midi": 68,
        "time": 257.222,
        "duration": 0.556,
        "velocity": 1,
        "hand": "right"
      },
      {
        "midi": 45,
        "time": 258.055,
        "duration": 0.278,
        "velocity": 1,
        "hand": "left"
      },
      {
        "midi": 74,
        "time": 258.889,
        "duration": 0.556,
        "velocity": 1,
        "hand": "right"
      },
      {
        "midi": 48,
        "time": 259.722,
        "duration": 0.278,
        "velocity": 1,
        "hand": "left"
      },
      {
        "midi": 71,
        "time": 260.555,
        "duration": 0.556,
        "velocity": 1,
        "hand": "right"
      },
      {
        "midi": 48,
        "time": 261.389,
        "duration": 0.278,
        "velocity": 1,
        "hand": "left"
      },
      {
        "midi": 78,
        "time": 262.222,
        "duration": 0.556,
        "velocity": 1,
        "hand": "right"
      },
      {
        "midi": 52,
        "time": 263.055,
        "duration": 0.278,
        "velocity": 1,
        "hand": "left"
      },
      {
        "midi": 81,
        "time": 263.889,
        "duration": 0.556,
        "velocity": 1,
        "hand": "right"
      },
      {
        "midi": 55,
        "time": 264.722,
        "duration": 0.278,
        "velocity": 1,
        "hand": "left"
      },
      {
        "midi": 82,
        "time": 265.555,
        "duration": 0.556,
        "velocity": 1,
        "hand": "right"
      },
      {
        "midi": 59,
        "time": 266.389,
        "duration": 0.278,
        "velocity": 1,
        "hand": "left"
      },
      {
        "midi": 79,
        "time": 267.222,
        "duration": 0.556,
        "velocity": 1,
        "hand": "right"
      },
      {
        "midi": 62,
        "time": 268.055,
        "duration": 0.278,
        "velocity": 1,
        "hand": "right"
      },
      {
        "midi": 70,
        "time": 268.889,
        "duration": 0.278,
        "velocity": 1,
        "hand": "right"
      },
      {
        "midi": 78,
        "time": 268.889,
        "duration": 0.54,
        "velocity": 1,
        "hand": "right"
      },
      {
        "midi": 62,
        "time": 269.722,
        "duration": 0.278,
        "velocity": 1,
        "hand": "right"
      },
      {
        "midi": 70,
        "time": 270.555,
        "duration": 0.278,
        "velocity": 1,
        "hand": "right"
      },
      {
        "midi": 78,
        "time": 270.555,
        "duration": 0.541,
        "velocity": 1,
        "hand": "right"
      },
      {
        "midi": 61,
        "time": 271.389,
        "duration": 0.262,
        "velocity": 1,
        "hand": "right"
      },
      {
        "midi": 78,
        "time": 272.222,
        "duration": 0.541,
        "velocity": 1,
        "hand": "right"
      },
      {
        "midi": 54,
        "time": 273.055,
        "duration": 0.278,
        "velocity": 1,
        "hand": "left"
      },
      {
        "midi": 66,
        "time": 273.889,
        "duration": 0.54,
        "velocity": 1,
        "hand": "right"
      },
      {
        "midi": 42,
        "time": 274.722,
        "duration": 0.278,
        "velocity": 1,
        "hand": "left"
      },
      {
        "midi": 62,
        "time": 275.555,
        "duration": 0.556,
        "velocity": 1,
        "hand": "right"
      },
      {
        "midi": 71,
        "time": 275.555,
        "duration": 0.556,
        "velocity": 1,
        "hand": "right"
      },
      {
        "midi": 47,
        "time": 276.389,
        "duration": 0.278,
        "velocity": 1,
        "hand": "left"
      },
      {
        "midi": 59,
        "time": 277.222,
        "duration": 0.556,
        "velocity": 1,
        "hand": "left"
      },
      {
        "midi": 67,
        "time": 277.222,
        "duration": 0.556,
        "velocity": 1,
        "hand": "right"
      },
      {
        "midi": 47,
        "time": 278.055,
        "duration": 0.278,
        "velocity": 1,
        "hand": "left"
      },
      {
        "midi": 57,
        "time": 278.889,
        "duration": 0.556,
        "velocity": 1,
        "hand": "left"
      },
      {
        "midi": 66,
        "time": 278.889,
        "duration": 0.556,
        "velocity": 1,
        "hand": "right"
      },
      {
        "midi": 47,
        "time": 279.722,
        "duration": 0.278,
        "velocity": 1,
        "hand": "left"
      },
      {
        "midi": 54,
        "time": 280.555,
        "duration": 0.278,
        "velocity": 1,
        "hand": "left"
      },
      {
        "midi": 62,
        "time": 280.555,
        "duration": 0.278,
        "velocity": 1,
        "hand": "right"
      },
      {
        "midi": 47,
        "time": 281.389,
        "duration": 0.278,
        "velocity": 1,
        "hand": "left"
      },
      {
        "midi": 50,
        "time": 281.389,
        "duration": 0.278,
        "velocity": 1,
        "hand": "left"
      },
      {
        "midi": 55,
        "time": 282.222,
        "duration": 0.833,
        "velocity": 1,
        "hand": "left"
      },
      {
        "midi": 74,
        "time": 283.055,
        "duration": 0.278,
        "velocity": 1,
        "hand": "right"
      },
      {
        "midi": 42,
        "time": 283.889,
        "duration": 0.833,
        "velocity": 1,
        "hand": "left"
      },
      {
        "midi": 47,
        "time": 284.722,
        "duration": 0.278,
        "velocity": 1,
        "hand": "left"
      },
      {
        "midi": 62,
        "time": 284.722,
        "duration": 0.278,
        "velocity": 1,
        "hand": "right"
      },
      {
        "midi": 55,
        "time": 285.555,
        "duration": 0.833,
        "velocity": 1,
        "hand": "left"
      },
      {
        "midi": 74,
        "time": 286.389,
        "duration": 0.278,
        "velocity": 1,
        "hand": "right"
      },
      {
        "midi": 42,
        "time": 287.222,
        "duration": 0.833,
        "velocity": 1,
        "hand": "left"
      },
      {
        "midi": 47,
        "time": 288.055,
        "duration": 0.278,
        "velocity": 1,
        "hand": "left"
      },
      {
        "midi": 62,
        "time": 288.055,
        "duration": 0.278,
        "velocity": 1,
        "hand": "right"
      },
      {
        "midi": 49,
        "time": 288.889,
        "duration": 0.833,
        "velocity": 1,
        "hand": "left"
      },
      {
        "midi": 50,
        "time": 289.722,
        "duration": 0.278,
        "velocity": 1,
        "hand": "left"
      },
      {
        "midi": 66,
        "time": 289.722,
        "duration": 0.278,
        "velocity": 1,
        "hand": "right"
      },
      {
        "midi": 53,
        "time": 290.555,
        "duration": 0.833,
        "velocity": 1,
        "hand": "left"
      },
      {
        "midi": 54,
        "time": 291.389,
        "duration": 0.278,
        "velocity": 1,
        "hand": "left"
      },
      {
        "midi": 70,
        "time": 291.389,
        "duration": 0.278,
        "velocity": 1,
        "hand": "right"
      },
      {
        "midi": 74,
        "time": 292.222,
        "duration": 0.278,
        "velocity": 1,
        "hand": "right"
      },
      {
        "midi": 74,
        "time": 293.055,
        "duration": 0.278,
        "velocity": 1,
        "hand": "right"
      },
      {
        "midi": 74,
        "time": 293.889,
        "duration": 0.278,
        "velocity": 1,
        "hand": "right"
      },
      {
        "midi": 79,
        "time": 294.722,
        "duration": 0.833,
        "velocity": 1,
        "hand": "right"
      },
      {
        "midi": 52,
        "time": 295.555,
        "duration": 0.556,
        "velocity": 1,
        "hand": "left"
      },
      {
        "midi": 67,
        "time": 296.25,
        "duration": 0.194,
        "velocity": 1,
        "hand": "right"
      },
      {
        "midi": 64,
        "time": 296.944,
        "duration": 0.194,
        "velocity": 1,
        "hand": "right"
      },
      {
        "midi": 49,
        "time": 297.639,
        "duration": 0.194,
        "velocity": 1,
        "hand": "left"
      },
      {
        "midi": 49,
        "time": 298.333,
        "duration": 0.278,
        "velocity": 1,
        "hand": "left"
      },
      {
        "midi": 59,
        "time": 299.028,
        "duration": 0.194,
        "velocity": 1,
        "hand": "left"
      },
      {
        "midi": 79,
        "time": 299.722,
        "duration": 0.194,
        "velocity": 1,
        "hand": "right"
      },
      {
        "midi": 64,
        "time": 300.416,
        "duration": 0.194,
        "velocity": 1,
        "hand": "right"
      },
      {
        "midi": 49,
        "time": 301.111,
        "duration": 0.194,
        "velocity": 1,
        "hand": "left"
      },
      {
        "midi": 59,
        "time": 301.944,
        "duration": 0.278,
        "velocity": 1,
        "hand": "left"
      },
      {
        "midi": 71,
        "time": 301.944,
        "duration": 0.278,
        "velocity": 1,
        "hand": "right"
      },
      {
        "midi": 54,
        "time": 302.639,
        "duration": 0.194,
        "velocity": 1,
        "hand": "left"
      },
      {
        "midi": 62,
        "time": 303.333,
        "duration": 0.194,
        "velocity": 1,
        "hand": "right"
      },
      {
        "midi": 74,
        "time": 303.333,
        "duration": 0.194,
        "velocity": 1,
        "hand": "right"
      },
      {
        "midi": 64,
        "time": 304.166,
        "duration": 0.278,
        "velocity": 1,
        "hand": "right"
      },
      {
        "midi": 79,
        "time": 304.166,
        "duration": 0.278,
        "velocity": 1,
        "hand": "right"
      },
      {
        "midi": 59,
        "time": 305,
        "duration": 0.278,
        "velocity": 1,
        "hand": "left"
      },
      {
        "midi": 74,
        "time": 305,
        "duration": 0.278,
        "velocity": 1,
        "hand": "right"
      },
      {
        "midi": 59,
        "time": 305.833,
        "duration": 0.278,
        "velocity": 1,
        "hand": "left"
      },
      {
        "midi": 74,
        "time": 305.833,
        "duration": 0.278,
        "velocity": 1,
        "hand": "right"
      },
      {
        "midi": 78,
        "time": 306.666,
        "duration": 0.278,
        "velocity": 1,
        "hand": "right"
      },
      {
        "midi": 78,
        "time": 307.5,
        "duration": 0.278,
        "velocity": 1,
        "hand": "right"
      },
      {
        "midi": 58,
        "time": 308.333,
        "duration": 0.278,
        "velocity": 1,
        "hand": "left"
      },
      {
        "midi": 73,
        "time": 308.333,
        "duration": 0.278,
        "velocity": 1,
        "hand": "right"
      },
      {
        "midi": 55,
        "time": 309.166,
        "duration": 0.278,
        "velocity": 1,
        "hand": "left"
      },
      {
        "midi": 71,
        "time": 309.166,
        "duration": 0.278,
        "velocity": 1,
        "hand": "right"
      },
      {
        "midi": 54,
        "time": 310.278,
        "duration": 0.278,
        "velocity": 1,
        "hand": "left"
      },
      {
        "midi": 70,
        "time": 310.278,
        "duration": 0.278,
        "velocity": 1,
        "hand": "right"
      },
      {
        "midi": 54,
        "time": 311.111,
        "duration": 0.278,
        "velocity": 1,
        "hand": "left"
      },
      {
        "midi": 62,
        "time": 311.944,
        "duration": 0.278,
        "velocity": 1,
        "hand": "right"
      },
      {
        "midi": 73,
        "time": 311.944,
        "duration": 0.263,
        "velocity": 1,
        "hand": "right"
      },
      {
        "midi": 43,
        "time": 312.778,
        "duration": 0.278,
        "velocity": 1,
        "hand": "left"
      },
      {
        "midi": 58,
        "time": 313.611,
        "duration": 0.278,
        "velocity": 1,
        "hand": "left"
      },
      {
        "midi": 66,
        "time": 313.611,
        "duration": 0.263,
        "velocity": 1,
        "hand": "right"
      },
      {
        "midi": 54,
        "time": 314.444,
        "duration": 0.278,
        "velocity": 1,
        "hand": "left"
      },
      {
        "midi": 62,
        "time": 315.278,
        "duration": 0.278,
        "velocity": 1,
        "hand": "right"
      },
      {
        "midi": 73,
        "time": 315.278,
        "duration": 0.262,
        "velocity": 1,
        "hand": "right"
      },
      {
        "midi": 43,
        "time": 316.111,
        "duration": 0.278,
        "velocity": 1,
        "hand": "left"
      },
      {
        "midi": 58,
        "time": 316.944,
        "duration": 0.278,
        "velocity": 1,
        "hand": "left"
      },
      {
        "midi": 66,
        "time": 316.944,
        "duration": 0.263,
        "velocity": 1,
        "hand": "right"
      },
      {
        "midi": 70,
        "time": 317.778,
        "duration": 0.278,
        "velocity": 1,
        "hand": "right"
      },
      {
        "midi": 73,
        "time": 318.611,
        "duration": 0.278,
        "velocity": 1,
        "hand": "right"
      },
      {
        "midi": 77,
        "time": 319.444,
        "duration": 0.278,
        "velocity": 1,
        "hand": "right"
      },
      {
        "midi": 70,
        "time": 320.278,
        "duration": 0.278,
        "velocity": 1,
        "hand": "right"
      },
      {
        "midi": 82,
        "time": 320.278,
        "duration": 0.278,
        "velocity": 1,
        "hand": "right"
      },
      {
        "midi": 71,
        "time": 321.111,
        "duration": 0.263,
        "velocity": 1,
        "hand": "right"
      },
      {
        "midi": 83,
        "time": 321.111,
        "duration": 0.263,
        "velocity": 1,
        "hand": "right"
      },
      {
        "midi": 71,
        "time": 321.944,
        "duration": 0.263,
        "velocity": 1,
        "hand": "right"
      },
      {
        "midi": 83,
        "time": 321.944,
        "duration": 0.263,
        "velocity": 1,
        "hand": "right"
      },
      {
        "midi": 71,
        "time": 322.778,
        "duration": 0.262,
        "velocity": 1,
        "hand": "right"
      },
      {
        "midi": 82,
        "time": 322.778,
        "duration": 0.278,
        "velocity": 1,
        "hand": "right"
      },
      {
        "midi": 71,
        "time": 323.611,
        "duration": 0.263,
        "velocity": 1,
        "hand": "right"
      },
      {
        "midi": 82,
        "time": 323.611,
        "duration": 0.278,
        "velocity": 1,
        "hand": "right"
      },
      {
        "midi": 83,
        "time": 324.722,
        "duration": 0.278,
        "velocity": 1,
        "hand": "right"
      },
      {
        "midi": 59,
        "time": 325.555,
        "duration": 0.278,
        "velocity": 1,
        "hand": "left"
      },
      {
        "midi": 71,
        "time": 325.555,
        "duration": 0.278,
        "velocity": 1,
        "hand": "right"
      },
      {
        "midi": 42,
        "time": 326.389,
        "duration": 0.278,
        "velocity": 1,
        "hand": "left"
      },
      {
        "midi": 47,
        "time": 326.389,
        "duration": 0.278,
        "velocity": 1,
        "hand": "left"
      },
      {
        "midi": 59,
        "time": 327.222,
        "duration": 0.278,
        "velocity": 1,
        "hand": "left"
      },
      {
        "midi": 71,
        "time": 327.222,
        "duration": 0.278,
        "velocity": 1,
        "hand": "right"
      },
      {
        "midi": 83,
        "time": 328.055,
        "duration": 0.278,
        "velocity": 1,
        "hand": "right"
      },
      {
        "midi": 47,
        "time": 328.889,
        "duration": 1.667,
        "velocity": 1,
        "hand": "left"
      },
      {
        "midi": 59,
        "time": 328.889,
        "duration": 1.667,
        "velocity": 1,
        "hand": "left"
      }
    ],
    "hard": [
      {
        "midi": 62,
        "time": 0,
        "duration": 0.278,
        "velocity": 1,
        "hand": "right"
      },
      {
        "midi": 66,
        "time": 0,
        "duration": 0.278,
        "velocity": 1,
        "hand": "right"
      },
      {
        "midi": 71,
        "time": 0,
        "duration": 0.278,
        "velocity": 1,
        "hand": "right"
      },
      {
        "midi": 61,
        "time": 0.278,
        "duration": 0.278,
        "velocity": 1,
        "hand": "right"
      },
      {
        "midi": 65,
        "time": 0.278,
        "duration": 0.278,
        "velocity": 1,
        "hand": "right"
      },
      {
        "midi": 62,
        "time": 0.555,
        "duration": 0.556,
        "velocity": 1,
        "hand": "right"
      },
      {
        "midi": 66,
        "time": 0.555,
        "duration": 0.556,
        "velocity": 1,
        "hand": "right"
      },
      {
        "midi": 71,
        "time": 0.555,
        "duration": 0.556,
        "velocity": 1,
        "hand": "right"
      },
      {
        "midi": 47,
        "time": 0.833,
        "duration": 0.278,
        "velocity": 1,
        "hand": "left"
      },
      {
        "midi": 61,
        "time": 1.111,
        "duration": 0.278,
        "velocity": 1,
        "hand": "right"
      },
      {
        "midi": 64,
        "time": 1.111,
        "duration": 0.278,
        "velocity": 1,
        "hand": "right"
      },
      {
        "midi": 70,
        "time": 1.111,
        "duration": 0.278,
        "velocity": 1,
        "hand": "right"
      },
      {
        "midi": 47,
        "time": 1.389,
        "duration": 0.278,
        "velocity": 1,
        "hand": "left"
      },
      {
        "midi": 59,
        "time": 1.666,
        "duration": 0.278,
        "velocity": 1,
        "hand": "left"
      },
      {
        "midi": 62,
        "time": 1.666,
        "duration": 0.278,
        "velocity": 1,
        "hand": "right"
      },
      {
        "midi": 67,
        "time": 1.666,
        "duration": 0.278,
        "velocity": 1,
        "hand": "right"
      },
      {
        "midi": 58,
        "time": 1.944,
        "duration": 0.278,
        "velocity": 1,
        "hand": "left"
      },
      {
        "midi": 61,
        "time": 1.944,
        "duration": 0.278,
        "velocity": 1,
        "hand": "right"
      },
      {
        "midi": 59,
        "time": 2.222,
        "duration": 0.556,
        "velocity": 1,
        "hand": "left"
      },
      {
        "midi": 62,
        "time": 2.222,
        "duration": 0.556,
        "velocity": 1,
        "hand": "right"
      },
      {
        "midi": 67,
        "time": 2.222,
        "duration": 0.556,
        "velocity": 1,
        "hand": "right"
      },
      {
        "midi": 47,
        "time": 2.5,
        "duration": 0.278,
        "velocity": 1,
        "hand": "left"
      },
      {
        "midi": 58,
        "time": 2.778,
        "duration": 0.278,
        "velocity": 1,
        "hand": "left"
      },
      {
        "midi": 61,
        "time": 2.778,
        "duration": 0.278,
        "velocity": 1,
        "hand": "right"
      },
      {
        "midi": 66,
        "time": 2.778,
        "duration": 0.278,
        "velocity": 1,
        "hand": "right"
      },
      {
        "midi": 47,
        "time": 3.055,
        "duration": 0.278,
        "velocity": 1,
        "hand": "left"
      },
      {
        "midi": 57,
        "time": 3.333,
        "duration": 0.278,
        "velocity": 1,
        "hand": "left"
      },
      {
        "midi": 60,
        "time": 3.333,
        "duration": 0.278,
        "velocity": 1,
        "hand": "right"
      },
      {
        "midi": 66,
        "time": 3.333,
        "duration": 0.278,
        "velocity": 1,
        "hand": "right"
      },
      {
        "midi": 56,
        "time": 3.611,
        "duration": 0.278,
        "velocity": 1,
        "hand": "left"
      },
      {
        "midi": 59,
        "time": 3.611,
        "duration": 0.278,
        "velocity": 1,
        "hand": "left"
      },
      {
        "midi": 57,
        "time": 3.889,
        "duration": 0.556,
        "velocity": 1,
        "hand": "left"
      },
      {
        "midi": 60,
        "time": 3.889,
        "duration": 0.556,
        "velocity": 1,
        "hand": "right"
      },
      {
        "midi": 66,
        "time": 3.889,
        "duration": 0.556,
        "velocity": 1,
        "hand": "right"
      },
      {
        "midi": 47,
        "time": 4.166,
        "duration": 0.278,
        "velocity": 1,
        "hand": "left"
      },
      {
        "midi": 56,
        "time": 4.444,
        "duration": 0.278,
        "velocity": 1,
        "hand": "left"
      },
      {
        "midi": 59,
        "time": 4.444,
        "duration": 0.278,
        "velocity": 1,
        "hand": "left"
      },
      {
        "midi": 64,
        "time": 4.444,
        "duration": 0.278,
        "velocity": 1,
        "hand": "right"
      },
      {
        "midi": 47,
        "time": 4.722,
        "duration": 0.278,
        "velocity": 1,
        "hand": "left"
      },
      {
        "midi": 55,
        "time": 5,
        "duration": 0.278,
        "velocity": 1,
        "hand": "left"
      },
      {
        "midi": 58,
        "time": 5,
        "duration": 0.278,
        "velocity": 1,
        "hand": "left"
      },
      {
        "midi": 64,
        "time": 5,
        "duration": 0.278,
        "velocity": 1,
        "hand": "right"
      },
      {
        "midi": 47,
        "time": 5.278,
        "duration": 0.278,
        "velocity": 1,
        "hand": "left"
      },
      {
        "midi": 54,
        "time": 5.555,
        "duration": 0.278,
        "velocity": 1,
        "hand": "left"
      },
      {
        "midi": 58,
        "time": 5.555,
        "duration": 0.278,
        "velocity": 1,
        "hand": "left"
      },
      {
        "midi": 62,
        "time": 5.555,
        "duration": 0.278,
        "velocity": 1,
        "hand": "right"
      },
      {
        "midi": 47,
        "time": 5.833,
        "duration": 0.278,
        "velocity": 1,
        "hand": "left"
      },
      {
        "midi": 52,
        "time": 6.111,
        "duration": 0.278,
        "velocity": 1,
        "hand": "left"
      },
      {
        "midi": 58,
        "time": 6.111,
        "duration": 0.278,
        "velocity": 1,
        "hand": "left"
      },
      {
        "midi": 61,
        "time": 6.111,
        "duration": 0.278,
        "velocity": 1,
        "hand": "right"
      },
      {
        "midi": 47,
        "time": 6.389,
        "duration": 0.278,
        "velocity": 1,
        "hand": "left"
      },
      {
        "midi": 50,
        "time": 6.389,
        "duration": 0.278,
        "velocity": 1,
        "hand": "left"
      },
      {
        "midi": 53,
        "time": 6.666,
        "duration": 0.278,
        "velocity": 1,
        "hand": "left"
      },
      {
        "midi": 54,
        "time": 6.944,
        "duration": 0.278,
        "velocity": 1,
        "hand": "left"
      },
      {
        "midi": 55,
        "time": 7.222,
        "duration": 0.833,
        "velocity": 1,
        "hand": "left"
      },
      {
        "midi": 62,
        "time": 7.5,
        "duration": 0.278,
        "velocity": 1,
        "hand": "right"
      },
      {
        "midi": 71,
        "time": 7.5,
        "duration": 0.263,
        "velocity": 1,
        "hand": "right"
      },
      {
        "midi": 74,
        "time": 7.5,
        "duration": 0.263,
        "velocity": 1,
        "hand": "right"
      },
      {
        "midi": 64,
        "time": 7.778,
        "duration": 0.278,
        "velocity": 1,
        "hand": "right"
      },
      {
        "midi": 71,
        "time": 7.778,
        "duration": 0.262,
        "velocity": 1,
        "hand": "right"
      },
      {
        "midi": 74,
        "time": 7.778,
        "duration": 0.262,
        "velocity": 1,
        "hand": "right"
      },
      {
        "midi": 43,
        "time": 8.055,
        "duration": 0.278,
        "velocity": 1,
        "hand": "left"
      },
      {
        "midi": 65,
        "time": 8.055,
        "duration": 0.278,
        "velocity": 1,
        "hand": "right"
      },
      {
        "midi": 71,
        "time": 8.055,
        "duration": 0.278,
        "velocity": 1,
        "hand": "right"
      },
      {
        "midi": 74,
        "time": 8.055,
        "duration": 0.278,
        "velocity": 1,
        "hand": "right"
      },
      {
        "midi": 45,
        "time": 8.333,
        "duration": 0.278,
        "velocity": 1,
        "hand": "left"
      },
      {
        "midi": 43,
        "time": 8.611,
        "duration": 0.278,
        "velocity": 1,
        "hand": "left"
      },
      {
        "midi": 42,
        "time": 8.889,
        "duration": 0.833,
        "velocity": 1,
        "hand": "left"
      },
      {
        "midi": 56,
        "time": 9.166,
        "duration": 0.278,
        "velocity": 1,
        "hand": "left"
      },
      {
        "midi": 59,
        "time": 9.166,
        "duration": 0.278,
        "velocity": 1,
        "hand": "left"
      },
      {
        "midi": 66,
        "time": 9.166,
        "duration": 0.278,
        "velocity": 1,
        "hand": "right"
      },
      {
        "midi": 58,
        "time": 9.444,
        "duration": 0.278,
        "velocity": 1,
        "hand": "left"
      },
      {
        "midi": 61,
        "time": 9.444,
        "duration": 0.278,
        "velocity": 1,
        "hand": "right"
      },
      {
        "midi": 64,
        "time": 9.444,
        "duration": 0.278,
        "velocity": 1,
        "hand": "right"
      },
      {
        "midi": 47,
        "time": 9.722,
        "duration": 0.278,
        "velocity": 1,
        "hand": "left"
      },
      {
        "midi": 59,
        "time": 9.722,
        "duration": 0.278,
        "velocity": 1,
        "hand": "left"
      },
      {
        "midi": 62,
        "time": 9.722,
        "duration": 0.278,
        "velocity": 1,
        "hand": "right"
      },
      {
        "midi": 53,
        "time": 10,
        "duration": 0.278,
        "velocity": 1,
        "hand": "left"
      },
      {
        "midi": 54,
        "time": 10.278,
        "duration": 0.278,
        "velocity": 1,
        "hand": "left"
      },
      {
        "midi": 55,
        "time": 10.555,
        "duration": 0.833,
        "velocity": 1,
        "hand": "left"
      },
      {
        "midi": 62,
        "time": 10.833,
        "duration": 0.278,
        "velocity": 1,
        "hand": "right"
      },
      {
        "midi": 71,
        "time": 10.833,
        "duration": 0.263,
        "velocity": 1,
        "hand": "right"
      },
      {
        "midi": 74,
        "time": 10.833,
        "duration": 0.263,
        "velocity": 1,
        "hand": "right"
      },
      {
        "midi": 64,
        "time": 11.111,
        "duration": 0.278,
        "velocity": 1,
        "hand": "right"
      },
      {
        "midi": 71,
        "time": 11.111,
        "duration": 0.263,
        "velocity": 1,
        "hand": "right"
      },
      {
        "midi": 74,
        "time": 11.111,
        "duration": 0.263,
        "velocity": 1,
        "hand": "right"
      },
      {
        "midi": 43,
        "time": 11.389,
        "duration": 0.278,
        "velocity": 1,
        "hand": "left"
      },
      {
        "midi": 65,
        "time": 11.389,
        "duration": 0.278,
        "velocity": 1,
        "hand": "right"
      },
      {
        "midi": 71,
        "time": 11.389,
        "duration": 0.278,
        "velocity": 1,
        "hand": "right"
      },
      {
        "midi": 74,
        "time": 11.389,
        "duration": 0.278,
        "velocity": 1,
        "hand": "right"
      },
      {
        "midi": 45,
        "time": 11.666,
        "duration": 0.278,
        "velocity": 1,
        "hand": "left"
      },
      {
        "midi": 43,
        "time": 11.944,
        "duration": 0.278,
        "velocity": 1,
        "hand": "left"
      },
      {
        "midi": 42,
        "time": 12.222,
        "duration": 0.833,
        "velocity": 1,
        "hand": "left"
      },
      {
        "midi": 56,
        "time": 12.5,
        "duration": 0.278,
        "velocity": 1,
        "hand": "left"
      },
      {
        "midi": 59,
        "time": 12.5,
        "duration": 0.278,
        "velocity": 1,
        "hand": "left"
      },
      {
        "midi": 66,
        "time": 12.5,
        "duration": 0.278,
        "velocity": 1,
        "hand": "right"
      },
      {
        "midi": 58,
        "time": 12.778,
        "duration": 0.278,
        "velocity": 1,
        "hand": "left"
      },
      {
        "midi": 61,
        "time": 12.778,
        "duration": 0.278,
        "velocity": 1,
        "hand": "right"
      },
      {
        "midi": 64,
        "time": 12.778,
        "duration": 0.278,
        "velocity": 1,
        "hand": "right"
      },
      {
        "midi": 47,
        "time": 13.055,
        "duration": 0.278,
        "velocity": 1,
        "hand": "left"
      },
      {
        "midi": 59,
        "time": 13.055,
        "duration": 0.278,
        "velocity": 1,
        "hand": "left"
      },
      {
        "midi": 62,
        "time": 13.055,
        "duration": 0.263,
        "velocity": 1,
        "hand": "right"
      },
      {
        "midi": 62,
        "time": 13.333,
        "duration": 0.278,
        "velocity": 1,
        "hand": "right"
      },
      {
        "midi": 66,
        "time": 13.333,
        "duration": 0.278,
        "velocity": 1,
        "hand": "right"
      },
      {
        "midi": 71,
        "time": 13.333,
        "duration": 0.278,
        "velocity": 1,
        "hand": "right"
      },
      {
        "midi": 61,
        "time": 13.611,
        "duration": 0.278,
        "velocity": 1,
        "hand": "right"
      },
      {
        "midi": 65,
        "time": 13.611,
        "duration": 0.278,
        "velocity": 1,
        "hand": "right"
      },
      {
        "midi": 62,
        "time": 13.889,
        "duration": 0.556,
        "velocity": 1,
        "hand": "right"
      },
      {
        "midi": 66,
        "time": 13.889,
        "duration": 0.556,
        "velocity": 1,
        "hand": "right"
      },
      {
        "midi": 71,
        "time": 13.889,
        "duration": 0.556,
        "velocity": 1,
        "hand": "right"
      },
      {
        "midi": 47,
        "time": 14.166,
        "duration": 0.278,
        "velocity": 1,
        "hand": "left"
      },
      {
        "midi": 61,
        "time": 14.444,
        "duration": 0.278,
        "velocity": 1,
        "hand": "right"
      },
      {
        "midi": 64,
        "time": 14.444,
        "duration": 0.278,
        "velocity": 1,
        "hand": "right"
      },
      {
        "midi": 70,
        "time": 14.444,
        "duration": 0.278,
        "velocity": 1,
        "hand": "right"
      },
      {
        "midi": 47,
        "time": 14.722,
        "duration": 0.278,
        "velocity": 1,
        "hand": "left"
      },
      {
        "midi": 59,
        "time": 15,
        "duration": 0.278,
        "velocity": 1,
        "hand": "left"
      },
      {
        "midi": 62,
        "time": 15,
        "duration": 0.278,
        "velocity": 1,
        "hand": "right"
      },
      {
        "midi": 67,
        "time": 15,
        "duration": 0.278,
        "velocity": 1,
        "hand": "right"
      },
      {
        "midi": 58,
        "time": 15.278,
        "duration": 0.278,
        "velocity": 1,
        "hand": "left"
      },
      {
        "midi": 61,
        "time": 15.278,
        "duration": 0.278,
        "velocity": 1,
        "hand": "right"
      },
      {
        "midi": 59,
        "time": 15.555,
        "duration": 0.556,
        "velocity": 1,
        "hand": "left"
      },
      {
        "midi": 62,
        "time": 15.555,
        "duration": 0.556,
        "velocity": 1,
        "hand": "right"
      },
      {
        "midi": 67,
        "time": 15.555,
        "duration": 0.556,
        "velocity": 1,
        "hand": "right"
      },
      {
        "midi": 47,
        "time": 15.833,
        "duration": 0.278,
        "velocity": 1,
        "hand": "left"
      },
      {
        "midi": 58,
        "time": 16.111,
        "duration": 0.278,
        "velocity": 1,
        "hand": "left"
      },
      {
        "midi": 61,
        "time": 16.111,
        "duration": 0.278,
        "velocity": 1,
        "hand": "right"
      },
      {
        "midi": 66,
        "time": 16.111,
        "duration": 0.278,
        "velocity": 1,
        "hand": "right"
      },
      {
        "midi": 47,
        "time": 16.389,
        "duration": 0.278,
        "velocity": 1,
        "hand": "left"
      },
      {
        "midi": 57,
        "time": 16.666,
        "duration": 0.278,
        "velocity": 1,
        "hand": "left"
      },
      {
        "midi": 60,
        "time": 16.666,
        "duration": 0.278,
        "velocity": 1,
        "hand": "right"
      },
      {
        "midi": 66,
        "time": 16.666,
        "duration": 0.278,
        "velocity": 1,
        "hand": "right"
      },
      {
        "midi": 56,
        "time": 16.944,
        "duration": 0.278,
        "velocity": 1,
        "hand": "left"
      },
      {
        "midi": 59,
        "time": 16.944,
        "duration": 0.278,
        "velocity": 1,
        "hand": "left"
      },
      {
        "midi": 57,
        "time": 17.222,
        "duration": 0.556,
        "velocity": 1,
        "hand": "left"
      },
      {
        "midi": 60,
        "time": 17.222,
        "duration": 0.556,
        "velocity": 1,
        "hand": "right"
      },
      {
        "midi": 66,
        "time": 17.222,
        "duration": 0.556,
        "velocity": 1,
        "hand": "right"
      },
      {
        "midi": 47,
        "time": 17.5,
        "duration": 0.278,
        "velocity": 1,
        "hand": "left"
      },
      {
        "midi": 56,
        "time": 17.778,
        "duration": 0.278,
        "velocity": 1,
        "hand": "left"
      },
      {
        "midi": 59,
        "time": 17.778,
        "duration": 0.278,
        "velocity": 1,
        "hand": "left"
      },
      {
        "midi": 64,
        "time": 17.778,
        "duration": 0.278,
        "velocity": 1,
        "hand": "right"
      },
      {
        "midi": 47,
        "time": 18.055,
        "duration": 0.278,
        "velocity": 1,
        "hand": "left"
      },
      {
        "midi": 55,
        "time": 18.333,
        "duration": 0.278,
        "velocity": 1,
        "hand": "left"
      },
      {
        "midi": 58,
        "time": 18.333,
        "duration": 0.278,
        "velocity": 1,
        "hand": "left"
      },
      {
        "midi": 64,
        "time": 18.333,
        "duration": 0.278,
        "velocity": 1,
        "hand": "right"
      },
      {
        "midi": 47,
        "time": 18.611,
        "duration": 0.278,
        "velocity": 1,
        "hand": "left"
      },
      {
        "midi": 54,
        "time": 18.889,
        "duration": 0.278,
        "velocity": 1,
        "hand": "left"
      },
      {
        "midi": 58,
        "time": 18.889,
        "duration": 0.278,
        "velocity": 1,
        "hand": "left"
      },
      {
        "midi": 62,
        "time": 18.889,
        "duration": 0.278,
        "velocity": 1,
        "hand": "right"
      },
      {
        "midi": 47,
        "time": 19.166,
        "duration": 0.278,
        "velocity": 1,
        "hand": "left"
      },
      {
        "midi": 52,
        "time": 19.444,
        "duration": 0.278,
        "velocity": 1,
        "hand": "left"
      },
      {
        "midi": 58,
        "time": 19.444,
        "duration": 0.278,
        "velocity": 1,
        "hand": "left"
      },
      {
        "midi": 61,
        "time": 19.444,
        "duration": 0.278,
        "velocity": 1,
        "hand": "right"
      },
      {
        "midi": 47,
        "time": 19.722,
        "duration": 0.278,
        "velocity": 1,
        "hand": "left"
      },
      {
        "midi": 50,
        "time": 19.722,
        "duration": 0.278,
        "velocity": 1,
        "hand": "left"
      },
      {
        "midi": 53,
        "time": 20,
        "duration": 0.278,
        "velocity": 1,
        "hand": "left"
      },
      {
        "midi": 54,
        "time": 20.278,
        "duration": 0.278,
        "velocity": 1,
        "hand": "left"
      },
      {
        "midi": 55,
        "time": 20.555,
        "duration": 0.833,
        "velocity": 1,
        "hand": "left"
      },
      {
        "midi": 62,
        "time": 20.833,
        "duration": 0.278,
        "velocity": 1,
        "hand": "right"
      },
      {
        "midi": 71,
        "time": 20.833,
        "duration": 0.263,
        "velocity": 1,
        "hand": "right"
      },
      {
        "midi": 74,
        "time": 20.833,
        "duration": 0.263,
        "velocity": 1,
        "hand": "right"
      },
      {
        "midi": 64,
        "time": 21.111,
        "duration": 0.278,
        "velocity": 1,
        "hand": "right"
      },
      {
        "midi": 71,
        "time": 21.111,
        "duration": 0.263,
        "velocity": 1,
        "hand": "right"
      },
      {
        "midi": 74,
        "time": 21.111,
        "duration": 0.263,
        "velocity": 1,
        "hand": "right"
      },
      {
        "midi": 43,
        "time": 21.389,
        "duration": 0.278,
        "velocity": 1,
        "hand": "left"
      },
      {
        "midi": 65,
        "time": 21.389,
        "duration": 0.278,
        "velocity": 1,
        "hand": "right"
      },
      {
        "midi": 71,
        "time": 21.389,
        "duration": 0.278,
        "velocity": 1,
        "hand": "right"
      },
      {
        "midi": 74,
        "time": 21.389,
        "duration": 0.278,
        "velocity": 1,
        "hand": "right"
      },
      {
        "midi": 45,
        "time": 21.666,
        "duration": 0.278,
        "velocity": 1,
        "hand": "left"
      },
      {
        "midi": 43,
        "time": 21.944,
        "duration": 0.278,
        "velocity": 1,
        "hand": "left"
      },
      {
        "midi": 42,
        "time": 22.222,
        "duration": 0.833,
        "velocity": 1,
        "hand": "left"
      },
      {
        "midi": 56,
        "time": 22.5,
        "duration": 0.278,
        "velocity": 1,
        "hand": "left"
      },
      {
        "midi": 59,
        "time": 22.5,
        "duration": 0.278,
        "velocity": 1,
        "hand": "left"
      },
      {
        "midi": 66,
        "time": 22.5,
        "duration": 0.278,
        "velocity": 1,
        "hand": "right"
      },
      {
        "midi": 58,
        "time": 22.778,
        "duration": 0.278,
        "velocity": 1,
        "hand": "left"
      },
      {
        "midi": 61,
        "time": 22.778,
        "duration": 0.278,
        "velocity": 1,
        "hand": "right"
      },
      {
        "midi": 64,
        "time": 22.778,
        "duration": 0.278,
        "velocity": 1,
        "hand": "right"
      },
      {
        "midi": 47,
        "time": 23.055,
        "duration": 0.278,
        "velocity": 1,
        "hand": "left"
      },
      {
        "midi": 59,
        "time": 23.055,
        "duration": 0.278,
        "velocity": 1,
        "hand": "left"
      },
      {
        "midi": 62,
        "time": 23.055,
        "duration": 0.278,
        "velocity": 1,
        "hand": "right"
      },
      {
        "midi": 53,
        "time": 23.333,
        "duration": 0.278,
        "velocity": 1,
        "hand": "left"
      },
      {
        "midi": 54,
        "time": 23.611,
        "duration": 0.278,
        "velocity": 1,
        "hand": "left"
      },
      {
        "midi": 55,
        "time": 23.889,
        "duration": 0.818,
        "velocity": 1,
        "hand": "left"
      },
      {
        "midi": 62,
        "time": 24.166,
        "duration": 0.278,
        "velocity": 1,
        "hand": "right"
      },
      {
        "midi": 71,
        "time": 24.166,
        "duration": 0.263,
        "velocity": 1,
        "hand": "right"
      },
      {
        "midi": 74,
        "time": 24.166,
        "duration": 0.263,
        "velocity": 1,
        "hand": "right"
      },
      {
        "midi": 64,
        "time": 24.444,
        "duration": 0.278,
        "velocity": 1,
        "hand": "right"
      },
      {
        "midi": 71,
        "time": 24.444,
        "duration": 0.263,
        "velocity": 1,
        "hand": "right"
      },
      {
        "midi": 74,
        "time": 24.444,
        "duration": 0.263,
        "velocity": 1,
        "hand": "right"
      },
      {
        "midi": 55,
        "time": 24.722,
        "duration": 0.278,
        "velocity": 1,
        "hand": "left"
      },
      {
        "midi": 65,
        "time": 24.722,
        "duration": 0.541,
        "velocity": 1,
        "hand": "right"
      },
      {
        "midi": 71,
        "time": 24.722,
        "duration": 0.541,
        "velocity": 1,
        "hand": "right"
      },
      {
        "midi": 74,
        "time": 24.722,
        "duration": 0.556,
        "velocity": 1,
        "hand": "right"
      },
      {
        "midi": 56,
        "time": 25,
        "duration": 0.556,
        "velocity": 1,
        "hand": "left"
      },
      {
        "midi": 65,
        "time": 25.278,
        "duration": 0.556,
        "velocity": 1,
        "hand": "right"
      },
      {
        "midi": 71,
        "time": 25.278,
        "duration": 0.54,
        "velocity": 1,
        "hand": "right"
      },
      {
        "midi": 73,
        "time": 25.278,
        "duration": 0.54,
        "velocity": 1,
        "hand": "right"
      },
      {
        "midi": 61,
        "time": 25.555,
        "duration": 0.556,
        "velocity": 1,
        "hand": "right"
      },
      {
        "midi": 71,
        "time": 25.833,
        "duration": 0.556,
        "velocity": 1,
        "hand": "right"
      },
      {
        "midi": 73,
        "time": 25.833,
        "duration": 0.541,
        "velocity": 1,
        "hand": "right"
      },
      {
        "midi": 77,
        "time": 25.833,
        "duration": 0.556,
        "velocity": 1,
        "hand": "right"
      },
      {
        "midi": 68,
        "time": 26.111,
        "duration": 0.278,
        "velocity": 1,
        "hand": "right"
      },
      {
        "midi": 66,
        "time": 26.389,
        "duration": 0.278,
        "velocity": 1,
        "hand": "right"
      },
      {
        "midi": 70,
        "time": 26.389,
        "duration": 0.278,
        "velocity": 1,
        "hand": "right"
      },
      {
        "midi": 73,
        "time": 26.389,
        "duration": 0.278,
        "velocity": 1,
        "hand": "right"
      },
      {
        "midi": 78,
        "time": 26.389,
        "duration": 0.262,
        "velocity": 1,
        "hand": "right"
      },
      {
        "midi": 74,
        "time": 26.666,
        "duration": 0.278,
        "velocity": 1,
        "hand": "right"
      },
      {
        "midi": 78,
        "time": 26.666,
        "duration": 0.278,
        "velocity": 1,
        "hand": "right"
      },
      {
        "midi": 83,
        "time": 26.666,
        "duration": 0.278,
        "velocity": 1,
        "hand": "right"
      },
      {
        "midi": 73,
        "time": 26.944,
        "duration": 0.278,
        "velocity": 1,
        "hand": "right"
      },
      {
        "midi": 77,
        "time": 26.944,
        "duration": 0.278,
        "velocity": 1,
        "hand": "right"
      },
      {
        "midi": 74,
        "time": 27.222,
        "duration": 0.556,
        "velocity": 1,
        "hand": "right"
      },
      {
        "midi": 78,
        "time": 27.222,
        "duration": 0.556,
        "velocity": 1,
        "hand": "right"
      },
      {
        "midi": 83,
        "time": 27.222,
        "duration": 0.556,
        "velocity": 1,
        "hand": "right"
      },
      {
        "midi": 66,
        "time": 27.5,
        "duration": 0.278,
        "velocity": 1,
        "hand": "right"
      },
      {
        "midi": 73,
        "time": 27.778,
        "duration": 0.278,
        "velocity": 1,
        "hand": "right"
      },
      {
        "midi": 76,
        "time": 27.778,
        "duration": 0.278,
        "velocity": 1,
        "hand": "right"
      },
      {
        "midi": 82,
        "time": 27.778,
        "duration": 0.278,
        "velocity": 1,
        "hand": "right"
      },
      {
        "midi": 66,
        "time": 28.055,
        "duration": 1.096,
        "velocity": 1,
        "hand": "right"
      },
      {
        "midi": 71,
        "time": 28.333,
        "duration": 0.278,
        "velocity": 1,
        "hand": "right"
      },
      {
        "midi": 74,
        "time": 28.333,
        "duration": 0.278,
        "velocity": 1,
        "hand": "right"
      },
      {
        "midi": 79,
        "time": 28.333,
        "duration": 0.278,
        "velocity": 1,
        "hand": "right"
      },
      {
        "midi": 70,
        "time": 28.611,
        "duration": 0.278,
        "velocity": 1,
        "hand": "right"
      },
      {
        "midi": 73,
        "time": 28.611,
        "duration": 0.278,
        "velocity": 1,
        "hand": "right"
      },
      {
        "midi": 71,
        "time": 28.889,
        "duration": 0.556,
        "velocity": 1,
        "hand": "right"
      },
      {
        "midi": 74,
        "time": 28.889,
        "duration": 0.556,
        "velocity": 1,
        "hand": "right"
      },
      {
        "midi": 79,
        "time": 28.889,
        "duration": 0.556,
        "velocity": 1,
        "hand": "right"
      },
      {
        "midi": 66,
        "time": 29.166,
        "duration": 0.541,
        "velocity": 1,
        "hand": "right"
      },
      {
        "midi": 70,
        "time": 29.444,
        "duration": 0.278,
        "velocity": 1,
        "hand": "right"
      },
      {
        "midi": 73,
        "time": 29.444,
        "duration": 0.278,
        "velocity": 1,
        "hand": "right"
      },
      {
        "midi": 78,
        "time": 29.444,
        "duration": 0.278,
        "velocity": 1,
        "hand": "right"
      },
      {
        "midi": 66,
        "time": 29.722,
        "duration": 0.278,
        "velocity": 1,
        "hand": "right"
      },
      {
        "midi": 64,
        "time": 30,
        "duration": 0.818,
        "velocity": 1,
        "hand": "right"
      },
      {
        "midi": 69,
        "time": 30,
        "duration": 0.833,
        "velocity": 1,
        "hand": "right"
      },
      {
        "midi": 72,
        "time": 30,
        "duration": 0.278,
        "velocity": 1,
        "hand": "right"
      },
      {
        "midi": 78,
        "time": 30,
        "duration": 0.278,
        "velocity": 1,
        "hand": "right"
      },
      {
        "midi": 71,
        "time": 30.278,
        "duration": 0.278,
        "velocity": 1,
        "hand": "right"
      },
      {
        "midi": 72,
        "time": 30.555,
        "duration": 0.263,
        "velocity": 1,
        "hand": "right"
      },
      {
        "midi": 78,
        "time": 30.555,
        "duration": 0.278,
        "velocity": 1,
        "hand": "right"
      },
      {
        "midi": 57,
        "time": 30.833,
        "duration": 0.818,
        "velocity": 1,
        "hand": "left"
      },
      {
        "midi": 64,
        "time": 30.833,
        "duration": 0.818,
        "velocity": 1,
        "hand": "right"
      },
      {
        "midi": 66,
        "time": 30.833,
        "duration": 0.278,
        "velocity": 1,
        "hand": "right"
      },
      {
        "midi": 72,
        "time": 30.833,
        "duration": 0.278,
        "velocity": 1,
        "hand": "right"
      },
      {
        "midi": 65,
        "time": 31.111,
        "duration": 0.278,
        "velocity": 1,
        "hand": "right"
      },
      {
        "midi": 66,
        "time": 31.389,
        "duration": 0.278,
        "velocity": 1,
        "hand": "right"
      },
      {
        "midi": 72,
        "time": 31.389,
        "duration": 0.278,
        "velocity": 1,
        "hand": "right"
      },
      {
        "midi": 54,
        "time": 31.666,
        "duration": 0.833,
        "velocity": 1,
        "hand": "left"
      },
      {
        "midi": 57,
        "time": 31.666,
        "duration": 0.833,
        "velocity": 1,
        "hand": "left"
      },
      {
        "midi": 60,
        "time": 31.666,
        "duration": 0.278,
        "velocity": 1,
        "hand": "right"
      },
      {
        "midi": 64,
        "time": 31.666,
        "duration": 0.278,
        "velocity": 1,
        "hand": "right"
      },
      {
        "midi": 59,
        "time": 31.944,
        "duration": 0.278,
        "velocity": 1,
        "hand": "left"
      },
      {
        "midi": 60,
        "time": 32.222,
        "duration": 0.278,
        "velocity": 1,
        "hand": "right"
      },
      {
        "midi": 64,
        "time": 32.222,
        "duration": 0.278,
        "velocity": 1,
        "hand": "right"
      },
      {
        "midi": 48,
        "time": 32.5,
        "duration": 0.278,
        "velocity": 1,
        "hand": "left"
      },
      {
        "midi": 47,
        "time": 32.778,
        "duration": 0.278,
        "velocity": 1,
        "hand": "left"
      },
      {
        "midi": 54,
        "time": 32.778,
        "duration": 0.278,
        "velocity": 1,
        "hand": "left"
      },
      {
        "midi": 63,
        "time": 32.778,
        "duration": 0.278,
        "velocity": 1,
        "hand": "right"
      },
      {
        "midi": 52,
        "time": 33.055,
        "duration": 0.278,
        "velocity": 1,
        "hand": "left"
      },
      {
        "midi": 55,
        "time": 33.055,
        "duration": 0.278,
        "velocity": 1,
        "hand": "left"
      },
      {
        "midi": 64,
        "time": 33.055,
        "duration": 0.278,
        "velocity": 1,
        "hand": "right"
      },
      {
        "midi": 76,
        "time": 33.333,
        "duration": 0.278,
        "velocity": 1,
        "hand": "right"
      },
      {
        "midi": 79,
        "time": 33.333,
        "duration": 0.278,
        "velocity": 1,
        "hand": "right"
      },
      {
        "midi": 83,
        "time": 33.333,
        "duration": 0.278,
        "velocity": 1,
        "hand": "right"
      },
      {
        "midi": 78,
        "time": 33.611,
        "duration": 0.278,
        "velocity": 1,
        "hand": "right"
      },
      {
        "midi": 82,
        "time": 33.611,
        "duration": 0.278,
        "velocity": 1,
        "hand": "right"
      },
      {
        "midi": 76,
        "time": 33.889,
        "duration": 0.556,
        "velocity": 1,
        "hand": "right"
      },
      {
        "midi": 79,
        "time": 33.889,
        "duration": 0.556,
        "velocity": 1,
        "hand": "right"
      },
      {
        "midi": 83,
        "time": 33.889,
        "duration": 0.556,
        "velocity": 1,
        "hand": "right"
      },
      {
        "midi": 71,
        "time": 34.166,
        "duration": 0.278,
        "velocity": 1,
        "hand": "right"
      },
      {
        "midi": 75,
        "time": 34.444,
        "duration": 0.278,
        "velocity": 1,
        "hand": "right"
      },
      {
        "midi": 78,
        "time": 34.444,
        "duration": 0.278,
        "velocity": 1,
        "hand": "right"
      },
      {
        "midi": 81,
        "time": 34.444,
        "duration": 0.278,
        "velocity": 1,
        "hand": "right"
      },
      {
        "midi": 71,
        "time": 34.722,
        "duration": 1.096,
        "velocity": 1,
        "hand": "right"
      },
      {
        "midi": 76,
        "time": 35,
        "duration": 0.278,
        "velocity": 1,
        "hand": "right"
      },
      {
        "midi": 79,
        "time": 35,
        "duration": 0.278,
        "velocity": 1,
        "hand": "right"
      },
      {
        "midi": 84,
        "time": 35,
        "duration": 0.278,
        "velocity": 1,
        "hand": "right"
      },
      {
        "midi": 75,
        "time": 35.278,
        "duration": 0.278,
        "velocity": 1,
        "hand": "right"
      },
      {
        "midi": 78,
        "time": 35.278,
        "duration": 0.278,
        "velocity": 1,
        "hand": "right"
      },
      {
        "midi": 76,
        "time": 35.555,
        "duration": 0.556,
        "velocity": 1,
        "hand": "right"
      },
      {
        "midi": 79,
        "time": 35.555,
        "duration": 0.556,
        "velocity": 1,
        "hand": "right"
      },
      {
        "midi": 84,
        "time": 35.555,
        "duration": 0.556,
        "velocity": 1,
        "hand": "right"
      },
      {
        "midi": 71,
        "time": 35.833,
        "duration": 0.541,
        "velocity": 1,
        "hand": "right"
      },
      {
        "midi": 75,
        "time": 36.111,
        "duration": 0.278,
        "velocity": 1,
        "hand": "right"
      },
      {
        "midi": 78,
        "time": 36.111,
        "duration": 0.278,
        "velocity": 1,
        "hand": "right"
      },
      {
        "midi": 83,
        "time": 36.111,
        "duration": 0.278,
        "velocity": 1,
        "hand": "right"
      },
      {
        "midi": 71,
        "time": 36.389,
        "duration": 0.278,
        "velocity": 1,
        "hand": "right"
      },
      {
        "midi": 69,
        "time": 36.666,
        "duration": 0.819,
        "velocity": 1,
        "hand": "right"
      },
      {
        "midi": 74,
        "time": 36.666,
        "duration": 0.833,
        "velocity": 1,
        "hand": "right"
      },
      {
        "midi": 77,
        "time": 36.666,
        "duration": 0.278,
        "velocity": 1,
        "hand": "right"
      },
      {
        "midi": 83,
        "time": 36.666,
        "duration": 0.278,
        "velocity": 1,
        "hand": "right"
      },
      {
        "midi": 76,
        "time": 36.944,
        "duration": 0.278,
        "velocity": 1,
        "hand": "right"
      },
      {
        "midi": 77,
        "time": 37.222,
        "duration": 0.263,
        "velocity": 1,
        "hand": "right"
      },
      {
        "midi": 83,
        "time": 37.222,
        "duration": 0.278,
        "velocity": 1,
        "hand": "right"
      },
      {
        "midi": 62,
        "time": 37.5,
        "duration": 0.818,
        "velocity": 1,
        "hand": "right"
      },
      {
        "midi": 69,
        "time": 37.5,
        "duration": 0.833,
        "velocity": 1,
        "hand": "right"
      },
      {
        "midi": 71,
        "time": 37.5,
        "duration": 0.278,
        "velocity": 1,
        "hand": "right"
      },
      {
        "midi": 77,
        "time": 37.5,
        "duration": 0.278,
        "velocity": 1,
        "hand": "right"
      },
      {
        "midi": 70,
        "time": 37.778,
        "duration": 0.278,
        "velocity": 1,
        "hand": "right"
      },
      {
        "midi": 71,
        "time": 38.055,
        "duration": 0.278,
        "velocity": 1,
        "hand": "right"
      },
      {
        "midi": 77,
        "time": 38.055,
        "duration": 0.278,
        "velocity": 1,
        "hand": "right"
      },
      {
        "midi": 59,
        "time": 38.333,
        "duration": 0.833,
        "velocity": 1,
        "hand": "left"
      },
      {
        "midi": 62,
        "time": 38.333,
        "duration": 0.833,
        "velocity": 1,
        "hand": "right"
      },
      {
        "midi": 65,
        "time": 38.333,
        "duration": 0.278,
        "velocity": 1,
        "hand": "right"
      },
      {
        "midi": 70,
        "time": 38.333,
        "duration": 0.278,
        "velocity": 1,
        "hand": "right"
      },
      {
        "midi": 64,
        "time": 38.611,
        "duration": 0.278,
        "velocity": 1,
        "hand": "right"
      },
      {
        "midi": 65,
        "time": 38.889,
        "duration": 0.278,
        "velocity": 1,
        "hand": "right"
      },
      {
        "midi": 70,
        "time": 38.889,
        "duration": 0.278,
        "velocity": 1,
        "hand": "right"
      },
      {
        "midi": 53,
        "time": 39.166,
        "duration": 0.278,
        "velocity": 1,
        "hand": "left"
      },
      {
        "midi": 52,
        "time": 39.444,
        "duration": 0.278,
        "velocity": 1,
        "hand": "left"
      },
      {
        "midi": 59,
        "time": 39.444,
        "duration": 0.278,
        "velocity": 1,
        "hand": "left"
      },
      {
        "midi": 62,
        "time": 39.444,
        "duration": 0.278,
        "velocity": 1,
        "hand": "right"
      },
      {
        "midi": 68,
        "time": 39.444,
        "duration": 0.278,
        "velocity": 1,
        "hand": "right"
      },
      {
        "midi": 45,
        "time": 39.722,
        "duration": 0.278,
        "velocity": 1,
        "hand": "left"
      },
      {
        "midi": 60,
        "time": 39.722,
        "duration": 0.263,
        "velocity": 1,
        "hand": "right"
      },
      {
        "midi": 69,
        "time": 39.722,
        "duration": 0.263,
        "velocity": 1,
        "hand": "right"
      },
      {
        "midi": 53,
        "time": 40,
        "duration": 0.278,
        "velocity": 1,
        "hand": "left"
      },
      {
        "midi": 60,
        "time": 40,
        "duration": 0.556,
        "velocity": 1,
        "hand": "right"
      },
      {
        "midi": 69,
        "time": 40,
        "duration": 0.556,
        "velocity": 1,
        "hand": "right"
      },
      {
        "midi": 52,
        "time": 40.278,
        "duration": 0.278,
        "velocity": 1,
        "hand": "left"
      },
      {
        "midi": 45,
        "time": 40.555,
        "duration": 0.278,
        "velocity": 1,
        "hand": "left"
      },
      {
        "midi": 62,
        "time": 40.555,
        "duration": 0.556,
        "velocity": 1,
        "hand": "right"
      },
      {
        "midi": 68,
        "time": 40.555,
        "duration": 0.556,
        "velocity": 1,
        "hand": "right"
      },
      {
        "midi": 71,
        "time": 40.555,
        "duration": 0.556,
        "velocity": 1,
        "hand": "right"
      },
      {
        "midi": 53,
        "time": 40.833,
        "duration": 0.278,
        "velocity": 1,
        "hand": "left"
      },
      {
        "midi": 52,
        "time": 41.111,
        "duration": 0.278,
        "velocity": 1,
        "hand": "left"
      },
      {
        "midi": 60,
        "time": 41.111,
        "duration": 0.278,
        "velocity": 1,
        "hand": "right"
      },
      {
        "midi": 69,
        "time": 41.111,
        "duration": 0.278,
        "velocity": 1,
        "hand": "right"
      },
      {
        "midi": 72,
        "time": 41.111,
        "duration": 0.278,
        "velocity": 1,
        "hand": "right"
      },
      {
        "midi": 45,
        "time": 41.389,
        "duration": 0.278,
        "velocity": 1,
        "hand": "left"
      },
      {
        "midi": 53,
        "time": 41.666,
        "duration": 0.278,
        "velocity": 1,
        "hand": "left"
      },
      {
        "midi": 60,
        "time": 41.666,
        "duration": 0.556,
        "velocity": 1,
        "hand": "right"
      },
      {
        "midi": 69,
        "time": 41.666,
        "duration": 0.556,
        "velocity": 1,
        "hand": "right"
      },
      {
        "midi": 52,
        "time": 41.944,
        "duration": 0.278,
        "velocity": 1,
        "hand": "left"
      },
      {
        "midi": 45,
        "time": 42.222,
        "duration": 0.278,
        "velocity": 1,
        "hand": "left"
      },
      {
        "midi": 59,
        "time": 42.222,
        "duration": 0.556,
        "velocity": 1,
        "hand": "left"
      },
      {
        "midi": 62,
        "time": 42.222,
        "duration": 0.556,
        "velocity": 1,
        "hand": "right"
      },
      {
        "midi": 68,
        "time": 42.222,
        "duration": 0.556,
        "velocity": 1,
        "hand": "right"
      },
      {
        "midi": 53,
        "time": 42.5,
        "duration": 0.278,
        "velocity": 1,
        "hand": "left"
      },
      {
        "midi": 52,
        "time": 42.778,
        "duration": 0.278,
        "velocity": 1,
        "hand": "left"
      },
      {
        "midi": 57,
        "time": 42.778,
        "duration": 0.278,
        "velocity": 1,
        "hand": "left"
      },
      {
        "midi": 60,
        "time": 42.778,
        "duration": 0.278,
        "velocity": 1,
        "hand": "right"
      },
      {
        "midi": 69,
        "time": 42.778,
        "duration": 0.278,
        "velocity": 1,
        "hand": "right"
      },
      {
        "midi": 45,
        "time": 43.055,
        "duration": 0.278,
        "velocity": 1,
        "hand": "left"
      },
      {
        "midi": 57,
        "time": 43.333,
        "duration": 0.278,
        "velocity": 1,
        "hand": "left"
      },
      {
        "midi": 64,
        "time": 43.333,
        "duration": 0.556,
        "velocity": 1,
        "hand": "right"
      },
      {
        "midi": 72,
        "time": 43.333,
        "duration": 0.556,
        "velocity": 1,
        "hand": "right"
      },
      {
        "midi": 56,
        "time": 43.611,
        "duration": 0.278,
        "velocity": 1,
        "hand": "left"
      },
      {
        "midi": 48,
        "time": 43.889,
        "duration": 0.278,
        "velocity": 1,
        "hand": "left"
      },
      {
        "midi": 65,
        "time": 43.889,
        "duration": 0.556,
        "velocity": 1,
        "hand": "right"
      },
      {
        "midi": 71,
        "time": 43.889,
        "duration": 0.556,
        "velocity": 1,
        "hand": "right"
      },
      {
        "midi": 74,
        "time": 43.889,
        "duration": 0.556,
        "velocity": 1,
        "hand": "right"
      },
      {
        "midi": 57,
        "time": 44.166,
        "duration": 0.278,
        "velocity": 1,
        "hand": "left"
      },
      {
        "midi": 56,
        "time": 44.444,
        "duration": 0.278,
        "velocity": 1,
        "hand": "left"
      },
      {
        "midi": 64,
        "time": 44.444,
        "duration": 0.278,
        "velocity": 1,
        "hand": "right"
      },
      {
        "midi": 72,
        "time": 44.444,
        "duration": 0.278,
        "velocity": 1,
        "hand": "right"
      },
      {
        "midi": 76,
        "time": 44.444,
        "duration": 0.278,
        "velocity": 1,
        "hand": "right"
      },
      {
        "midi": 48,
        "time": 44.722,
        "duration": 0.278,
        "velocity": 1,
        "hand": "left"
      },
      {
        "midi": 57,
        "time": 45,
        "duration": 0.278,
        "velocity": 1,
        "hand": "left"
      },
      {
        "midi": 64,
        "time": 45,
        "duration": 0.556,
        "velocity": 1,
        "hand": "right"
      },
      {
        "midi": 72,
        "time": 45,
        "duration": 0.556,
        "velocity": 1,
        "hand": "right"
      },
      {
        "midi": 56,
        "time": 45.278,
        "duration": 0.278,
        "velocity": 1,
        "hand": "left"
      },
      {
        "midi": 48,
        "time": 45.555,
        "duration": 0.278,
        "velocity": 1,
        "hand": "left"
      },
      {
        "midi": 62,
        "time": 45.555,
        "duration": 0.556,
        "velocity": 1,
        "hand": "right"
      },
      {
        "midi": 65,
        "time": 45.555,
        "duration": 0.556,
        "velocity": 1,
        "hand": "right"
      },
      {
        "midi": 71,
        "time": 45.555,
        "duration": 0.556,
        "velocity": 1,
        "hand": "right"
      },
      {
        "midi": 57,
        "time": 45.833,
        "duration": 0.278,
        "velocity": 1,
        "hand": "left"
      },
      {
        "midi": 56,
        "time": 46.111,
        "duration": 0.278,
        "velocity": 1,
        "hand": "left"
      },
      {
        "midi": 60,
        "time": 46.111,
        "duration": 0.278,
        "velocity": 1,
        "hand": "right"
      },
      {
        "midi": 64,
        "time": 46.111,
        "duration": 0.278,
        "velocity": 1,
        "hand": "right"
      },
      {
        "midi": 72,
        "time": 46.111,
        "duration": 0.278,
        "velocity": 1,
        "hand": "right"
      },
      {
        "midi": 48,
        "time": 46.389,
        "duration": 0.278,
        "velocity": 1,
        "hand": "left"
      },
      {
        "midi": 60,
        "time": 46.666,
        "duration": 0.278,
        "velocity": 1,
        "hand": "right"
      },
      {
        "midi": 67,
        "time": 46.666,
        "duration": 0.556,
        "velocity": 1,
        "hand": "right"
      },
      {
        "midi": 76,
        "time": 46.666,
        "duration": 0.556,
        "velocity": 1,
        "hand": "right"
      },
      {
        "midi": 59,
        "time": 46.944,
        "duration": 0.278,
        "velocity": 1,
        "hand": "left"
      },
      {
        "midi": 52,
        "time": 47.222,
        "duration": 0.278,
        "velocity": 1,
        "hand": "left"
      },
      {
        "midi": 69,
        "time": 47.222,
        "duration": 0.556,
        "velocity": 1,
        "hand": "right"
      },
      {
        "midi": 75,
        "time": 47.222,
        "duration": 0.556,
        "velocity": 1,
        "hand": "right"
      },
      {
        "midi": 78,
        "time": 47.222,
        "duration": 0.556,
        "velocity": 1,
        "hand": "right"
      },
      {
        "midi": 60,
        "time": 47.5,
        "duration": 0.278,
        "velocity": 1,
        "hand": "right"
      },
      {
        "midi": 59,
        "time": 47.778,
        "duration": 0.278,
        "velocity": 1,
        "hand": "left"
      },
      {
        "midi": 67,
        "time": 47.778,
        "duration": 0.278,
        "velocity": 1,
        "hand": "right"
      },
      {
        "midi": 76,
        "time": 47.778,
        "duration": 0.278,
        "velocity": 1,
        "hand": "right"
      },
      {
        "midi": 79,
        "time": 47.778,
        "duration": 0.278,
        "velocity": 1,
        "hand": "right"
      },
      {
        "midi": 52,
        "time": 48.055,
        "duration": 0.278,
        "velocity": 1,
        "hand": "left"
      },
      {
        "midi": 64,
        "time": 48.333,
        "duration": 0.278,
        "velocity": 1,
        "hand": "right"
      },
      {
        "midi": 71,
        "time": 48.333,
        "duration": 0.556,
        "velocity": 1,
        "hand": "right"
      },
      {
        "midi": 79,
        "time": 48.333,
        "duration": 0.556,
        "velocity": 1,
        "hand": "right"
      },
      {
        "midi": 63,
        "time": 48.611,
        "duration": 0.278,
        "velocity": 1,
        "hand": "right"
      },
      {
        "midi": 55,
        "time": 48.889,
        "duration": 0.278,
        "velocity": 1,
        "hand": "left"
      },
      {
        "midi": 72,
        "time": 48.889,
        "duration": 0.556,
        "velocity": 1,
        "hand": "right"
      },
      {
        "midi": 78,
        "time": 48.889,
        "duration": 0.556,
        "velocity": 1,
        "hand": "right"
      },
      {
        "midi": 81,
        "time": 48.889,
        "duration": 0.556,
        "velocity": 1,
        "hand": "right"
      },
      {
        "midi": 64,
        "time": 49.166,
        "duration": 0.278,
        "velocity": 1,
        "hand": "right"
      },
      {
        "midi": 63,
        "time": 49.444,
        "duration": 0.278,
        "velocity": 1,
        "hand": "right"
      },
      {
        "midi": 71,
        "time": 49.444,
        "duration": 0.278,
        "velocity": 1,
        "hand": "right"
      },
      {
        "midi": 79,
        "time": 49.444,
        "duration": 0.278,
        "velocity": 1,
        "hand": "right"
      },
      {
        "midi": 83,
        "time": 49.444,
        "duration": 0.278,
        "velocity": 1,
        "hand": "right"
      },
      {
        "midi": 55,
        "time": 49.722,
        "duration": 0.278,
        "velocity": 1,
        "hand": "left"
      },
      {
        "midi": 67,
        "time": 50,
        "duration": 0.278,
        "velocity": 1,
        "hand": "right"
      },
      {
        "midi": 74,
        "time": 50,
        "duration": 0.556,
        "velocity": 1,
        "hand": "right"
      },
      {
        "midi": 83,
        "time": 50,
        "duration": 0.556,
        "velocity": 1,
        "hand": "right"
      },
      {
        "midi": 66,
        "time": 50.278,
        "duration": 0.278,
        "velocity": 1,
        "hand": "right"
      },
      {
        "midi": 59,
        "time": 50.555,
        "duration": 0.278,
        "velocity": 1,
        "hand": "left"
      },
      {
        "midi": 73,
        "time": 50.555,
        "duration": 0.556,
        "velocity": 1,
        "hand": "right"
      },
      {
        "midi": 76,
        "time": 50.555,
        "duration": 0.556,
        "velocity": 1,
        "hand": "right"
      },
      {
        "midi": 82,
        "time": 50.555,
        "duration": 0.556,
        "velocity": 1,
        "hand": "right"
      },
      {
        "midi": 67,
        "time": 50.833,
        "duration": 0.278,
        "velocity": 1,
        "hand": "right"
      },
      {
        "midi": 66,
        "time": 51.111,
        "duration": 0.278,
        "velocity": 1,
        "hand": "right"
      },
      {
        "midi": 74,
        "time": 51.111,
        "duration": 0.278,
        "velocity": 1,
        "hand": "right"
      },
      {
        "midi": 83,
        "time": 51.111,
        "duration": 0.278,
        "velocity": 1,
        "hand": "right"
      },
      {
        "midi": 59,
        "time": 51.389,
        "duration": 0.278,
        "velocity": 1,
        "hand": "left"
      },
      {
        "midi": 71,
        "time": 51.666,
        "duration": 0.278,
        "velocity": 1,
        "hand": "right"
      },
      {
        "midi": 74,
        "time": 51.666,
        "duration": 0.556,
        "velocity": 1,
        "hand": "right"
      },
      {
        "midi": 78,
        "time": 51.666,
        "duration": 0.556,
        "velocity": 1,
        "hand": "right"
      },
      {
        "midi": 70,
        "time": 51.944,
        "duration": 0.278,
        "velocity": 1,
        "hand": "right"
      },
      {
        "midi": 62,
        "time": 52.222,
        "duration": 0.278,
        "velocity": 1,
        "hand": "right"
      },
      {
        "midi": 73,
        "time": 52.222,
        "duration": 0.556,
        "velocity": 1,
        "hand": "right"
      },
      {
        "midi": 76,
        "time": 52.222,
        "duration": 0.556,
        "velocity": 1,
        "hand": "right"
      },
      {
        "midi": 79,
        "time": 52.222,
        "duration": 0.556,
        "velocity": 1,
        "hand": "right"
      },
      {
        "midi": 71,
        "time": 52.5,
        "duration": 0.278,
        "velocity": 1,
        "hand": "right"
      },
      {
        "midi": 70,
        "time": 52.778,
        "duration": 0.278,
        "velocity": 1,
        "hand": "right"
      },
      {
        "midi": 74,
        "time": 52.778,
        "duration": 0.278,
        "velocity": 1,
        "hand": "right"
      },
      {
        "midi": 78,
        "time": 52.778,
        "duration": 0.278,
        "velocity": 1,
        "hand": "right"
      },
      {
        "midi": 62,
        "time": 53.055,
        "duration": 0.278,
        "velocity": 1,
        "hand": "right"
      },
      {
        "midi": 70,
        "time": 53.333,
        "duration": 0.278,
        "velocity": 1,
        "hand": "right"
      },
      {
        "midi": 74,
        "time": 53.333,
        "duration": 0.541,
        "velocity": 1,
        "hand": "right"
      },
      {
        "midi": 78,
        "time": 53.333,
        "duration": 0.541,
        "velocity": 1,
        "hand": "right"
      },
      {
        "midi": 62,
        "time": 53.611,
        "duration": 0.278,
        "velocity": 1,
        "hand": "right"
      },
      {
        "midi": 70,
        "time": 53.889,
        "duration": 0.278,
        "velocity": 1,
        "hand": "right"
      },
      {
        "midi": 74,
        "time": 53.889,
        "duration": 0.54,
        "velocity": 1,
        "hand": "right"
      },
      {
        "midi": 78,
        "time": 53.889,
        "duration": 0.54,
        "velocity": 1,
        "hand": "right"
      },
      {
        "midi": 62,
        "time": 54.166,
        "duration": 0.278,
        "velocity": 1,
        "hand": "right"
      },
      {
        "midi": 70,
        "time": 54.444,
        "duration": 0.278,
        "velocity": 1,
        "hand": "right"
      },
      {
        "midi": 74,
        "time": 54.444,
        "duration": 0.556,
        "velocity": 1,
        "hand": "right"
      },
      {
        "midi": 78,
        "time": 54.444,
        "duration": 0.541,
        "velocity": 1,
        "hand": "right"
      },
      {
        "midi": 62,
        "time": 54.722,
        "duration": 0.278,
        "velocity": 1,
        "hand": "right"
      },
      {
        "midi": 70,
        "time": 55,
        "duration": 0.278,
        "velocity": 1,
        "hand": "right"
      },
      {
        "midi": 76,
        "time": 55,
        "duration": 0.54,
        "velocity": 1,
        "hand": "right"
      },
      {
        "midi": 78,
        "time": 55,
        "duration": 0.54,
        "velocity": 1,
        "hand": "right"
      },
      {
        "midi": 61,
        "time": 55.278,
        "duration": 0.278,
        "velocity": 1,
        "hand": "right"
      },
      {
        "midi": 70,
        "time": 55.555,
        "duration": 0.278,
        "velocity": 1,
        "hand": "right"
      },
      {
        "midi": 76,
        "time": 55.555,
        "duration": 0.541,
        "velocity": 1,
        "hand": "right"
      },
      {
        "midi": 78,
        "time": 55.555,
        "duration": 0.541,
        "velocity": 1,
        "hand": "right"
      },
      {
        "midi": 61,
        "time": 55.833,
        "duration": 0.278,
        "velocity": 1,
        "hand": "right"
      },
      {
        "midi": 70,
        "time": 56.111,
        "duration": 0.278,
        "velocity": 1,
        "hand": "right"
      },
      {
        "midi": 76,
        "time": 56.111,
        "duration": 0.54,
        "velocity": 1,
        "hand": "right"
      },
      {
        "midi": 78,
        "time": 56.111,
        "duration": 0.54,
        "velocity": 1,
        "hand": "right"
      },
      {
        "midi": 61,
        "time": 56.389,
        "duration": 0.262,
        "velocity": 1,
        "hand": "right"
      },
      {
        "midi": 61,
        "time": 56.666,
        "duration": 0.278,
        "velocity": 1,
        "hand": "right"
      },
      {
        "midi": 70,
        "time": 56.666,
        "duration": 0.541,
        "velocity": 1,
        "hand": "right"
      },
      {
        "midi": 76,
        "time": 56.666,
        "duration": 0.541,
        "velocity": 1,
        "hand": "right"
      },
      {
        "midi": 78,
        "time": 56.666,
        "duration": 0.541,
        "velocity": 1,
        "hand": "right"
      },
      {
        "midi": 54,
        "time": 56.944,
        "duration": 0.278,
        "velocity": 1,
        "hand": "left"
      },
      {
        "midi": 61,
        "time": 57.222,
        "duration": 0.278,
        "velocity": 1,
        "hand": "right"
      },
      {
        "midi": 70,
        "time": 57.222,
        "duration": 0.541,
        "velocity": 1,
        "hand": "right"
      },
      {
        "midi": 76,
        "time": 57.222,
        "duration": 0.541,
        "velocity": 1,
        "hand": "right"
      },
      {
        "midi": 78,
        "time": 57.222,
        "duration": 0.541,
        "velocity": 1,
        "hand": "right"
      },
      {
        "midi": 54,
        "time": 57.5,
        "duration": 0.278,
        "velocity": 1,
        "hand": "left"
      },
      {
        "midi": 61,
        "time": 57.778,
        "duration": 0.278,
        "velocity": 1,
        "hand": "right"
      },
      {
        "midi": 70,
        "time": 57.778,
        "duration": 0.556,
        "velocity": 1,
        "hand": "right"
      },
      {
        "midi": 76,
        "time": 57.778,
        "duration": 0.556,
        "velocity": 1,
        "hand": "right"
      },
      {
        "midi": 78,
        "time": 57.778,
        "duration": 0.556,
        "velocity": 1,
        "hand": "right"
      },
      {
        "midi": 54,
        "time": 58.055,
        "duration": 0.278,
        "velocity": 1,
        "hand": "left"
      },
      {
        "midi": 49,
        "time": 58.333,
        "duration": 0.278,
        "velocity": 1,
        "hand": "left"
      },
      {
        "midi": 58,
        "time": 58.333,
        "duration": 0.541,
        "velocity": 1,
        "hand": "left"
      },
      {
        "midi": 64,
        "time": 58.333,
        "duration": 0.541,
        "velocity": 1,
        "hand": "right"
      },
      {
        "midi": 66,
        "time": 58.333,
        "duration": 0.541,
        "velocity": 1,
        "hand": "right"
      },
      {
        "midi": 42,
        "time": 58.611,
        "duration": 0.278,
        "velocity": 1,
        "hand": "left"
      },
      {
        "midi": 49,
        "time": 58.889,
        "duration": 0.278,
        "velocity": 1,
        "hand": "left"
      },
      {
        "midi": 58,
        "time": 58.889,
        "duration": 0.54,
        "velocity": 1,
        "hand": "left"
      },
      {
        "midi": 64,
        "time": 58.889,
        "duration": 0.54,
        "velocity": 1,
        "hand": "right"
      },
      {
        "midi": 66,
        "time": 58.889,
        "duration": 0.54,
        "velocity": 1,
        "hand": "right"
      },
      {
        "midi": 42,
        "time": 59.166,
        "duration": 0.278,
        "velocity": 1,
        "hand": "left"
      },
      {
        "midi": 49,
        "time": 59.444,
        "duration": 0.278,
        "velocity": 1,
        "hand": "left"
      },
      {
        "midi": 58,
        "time": 59.444,
        "duration": 0.556,
        "velocity": 1,
        "hand": "left"
      },
      {
        "midi": 64,
        "time": 59.444,
        "duration": 0.556,
        "velocity": 1,
        "hand": "right"
      },
      {
        "midi": 66,
        "time": 59.444,
        "duration": 0.541,
        "velocity": 1,
        "hand": "right"
      },
      {
        "midi": 42,
        "time": 59.722,
        "duration": 0.278,
        "velocity": 1,
        "hand": "left"
      },
      {
        "midi": 62,
        "time": 60,
        "duration": 0.278,
        "velocity": 1,
        "hand": "right"
      },
      {
        "midi": 66,
        "time": 60,
        "duration": 0.278,
        "velocity": 1,
        "hand": "right"
      },
      {
        "midi": 71,
        "time": 60,
        "duration": 0.278,
        "velocity": 1,
        "hand": "right"
      },
      {
        "midi": 61,
        "time": 60.278,
        "duration": 0.278,
        "velocity": 1,
        "hand": "right"
      },
      {
        "midi": 65,
        "time": 60.278,
        "duration": 0.278,
        "velocity": 1,
        "hand": "right"
      },
      {
        "midi": 62,
        "time": 60.555,
        "duration": 0.556,
        "velocity": 1,
        "hand": "right"
      },
      {
        "midi": 66,
        "time": 60.555,
        "duration": 0.556,
        "velocity": 1,
        "hand": "right"
      },
      {
        "midi": 71,
        "time": 60.555,
        "duration": 0.556,
        "velocity": 1,
        "hand": "right"
      },
      {
        "midi": 47,
        "time": 60.833,
        "duration": 0.278,
        "velocity": 1,
        "hand": "left"
      },
      {
        "midi": 61,
        "time": 61.111,
        "duration": 0.278,
        "velocity": 1,
        "hand": "right"
      },
      {
        "midi": 64,
        "time": 61.111,
        "duration": 0.278,
        "velocity": 1,
        "hand": "right"
      },
      {
        "midi": 70,
        "time": 61.111,
        "duration": 0.278,
        "velocity": 1,
        "hand": "right"
      },
      {
        "midi": 47,
        "time": 61.389,
        "duration": 0.278,
        "velocity": 1,
        "hand": "left"
      },
      {
        "midi": 59,
        "time": 61.666,
        "duration": 0.278,
        "velocity": 1,
        "hand": "left"
      },
      {
        "midi": 62,
        "time": 61.666,
        "duration": 0.278,
        "velocity": 1,
        "hand": "right"
      },
      {
        "midi": 67,
        "time": 61.666,
        "duration": 0.278,
        "velocity": 1,
        "hand": "right"
      },
      {
        "midi": 58,
        "time": 61.944,
        "duration": 0.278,
        "velocity": 1,
        "hand": "left"
      },
      {
        "midi": 61,
        "time": 61.944,
        "duration": 0.278,
        "velocity": 1,
        "hand": "right"
      },
      {
        "midi": 66,
        "time": 61.944,
        "duration": 0.278,
        "velocity": 1,
        "hand": "right"
      },
      {
        "midi": 59,
        "time": 62.222,
        "duration": 0.556,
        "velocity": 1,
        "hand": "left"
      },
      {
        "midi": 62,
        "time": 62.222,
        "duration": 0.556,
        "velocity": 1,
        "hand": "right"
      },
      {
        "midi": 67,
        "time": 62.222,
        "duration": 0.556,
        "velocity": 1,
        "hand": "right"
      },
      {
        "midi": 47,
        "time": 62.5,
        "duration": 0.278,
        "velocity": 1,
        "hand": "left"
      },
      {
        "midi": 58,
        "time": 62.778,
        "duration": 0.278,
        "velocity": 1,
        "hand": "left"
      },
      {
        "midi": 61,
        "time": 62.778,
        "duration": 0.278,
        "velocity": 1,
        "hand": "right"
      },
      {
        "midi": 66,
        "time": 62.778,
        "duration": 0.278,
        "velocity": 1,
        "hand": "right"
      },
      {
        "midi": 47,
        "time": 63.055,
        "duration": 0.278,
        "velocity": 1,
        "hand": "left"
      },
      {
        "midi": 57,
        "time": 63.333,
        "duration": 0.278,
        "velocity": 1,
        "hand": "left"
      },
      {
        "midi": 60,
        "time": 63.333,
        "duration": 0.278,
        "velocity": 1,
        "hand": "right"
      },
      {
        "midi": 66,
        "time": 63.333,
        "duration": 0.278,
        "velocity": 1,
        "hand": "right"
      },
      {
        "midi": 56,
        "time": 63.611,
        "duration": 0.278,
        "velocity": 1,
        "hand": "left"
      },
      {
        "midi": 59,
        "time": 63.611,
        "duration": 0.278,
        "velocity": 1,
        "hand": "left"
      },
      {
        "midi": 57,
        "time": 63.889,
        "duration": 0.556,
        "velocity": 1,
        "hand": "left"
      },
      {
        "midi": 60,
        "time": 63.889,
        "duration": 0.556,
        "velocity": 1,
        "hand": "right"
      },
      {
        "midi": 66,
        "time": 63.889,
        "duration": 0.556,
        "velocity": 1,
        "hand": "right"
      },
      {
        "midi": 47,
        "time": 64.166,
        "duration": 0.278,
        "velocity": 1,
        "hand": "left"
      },
      {
        "midi": 56,
        "time": 64.444,
        "duration": 0.278,
        "velocity": 1,
        "hand": "left"
      },
      {
        "midi": 59,
        "time": 64.444,
        "duration": 0.278,
        "velocity": 1,
        "hand": "left"
      },
      {
        "midi": 64,
        "time": 64.444,
        "duration": 0.278,
        "velocity": 1,
        "hand": "right"
      },
      {
        "midi": 47,
        "time": 64.722,
        "duration": 0.278,
        "velocity": 1,
        "hand": "left"
      },
      {
        "midi": 55,
        "time": 65,
        "duration": 0.278,
        "velocity": 1,
        "hand": "left"
      },
      {
        "midi": 58,
        "time": 65,
        "duration": 0.278,
        "velocity": 1,
        "hand": "left"
      },
      {
        "midi": 64,
        "time": 65,
        "duration": 0.278,
        "velocity": 1,
        "hand": "right"
      },
      {
        "midi": 47,
        "time": 65.278,
        "duration": 0.278,
        "velocity": 1,
        "hand": "left"
      },
      {
        "midi": 54,
        "time": 65.555,
        "duration": 0.278,
        "velocity": 1,
        "hand": "left"
      },
      {
        "midi": 58,
        "time": 65.555,
        "duration": 0.278,
        "velocity": 1,
        "hand": "left"
      },
      {
        "midi": 62,
        "time": 65.555,
        "duration": 0.278,
        "velocity": 1,
        "hand": "right"
      },
      {
        "midi": 47,
        "time": 65.833,
        "duration": 0.278,
        "velocity": 1,
        "hand": "left"
      },
      {
        "midi": 52,
        "time": 66.111,
        "duration": 0.278,
        "velocity": 1,
        "hand": "left"
      },
      {
        "midi": 58,
        "time": 66.111,
        "duration": 0.278,
        "velocity": 1,
        "hand": "left"
      },
      {
        "midi": 61,
        "time": 66.111,
        "duration": 0.278,
        "velocity": 1,
        "hand": "right"
      },
      {
        "midi": 47,
        "time": 66.389,
        "duration": 0.278,
        "velocity": 1,
        "hand": "left"
      },
      {
        "midi": 50,
        "time": 66.389,
        "duration": 0.278,
        "velocity": 1,
        "hand": "left"
      },
      {
        "midi": 53,
        "time": 66.666,
        "duration": 0.278,
        "velocity": 1,
        "hand": "left"
      },
      {
        "midi": 54,
        "time": 66.944,
        "duration": 0.278,
        "velocity": 1,
        "hand": "left"
      },
      {
        "midi": 55,
        "time": 67.222,
        "duration": 0.833,
        "velocity": 1,
        "hand": "left"
      },
      {
        "midi": 62,
        "time": 67.5,
        "duration": 0.278,
        "velocity": 1,
        "hand": "right"
      },
      {
        "midi": 71,
        "time": 67.5,
        "duration": 0.263,
        "velocity": 1,
        "hand": "right"
      },
      {
        "midi": 74,
        "time": 67.5,
        "duration": 0.263,
        "velocity": 1,
        "hand": "right"
      },
      {
        "midi": 64,
        "time": 67.778,
        "duration": 0.278,
        "velocity": 1,
        "hand": "right"
      },
      {
        "midi": 71,
        "time": 67.778,
        "duration": 0.262,
        "velocity": 1,
        "hand": "right"
      },
      {
        "midi": 74,
        "time": 67.778,
        "duration": 0.262,
        "velocity": 1,
        "hand": "right"
      },
      {
        "midi": 43,
        "time": 68.055,
        "duration": 0.278,
        "velocity": 1,
        "hand": "left"
      },
      {
        "midi": 65,
        "time": 68.055,
        "duration": 0.278,
        "velocity": 1,
        "hand": "right"
      },
      {
        "midi": 71,
        "time": 68.055,
        "duration": 0.278,
        "velocity": 1,
        "hand": "right"
      },
      {
        "midi": 74,
        "time": 68.055,
        "duration": 0.278,
        "velocity": 1,
        "hand": "right"
      },
      {
        "midi": 45,
        "time": 68.333,
        "duration": 0.278,
        "velocity": 1,
        "hand": "left"
      },
      {
        "midi": 43,
        "time": 68.611,
        "duration": 0.278,
        "velocity": 1,
        "hand": "left"
      },
      {
        "midi": 42,
        "time": 68.889,
        "duration": 0.833,
        "velocity": 1,
        "hand": "left"
      },
      {
        "midi": 56,
        "time": 69.166,
        "duration": 0.278,
        "velocity": 1,
        "hand": "left"
      },
      {
        "midi": 59,
        "time": 69.166,
        "duration": 0.278,
        "velocity": 1,
        "hand": "left"
      },
      {
        "midi": 66,
        "time": 69.166,
        "duration": 0.278,
        "velocity": 1,
        "hand": "right"
      },
      {
        "midi": 58,
        "time": 69.444,
        "duration": 0.278,
        "velocity": 1,
        "hand": "left"
      },
      {
        "midi": 61,
        "time": 69.444,
        "duration": 0.278,
        "velocity": 1,
        "hand": "right"
      },
      {
        "midi": 64,
        "time": 69.444,
        "duration": 0.278,
        "velocity": 1,
        "hand": "right"
      },
      {
        "midi": 47,
        "time": 69.722,
        "duration": 0.278,
        "velocity": 1,
        "hand": "left"
      },
      {
        "midi": 59,
        "time": 69.722,
        "duration": 0.278,
        "velocity": 1,
        "hand": "left"
      },
      {
        "midi": 62,
        "time": 69.722,
        "duration": 0.278,
        "velocity": 1,
        "hand": "right"
      },
      {
        "midi": 53,
        "time": 70,
        "duration": 0.278,
        "velocity": 1,
        "hand": "left"
      },
      {
        "midi": 54,
        "time": 70.278,
        "duration": 0.278,
        "velocity": 1,
        "hand": "left"
      },
      {
        "midi": 55,
        "time": 70.555,
        "duration": 0.833,
        "velocity": 1,
        "hand": "left"
      },
      {
        "midi": 62,
        "time": 70.833,
        "duration": 0.278,
        "velocity": 1,
        "hand": "right"
      },
      {
        "midi": 71,
        "time": 70.833,
        "duration": 0.263,
        "velocity": 1,
        "hand": "right"
      },
      {
        "midi": 74,
        "time": 70.833,
        "duration": 0.263,
        "velocity": 1,
        "hand": "right"
      },
      {
        "midi": 64,
        "time": 71.111,
        "duration": 0.278,
        "velocity": 1,
        "hand": "right"
      },
      {
        "midi": 71,
        "time": 71.111,
        "duration": 0.263,
        "velocity": 1,
        "hand": "right"
      },
      {
        "midi": 74,
        "time": 71.111,
        "duration": 0.263,
        "velocity": 1,
        "hand": "right"
      },
      {
        "midi": 43,
        "time": 71.389,
        "duration": 0.278,
        "velocity": 1,
        "hand": "left"
      },
      {
        "midi": 65,
        "time": 71.389,
        "duration": 0.278,
        "velocity": 1,
        "hand": "right"
      },
      {
        "midi": 71,
        "time": 71.389,
        "duration": 0.278,
        "velocity": 1,
        "hand": "right"
      },
      {
        "midi": 74,
        "time": 71.389,
        "duration": 0.278,
        "velocity": 1,
        "hand": "right"
      },
      {
        "midi": 45,
        "time": 71.666,
        "duration": 0.278,
        "velocity": 1,
        "hand": "left"
      },
      {
        "midi": 43,
        "time": 71.944,
        "duration": 0.278,
        "velocity": 1,
        "hand": "left"
      },
      {
        "midi": 42,
        "time": 72.222,
        "duration": 0.833,
        "velocity": 1,
        "hand": "left"
      },
      {
        "midi": 56,
        "time": 72.5,
        "duration": 0.278,
        "velocity": 1,
        "hand": "left"
      },
      {
        "midi": 59,
        "time": 72.5,
        "duration": 0.278,
        "velocity": 1,
        "hand": "left"
      },
      {
        "midi": 66,
        "time": 72.5,
        "duration": 0.278,
        "velocity": 1,
        "hand": "right"
      },
      {
        "midi": 58,
        "time": 72.778,
        "duration": 0.278,
        "velocity": 1,
        "hand": "left"
      },
      {
        "midi": 61,
        "time": 72.778,
        "duration": 0.278,
        "velocity": 1,
        "hand": "right"
      },
      {
        "midi": 64,
        "time": 72.778,
        "duration": 0.278,
        "velocity": 1,
        "hand": "right"
      },
      {
        "midi": 47,
        "time": 73.055,
        "duration": 0.278,
        "velocity": 1,
        "hand": "left"
      },
      {
        "midi": 59,
        "time": 73.055,
        "duration": 0.278,
        "velocity": 1,
        "hand": "left"
      },
      {
        "midi": 62,
        "time": 73.055,
        "duration": 0.278,
        "velocity": 1,
        "hand": "right"
      },
      {
        "midi": 52,
        "time": 73.333,
        "duration": 0.278,
        "velocity": 1,
        "hand": "left"
      },
      {
        "midi": 50,
        "time": 73.611,
        "duration": 0.278,
        "velocity": 1,
        "hand": "left"
      },
      {
        "midi": 49,
        "time": 73.889,
        "duration": 0.833,
        "velocity": 1,
        "hand": "left"
      },
      {
        "midi": 57,
        "time": 74.166,
        "duration": 0.263,
        "velocity": 1,
        "hand": "left"
      },
      {
        "midi": 64,
        "time": 74.166,
        "duration": 0.263,
        "velocity": 1,
        "hand": "right"
      },
      {
        "midi": 69,
        "time": 74.166,
        "duration": 0.278,
        "velocity": 1,
        "hand": "right"
      },
      {
        "midi": 57,
        "time": 74.444,
        "duration": 0.263,
        "velocity": 1,
        "hand": "left"
      },
      {
        "midi": 64,
        "time": 74.444,
        "duration": 0.278,
        "velocity": 1,
        "hand": "right"
      },
      {
        "midi": 67,
        "time": 74.444,
        "duration": 0.278,
        "velocity": 1,
        "hand": "right"
      },
      {
        "midi": 50,
        "time": 74.722,
        "duration": 0.278,
        "velocity": 1,
        "hand": "left"
      },
      {
        "midi": 57,
        "time": 74.722,
        "duration": 0.278,
        "velocity": 1,
        "hand": "left"
      },
      {
        "midi": 62,
        "time": 74.722,
        "duration": 0.278,
        "velocity": 1,
        "hand": "right"
      },
      {
        "midi": 66,
        "time": 74.722,
        "duration": 0.278,
        "velocity": 1,
        "hand": "right"
      },
      {
        "midi": 56,
        "time": 75,
        "duration": 0.278,
        "velocity": 1,
        "hand": "left"
      },
      {
        "midi": 54,
        "time": 75.278,
        "duration": 0.278,
        "velocity": 1,
        "hand": "left"
      },
      {
        "midi": 53,
        "time": 75.555,
        "duration": 0.833,
        "velocity": 1,
        "hand": "left"
      },
      {
        "midi": 61,
        "time": 75.833,
        "duration": 0.263,
        "velocity": 1,
        "hand": "right"
      },
      {
        "midi": 68,
        "time": 75.833,
        "duration": 0.263,
        "velocity": 1,
        "hand": "right"
      },
      {
        "midi": 73,
        "time": 75.833,
        "duration": 0.278,
        "velocity": 1,
        "hand": "right"
      },
      {
        "midi": 61,
        "time": 76.111,
        "duration": 0.263,
        "velocity": 1,
        "hand": "right"
      },
      {
        "midi": 68,
        "time": 76.111,
        "duration": 0.278,
        "velocity": 1,
        "hand": "right"
      },
      {
        "midi": 71,
        "time": 76.111,
        "duration": 0.278,
        "velocity": 1,
        "hand": "right"
      },
      {
        "midi": 54,
        "time": 76.389,
        "duration": 0.278,
        "velocity": 1,
        "hand": "left"
      },
      {
        "midi": 61,
        "time": 76.389,
        "duration": 0.278,
        "velocity": 1,
        "hand": "right"
      },
      {
        "midi": 66,
        "time": 76.389,
        "duration": 0.262,
        "velocity": 1,
        "hand": "right"
      },
      {
        "midi": 70,
        "time": 76.389,
        "duration": 0.278,
        "velocity": 1,
        "hand": "right"
      },
      {
        "midi": 58,
        "time": 76.666,
        "duration": 0.556,
        "velocity": 1,
        "hand": "left"
      },
      {
        "midi": 66,
        "time": 76.666,
        "duration": 0.541,
        "velocity": 1,
        "hand": "right"
      },
      {
        "midi": 73,
        "time": 76.666,
        "duration": 0.556,
        "velocity": 1,
        "hand": "right"
      },
      {
        "midi": 78,
        "time": 76.666,
        "duration": 0.278,
        "velocity": 1,
        "hand": "right"
      },
      {
        "midi": 76,
        "time": 76.944,
        "duration": 0.278,
        "velocity": 1,
        "hand": "right"
      },
      {
        "midi": 56,
        "time": 77.222,
        "duration": 0.278,
        "velocity": 1,
        "hand": "left"
      },
      {
        "midi": 66,
        "time": 77.222,
        "duration": 0.263,
        "velocity": 1,
        "hand": "right"
      },
      {
        "midi": 71,
        "time": 77.222,
        "duration": 0.278,
        "velocity": 1,
        "hand": "right"
      },
      {
        "midi": 74,
        "time": 77.222,
        "duration": 0.278,
        "velocity": 1,
        "hand": "right"
      },
      {
        "midi": 58,
        "time": 77.5,
        "duration": 0.556,
        "velocity": 1,
        "hand": "left"
      },
      {
        "midi": 66,
        "time": 77.5,
        "duration": 0.54,
        "velocity": 1,
        "hand": "right"
      },
      {
        "midi": 73,
        "time": 77.5,
        "duration": 0.556,
        "velocity": 1,
        "hand": "right"
      },
      {
        "midi": 78,
        "time": 77.5,
        "duration": 0.278,
        "velocity": 1,
        "hand": "right"
      },
      {
        "midi": 76,
        "time": 77.778,
        "duration": 0.278,
        "velocity": 1,
        "hand": "right"
      },
      {
        "midi": 56,
        "time": 78.055,
        "duration": 0.278,
        "velocity": 1,
        "hand": "left"
      },
      {
        "midi": 66,
        "time": 78.055,
        "duration": 0.263,
        "velocity": 1,
        "hand": "right"
      },
      {
        "midi": 71,
        "time": 78.055,
        "duration": 0.278,
        "velocity": 1,
        "hand": "right"
      },
      {
        "midi": 74,
        "time": 78.055,
        "duration": 0.278,
        "velocity": 1,
        "hand": "right"
      },
      {
        "midi": 58,
        "time": 78.333,
        "duration": 0.556,
        "velocity": 1,
        "hand": "left"
      },
      {
        "midi": 66,
        "time": 78.333,
        "duration": 0.541,
        "velocity": 1,
        "hand": "right"
      },
      {
        "midi": 73,
        "time": 78.333,
        "duration": 0.556,
        "velocity": 1,
        "hand": "right"
      },
      {
        "midi": 78,
        "time": 78.333,
        "duration": 0.278,
        "velocity": 1,
        "hand": "right"
      },
      {
        "midi": 76,
        "time": 78.611,
        "duration": 0.278,
        "velocity": 1,
        "hand": "right"
      },
      {
        "midi": 56,
        "time": 78.889,
        "duration": 0.278,
        "velocity": 1,
        "hand": "left"
      },
      {
        "midi": 66,
        "time": 78.889,
        "duration": 0.262,
        "velocity": 1,
        "hand": "right"
      },
      {
        "midi": 71,
        "time": 78.889,
        "duration": 0.278,
        "velocity": 1,
        "hand": "right"
      },
      {
        "midi": 74,
        "time": 78.889,
        "duration": 0.278,
        "velocity": 1,
        "hand": "right"
      },
      {
        "midi": 58,
        "time": 79.166,
        "duration": 0.278,
        "velocity": 1,
        "hand": "left"
      },
      {
        "midi": 66,
        "time": 79.166,
        "duration": 0.263,
        "velocity": 1,
        "hand": "right"
      },
      {
        "midi": 73,
        "time": 79.166,
        "duration": 0.278,
        "velocity": 1,
        "hand": "right"
      },
      {
        "midi": 78,
        "time": 79.166,
        "duration": 0.278,
        "velocity": 1,
        "hand": "right"
      },
      {
        "midi": 59,
        "time": 79.444,
        "duration": 0.263,
        "velocity": 1,
        "hand": "left"
      },
      {
        "midi": 66,
        "time": 79.444,
        "duration": 0.278,
        "velocity": 1,
        "hand": "right"
      },
      {
        "midi": 71,
        "time": 79.444,
        "duration": 0.263,
        "velocity": 1,
        "hand": "right"
      },
      {
        "midi": 74,
        "time": 79.444,
        "duration": 0.278,
        "velocity": 1,
        "hand": "right"
      },
      {
        "midi": 52,
        "time": 79.722,
        "duration": 0.818,
        "velocity": 1,
        "hand": "left"
      },
      {
        "midi": 59,
        "time": 79.722,
        "duration": 0.833,
        "velocity": 1,
        "hand": "left"
      },
      {
        "midi": 67,
        "time": 79.722,
        "duration": 0.833,
        "velocity": 1,
        "hand": "right"
      },
      {
        "midi": 71,
        "time": 79.722,
        "duration": 0.833,
        "velocity": 1,
        "hand": "right"
      },
      {
        "midi": 76,
        "time": 79.722,
        "duration": 0.833,
        "velocity": 1,
        "hand": "right"
      },
      {
        "midi": 79,
        "time": 79.722,
        "duration": 0.833,
        "velocity": 1,
        "hand": "right"
      },
      {
        "midi": 52,
        "time": 80.555,
        "duration": 0.556,
        "velocity": 1,
        "hand": "left"
      },
      {
        "midi": 55,
        "time": 80.694,
        "duration": 0.139,
        "velocity": 1,
        "hand": "left"
      },
      {
        "midi": 59,
        "time": 80.833,
        "duration": 0.139,
        "velocity": 1,
        "hand": "left"
      },
      {
        "midi": 61,
        "time": 80.972,
        "duration": 0.139,
        "velocity": 1,
        "hand": "right"
      },
      {
        "midi": 64,
        "time": 81.111,
        "duration": 0.139,
        "velocity": 1,
        "hand": "right"
      },
      {
        "midi": 67,
        "time": 81.25,
        "duration": 0.139,
        "velocity": 1,
        "hand": "right"
      },
      {
        "midi": 76,
        "time": 81.389,
        "duration": 0.139,
        "velocity": 1,
        "hand": "right"
      },
      {
        "midi": 73,
        "time": 81.528,
        "duration": 0.139,
        "velocity": 1,
        "hand": "right"
      },
      {
        "midi": 71,
        "time": 81.666,
        "duration": 0.139,
        "velocity": 1,
        "hand": "right"
      },
      {
        "midi": 67,
        "time": 81.805,
        "duration": 0.139,
        "velocity": 1,
        "hand": "right"
      },
      {
        "midi": 64,
        "time": 81.944,
        "duration": 0.139,
        "velocity": 1,
        "hand": "right"
      },
      {
        "midi": 61,
        "time": 82.083,
        "duration": 0.139,
        "velocity": 1,
        "hand": "right"
      },
      {
        "midi": 59,
        "time": 82.222,
        "duration": 0.139,
        "velocity": 1,
        "hand": "left"
      },
      {
        "midi": 55,
        "time": 82.361,
        "duration": 0.139,
        "velocity": 1,
        "hand": "left"
      },
      {
        "midi": 52,
        "time": 82.5,
        "duration": 0.139,
        "velocity": 1,
        "hand": "left"
      },
      {
        "midi": 49,
        "time": 82.639,
        "duration": 0.139,
        "velocity": 1,
        "hand": "left"
      },
      {
        "midi": 47,
        "time": 82.778,
        "duration": 0.139,
        "velocity": 1,
        "hand": "left"
      },
      {
        "midi": 43,
        "time": 82.916,
        "duration": 0.139,
        "velocity": 1,
        "hand": "left"
      },
      {
        "midi": 40,
        "time": 83.055,
        "duration": 0.278,
        "velocity": 1,
        "hand": "left"
      },
      {
        "midi": 49,
        "time": 83.333,
        "duration": 0.278,
        "velocity": 1,
        "hand": "left"
      },
      {
        "midi": 55,
        "time": 83.611,
        "duration": 0.278,
        "velocity": 1,
        "hand": "left"
      },
      {
        "midi": 59,
        "time": 83.611,
        "duration": 0.278,
        "velocity": 1,
        "hand": "left"
      },
      {
        "midi": 64,
        "time": 83.611,
        "duration": 0.278,
        "velocity": 1,
        "hand": "right"
      },
      {
        "midi": 52,
        "time": 83.889,
        "duration": 0.556,
        "velocity": 1,
        "hand": "left"
      },
      {
        "midi": 59,
        "time": 84.028,
        "duration": 0.139,
        "velocity": 1,
        "hand": "left"
      },
      {
        "midi": 61,
        "time": 84.166,
        "duration": 0.139,
        "velocity": 1,
        "hand": "right"
      },
      {
        "midi": 64,
        "time": 84.305,
        "duration": 0.139,
        "velocity": 1,
        "hand": "right"
      },
      {
        "midi": 67,
        "time": 84.444,
        "duration": 0.139,
        "velocity": 1,
        "hand": "right"
      },
      {
        "midi": 71,
        "time": 84.583,
        "duration": 0.139,
        "velocity": 1,
        "hand": "right"
      },
      {
        "midi": 79,
        "time": 84.722,
        "duration": 0.139,
        "velocity": 1,
        "hand": "right"
      },
      {
        "midi": 76,
        "time": 84.861,
        "duration": 0.139,
        "velocity": 1,
        "hand": "right"
      },
      {
        "midi": 73,
        "time": 85,
        "duration": 0.139,
        "velocity": 1,
        "hand": "right"
      },
      {
        "midi": 71,
        "time": 85.139,
        "duration": 0.139,
        "velocity": 1,
        "hand": "right"
      },
      {
        "midi": 67,
        "time": 85.278,
        "duration": 0.139,
        "velocity": 1,
        "hand": "right"
      },
      {
        "midi": 64,
        "time": 85.416,
        "duration": 0.139,
        "velocity": 1,
        "hand": "right"
      },
      {
        "midi": 61,
        "time": 85.555,
        "duration": 0.139,
        "velocity": 1,
        "hand": "right"
      },
      {
        "midi": 59,
        "time": 85.694,
        "duration": 0.139,
        "velocity": 1,
        "hand": "left"
      },
      {
        "midi": 55,
        "time": 85.833,
        "duration": 0.139,
        "velocity": 1,
        "hand": "left"
      },
      {
        "midi": 52,
        "time": 85.972,
        "duration": 0.139,
        "velocity": 1,
        "hand": "left"
      },
      {
        "midi": 49,
        "time": 86.111,
        "duration": 0.139,
        "velocity": 1,
        "hand": "left"
      },
      {
        "midi": 47,
        "time": 86.25,
        "duration": 0.139,
        "velocity": 1,
        "hand": "left"
      },
      {
        "midi": 43,
        "time": 86.389,
        "duration": 0.278,
        "velocity": 1,
        "hand": "left"
      },
      {
        "midi": 49,
        "time": 86.666,
        "duration": 0.278,
        "velocity": 1,
        "hand": "left"
      },
      {
        "midi": 59,
        "time": 86.944,
        "duration": 0.278,
        "velocity": 1,
        "hand": "left"
      },
      {
        "midi": 64,
        "time": 86.944,
        "duration": 0.278,
        "velocity": 1,
        "hand": "right"
      },
      {
        "midi": 67,
        "time": 86.944,
        "duration": 0.278,
        "velocity": 1,
        "hand": "right"
      },
      {
        "midi": 71,
        "time": 86.944,
        "duration": 0.278,
        "velocity": 1,
        "hand": "right"
      },
      {
        "midi": 42,
        "time": 87.222,
        "duration": 0.556,
        "velocity": 1,
        "hand": "left"
      },
      {
        "midi": 47,
        "time": 87.361,
        "duration": 0.139,
        "velocity": 1,
        "hand": "left"
      },
      {
        "midi": 50,
        "time": 87.5,
        "duration": 0.139,
        "velocity": 1,
        "hand": "left"
      },
      {
        "midi": 54,
        "time": 87.639,
        "duration": 0.139,
        "velocity": 1,
        "hand": "left"
      },
      {
        "midi": 59,
        "time": 87.778,
        "duration": 0.139,
        "velocity": 1,
        "hand": "left"
      },
      {
        "midi": 62,
        "time": 87.916,
        "duration": 0.139,
        "velocity": 1,
        "hand": "right"
      },
      {
        "midi": 54,
        "time": 88.055,
        "duration": 0.139,
        "velocity": 1,
        "hand": "left"
      },
      {
        "midi": 66,
        "time": 88.055,
        "duration": 0.139,
        "velocity": 1,
        "hand": "right"
      },
      {
        "midi": 59,
        "time": 88.194,
        "duration": 0.139,
        "velocity": 1,
        "hand": "left"
      },
      {
        "midi": 71,
        "time": 88.194,
        "duration": 0.139,
        "velocity": 1,
        "hand": "right"
      },
      {
        "midi": 62,
        "time": 88.333,
        "duration": 0.139,
        "velocity": 1,
        "hand": "right"
      },
      {
        "midi": 74,
        "time": 88.333,
        "duration": 0.139,
        "velocity": 1,
        "hand": "right"
      },
      {
        "midi": 66,
        "time": 88.472,
        "duration": 0.139,
        "velocity": 1,
        "hand": "right"
      },
      {
        "midi": 78,
        "time": 88.472,
        "duration": 0.139,
        "velocity": 1,
        "hand": "right"
      },
      {
        "midi": 71,
        "time": 88.611,
        "duration": 0.139,
        "velocity": 1,
        "hand": "right"
      },
      {
        "midi": 83,
        "time": 88.611,
        "duration": 0.139,
        "velocity": 1,
        "hand": "right"
      },
      {
        "midi": 74,
        "time": 88.75,
        "duration": 0.139,
        "velocity": 1,
        "hand": "right"
      },
      {
        "midi": 78,
        "time": 88.889,
        "duration": 0.278,
        "velocity": 1,
        "hand": "right"
      },
      {
        "midi": 64,
        "time": 89.166,
        "duration": 0.278,
        "velocity": 1,
        "hand": "right"
      },
      {
        "midi": 76,
        "time": 89.166,
        "duration": 0.263,
        "velocity": 1,
        "hand": "right"
      },
      {
        "midi": 79,
        "time": 89.166,
        "duration": 0.278,
        "velocity": 1,
        "hand": "right"
      },
      {
        "midi": 61,
        "time": 89.444,
        "duration": 0.278,
        "velocity": 1,
        "hand": "right"
      },
      {
        "midi": 73,
        "time": 89.444,
        "duration": 0.278,
        "velocity": 1,
        "hand": "right"
      },
      {
        "midi": 76,
        "time": 89.444,
        "duration": 0.278,
        "velocity": 1,
        "hand": "right"
      },
      {
        "midi": 62,
        "time": 89.722,
        "duration": 0.278,
        "velocity": 1,
        "hand": "right"
      },
      {
        "midi": 74,
        "time": 89.722,
        "duration": 0.263,
        "velocity": 1,
        "hand": "right"
      },
      {
        "midi": 78,
        "time": 89.722,
        "duration": 0.278,
        "velocity": 1,
        "hand": "right"
      },
      {
        "midi": 59,
        "time": 90,
        "duration": 0.278,
        "velocity": 1,
        "hand": "left"
      },
      {
        "midi": 71,
        "time": 90,
        "duration": 0.278,
        "velocity": 1,
        "hand": "right"
      },
      {
        "midi": 74,
        "time": 90,
        "duration": 0.278,
        "velocity": 1,
        "hand": "right"
      },
      {
        "midi": 61,
        "time": 90.278,
        "duration": 0.278,
        "velocity": 1,
        "hand": "right"
      },
      {
        "midi": 73,
        "time": 90.278,
        "duration": 0.262,
        "velocity": 1,
        "hand": "right"
      },
      {
        "midi": 76,
        "time": 90.278,
        "duration": 0.278,
        "velocity": 1,
        "hand": "right"
      },
      {
        "midi": 58,
        "time": 90.555,
        "duration": 0.278,
        "velocity": 1,
        "hand": "left"
      },
      {
        "midi": 70,
        "time": 90.555,
        "duration": 0.278,
        "velocity": 1,
        "hand": "right"
      },
      {
        "midi": 73,
        "time": 90.555,
        "duration": 0.278,
        "velocity": 1,
        "hand": "right"
      },
      {
        "midi": 59,
        "time": 90.833,
        "duration": 0.278,
        "velocity": 1,
        "hand": "left"
      },
      {
        "midi": 71,
        "time": 90.833,
        "duration": 0.278,
        "velocity": 1,
        "hand": "right"
      },
      {
        "midi": 74,
        "time": 90.833,
        "duration": 0.278,
        "velocity": 1,
        "hand": "right"
      },
      {
        "midi": 54,
        "time": 91.111,
        "duration": 0.278,
        "velocity": 1,
        "hand": "left"
      },
      {
        "midi": 66,
        "time": 91.111,
        "duration": 0.278,
        "velocity": 1,
        "hand": "right"
      },
      {
        "midi": 70,
        "time": 91.111,
        "duration": 0.278,
        "velocity": 1,
        "hand": "right"
      },
      {
        "midi": 82,
        "time": 91.111,
        "duration": 0.278,
        "velocity": 1,
        "hand": "right"
      },
      {
        "midi": 55,
        "time": 91.389,
        "duration": 0.278,
        "velocity": 1,
        "hand": "left"
      },
      {
        "midi": 67,
        "time": 91.389,
        "duration": 0.278,
        "velocity": 1,
        "hand": "right"
      },
      {
        "midi": 71,
        "time": 91.389,
        "duration": 0.278,
        "velocity": 1,
        "hand": "right"
      },
      {
        "midi": 83,
        "time": 91.389,
        "duration": 0.278,
        "velocity": 1,
        "hand": "right"
      },
      {
        "midi": 50,
        "time": 91.666,
        "duration": 0.278,
        "velocity": 1,
        "hand": "left"
      },
      {
        "midi": 62,
        "time": 91.666,
        "duration": 0.278,
        "velocity": 1,
        "hand": "right"
      },
      {
        "midi": 66,
        "time": 91.666,
        "duration": 0.278,
        "velocity": 1,
        "hand": "right"
      },
      {
        "midi": 78,
        "time": 91.666,
        "duration": 0.278,
        "velocity": 1,
        "hand": "right"
      },
      {
        "midi": 52,
        "time": 91.944,
        "duration": 0.278,
        "velocity": 1,
        "hand": "left"
      },
      {
        "midi": 64,
        "time": 91.944,
        "duration": 0.263,
        "velocity": 1,
        "hand": "right"
      },
      {
        "midi": 67,
        "time": 91.944,
        "duration": 0.278,
        "velocity": 1,
        "hand": "right"
      },
      {
        "midi": 79,
        "time": 91.944,
        "duration": 0.278,
        "velocity": 1,
        "hand": "right"
      },
      {
        "midi": 49,
        "time": 92.222,
        "duration": 0.278,
        "velocity": 1,
        "hand": "left"
      },
      {
        "midi": 61,
        "time": 92.222,
        "duration": 0.278,
        "velocity": 1,
        "hand": "right"
      },
      {
        "midi": 64,
        "time": 92.222,
        "duration": 0.278,
        "velocity": 1,
        "hand": "right"
      },
      {
        "midi": 76,
        "time": 92.222,
        "duration": 0.278,
        "velocity": 1,
        "hand": "right"
      },
      {
        "midi": 50,
        "time": 92.5,
        "duration": 0.278,
        "velocity": 1,
        "hand": "left"
      },
      {
        "midi": 62,
        "time": 92.5,
        "duration": 0.263,
        "velocity": 1,
        "hand": "right"
      },
      {
        "midi": 66,
        "time": 92.5,
        "duration": 0.278,
        "velocity": 1,
        "hand": "right"
      },
      {
        "midi": 78,
        "time": 92.5,
        "duration": 0.278,
        "velocity": 1,
        "hand": "right"
      },
      {
        "midi": 47,
        "time": 92.778,
        "duration": 0.278,
        "velocity": 1,
        "hand": "left"
      },
      {
        "midi": 59,
        "time": 92.778,
        "duration": 0.278,
        "velocity": 1,
        "hand": "left"
      },
      {
        "midi": 62,
        "time": 92.778,
        "duration": 0.278,
        "velocity": 1,
        "hand": "right"
      },
      {
        "midi": 74,
        "time": 92.778,
        "duration": 0.278,
        "velocity": 1,
        "hand": "right"
      },
      {
        "midi": 49,
        "time": 93.055,
        "duration": 0.278,
        "velocity": 1,
        "hand": "left"
      },
      {
        "midi": 61,
        "time": 93.055,
        "duration": 0.263,
        "velocity": 1,
        "hand": "right"
      },
      {
        "midi": 64,
        "time": 93.055,
        "duration": 0.278,
        "velocity": 1,
        "hand": "right"
      },
      {
        "midi": 76,
        "time": 93.055,
        "duration": 0.278,
        "velocity": 1,
        "hand": "right"
      },
      {
        "midi": 46,
        "time": 93.333,
        "duration": 0.278,
        "velocity": 1,
        "hand": "left"
      },
      {
        "midi": 58,
        "time": 93.333,
        "duration": 0.278,
        "velocity": 1,
        "hand": "left"
      },
      {
        "midi": 61,
        "time": 93.333,
        "duration": 0.278,
        "velocity": 1,
        "hand": "right"
      },
      {
        "midi": 73,
        "time": 93.333,
        "duration": 0.278,
        "velocity": 1,
        "hand": "right"
      },
      {
        "midi": 47,
        "time": 93.611,
        "duration": 0.278,
        "velocity": 1,
        "hand": "left"
      },
      {
        "midi": 59,
        "time": 93.611,
        "duration": 0.278,
        "velocity": 1,
        "hand": "left"
      },
      {
        "midi": 62,
        "time": 93.611,
        "duration": 0.278,
        "velocity": 1,
        "hand": "right"
      },
      {
        "midi": 74,
        "time": 93.611,
        "duration": 0.278,
        "velocity": 1,
        "hand": "right"
      },
      {
        "midi": 42,
        "time": 93.889,
        "duration": 0.278,
        "velocity": 1,
        "hand": "left"
      },
      {
        "midi": 54,
        "time": 93.889,
        "duration": 0.278,
        "velocity": 1,
        "hand": "left"
      },
      {
        "midi": 70,
        "time": 93.889,
        "duration": 0.278,
        "velocity": 1,
        "hand": "right"
      },
      {
        "midi": 43,
        "time": 94.166,
        "duration": 0.278,
        "velocity": 1,
        "hand": "left"
      },
      {
        "midi": 55,
        "time": 94.166,
        "duration": 0.278,
        "velocity": 1,
        "hand": "left"
      },
      {
        "midi": 71,
        "time": 94.166,
        "duration": 0.278,
        "velocity": 1,
        "hand": "right"
      },
      {
        "midi": 38,
        "time": 94.444,
        "duration": 0.278,
        "velocity": 1,
        "hand": "left"
      },
      {
        "midi": 50,
        "time": 94.444,
        "duration": 0.278,
        "velocity": 1,
        "hand": "left"
      },
      {
        "midi": 66,
        "time": 94.444,
        "duration": 0.278,
        "velocity": 1,
        "hand": "right"
      },
      {
        "midi": 40,
        "time": 94.722,
        "duration": 0.556,
        "velocity": 1,
        "hand": "left"
      },
      {
        "midi": 52,
        "time": 94.722,
        "duration": 0.556,
        "velocity": 1,
        "hand": "left"
      },
      {
        "midi": 67,
        "time": 94.722,
        "duration": 0.556,
        "velocity": 1,
        "hand": "right"
      },
      {
        "midi": 42,
        "time": 95.278,
        "duration": 0.278,
        "velocity": 1,
        "hand": "left"
      },
      {
        "midi": 54,
        "time": 95.278,
        "duration": 0.278,
        "velocity": 1,
        "hand": "left"
      },
      {
        "midi": 61,
        "time": 95.278,
        "duration": 0.278,
        "velocity": 1,
        "hand": "right"
      },
      {
        "midi": 64,
        "time": 95.278,
        "duration": 0.278,
        "velocity": 1,
        "hand": "right"
      },
      {
        "midi": 70,
        "time": 95.278,
        "duration": 0.278,
        "velocity": 1,
        "hand": "right"
      },
      {
        "midi": 47,
        "time": 95.555,
        "duration": 0.278,
        "velocity": 1,
        "hand": "left"
      },
      {
        "midi": 62,
        "time": 95.555,
        "duration": 0.278,
        "velocity": 1,
        "hand": "right"
      },
      {
        "midi": 66,
        "time": 95.555,
        "duration": 0.278,
        "velocity": 1,
        "hand": "right"
      },
      {
        "midi": 71,
        "time": 95.555,
        "duration": 0.278,
        "velocity": 1,
        "hand": "right"
      },
      {
        "midi": 52,
        "time": 95.833,
        "duration": 0.278,
        "velocity": 1,
        "hand": "left"
      },
      {
        "midi": 54,
        "time": 96.111,
        "duration": 0.278,
        "velocity": 1,
        "hand": "left"
      },
      {
        "midi": 55,
        "time": 96.389,
        "duration": 1.111,
        "velocity": 1,
        "hand": "left"
      },
      {
        "midi": 61,
        "time": 96.666,
        "duration": 0.278,
        "velocity": 1,
        "hand": "right"
      },
      {
        "midi": 71,
        "time": 96.666,
        "duration": 0.263,
        "velocity": 1,
        "hand": "right"
      },
      {
        "midi": 73,
        "time": 96.666,
        "duration": 0.263,
        "velocity": 1,
        "hand": "right"
      },
      {
        "midi": 62,
        "time": 96.944,
        "duration": 0.278,
        "velocity": 1,
        "hand": "right"
      },
      {
        "midi": 71,
        "time": 96.944,
        "duration": 0.263,
        "velocity": 1,
        "hand": "right"
      },
      {
        "midi": 73,
        "time": 96.944,
        "duration": 0.263,
        "velocity": 1,
        "hand": "right"
      },
      {
        "midi": 64,
        "time": 97.222,
        "duration": 0.278,
        "velocity": 1,
        "hand": "right"
      },
      {
        "midi": 71,
        "time": 97.222,
        "duration": 0.278,
        "velocity": 1,
        "hand": "right"
      },
      {
        "midi": 73,
        "time": 97.222,
        "duration": 0.278,
        "velocity": 1,
        "hand": "right"
      },
      {
        "midi": 45,
        "time": 97.5,
        "duration": 0.278,
        "velocity": 1,
        "hand": "left"
      },
      {
        "midi": 43,
        "time": 97.778,
        "duration": 0.278,
        "velocity": 1,
        "hand": "left"
      },
      {
        "midi": 42,
        "time": 98.055,
        "duration": 0.833,
        "velocity": 1,
        "hand": "left"
      },
      {
        "midi": 56,
        "time": 98.333,
        "duration": 0.278,
        "velocity": 1,
        "hand": "left"
      },
      {
        "midi": 59,
        "time": 98.333,
        "duration": 0.278,
        "velocity": 1,
        "hand": "left"
      },
      {
        "midi": 66,
        "time": 98.333,
        "duration": 0.263,
        "velocity": 1,
        "hand": "right"
      },
      {
        "midi": 58,
        "time": 98.611,
        "duration": 0.278,
        "velocity": 1,
        "hand": "left"
      },
      {
        "midi": 61,
        "time": 98.611,
        "duration": 0.278,
        "velocity": 1,
        "hand": "right"
      },
      {
        "midi": 66,
        "time": 98.611,
        "duration": 0.263,
        "velocity": 1,
        "hand": "right"
      },
      {
        "midi": 47,
        "time": 98.889,
        "duration": 0.278,
        "velocity": 1,
        "hand": "left"
      },
      {
        "midi": 59,
        "time": 98.889,
        "duration": 0.278,
        "velocity": 1,
        "hand": "left"
      },
      {
        "midi": 62,
        "time": 98.889,
        "duration": 0.278,
        "velocity": 1,
        "hand": "right"
      },
      {
        "midi": 66,
        "time": 98.889,
        "duration": 0.278,
        "velocity": 1,
        "hand": "right"
      },
      {
        "midi": 52,
        "time": 99.166,
        "duration": 0.278,
        "velocity": 1,
        "hand": "left"
      },
      {
        "midi": 54,
        "time": 99.444,
        "duration": 0.278,
        "velocity": 1,
        "hand": "left"
      },
      {
        "midi": 55,
        "time": 99.722,
        "duration": 1.111,
        "velocity": 1,
        "hand": "left"
      },
      {
        "midi": 61,
        "time": 100,
        "duration": 0.278,
        "velocity": 1,
        "hand": "right"
      },
      {
        "midi": 71,
        "time": 100,
        "duration": 0.263,
        "velocity": 1,
        "hand": "right"
      },
      {
        "midi": 73,
        "time": 100,
        "duration": 0.263,
        "velocity": 1,
        "hand": "right"
      },
      {
        "midi": 62,
        "time": 100.278,
        "duration": 0.278,
        "velocity": 1,
        "hand": "right"
      },
      {
        "midi": 71,
        "time": 100.278,
        "duration": 0.262,
        "velocity": 1,
        "hand": "right"
      },
      {
        "midi": 73,
        "time": 100.278,
        "duration": 0.262,
        "velocity": 1,
        "hand": "right"
      },
      {
        "midi": 64,
        "time": 100.555,
        "duration": 0.278,
        "velocity": 1,
        "hand": "right"
      },
      {
        "midi": 71,
        "time": 100.555,
        "duration": 0.278,
        "velocity": 1,
        "hand": "right"
      },
      {
        "midi": 73,
        "time": 100.555,
        "duration": 0.278,
        "velocity": 1,
        "hand": "right"
      },
      {
        "midi": 45,
        "time": 100.833,
        "duration": 0.278,
        "velocity": 1,
        "hand": "left"
      },
      {
        "midi": 43,
        "time": 101.111,
        "duration": 0.278,
        "velocity": 1,
        "hand": "left"
      },
      {
        "midi": 42,
        "time": 101.389,
        "duration": 0.833,
        "velocity": 1,
        "hand": "left"
      },
      {
        "midi": 56,
        "time": 101.666,
        "duration": 0.278,
        "velocity": 1,
        "hand": "left"
      },
      {
        "midi": 59,
        "time": 101.666,
        "duration": 0.278,
        "velocity": 1,
        "hand": "left"
      },
      {
        "midi": 66,
        "time": 101.666,
        "duration": 0.263,
        "velocity": 1,
        "hand": "right"
      },
      {
        "midi": 58,
        "time": 101.944,
        "duration": 0.278,
        "velocity": 1,
        "hand": "left"
      },
      {
        "midi": 61,
        "time": 101.944,
        "duration": 0.278,
        "velocity": 1,
        "hand": "right"
      },
      {
        "midi": 66,
        "time": 101.944,
        "duration": 0.263,
        "velocity": 1,
        "hand": "right"
      },
      {
        "midi": 47,
        "time": 102.222,
        "duration": 0.278,
        "velocity": 1,
        "hand": "left"
      },
      {
        "midi": 59,
        "time": 102.222,
        "duration": 0.263,
        "velocity": 1,
        "hand": "left"
      },
      {
        "midi": 62,
        "time": 102.222,
        "duration": 0.263,
        "velocity": 1,
        "hand": "right"
      },
      {
        "midi": 66,
        "time": 102.222,
        "duration": 0.263,
        "velocity": 1,
        "hand": "right"
      },
      {
        "midi": 50,
        "time": 102.5,
        "duration": 0.263,
        "velocity": 1,
        "hand": "left"
      },
      {
        "midi": 54,
        "time": 102.5,
        "duration": 0.263,
        "velocity": 1,
        "hand": "left"
      },
      {
        "midi": 62,
        "time": 102.5,
        "duration": 0.263,
        "velocity": 1,
        "hand": "right"
      },
      {
        "midi": 66,
        "time": 102.5,
        "duration": 0.263,
        "velocity": 1,
        "hand": "right"
      },
      {
        "midi": 71,
        "time": 102.5,
        "duration": 0.278,
        "velocity": 1,
        "hand": "right"
      },
      {
        "midi": 50,
        "time": 102.778,
        "duration": 0.262,
        "velocity": 1,
        "hand": "left"
      },
      {
        "midi": 54,
        "time": 102.778,
        "duration": 0.262,
        "velocity": 1,
        "hand": "left"
      },
      {
        "midi": 62,
        "time": 102.778,
        "duration": 0.262,
        "velocity": 1,
        "hand": "right"
      },
      {
        "midi": 66,
        "time": 102.778,
        "duration": 0.262,
        "velocity": 1,
        "hand": "right"
      },
      {
        "midi": 70,
        "time": 102.778,
        "duration": 0.278,
        "velocity": 1,
        "hand": "right"
      },
      {
        "midi": 50,
        "time": 103.055,
        "duration": 0.278,
        "velocity": 1,
        "hand": "left"
      },
      {
        "midi": 54,
        "time": 103.055,
        "duration": 0.263,
        "velocity": 1,
        "hand": "left"
      },
      {
        "midi": 62,
        "time": 103.055,
        "duration": 0.263,
        "velocity": 1,
        "hand": "right"
      },
      {
        "midi": 66,
        "time": 103.055,
        "duration": 0.263,
        "velocity": 1,
        "hand": "right"
      },
      {
        "midi": 71,
        "time": 103.055,
        "duration": 0.263,
        "velocity": 1,
        "hand": "right"
      },
      {
        "midi": 54,
        "time": 103.333,
        "duration": 0.263,
        "velocity": 1,
        "hand": "left"
      },
      {
        "midi": 59,
        "time": 103.333,
        "duration": 0.263,
        "velocity": 1,
        "hand": "left"
      },
      {
        "midi": 62,
        "time": 103.333,
        "duration": 0.278,
        "velocity": 1,
        "hand": "right"
      },
      {
        "midi": 66,
        "time": 103.333,
        "duration": 0.263,
        "velocity": 1,
        "hand": "right"
      },
      {
        "midi": 71,
        "time": 103.333,
        "duration": 0.263,
        "velocity": 1,
        "hand": "right"
      },
      {
        "midi": 74,
        "time": 103.333,
        "duration": 0.278,
        "velocity": 1,
        "hand": "right"
      },
      {
        "midi": 54,
        "time": 103.611,
        "duration": 0.263,
        "velocity": 1,
        "hand": "left"
      },
      {
        "midi": 59,
        "time": 103.611,
        "duration": 0.263,
        "velocity": 1,
        "hand": "left"
      },
      {
        "midi": 61,
        "time": 103.611,
        "duration": 0.278,
        "velocity": 1,
        "hand": "right"
      },
      {
        "midi": 66,
        "time": 103.611,
        "duration": 0.263,
        "velocity": 1,
        "hand": "right"
      },
      {
        "midi": 71,
        "time": 103.611,
        "duration": 0.263,
        "velocity": 1,
        "hand": "right"
      },
      {
        "midi": 73,
        "time": 103.611,
        "duration": 0.278,
        "velocity": 1,
        "hand": "right"
      },
      {
        "midi": 54,
        "time": 103.889,
        "duration": 0.278,
        "velocity": 1,
        "hand": "left"
      },
      {
        "midi": 59,
        "time": 103.889,
        "duration": 0.262,
        "velocity": 1,
        "hand": "left"
      },
      {
        "midi": 62,
        "time": 103.889,
        "duration": 0.262,
        "velocity": 1,
        "hand": "right"
      },
      {
        "midi": 66,
        "time": 103.889,
        "duration": 0.262,
        "velocity": 1,
        "hand": "right"
      },
      {
        "midi": 71,
        "time": 103.889,
        "duration": 0.262,
        "velocity": 1,
        "hand": "right"
      },
      {
        "midi": 74,
        "time": 103.889,
        "duration": 0.262,
        "velocity": 1,
        "hand": "right"
      },
      {
        "midi": 59,
        "time": 104.166,
        "duration": 0.263,
        "velocity": 1,
        "hand": "left"
      },
      {
        "midi": 66,
        "time": 104.166,
        "duration": 0.278,
        "velocity": 1,
        "hand": "right"
      },
      {
        "midi": 71,
        "time": 104.166,
        "duration": 0.263,
        "velocity": 1,
        "hand": "right"
      },
      {
        "midi": 74,
        "time": 104.166,
        "duration": 0.263,
        "velocity": 1,
        "hand": "right"
      },
      {
        "midi": 78,
        "time": 104.166,
        "duration": 0.278,
        "velocity": 1,
        "hand": "right"
      },
      {
        "midi": 59,
        "time": 104.444,
        "duration": 0.263,
        "velocity": 1,
        "hand": "left"
      },
      {
        "midi": 65,
        "time": 104.444,
        "duration": 0.278,
        "velocity": 1,
        "hand": "right"
      },
      {
        "midi": 71,
        "time": 104.444,
        "duration": 0.263,
        "velocity": 1,
        "hand": "right"
      },
      {
        "midi": 74,
        "time": 104.444,
        "duration": 0.263,
        "velocity": 1,
        "hand": "right"
      },
      {
        "midi": 77,
        "time": 104.444,
        "duration": 0.278,
        "velocity": 1,
        "hand": "right"
      },
      {
        "midi": 59,
        "time": 104.722,
        "duration": 0.278,
        "velocity": 1,
        "hand": "left"
      },
      {
        "midi": 66,
        "time": 104.722,
        "duration": 0.263,
        "velocity": 1,
        "hand": "right"
      },
      {
        "midi": 71,
        "time": 104.722,
        "duration": 0.263,
        "velocity": 1,
        "hand": "right"
      },
      {
        "midi": 74,
        "time": 104.722,
        "duration": 0.263,
        "velocity": 1,
        "hand": "right"
      },
      {
        "midi": 78,
        "time": 104.722,
        "duration": 0.263,
        "velocity": 1,
        "hand": "right"
      },
      {
        "midi": 71,
        "time": 105,
        "duration": 0.278,
        "velocity": 1,
        "hand": "right"
      },
      {
        "midi": 74,
        "time": 105,
        "duration": 0.263,
        "velocity": 1,
        "hand": "right"
      },
      {
        "midi": 78,
        "time": 105,
        "duration": 0.263,
        "velocity": 1,
        "hand": "right"
      },
      {
        "midi": 83,
        "time": 105,
        "duration": 0.278,
        "velocity": 1,
        "hand": "right"
      },
      {
        "midi": 70,
        "time": 105.278,
        "duration": 0.278,
        "velocity": 1,
        "hand": "right"
      },
      {
        "midi": 74,
        "time": 105.278,
        "duration": 0.262,
        "velocity": 1,
        "hand": "right"
      },
      {
        "midi": 78,
        "time": 105.278,
        "duration": 0.262,
        "velocity": 1,
        "hand": "right"
      },
      {
        "midi": 82,
        "time": 105.278,
        "duration": 0.278,
        "velocity": 1,
        "hand": "right"
      },
      {
        "midi": 71,
        "time": 105.555,
        "duration": 0.263,
        "velocity": 1,
        "hand": "right"
      },
      {
        "midi": 74,
        "time": 105.555,
        "duration": 0.263,
        "velocity": 1,
        "hand": "right"
      },
      {
        "midi": 78,
        "time": 105.555,
        "duration": 0.263,
        "velocity": 1,
        "hand": "right"
      },
      {
        "midi": 83,
        "time": 105.555,
        "duration": 0.263,
        "velocity": 1,
        "hand": "right"
      },
      {
        "midi": 71,
        "time": 105.833,
        "duration": 0.263,
        "velocity": 1,
        "hand": "right"
      },
      {
        "midi": 74,
        "time": 105.833,
        "duration": 0.278,
        "velocity": 1,
        "hand": "right"
      },
      {
        "midi": 78,
        "time": 105.833,
        "duration": 0.263,
        "velocity": 1,
        "hand": "right"
      },
      {
        "midi": 83,
        "time": 105.833,
        "duration": 0.263,
        "velocity": 1,
        "hand": "right"
      },
      {
        "midi": 71,
        "time": 106.111,
        "duration": 0.263,
        "velocity": 1,
        "hand": "right"
      },
      {
        "midi": 73,
        "time": 106.111,
        "duration": 0.278,
        "velocity": 1,
        "hand": "right"
      },
      {
        "midi": 78,
        "time": 106.111,
        "duration": 0.263,
        "velocity": 1,
        "hand": "right"
      },
      {
        "midi": 83,
        "time": 106.111,
        "duration": 0.263,
        "velocity": 1,
        "hand": "right"
      },
      {
        "midi": 71,
        "time": 106.389,
        "duration": 0.262,
        "velocity": 1,
        "hand": "right"
      },
      {
        "midi": 74,
        "time": 106.389,
        "duration": 0.262,
        "velocity": 1,
        "hand": "right"
      },
      {
        "midi": 78,
        "time": 106.389,
        "duration": 0.262,
        "velocity": 1,
        "hand": "right"
      },
      {
        "midi": 83,
        "time": 106.389,
        "duration": 0.262,
        "velocity": 1,
        "hand": "right"
      },
      {
        "midi": 71,
        "time": 106.666,
        "duration": 0.263,
        "velocity": 1,
        "hand": "right"
      },
      {
        "midi": 74,
        "time": 106.666,
        "duration": 0.263,
        "velocity": 1,
        "hand": "right"
      },
      {
        "midi": 78,
        "time": 106.666,
        "duration": 0.278,
        "velocity": 1,
        "hand": "right"
      },
      {
        "midi": 83,
        "time": 106.666,
        "duration": 0.263,
        "velocity": 1,
        "hand": "right"
      },
      {
        "midi": 71,
        "time": 106.944,
        "duration": 0.263,
        "velocity": 1,
        "hand": "right"
      },
      {
        "midi": 74,
        "time": 106.944,
        "duration": 0.263,
        "velocity": 1,
        "hand": "right"
      },
      {
        "midi": 77,
        "time": 106.944,
        "duration": 0.278,
        "velocity": 1,
        "hand": "right"
      },
      {
        "midi": 83,
        "time": 106.944,
        "duration": 0.263,
        "velocity": 1,
        "hand": "right"
      },
      {
        "midi": 71,
        "time": 107.222,
        "duration": 0.263,
        "velocity": 1,
        "hand": "right"
      },
      {
        "midi": 74,
        "time": 107.222,
        "duration": 0.263,
        "velocity": 1,
        "hand": "right"
      },
      {
        "midi": 78,
        "time": 107.222,
        "duration": 0.263,
        "velocity": 1,
        "hand": "right"
      },
      {
        "midi": 83,
        "time": 107.222,
        "duration": 0.263,
        "velocity": 1,
        "hand": "right"
      },
      {
        "midi": 71,
        "time": 107.5,
        "duration": 0.263,
        "velocity": 1,
        "hand": "right"
      },
      {
        "midi": 74,
        "time": 107.5,
        "duration": 0.263,
        "velocity": 1,
        "hand": "right"
      },
      {
        "midi": 78,
        "time": 107.5,
        "duration": 0.263,
        "velocity": 1,
        "hand": "right"
      },
      {
        "midi": 83,
        "time": 107.5,
        "duration": 0.278,
        "velocity": 1,
        "hand": "right"
      },
      {
        "midi": 71,
        "time": 107.778,
        "duration": 0.262,
        "velocity": 1,
        "hand": "right"
      },
      {
        "midi": 74,
        "time": 107.778,
        "duration": 0.262,
        "velocity": 1,
        "hand": "right"
      },
      {
        "midi": 78,
        "time": 107.778,
        "duration": 0.262,
        "velocity": 1,
        "hand": "right"
      },
      {
        "midi": 82,
        "time": 107.778,
        "duration": 0.278,
        "velocity": 1,
        "hand": "right"
      },
      {
        "midi": 71,
        "time": 108.055,
        "duration": 0.263,
        "velocity": 1,
        "hand": "right"
      },
      {
        "midi": 74,
        "time": 108.055,
        "duration": 0.263,
        "velocity": 1,
        "hand": "right"
      },
      {
        "midi": 78,
        "time": 108.055,
        "duration": 0.263,
        "velocity": 1,
        "hand": "right"
      },
      {
        "midi": 83,
        "time": 108.055,
        "duration": 0.263,
        "velocity": 1,
        "hand": "right"
      },
      {
        "midi": 71,
        "time": 108.333,
        "duration": 0.263,
        "velocity": 1,
        "hand": "right"
      },
      {
        "midi": 74,
        "time": 108.333,
        "duration": 0.263,
        "velocity": 1,
        "hand": "right"
      },
      {
        "midi": 78,
        "time": 108.333,
        "duration": 0.263,
        "velocity": 1,
        "hand": "right"
      },
      {
        "midi": 83,
        "time": 108.333,
        "duration": 0.278,
        "velocity": 1,
        "hand": "right"
      },
      {
        "midi": 71,
        "time": 108.611,
        "duration": 0.263,
        "velocity": 1,
        "hand": "right"
      },
      {
        "midi": 74,
        "time": 108.611,
        "duration": 0.263,
        "velocity": 1,
        "hand": "right"
      },
      {
        "midi": 78,
        "time": 108.611,
        "duration": 0.263,
        "velocity": 1,
        "hand": "right"
      },
      {
        "midi": 82,
        "time": 108.611,
        "duration": 0.278,
        "velocity": 1,
        "hand": "right"
      },
      {
        "midi": 71,
        "time": 108.889,
        "duration": 0.278,
        "velocity": 1,
        "hand": "right"
      },
      {
        "midi": 74,
        "time": 108.889,
        "duration": 0.278,
        "velocity": 1,
        "hand": "right"
      },
      {
        "midi": 78,
        "time": 108.889,
        "duration": 0.278,
        "velocity": 1,
        "hand": "right"
      },
      {
        "midi": 83,
        "time": 108.889,
        "duration": 0.278,
        "velocity": 1,
        "hand": "right"
      },
      {
        "midi": 59,
        "time": 109.722,
        "duration": 0.278,
        "velocity": 1,
        "hand": "left"
      },
      {
        "midi": 71,
        "time": 109.722,
        "duration": 0.278,
        "velocity": 1,
        "hand": "right"
      },
      {
        "midi": 74,
        "time": 109.722,
        "duration": 0.278,
        "velocity": 1,
        "hand": "right"
      },
      {
        "midi": 78,
        "time": 109.722,
        "duration": 0.278,
        "velocity": 1,
        "hand": "right"
      },
      {
        "midi": 83,
        "time": 109.722,
        "duration": 0.278,
        "velocity": 1,
        "hand": "right"
      },
      {
        "midi": 47,
        "time": 110.555,
        "duration": 0.278,
        "velocity": 1,
        "hand": "left"
      },
      {
        "midi": 54,
        "time": 110.555,
        "duration": 0.278,
        "velocity": 1,
        "hand": "left"
      },
      {
        "midi": 62,
        "time": 110.555,
        "duration": 0.278,
        "velocity": 1,
        "hand": "right"
      },
      {
        "midi": 66,
        "time": 110.555,
        "duration": 0.278,
        "velocity": 1,
        "hand": "right"
      },
      {
        "midi": 71,
        "time": 110.555,
        "duration": 0.278,
        "velocity": 1,
        "hand": "right"
      },
      {
        "midi": 42,
        "time": 111.389,
        "duration": 0.278,
        "velocity": 1,
        "hand": "left"
      },
      {
        "midi": 47,
        "time": 111.389,
        "duration": 0.278,
        "velocity": 1,
        "hand": "left"
      },
      {
        "midi": 50,
        "time": 112.222,
        "duration": 3.333,
        "velocity": 1,
        "hand": "left"
      },
      {
        "midi": 57,
        "time": 112.222,
        "duration": 3.318,
        "velocity": 1,
        "hand": "left"
      },
      {
        "midi": 66,
        "time": 112.222,
        "duration": 3.333,
        "velocity": 1,
        "hand": "right"
      },
      {
        "midi": 74,
        "time": 112.222,
        "duration": 0.833,
        "velocity": 1,
        "hand": "right"
      },
      {
        "midi": 73,
        "time": 113.055,
        "duration": 0.833,
        "velocity": 1,
        "hand": "right"
      },
      {
        "midi": 71,
        "time": 113.889,
        "duration": 0.556,
        "velocity": 1,
        "hand": "right"
      },
      {
        "midi": 69,
        "time": 114.444,
        "duration": 0.263,
        "velocity": 1,
        "hand": "right"
      },
      {
        "midi": 69,
        "time": 114.722,
        "duration": 0.833,
        "velocity": 1,
        "hand": "right"
      },
      {
        "midi": 49,
        "time": 115.555,
        "duration": 1.667,
        "velocity": 1,
        "hand": "left"
      },
      {
        "midi": 57,
        "time": 115.555,
        "duration": 3.333,
        "velocity": 1,
        "hand": "left"
      },
      {
        "midi": 64,
        "time": 115.555,
        "duration": 1.667,
        "velocity": 1,
        "hand": "right"
      },
      {
        "midi": 71,
        "time": 115.555,
        "duration": 0.833,
        "velocity": 1,
        "hand": "right"
      },
      {
        "midi": 69,
        "time": 116.389,
        "duration": 0.833,
        "velocity": 1,
        "hand": "right"
      },
      {
        "midi": 48,
        "time": 117.222,
        "duration": 1.667,
        "velocity": 1,
        "hand": "left"
      },
      {
        "midi": 63,
        "time": 117.222,
        "duration": 1.667,
        "velocity": 1,
        "hand": "right"
      },
      {
        "midi": 67,
        "time": 117.222,
        "duration": 0.556,
        "velocity": 1,
        "hand": "right"
      },
      {
        "midi": 66,
        "time": 117.778,
        "duration": 0.262,
        "velocity": 1,
        "hand": "right"
      },
      {
        "midi": 66,
        "time": 118.055,
        "duration": 0.833,
        "velocity": 1,
        "hand": "right"
      },
      {
        "midi": 47,
        "time": 118.889,
        "duration": 3.333,
        "velocity": 1,
        "hand": "left"
      },
      {
        "midi": 54,
        "time": 118.889,
        "duration": 1.667,
        "velocity": 1,
        "hand": "left"
      },
      {
        "midi": 62,
        "time": 118.889,
        "duration": 0.818,
        "velocity": 1,
        "hand": "right"
      },
      {
        "midi": 69,
        "time": 118.889,
        "duration": 0.833,
        "velocity": 1,
        "hand": "right"
      },
      {
        "midi": 62,
        "time": 119.722,
        "duration": 0.818,
        "velocity": 1,
        "hand": "right"
      },
      {
        "midi": 56,
        "time": 120.555,
        "duration": 1.667,
        "velocity": 1,
        "hand": "left"
      },
      {
        "midi": 62,
        "time": 120.555,
        "duration": 1.667,
        "velocity": 1,
        "hand": "right"
      },
      {
        "midi": 66,
        "time": 120.555,
        "duration": 0.556,
        "velocity": 1,
        "hand": "right"
      },
      {
        "midi": 64,
        "time": 121.111,
        "duration": 0.263,
        "velocity": 1,
        "hand": "right"
      },
      {
        "midi": 64,
        "time": 121.389,
        "duration": 0.833,
        "velocity": 1,
        "hand": "right"
      },
      {
        "midi": 44,
        "time": 122.222,
        "duration": 1.667,
        "velocity": 1,
        "hand": "left"
      },
      {
        "midi": 50,
        "time": 122.222,
        "duration": 1.667,
        "velocity": 1,
        "hand": "left"
      },
      {
        "midi": 66,
        "time": 122.222,
        "duration": 0.833,
        "velocity": 1,
        "hand": "right"
      },
      {
        "midi": 59,
        "time": 123.055,
        "duration": 0.833,
        "velocity": 1,
        "hand": "left"
      },
      {
        "midi": 43,
        "time": 123.889,
        "duration": 1.667,
        "velocity": 1,
        "hand": "left"
      },
      {
        "midi": 52,
        "time": 123.889,
        "duration": 1.667,
        "velocity": 1,
        "hand": "left"
      },
      {
        "midi": 62,
        "time": 123.889,
        "duration": 0.556,
        "velocity": 1,
        "hand": "right"
      },
      {
        "midi": 61,
        "time": 124.444,
        "duration": 0.263,
        "velocity": 1,
        "hand": "right"
      },
      {
        "midi": 61,
        "time": 124.722,
        "duration": 0.833,
        "velocity": 1,
        "hand": "right"
      },
      {
        "midi": 42,
        "time": 125.555,
        "duration": 1.667,
        "velocity": 1,
        "hand": "left"
      },
      {
        "midi": 45,
        "time": 125.555,
        "duration": 0.833,
        "velocity": 1,
        "hand": "left"
      },
      {
        "midi": 62,
        "time": 125.555,
        "duration": 1.667,
        "velocity": 1,
        "hand": "right"
      },
      {
        "midi": 69,
        "time": 125.555,
        "duration": 1.667,
        "velocity": 1,
        "hand": "right"
      },
      {
        "midi": 47,
        "time": 126.389,
        "duration": 0.833,
        "velocity": 1,
        "hand": "left"
      },
      {
        "midi": 45,
        "time": 127.222,
        "duration": 1.667,
        "velocity": 1,
        "hand": "left"
      },
      {
        "midi": 49,
        "time": 127.222,
        "duration": 0.556,
        "velocity": 1,
        "hand": "left"
      },
      {
        "midi": 50,
        "time": 127.778,
        "duration": 0.262,
        "velocity": 1,
        "hand": "left"
      },
      {
        "midi": 50,
        "time": 128.055,
        "duration": 0.833,
        "velocity": 1,
        "hand": "left"
      },
      {
        "midi": 44,
        "time": 128.889,
        "duration": 1.667,
        "velocity": 1,
        "hand": "left"
      },
      {
        "midi": 52,
        "time": 128.889,
        "duration": 0.833,
        "velocity": 1,
        "hand": "left"
      },
      {
        "midi": 62,
        "time": 128.889,
        "duration": 1.667,
        "velocity": 1,
        "hand": "right"
      },
      {
        "midi": 71,
        "time": 128.889,
        "duration": 1.667,
        "velocity": 1,
        "hand": "right"
      },
      {
        "midi": 74,
        "time": 128.889,
        "duration": 1.667,
        "velocity": 1,
        "hand": "right"
      },
      {
        "midi": 54,
        "time": 129.722,
        "duration": 0.833,
        "velocity": 1,
        "hand": "left"
      },
      {
        "midi": 50,
        "time": 130.555,
        "duration": 1.667,
        "velocity": 1,
        "hand": "left"
      },
      {
        "midi": 55,
        "time": 130.555,
        "duration": 0.556,
        "velocity": 1,
        "hand": "left"
      },
      {
        "midi": 64,
        "time": 130.555,
        "duration": 1.652,
        "velocity": 1,
        "hand": "right"
      },
      {
        "midi": 56,
        "time": 131.111,
        "duration": 0.263,
        "velocity": 1,
        "hand": "left"
      },
      {
        "midi": 56,
        "time": 131.389,
        "duration": 0.818,
        "velocity": 1,
        "hand": "left"
      },
      {
        "midi": 49,
        "time": 132.222,
        "duration": 1.667,
        "velocity": 1,
        "hand": "left"
      },
      {
        "midi": 56,
        "time": 132.222,
        "duration": 0.833,
        "velocity": 1,
        "hand": "left"
      },
      {
        "midi": 64,
        "time": 132.222,
        "duration": 1.667,
        "velocity": 1,
        "hand": "right"
      },
      {
        "midi": 76,
        "time": 132.222,
        "duration": 1.667,
        "velocity": 1,
        "hand": "right"
      },
      {
        "midi": 57,
        "time": 133.055,
        "duration": 0.833,
        "velocity": 1,
        "hand": "left"
      },
      {
        "midi": 54,
        "time": 133.889,
        "duration": 1.667,
        "velocity": 1,
        "hand": "left"
      },
      {
        "midi": 59,
        "time": 133.889,
        "duration": 0.556,
        "velocity": 1,
        "hand": "left"
      },
      {
        "midi": 69,
        "time": 133.889,
        "duration": 1.651,
        "velocity": 1,
        "hand": "right"
      },
      {
        "midi": 75,
        "time": 133.889,
        "duration": 1.667,
        "velocity": 1,
        "hand": "right"
      },
      {
        "midi": 60,
        "time": 134.444,
        "duration": 0.263,
        "velocity": 1,
        "hand": "right"
      },
      {
        "midi": 60,
        "time": 134.722,
        "duration": 0.833,
        "velocity": 1,
        "hand": "right"
      },
      {
        "midi": 52,
        "time": 135.555,
        "duration": 1.652,
        "velocity": 1,
        "hand": "left"
      },
      {
        "midi": 61,
        "time": 135.555,
        "duration": 0.833,
        "velocity": 1,
        "hand": "right"
      },
      {
        "midi": 69,
        "time": 135.555,
        "duration": 0.819,
        "velocity": 1,
        "hand": "right"
      },
      {
        "midi": 76,
        "time": 135.555,
        "duration": 0.833,
        "velocity": 1,
        "hand": "right"
      },
      {
        "midi": 81,
        "time": 135.555,
        "duration": 0.833,
        "velocity": 1,
        "hand": "right"
      },
      {
        "midi": 66,
        "time": 136.389,
        "duration": 0.556,
        "velocity": 1,
        "hand": "right"
      },
      {
        "midi": 69,
        "time": 136.389,
        "duration": 0.833,
        "velocity": 1,
        "hand": "right"
      },
      {
        "midi": 73,
        "time": 136.389,
        "duration": 0.818,
        "velocity": 1,
        "hand": "right"
      },
      {
        "midi": 64,
        "time": 136.944,
        "duration": 0.278,
        "velocity": 1,
        "hand": "right"
      },
      {
        "midi": 52,
        "time": 137.222,
        "duration": 0.833,
        "velocity": 1,
        "hand": "left"
      },
      {
        "midi": 62,
        "time": 137.222,
        "duration": 0.833,
        "velocity": 1,
        "hand": "right"
      },
      {
        "midi": 68,
        "time": 137.222,
        "duration": 0.833,
        "velocity": 1,
        "hand": "right"
      },
      {
        "midi": 73,
        "time": 137.222,
        "duration": 0.556,
        "velocity": 1,
        "hand": "right"
      },
      {
        "midi": 71,
        "time": 137.778,
        "duration": 0.278,
        "velocity": 1,
        "hand": "right"
      },
      {
        "midi": 57,
        "time": 138.055,
        "duration": 0.819,
        "velocity": 1,
        "hand": "left"
      },
      {
        "midi": 61,
        "time": 138.055,
        "duration": 0.833,
        "velocity": 1,
        "hand": "right"
      },
      {
        "midi": 69,
        "time": 138.055,
        "duration": 0.833,
        "velocity": 1,
        "hand": "right"
      },
      {
        "midi": 49,
        "time": 138.889,
        "duration": 1.667,
        "velocity": 1,
        "hand": "left"
      },
      {
        "midi": 57,
        "time": 138.889,
        "duration": 3.333,
        "velocity": 1,
        "hand": "left"
      },
      {
        "midi": 67,
        "time": 138.889,
        "duration": 1.667,
        "velocity": 1,
        "hand": "right"
      },
      {
        "midi": 76,
        "time": 138.889,
        "duration": 0.833,
        "velocity": 1,
        "hand": "right"
      },
      {
        "midi": 69,
        "time": 139.722,
        "duration": 0.833,
        "velocity": 1,
        "hand": "right"
      },
      {
        "midi": 50,
        "time": 140.555,
        "duration": 1.667,
        "velocity": 1,
        "hand": "left"
      },
      {
        "midi": 66,
        "time": 140.555,
        "duration": 1.652,
        "velocity": 1,
        "hand": "right"
      },
      {
        "midi": 71,
        "time": 140.555,
        "duration": 0.556,
        "velocity": 1,
        "hand": "right"
      },
      {
        "midi": 69,
        "time": 141.111,
        "duration": 0.263,
        "velocity": 1,
        "hand": "right"
      },
      {
        "midi": 69,
        "time": 141.389,
        "duration": 0.818,
        "velocity": 1,
        "hand": "right"
      },
      {
        "midi": 51,
        "time": 142.222,
        "duration": 1.667,
        "velocity": 1,
        "hand": "left"
      },
      {
        "midi": 66,
        "time": 142.222,
        "duration": 0.833,
        "velocity": 1,
        "hand": "right"
      },
      {
        "midi": 69,
        "time": 142.222,
        "duration": 1.667,
        "velocity": 1,
        "hand": "right"
      },
      {
        "midi": 71,
        "time": 142.222,
        "duration": 1.667,
        "velocity": 1,
        "hand": "right"
      },
      {
        "midi": 59,
        "time": 143.055,
        "duration": 0.833,
        "velocity": 1,
        "hand": "left"
      },
      {
        "midi": 52,
        "time": 143.889,
        "duration": 1.667,
        "velocity": 1,
        "hand": "left"
      },
      {
        "midi": 61,
        "time": 143.889,
        "duration": 0.556,
        "velocity": 1,
        "hand": "right"
      },
      {
        "midi": 67,
        "time": 143.889,
        "duration": 0.833,
        "velocity": 1,
        "hand": "right"
      },
      {
        "midi": 70,
        "time": 143.889,
        "duration": 0.833,
        "velocity": 1,
        "hand": "right"
      },
      {
        "midi": 59,
        "time": 144.444,
        "duration": 0.263,
        "velocity": 1,
        "hand": "left"
      },
      {
        "midi": 59,
        "time": 144.722,
        "duration": 0.833,
        "velocity": 1,
        "hand": "left"
      },
      {
        "midi": 68,
        "time": 144.722,
        "duration": 0.833,
        "velocity": 1,
        "hand": "right"
      },
      {
        "midi": 71,
        "time": 144.722,
        "duration": 0.818,
        "velocity": 1,
        "hand": "right"
      },
      {
        "midi": 53,
        "time": 145.555,
        "duration": 1.667,
        "velocity": 1,
        "hand": "left"
      },
      {
        "midi": 61,
        "time": 145.555,
        "duration": 3.333,
        "velocity": 1,
        "hand": "right"
      },
      {
        "midi": 71,
        "time": 145.555,
        "duration": 1.667,
        "velocity": 1,
        "hand": "right"
      },
      {
        "midi": 80,
        "time": 145.555,
        "duration": 0.833,
        "velocity": 1,
        "hand": "right"
      },
      {
        "midi": 73,
        "time": 146.389,
        "duration": 0.833,
        "velocity": 1,
        "hand": "right"
      },
      {
        "midi": 54,
        "time": 147.222,
        "duration": 1.652,
        "velocity": 1,
        "hand": "left"
      },
      {
        "midi": 69,
        "time": 147.222,
        "duration": 1.652,
        "velocity": 1,
        "hand": "right"
      },
      {
        "midi": 74,
        "time": 147.222,
        "duration": 0.556,
        "velocity": 1,
        "hand": "right"
      },
      {
        "midi": 73,
        "time": 147.778,
        "duration": 0.262,
        "velocity": 1,
        "hand": "right"
      },
      {
        "midi": 73,
        "time": 148.055,
        "duration": 0.833,
        "velocity": 1,
        "hand": "right"
      },
      {
        "midi": 54,
        "time": 148.889,
        "duration": 1.667,
        "velocity": 1,
        "hand": "left"
      },
      {
        "midi": 69,
        "time": 148.889,
        "duration": 0.833,
        "velocity": 1,
        "hand": "right"
      },
      {
        "midi": 72,
        "time": 148.889,
        "duration": 1.667,
        "velocity": 1,
        "hand": "right"
      },
      {
        "midi": 74,
        "time": 148.889,
        "duration": 1.667,
        "velocity": 1,
        "hand": "right"
      },
      {
        "midi": 62,
        "time": 149.722,
        "duration": 0.833,
        "velocity": 1,
        "hand": "right"
      },
      {
        "midi": 55,
        "time": 150.555,
        "duration": 1.667,
        "velocity": 1,
        "hand": "left"
      },
      {
        "midi": 64,
        "time": 150.555,
        "duration": 0.556,
        "velocity": 1,
        "hand": "right"
      },
      {
        "midi": 70,
        "time": 150.555,
        "duration": 0.833,
        "velocity": 1,
        "hand": "right"
      },
      {
        "midi": 73,
        "time": 150.555,
        "duration": 0.833,
        "velocity": 1,
        "hand": "right"
      },
      {
        "midi": 62,
        "time": 151.111,
        "duration": 0.263,
        "velocity": 1,
        "hand": "right"
      },
      {
        "midi": 62,
        "time": 151.389,
        "duration": 0.833,
        "velocity": 1,
        "hand": "right"
      },
      {
        "midi": 71,
        "time": 151.389,
        "duration": 0.833,
        "velocity": 1,
        "hand": "right"
      },
      {
        "midi": 74,
        "time": 151.389,
        "duration": 0.818,
        "velocity": 1,
        "hand": "right"
      },
      {
        "midi": 56,
        "time": 152.222,
        "duration": 1.667,
        "velocity": 1,
        "hand": "left"
      },
      {
        "midi": 64,
        "time": 152.222,
        "duration": 3.333,
        "velocity": 1,
        "hand": "right"
      },
      {
        "midi": 74,
        "time": 152.222,
        "duration": 1.667,
        "velocity": 1,
        "hand": "right"
      },
      {
        "midi": 83,
        "time": 152.222,
        "duration": 0.833,
        "velocity": 1,
        "hand": "right"
      },
      {
        "midi": 76,
        "time": 153.055,
        "duration": 0.833,
        "velocity": 1,
        "hand": "right"
      },
      {
        "midi": 57,
        "time": 153.889,
        "duration": 1.667,
        "velocity": 1,
        "hand": "left"
      },
      {
        "midi": 73,
        "time": 153.889,
        "duration": 1.651,
        "velocity": 1,
        "hand": "right"
      },
      {
        "midi": 75,
        "time": 153.889,
        "duration": 0.556,
        "velocity": 1,
        "hand": "right"
      },
      {
        "midi": 76,
        "time": 154.444,
        "duration": 0.263,
        "velocity": 1,
        "hand": "right"
      },
      {
        "midi": 76,
        "time": 154.722,
        "duration": 0.818,
        "velocity": 1,
        "hand": "right"
      },
      {
        "midi": 58,
        "time": 155.555,
        "duration": 1.667,
        "velocity": 1,
        "hand": "left"
      },
      {
        "midi": 66,
        "time": 155.555,
        "duration": 3.319,
        "velocity": 1,
        "hand": "right"
      },
      {
        "midi": 73,
        "time": 155.555,
        "duration": 0.833,
        "velocity": 1,
        "hand": "right"
      },
      {
        "midi": 76,
        "time": 155.555,
        "duration": 1.667,
        "velocity": 1,
        "hand": "right"
      },
      {
        "midi": 78,
        "time": 156.389,
        "duration": 0.833,
        "velocity": 1,
        "hand": "right"
      },
      {
        "midi": 59,
        "time": 157.222,
        "duration": 1.667,
        "velocity": 1,
        "hand": "left"
      },
      {
        "midi": 74,
        "time": 157.222,
        "duration": 1.667,
        "velocity": 1,
        "hand": "right"
      },
      {
        "midi": 77,
        "time": 157.222,
        "duration": 0.556,
        "velocity": 1,
        "hand": "right"
      },
      {
        "midi": 78,
        "time": 157.778,
        "duration": 0.262,
        "velocity": 1,
        "hand": "right"
      },
      {
        "midi": 78,
        "time": 158.055,
        "duration": 0.833,
        "velocity": 1,
        "hand": "right"
      },
      {
        "midi": 52,
        "time": 158.889,
        "duration": 3.318,
        "velocity": 1,
        "hand": "left"
      },
      {
        "midi": 66,
        "time": 158.889,
        "duration": 0.833,
        "velocity": 1,
        "hand": "right"
      },
      {
        "midi": 68,
        "time": 158.889,
        "duration": 3.333,
        "velocity": 1,
        "hand": "right"
      },
      {
        "midi": 71,
        "time": 158.889,
        "duration": 3.333,
        "velocity": 1,
        "hand": "right"
      },
      {
        "midi": 59,
        "time": 159.722,
        "duration": 0.833,
        "velocity": 1,
        "hand": "left"
      },
      {
        "midi": 66,
        "time": 160.555,
        "duration": 0.556,
        "velocity": 1,
        "hand": "right"
      },
      {
        "midi": 64,
        "time": 161.111,
        "duration": 0.263,
        "velocity": 1,
        "hand": "right"
      },
      {
        "midi": 64,
        "time": 161.389,
        "duration": 0.833,
        "velocity": 1,
        "hand": "right"
      },
      {
        "midi": 46,
        "time": 162.222,
        "duration": 1.667,
        "velocity": 1,
        "hand": "left"
      },
      {
        "midi": 52,
        "time": 162.222,
        "duration": 3.333,
        "velocity": 1,
        "hand": "left"
      },
      {
        "midi": 67,
        "time": 162.222,
        "duration": 0.818,
        "velocity": 1,
        "hand": "right"
      },
      {
        "midi": 74,
        "time": 162.222,
        "duration": 0.833,
        "velocity": 1,
        "hand": "right"
      },
      {
        "midi": 67,
        "time": 163.055,
        "duration": 0.819,
        "velocity": 1,
        "hand": "right"
      },
      {
        "midi": 45,
        "time": 163.889,
        "duration": 1.667,
        "velocity": 1,
        "hand": "left"
      },
      {
        "midi": 67,
        "time": 163.889,
        "duration": 1.667,
        "velocity": 1,
        "hand": "right"
      },
      {
        "midi": 74,
        "time": 163.889,
        "duration": 0.556,
        "velocity": 1,
        "hand": "right"
      },
      {
        "midi": 73,
        "time": 164.444,
        "duration": 0.263,
        "velocity": 1,
        "hand": "right"
      },
      {
        "midi": 73,
        "time": 164.722,
        "duration": 0.833,
        "velocity": 1,
        "hand": "right"
      },
      {
        "midi": 50,
        "time": 165.555,
        "duration": 3.333,
        "velocity": 1,
        "hand": "left"
      },
      {
        "midi": 57,
        "time": 165.555,
        "duration": 3.319,
        "velocity": 1,
        "hand": "left"
      },
      {
        "midi": 66,
        "time": 165.555,
        "duration": 3.333,
        "velocity": 1,
        "hand": "right"
      },
      {
        "midi": 74,
        "time": 165.555,
        "duration": 0.833,
        "velocity": 1,
        "hand": "right"
      },
      {
        "midi": 73,
        "time": 166.389,
        "duration": 0.833,
        "velocity": 1,
        "hand": "right"
      },
      {
        "midi": 71,
        "time": 167.222,
        "duration": 0.556,
        "velocity": 1,
        "hand": "right"
      },
      {
        "midi": 69,
        "time": 167.778,
        "duration": 0.262,
        "velocity": 1,
        "hand": "right"
      },
      {
        "midi": 69,
        "time": 168.055,
        "duration": 0.833,
        "velocity": 1,
        "hand": "right"
      },
      {
        "midi": 49,
        "time": 168.889,
        "duration": 1.667,
        "velocity": 1,
        "hand": "left"
      },
      {
        "midi": 57,
        "time": 168.889,
        "duration": 3.333,
        "velocity": 1,
        "hand": "left"
      },
      {
        "midi": 64,
        "time": 168.889,
        "duration": 1.667,
        "velocity": 1,
        "hand": "right"
      },
      {
        "midi": 71,
        "time": 168.889,
        "duration": 0.833,
        "velocity": 1,
        "hand": "right"
      },
      {
        "midi": 69,
        "time": 169.722,
        "duration": 0.833,
        "velocity": 1,
        "hand": "right"
      },
      {
        "midi": 48,
        "time": 170.555,
        "duration": 1.667,
        "velocity": 1,
        "hand": "left"
      },
      {
        "midi": 63,
        "time": 170.555,
        "duration": 1.667,
        "velocity": 1,
        "hand": "right"
      },
      {
        "midi": 67,
        "time": 170.555,
        "duration": 0.556,
        "velocity": 1,
        "hand": "right"
      },
      {
        "midi": 66,
        "time": 171.111,
        "duration": 0.263,
        "velocity": 1,
        "hand": "right"
      },
      {
        "midi": 66,
        "time": 171.389,
        "duration": 0.833,
        "velocity": 1,
        "hand": "right"
      },
      {
        "midi": 47,
        "time": 172.222,
        "duration": 3.333,
        "velocity": 1,
        "hand": "left"
      },
      {
        "midi": 54,
        "time": 172.222,
        "duration": 1.667,
        "velocity": 1,
        "hand": "left"
      },
      {
        "midi": 62,
        "time": 172.222,
        "duration": 0.818,
        "velocity": 1,
        "hand": "right"
      },
      {
        "midi": 69,
        "time": 172.222,
        "duration": 0.833,
        "velocity": 1,
        "hand": "right"
      },
      {
        "midi": 62,
        "time": 173.055,
        "duration": 0.819,
        "velocity": 1,
        "hand": "right"
      },
      {
        "midi": 56,
        "time": 173.889,
        "duration": 1.667,
        "velocity": 1,
        "hand": "left"
      },
      {
        "midi": 62,
        "time": 173.889,
        "duration": 1.667,
        "velocity": 1,
        "hand": "right"
      },
      {
        "midi": 66,
        "time": 173.889,
        "duration": 0.556,
        "velocity": 1,
        "hand": "right"
      },
      {
        "midi": 64,
        "time": 174.444,
        "duration": 0.263,
        "velocity": 1,
        "hand": "right"
      },
      {
        "midi": 64,
        "time": 174.722,
        "duration": 0.833,
        "velocity": 1,
        "hand": "right"
      },
      {
        "midi": 44,
        "time": 175.555,
        "duration": 1.667,
        "velocity": 1,
        "hand": "left"
      },
      {
        "midi": 50,
        "time": 175.555,
        "duration": 1.667,
        "velocity": 1,
        "hand": "left"
      },
      {
        "midi": 66,
        "time": 175.555,
        "duration": 0.833,
        "velocity": 1,
        "hand": "right"
      },
      {
        "midi": 59,
        "time": 176.389,
        "duration": 0.833,
        "velocity": 1,
        "hand": "left"
      },
      {
        "midi": 43,
        "time": 177.222,
        "duration": 1.667,
        "velocity": 1,
        "hand": "left"
      },
      {
        "midi": 52,
        "time": 177.222,
        "duration": 1.667,
        "velocity": 1,
        "hand": "left"
      },
      {
        "midi": 62,
        "time": 177.222,
        "duration": 0.556,
        "velocity": 1,
        "hand": "right"
      },
      {
        "midi": 61,
        "time": 177.778,
        "duration": 0.262,
        "velocity": 1,
        "hand": "right"
      },
      {
        "midi": 61,
        "time": 178.055,
        "duration": 0.833,
        "velocity": 1,
        "hand": "right"
      },
      {
        "midi": 42,
        "time": 178.889,
        "duration": 1.667,
        "velocity": 1,
        "hand": "left"
      },
      {
        "midi": 45,
        "time": 178.889,
        "duration": 0.833,
        "velocity": 1,
        "hand": "left"
      },
      {
        "midi": 62,
        "time": 178.889,
        "duration": 1.651,
        "velocity": 1,
        "hand": "right"
      },
      {
        "midi": 69,
        "time": 178.889,
        "duration": 1.667,
        "velocity": 1,
        "hand": "right"
      },
      {
        "midi": 47,
        "time": 179.722,
        "duration": 0.818,
        "velocity": 1,
        "hand": "left"
      },
      {
        "midi": 45,
        "time": 180.555,
        "duration": 1.667,
        "velocity": 1,
        "hand": "left"
      },
      {
        "midi": 47,
        "time": 180.555,
        "duration": 0.556,
        "velocity": 1,
        "hand": "left"
      },
      {
        "midi": 62,
        "time": 180.555,
        "duration": 1.652,
        "velocity": 1,
        "hand": "right"
      },
      {
        "midi": 48,
        "time": 181.111,
        "duration": 0.263,
        "velocity": 1,
        "hand": "left"
      },
      {
        "midi": 48,
        "time": 181.389,
        "duration": 0.833,
        "velocity": 1,
        "hand": "left"
      },
      {
        "midi": 43,
        "time": 182.222,
        "duration": 1.667,
        "velocity": 1,
        "hand": "left"
      },
      {
        "midi": 46,
        "time": 182.222,
        "duration": 0.833,
        "velocity": 1,
        "hand": "left"
      },
      {
        "midi": 62,
        "time": 182.222,
        "duration": 1.667,
        "velocity": 1,
        "hand": "right"
      },
      {
        "midi": 67,
        "time": 182.222,
        "duration": 1.667,
        "velocity": 1,
        "hand": "right"
      },
      {
        "midi": 74,
        "time": 182.222,
        "duration": 1.667,
        "velocity": 1,
        "hand": "right"
      },
      {
        "midi": 47,
        "time": 183.055,
        "duration": 0.833,
        "velocity": 1,
        "hand": "left"
      },
      {
        "midi": 44,
        "time": 183.889,
        "duration": 1.667,
        "velocity": 1,
        "hand": "left"
      },
      {
        "midi": 49,
        "time": 183.889,
        "duration": 0.556,
        "velocity": 1,
        "hand": "left"
      },
      {
        "midi": 65,
        "time": 183.889,
        "duration": 1.667,
        "velocity": 1,
        "hand": "right"
      },
      {
        "midi": 71,
        "time": 183.889,
        "duration": 1.667,
        "velocity": 1,
        "hand": "right"
      },
      {
        "midi": 50,
        "time": 184.444,
        "duration": 0.263,
        "velocity": 1,
        "hand": "left"
      },
      {
        "midi": 50,
        "time": 184.722,
        "duration": 0.818,
        "velocity": 1,
        "hand": "left"
      },
      {
        "midi": 42,
        "time": 185.555,
        "duration": 1.667,
        "velocity": 1,
        "hand": "left"
      },
      {
        "midi": 50,
        "time": 185.555,
        "duration": 0.833,
        "velocity": 1,
        "hand": "left"
      },
      {
        "midi": 66,
        "time": 185.555,
        "duration": 1.667,
        "velocity": 1,
        "hand": "right"
      },
      {
        "midi": 69,
        "time": 185.555,
        "duration": 1.667,
        "velocity": 1,
        "hand": "right"
      },
      {
        "midi": 51,
        "time": 186.389,
        "duration": 0.833,
        "velocity": 1,
        "hand": "left"
      },
      {
        "midi": 43,
        "time": 187.222,
        "duration": 1.667,
        "velocity": 1,
        "hand": "left"
      },
      {
        "midi": 57,
        "time": 187.222,
        "duration": 0.556,
        "velocity": 1,
        "hand": "left"
      },
      {
        "midi": 64,
        "time": 187.222,
        "duration": 1.667,
        "velocity": 1,
        "hand": "right"
      },
      {
        "midi": 55,
        "time": 187.778,
        "duration": 0.262,
        "velocity": 1,
        "hand": "left"
      },
      {
        "midi": 55,
        "time": 188.055,
        "duration": 0.819,
        "velocity": 1,
        "hand": "left"
      },
      {
        "midi": 45,
        "time": 188.889,
        "duration": 1.667,
        "velocity": 1,
        "hand": "left"
      },
      {
        "midi": 54,
        "time": 188.889,
        "duration": 0.556,
        "velocity": 1,
        "hand": "left"
      },
      {
        "midi": 61,
        "time": 188.889,
        "duration": 1.667,
        "velocity": 1,
        "hand": "right"
      },
      {
        "midi": 52,
        "time": 189.444,
        "duration": 0.263,
        "velocity": 1,
        "hand": "left"
      },
      {
        "midi": 52,
        "time": 189.722,
        "duration": 0.833,
        "velocity": 1,
        "hand": "left"
      },
      {
        "midi": 38,
        "time": 190.555,
        "duration": 1.667,
        "velocity": 1,
        "hand": "left"
      },
      {
        "midi": 46,
        "time": 190.555,
        "duration": 0.556,
        "velocity": 1,
        "hand": "left"
      },
      {
        "midi": 62,
        "time": 190.555,
        "duration": 1.652,
        "velocity": 1,
        "hand": "right"
      },
      {
        "midi": 45,
        "time": 191.111,
        "duration": 0.263,
        "velocity": 1,
        "hand": "left"
      },
      {
        "midi": 45,
        "time": 191.389,
        "duration": 0.833,
        "velocity": 1,
        "hand": "left"
      },
      {
        "midi": 54,
        "time": 192.222,
        "duration": 3.318,
        "velocity": 1,
        "hand": "left"
      },
      {
        "midi": 62,
        "time": 192.222,
        "duration": 0.833,
        "velocity": 1,
        "hand": "right"
      },
      {
        "midi": 66,
        "time": 192.222,
        "duration": 1.667,
        "velocity": 1,
        "hand": "right"
      },
      {
        "midi": 71,
        "time": 192.222,
        "duration": 0.833,
        "velocity": 1,
        "hand": "right"
      },
      {
        "midi": 61,
        "time": 193.055,
        "duration": 0.819,
        "velocity": 1,
        "hand": "right"
      },
      {
        "midi": 70,
        "time": 193.055,
        "duration": 0.833,
        "velocity": 1,
        "hand": "right"
      },
      {
        "midi": 59,
        "time": 193.889,
        "duration": 0.833,
        "velocity": 1,
        "hand": "left"
      },
      {
        "midi": 61,
        "time": 193.889,
        "duration": 1.667,
        "velocity": 1,
        "hand": "right"
      },
      {
        "midi": 67,
        "time": 193.889,
        "duration": 0.556,
        "velocity": 1,
        "hand": "right"
      },
      {
        "midi": 66,
        "time": 194.444,
        "duration": 0.263,
        "velocity": 1,
        "hand": "right"
      },
      {
        "midi": 58,
        "time": 194.722,
        "duration": 0.833,
        "velocity": 1,
        "hand": "left"
      },
      {
        "midi": 66,
        "time": 194.722,
        "duration": 0.818,
        "velocity": 1,
        "hand": "right"
      },
      {
        "midi": 54,
        "time": 195.555,
        "duration": 3.333,
        "velocity": 1,
        "hand": "left"
      },
      {
        "midi": 56,
        "time": 195.555,
        "duration": 0.833,
        "velocity": 1,
        "hand": "left"
      },
      {
        "midi": 64,
        "time": 195.555,
        "duration": 1.667,
        "velocity": 1,
        "hand": "right"
      },
      {
        "midi": 66,
        "time": 195.555,
        "duration": 1.652,
        "velocity": 1,
        "hand": "right"
      },
      {
        "midi": 74,
        "time": 195.555,
        "duration": 0.833,
        "velocity": 1,
        "hand": "right"
      },
      {
        "midi": 58,
        "time": 196.389,
        "duration": 0.833,
        "velocity": 1,
        "hand": "left"
      },
      {
        "midi": 73,
        "time": 196.389,
        "duration": 0.833,
        "velocity": 1,
        "hand": "right"
      },
      {
        "midi": 59,
        "time": 197.222,
        "duration": 0.556,
        "velocity": 1,
        "hand": "left"
      },
      {
        "midi": 62,
        "time": 197.222,
        "duration": 0.833,
        "velocity": 1,
        "hand": "right"
      },
      {
        "midi": 66,
        "time": 197.222,
        "duration": 0.818,
        "velocity": 1,
        "hand": "right"
      },
      {
        "midi": 71,
        "time": 197.222,
        "duration": 0.833,
        "velocity": 1,
        "hand": "right"
      },
      {
        "midi": 61,
        "time": 197.778,
        "duration": 0.262,
        "velocity": 1,
        "hand": "right"
      },
      {
        "midi": 61,
        "time": 198.055,
        "duration": 0.833,
        "velocity": 1,
        "hand": "right"
      },
      {
        "midi": 66,
        "time": 198.055,
        "duration": 0.819,
        "velocity": 1,
        "hand": "right"
      },
      {
        "midi": 70,
        "time": 198.055,
        "duration": 0.833,
        "velocity": 1,
        "hand": "right"
      },
      {
        "midi": 66,
        "time": 198.889,
        "duration": 3.318,
        "velocity": 1,
        "hand": "right"
      },
      {
        "midi": 74,
        "time": 198.889,
        "duration": 0.833,
        "velocity": 1,
        "hand": "right"
      },
      {
        "midi": 78,
        "time": 198.889,
        "duration": 1.667,
        "velocity": 1,
        "hand": "right"
      },
      {
        "midi": 83,
        "time": 198.889,
        "duration": 0.833,
        "velocity": 1,
        "hand": "right"
      },
      {
        "midi": 73,
        "time": 199.722,
        "duration": 0.818,
        "velocity": 1,
        "hand": "right"
      },
      {
        "midi": 82,
        "time": 199.722,
        "duration": 0.833,
        "velocity": 1,
        "hand": "right"
      },
      {
        "midi": 71,
        "time": 200.555,
        "duration": 0.833,
        "velocity": 1,
        "hand": "right"
      },
      {
        "midi": 73,
        "time": 200.555,
        "duration": 1.667,
        "velocity": 1,
        "hand": "right"
      },
      {
        "midi": 79,
        "time": 200.555,
        "duration": 0.556,
        "velocity": 1,
        "hand": "right"
      },
      {
        "midi": 78,
        "time": 201.111,
        "duration": 0.263,
        "velocity": 1,
        "hand": "right"
      },
      {
        "midi": 70,
        "time": 201.389,
        "duration": 0.833,
        "velocity": 1,
        "hand": "right"
      },
      {
        "midi": 78,
        "time": 201.389,
        "duration": 0.818,
        "velocity": 1,
        "hand": "right"
      },
      {
        "midi": 68,
        "time": 202.222,
        "duration": 0.833,
        "velocity": 1,
        "hand": "right"
      },
      {
        "midi": 74,
        "time": 202.222,
        "duration": 0.833,
        "velocity": 1,
        "hand": "right"
      },
      {
        "midi": 76,
        "time": 202.222,
        "duration": 1.667,
        "velocity": 1,
        "hand": "right"
      },
      {
        "midi": 78,
        "time": 202.222,
        "duration": 1.652,
        "velocity": 1,
        "hand": "right"
      },
      {
        "midi": 70,
        "time": 203.055,
        "duration": 0.833,
        "velocity": 1,
        "hand": "right"
      },
      {
        "midi": 73,
        "time": 203.055,
        "duration": 0.833,
        "velocity": 1,
        "hand": "right"
      },
      {
        "midi": 71,
        "time": 203.889,
        "duration": 0.556,
        "velocity": 1,
        "hand": "right"
      },
      {
        "midi": 74,
        "time": 203.889,
        "duration": 0.833,
        "velocity": 1,
        "hand": "right"
      },
      {
        "midi": 78,
        "time": 203.889,
        "duration": 0.818,
        "velocity": 1,
        "hand": "right"
      },
      {
        "midi": 83,
        "time": 203.889,
        "duration": 0.833,
        "velocity": 1,
        "hand": "right"
      },
      {
        "midi": 73,
        "time": 204.444,
        "duration": 0.263,
        "velocity": 1,
        "hand": "right"
      },
      {
        "midi": 73,
        "time": 204.722,
        "duration": 0.818,
        "velocity": 1,
        "hand": "right"
      },
      {
        "midi": 78,
        "time": 204.722,
        "duration": 0.833,
        "velocity": 1,
        "hand": "right"
      },
      {
        "midi": 82,
        "time": 204.722,
        "duration": 0.833,
        "velocity": 1,
        "hand": "right"
      },
      {
        "midi": 67,
        "time": 205.555,
        "duration": 0.833,
        "velocity": 1,
        "hand": "right"
      },
      {
        "midi": 73,
        "time": 205.555,
        "duration": 1.667,
        "velocity": 1,
        "hand": "right"
      },
      {
        "midi": 76,
        "time": 205.555,
        "duration": 1.667,
        "velocity": 1,
        "hand": "right"
      },
      {
        "midi": 83,
        "time": 205.555,
        "duration": 0.556,
        "velocity": 1,
        "hand": "right"
      },
      {
        "midi": 82,
        "time": 206.111,
        "duration": 0.263,
        "velocity": 1,
        "hand": "right"
      },
      {
        "midi": 66,
        "time": 206.389,
        "duration": 0.833,
        "velocity": 1,
        "hand": "right"
      },
      {
        "midi": 82,
        "time": 206.389,
        "duration": 0.833,
        "velocity": 1,
        "hand": "right"
      },
      {
        "midi": 67,
        "time": 207.222,
        "duration": 0.556,
        "velocity": 1,
        "hand": "right"
      },
      {
        "midi": 66,
        "time": 207.778,
        "duration": 0.262,
        "velocity": 1,
        "hand": "right"
      },
      {
        "midi": 66,
        "time": 208.055,
        "duration": 0.833,
        "velocity": 1,
        "hand": "right"
      },
      {
        "midi": 55,
        "time": 208.889,
        "duration": 0.833,
        "velocity": 1,
        "hand": "left"
      },
      {
        "midi": 61,
        "time": 208.889,
        "duration": 1.667,
        "velocity": 1,
        "hand": "right"
      },
      {
        "midi": 64,
        "time": 208.889,
        "duration": 1.667,
        "velocity": 1,
        "hand": "right"
      },
      {
        "midi": 71,
        "time": 208.889,
        "duration": 0.556,
        "velocity": 1,
        "hand": "right"
      },
      {
        "midi": 70,
        "time": 209.444,
        "duration": 0.263,
        "velocity": 1,
        "hand": "right"
      },
      {
        "midi": 54,
        "time": 209.722,
        "duration": 0.833,
        "velocity": 1,
        "hand": "left"
      },
      {
        "midi": 70,
        "time": 209.722,
        "duration": 0.833,
        "velocity": 1,
        "hand": "right"
      },
      {
        "midi": 55,
        "time": 210.555,
        "duration": 0.556,
        "velocity": 1,
        "hand": "left"
      },
      {
        "midi": 54,
        "time": 211.111,
        "duration": 0.263,
        "velocity": 1,
        "hand": "left"
      },
      {
        "midi": 54,
        "time": 211.389,
        "duration": 0.833,
        "velocity": 1,
        "hand": "left"
      },
      {
        "midi": 55,
        "time": 212.222,
        "duration": 0.556,
        "velocity": 1,
        "hand": "left"
      },
      {
        "midi": 54,
        "time": 212.778,
        "duration": 0.262,
        "velocity": 1,
        "hand": "left"
      },
      {
        "midi": 54,
        "time": 213.055,
        "duration": 0.833,
        "velocity": 1,
        "hand": "left"
      },
      {
        "midi": 55,
        "time": 213.889,
        "duration": 0.556,
        "velocity": 1,
        "hand": "left"
      },
      {
        "midi": 54,
        "time": 214.444,
        "duration": 0.263,
        "velocity": 1,
        "hand": "left"
      },
      {
        "midi": 54,
        "time": 214.722,
        "duration": 0.278,
        "velocity": 1,
        "hand": "left"
      },
      {
        "midi": 62,
        "time": 215,
        "duration": 0.278,
        "velocity": 1,
        "hand": "right"
      },
      {
        "midi": 66,
        "time": 215,
        "duration": 0.278,
        "velocity": 1,
        "hand": "right"
      },
      {
        "midi": 71,
        "time": 215,
        "duration": 0.278,
        "velocity": 1,
        "hand": "right"
      },
      {
        "midi": 61,
        "time": 215.278,
        "duration": 0.278,
        "velocity": 1,
        "hand": "right"
      },
      {
        "midi": 65,
        "time": 215.278,
        "duration": 0.278,
        "velocity": 1,
        "hand": "right"
      },
      {
        "midi": 62,
        "time": 215.555,
        "duration": 0.556,
        "velocity": 1,
        "hand": "right"
      },
      {
        "midi": 66,
        "time": 215.555,
        "duration": 0.556,
        "velocity": 1,
        "hand": "right"
      },
      {
        "midi": 71,
        "time": 215.555,
        "duration": 0.556,
        "velocity": 1,
        "hand": "right"
      },
      {
        "midi": 47,
        "time": 215.833,
        "duration": 0.278,
        "velocity": 1,
        "hand": "left"
      },
      {
        "midi": 61,
        "time": 216.111,
        "duration": 0.278,
        "velocity": 1,
        "hand": "right"
      },
      {
        "midi": 64,
        "time": 216.111,
        "duration": 0.278,
        "velocity": 1,
        "hand": "right"
      },
      {
        "midi": 70,
        "time": 216.111,
        "duration": 0.278,
        "velocity": 1,
        "hand": "right"
      },
      {
        "midi": 47,
        "time": 216.389,
        "duration": 0.278,
        "velocity": 1,
        "hand": "left"
      },
      {
        "midi": 59,
        "time": 216.666,
        "duration": 0.278,
        "velocity": 1,
        "hand": "left"
      },
      {
        "midi": 62,
        "time": 216.666,
        "duration": 0.278,
        "velocity": 1,
        "hand": "right"
      },
      {
        "midi": 67,
        "time": 216.666,
        "duration": 0.278,
        "velocity": 1,
        "hand": "right"
      },
      {
        "midi": 58,
        "time": 216.944,
        "duration": 0.278,
        "velocity": 1,
        "hand": "left"
      },
      {
        "midi": 61,
        "time": 216.944,
        "duration": 0.278,
        "velocity": 1,
        "hand": "right"
      },
      {
        "midi": 59,
        "time": 217.222,
        "duration": 0.556,
        "velocity": 1,
        "hand": "left"
      },
      {
        "midi": 62,
        "time": 217.222,
        "duration": 0.556,
        "velocity": 1,
        "hand": "right"
      },
      {
        "midi": 67,
        "time": 217.222,
        "duration": 0.556,
        "velocity": 1,
        "hand": "right"
      },
      {
        "midi": 47,
        "time": 217.5,
        "duration": 0.278,
        "velocity": 1,
        "hand": "left"
      },
      {
        "midi": 58,
        "time": 217.778,
        "duration": 0.278,
        "velocity": 1,
        "hand": "left"
      },
      {
        "midi": 61,
        "time": 217.778,
        "duration": 0.278,
        "velocity": 1,
        "hand": "right"
      },
      {
        "midi": 66,
        "time": 217.778,
        "duration": 0.278,
        "velocity": 1,
        "hand": "right"
      },
      {
        "midi": 47,
        "time": 218.055,
        "duration": 0.278,
        "velocity": 1,
        "hand": "left"
      },
      {
        "midi": 57,
        "time": 218.333,
        "duration": 0.278,
        "velocity": 1,
        "hand": "left"
      },
      {
        "midi": 60,
        "time": 218.333,
        "duration": 0.278,
        "velocity": 1,
        "hand": "right"
      },
      {
        "midi": 66,
        "time": 218.333,
        "duration": 0.278,
        "velocity": 1,
        "hand": "right"
      },
      {
        "midi": 56,
        "time": 218.611,
        "duration": 0.278,
        "velocity": 1,
        "hand": "left"
      },
      {
        "midi": 59,
        "time": 218.611,
        "duration": 0.278,
        "velocity": 1,
        "hand": "left"
      },
      {
        "midi": 57,
        "time": 218.889,
        "duration": 0.556,
        "velocity": 1,
        "hand": "left"
      },
      {
        "midi": 60,
        "time": 218.889,
        "duration": 0.556,
        "velocity": 1,
        "hand": "right"
      },
      {
        "midi": 66,
        "time": 218.889,
        "duration": 0.556,
        "velocity": 1,
        "hand": "right"
      },
      {
        "midi": 47,
        "time": 219.166,
        "duration": 0.278,
        "velocity": 1,
        "hand": "left"
      },
      {
        "midi": 56,
        "time": 219.444,
        "duration": 0.278,
        "velocity": 1,
        "hand": "left"
      },
      {
        "midi": 59,
        "time": 219.444,
        "duration": 0.278,
        "velocity": 1,
        "hand": "left"
      },
      {
        "midi": 64,
        "time": 219.444,
        "duration": 0.278,
        "velocity": 1,
        "hand": "right"
      },
      {
        "midi": 47,
        "time": 219.722,
        "duration": 0.278,
        "velocity": 1,
        "hand": "left"
      },
      {
        "midi": 55,
        "time": 220,
        "duration": 0.278,
        "velocity": 1,
        "hand": "left"
      },
      {
        "midi": 58,
        "time": 220,
        "duration": 0.278,
        "velocity": 1,
        "hand": "left"
      },
      {
        "midi": 64,
        "time": 220,
        "duration": 0.278,
        "velocity": 1,
        "hand": "right"
      },
      {
        "midi": 47,
        "time": 220.278,
        "duration": 0.278,
        "velocity": 1,
        "hand": "left"
      },
      {
        "midi": 54,
        "time": 220.555,
        "duration": 0.278,
        "velocity": 1,
        "hand": "left"
      },
      {
        "midi": 58,
        "time": 220.555,
        "duration": 0.278,
        "velocity": 1,
        "hand": "left"
      },
      {
        "midi": 62,
        "time": 220.555,
        "duration": 0.278,
        "velocity": 1,
        "hand": "right"
      },
      {
        "midi": 47,
        "time": 220.833,
        "duration": 0.278,
        "velocity": 1,
        "hand": "left"
      },
      {
        "midi": 52,
        "time": 221.111,
        "duration": 0.278,
        "velocity": 1,
        "hand": "left"
      },
      {
        "midi": 58,
        "time": 221.111,
        "duration": 0.278,
        "velocity": 1,
        "hand": "left"
      },
      {
        "midi": 61,
        "time": 221.111,
        "duration": 0.278,
        "velocity": 1,
        "hand": "right"
      },
      {
        "midi": 47,
        "time": 221.389,
        "duration": 0.278,
        "velocity": 1,
        "hand": "left"
      },
      {
        "midi": 50,
        "time": 221.389,
        "duration": 0.278,
        "velocity": 1,
        "hand": "left"
      },
      {
        "midi": 53,
        "time": 221.666,
        "duration": 0.278,
        "velocity": 1,
        "hand": "left"
      },
      {
        "midi": 54,
        "time": 221.944,
        "duration": 0.278,
        "velocity": 1,
        "hand": "left"
      },
      {
        "midi": 55,
        "time": 222.222,
        "duration": 0.833,
        "velocity": 1,
        "hand": "left"
      },
      {
        "midi": 62,
        "time": 222.5,
        "duration": 0.278,
        "velocity": 1,
        "hand": "right"
      },
      {
        "midi": 71,
        "time": 222.5,
        "duration": 0.263,
        "velocity": 1,
        "hand": "right"
      },
      {
        "midi": 74,
        "time": 222.5,
        "duration": 0.263,
        "velocity": 1,
        "hand": "right"
      },
      {
        "midi": 64,
        "time": 222.778,
        "duration": 0.278,
        "velocity": 1,
        "hand": "right"
      },
      {
        "midi": 71,
        "time": 222.778,
        "duration": 0.262,
        "velocity": 1,
        "hand": "right"
      },
      {
        "midi": 74,
        "time": 222.778,
        "duration": 0.262,
        "velocity": 1,
        "hand": "right"
      },
      {
        "midi": 43,
        "time": 223.055,
        "duration": 0.278,
        "velocity": 1,
        "hand": "left"
      },
      {
        "midi": 65,
        "time": 223.055,
        "duration": 0.278,
        "velocity": 1,
        "hand": "right"
      },
      {
        "midi": 71,
        "time": 223.055,
        "duration": 0.278,
        "velocity": 1,
        "hand": "right"
      },
      {
        "midi": 74,
        "time": 223.055,
        "duration": 0.278,
        "velocity": 1,
        "hand": "right"
      },
      {
        "midi": 45,
        "time": 223.333,
        "duration": 0.278,
        "velocity": 1,
        "hand": "left"
      },
      {
        "midi": 43,
        "time": 223.611,
        "duration": 0.278,
        "velocity": 1,
        "hand": "left"
      },
      {
        "midi": 42,
        "time": 223.889,
        "duration": 0.833,
        "velocity": 1,
        "hand": "left"
      },
      {
        "midi": 56,
        "time": 224.166,
        "duration": 0.278,
        "velocity": 1,
        "hand": "left"
      },
      {
        "midi": 59,
        "time": 224.166,
        "duration": 0.278,
        "velocity": 1,
        "hand": "left"
      },
      {
        "midi": 66,
        "time": 224.166,
        "duration": 0.278,
        "velocity": 1,
        "hand": "right"
      },
      {
        "midi": 58,
        "time": 224.444,
        "duration": 0.278,
        "velocity": 1,
        "hand": "left"
      },
      {
        "midi": 61,
        "time": 224.444,
        "duration": 0.278,
        "velocity": 1,
        "hand": "right"
      },
      {
        "midi": 64,
        "time": 224.444,
        "duration": 0.278,
        "velocity": 1,
        "hand": "right"
      },
      {
        "midi": 47,
        "time": 224.722,
        "duration": 0.278,
        "velocity": 1,
        "hand": "left"
      },
      {
        "midi": 59,
        "time": 224.722,
        "duration": 0.278,
        "velocity": 1,
        "hand": "left"
      },
      {
        "midi": 62,
        "time": 224.722,
        "duration": 0.278,
        "velocity": 1,
        "hand": "right"
      },
      {
        "midi": 53,
        "time": 225,
        "duration": 0.278,
        "velocity": 1,
        "hand": "left"
      },
      {
        "midi": 54,
        "time": 225.278,
        "duration": 0.278,
        "velocity": 1,
        "hand": "left"
      },
      {
        "midi": 55,
        "time": 225.555,
        "duration": 0.833,
        "velocity": 1,
        "hand": "left"
      },
      {
        "midi": 62,
        "time": 225.833,
        "duration": 0.278,
        "velocity": 1,
        "hand": "right"
      },
      {
        "midi": 71,
        "time": 225.833,
        "duration": 0.263,
        "velocity": 1,
        "hand": "right"
      },
      {
        "midi": 74,
        "time": 225.833,
        "duration": 0.263,
        "velocity": 1,
        "hand": "right"
      },
      {
        "midi": 64,
        "time": 226.111,
        "duration": 0.278,
        "velocity": 1,
        "hand": "right"
      },
      {
        "midi": 71,
        "time": 226.111,
        "duration": 0.263,
        "velocity": 1,
        "hand": "right"
      },
      {
        "midi": 74,
        "time": 226.111,
        "duration": 0.263,
        "velocity": 1,
        "hand": "right"
      },
      {
        "midi": 43,
        "time": 226.389,
        "duration": 0.278,
        "velocity": 1,
        "hand": "left"
      },
      {
        "midi": 65,
        "time": 226.389,
        "duration": 0.278,
        "velocity": 1,
        "hand": "right"
      },
      {
        "midi": 71,
        "time": 226.389,
        "duration": 0.278,
        "velocity": 1,
        "hand": "right"
      },
      {
        "midi": 74,
        "time": 226.389,
        "duration": 0.278,
        "velocity": 1,
        "hand": "right"
      },
      {
        "midi": 45,
        "time": 226.666,
        "duration": 0.278,
        "velocity": 1,
        "hand": "left"
      },
      {
        "midi": 43,
        "time": 226.944,
        "duration": 0.278,
        "velocity": 1,
        "hand": "left"
      },
      {
        "midi": 42,
        "time": 227.222,
        "duration": 0.833,
        "velocity": 1,
        "hand": "left"
      },
      {
        "midi": 56,
        "time": 227.5,
        "duration": 0.278,
        "velocity": 1,
        "hand": "left"
      },
      {
        "midi": 59,
        "time": 227.5,
        "duration": 0.278,
        "velocity": 1,
        "hand": "left"
      },
      {
        "midi": 66,
        "time": 227.5,
        "duration": 0.278,
        "velocity": 1,
        "hand": "right"
      },
      {
        "midi": 58,
        "time": 227.778,
        "duration": 0.278,
        "velocity": 1,
        "hand": "left"
      },
      {
        "midi": 61,
        "time": 227.778,
        "duration": 0.278,
        "velocity": 1,
        "hand": "right"
      },
      {
        "midi": 64,
        "time": 227.778,
        "duration": 0.278,
        "velocity": 1,
        "hand": "right"
      },
      {
        "midi": 47,
        "time": 228.055,
        "duration": 0.278,
        "velocity": 1,
        "hand": "left"
      },
      {
        "midi": 59,
        "time": 228.055,
        "duration": 0.278,
        "velocity": 1,
        "hand": "left"
      },
      {
        "midi": 62,
        "time": 228.055,
        "duration": 0.263,
        "velocity": 1,
        "hand": "right"
      },
      {
        "midi": 62,
        "time": 228.333,
        "duration": 0.278,
        "velocity": 1,
        "hand": "right"
      },
      {
        "midi": 66,
        "time": 228.333,
        "duration": 0.278,
        "velocity": 1,
        "hand": "right"
      },
      {
        "midi": 71,
        "time": 228.333,
        "duration": 0.278,
        "velocity": 1,
        "hand": "right"
      },
      {
        "midi": 61,
        "time": 228.611,
        "duration": 0.278,
        "velocity": 1,
        "hand": "right"
      },
      {
        "midi": 65,
        "time": 228.611,
        "duration": 0.278,
        "velocity": 1,
        "hand": "right"
      },
      {
        "midi": 62,
        "time": 228.889,
        "duration": 0.556,
        "velocity": 1,
        "hand": "right"
      },
      {
        "midi": 66,
        "time": 228.889,
        "duration": 0.556,
        "velocity": 1,
        "hand": "right"
      },
      {
        "midi": 71,
        "time": 228.889,
        "duration": 0.556,
        "velocity": 1,
        "hand": "right"
      },
      {
        "midi": 47,
        "time": 229.166,
        "duration": 0.278,
        "velocity": 1,
        "hand": "left"
      },
      {
        "midi": 61,
        "time": 229.444,
        "duration": 0.278,
        "velocity": 1,
        "hand": "right"
      },
      {
        "midi": 64,
        "time": 229.444,
        "duration": 0.278,
        "velocity": 1,
        "hand": "right"
      },
      {
        "midi": 70,
        "time": 229.444,
        "duration": 0.278,
        "velocity": 1,
        "hand": "right"
      },
      {
        "midi": 47,
        "time": 229.722,
        "duration": 0.278,
        "velocity": 1,
        "hand": "left"
      },
      {
        "midi": 59,
        "time": 230,
        "duration": 0.278,
        "velocity": 1,
        "hand": "left"
      },
      {
        "midi": 62,
        "time": 230,
        "duration": 0.278,
        "velocity": 1,
        "hand": "right"
      },
      {
        "midi": 67,
        "time": 230,
        "duration": 0.278,
        "velocity": 1,
        "hand": "right"
      },
      {
        "midi": 58,
        "time": 230.278,
        "duration": 0.278,
        "velocity": 1,
        "hand": "left"
      },
      {
        "midi": 61,
        "time": 230.278,
        "duration": 0.278,
        "velocity": 1,
        "hand": "right"
      },
      {
        "midi": 59,
        "time": 230.555,
        "duration": 0.556,
        "velocity": 1,
        "hand": "left"
      },
      {
        "midi": 62,
        "time": 230.555,
        "duration": 0.556,
        "velocity": 1,
        "hand": "right"
      },
      {
        "midi": 67,
        "time": 230.555,
        "duration": 0.556,
        "velocity": 1,
        "hand": "right"
      },
      {
        "midi": 47,
        "time": 230.833,
        "duration": 0.278,
        "velocity": 1,
        "hand": "left"
      },
      {
        "midi": 58,
        "time": 231.111,
        "duration": 0.278,
        "velocity": 1,
        "hand": "left"
      },
      {
        "midi": 61,
        "time": 231.111,
        "duration": 0.278,
        "velocity": 1,
        "hand": "right"
      },
      {
        "midi": 66,
        "time": 231.111,
        "duration": 0.278,
        "velocity": 1,
        "hand": "right"
      },
      {
        "midi": 47,
        "time": 231.389,
        "duration": 0.278,
        "velocity": 1,
        "hand": "left"
      },
      {
        "midi": 57,
        "time": 231.666,
        "duration": 0.278,
        "velocity": 1,
        "hand": "left"
      },
      {
        "midi": 60,
        "time": 231.666,
        "duration": 0.278,
        "velocity": 1,
        "hand": "right"
      },
      {
        "midi": 66,
        "time": 231.666,
        "duration": 0.278,
        "velocity": 1,
        "hand": "right"
      },
      {
        "midi": 56,
        "time": 231.944,
        "duration": 0.278,
        "velocity": 1,
        "hand": "left"
      },
      {
        "midi": 59,
        "time": 231.944,
        "duration": 0.278,
        "velocity": 1,
        "hand": "left"
      },
      {
        "midi": 57,
        "time": 232.222,
        "duration": 0.556,
        "velocity": 1,
        "hand": "left"
      },
      {
        "midi": 60,
        "time": 232.222,
        "duration": 0.556,
        "velocity": 1,
        "hand": "right"
      },
      {
        "midi": 66,
        "time": 232.222,
        "duration": 0.556,
        "velocity": 1,
        "hand": "right"
      },
      {
        "midi": 47,
        "time": 232.5,
        "duration": 0.278,
        "velocity": 1,
        "hand": "left"
      },
      {
        "midi": 56,
        "time": 232.778,
        "duration": 0.278,
        "velocity": 1,
        "hand": "left"
      },
      {
        "midi": 59,
        "time": 232.778,
        "duration": 0.278,
        "velocity": 1,
        "hand": "left"
      },
      {
        "midi": 64,
        "time": 232.778,
        "duration": 0.278,
        "velocity": 1,
        "hand": "right"
      },
      {
        "midi": 47,
        "time": 233.055,
        "duration": 0.278,
        "velocity": 1,
        "hand": "left"
      },
      {
        "midi": 55,
        "time": 233.333,
        "duration": 0.278,
        "velocity": 1,
        "hand": "left"
      },
      {
        "midi": 58,
        "time": 233.333,
        "duration": 0.278,
        "velocity": 1,
        "hand": "left"
      },
      {
        "midi": 64,
        "time": 233.333,
        "duration": 0.278,
        "velocity": 1,
        "hand": "right"
      },
      {
        "midi": 47,
        "time": 233.611,
        "duration": 0.278,
        "velocity": 1,
        "hand": "left"
      },
      {
        "midi": 54,
        "time": 233.889,
        "duration": 0.278,
        "velocity": 1,
        "hand": "left"
      },
      {
        "midi": 58,
        "time": 233.889,
        "duration": 0.278,
        "velocity": 1,
        "hand": "left"
      },
      {
        "midi": 62,
        "time": 233.889,
        "duration": 0.278,
        "velocity": 1,
        "hand": "right"
      },
      {
        "midi": 47,
        "time": 234.166,
        "duration": 0.278,
        "velocity": 1,
        "hand": "left"
      },
      {
        "midi": 52,
        "time": 234.444,
        "duration": 0.278,
        "velocity": 1,
        "hand": "left"
      },
      {
        "midi": 58,
        "time": 234.444,
        "duration": 0.278,
        "velocity": 1,
        "hand": "left"
      },
      {
        "midi": 61,
        "time": 234.444,
        "duration": 0.278,
        "velocity": 1,
        "hand": "right"
      },
      {
        "midi": 47,
        "time": 234.722,
        "duration": 0.278,
        "velocity": 1,
        "hand": "left"
      },
      {
        "midi": 50,
        "time": 234.722,
        "duration": 0.278,
        "velocity": 1,
        "hand": "left"
      },
      {
        "midi": 53,
        "time": 235,
        "duration": 0.278,
        "velocity": 1,
        "hand": "left"
      },
      {
        "midi": 54,
        "time": 235.278,
        "duration": 0.278,
        "velocity": 1,
        "hand": "left"
      },
      {
        "midi": 55,
        "time": 235.555,
        "duration": 0.833,
        "velocity": 1,
        "hand": "left"
      },
      {
        "midi": 62,
        "time": 235.833,
        "duration": 0.278,
        "velocity": 1,
        "hand": "right"
      },
      {
        "midi": 71,
        "time": 235.833,
        "duration": 0.263,
        "velocity": 1,
        "hand": "right"
      },
      {
        "midi": 74,
        "time": 235.833,
        "duration": 0.263,
        "velocity": 1,
        "hand": "right"
      },
      {
        "midi": 64,
        "time": 236.111,
        "duration": 0.278,
        "velocity": 1,
        "hand": "right"
      },
      {
        "midi": 71,
        "time": 236.111,
        "duration": 0.263,
        "velocity": 1,
        "hand": "right"
      },
      {
        "midi": 74,
        "time": 236.111,
        "duration": 0.263,
        "velocity": 1,
        "hand": "right"
      },
      {
        "midi": 43,
        "time": 236.389,
        "duration": 0.278,
        "velocity": 1,
        "hand": "left"
      },
      {
        "midi": 65,
        "time": 236.389,
        "duration": 0.278,
        "velocity": 1,
        "hand": "right"
      },
      {
        "midi": 71,
        "time": 236.389,
        "duration": 0.278,
        "velocity": 1,
        "hand": "right"
      },
      {
        "midi": 74,
        "time": 236.389,
        "duration": 0.278,
        "velocity": 1,
        "hand": "right"
      },
      {
        "midi": 45,
        "time": 236.666,
        "duration": 0.278,
        "velocity": 1,
        "hand": "left"
      },
      {
        "midi": 43,
        "time": 236.944,
        "duration": 0.278,
        "velocity": 1,
        "hand": "left"
      },
      {
        "midi": 42,
        "time": 237.222,
        "duration": 0.833,
        "velocity": 1,
        "hand": "left"
      },
      {
        "midi": 56,
        "time": 237.5,
        "duration": 0.278,
        "velocity": 1,
        "hand": "left"
      },
      {
        "midi": 59,
        "time": 237.5,
        "duration": 0.278,
        "velocity": 1,
        "hand": "left"
      },
      {
        "midi": 66,
        "time": 237.5,
        "duration": 0.278,
        "velocity": 1,
        "hand": "right"
      },
      {
        "midi": 58,
        "time": 237.778,
        "duration": 0.278,
        "velocity": 1,
        "hand": "left"
      },
      {
        "midi": 61,
        "time": 237.778,
        "duration": 0.278,
        "velocity": 1,
        "hand": "right"
      },
      {
        "midi": 64,
        "time": 237.778,
        "duration": 0.278,
        "velocity": 1,
        "hand": "right"
      },
      {
        "midi": 47,
        "time": 238.055,
        "duration": 0.278,
        "velocity": 1,
        "hand": "left"
      },
      {
        "midi": 59,
        "time": 238.055,
        "duration": 0.278,
        "velocity": 1,
        "hand": "left"
      },
      {
        "midi": 62,
        "time": 238.055,
        "duration": 0.278,
        "velocity": 1,
        "hand": "right"
      },
      {
        "midi": 53,
        "time": 238.333,
        "duration": 0.278,
        "velocity": 1,
        "hand": "left"
      },
      {
        "midi": 54,
        "time": 238.611,
        "duration": 0.278,
        "velocity": 1,
        "hand": "left"
      },
      {
        "midi": 55,
        "time": 238.889,
        "duration": 0.818,
        "velocity": 1,
        "hand": "left"
      },
      {
        "midi": 62,
        "time": 239.166,
        "duration": 0.278,
        "velocity": 1,
        "hand": "right"
      },
      {
        "midi": 71,
        "time": 239.166,
        "duration": 0.263,
        "velocity": 1,
        "hand": "right"
      },
      {
        "midi": 74,
        "time": 239.166,
        "duration": 0.263,
        "velocity": 1,
        "hand": "right"
      },
      {
        "midi": 64,
        "time": 239.444,
        "duration": 0.278,
        "velocity": 1,
        "hand": "right"
      },
      {
        "midi": 71,
        "time": 239.444,
        "duration": 0.263,
        "velocity": 1,
        "hand": "right"
      },
      {
        "midi": 74,
        "time": 239.444,
        "duration": 0.263,
        "velocity": 1,
        "hand": "right"
      },
      {
        "midi": 55,
        "time": 239.722,
        "duration": 0.278,
        "velocity": 1,
        "hand": "left"
      },
      {
        "midi": 65,
        "time": 239.722,
        "duration": 0.541,
        "velocity": 1,
        "hand": "right"
      },
      {
        "midi": 71,
        "time": 239.722,
        "duration": 0.541,
        "velocity": 1,
        "hand": "right"
      },
      {
        "midi": 74,
        "time": 239.722,
        "duration": 0.556,
        "velocity": 1,
        "hand": "right"
      },
      {
        "midi": 56,
        "time": 240,
        "duration": 0.556,
        "velocity": 1,
        "hand": "left"
      },
      {
        "midi": 65,
        "time": 240.278,
        "duration": 0.556,
        "velocity": 1,
        "hand": "right"
      },
      {
        "midi": 71,
        "time": 240.278,
        "duration": 0.54,
        "velocity": 1,
        "hand": "right"
      },
      {
        "midi": 73,
        "time": 240.278,
        "duration": 0.54,
        "velocity": 1,
        "hand": "right"
      },
      {
        "midi": 61,
        "time": 240.555,
        "duration": 0.556,
        "velocity": 1,
        "hand": "right"
      },
      {
        "midi": 71,
        "time": 240.833,
        "duration": 0.556,
        "velocity": 1,
        "hand": "right"
      },
      {
        "midi": 73,
        "time": 240.833,
        "duration": 0.541,
        "velocity": 1,
        "hand": "right"
      },
      {
        "midi": 77,
        "time": 240.833,
        "duration": 0.556,
        "velocity": 1,
        "hand": "right"
      },
      {
        "midi": 68,
        "time": 241.111,
        "duration": 0.278,
        "velocity": 1,
        "hand": "right"
      },
      {
        "midi": 66,
        "time": 241.389,
        "duration": 0.278,
        "velocity": 1,
        "hand": "right"
      },
      {
        "midi": 70,
        "time": 241.389,
        "duration": 0.278,
        "velocity": 1,
        "hand": "right"
      },
      {
        "midi": 73,
        "time": 241.389,
        "duration": 0.278,
        "velocity": 1,
        "hand": "right"
      },
      {
        "midi": 78,
        "time": 241.389,
        "duration": 0.262,
        "velocity": 1,
        "hand": "right"
      },
      {
        "midi": 74,
        "time": 241.666,
        "duration": 0.278,
        "velocity": 1,
        "hand": "right"
      },
      {
        "midi": 78,
        "time": 241.666,
        "duration": 0.278,
        "velocity": 1,
        "hand": "right"
      },
      {
        "midi": 83,
        "time": 241.666,
        "duration": 0.278,
        "velocity": 1,
        "hand": "right"
      },
      {
        "midi": 73,
        "time": 241.944,
        "duration": 0.278,
        "velocity": 1,
        "hand": "right"
      },
      {
        "midi": 77,
        "time": 241.944,
        "duration": 0.278,
        "velocity": 1,
        "hand": "right"
      },
      {
        "midi": 74,
        "time": 242.222,
        "duration": 0.556,
        "velocity": 1,
        "hand": "right"
      },
      {
        "midi": 78,
        "time": 242.222,
        "duration": 0.556,
        "velocity": 1,
        "hand": "right"
      },
      {
        "midi": 83,
        "time": 242.222,
        "duration": 0.556,
        "velocity": 1,
        "hand": "right"
      },
      {
        "midi": 66,
        "time": 242.5,
        "duration": 0.278,
        "velocity": 1,
        "hand": "right"
      },
      {
        "midi": 73,
        "time": 242.778,
        "duration": 0.278,
        "velocity": 1,
        "hand": "right"
      },
      {
        "midi": 76,
        "time": 242.778,
        "duration": 0.278,
        "velocity": 1,
        "hand": "right"
      },
      {
        "midi": 82,
        "time": 242.778,
        "duration": 0.278,
        "velocity": 1,
        "hand": "right"
      },
      {
        "midi": 66,
        "time": 243.055,
        "duration": 1.096,
        "velocity": 1,
        "hand": "right"
      },
      {
        "midi": 71,
        "time": 243.333,
        "duration": 0.278,
        "velocity": 1,
        "hand": "right"
      },
      {
        "midi": 74,
        "time": 243.333,
        "duration": 0.278,
        "velocity": 1,
        "hand": "right"
      },
      {
        "midi": 79,
        "time": 243.333,
        "duration": 0.278,
        "velocity": 1,
        "hand": "right"
      },
      {
        "midi": 70,
        "time": 243.611,
        "duration": 0.278,
        "velocity": 1,
        "hand": "right"
      },
      {
        "midi": 73,
        "time": 243.611,
        "duration": 0.278,
        "velocity": 1,
        "hand": "right"
      },
      {
        "midi": 71,
        "time": 243.889,
        "duration": 0.556,
        "velocity": 1,
        "hand": "right"
      },
      {
        "midi": 74,
        "time": 243.889,
        "duration": 0.556,
        "velocity": 1,
        "hand": "right"
      },
      {
        "midi": 79,
        "time": 243.889,
        "duration": 0.556,
        "velocity": 1,
        "hand": "right"
      },
      {
        "midi": 66,
        "time": 244.166,
        "duration": 0.541,
        "velocity": 1,
        "hand": "right"
      },
      {
        "midi": 70,
        "time": 244.444,
        "duration": 0.278,
        "velocity": 1,
        "hand": "right"
      },
      {
        "midi": 73,
        "time": 244.444,
        "duration": 0.278,
        "velocity": 1,
        "hand": "right"
      },
      {
        "midi": 78,
        "time": 244.444,
        "duration": 0.278,
        "velocity": 1,
        "hand": "right"
      },
      {
        "midi": 66,
        "time": 244.722,
        "duration": 0.278,
        "velocity": 1,
        "hand": "right"
      },
      {
        "midi": 64,
        "time": 245,
        "duration": 0.818,
        "velocity": 1,
        "hand": "right"
      },
      {
        "midi": 69,
        "time": 245,
        "duration": 0.833,
        "velocity": 1,
        "hand": "right"
      },
      {
        "midi": 72,
        "time": 245,
        "duration": 0.278,
        "velocity": 1,
        "hand": "right"
      },
      {
        "midi": 78,
        "time": 245,
        "duration": 0.278,
        "velocity": 1,
        "hand": "right"
      },
      {
        "midi": 71,
        "time": 245.278,
        "duration": 0.278,
        "velocity": 1,
        "hand": "right"
      },
      {
        "midi": 72,
        "time": 245.555,
        "duration": 0.263,
        "velocity": 1,
        "hand": "right"
      },
      {
        "midi": 78,
        "time": 245.555,
        "duration": 0.278,
        "velocity": 1,
        "hand": "right"
      },
      {
        "midi": 57,
        "time": 245.833,
        "duration": 0.818,
        "velocity": 1,
        "hand": "left"
      },
      {
        "midi": 64,
        "time": 245.833,
        "duration": 0.818,
        "velocity": 1,
        "hand": "right"
      },
      {
        "midi": 66,
        "time": 245.833,
        "duration": 0.278,
        "velocity": 1,
        "hand": "right"
      },
      {
        "midi": 72,
        "time": 245.833,
        "duration": 0.278,
        "velocity": 1,
        "hand": "right"
      },
      {
        "midi": 65,
        "time": 246.111,
        "duration": 0.278,
        "velocity": 1,
        "hand": "right"
      },
      {
        "midi": 66,
        "time": 246.389,
        "duration": 0.278,
        "velocity": 1,
        "hand": "right"
      },
      {
        "midi": 72,
        "time": 246.389,
        "duration": 0.278,
        "velocity": 1,
        "hand": "right"
      },
      {
        "midi": 54,
        "time": 246.666,
        "duration": 0.833,
        "velocity": 1,
        "hand": "left"
      },
      {
        "midi": 57,
        "time": 246.666,
        "duration": 0.833,
        "velocity": 1,
        "hand": "left"
      },
      {
        "midi": 60,
        "time": 246.666,
        "duration": 0.278,
        "velocity": 1,
        "hand": "right"
      },
      {
        "midi": 64,
        "time": 246.666,
        "duration": 0.278,
        "velocity": 1,
        "hand": "right"
      },
      {
        "midi": 59,
        "time": 246.944,
        "duration": 0.278,
        "velocity": 1,
        "hand": "left"
      },
      {
        "midi": 60,
        "time": 247.222,
        "duration": 0.278,
        "velocity": 1,
        "hand": "right"
      },
      {
        "midi": 64,
        "time": 247.222,
        "duration": 0.278,
        "velocity": 1,
        "hand": "right"
      },
      {
        "midi": 48,
        "time": 247.5,
        "duration": 0.278,
        "velocity": 1,
        "hand": "left"
      },
      {
        "midi": 47,
        "time": 247.778,
        "duration": 0.278,
        "velocity": 1,
        "hand": "left"
      },
      {
        "midi": 54,
        "time": 247.778,
        "duration": 0.278,
        "velocity": 1,
        "hand": "left"
      },
      {
        "midi": 63,
        "time": 247.778,
        "duration": 0.278,
        "velocity": 1,
        "hand": "right"
      },
      {
        "midi": 52,
        "time": 248.055,
        "duration": 0.278,
        "velocity": 1,
        "hand": "left"
      },
      {
        "midi": 55,
        "time": 248.055,
        "duration": 0.278,
        "velocity": 1,
        "hand": "left"
      },
      {
        "midi": 64,
        "time": 248.055,
        "duration": 0.278,
        "velocity": 1,
        "hand": "right"
      },
      {
        "midi": 76,
        "time": 248.333,
        "duration": 0.278,
        "velocity": 1,
        "hand": "right"
      },
      {
        "midi": 79,
        "time": 248.333,
        "duration": 0.278,
        "velocity": 1,
        "hand": "right"
      },
      {
        "midi": 83,
        "time": 248.333,
        "duration": 0.278,
        "velocity": 1,
        "hand": "right"
      },
      {
        "midi": 78,
        "time": 248.611,
        "duration": 0.278,
        "velocity": 1,
        "hand": "right"
      },
      {
        "midi": 82,
        "time": 248.611,
        "duration": 0.278,
        "velocity": 1,
        "hand": "right"
      },
      {
        "midi": 76,
        "time": 248.889,
        "duration": 0.556,
        "velocity": 1,
        "hand": "right"
      },
      {
        "midi": 79,
        "time": 248.889,
        "duration": 0.556,
        "velocity": 1,
        "hand": "right"
      },
      {
        "midi": 83,
        "time": 248.889,
        "duration": 0.556,
        "velocity": 1,
        "hand": "right"
      },
      {
        "midi": 71,
        "time": 249.166,
        "duration": 0.278,
        "velocity": 1,
        "hand": "right"
      },
      {
        "midi": 75,
        "time": 249.444,
        "duration": 0.278,
        "velocity": 1,
        "hand": "right"
      },
      {
        "midi": 78,
        "time": 249.444,
        "duration": 0.278,
        "velocity": 1,
        "hand": "right"
      },
      {
        "midi": 81,
        "time": 249.444,
        "duration": 0.278,
        "velocity": 1,
        "hand": "right"
      },
      {
        "midi": 71,
        "time": 249.722,
        "duration": 1.096,
        "velocity": 1,
        "hand": "right"
      },
      {
        "midi": 76,
        "time": 250,
        "duration": 0.278,
        "velocity": 1,
        "hand": "right"
      },
      {
        "midi": 79,
        "time": 250,
        "duration": 0.278,
        "velocity": 1,
        "hand": "right"
      },
      {
        "midi": 84,
        "time": 250,
        "duration": 0.278,
        "velocity": 1,
        "hand": "right"
      },
      {
        "midi": 75,
        "time": 250.278,
        "duration": 0.278,
        "velocity": 1,
        "hand": "right"
      },
      {
        "midi": 78,
        "time": 250.278,
        "duration": 0.278,
        "velocity": 1,
        "hand": "right"
      },
      {
        "midi": 76,
        "time": 250.555,
        "duration": 0.556,
        "velocity": 1,
        "hand": "right"
      },
      {
        "midi": 79,
        "time": 250.555,
        "duration": 0.556,
        "velocity": 1,
        "hand": "right"
      },
      {
        "midi": 84,
        "time": 250.555,
        "duration": 0.556,
        "velocity": 1,
        "hand": "right"
      },
      {
        "midi": 71,
        "time": 250.833,
        "duration": 0.541,
        "velocity": 1,
        "hand": "right"
      },
      {
        "midi": 75,
        "time": 251.111,
        "duration": 0.278,
        "velocity": 1,
        "hand": "right"
      },
      {
        "midi": 78,
        "time": 251.111,
        "duration": 0.278,
        "velocity": 1,
        "hand": "right"
      },
      {
        "midi": 83,
        "time": 251.111,
        "duration": 0.278,
        "velocity": 1,
        "hand": "right"
      },
      {
        "midi": 71,
        "time": 251.389,
        "duration": 0.278,
        "velocity": 1,
        "hand": "right"
      },
      {
        "midi": 69,
        "time": 251.666,
        "duration": 0.819,
        "velocity": 1,
        "hand": "right"
      },
      {
        "midi": 74,
        "time": 251.666,
        "duration": 0.833,
        "velocity": 1,
        "hand": "right"
      },
      {
        "midi": 77,
        "time": 251.666,
        "duration": 0.278,
        "velocity": 1,
        "hand": "right"
      },
      {
        "midi": 83,
        "time": 251.666,
        "duration": 0.278,
        "velocity": 1,
        "hand": "right"
      },
      {
        "midi": 76,
        "time": 251.944,
        "duration": 0.278,
        "velocity": 1,
        "hand": "right"
      },
      {
        "midi": 77,
        "time": 252.222,
        "duration": 0.263,
        "velocity": 1,
        "hand": "right"
      },
      {
        "midi": 83,
        "time": 252.222,
        "duration": 0.278,
        "velocity": 1,
        "hand": "right"
      },
      {
        "midi": 62,
        "time": 252.5,
        "duration": 0.818,
        "velocity": 1,
        "hand": "right"
      },
      {
        "midi": 69,
        "time": 252.5,
        "duration": 0.833,
        "velocity": 1,
        "hand": "right"
      },
      {
        "midi": 71,
        "time": 252.5,
        "duration": 0.278,
        "velocity": 1,
        "hand": "right"
      },
      {
        "midi": 77,
        "time": 252.5,
        "duration": 0.278,
        "velocity": 1,
        "hand": "right"
      },
      {
        "midi": 70,
        "time": 252.778,
        "duration": 0.278,
        "velocity": 1,
        "hand": "right"
      },
      {
        "midi": 71,
        "time": 253.055,
        "duration": 0.278,
        "velocity": 1,
        "hand": "right"
      },
      {
        "midi": 77,
        "time": 253.055,
        "duration": 0.278,
        "velocity": 1,
        "hand": "right"
      },
      {
        "midi": 59,
        "time": 253.333,
        "duration": 0.833,
        "velocity": 1,
        "hand": "left"
      },
      {
        "midi": 62,
        "time": 253.333,
        "duration": 0.833,
        "velocity": 1,
        "hand": "right"
      },
      {
        "midi": 65,
        "time": 253.333,
        "duration": 0.278,
        "velocity": 1,
        "hand": "right"
      },
      {
        "midi": 70,
        "time": 253.333,
        "duration": 0.278,
        "velocity": 1,
        "hand": "right"
      },
      {
        "midi": 64,
        "time": 253.611,
        "duration": 0.278,
        "velocity": 1,
        "hand": "right"
      },
      {
        "midi": 65,
        "time": 253.889,
        "duration": 0.278,
        "velocity": 1,
        "hand": "right"
      },
      {
        "midi": 70,
        "time": 253.889,
        "duration": 0.278,
        "velocity": 1,
        "hand": "right"
      },
      {
        "midi": 53,
        "time": 254.166,
        "duration": 0.278,
        "velocity": 1,
        "hand": "left"
      },
      {
        "midi": 52,
        "time": 254.444,
        "duration": 0.278,
        "velocity": 1,
        "hand": "left"
      },
      {
        "midi": 59,
        "time": 254.444,
        "duration": 0.278,
        "velocity": 1,
        "hand": "left"
      },
      {
        "midi": 62,
        "time": 254.444,
        "duration": 0.278,
        "velocity": 1,
        "hand": "right"
      },
      {
        "midi": 68,
        "time": 254.444,
        "duration": 0.278,
        "velocity": 1,
        "hand": "right"
      },
      {
        "midi": 45,
        "time": 254.722,
        "duration": 0.278,
        "velocity": 1,
        "hand": "left"
      },
      {
        "midi": 60,
        "time": 254.722,
        "duration": 0.263,
        "velocity": 1,
        "hand": "right"
      },
      {
        "midi": 69,
        "time": 254.722,
        "duration": 0.263,
        "velocity": 1,
        "hand": "right"
      },
      {
        "midi": 53,
        "time": 255,
        "duration": 0.278,
        "velocity": 1,
        "hand": "left"
      },
      {
        "midi": 60,
        "time": 255,
        "duration": 0.556,
        "velocity": 1,
        "hand": "right"
      },
      {
        "midi": 69,
        "time": 255,
        "duration": 0.556,
        "velocity": 1,
        "hand": "right"
      },
      {
        "midi": 52,
        "time": 255.278,
        "duration": 0.278,
        "velocity": 1,
        "hand": "left"
      },
      {
        "midi": 45,
        "time": 255.555,
        "duration": 0.278,
        "velocity": 1,
        "hand": "left"
      },
      {
        "midi": 62,
        "time": 255.555,
        "duration": 0.556,
        "velocity": 1,
        "hand": "right"
      },
      {
        "midi": 68,
        "time": 255.555,
        "duration": 0.556,
        "velocity": 1,
        "hand": "right"
      },
      {
        "midi": 71,
        "time": 255.555,
        "duration": 0.556,
        "velocity": 1,
        "hand": "right"
      },
      {
        "midi": 53,
        "time": 255.833,
        "duration": 0.278,
        "velocity": 1,
        "hand": "left"
      },
      {
        "midi": 52,
        "time": 256.111,
        "duration": 0.278,
        "velocity": 1,
        "hand": "left"
      },
      {
        "midi": 60,
        "time": 256.111,
        "duration": 0.278,
        "velocity": 1,
        "hand": "right"
      },
      {
        "midi": 69,
        "time": 256.111,
        "duration": 0.278,
        "velocity": 1,
        "hand": "right"
      },
      {
        "midi": 72,
        "time": 256.111,
        "duration": 0.278,
        "velocity": 1,
        "hand": "right"
      },
      {
        "midi": 45,
        "time": 256.389,
        "duration": 0.278,
        "velocity": 1,
        "hand": "left"
      },
      {
        "midi": 53,
        "time": 256.666,
        "duration": 0.278,
        "velocity": 1,
        "hand": "left"
      },
      {
        "midi": 60,
        "time": 256.666,
        "duration": 0.556,
        "velocity": 1,
        "hand": "right"
      },
      {
        "midi": 69,
        "time": 256.666,
        "duration": 0.556,
        "velocity": 1,
        "hand": "right"
      },
      {
        "midi": 52,
        "time": 256.944,
        "duration": 0.278,
        "velocity": 1,
        "hand": "left"
      },
      {
        "midi": 45,
        "time": 257.222,
        "duration": 0.278,
        "velocity": 1,
        "hand": "left"
      },
      {
        "midi": 59,
        "time": 257.222,
        "duration": 0.556,
        "velocity": 1,
        "hand": "left"
      },
      {
        "midi": 62,
        "time": 257.222,
        "duration": 0.556,
        "velocity": 1,
        "hand": "right"
      },
      {
        "midi": 68,
        "time": 257.222,
        "duration": 0.556,
        "velocity": 1,
        "hand": "right"
      },
      {
        "midi": 53,
        "time": 257.5,
        "duration": 0.278,
        "velocity": 1,
        "hand": "left"
      },
      {
        "midi": 52,
        "time": 257.778,
        "duration": 0.278,
        "velocity": 1,
        "hand": "left"
      },
      {
        "midi": 57,
        "time": 257.778,
        "duration": 0.278,
        "velocity": 1,
        "hand": "left"
      },
      {
        "midi": 60,
        "time": 257.778,
        "duration": 0.278,
        "velocity": 1,
        "hand": "right"
      },
      {
        "midi": 69,
        "time": 257.778,
        "duration": 0.278,
        "velocity": 1,
        "hand": "right"
      },
      {
        "midi": 45,
        "time": 258.055,
        "duration": 0.278,
        "velocity": 1,
        "hand": "left"
      },
      {
        "midi": 57,
        "time": 258.333,
        "duration": 0.278,
        "velocity": 1,
        "hand": "left"
      },
      {
        "midi": 64,
        "time": 258.333,
        "duration": 0.556,
        "velocity": 1,
        "hand": "right"
      },
      {
        "midi": 72,
        "time": 258.333,
        "duration": 0.556,
        "velocity": 1,
        "hand": "right"
      },
      {
        "midi": 56,
        "time": 258.611,
        "duration": 0.278,
        "velocity": 1,
        "hand": "left"
      },
      {
        "midi": 48,
        "time": 258.889,
        "duration": 0.278,
        "velocity": 1,
        "hand": "left"
      },
      {
        "midi": 65,
        "time": 258.889,
        "duration": 0.556,
        "velocity": 1,
        "hand": "right"
      },
      {
        "midi": 71,
        "time": 258.889,
        "duration": 0.556,
        "velocity": 1,
        "hand": "right"
      },
      {
        "midi": 74,
        "time": 258.889,
        "duration": 0.556,
        "velocity": 1,
        "hand": "right"
      },
      {
        "midi": 57,
        "time": 259.166,
        "duration": 0.278,
        "velocity": 1,
        "hand": "left"
      },
      {
        "midi": 56,
        "time": 259.444,
        "duration": 0.278,
        "velocity": 1,
        "hand": "left"
      },
      {
        "midi": 64,
        "time": 259.444,
        "duration": 0.278,
        "velocity": 1,
        "hand": "right"
      },
      {
        "midi": 72,
        "time": 259.444,
        "duration": 0.278,
        "velocity": 1,
        "hand": "right"
      },
      {
        "midi": 76,
        "time": 259.444,
        "duration": 0.278,
        "velocity": 1,
        "hand": "right"
      },
      {
        "midi": 48,
        "time": 259.722,
        "duration": 0.278,
        "velocity": 1,
        "hand": "left"
      },
      {
        "midi": 57,
        "time": 260,
        "duration": 0.278,
        "velocity": 1,
        "hand": "left"
      },
      {
        "midi": 64,
        "time": 260,
        "duration": 0.556,
        "velocity": 1,
        "hand": "right"
      },
      {
        "midi": 72,
        "time": 260,
        "duration": 0.556,
        "velocity": 1,
        "hand": "right"
      },
      {
        "midi": 56,
        "time": 260.278,
        "duration": 0.278,
        "velocity": 1,
        "hand": "left"
      },
      {
        "midi": 48,
        "time": 260.555,
        "duration": 0.278,
        "velocity": 1,
        "hand": "left"
      },
      {
        "midi": 62,
        "time": 260.555,
        "duration": 0.556,
        "velocity": 1,
        "hand": "right"
      },
      {
        "midi": 65,
        "time": 260.555,
        "duration": 0.556,
        "velocity": 1,
        "hand": "right"
      },
      {
        "midi": 71,
        "time": 260.555,
        "duration": 0.556,
        "velocity": 1,
        "hand": "right"
      },
      {
        "midi": 57,
        "time": 260.833,
        "duration": 0.278,
        "velocity": 1,
        "hand": "left"
      },
      {
        "midi": 56,
        "time": 261.111,
        "duration": 0.278,
        "velocity": 1,
        "hand": "left"
      },
      {
        "midi": 60,
        "time": 261.111,
        "duration": 0.278,
        "velocity": 1,
        "hand": "right"
      },
      {
        "midi": 64,
        "time": 261.111,
        "duration": 0.278,
        "velocity": 1,
        "hand": "right"
      },
      {
        "midi": 72,
        "time": 261.111,
        "duration": 0.278,
        "velocity": 1,
        "hand": "right"
      },
      {
        "midi": 48,
        "time": 261.389,
        "duration": 0.278,
        "velocity": 1,
        "hand": "left"
      },
      {
        "midi": 60,
        "time": 261.666,
        "duration": 0.278,
        "velocity": 1,
        "hand": "right"
      },
      {
        "midi": 67,
        "time": 261.666,
        "duration": 0.556,
        "velocity": 1,
        "hand": "right"
      },
      {
        "midi": 76,
        "time": 261.666,
        "duration": 0.556,
        "velocity": 1,
        "hand": "right"
      },
      {
        "midi": 59,
        "time": 261.944,
        "duration": 0.278,
        "velocity": 1,
        "hand": "left"
      },
      {
        "midi": 52,
        "time": 262.222,
        "duration": 0.278,
        "velocity": 1,
        "hand": "left"
      },
      {
        "midi": 69,
        "time": 262.222,
        "duration": 0.556,
        "velocity": 1,
        "hand": "right"
      },
      {
        "midi": 75,
        "time": 262.222,
        "duration": 0.556,
        "velocity": 1,
        "hand": "right"
      },
      {
        "midi": 78,
        "time": 262.222,
        "duration": 0.556,
        "velocity": 1,
        "hand": "right"
      },
      {
        "midi": 60,
        "time": 262.5,
        "duration": 0.278,
        "velocity": 1,
        "hand": "right"
      },
      {
        "midi": 59,
        "time": 262.778,
        "duration": 0.278,
        "velocity": 1,
        "hand": "left"
      },
      {
        "midi": 67,
        "time": 262.778,
        "duration": 0.278,
        "velocity": 1,
        "hand": "right"
      },
      {
        "midi": 76,
        "time": 262.778,
        "duration": 0.278,
        "velocity": 1,
        "hand": "right"
      },
      {
        "midi": 79,
        "time": 262.778,
        "duration": 0.278,
        "velocity": 1,
        "hand": "right"
      },
      {
        "midi": 52,
        "time": 263.055,
        "duration": 0.278,
        "velocity": 1,
        "hand": "left"
      },
      {
        "midi": 64,
        "time": 263.333,
        "duration": 0.278,
        "velocity": 1,
        "hand": "right"
      },
      {
        "midi": 71,
        "time": 263.333,
        "duration": 0.556,
        "velocity": 1,
        "hand": "right"
      },
      {
        "midi": 79,
        "time": 263.333,
        "duration": 0.556,
        "velocity": 1,
        "hand": "right"
      },
      {
        "midi": 63,
        "time": 263.611,
        "duration": 0.278,
        "velocity": 1,
        "hand": "right"
      },
      {
        "midi": 55,
        "time": 263.889,
        "duration": 0.278,
        "velocity": 1,
        "hand": "left"
      },
      {
        "midi": 72,
        "time": 263.889,
        "duration": 0.556,
        "velocity": 1,
        "hand": "right"
      },
      {
        "midi": 78,
        "time": 263.889,
        "duration": 0.556,
        "velocity": 1,
        "hand": "right"
      },
      {
        "midi": 81,
        "time": 263.889,
        "duration": 0.556,
        "velocity": 1,
        "hand": "right"
      },
      {
        "midi": 64,
        "time": 264.166,
        "duration": 0.278,
        "velocity": 1,
        "hand": "right"
      },
      {
        "midi": 63,
        "time": 264.444,
        "duration": 0.278,
        "velocity": 1,
        "hand": "right"
      },
      {
        "midi": 71,
        "time": 264.444,
        "duration": 0.278,
        "velocity": 1,
        "hand": "right"
      },
      {
        "midi": 79,
        "time": 264.444,
        "duration": 0.278,
        "velocity": 1,
        "hand": "right"
      },
      {
        "midi": 83,
        "time": 264.444,
        "duration": 0.278,
        "velocity": 1,
        "hand": "right"
      },
      {
        "midi": 55,
        "time": 264.722,
        "duration": 0.278,
        "velocity": 1,
        "hand": "left"
      },
      {
        "midi": 67,
        "time": 265,
        "duration": 0.278,
        "velocity": 1,
        "hand": "right"
      },
      {
        "midi": 74,
        "time": 265,
        "duration": 0.556,
        "velocity": 1,
        "hand": "right"
      },
      {
        "midi": 83,
        "time": 265,
        "duration": 0.556,
        "velocity": 1,
        "hand": "right"
      },
      {
        "midi": 66,
        "time": 265.278,
        "duration": 0.278,
        "velocity": 1,
        "hand": "right"
      },
      {
        "midi": 59,
        "time": 265.555,
        "duration": 0.278,
        "velocity": 1,
        "hand": "left"
      },
      {
        "midi": 73,
        "time": 265.555,
        "duration": 0.556,
        "velocity": 1,
        "hand": "right"
      },
      {
        "midi": 76,
        "time": 265.555,
        "duration": 0.556,
        "velocity": 1,
        "hand": "right"
      },
      {
        "midi": 82,
        "time": 265.555,
        "duration": 0.556,
        "velocity": 1,
        "hand": "right"
      },
      {
        "midi": 67,
        "time": 265.833,
        "duration": 0.278,
        "velocity": 1,
        "hand": "right"
      },
      {
        "midi": 66,
        "time": 266.111,
        "duration": 0.278,
        "velocity": 1,
        "hand": "right"
      },
      {
        "midi": 74,
        "time": 266.111,
        "duration": 0.278,
        "velocity": 1,
        "hand": "right"
      },
      {
        "midi": 83,
        "time": 266.111,
        "duration": 0.278,
        "velocity": 1,
        "hand": "right"
      },
      {
        "midi": 59,
        "time": 266.389,
        "duration": 0.278,
        "velocity": 1,
        "hand": "left"
      },
      {
        "midi": 71,
        "time": 266.666,
        "duration": 0.278,
        "velocity": 1,
        "hand": "right"
      },
      {
        "midi": 74,
        "time": 266.666,
        "duration": 0.556,
        "velocity": 1,
        "hand": "right"
      },
      {
        "midi": 78,
        "time": 266.666,
        "duration": 0.556,
        "velocity": 1,
        "hand": "right"
      },
      {
        "midi": 70,
        "time": 266.944,
        "duration": 0.278,
        "velocity": 1,
        "hand": "right"
      },
      {
        "midi": 62,
        "time": 267.222,
        "duration": 0.278,
        "velocity": 1,
        "hand": "right"
      },
      {
        "midi": 73,
        "time": 267.222,
        "duration": 0.556,
        "velocity": 1,
        "hand": "right"
      },
      {
        "midi": 76,
        "time": 267.222,
        "duration": 0.556,
        "velocity": 1,
        "hand": "right"
      },
      {
        "midi": 79,
        "time": 267.222,
        "duration": 0.556,
        "velocity": 1,
        "hand": "right"
      },
      {
        "midi": 71,
        "time": 267.5,
        "duration": 0.278,
        "velocity": 1,
        "hand": "right"
      },
      {
        "midi": 70,
        "time": 267.778,
        "duration": 0.278,
        "velocity": 1,
        "hand": "right"
      },
      {
        "midi": 74,
        "time": 267.778,
        "duration": 0.278,
        "velocity": 1,
        "hand": "right"
      },
      {
        "midi": 78,
        "time": 267.778,
        "duration": 0.278,
        "velocity": 1,
        "hand": "right"
      },
      {
        "midi": 62,
        "time": 268.055,
        "duration": 0.278,
        "velocity": 1,
        "hand": "right"
      },
      {
        "midi": 70,
        "time": 268.333,
        "duration": 0.278,
        "velocity": 1,
        "hand": "right"
      },
      {
        "midi": 74,
        "time": 268.333,
        "duration": 0.541,
        "velocity": 1,
        "hand": "right"
      },
      {
        "midi": 78,
        "time": 268.333,
        "duration": 0.541,
        "velocity": 1,
        "hand": "right"
      },
      {
        "midi": 62,
        "time": 268.611,
        "duration": 0.278,
        "velocity": 1,
        "hand": "right"
      },
      {
        "midi": 70,
        "time": 268.889,
        "duration": 0.278,
        "velocity": 1,
        "hand": "right"
      },
      {
        "midi": 74,
        "time": 268.889,
        "duration": 0.54,
        "velocity": 1,
        "hand": "right"
      },
      {
        "midi": 78,
        "time": 268.889,
        "duration": 0.54,
        "velocity": 1,
        "hand": "right"
      },
      {
        "midi": 62,
        "time": 269.166,
        "duration": 0.278,
        "velocity": 1,
        "hand": "right"
      },
      {
        "midi": 70,
        "time": 269.444,
        "duration": 0.278,
        "velocity": 1,
        "hand": "right"
      },
      {
        "midi": 74,
        "time": 269.444,
        "duration": 0.556,
        "velocity": 1,
        "hand": "right"
      },
      {
        "midi": 78,
        "time": 269.444,
        "duration": 0.541,
        "velocity": 1,
        "hand": "right"
      },
      {
        "midi": 62,
        "time": 269.722,
        "duration": 0.278,
        "velocity": 1,
        "hand": "right"
      },
      {
        "midi": 70,
        "time": 270,
        "duration": 0.278,
        "velocity": 1,
        "hand": "right"
      },
      {
        "midi": 76,
        "time": 270,
        "duration": 0.54,
        "velocity": 1,
        "hand": "right"
      },
      {
        "midi": 78,
        "time": 270,
        "duration": 0.54,
        "velocity": 1,
        "hand": "right"
      },
      {
        "midi": 61,
        "time": 270.278,
        "duration": 0.278,
        "velocity": 1,
        "hand": "right"
      },
      {
        "midi": 70,
        "time": 270.555,
        "duration": 0.278,
        "velocity": 1,
        "hand": "right"
      },
      {
        "midi": 76,
        "time": 270.555,
        "duration": 0.541,
        "velocity": 1,
        "hand": "right"
      },
      {
        "midi": 78,
        "time": 270.555,
        "duration": 0.541,
        "velocity": 1,
        "hand": "right"
      },
      {
        "midi": 61,
        "time": 270.833,
        "duration": 0.278,
        "velocity": 1,
        "hand": "right"
      },
      {
        "midi": 70,
        "time": 271.111,
        "duration": 0.278,
        "velocity": 1,
        "hand": "right"
      },
      {
        "midi": 76,
        "time": 271.111,
        "duration": 0.54,
        "velocity": 1,
        "hand": "right"
      },
      {
        "midi": 78,
        "time": 271.111,
        "duration": 0.54,
        "velocity": 1,
        "hand": "right"
      },
      {
        "midi": 61,
        "time": 271.389,
        "duration": 0.262,
        "velocity": 1,
        "hand": "right"
      },
      {
        "midi": 61,
        "time": 271.666,
        "duration": 0.278,
        "velocity": 1,
        "hand": "right"
      },
      {
        "midi": 70,
        "time": 271.666,
        "duration": 0.541,
        "velocity": 1,
        "hand": "right"
      },
      {
        "midi": 76,
        "time": 271.666,
        "duration": 0.541,
        "velocity": 1,
        "hand": "right"
      },
      {
        "midi": 78,
        "time": 271.666,
        "duration": 0.541,
        "velocity": 1,
        "hand": "right"
      },
      {
        "midi": 54,
        "time": 271.944,
        "duration": 0.278,
        "velocity": 1,
        "hand": "left"
      },
      {
        "midi": 61,
        "time": 272.222,
        "duration": 0.278,
        "velocity": 1,
        "hand": "right"
      },
      {
        "midi": 70,
        "time": 272.222,
        "duration": 0.541,
        "velocity": 1,
        "hand": "right"
      },
      {
        "midi": 76,
        "time": 272.222,
        "duration": 0.541,
        "velocity": 1,
        "hand": "right"
      },
      {
        "midi": 78,
        "time": 272.222,
        "duration": 0.541,
        "velocity": 1,
        "hand": "right"
      },
      {
        "midi": 54,
        "time": 272.5,
        "duration": 0.278,
        "velocity": 1,
        "hand": "left"
      },
      {
        "midi": 61,
        "time": 272.778,
        "duration": 0.278,
        "velocity": 1,
        "hand": "right"
      },
      {
        "midi": 70,
        "time": 272.778,
        "duration": 0.556,
        "velocity": 1,
        "hand": "right"
      },
      {
        "midi": 76,
        "time": 272.778,
        "duration": 0.556,
        "velocity": 1,
        "hand": "right"
      },
      {
        "midi": 78,
        "time": 272.778,
        "duration": 0.556,
        "velocity": 1,
        "hand": "right"
      },
      {
        "midi": 54,
        "time": 273.055,
        "duration": 0.278,
        "velocity": 1,
        "hand": "left"
      },
      {
        "midi": 49,
        "time": 273.333,
        "duration": 0.278,
        "velocity": 1,
        "hand": "left"
      },
      {
        "midi": 58,
        "time": 273.333,
        "duration": 0.541,
        "velocity": 1,
        "hand": "left"
      },
      {
        "midi": 64,
        "time": 273.333,
        "duration": 0.541,
        "velocity": 1,
        "hand": "right"
      },
      {
        "midi": 66,
        "time": 273.333,
        "duration": 0.541,
        "velocity": 1,
        "hand": "right"
      },
      {
        "midi": 42,
        "time": 273.611,
        "duration": 0.278,
        "velocity": 1,
        "hand": "left"
      },
      {
        "midi": 49,
        "time": 273.889,
        "duration": 0.278,
        "velocity": 1,
        "hand": "left"
      },
      {
        "midi": 58,
        "time": 273.889,
        "duration": 0.54,
        "velocity": 1,
        "hand": "left"
      },
      {
        "midi": 64,
        "time": 273.889,
        "duration": 0.54,
        "velocity": 1,
        "hand": "right"
      },
      {
        "midi": 66,
        "time": 273.889,
        "duration": 0.54,
        "velocity": 1,
        "hand": "right"
      },
      {
        "midi": 42,
        "time": 274.166,
        "duration": 0.278,
        "velocity": 1,
        "hand": "left"
      },
      {
        "midi": 49,
        "time": 274.444,
        "duration": 0.278,
        "velocity": 1,
        "hand": "left"
      },
      {
        "midi": 58,
        "time": 274.444,
        "duration": 0.556,
        "velocity": 1,
        "hand": "left"
      },
      {
        "midi": 64,
        "time": 274.444,
        "duration": 0.556,
        "velocity": 1,
        "hand": "right"
      },
      {
        "midi": 66,
        "time": 274.444,
        "duration": 0.541,
        "velocity": 1,
        "hand": "right"
      },
      {
        "midi": 42,
        "time": 274.722,
        "duration": 0.278,
        "velocity": 1,
        "hand": "left"
      },
      {
        "midi": 62,
        "time": 275,
        "duration": 0.278,
        "velocity": 1,
        "hand": "right"
      },
      {
        "midi": 66,
        "time": 275,
        "duration": 0.278,
        "velocity": 1,
        "hand": "right"
      },
      {
        "midi": 71,
        "time": 275,
        "duration": 0.278,
        "velocity": 1,
        "hand": "right"
      },
      {
        "midi": 61,
        "time": 275.278,
        "duration": 0.278,
        "velocity": 1,
        "hand": "right"
      },
      {
        "midi": 65,
        "time": 275.278,
        "duration": 0.278,
        "velocity": 1,
        "hand": "right"
      },
      {
        "midi": 62,
        "time": 275.555,
        "duration": 0.556,
        "velocity": 1,
        "hand": "right"
      },
      {
        "midi": 66,
        "time": 275.555,
        "duration": 0.556,
        "velocity": 1,
        "hand": "right"
      },
      {
        "midi": 71,
        "time": 275.555,
        "duration": 0.556,
        "velocity": 1,
        "hand": "right"
      },
      {
        "midi": 47,
        "time": 275.833,
        "duration": 0.278,
        "velocity": 1,
        "hand": "left"
      },
      {
        "midi": 61,
        "time": 276.111,
        "duration": 0.278,
        "velocity": 1,
        "hand": "right"
      },
      {
        "midi": 64,
        "time": 276.111,
        "duration": 0.278,
        "velocity": 1,
        "hand": "right"
      },
      {
        "midi": 70,
        "time": 276.111,
        "duration": 0.278,
        "velocity": 1,
        "hand": "right"
      },
      {
        "midi": 47,
        "time": 276.389,
        "duration": 0.278,
        "velocity": 1,
        "hand": "left"
      },
      {
        "midi": 59,
        "time": 276.666,
        "duration": 0.278,
        "velocity": 1,
        "hand": "left"
      },
      {
        "midi": 62,
        "time": 276.666,
        "duration": 0.278,
        "velocity": 1,
        "hand": "right"
      },
      {
        "midi": 67,
        "time": 276.666,
        "duration": 0.278,
        "velocity": 1,
        "hand": "right"
      },
      {
        "midi": 58,
        "time": 276.944,
        "duration": 0.278,
        "velocity": 1,
        "hand": "left"
      },
      {
        "midi": 61,
        "time": 276.944,
        "duration": 0.278,
        "velocity": 1,
        "hand": "right"
      },
      {
        "midi": 66,
        "time": 276.944,
        "duration": 0.278,
        "velocity": 1,
        "hand": "right"
      },
      {
        "midi": 59,
        "time": 277.222,
        "duration": 0.556,
        "velocity": 1,
        "hand": "left"
      },
      {
        "midi": 62,
        "time": 277.222,
        "duration": 0.556,
        "velocity": 1,
        "hand": "right"
      },
      {
        "midi": 67,
        "time": 277.222,
        "duration": 0.556,
        "velocity": 1,
        "hand": "right"
      },
      {
        "midi": 47,
        "time": 277.5,
        "duration": 0.278,
        "velocity": 1,
        "hand": "left"
      },
      {
        "midi": 58,
        "time": 277.778,
        "duration": 0.278,
        "velocity": 1,
        "hand": "left"
      },
      {
        "midi": 61,
        "time": 277.778,
        "duration": 0.278,
        "velocity": 1,
        "hand": "right"
      },
      {
        "midi": 66,
        "time": 277.778,
        "duration": 0.278,
        "velocity": 1,
        "hand": "right"
      },
      {
        "midi": 47,
        "time": 278.055,
        "duration": 0.278,
        "velocity": 1,
        "hand": "left"
      },
      {
        "midi": 57,
        "time": 278.333,
        "duration": 0.278,
        "velocity": 1,
        "hand": "left"
      },
      {
        "midi": 60,
        "time": 278.333,
        "duration": 0.278,
        "velocity": 1,
        "hand": "right"
      },
      {
        "midi": 66,
        "time": 278.333,
        "duration": 0.278,
        "velocity": 1,
        "hand": "right"
      },
      {
        "midi": 56,
        "time": 278.611,
        "duration": 0.278,
        "velocity": 1,
        "hand": "left"
      },
      {
        "midi": 59,
        "time": 278.611,
        "duration": 0.278,
        "velocity": 1,
        "hand": "left"
      },
      {
        "midi": 57,
        "time": 278.889,
        "duration": 0.556,
        "velocity": 1,
        "hand": "left"
      },
      {
        "midi": 60,
        "time": 278.889,
        "duration": 0.556,
        "velocity": 1,
        "hand": "right"
      },
      {
        "midi": 66,
        "time": 278.889,
        "duration": 0.556,
        "velocity": 1,
        "hand": "right"
      },
      {
        "midi": 47,
        "time": 279.166,
        "duration": 0.278,
        "velocity": 1,
        "hand": "left"
      },
      {
        "midi": 56,
        "time": 279.444,
        "duration": 0.278,
        "velocity": 1,
        "hand": "left"
      },
      {
        "midi": 59,
        "time": 279.444,
        "duration": 0.278,
        "velocity": 1,
        "hand": "left"
      },
      {
        "midi": 64,
        "time": 279.444,
        "duration": 0.278,
        "velocity": 1,
        "hand": "right"
      },
      {
        "midi": 47,
        "time": 279.722,
        "duration": 0.278,
        "velocity": 1,
        "hand": "left"
      },
      {
        "midi": 55,
        "time": 280,
        "duration": 0.278,
        "velocity": 1,
        "hand": "left"
      },
      {
        "midi": 58,
        "time": 280,
        "duration": 0.278,
        "velocity": 1,
        "hand": "left"
      },
      {
        "midi": 64,
        "time": 280,
        "duration": 0.278,
        "velocity": 1,
        "hand": "right"
      },
      {
        "midi": 47,
        "time": 280.278,
        "duration": 0.278,
        "velocity": 1,
        "hand": "left"
      },
      {
        "midi": 54,
        "time": 280.555,
        "duration": 0.278,
        "velocity": 1,
        "hand": "left"
      },
      {
        "midi": 58,
        "time": 280.555,
        "duration": 0.278,
        "velocity": 1,
        "hand": "left"
      },
      {
        "midi": 62,
        "time": 280.555,
        "duration": 0.278,
        "velocity": 1,
        "hand": "right"
      },
      {
        "midi": 47,
        "time": 280.833,
        "duration": 0.278,
        "velocity": 1,
        "hand": "left"
      },
      {
        "midi": 52,
        "time": 281.111,
        "duration": 0.278,
        "velocity": 1,
        "hand": "left"
      },
      {
        "midi": 58,
        "time": 281.111,
        "duration": 0.278,
        "velocity": 1,
        "hand": "left"
      },
      {
        "midi": 61,
        "time": 281.111,
        "duration": 0.278,
        "velocity": 1,
        "hand": "right"
      },
      {
        "midi": 47,
        "time": 281.389,
        "duration": 0.278,
        "velocity": 1,
        "hand": "left"
      },
      {
        "midi": 50,
        "time": 281.389,
        "duration": 0.278,
        "velocity": 1,
        "hand": "left"
      },
      {
        "midi": 53,
        "time": 281.666,
        "duration": 0.278,
        "velocity": 1,
        "hand": "left"
      },
      {
        "midi": 54,
        "time": 281.944,
        "duration": 0.278,
        "velocity": 1,
        "hand": "left"
      },
      {
        "midi": 55,
        "time": 282.222,
        "duration": 0.833,
        "velocity": 1,
        "hand": "left"
      },
      {
        "midi": 62,
        "time": 282.5,
        "duration": 0.278,
        "velocity": 1,
        "hand": "right"
      },
      {
        "midi": 71,
        "time": 282.5,
        "duration": 0.263,
        "velocity": 1,
        "hand": "right"
      },
      {
        "midi": 74,
        "time": 282.5,
        "duration": 0.263,
        "velocity": 1,
        "hand": "right"
      },
      {
        "midi": 64,
        "time": 282.778,
        "duration": 0.278,
        "velocity": 1,
        "hand": "right"
      },
      {
        "midi": 71,
        "time": 282.778,
        "duration": 0.262,
        "velocity": 1,
        "hand": "right"
      },
      {
        "midi": 74,
        "time": 282.778,
        "duration": 0.262,
        "velocity": 1,
        "hand": "right"
      },
      {
        "midi": 43,
        "time": 283.055,
        "duration": 0.278,
        "velocity": 1,
        "hand": "left"
      },
      {
        "midi": 65,
        "time": 283.055,
        "duration": 0.278,
        "velocity": 1,
        "hand": "right"
      },
      {
        "midi": 71,
        "time": 283.055,
        "duration": 0.278,
        "velocity": 1,
        "hand": "right"
      },
      {
        "midi": 74,
        "time": 283.055,
        "duration": 0.278,
        "velocity": 1,
        "hand": "right"
      },
      {
        "midi": 45,
        "time": 283.333,
        "duration": 0.278,
        "velocity": 1,
        "hand": "left"
      },
      {
        "midi": 43,
        "time": 283.611,
        "duration": 0.278,
        "velocity": 1,
        "hand": "left"
      },
      {
        "midi": 42,
        "time": 283.889,
        "duration": 0.833,
        "velocity": 1,
        "hand": "left"
      },
      {
        "midi": 56,
        "time": 284.166,
        "duration": 0.278,
        "velocity": 1,
        "hand": "left"
      },
      {
        "midi": 59,
        "time": 284.166,
        "duration": 0.278,
        "velocity": 1,
        "hand": "left"
      },
      {
        "midi": 66,
        "time": 284.166,
        "duration": 0.278,
        "velocity": 1,
        "hand": "right"
      },
      {
        "midi": 58,
        "time": 284.444,
        "duration": 0.278,
        "velocity": 1,
        "hand": "left"
      },
      {
        "midi": 61,
        "time": 284.444,
        "duration": 0.278,
        "velocity": 1,
        "hand": "right"
      },
      {
        "midi": 64,
        "time": 284.444,
        "duration": 0.278,
        "velocity": 1,
        "hand": "right"
      },
      {
        "midi": 47,
        "time": 284.722,
        "duration": 0.278,
        "velocity": 1,
        "hand": "left"
      },
      {
        "midi": 59,
        "time": 284.722,
        "duration": 0.278,
        "velocity": 1,
        "hand": "left"
      },
      {
        "midi": 62,
        "time": 284.722,
        "duration": 0.278,
        "velocity": 1,
        "hand": "right"
      },
      {
        "midi": 53,
        "time": 285,
        "duration": 0.278,
        "velocity": 1,
        "hand": "left"
      },
      {
        "midi": 54,
        "time": 285.278,
        "duration": 0.278,
        "velocity": 1,
        "hand": "left"
      },
      {
        "midi": 55,
        "time": 285.555,
        "duration": 0.833,
        "velocity": 1,
        "hand": "left"
      },
      {
        "midi": 62,
        "time": 285.833,
        "duration": 0.278,
        "velocity": 1,
        "hand": "right"
      },
      {
        "midi": 71,
        "time": 285.833,
        "duration": 0.263,
        "velocity": 1,
        "hand": "right"
      },
      {
        "midi": 74,
        "time": 285.833,
        "duration": 0.263,
        "velocity": 1,
        "hand": "right"
      },
      {
        "midi": 64,
        "time": 286.111,
        "duration": 0.278,
        "velocity": 1,
        "hand": "right"
      },
      {
        "midi": 71,
        "time": 286.111,
        "duration": 0.263,
        "velocity": 1,
        "hand": "right"
      },
      {
        "midi": 74,
        "time": 286.111,
        "duration": 0.263,
        "velocity": 1,
        "hand": "right"
      },
      {
        "midi": 43,
        "time": 286.389,
        "duration": 0.278,
        "velocity": 1,
        "hand": "left"
      },
      {
        "midi": 65,
        "time": 286.389,
        "duration": 0.278,
        "velocity": 1,
        "hand": "right"
      },
      {
        "midi": 71,
        "time": 286.389,
        "duration": 0.278,
        "velocity": 1,
        "hand": "right"
      },
      {
        "midi": 74,
        "time": 286.389,
        "duration": 0.278,
        "velocity": 1,
        "hand": "right"
      },
      {
        "midi": 45,
        "time": 286.666,
        "duration": 0.278,
        "velocity": 1,
        "hand": "left"
      },
      {
        "midi": 43,
        "time": 286.944,
        "duration": 0.278,
        "velocity": 1,
        "hand": "left"
      },
      {
        "midi": 42,
        "time": 287.222,
        "duration": 0.833,
        "velocity": 1,
        "hand": "left"
      },
      {
        "midi": 56,
        "time": 287.5,
        "duration": 0.278,
        "velocity": 1,
        "hand": "left"
      },
      {
        "midi": 59,
        "time": 287.5,
        "duration": 0.278,
        "velocity": 1,
        "hand": "left"
      },
      {
        "midi": 66,
        "time": 287.5,
        "duration": 0.278,
        "velocity": 1,
        "hand": "right"
      },
      {
        "midi": 58,
        "time": 287.778,
        "duration": 0.278,
        "velocity": 1,
        "hand": "left"
      },
      {
        "midi": 61,
        "time": 287.778,
        "duration": 0.278,
        "velocity": 1,
        "hand": "right"
      },
      {
        "midi": 64,
        "time": 287.778,
        "duration": 0.278,
        "velocity": 1,
        "hand": "right"
      },
      {
        "midi": 47,
        "time": 288.055,
        "duration": 0.278,
        "velocity": 1,
        "hand": "left"
      },
      {
        "midi": 59,
        "time": 288.055,
        "duration": 0.278,
        "velocity": 1,
        "hand": "left"
      },
      {
        "midi": 62,
        "time": 288.055,
        "duration": 0.278,
        "velocity": 1,
        "hand": "right"
      },
      {
        "midi": 52,
        "time": 288.333,
        "duration": 0.278,
        "velocity": 1,
        "hand": "left"
      },
      {
        "midi": 50,
        "time": 288.611,
        "duration": 0.278,
        "velocity": 1,
        "hand": "left"
      },
      {
        "midi": 49,
        "time": 288.889,
        "duration": 0.833,
        "velocity": 1,
        "hand": "left"
      },
      {
        "midi": 57,
        "time": 289.166,
        "duration": 0.263,
        "velocity": 1,
        "hand": "left"
      },
      {
        "midi": 64,
        "time": 289.166,
        "duration": 0.263,
        "velocity": 1,
        "hand": "right"
      },
      {
        "midi": 69,
        "time": 289.166,
        "duration": 0.278,
        "velocity": 1,
        "hand": "right"
      },
      {
        "midi": 57,
        "time": 289.444,
        "duration": 0.263,
        "velocity": 1,
        "hand": "left"
      },
      {
        "midi": 64,
        "time": 289.444,
        "duration": 0.278,
        "velocity": 1,
        "hand": "right"
      },
      {
        "midi": 67,
        "time": 289.444,
        "duration": 0.278,
        "velocity": 1,
        "hand": "right"
      },
      {
        "midi": 50,
        "time": 289.722,
        "duration": 0.278,
        "velocity": 1,
        "hand": "left"
      },
      {
        "midi": 57,
        "time": 289.722,
        "duration": 0.278,
        "velocity": 1,
        "hand": "left"
      },
      {
        "midi": 62,
        "time": 289.722,
        "duration": 0.278,
        "velocity": 1,
        "hand": "right"
      },
      {
        "midi": 66,
        "time": 289.722,
        "duration": 0.278,
        "velocity": 1,
        "hand": "right"
      },
      {
        "midi": 56,
        "time": 290,
        "duration": 0.278,
        "velocity": 1,
        "hand": "left"
      },
      {
        "midi": 54,
        "time": 290.278,
        "duration": 0.278,
        "velocity": 1,
        "hand": "left"
      },
      {
        "midi": 53,
        "time": 290.555,
        "duration": 0.833,
        "velocity": 1,
        "hand": "left"
      },
      {
        "midi": 61,
        "time": 290.833,
        "duration": 0.263,
        "velocity": 1,
        "hand": "right"
      },
      {
        "midi": 68,
        "time": 290.833,
        "duration": 0.263,
        "velocity": 1,
        "hand": "right"
      },
      {
        "midi": 73,
        "time": 290.833,
        "duration": 0.278,
        "velocity": 1,
        "hand": "right"
      },
      {
        "midi": 61,
        "time": 291.111,
        "duration": 0.263,
        "velocity": 1,
        "hand": "right"
      },
      {
        "midi": 68,
        "time": 291.111,
        "duration": 0.278,
        "velocity": 1,
        "hand": "right"
      },
      {
        "midi": 71,
        "time": 291.111,
        "duration": 0.278,
        "velocity": 1,
        "hand": "right"
      },
      {
        "midi": 54,
        "time": 291.389,
        "duration": 0.278,
        "velocity": 1,
        "hand": "left"
      },
      {
        "midi": 61,
        "time": 291.389,
        "duration": 0.278,
        "velocity": 1,
        "hand": "right"
      },
      {
        "midi": 66,
        "time": 291.389,
        "duration": 0.262,
        "velocity": 1,
        "hand": "right"
      },
      {
        "midi": 70,
        "time": 291.389,
        "duration": 0.278,
        "velocity": 1,
        "hand": "right"
      },
      {
        "midi": 58,
        "time": 291.666,
        "duration": 0.556,
        "velocity": 1,
        "hand": "left"
      },
      {
        "midi": 66,
        "time": 291.666,
        "duration": 0.541,
        "velocity": 1,
        "hand": "right"
      },
      {
        "midi": 73,
        "time": 291.666,
        "duration": 0.556,
        "velocity": 1,
        "hand": "right"
      },
      {
        "midi": 78,
        "time": 291.666,
        "duration": 0.278,
        "velocity": 1,
        "hand": "right"
      },
      {
        "midi": 76,
        "time": 291.944,
        "duration": 0.278,
        "velocity": 1,
        "hand": "right"
      },
      {
        "midi": 56,
        "time": 292.222,
        "duration": 0.278,
        "velocity": 1,
        "hand": "left"
      },
      {
        "midi": 66,
        "time": 292.222,
        "duration": 0.263,
        "velocity": 1,
        "hand": "right"
      },
      {
        "midi": 71,
        "time": 292.222,
        "duration": 0.278,
        "velocity": 1,
        "hand": "right"
      },
      {
        "midi": 74,
        "time": 292.222,
        "duration": 0.278,
        "velocity": 1,
        "hand": "right"
      },
      {
        "midi": 58,
        "time": 292.5,
        "duration": 0.556,
        "velocity": 1,
        "hand": "left"
      },
      {
        "midi": 66,
        "time": 292.5,
        "duration": 0.54,
        "velocity": 1,
        "hand": "right"
      },
      {
        "midi": 73,
        "time": 292.5,
        "duration": 0.556,
        "velocity": 1,
        "hand": "right"
      },
      {
        "midi": 78,
        "time": 292.5,
        "duration": 0.278,
        "velocity": 1,
        "hand": "right"
      },
      {
        "midi": 76,
        "time": 292.778,
        "duration": 0.278,
        "velocity": 1,
        "hand": "right"
      },
      {
        "midi": 56,
        "time": 293.055,
        "duration": 0.278,
        "velocity": 1,
        "hand": "left"
      },
      {
        "midi": 66,
        "time": 293.055,
        "duration": 0.263,
        "velocity": 1,
        "hand": "right"
      },
      {
        "midi": 71,
        "time": 293.055,
        "duration": 0.278,
        "velocity": 1,
        "hand": "right"
      },
      {
        "midi": 74,
        "time": 293.055,
        "duration": 0.278,
        "velocity": 1,
        "hand": "right"
      },
      {
        "midi": 58,
        "time": 293.333,
        "duration": 0.556,
        "velocity": 1,
        "hand": "left"
      },
      {
        "midi": 66,
        "time": 293.333,
        "duration": 0.541,
        "velocity": 1,
        "hand": "right"
      },
      {
        "midi": 73,
        "time": 293.333,
        "duration": 0.556,
        "velocity": 1,
        "hand": "right"
      },
      {
        "midi": 78,
        "time": 293.333,
        "duration": 0.278,
        "velocity": 1,
        "hand": "right"
      },
      {
        "midi": 76,
        "time": 293.611,
        "duration": 0.278,
        "velocity": 1,
        "hand": "right"
      },
      {
        "midi": 56,
        "time": 293.889,
        "duration": 0.278,
        "velocity": 1,
        "hand": "left"
      },
      {
        "midi": 66,
        "time": 293.889,
        "duration": 0.262,
        "velocity": 1,
        "hand": "right"
      },
      {
        "midi": 71,
        "time": 293.889,
        "duration": 0.278,
        "velocity": 1,
        "hand": "right"
      },
      {
        "midi": 74,
        "time": 293.889,
        "duration": 0.278,
        "velocity": 1,
        "hand": "right"
      },
      {
        "midi": 58,
        "time": 294.166,
        "duration": 0.278,
        "velocity": 1,
        "hand": "left"
      },
      {
        "midi": 66,
        "time": 294.166,
        "duration": 0.263,
        "velocity": 1,
        "hand": "right"
      },
      {
        "midi": 73,
        "time": 294.166,
        "duration": 0.278,
        "velocity": 1,
        "hand": "right"
      },
      {
        "midi": 78,
        "time": 294.166,
        "duration": 0.278,
        "velocity": 1,
        "hand": "right"
      },
      {
        "midi": 59,
        "time": 294.444,
        "duration": 0.263,
        "velocity": 1,
        "hand": "left"
      },
      {
        "midi": 66,
        "time": 294.444,
        "duration": 0.278,
        "velocity": 1,
        "hand": "right"
      },
      {
        "midi": 71,
        "time": 294.444,
        "duration": 0.263,
        "velocity": 1,
        "hand": "right"
      },
      {
        "midi": 74,
        "time": 294.444,
        "duration": 0.278,
        "velocity": 1,
        "hand": "right"
      },
      {
        "midi": 52,
        "time": 294.722,
        "duration": 0.818,
        "velocity": 1,
        "hand": "left"
      },
      {
        "midi": 59,
        "time": 294.722,
        "duration": 0.833,
        "velocity": 1,
        "hand": "left"
      },
      {
        "midi": 67,
        "time": 294.722,
        "duration": 0.833,
        "velocity": 1,
        "hand": "right"
      },
      {
        "midi": 71,
        "time": 294.722,
        "duration": 0.833,
        "velocity": 1,
        "hand": "right"
      },
      {
        "midi": 76,
        "time": 294.722,
        "duration": 0.833,
        "velocity": 1,
        "hand": "right"
      },
      {
        "midi": 79,
        "time": 294.722,
        "duration": 0.833,
        "velocity": 1,
        "hand": "right"
      },
      {
        "midi": 52,
        "time": 295.555,
        "duration": 0.556,
        "velocity": 1,
        "hand": "left"
      },
      {
        "midi": 55,
        "time": 295.694,
        "duration": 0.139,
        "velocity": 1,
        "hand": "left"
      },
      {
        "midi": 59,
        "time": 295.833,
        "duration": 0.139,
        "velocity": 1,
        "hand": "left"
      },
      {
        "midi": 61,
        "time": 295.972,
        "duration": 0.139,
        "velocity": 1,
        "hand": "right"
      },
      {
        "midi": 64,
        "time": 296.111,
        "duration": 0.139,
        "velocity": 1,
        "hand": "right"
      },
      {
        "midi": 67,
        "time": 296.25,
        "duration": 0.139,
        "velocity": 1,
        "hand": "right"
      },
      {
        "midi": 76,
        "time": 296.389,
        "duration": 0.139,
        "velocity": 1,
        "hand": "right"
      },
      {
        "midi": 73,
        "time": 296.528,
        "duration": 0.139,
        "velocity": 1,
        "hand": "right"
      },
      {
        "midi": 71,
        "time": 296.666,
        "duration": 0.139,
        "velocity": 1,
        "hand": "right"
      },
      {
        "midi": 67,
        "time": 296.805,
        "duration": 0.139,
        "velocity": 1,
        "hand": "right"
      },
      {
        "midi": 64,
        "time": 296.944,
        "duration": 0.139,
        "velocity": 1,
        "hand": "right"
      },
      {
        "midi": 61,
        "time": 297.083,
        "duration": 0.139,
        "velocity": 1,
        "hand": "right"
      },
      {
        "midi": 59,
        "time": 297.222,
        "duration": 0.139,
        "velocity": 1,
        "hand": "left"
      },
      {
        "midi": 55,
        "time": 297.361,
        "duration": 0.139,
        "velocity": 1,
        "hand": "left"
      },
      {
        "midi": 52,
        "time": 297.5,
        "duration": 0.139,
        "velocity": 1,
        "hand": "left"
      },
      {
        "midi": 49,
        "time": 297.639,
        "duration": 0.139,
        "velocity": 1,
        "hand": "left"
      },
      {
        "midi": 47,
        "time": 297.778,
        "duration": 0.139,
        "velocity": 1,
        "hand": "left"
      },
      {
        "midi": 43,
        "time": 297.916,
        "duration": 0.139,
        "velocity": 1,
        "hand": "left"
      },
      {
        "midi": 40,
        "time": 298.055,
        "duration": 0.278,
        "velocity": 1,
        "hand": "left"
      },
      {
        "midi": 49,
        "time": 298.333,
        "duration": 0.278,
        "velocity": 1,
        "hand": "left"
      },
      {
        "midi": 55,
        "time": 298.611,
        "duration": 0.278,
        "velocity": 1,
        "hand": "left"
      },
      {
        "midi": 59,
        "time": 298.611,
        "duration": 0.278,
        "velocity": 1,
        "hand": "left"
      },
      {
        "midi": 64,
        "time": 298.611,
        "duration": 0.278,
        "velocity": 1,
        "hand": "right"
      },
      {
        "midi": 52,
        "time": 298.889,
        "duration": 0.556,
        "velocity": 1,
        "hand": "left"
      },
      {
        "midi": 59,
        "time": 299.028,
        "duration": 0.139,
        "velocity": 1,
        "hand": "left"
      },
      {
        "midi": 61,
        "time": 299.166,
        "duration": 0.139,
        "velocity": 1,
        "hand": "right"
      },
      {
        "midi": 64,
        "time": 299.305,
        "duration": 0.139,
        "velocity": 1,
        "hand": "right"
      },
      {
        "midi": 67,
        "time": 299.444,
        "duration": 0.139,
        "velocity": 1,
        "hand": "right"
      },
      {
        "midi": 71,
        "time": 299.583,
        "duration": 0.139,
        "velocity": 1,
        "hand": "right"
      },
      {
        "midi": 79,
        "time": 299.722,
        "duration": 0.139,
        "velocity": 1,
        "hand": "right"
      },
      {
        "midi": 76,
        "time": 299.861,
        "duration": 0.139,
        "velocity": 1,
        "hand": "right"
      },
      {
        "midi": 73,
        "time": 300,
        "duration": 0.139,
        "velocity": 1,
        "hand": "right"
      },
      {
        "midi": 71,
        "time": 300.139,
        "duration": 0.139,
        "velocity": 1,
        "hand": "right"
      },
      {
        "midi": 67,
        "time": 300.278,
        "duration": 0.139,
        "velocity": 1,
        "hand": "right"
      },
      {
        "midi": 64,
        "time": 300.416,
        "duration": 0.139,
        "velocity": 1,
        "hand": "right"
      },
      {
        "midi": 61,
        "time": 300.555,
        "duration": 0.139,
        "velocity": 1,
        "hand": "right"
      },
      {
        "midi": 59,
        "time": 300.694,
        "duration": 0.139,
        "velocity": 1,
        "hand": "left"
      },
      {
        "midi": 55,
        "time": 300.833,
        "duration": 0.139,
        "velocity": 1,
        "hand": "left"
      },
      {
        "midi": 52,
        "time": 300.972,
        "duration": 0.139,
        "velocity": 1,
        "hand": "left"
      },
      {
        "midi": 49,
        "time": 301.111,
        "duration": 0.139,
        "velocity": 1,
        "hand": "left"
      },
      {
        "midi": 47,
        "time": 301.25,
        "duration": 0.139,
        "velocity": 1,
        "hand": "left"
      },
      {
        "midi": 43,
        "time": 301.389,
        "duration": 0.278,
        "velocity": 1,
        "hand": "left"
      },
      {
        "midi": 49,
        "time": 301.666,
        "duration": 0.278,
        "velocity": 1,
        "hand": "left"
      },
      {
        "midi": 59,
        "time": 301.944,
        "duration": 0.278,
        "velocity": 1,
        "hand": "left"
      },
      {
        "midi": 64,
        "time": 301.944,
        "duration": 0.278,
        "velocity": 1,
        "hand": "right"
      },
      {
        "midi": 67,
        "time": 301.944,
        "duration": 0.278,
        "velocity": 1,
        "hand": "right"
      },
      {
        "midi": 71,
        "time": 301.944,
        "duration": 0.278,
        "velocity": 1,
        "hand": "right"
      },
      {
        "midi": 42,
        "time": 302.222,
        "duration": 0.556,
        "velocity": 1,
        "hand": "left"
      },
      {
        "midi": 47,
        "time": 302.361,
        "duration": 0.139,
        "velocity": 1,
        "hand": "left"
      },
      {
        "midi": 50,
        "time": 302.5,
        "duration": 0.139,
        "velocity": 1,
        "hand": "left"
      },
      {
        "midi": 54,
        "time": 302.639,
        "duration": 0.139,
        "velocity": 1,
        "hand": "left"
      },
      {
        "midi": 59,
        "time": 302.778,
        "duration": 0.139,
        "velocity": 1,
        "hand": "left"
      },
      {
        "midi": 62,
        "time": 302.916,
        "duration": 0.139,
        "velocity": 1,
        "hand": "right"
      },
      {
        "midi": 54,
        "time": 303.055,
        "duration": 0.139,
        "velocity": 1,
        "hand": "left"
      },
      {
        "midi": 66,
        "time": 303.055,
        "duration": 0.139,
        "velocity": 1,
        "hand": "right"
      },
      {
        "midi": 59,
        "time": 303.194,
        "duration": 0.139,
        "velocity": 1,
        "hand": "left"
      },
      {
        "midi": 71,
        "time": 303.194,
        "duration": 0.139,
        "velocity": 1,
        "hand": "right"
      },
      {
        "midi": 62,
        "time": 303.333,
        "duration": 0.139,
        "velocity": 1,
        "hand": "right"
      },
      {
        "midi": 74,
        "time": 303.333,
        "duration": 0.139,
        "velocity": 1,
        "hand": "right"
      },
      {
        "midi": 66,
        "time": 303.472,
        "duration": 0.139,
        "velocity": 1,
        "hand": "right"
      },
      {
        "midi": 78,
        "time": 303.472,
        "duration": 0.139,
        "velocity": 1,
        "hand": "right"
      },
      {
        "midi": 71,
        "time": 303.611,
        "duration": 0.139,
        "velocity": 1,
        "hand": "right"
      },
      {
        "midi": 83,
        "time": 303.611,
        "duration": 0.139,
        "velocity": 1,
        "hand": "right"
      },
      {
        "midi": 74,
        "time": 303.75,
        "duration": 0.139,
        "velocity": 1,
        "hand": "right"
      },
      {
        "midi": 78,
        "time": 303.889,
        "duration": 0.278,
        "velocity": 1,
        "hand": "right"
      },
      {
        "midi": 64,
        "time": 304.166,
        "duration": 0.278,
        "velocity": 1,
        "hand": "right"
      },
      {
        "midi": 76,
        "time": 304.166,
        "duration": 0.263,
        "velocity": 1,
        "hand": "right"
      },
      {
        "midi": 79,
        "time": 304.166,
        "duration": 0.278,
        "velocity": 1,
        "hand": "right"
      },
      {
        "midi": 61,
        "time": 304.444,
        "duration": 0.278,
        "velocity": 1,
        "hand": "right"
      },
      {
        "midi": 73,
        "time": 304.444,
        "duration": 0.278,
        "velocity": 1,
        "hand": "right"
      },
      {
        "midi": 76,
        "time": 304.444,
        "duration": 0.278,
        "velocity": 1,
        "hand": "right"
      },
      {
        "midi": 62,
        "time": 304.722,
        "duration": 0.278,
        "velocity": 1,
        "hand": "right"
      },
      {
        "midi": 74,
        "time": 304.722,
        "duration": 0.263,
        "velocity": 1,
        "hand": "right"
      },
      {
        "midi": 78,
        "time": 304.722,
        "duration": 0.278,
        "velocity": 1,
        "hand": "right"
      },
      {
        "midi": 59,
        "time": 305,
        "duration": 0.278,
        "velocity": 1,
        "hand": "left"
      },
      {
        "midi": 71,
        "time": 305,
        "duration": 0.278,
        "velocity": 1,
        "hand": "right"
      },
      {
        "midi": 74,
        "time": 305,
        "duration": 0.278,
        "velocity": 1,
        "hand": "right"
      },
      {
        "midi": 61,
        "time": 305.278,
        "duration": 0.278,
        "velocity": 1,
        "hand": "right"
      },
      {
        "midi": 73,
        "time": 305.278,
        "duration": 0.262,
        "velocity": 1,
        "hand": "right"
      },
      {
        "midi": 76,
        "time": 305.278,
        "duration": 0.278,
        "velocity": 1,
        "hand": "right"
      },
      {
        "midi": 58,
        "time": 305.555,
        "duration": 0.278,
        "velocity": 1,
        "hand": "left"
      },
      {
        "midi": 70,
        "time": 305.555,
        "duration": 0.278,
        "velocity": 1,
        "hand": "right"
      },
      {
        "midi": 73,
        "time": 305.555,
        "duration": 0.278,
        "velocity": 1,
        "hand": "right"
      },
      {
        "midi": 59,
        "time": 305.833,
        "duration": 0.278,
        "velocity": 1,
        "hand": "left"
      },
      {
        "midi": 71,
        "time": 305.833,
        "duration": 0.278,
        "velocity": 1,
        "hand": "right"
      },
      {
        "midi": 74,
        "time": 305.833,
        "duration": 0.278,
        "velocity": 1,
        "hand": "right"
      },
      {
        "midi": 54,
        "time": 306.111,
        "duration": 0.278,
        "velocity": 1,
        "hand": "left"
      },
      {
        "midi": 66,
        "time": 306.111,
        "duration": 0.278,
        "velocity": 1,
        "hand": "right"
      },
      {
        "midi": 70,
        "time": 306.111,
        "duration": 0.278,
        "velocity": 1,
        "hand": "right"
      },
      {
        "midi": 82,
        "time": 306.111,
        "duration": 0.278,
        "velocity": 1,
        "hand": "right"
      },
      {
        "midi": 55,
        "time": 306.389,
        "duration": 0.278,
        "velocity": 1,
        "hand": "left"
      },
      {
        "midi": 67,
        "time": 306.389,
        "duration": 0.278,
        "velocity": 1,
        "hand": "right"
      },
      {
        "midi": 71,
        "time": 306.389,
        "duration": 0.278,
        "velocity": 1,
        "hand": "right"
      },
      {
        "midi": 83,
        "time": 306.389,
        "duration": 0.278,
        "velocity": 1,
        "hand": "right"
      },
      {
        "midi": 50,
        "time": 306.666,
        "duration": 0.278,
        "velocity": 1,
        "hand": "left"
      },
      {
        "midi": 62,
        "time": 306.666,
        "duration": 0.278,
        "velocity": 1,
        "hand": "right"
      },
      {
        "midi": 66,
        "time": 306.666,
        "duration": 0.278,
        "velocity": 1,
        "hand": "right"
      },
      {
        "midi": 78,
        "time": 306.666,
        "duration": 0.278,
        "velocity": 1,
        "hand": "right"
      },
      {
        "midi": 52,
        "time": 306.944,
        "duration": 0.278,
        "velocity": 1,
        "hand": "left"
      },
      {
        "midi": 64,
        "time": 306.944,
        "duration": 0.263,
        "velocity": 1,
        "hand": "right"
      },
      {
        "midi": 67,
        "time": 306.944,
        "duration": 0.278,
        "velocity": 1,
        "hand": "right"
      },
      {
        "midi": 79,
        "time": 306.944,
        "duration": 0.278,
        "velocity": 1,
        "hand": "right"
      },
      {
        "midi": 49,
        "time": 307.222,
        "duration": 0.278,
        "velocity": 1,
        "hand": "left"
      },
      {
        "midi": 61,
        "time": 307.222,
        "duration": 0.278,
        "velocity": 1,
        "hand": "right"
      },
      {
        "midi": 64,
        "time": 307.222,
        "duration": 0.278,
        "velocity": 1,
        "hand": "right"
      },
      {
        "midi": 76,
        "time": 307.222,
        "duration": 0.278,
        "velocity": 1,
        "hand": "right"
      },
      {
        "midi": 50,
        "time": 307.5,
        "duration": 0.278,
        "velocity": 1,
        "hand": "left"
      },
      {
        "midi": 62,
        "time": 307.5,
        "duration": 0.263,
        "velocity": 1,
        "hand": "right"
      },
      {
        "midi": 66,
        "time": 307.5,
        "duration": 0.278,
        "velocity": 1,
        "hand": "right"
      },
      {
        "midi": 78,
        "time": 307.5,
        "duration": 0.278,
        "velocity": 1,
        "hand": "right"
      },
      {
        "midi": 47,
        "time": 307.778,
        "duration": 0.278,
        "velocity": 1,
        "hand": "left"
      },
      {
        "midi": 59,
        "time": 307.778,
        "duration": 0.278,
        "velocity": 1,
        "hand": "left"
      },
      {
        "midi": 62,
        "time": 307.778,
        "duration": 0.278,
        "velocity": 1,
        "hand": "right"
      },
      {
        "midi": 74,
        "time": 307.778,
        "duration": 0.278,
        "velocity": 1,
        "hand": "right"
      },
      {
        "midi": 49,
        "time": 308.055,
        "duration": 0.278,
        "velocity": 1,
        "hand": "left"
      },
      {
        "midi": 61,
        "time": 308.055,
        "duration": 0.263,
        "velocity": 1,
        "hand": "right"
      },
      {
        "midi": 64,
        "time": 308.055,
        "duration": 0.278,
        "velocity": 1,
        "hand": "right"
      },
      {
        "midi": 76,
        "time": 308.055,
        "duration": 0.278,
        "velocity": 1,
        "hand": "right"
      },
      {
        "midi": 46,
        "time": 308.333,
        "duration": 0.278,
        "velocity": 1,
        "hand": "left"
      },
      {
        "midi": 58,
        "time": 308.333,
        "duration": 0.278,
        "velocity": 1,
        "hand": "left"
      },
      {
        "midi": 61,
        "time": 308.333,
        "duration": 0.278,
        "velocity": 1,
        "hand": "right"
      },
      {
        "midi": 73,
        "time": 308.333,
        "duration": 0.278,
        "velocity": 1,
        "hand": "right"
      },
      {
        "midi": 47,
        "time": 308.611,
        "duration": 0.278,
        "velocity": 1,
        "hand": "left"
      },
      {
        "midi": 59,
        "time": 308.611,
        "duration": 0.278,
        "velocity": 1,
        "hand": "left"
      },
      {
        "midi": 62,
        "time": 308.611,
        "duration": 0.278,
        "velocity": 1,
        "hand": "right"
      },
      {
        "midi": 74,
        "time": 308.611,
        "duration": 0.278,
        "velocity": 1,
        "hand": "right"
      },
      {
        "midi": 42,
        "time": 308.889,
        "duration": 0.278,
        "velocity": 1,
        "hand": "left"
      },
      {
        "midi": 54,
        "time": 308.889,
        "duration": 0.278,
        "velocity": 1,
        "hand": "left"
      },
      {
        "midi": 70,
        "time": 308.889,
        "duration": 0.278,
        "velocity": 1,
        "hand": "right"
      },
      {
        "midi": 43,
        "time": 309.166,
        "duration": 0.278,
        "velocity": 1,
        "hand": "left"
      },
      {
        "midi": 55,
        "time": 309.166,
        "duration": 0.278,
        "velocity": 1,
        "hand": "left"
      },
      {
        "midi": 71,
        "time": 309.166,
        "duration": 0.278,
        "velocity": 1,
        "hand": "right"
      },
      {
        "midi": 38,
        "time": 309.444,
        "duration": 0.278,
        "velocity": 1,
        "hand": "left"
      },
      {
        "midi": 50,
        "time": 309.444,
        "duration": 0.278,
        "velocity": 1,
        "hand": "left"
      },
      {
        "midi": 66,
        "time": 309.444,
        "duration": 0.278,
        "velocity": 1,
        "hand": "right"
      },
      {
        "midi": 40,
        "time": 309.722,
        "duration": 0.556,
        "velocity": 1,
        "hand": "left"
      },
      {
        "midi": 52,
        "time": 309.722,
        "duration": 0.556,
        "velocity": 1,
        "hand": "left"
      },
      {
        "midi": 67,
        "time": 309.722,
        "duration": 0.556,
        "velocity": 1,
        "hand": "right"
      },
      {
        "midi": 42,
        "time": 310.278,
        "duration": 0.278,
        "velocity": 1,
        "hand": "left"
      },
      {
        "midi": 54,
        "time": 310.278,
        "duration": 0.278,
        "velocity": 1,
        "hand": "left"
      },
      {
        "midi": 61,
        "time": 310.278,
        "duration": 0.278,
        "velocity": 1,
        "hand": "right"
      },
      {
        "midi": 64,
        "time": 310.278,
        "duration": 0.278,
        "velocity": 1,
        "hand": "right"
      },
      {
        "midi": 70,
        "time": 310.278,
        "duration": 0.278,
        "velocity": 1,
        "hand": "right"
      },
      {
        "midi": 47,
        "time": 310.555,
        "duration": 0.278,
        "velocity": 1,
        "hand": "left"
      },
      {
        "midi": 62,
        "time": 310.555,
        "duration": 0.278,
        "velocity": 1,
        "hand": "right"
      },
      {
        "midi": 66,
        "time": 310.555,
        "duration": 0.278,
        "velocity": 1,
        "hand": "right"
      },
      {
        "midi": 71,
        "time": 310.555,
        "duration": 0.278,
        "velocity": 1,
        "hand": "right"
      },
      {
        "midi": 52,
        "time": 310.833,
        "duration": 0.278,
        "velocity": 1,
        "hand": "left"
      },
      {
        "midi": 54,
        "time": 311.111,
        "duration": 0.278,
        "velocity": 1,
        "hand": "left"
      },
      {
        "midi": 55,
        "time": 311.389,
        "duration": 1.111,
        "velocity": 1,
        "hand": "left"
      },
      {
        "midi": 61,
        "time": 311.666,
        "duration": 0.278,
        "velocity": 1,
        "hand": "right"
      },
      {
        "midi": 71,
        "time": 311.666,
        "duration": 0.263,
        "velocity": 1,
        "hand": "right"
      },
      {
        "midi": 73,
        "time": 311.666,
        "duration": 0.263,
        "velocity": 1,
        "hand": "right"
      },
      {
        "midi": 62,
        "time": 311.944,
        "duration": 0.278,
        "velocity": 1,
        "hand": "right"
      },
      {
        "midi": 71,
        "time": 311.944,
        "duration": 0.263,
        "velocity": 1,
        "hand": "right"
      },
      {
        "midi": 73,
        "time": 311.944,
        "duration": 0.263,
        "velocity": 1,
        "hand": "right"
      },
      {
        "midi": 64,
        "time": 312.222,
        "duration": 0.278,
        "velocity": 1,
        "hand": "right"
      },
      {
        "midi": 71,
        "time": 312.222,
        "duration": 0.278,
        "velocity": 1,
        "hand": "right"
      },
      {
        "midi": 73,
        "time": 312.222,
        "duration": 0.278,
        "velocity": 1,
        "hand": "right"
      },
      {
        "midi": 45,
        "time": 312.5,
        "duration": 0.278,
        "velocity": 1,
        "hand": "left"
      },
      {
        "midi": 43,
        "time": 312.778,
        "duration": 0.278,
        "velocity": 1,
        "hand": "left"
      },
      {
        "midi": 42,
        "time": 313.055,
        "duration": 0.833,
        "velocity": 1,
        "hand": "left"
      },
      {
        "midi": 56,
        "time": 313.333,
        "duration": 0.278,
        "velocity": 1,
        "hand": "left"
      },
      {
        "midi": 59,
        "time": 313.333,
        "duration": 0.278,
        "velocity": 1,
        "hand": "left"
      },
      {
        "midi": 66,
        "time": 313.333,
        "duration": 0.263,
        "velocity": 1,
        "hand": "right"
      },
      {
        "midi": 58,
        "time": 313.611,
        "duration": 0.278,
        "velocity": 1,
        "hand": "left"
      },
      {
        "midi": 61,
        "time": 313.611,
        "duration": 0.278,
        "velocity": 1,
        "hand": "right"
      },
      {
        "midi": 66,
        "time": 313.611,
        "duration": 0.263,
        "velocity": 1,
        "hand": "right"
      },
      {
        "midi": 47,
        "time": 313.889,
        "duration": 0.278,
        "velocity": 1,
        "hand": "left"
      },
      {
        "midi": 59,
        "time": 313.889,
        "duration": 0.278,
        "velocity": 1,
        "hand": "left"
      },
      {
        "midi": 62,
        "time": 313.889,
        "duration": 0.278,
        "velocity": 1,
        "hand": "right"
      },
      {
        "midi": 66,
        "time": 313.889,
        "duration": 0.278,
        "velocity": 1,
        "hand": "right"
      },
      {
        "midi": 52,
        "time": 314.166,
        "duration": 0.278,
        "velocity": 1,
        "hand": "left"
      },
      {
        "midi": 54,
        "time": 314.444,
        "duration": 0.278,
        "velocity": 1,
        "hand": "left"
      },
      {
        "midi": 55,
        "time": 314.722,
        "duration": 1.111,
        "velocity": 1,
        "hand": "left"
      },
      {
        "midi": 61,
        "time": 315,
        "duration": 0.278,
        "velocity": 1,
        "hand": "right"
      },
      {
        "midi": 71,
        "time": 315,
        "duration": 0.263,
        "velocity": 1,
        "hand": "right"
      },
      {
        "midi": 73,
        "time": 315,
        "duration": 0.263,
        "velocity": 1,
        "hand": "right"
      },
      {
        "midi": 62,
        "time": 315.278,
        "duration": 0.278,
        "velocity": 1,
        "hand": "right"
      },
      {
        "midi": 71,
        "time": 315.278,
        "duration": 0.262,
        "velocity": 1,
        "hand": "right"
      },
      {
        "midi": 73,
        "time": 315.278,
        "duration": 0.262,
        "velocity": 1,
        "hand": "right"
      },
      {
        "midi": 64,
        "time": 315.555,
        "duration": 0.278,
        "velocity": 1,
        "hand": "right"
      },
      {
        "midi": 71,
        "time": 315.555,
        "duration": 0.278,
        "velocity": 1,
        "hand": "right"
      },
      {
        "midi": 73,
        "time": 315.555,
        "duration": 0.278,
        "velocity": 1,
        "hand": "right"
      },
      {
        "midi": 45,
        "time": 315.833,
        "duration": 0.278,
        "velocity": 1,
        "hand": "left"
      },
      {
        "midi": 43,
        "time": 316.111,
        "duration": 0.278,
        "velocity": 1,
        "hand": "left"
      },
      {
        "midi": 42,
        "time": 316.389,
        "duration": 0.833,
        "velocity": 1,
        "hand": "left"
      },
      {
        "midi": 56,
        "time": 316.666,
        "duration": 0.278,
        "velocity": 1,
        "hand": "left"
      },
      {
        "midi": 59,
        "time": 316.666,
        "duration": 0.278,
        "velocity": 1,
        "hand": "left"
      },
      {
        "midi": 66,
        "time": 316.666,
        "duration": 0.263,
        "velocity": 1,
        "hand": "right"
      },
      {
        "midi": 58,
        "time": 316.944,
        "duration": 0.278,
        "velocity": 1,
        "hand": "left"
      },
      {
        "midi": 61,
        "time": 316.944,
        "duration": 0.278,
        "velocity": 1,
        "hand": "right"
      },
      {
        "midi": 66,
        "time": 316.944,
        "duration": 0.263,
        "velocity": 1,
        "hand": "right"
      },
      {
        "midi": 47,
        "time": 317.222,
        "duration": 0.278,
        "velocity": 1,
        "hand": "left"
      },
      {
        "midi": 59,
        "time": 317.222,
        "duration": 0.263,
        "velocity": 1,
        "hand": "left"
      },
      {
        "midi": 62,
        "time": 317.222,
        "duration": 0.263,
        "velocity": 1,
        "hand": "right"
      },
      {
        "midi": 66,
        "time": 317.222,
        "duration": 0.263,
        "velocity": 1,
        "hand": "right"
      },
      {
        "midi": 50,
        "time": 317.5,
        "duration": 0.263,
        "velocity": 1,
        "hand": "left"
      },
      {
        "midi": 54,
        "time": 317.5,
        "duration": 0.263,
        "velocity": 1,
        "hand": "left"
      },
      {
        "midi": 62,
        "time": 317.5,
        "duration": 0.263,
        "velocity": 1,
        "hand": "right"
      },
      {
        "midi": 66,
        "time": 317.5,
        "duration": 0.263,
        "velocity": 1,
        "hand": "right"
      },
      {
        "midi": 71,
        "time": 317.5,
        "duration": 0.278,
        "velocity": 1,
        "hand": "right"
      },
      {
        "midi": 50,
        "time": 317.778,
        "duration": 0.262,
        "velocity": 1,
        "hand": "left"
      },
      {
        "midi": 54,
        "time": 317.778,
        "duration": 0.262,
        "velocity": 1,
        "hand": "left"
      },
      {
        "midi": 62,
        "time": 317.778,
        "duration": 0.262,
        "velocity": 1,
        "hand": "right"
      },
      {
        "midi": 66,
        "time": 317.778,
        "duration": 0.262,
        "velocity": 1,
        "hand": "right"
      },
      {
        "midi": 70,
        "time": 317.778,
        "duration": 0.278,
        "velocity": 1,
        "hand": "right"
      },
      {
        "midi": 50,
        "time": 318.055,
        "duration": 0.278,
        "velocity": 1,
        "hand": "left"
      },
      {
        "midi": 54,
        "time": 318.055,
        "duration": 0.263,
        "velocity": 1,
        "hand": "left"
      },
      {
        "midi": 62,
        "time": 318.055,
        "duration": 0.263,
        "velocity": 1,
        "hand": "right"
      },
      {
        "midi": 66,
        "time": 318.055,
        "duration": 0.263,
        "velocity": 1,
        "hand": "right"
      },
      {
        "midi": 71,
        "time": 318.055,
        "duration": 0.263,
        "velocity": 1,
        "hand": "right"
      },
      {
        "midi": 54,
        "time": 318.333,
        "duration": 0.263,
        "velocity": 1,
        "hand": "left"
      },
      {
        "midi": 59,
        "time": 318.333,
        "duration": 0.263,
        "velocity": 1,
        "hand": "left"
      },
      {
        "midi": 62,
        "time": 318.333,
        "duration": 0.278,
        "velocity": 1,
        "hand": "right"
      },
      {
        "midi": 66,
        "time": 318.333,
        "duration": 0.263,
        "velocity": 1,
        "hand": "right"
      },
      {
        "midi": 71,
        "time": 318.333,
        "duration": 0.263,
        "velocity": 1,
        "hand": "right"
      },
      {
        "midi": 74,
        "time": 318.333,
        "duration": 0.278,
        "velocity": 1,
        "hand": "right"
      },
      {
        "midi": 54,
        "time": 318.611,
        "duration": 0.263,
        "velocity": 1,
        "hand": "left"
      },
      {
        "midi": 59,
        "time": 318.611,
        "duration": 0.263,
        "velocity": 1,
        "hand": "left"
      },
      {
        "midi": 61,
        "time": 318.611,
        "duration": 0.278,
        "velocity": 1,
        "hand": "right"
      },
      {
        "midi": 66,
        "time": 318.611,
        "duration": 0.263,
        "velocity": 1,
        "hand": "right"
      },
      {
        "midi": 71,
        "time": 318.611,
        "duration": 0.263,
        "velocity": 1,
        "hand": "right"
      },
      {
        "midi": 73,
        "time": 318.611,
        "duration": 0.278,
        "velocity": 1,
        "hand": "right"
      },
      {
        "midi": 54,
        "time": 318.889,
        "duration": 0.278,
        "velocity": 1,
        "hand": "left"
      },
      {
        "midi": 59,
        "time": 318.889,
        "duration": 0.262,
        "velocity": 1,
        "hand": "left"
      },
      {
        "midi": 62,
        "time": 318.889,
        "duration": 0.262,
        "velocity": 1,
        "hand": "right"
      },
      {
        "midi": 66,
        "time": 318.889,
        "duration": 0.262,
        "velocity": 1,
        "hand": "right"
      },
      {
        "midi": 71,
        "time": 318.889,
        "duration": 0.262,
        "velocity": 1,
        "hand": "right"
      },
      {
        "midi": 74,
        "time": 318.889,
        "duration": 0.262,
        "velocity": 1,
        "hand": "right"
      },
      {
        "midi": 59,
        "time": 319.166,
        "duration": 0.263,
        "velocity": 1,
        "hand": "left"
      },
      {
        "midi": 66,
        "time": 319.166,
        "duration": 0.278,
        "velocity": 1,
        "hand": "right"
      },
      {
        "midi": 71,
        "time": 319.166,
        "duration": 0.263,
        "velocity": 1,
        "hand": "right"
      },
      {
        "midi": 74,
        "time": 319.166,
        "duration": 0.263,
        "velocity": 1,
        "hand": "right"
      },
      {
        "midi": 78,
        "time": 319.166,
        "duration": 0.278,
        "velocity": 1,
        "hand": "right"
      },
      {
        "midi": 59,
        "time": 319.444,
        "duration": 0.263,
        "velocity": 1,
        "hand": "left"
      },
      {
        "midi": 65,
        "time": 319.444,
        "duration": 0.278,
        "velocity": 1,
        "hand": "right"
      },
      {
        "midi": 71,
        "time": 319.444,
        "duration": 0.263,
        "velocity": 1,
        "hand": "right"
      },
      {
        "midi": 74,
        "time": 319.444,
        "duration": 0.263,
        "velocity": 1,
        "hand": "right"
      },
      {
        "midi": 77,
        "time": 319.444,
        "duration": 0.278,
        "velocity": 1,
        "hand": "right"
      },
      {
        "midi": 59,
        "time": 319.722,
        "duration": 0.278,
        "velocity": 1,
        "hand": "left"
      },
      {
        "midi": 66,
        "time": 319.722,
        "duration": 0.263,
        "velocity": 1,
        "hand": "right"
      },
      {
        "midi": 71,
        "time": 319.722,
        "duration": 0.263,
        "velocity": 1,
        "hand": "right"
      },
      {
        "midi": 74,
        "time": 319.722,
        "duration": 0.263,
        "velocity": 1,
        "hand": "right"
      },
      {
        "midi": 78,
        "time": 319.722,
        "duration": 0.263,
        "velocity": 1,
        "hand": "right"
      },
      {
        "midi": 71,
        "time": 320,
        "duration": 0.278,
        "velocity": 1,
        "hand": "right"
      },
      {
        "midi": 74,
        "time": 320,
        "duration": 0.263,
        "velocity": 1,
        "hand": "right"
      },
      {
        "midi": 78,
        "time": 320,
        "duration": 0.263,
        "velocity": 1,
        "hand": "right"
      },
      {
        "midi": 83,
        "time": 320,
        "duration": 0.278,
        "velocity": 1,
        "hand": "right"
      },
      {
        "midi": 70,
        "time": 320.278,
        "duration": 0.278,
        "velocity": 1,
        "hand": "right"
      },
      {
        "midi": 74,
        "time": 320.278,
        "duration": 0.262,
        "velocity": 1,
        "hand": "right"
      },
      {
        "midi": 78,
        "time": 320.278,
        "duration": 0.262,
        "velocity": 1,
        "hand": "right"
      },
      {
        "midi": 82,
        "time": 320.278,
        "duration": 0.278,
        "velocity": 1,
        "hand": "right"
      },
      {
        "midi": 71,
        "time": 320.555,
        "duration": 0.263,
        "velocity": 1,
        "hand": "right"
      },
      {
        "midi": 74,
        "time": 320.555,
        "duration": 0.263,
        "velocity": 1,
        "hand": "right"
      },
      {
        "midi": 78,
        "time": 320.555,
        "duration": 0.263,
        "velocity": 1,
        "hand": "right"
      },
      {
        "midi": 83,
        "time": 320.555,
        "duration": 0.263,
        "velocity": 1,
        "hand": "right"
      },
      {
        "midi": 71,
        "time": 320.833,
        "duration": 0.263,
        "velocity": 1,
        "hand": "right"
      },
      {
        "midi": 74,
        "time": 320.833,
        "duration": 0.278,
        "velocity": 1,
        "hand": "right"
      },
      {
        "midi": 78,
        "time": 320.833,
        "duration": 0.263,
        "velocity": 1,
        "hand": "right"
      },
      {
        "midi": 83,
        "time": 320.833,
        "duration": 0.263,
        "velocity": 1,
        "hand": "right"
      },
      {
        "midi": 71,
        "time": 321.111,
        "duration": 0.263,
        "velocity": 1,
        "hand": "right"
      },
      {
        "midi": 73,
        "time": 321.111,
        "duration": 0.278,
        "velocity": 1,
        "hand": "right"
      },
      {
        "midi": 78,
        "time": 321.111,
        "duration": 0.263,
        "velocity": 1,
        "hand": "right"
      },
      {
        "midi": 83,
        "time": 321.111,
        "duration": 0.263,
        "velocity": 1,
        "hand": "right"
      },
      {
        "midi": 71,
        "time": 321.389,
        "duration": 0.262,
        "velocity": 1,
        "hand": "right"
      },
      {
        "midi": 74,
        "time": 321.389,
        "duration": 0.262,
        "velocity": 1,
        "hand": "right"
      },
      {
        "midi": 78,
        "time": 321.389,
        "duration": 0.262,
        "velocity": 1,
        "hand": "right"
      },
      {
        "midi": 83,
        "time": 321.389,
        "duration": 0.262,
        "velocity": 1,
        "hand": "right"
      },
      {
        "midi": 71,
        "time": 321.666,
        "duration": 0.263,
        "velocity": 1,
        "hand": "right"
      },
      {
        "midi": 74,
        "time": 321.666,
        "duration": 0.263,
        "velocity": 1,
        "hand": "right"
      },
      {
        "midi": 78,
        "time": 321.666,
        "duration": 0.278,
        "velocity": 1,
        "hand": "right"
      },
      {
        "midi": 83,
        "time": 321.666,
        "duration": 0.263,
        "velocity": 1,
        "hand": "right"
      },
      {
        "midi": 71,
        "time": 321.944,
        "duration": 0.263,
        "velocity": 1,
        "hand": "right"
      },
      {
        "midi": 74,
        "time": 321.944,
        "duration": 0.263,
        "velocity": 1,
        "hand": "right"
      },
      {
        "midi": 77,
        "time": 321.944,
        "duration": 0.278,
        "velocity": 1,
        "hand": "right"
      },
      {
        "midi": 83,
        "time": 321.944,
        "duration": 0.263,
        "velocity": 1,
        "hand": "right"
      },
      {
        "midi": 71,
        "time": 322.222,
        "duration": 0.263,
        "velocity": 1,
        "hand": "right"
      },
      {
        "midi": 74,
        "time": 322.222,
        "duration": 0.263,
        "velocity": 1,
        "hand": "right"
      },
      {
        "midi": 78,
        "time": 322.222,
        "duration": 0.263,
        "velocity": 1,
        "hand": "right"
      },
      {
        "midi": 83,
        "time": 322.222,
        "duration": 0.263,
        "velocity": 1,
        "hand": "right"
      },
      {
        "midi": 71,
        "time": 322.5,
        "duration": 0.263,
        "velocity": 1,
        "hand": "right"
      },
      {
        "midi": 74,
        "time": 322.5,
        "duration": 0.263,
        "velocity": 1,
        "hand": "right"
      },
      {
        "midi": 78,
        "time": 322.5,
        "duration": 0.263,
        "velocity": 1,
        "hand": "right"
      },
      {
        "midi": 83,
        "time": 322.5,
        "duration": 0.278,
        "velocity": 1,
        "hand": "right"
      },
      {
        "midi": 71,
        "time": 322.778,
        "duration": 0.262,
        "velocity": 1,
        "hand": "right"
      },
      {
        "midi": 74,
        "time": 322.778,
        "duration": 0.262,
        "velocity": 1,
        "hand": "right"
      },
      {
        "midi": 78,
        "time": 322.778,
        "duration": 0.262,
        "velocity": 1,
        "hand": "right"
      },
      {
        "midi": 82,
        "time": 322.778,
        "duration": 0.278,
        "velocity": 1,
        "hand": "right"
      },
      {
        "midi": 71,
        "time": 323.055,
        "duration": 0.263,
        "velocity": 1,
        "hand": "right"
      },
      {
        "midi": 74,
        "time": 323.055,
        "duration": 0.263,
        "velocity": 1,
        "hand": "right"
      },
      {
        "midi": 78,
        "time": 323.055,
        "duration": 0.263,
        "velocity": 1,
        "hand": "right"
      },
      {
        "midi": 83,
        "time": 323.055,
        "duration": 0.263,
        "velocity": 1,
        "hand": "right"
      },
      {
        "midi": 71,
        "time": 323.333,
        "duration": 0.263,
        "velocity": 1,
        "hand": "right"
      },
      {
        "midi": 74,
        "time": 323.333,
        "duration": 0.263,
        "velocity": 1,
        "hand": "right"
      },
      {
        "midi": 78,
        "time": 323.333,
        "duration": 0.263,
        "velocity": 1,
        "hand": "right"
      },
      {
        "midi": 83,
        "time": 323.333,
        "duration": 0.278,
        "velocity": 1,
        "hand": "right"
      },
      {
        "midi": 71,
        "time": 323.611,
        "duration": 0.263,
        "velocity": 1,
        "hand": "right"
      },
      {
        "midi": 74,
        "time": 323.611,
        "duration": 0.263,
        "velocity": 1,
        "hand": "right"
      },
      {
        "midi": 78,
        "time": 323.611,
        "duration": 0.263,
        "velocity": 1,
        "hand": "right"
      },
      {
        "midi": 82,
        "time": 323.611,
        "duration": 0.278,
        "velocity": 1,
        "hand": "right"
      },
      {
        "midi": 71,
        "time": 323.889,
        "duration": 0.278,
        "velocity": 1,
        "hand": "right"
      },
      {
        "midi": 74,
        "time": 323.889,
        "duration": 0.278,
        "velocity": 1,
        "hand": "right"
      },
      {
        "midi": 78,
        "time": 323.889,
        "duration": 0.278,
        "velocity": 1,
        "hand": "right"
      },
      {
        "midi": 83,
        "time": 323.889,
        "duration": 0.278,
        "velocity": 1,
        "hand": "right"
      },
      {
        "midi": 59,
        "time": 324.722,
        "duration": 0.278,
        "velocity": 1,
        "hand": "left"
      },
      {
        "midi": 71,
        "time": 324.722,
        "duration": 0.278,
        "velocity": 1,
        "hand": "right"
      },
      {
        "midi": 74,
        "time": 324.722,
        "duration": 0.278,
        "velocity": 1,
        "hand": "right"
      },
      {
        "midi": 78,
        "time": 324.722,
        "duration": 0.278,
        "velocity": 1,
        "hand": "right"
      },
      {
        "midi": 83,
        "time": 324.722,
        "duration": 0.278,
        "velocity": 1,
        "hand": "right"
      },
      {
        "midi": 47,
        "time": 325.555,
        "duration": 0.278,
        "velocity": 1,
        "hand": "left"
      },
      {
        "midi": 54,
        "time": 325.555,
        "duration": 0.278,
        "velocity": 1,
        "hand": "left"
      },
      {
        "midi": 62,
        "time": 325.555,
        "duration": 0.278,
        "velocity": 1,
        "hand": "right"
      },
      {
        "midi": 66,
        "time": 325.555,
        "duration": 0.278,
        "velocity": 1,
        "hand": "right"
      },
      {
        "midi": 71,
        "time": 325.555,
        "duration": 0.278,
        "velocity": 1,
        "hand": "right"
      },
      {
        "midi": 42,
        "time": 326.389,
        "duration": 0.278,
        "velocity": 1,
        "hand": "left"
      },
      {
        "midi": 47,
        "time": 326.389,
        "duration": 0.278,
        "velocity": 1,
        "hand": "left"
      },
      {
        "midi": 47,
        "time": 327.222,
        "duration": 0.278,
        "velocity": 1,
        "hand": "left"
      },
      {
        "midi": 50,
        "time": 327.222,
        "duration": 0.278,
        "velocity": 1,
        "hand": "left"
      },
      {
        "midi": 62,
        "time": 327.222,
        "duration": 0.278,
        "velocity": 1,
        "hand": "right"
      },
      {
        "midi": 66,
        "time": 327.222,
        "duration": 0.278,
        "velocity": 1,
        "hand": "right"
      },
      {
        "midi": 71,
        "time": 327.222,
        "duration": 0.278,
        "velocity": 1,
        "hand": "right"
      },
      {
        "midi": 47,
        "time": 328.055,
        "duration": 0.278,
        "velocity": 1,
        "hand": "left"
      },
      {
        "midi": 54,
        "time": 328.055,
        "duration": 0.278,
        "velocity": 1,
        "hand": "left"
      },
      {
        "midi": 71,
        "time": 328.055,
        "duration": 0.278,
        "velocity": 1,
        "hand": "right"
      },
      {
        "midi": 74,
        "time": 328.055,
        "duration": 0.278,
        "velocity": 1,
        "hand": "right"
      },
      {
        "midi": 78,
        "time": 328.055,
        "duration": 0.278,
        "velocity": 1,
        "hand": "right"
      },
      {
        "midi": 83,
        "time": 328.055,
        "duration": 0.278,
        "velocity": 1,
        "hand": "right"
      },
      {
        "midi": 47,
        "time": 328.889,
        "duration": 1.667,
        "velocity": 1,
        "hand": "left"
      },
      {
        "midi": 59,
        "time": 328.889,
        "duration": 1.667,
        "velocity": 1,
        "hand": "left"
      }
    ]
  },
  "notes1Hand": [
    {
      "midi": 71,
      "time": 0,
      "duration": 0.333,
      "velocity": 1,
      "hand": "right"
    },
    {
      "midi": 71,
      "time": 0.555,
      "duration": 0.556,
      "velocity": 1,
      "hand": "right"
    },
    {
      "midi": 70,
      "time": 1.111,
      "duration": 0.333,
      "velocity": 1,
      "hand": "right"
    },
    {
      "midi": 67,
      "time": 1.666,
      "duration": 0.333,
      "velocity": 1,
      "hand": "right"
    },
    {
      "midi": 67,
      "time": 2.222,
      "duration": 0.556,
      "velocity": 1,
      "hand": "right"
    },
    {
      "midi": 66,
      "time": 2.778,
      "duration": 0.333,
      "velocity": 1,
      "hand": "right"
    },
    {
      "midi": 66,
      "time": 3.333,
      "duration": 0.333,
      "velocity": 1,
      "hand": "right"
    },
    {
      "midi": 66,
      "time": 3.889,
      "duration": 0.556,
      "velocity": 1,
      "hand": "right"
    },
    {
      "midi": 64,
      "time": 4.444,
      "duration": 0.333,
      "velocity": 1,
      "hand": "right"
    },
    {
      "midi": 64,
      "time": 5,
      "duration": 0.333,
      "velocity": 1,
      "hand": "right"
    },
    {
      "midi": 62,
      "time": 5.555,
      "duration": 0.333,
      "velocity": 1,
      "hand": "right"
    },
    {
      "midi": 61,
      "time": 6.111,
      "duration": 0.333,
      "velocity": 1,
      "hand": "right"
    },
    {
      "midi": 65,
      "time": 6.666,
      "duration": 0.333,
      "velocity": 1,
      "hand": "right"
    },
    {
      "midi": 55,
      "time": 7.222,
      "duration": 0.833,
      "velocity": 1,
      "hand": "right"
    },
    {
      "midi": 74,
      "time": 7.778,
      "duration": 0.333,
      "velocity": 1,
      "hand": "right"
    },
    {
      "midi": 57,
      "time": 8.333,
      "duration": 0.333,
      "velocity": 1,
      "hand": "right"
    },
    {
      "midi": 66,
      "time": 8.889,
      "duration": 0.833,
      "velocity": 1,
      "hand": "right"
    },
    {
      "midi": 64,
      "time": 9.444,
      "duration": 0.333,
      "velocity": 1,
      "hand": "right"
    },
    {
      "midi": 65,
      "time": 10,
      "duration": 0.333,
      "velocity": 1,
      "hand": "right"
    },
    {
      "midi": 55,
      "time": 10.555,
      "duration": 0.833,
      "velocity": 1,
      "hand": "right"
    },
    {
      "midi": 74,
      "time": 11.111,
      "duration": 0.333,
      "velocity": 1,
      "hand": "right"
    },
    {
      "midi": 57,
      "time": 11.666,
      "duration": 0.333,
      "velocity": 1,
      "hand": "right"
    },
    {
      "midi": 66,
      "time": 12.222,
      "duration": 0.833,
      "velocity": 1,
      "hand": "right"
    },
    {
      "midi": 64,
      "time": 12.778,
      "duration": 0.333,
      "velocity": 1,
      "hand": "right"
    },
    {
      "midi": 71,
      "time": 13.333,
      "duration": 0.333,
      "velocity": 1,
      "hand": "right"
    },
    {
      "midi": 71,
      "time": 13.889,
      "duration": 0.556,
      "velocity": 1,
      "hand": "right"
    },
    {
      "midi": 70,
      "time": 14.444,
      "duration": 0.333,
      "velocity": 1,
      "hand": "right"
    },
    {
      "midi": 67,
      "time": 15,
      "duration": 0.333,
      "velocity": 1,
      "hand": "right"
    },
    {
      "midi": 67,
      "time": 15.555,
      "duration": 0.556,
      "velocity": 1,
      "hand": "right"
    },
    {
      "midi": 66,
      "time": 16.111,
      "duration": 0.333,
      "velocity": 1,
      "hand": "right"
    },
    {
      "midi": 66,
      "time": 16.666,
      "duration": 0.333,
      "velocity": 1,
      "hand": "right"
    },
    {
      "midi": 66,
      "time": 17.222,
      "duration": 0.556,
      "velocity": 1,
      "hand": "right"
    },
    {
      "midi": 64,
      "time": 17.778,
      "duration": 0.333,
      "velocity": 1,
      "hand": "right"
    },
    {
      "midi": 64,
      "time": 18.333,
      "duration": 0.333,
      "velocity": 1,
      "hand": "right"
    },
    {
      "midi": 62,
      "time": 18.889,
      "duration": 0.333,
      "velocity": 1,
      "hand": "right"
    },
    {
      "midi": 61,
      "time": 19.444,
      "duration": 0.333,
      "velocity": 1,
      "hand": "right"
    },
    {
      "midi": 65,
      "time": 20,
      "duration": 0.333,
      "velocity": 1,
      "hand": "right"
    },
    {
      "midi": 55,
      "time": 20.555,
      "duration": 0.833,
      "velocity": 1,
      "hand": "right"
    },
    {
      "midi": 74,
      "time": 21.111,
      "duration": 0.333,
      "velocity": 1,
      "hand": "right"
    },
    {
      "midi": 57,
      "time": 21.666,
      "duration": 0.333,
      "velocity": 1,
      "hand": "right"
    },
    {
      "midi": 66,
      "time": 22.222,
      "duration": 0.833,
      "velocity": 1,
      "hand": "right"
    },
    {
      "midi": 64,
      "time": 22.778,
      "duration": 0.333,
      "velocity": 1,
      "hand": "right"
    },
    {
      "midi": 65,
      "time": 23.333,
      "duration": 0.333,
      "velocity": 1,
      "hand": "right"
    },
    {
      "midi": 55,
      "time": 23.889,
      "duration": 0.818,
      "velocity": 1,
      "hand": "right"
    },
    {
      "midi": 74,
      "time": 24.444,
      "duration": 0.333,
      "velocity": 1,
      "hand": "right"
    },
    {
      "midi": 56,
      "time": 25,
      "duration": 0.556,
      "velocity": 1,
      "hand": "right"
    },
    {
      "midi": 61,
      "time": 25.555,
      "duration": 0.556,
      "velocity": 1,
      "hand": "right"
    },
    {
      "midi": 68,
      "time": 26.111,
      "duration": 0.333,
      "velocity": 1,
      "hand": "right"
    },
    {
      "midi": 83,
      "time": 26.666,
      "duration": 0.333,
      "velocity": 1,
      "hand": "right"
    },
    {
      "midi": 83,
      "time": 27.222,
      "duration": 0.556,
      "velocity": 1,
      "hand": "right"
    },
    {
      "midi": 82,
      "time": 27.778,
      "duration": 0.333,
      "velocity": 1,
      "hand": "right"
    },
    {
      "midi": 79,
      "time": 28.333,
      "duration": 0.333,
      "velocity": 1,
      "hand": "right"
    },
    {
      "midi": 79,
      "time": 28.889,
      "duration": 0.556,
      "velocity": 1,
      "hand": "right"
    },
    {
      "midi": 78,
      "time": 29.444,
      "duration": 0.333,
      "velocity": 1,
      "hand": "right"
    },
    {
      "midi": 78,
      "time": 30,
      "duration": 0.333,
      "velocity": 1,
      "hand": "right"
    },
    {
      "midi": 78,
      "time": 30.555,
      "duration": 0.333,
      "velocity": 1,
      "hand": "right"
    },
    {
      "midi": 65,
      "time": 31.111,
      "duration": 0.333,
      "velocity": 1,
      "hand": "right"
    },
    {
      "midi": 64,
      "time": 31.666,
      "duration": 0.333,
      "velocity": 1,
      "hand": "right"
    },
    {
      "midi": 64,
      "time": 32.222,
      "duration": 0.333,
      "velocity": 1,
      "hand": "right"
    },
    {
      "midi": 63,
      "time": 32.778,
      "duration": 0.333,
      "velocity": 1,
      "hand": "right"
    },
    {
      "midi": 83,
      "time": 33.333,
      "duration": 0.333,
      "velocity": 1,
      "hand": "right"
    },
    {
      "midi": 83,
      "time": 33.889,
      "duration": 0.556,
      "velocity": 1,
      "hand": "right"
    },
    {
      "midi": 81,
      "time": 34.444,
      "duration": 0.333,
      "velocity": 1,
      "hand": "right"
    },
    {
      "midi": 84,
      "time": 35,
      "duration": 0.333,
      "velocity": 1,
      "hand": "right"
    },
    {
      "midi": 84,
      "time": 35.555,
      "duration": 0.556,
      "velocity": 1,
      "hand": "right"
    },
    {
      "midi": 83,
      "time": 36.111,
      "duration": 0.333,
      "velocity": 1,
      "hand": "right"
    },
    {
      "midi": 83,
      "time": 36.666,
      "duration": 0.333,
      "velocity": 1,
      "hand": "right"
    },
    {
      "midi": 83,
      "time": 37.222,
      "duration": 0.333,
      "velocity": 1,
      "hand": "right"
    },
    {
      "midi": 70,
      "time": 37.778,
      "duration": 0.333,
      "velocity": 1,
      "hand": "right"
    },
    {
      "midi": 70,
      "time": 38.333,
      "duration": 0.333,
      "velocity": 1,
      "hand": "right"
    },
    {
      "midi": 70,
      "time": 38.889,
      "duration": 0.333,
      "velocity": 1,
      "hand": "right"
    },
    {
      "midi": 68,
      "time": 39.444,
      "duration": 0.333,
      "velocity": 1,
      "hand": "right"
    },
    {
      "midi": 69,
      "time": 40,
      "duration": 0.556,
      "velocity": 1,
      "hand": "right"
    },
    {
      "midi": 71,
      "time": 40.555,
      "duration": 0.556,
      "velocity": 1,
      "hand": "right"
    },
    {
      "midi": 72,
      "time": 41.111,
      "duration": 0.333,
      "velocity": 1,
      "hand": "right"
    },
    {
      "midi": 69,
      "time": 41.666,
      "duration": 0.556,
      "velocity": 1,
      "hand": "right"
    },
    {
      "midi": 68,
      "time": 42.222,
      "duration": 0.556,
      "velocity": 1,
      "hand": "right"
    },
    {
      "midi": 69,
      "time": 42.778,
      "duration": 0.333,
      "velocity": 1,
      "hand": "right"
    },
    {
      "midi": 72,
      "time": 43.333,
      "duration": 0.556,
      "velocity": 1,
      "hand": "right"
    },
    {
      "midi": 74,
      "time": 43.889,
      "duration": 0.556,
      "velocity": 1,
      "hand": "right"
    },
    {
      "midi": 76,
      "time": 44.444,
      "duration": 0.333,
      "velocity": 1,
      "hand": "right"
    },
    {
      "midi": 72,
      "time": 45,
      "duration": 0.556,
      "velocity": 1,
      "hand": "right"
    },
    {
      "midi": 71,
      "time": 45.555,
      "duration": 0.556,
      "velocity": 1,
      "hand": "right"
    },
    {
      "midi": 72,
      "time": 46.111,
      "duration": 0.333,
      "velocity": 1,
      "hand": "right"
    },
    {
      "midi": 76,
      "time": 46.666,
      "duration": 0.556,
      "velocity": 1,
      "hand": "right"
    },
    {
      "midi": 78,
      "time": 47.222,
      "duration": 0.556,
      "velocity": 1,
      "hand": "right"
    },
    {
      "midi": 79,
      "time": 47.778,
      "duration": 0.333,
      "velocity": 1,
      "hand": "right"
    },
    {
      "midi": 79,
      "time": 48.333,
      "duration": 0.556,
      "velocity": 1,
      "hand": "right"
    },
    {
      "midi": 81,
      "time": 48.889,
      "duration": 0.556,
      "velocity": 1,
      "hand": "right"
    },
    {
      "midi": 83,
      "time": 49.444,
      "duration": 0.333,
      "velocity": 1,
      "hand": "right"
    },
    {
      "midi": 83,
      "time": 50,
      "duration": 0.556,
      "velocity": 1,
      "hand": "right"
    },
    {
      "midi": 82,
      "time": 50.555,
      "duration": 0.556,
      "velocity": 1,
      "hand": "right"
    },
    {
      "midi": 83,
      "time": 51.111,
      "duration": 0.333,
      "velocity": 1,
      "hand": "right"
    },
    {
      "midi": 78,
      "time": 51.666,
      "duration": 0.556,
      "velocity": 1,
      "hand": "right"
    },
    {
      "midi": 79,
      "time": 52.222,
      "duration": 0.556,
      "velocity": 1,
      "hand": "right"
    },
    {
      "midi": 78,
      "time": 52.778,
      "duration": 0.333,
      "velocity": 1,
      "hand": "right"
    },
    {
      "midi": 78,
      "time": 53.333,
      "duration": 0.541,
      "velocity": 1,
      "hand": "right"
    },
    {
      "midi": 78,
      "time": 53.889,
      "duration": 0.54,
      "velocity": 1,
      "hand": "right"
    },
    {
      "midi": 78,
      "time": 54.444,
      "duration": 0.541,
      "velocity": 1,
      "hand": "right"
    },
    {
      "midi": 78,
      "time": 55,
      "duration": 0.54,
      "velocity": 1,
      "hand": "right"
    },
    {
      "midi": 78,
      "time": 55.555,
      "duration": 0.541,
      "velocity": 1,
      "hand": "right"
    },
    {
      "midi": 78,
      "time": 56.111,
      "duration": 0.54,
      "velocity": 1,
      "hand": "right"
    },
    {
      "midi": 78,
      "time": 56.666,
      "duration": 0.541,
      "velocity": 1,
      "hand": "right"
    },
    {
      "midi": 78,
      "time": 57.222,
      "duration": 0.541,
      "velocity": 1,
      "hand": "right"
    },
    {
      "midi": 78,
      "time": 57.778,
      "duration": 0.556,
      "velocity": 1,
      "hand": "right"
    },
    {
      "midi": 66,
      "time": 58.333,
      "duration": 0.541,
      "velocity": 1,
      "hand": "right"
    },
    {
      "midi": 66,
      "time": 58.889,
      "duration": 0.54,
      "velocity": 1,
      "hand": "right"
    },
    {
      "midi": 66,
      "time": 59.444,
      "duration": 0.541,
      "velocity": 1,
      "hand": "right"
    },
    {
      "midi": 71,
      "time": 60,
      "duration": 0.333,
      "velocity": 1,
      "hand": "right"
    },
    {
      "midi": 71,
      "time": 60.555,
      "duration": 0.556,
      "velocity": 1,
      "hand": "right"
    },
    {
      "midi": 70,
      "time": 61.111,
      "duration": 0.333,
      "velocity": 1,
      "hand": "right"
    },
    {
      "midi": 67,
      "time": 61.666,
      "duration": 0.333,
      "velocity": 1,
      "hand": "right"
    },
    {
      "midi": 67,
      "time": 62.222,
      "duration": 0.556,
      "velocity": 1,
      "hand": "right"
    },
    {
      "midi": 66,
      "time": 62.778,
      "duration": 0.333,
      "velocity": 1,
      "hand": "right"
    },
    {
      "midi": 66,
      "time": 63.333,
      "duration": 0.333,
      "velocity": 1,
      "hand": "right"
    },
    {
      "midi": 66,
      "time": 63.889,
      "duration": 0.556,
      "velocity": 1,
      "hand": "right"
    },
    {
      "midi": 64,
      "time": 64.444,
      "duration": 0.333,
      "velocity": 1,
      "hand": "right"
    },
    {
      "midi": 64,
      "time": 65,
      "duration": 0.333,
      "velocity": 1,
      "hand": "right"
    },
    {
      "midi": 62,
      "time": 65.555,
      "duration": 0.333,
      "velocity": 1,
      "hand": "right"
    },
    {
      "midi": 61,
      "time": 66.111,
      "duration": 0.333,
      "velocity": 1,
      "hand": "right"
    },
    {
      "midi": 65,
      "time": 66.666,
      "duration": 0.333,
      "velocity": 1,
      "hand": "right"
    },
    {
      "midi": 55,
      "time": 67.222,
      "duration": 0.833,
      "velocity": 1,
      "hand": "right"
    },
    {
      "midi": 74,
      "time": 67.778,
      "duration": 0.333,
      "velocity": 1,
      "hand": "right"
    },
    {
      "midi": 57,
      "time": 68.333,
      "duration": 0.333,
      "velocity": 1,
      "hand": "right"
    },
    {
      "midi": 66,
      "time": 68.889,
      "duration": 0.833,
      "velocity": 1,
      "hand": "right"
    },
    {
      "midi": 64,
      "time": 69.444,
      "duration": 0.333,
      "velocity": 1,
      "hand": "right"
    },
    {
      "midi": 65,
      "time": 70,
      "duration": 0.333,
      "velocity": 1,
      "hand": "right"
    },
    {
      "midi": 55,
      "time": 70.555,
      "duration": 0.833,
      "velocity": 1,
      "hand": "right"
    },
    {
      "midi": 74,
      "time": 71.111,
      "duration": 0.333,
      "velocity": 1,
      "hand": "right"
    },
    {
      "midi": 57,
      "time": 71.666,
      "duration": 0.333,
      "velocity": 1,
      "hand": "right"
    },
    {
      "midi": 66,
      "time": 72.222,
      "duration": 0.833,
      "velocity": 1,
      "hand": "right"
    },
    {
      "midi": 64,
      "time": 72.778,
      "duration": 0.333,
      "velocity": 1,
      "hand": "right"
    },
    {
      "midi": 64,
      "time": 73.333,
      "duration": 0.333,
      "velocity": 1,
      "hand": "right"
    },
    {
      "midi": 61,
      "time": 73.889,
      "duration": 0.833,
      "velocity": 1,
      "hand": "right"
    },
    {
      "midi": 67,
      "time": 74.444,
      "duration": 0.333,
      "velocity": 1,
      "hand": "right"
    },
    {
      "midi": 56,
      "time": 75,
      "duration": 0.333,
      "velocity": 1,
      "hand": "right"
    },
    {
      "midi": 65,
      "time": 75.555,
      "duration": 0.833,
      "velocity": 1,
      "hand": "right"
    },
    {
      "midi": 71,
      "time": 76.111,
      "duration": 0.333,
      "velocity": 1,
      "hand": "right"
    },
    {
      "midi": 78,
      "time": 76.666,
      "duration": 0.333,
      "velocity": 1,
      "hand": "right"
    },
    {
      "midi": 74,
      "time": 77.222,
      "duration": 0.333,
      "velocity": 1,
      "hand": "right"
    },
    {
      "midi": 76,
      "time": 77.778,
      "duration": 0.333,
      "velocity": 1,
      "hand": "right"
    },
    {
      "midi": 78,
      "time": 78.333,
      "duration": 0.333,
      "velocity": 1,
      "hand": "right"
    },
    {
      "midi": 74,
      "time": 78.889,
      "duration": 0.333,
      "velocity": 1,
      "hand": "right"
    },
    {
      "midi": 74,
      "time": 79.444,
      "duration": 0.333,
      "velocity": 1,
      "hand": "right"
    },
    {
      "midi": 64,
      "time": 80.555,
      "duration": 0.541,
      "velocity": 1,
      "hand": "right"
    },
    {
      "midi": 64,
      "time": 81.111,
      "duration": 0.333,
      "velocity": 1,
      "hand": "right"
    },
    {
      "midi": 71,
      "time": 81.666,
      "duration": 0.333,
      "velocity": 1,
      "hand": "right"
    },
    {
      "midi": 59,
      "time": 82.222,
      "duration": 0.333,
      "velocity": 1,
      "hand": "right"
    },
    {
      "midi": 59,
      "time": 82.778,
      "duration": 0.333,
      "velocity": 1,
      "hand": "right"
    },
    {
      "midi": 61,
      "time": 83.333,
      "duration": 0.333,
      "velocity": 1,
      "hand": "right"
    },
    {
      "midi": 64,
      "time": 83.889,
      "duration": 0.556,
      "velocity": 1,
      "hand": "right"
    },
    {
      "midi": 67,
      "time": 84.444,
      "duration": 0.333,
      "velocity": 1,
      "hand": "right"
    },
    {
      "midi": 73,
      "time": 85,
      "duration": 0.333,
      "velocity": 1,
      "hand": "right"
    },
    {
      "midi": 61,
      "time": 85.555,
      "duration": 0.333,
      "velocity": 1,
      "hand": "right"
    },
    {
      "midi": 61,
      "time": 86.111,
      "duration": 0.333,
      "velocity": 1,
      "hand": "right"
    },
    {
      "midi": 61,
      "time": 86.666,
      "duration": 0.333,
      "velocity": 1,
      "hand": "right"
    },
    {
      "midi": 66,
      "time": 87.222,
      "duration": 0.556,
      "velocity": 1,
      "hand": "right"
    },
    {
      "midi": 59,
      "time": 87.778,
      "duration": 0.333,
      "velocity": 1,
      "hand": "right"
    },
    {
      "midi": 74,
      "time": 88.333,
      "duration": 0.333,
      "velocity": 1,
      "hand": "right"
    },
    {
      "midi": 78,
      "time": 88.889,
      "duration": 0.333,
      "velocity": 1,
      "hand": "right"
    },
    {
      "midi": 76,
      "time": 89.444,
      "duration": 0.333,
      "velocity": 1,
      "hand": "right"
    },
    {
      "midi": 74,
      "time": 90,
      "duration": 0.333,
      "velocity": 1,
      "hand": "right"
    },
    {
      "midi": 73,
      "time": 90.555,
      "duration": 0.333,
      "velocity": 1,
      "hand": "right"
    },
    {
      "midi": 82,
      "time": 91.111,
      "duration": 0.333,
      "velocity": 1,
      "hand": "right"
    },
    {
      "midi": 78,
      "time": 91.666,
      "duration": 0.333,
      "velocity": 1,
      "hand": "right"
    },
    {
      "midi": 76,
      "time": 92.222,
      "duration": 0.333,
      "velocity": 1,
      "hand": "right"
    },
    {
      "midi": 74,
      "time": 92.778,
      "duration": 0.333,
      "velocity": 1,
      "hand": "right"
    },
    {
      "midi": 73,
      "time": 93.333,
      "duration": 0.333,
      "velocity": 1,
      "hand": "right"
    },
    {
      "midi": 70,
      "time": 93.889,
      "duration": 0.333,
      "velocity": 1,
      "hand": "right"
    },
    {
      "midi": 66,
      "time": 94.444,
      "duration": 0.333,
      "velocity": 1,
      "hand": "right"
    },
    {
      "midi": 70,
      "time": 95.278,
      "duration": 0.333,
      "velocity": 1,
      "hand": "right"
    },
    {
      "midi": 64,
      "time": 95.833,
      "duration": 0.333,
      "velocity": 1,
      "hand": "right"
    },
    {
      "midi": 55,
      "time": 96.389,
      "duration": 1.111,
      "velocity": 1,
      "hand": "right"
    },
    {
      "midi": 73,
      "time": 96.944,
      "duration": 0.333,
      "velocity": 1,
      "hand": "right"
    },
    {
      "midi": 57,
      "time": 97.5,
      "duration": 0.333,
      "velocity": 1,
      "hand": "right"
    },
    {
      "midi": 66,
      "time": 98.055,
      "duration": 0.541,
      "velocity": 1,
      "hand": "right"
    },
    {
      "midi": 66,
      "time": 98.611,
      "duration": 0.333,
      "velocity": 1,
      "hand": "right"
    },
    {
      "midi": 64,
      "time": 99.166,
      "duration": 0.333,
      "velocity": 1,
      "hand": "right"
    },
    {
      "midi": 55,
      "time": 99.722,
      "duration": 1.111,
      "velocity": 1,
      "hand": "right"
    },
    {
      "midi": 73,
      "time": 100.278,
      "duration": 0.333,
      "velocity": 1,
      "hand": "right"
    },
    {
      "midi": 57,
      "time": 100.833,
      "duration": 0.333,
      "velocity": 1,
      "hand": "right"
    },
    {
      "midi": 66,
      "time": 101.389,
      "duration": 0.54,
      "velocity": 1,
      "hand": "right"
    },
    {
      "midi": 66,
      "time": 101.944,
      "duration": 0.333,
      "velocity": 1,
      "hand": "right"
    },
    {
      "midi": 71,
      "time": 102.5,
      "duration": 0.333,
      "velocity": 1,
      "hand": "right"
    },
    {
      "midi": 71,
      "time": 103.055,
      "duration": 0.333,
      "velocity": 1,
      "hand": "right"
    },
    {
      "midi": 73,
      "time": 103.611,
      "duration": 0.333,
      "velocity": 1,
      "hand": "right"
    },
    {
      "midi": 78,
      "time": 104.166,
      "duration": 0.333,
      "velocity": 1,
      "hand": "right"
    },
    {
      "midi": 78,
      "time": 104.722,
      "duration": 0.333,
      "velocity": 1,
      "hand": "right"
    },
    {
      "midi": 82,
      "time": 105.278,
      "duration": 0.333,
      "velocity": 1,
      "hand": "right"
    },
    {
      "midi": 83,
      "time": 105.833,
      "duration": 0.333,
      "velocity": 1,
      "hand": "right"
    },
    {
      "midi": 83,
      "time": 106.389,
      "duration": 0.333,
      "velocity": 1,
      "hand": "right"
    },
    {
      "midi": 83,
      "time": 106.944,
      "duration": 0.333,
      "velocity": 1,
      "hand": "right"
    },
    {
      "midi": 83,
      "time": 107.5,
      "duration": 0.333,
      "velocity": 1,
      "hand": "right"
    },
    {
      "midi": 83,
      "time": 108.055,
      "duration": 0.333,
      "velocity": 1,
      "hand": "right"
    },
    {
      "midi": 82,
      "time": 108.611,
      "duration": 0.333,
      "velocity": 1,
      "hand": "right"
    },
    {
      "midi": 83,
      "time": 109.722,
      "duration": 0.333,
      "velocity": 1,
      "hand": "right"
    },
    {
      "midi": 71,
      "time": 110.555,
      "duration": 0.333,
      "velocity": 1,
      "hand": "right"
    },
    {
      "midi": 59,
      "time": 111.389,
      "duration": 0.333,
      "velocity": 1,
      "hand": "right"
    },
    {
      "midi": 74,
      "time": 112.222,
      "duration": 0.833,
      "velocity": 1,
      "hand": "right"
    },
    {
      "midi": 73,
      "time": 113.055,
      "duration": 0.833,
      "velocity": 1,
      "hand": "right"
    },
    {
      "midi": 71,
      "time": 113.889,
      "duration": 0.556,
      "velocity": 1,
      "hand": "right"
    },
    {
      "midi": 69,
      "time": 114.444,
      "duration": 0.333,
      "velocity": 1,
      "hand": "right"
    },
    {
      "midi": 71,
      "time": 115.555,
      "duration": 0.833,
      "velocity": 1,
      "hand": "right"
    },
    {
      "midi": 69,
      "time": 116.389,
      "duration": 0.833,
      "velocity": 1,
      "hand": "right"
    },
    {
      "midi": 67,
      "time": 117.222,
      "duration": 0.556,
      "velocity": 1,
      "hand": "right"
    },
    {
      "midi": 66,
      "time": 117.778,
      "duration": 0.333,
      "velocity": 1,
      "hand": "right"
    },
    {
      "midi": 69,
      "time": 118.889,
      "duration": 0.833,
      "velocity": 1,
      "hand": "right"
    },
    {
      "midi": 62,
      "time": 119.722,
      "duration": 0.818,
      "velocity": 1,
      "hand": "right"
    },
    {
      "midi": 66,
      "time": 120.555,
      "duration": 0.556,
      "velocity": 1,
      "hand": "right"
    },
    {
      "midi": 64,
      "time": 121.111,
      "duration": 0.333,
      "velocity": 1,
      "hand": "right"
    },
    {
      "midi": 66,
      "time": 122.222,
      "duration": 0.833,
      "velocity": 1,
      "hand": "right"
    },
    {
      "midi": 59,
      "time": 123.055,
      "duration": 0.833,
      "velocity": 1,
      "hand": "right"
    },
    {
      "midi": 62,
      "time": 123.889,
      "duration": 0.556,
      "velocity": 1,
      "hand": "right"
    },
    {
      "midi": 61,
      "time": 124.444,
      "duration": 0.333,
      "velocity": 1,
      "hand": "right"
    },
    {
      "midi": 69,
      "time": 125.555,
      "duration": 1.667,
      "velocity": 1,
      "hand": "right"
    },
    {
      "midi": 59,
      "time": 126.389,
      "duration": 0.833,
      "velocity": 1,
      "hand": "right"
    },
    {
      "midi": 61,
      "time": 127.222,
      "duration": 0.556,
      "velocity": 1,
      "hand": "right"
    },
    {
      "midi": 62,
      "time": 127.778,
      "duration": 0.333,
      "velocity": 1,
      "hand": "right"
    },
    {
      "midi": 74,
      "time": 128.889,
      "duration": 1.667,
      "velocity": 1,
      "hand": "right"
    },
    {
      "midi": 66,
      "time": 129.722,
      "duration": 0.833,
      "velocity": 1,
      "hand": "right"
    },
    {
      "midi": 64,
      "time": 130.555,
      "duration": 1.652,
      "velocity": 1,
      "hand": "right"
    },
    {
      "midi": 56,
      "time": 131.111,
      "duration": 0.333,
      "velocity": 1,
      "hand": "right"
    },
    {
      "midi": 76,
      "time": 132.222,
      "duration": 1.667,
      "velocity": 1,
      "hand": "right"
    },
    {
      "midi": 57,
      "time": 133.055,
      "duration": 0.833,
      "velocity": 1,
      "hand": "right"
    },
    {
      "midi": 75,
      "time": 133.889,
      "duration": 1.667,
      "velocity": 1,
      "hand": "right"
    },
    {
      "midi": 60,
      "time": 134.444,
      "duration": 0.333,
      "velocity": 1,
      "hand": "right"
    },
    {
      "midi": 81,
      "time": 135.555,
      "duration": 0.833,
      "velocity": 1,
      "hand": "right"
    },
    {
      "midi": 73,
      "time": 136.389,
      "duration": 0.818,
      "velocity": 1,
      "hand": "right"
    },
    {
      "midi": 64,
      "time": 136.944,
      "duration": 0.333,
      "velocity": 1,
      "hand": "right"
    },
    {
      "midi": 71,
      "time": 137.778,
      "duration": 0.333,
      "velocity": 1,
      "hand": "right"
    },
    {
      "midi": 76,
      "time": 138.889,
      "duration": 0.833,
      "velocity": 1,
      "hand": "right"
    },
    {
      "midi": 69,
      "time": 139.722,
      "duration": 0.833,
      "velocity": 1,
      "hand": "right"
    },
    {
      "midi": 71,
      "time": 140.555,
      "duration": 0.556,
      "velocity": 1,
      "hand": "right"
    },
    {
      "midi": 69,
      "time": 141.111,
      "duration": 0.333,
      "velocity": 1,
      "hand": "right"
    },
    {
      "midi": 71,
      "time": 142.222,
      "duration": 1.667,
      "velocity": 1,
      "hand": "right"
    },
    {
      "midi": 59,
      "time": 143.055,
      "duration": 0.833,
      "velocity": 1,
      "hand": "right"
    },
    {
      "midi": 70,
      "time": 143.889,
      "duration": 0.833,
      "velocity": 1,
      "hand": "right"
    },
    {
      "midi": 59,
      "time": 144.444,
      "duration": 0.333,
      "velocity": 1,
      "hand": "right"
    },
    {
      "midi": 80,
      "time": 145.555,
      "duration": 0.833,
      "velocity": 1,
      "hand": "right"
    },
    {
      "midi": 73,
      "time": 146.389,
      "duration": 0.833,
      "velocity": 1,
      "hand": "right"
    },
    {
      "midi": 74,
      "time": 147.222,
      "duration": 0.556,
      "velocity": 1,
      "hand": "right"
    },
    {
      "midi": 73,
      "time": 147.778,
      "duration": 0.333,
      "velocity": 1,
      "hand": "right"
    },
    {
      "midi": 74,
      "time": 148.889,
      "duration": 1.667,
      "velocity": 1,
      "hand": "right"
    },
    {
      "midi": 62,
      "time": 149.722,
      "duration": 0.833,
      "velocity": 1,
      "hand": "right"
    },
    {
      "midi": 73,
      "time": 150.555,
      "duration": 0.833,
      "velocity": 1,
      "hand": "right"
    },
    {
      "midi": 62,
      "time": 151.111,
      "duration": 0.333,
      "velocity": 1,
      "hand": "right"
    },
    {
      "midi": 83,
      "time": 152.222,
      "duration": 0.833,
      "velocity": 1,
      "hand": "right"
    },
    {
      "midi": 76,
      "time": 153.055,
      "duration": 0.833,
      "velocity": 1,
      "hand": "right"
    },
    {
      "midi": 75,
      "time": 153.889,
      "duration": 0.556,
      "velocity": 1,
      "hand": "right"
    },
    {
      "midi": 76,
      "time": 154.444,
      "duration": 0.333,
      "velocity": 1,
      "hand": "right"
    },
    {
      "midi": 76,
      "time": 155.555,
      "duration": 1.667,
      "velocity": 1,
      "hand": "right"
    },
    {
      "midi": 78,
      "time": 156.389,
      "duration": 0.833,
      "velocity": 1,
      "hand": "right"
    },
    {
      "midi": 77,
      "time": 157.222,
      "duration": 0.556,
      "velocity": 1,
      "hand": "right"
    },
    {
      "midi": 78,
      "time": 157.778,
      "duration": 0.333,
      "velocity": 1,
      "hand": "right"
    },
    {
      "midi": 71,
      "time": 158.889,
      "duration": 2.4,
      "velocity": 1,
      "hand": "right"
    },
    {
      "midi": 59,
      "time": 159.722,
      "duration": 0.833,
      "velocity": 1,
      "hand": "right"
    },
    {
      "midi": 66,
      "time": 160.555,
      "duration": 0.556,
      "velocity": 1,
      "hand": "right"
    },
    {
      "midi": 64,
      "time": 161.111,
      "duration": 0.333,
      "velocity": 1,
      "hand": "right"
    },
    {
      "midi": 74,
      "time": 162.222,
      "duration": 0.833,
      "velocity": 1,
      "hand": "right"
    },
    {
      "midi": 67,
      "time": 163.055,
      "duration": 0.819,
      "velocity": 1,
      "hand": "right"
    },
    {
      "midi": 74,
      "time": 163.889,
      "duration": 0.556,
      "velocity": 1,
      "hand": "right"
    },
    {
      "midi": 73,
      "time": 164.444,
      "duration": 0.333,
      "velocity": 1,
      "hand": "right"
    },
    {
      "midi": 74,
      "time": 165.555,
      "duration": 0.833,
      "velocity": 1,
      "hand": "right"
    },
    {
      "midi": 73,
      "time": 166.389,
      "duration": 0.833,
      "velocity": 1,
      "hand": "right"
    },
    {
      "midi": 71,
      "time": 167.222,
      "duration": 0.556,
      "velocity": 1,
      "hand": "right"
    },
    {
      "midi": 69,
      "time": 167.778,
      "duration": 0.333,
      "velocity": 1,
      "hand": "right"
    },
    {
      "midi": 71,
      "time": 168.889,
      "duration": 0.833,
      "velocity": 1,
      "hand": "right"
    },
    {
      "midi": 69,
      "time": 169.722,
      "duration": 0.833,
      "velocity": 1,
      "hand": "right"
    },
    {
      "midi": 67,
      "time": 170.555,
      "duration": 0.556,
      "velocity": 1,
      "hand": "right"
    },
    {
      "midi": 66,
      "time": 171.111,
      "duration": 0.333,
      "velocity": 1,
      "hand": "right"
    },
    {
      "midi": 69,
      "time": 172.222,
      "duration": 0.833,
      "velocity": 1,
      "hand": "right"
    },
    {
      "midi": 62,
      "time": 173.055,
      "duration": 0.819,
      "velocity": 1,
      "hand": "right"
    },
    {
      "midi": 66,
      "time": 173.889,
      "duration": 0.556,
      "velocity": 1,
      "hand": "right"
    },
    {
      "midi": 64,
      "time": 174.444,
      "duration": 0.333,
      "velocity": 1,
      "hand": "right"
    },
    {
      "midi": 66,
      "time": 175.555,
      "duration": 0.833,
      "velocity": 1,
      "hand": "right"
    },
    {
      "midi": 59,
      "time": 176.389,
      "duration": 0.833,
      "velocity": 1,
      "hand": "right"
    },
    {
      "midi": 62,
      "time": 177.222,
      "duration": 0.556,
      "velocity": 1,
      "hand": "right"
    },
    {
      "midi": 61,
      "time": 177.778,
      "duration": 0.333,
      "velocity": 1,
      "hand": "right"
    },
    {
      "midi": 69,
      "time": 178.889,
      "duration": 1.667,
      "velocity": 1,
      "hand": "right"
    },
    {
      "midi": 59,
      "time": 179.722,
      "duration": 0.818,
      "velocity": 1,
      "hand": "right"
    },
    {
      "midi": 62,
      "time": 180.555,
      "duration": 1.652,
      "velocity": 1,
      "hand": "right"
    },
    {
      "midi": 60,
      "time": 181.111,
      "duration": 0.333,
      "velocity": 1,
      "hand": "right"
    },
    {
      "midi": 74,
      "time": 182.222,
      "duration": 1.667,
      "velocity": 1,
      "hand": "right"
    },
    {
      "midi": 59,
      "time": 183.055,
      "duration": 0.833,
      "velocity": 1,
      "hand": "right"
    },
    {
      "midi": 71,
      "time": 183.889,
      "duration": 1.667,
      "velocity": 1,
      "hand": "right"
    },
    {
      "midi": 62,
      "time": 184.444,
      "duration": 0.333,
      "velocity": 1,
      "hand": "right"
    },
    {
      "midi": 69,
      "time": 185.555,
      "duration": 1.667,
      "velocity": 1,
      "hand": "right"
    },
    {
      "midi": 63,
      "time": 186.389,
      "duration": 0.833,
      "velocity": 1,
      "hand": "right"
    },
    {
      "midi": 64,
      "time": 187.222,
      "duration": 1.667,
      "velocity": 1,
      "hand": "right"
    },
    {
      "midi": 55,
      "time": 187.778,
      "duration": 0.333,
      "velocity": 1,
      "hand": "right"
    },
    {
      "midi": 61,
      "time": 188.889,
      "duration": 1.667,
      "velocity": 1,
      "hand": "right"
    },
    {
      "midi": 64,
      "time": 189.444,
      "duration": 0.333,
      "velocity": 1,
      "hand": "right"
    },
    {
      "midi": 62,
      "time": 190.555,
      "duration": 1.652,
      "velocity": 1,
      "hand": "right"
    },
    {
      "midi": 57,
      "time": 191.111,
      "duration": 0.333,
      "velocity": 1,
      "hand": "right"
    },
    {
      "midi": 71,
      "time": 192.222,
      "duration": 0.833,
      "velocity": 1,
      "hand": "right"
    },
    {
      "midi": 70,
      "time": 193.055,
      "duration": 0.833,
      "velocity": 1,
      "hand": "right"
    },
    {
      "midi": 67,
      "time": 193.889,
      "duration": 0.556,
      "velocity": 1,
      "hand": "right"
    },
    {
      "midi": 66,
      "time": 194.444,
      "duration": 0.333,
      "velocity": 1,
      "hand": "right"
    },
    {
      "midi": 74,
      "time": 195.555,
      "duration": 0.833,
      "velocity": 1,
      "hand": "right"
    },
    {
      "midi": 73,
      "time": 196.389,
      "duration": 0.833,
      "velocity": 1,
      "hand": "right"
    },
    {
      "midi": 71,
      "time": 197.222,
      "duration": 0.833,
      "velocity": 1,
      "hand": "right"
    },
    {
      "midi": 61,
      "time": 197.778,
      "duration": 0.333,
      "velocity": 1,
      "hand": "right"
    },
    {
      "midi": 83,
      "time": 198.889,
      "duration": 0.833,
      "velocity": 1,
      "hand": "right"
    },
    {
      "midi": 82,
      "time": 199.722,
      "duration": 0.833,
      "velocity": 1,
      "hand": "right"
    },
    {
      "midi": 79,
      "time": 200.555,
      "duration": 0.556,
      "velocity": 1,
      "hand": "right"
    },
    {
      "midi": 78,
      "time": 201.111,
      "duration": 0.333,
      "velocity": 1,
      "hand": "right"
    },
    {
      "midi": 78,
      "time": 202.222,
      "duration": 1.652,
      "velocity": 1,
      "hand": "right"
    },
    {
      "midi": 73,
      "time": 203.055,
      "duration": 0.833,
      "velocity": 1,
      "hand": "right"
    },
    {
      "midi": 83,
      "time": 203.889,
      "duration": 0.833,
      "velocity": 1,
      "hand": "right"
    },
    {
      "midi": 73,
      "time": 204.444,
      "duration": 0.333,
      "velocity": 1,
      "hand": "right"
    },
    {
      "midi": 83,
      "time": 205.555,
      "duration": 0.556,
      "velocity": 1,
      "hand": "right"
    },
    {
      "midi": 82,
      "time": 206.111,
      "duration": 0.333,
      "velocity": 1,
      "hand": "right"
    },
    {
      "midi": 67,
      "time": 207.222,
      "duration": 0.556,
      "velocity": 1,
      "hand": "right"
    },
    {
      "midi": 66,
      "time": 207.778,
      "duration": 0.333,
      "velocity": 1,
      "hand": "right"
    },
    {
      "midi": 71,
      "time": 208.889,
      "duration": 0.556,
      "velocity": 1,
      "hand": "right"
    },
    {
      "midi": 70,
      "time": 209.444,
      "duration": 0.333,
      "velocity": 1,
      "hand": "right"
    },
    {
      "midi": 55,
      "time": 210.555,
      "duration": 0.556,
      "velocity": 1,
      "hand": "right"
    },
    {
      "midi": 66,
      "time": 211.111,
      "duration": 0.333,
      "velocity": 1,
      "hand": "right"
    },
    {
      "midi": 55,
      "time": 212.222,
      "duration": 0.556,
      "velocity": 1,
      "hand": "right"
    },
    {
      "midi": 66,
      "time": 212.778,
      "duration": 0.333,
      "velocity": 1,
      "hand": "right"
    },
    {
      "midi": 55,
      "time": 213.889,
      "duration": 0.556,
      "velocity": 1,
      "hand": "right"
    },
    {
      "midi": 66,
      "time": 214.444,
      "duration": 0.333,
      "velocity": 1,
      "hand": "right"
    },
    {
      "midi": 71,
      "time": 215,
      "duration": 0.333,
      "velocity": 1,
      "hand": "right"
    },
    {
      "midi": 71,
      "time": 215.555,
      "duration": 0.556,
      "velocity": 1,
      "hand": "right"
    },
    {
      "midi": 70,
      "time": 216.111,
      "duration": 0.333,
      "velocity": 1,
      "hand": "right"
    },
    {
      "midi": 67,
      "time": 216.666,
      "duration": 0.333,
      "velocity": 1,
      "hand": "right"
    },
    {
      "midi": 67,
      "time": 217.222,
      "duration": 0.556,
      "velocity": 1,
      "hand": "right"
    },
    {
      "midi": 66,
      "time": 217.778,
      "duration": 0.333,
      "velocity": 1,
      "hand": "right"
    },
    {
      "midi": 66,
      "time": 218.333,
      "duration": 0.333,
      "velocity": 1,
      "hand": "right"
    },
    {
      "midi": 66,
      "time": 218.889,
      "duration": 0.556,
      "velocity": 1,
      "hand": "right"
    },
    {
      "midi": 64,
      "time": 219.444,
      "duration": 0.333,
      "velocity": 1,
      "hand": "right"
    },
    {
      "midi": 64,
      "time": 220,
      "duration": 0.333,
      "velocity": 1,
      "hand": "right"
    },
    {
      "midi": 62,
      "time": 220.555,
      "duration": 0.333,
      "velocity": 1,
      "hand": "right"
    },
    {
      "midi": 61,
      "time": 221.111,
      "duration": 0.333,
      "velocity": 1,
      "hand": "right"
    },
    {
      "midi": 65,
      "time": 221.666,
      "duration": 0.333,
      "velocity": 1,
      "hand": "right"
    },
    {
      "midi": 55,
      "time": 222.222,
      "duration": 0.833,
      "velocity": 1,
      "hand": "right"
    },
    {
      "midi": 74,
      "time": 222.778,
      "duration": 0.333,
      "velocity": 1,
      "hand": "right"
    },
    {
      "midi": 57,
      "time": 223.333,
      "duration": 0.333,
      "velocity": 1,
      "hand": "right"
    },
    {
      "midi": 66,
      "time": 223.889,
      "duration": 0.833,
      "velocity": 1,
      "hand": "right"
    },
    {
      "midi": 64,
      "time": 224.444,
      "duration": 0.333,
      "velocity": 1,
      "hand": "right"
    },
    {
      "midi": 65,
      "time": 225,
      "duration": 0.333,
      "velocity": 1,
      "hand": "right"
    },
    {
      "midi": 55,
      "time": 225.555,
      "duration": 0.833,
      "velocity": 1,
      "hand": "right"
    },
    {
      "midi": 74,
      "time": 226.111,
      "duration": 0.333,
      "velocity": 1,
      "hand": "right"
    },
    {
      "midi": 57,
      "time": 226.666,
      "duration": 0.333,
      "velocity": 1,
      "hand": "right"
    },
    {
      "midi": 66,
      "time": 227.222,
      "duration": 0.833,
      "velocity": 1,
      "hand": "right"
    },
    {
      "midi": 64,
      "time": 227.778,
      "duration": 0.333,
      "velocity": 1,
      "hand": "right"
    },
    {
      "midi": 71,
      "time": 228.333,
      "duration": 0.333,
      "velocity": 1,
      "hand": "right"
    },
    {
      "midi": 71,
      "time": 228.889,
      "duration": 0.556,
      "velocity": 1,
      "hand": "right"
    },
    {
      "midi": 70,
      "time": 229.444,
      "duration": 0.333,
      "velocity": 1,
      "hand": "right"
    },
    {
      "midi": 67,
      "time": 230,
      "duration": 0.333,
      "velocity": 1,
      "hand": "right"
    },
    {
      "midi": 67,
      "time": 230.555,
      "duration": 0.556,
      "velocity": 1,
      "hand": "right"
    },
    {
      "midi": 66,
      "time": 231.111,
      "duration": 0.333,
      "velocity": 1,
      "hand": "right"
    },
    {
      "midi": 66,
      "time": 231.666,
      "duration": 0.333,
      "velocity": 1,
      "hand": "right"
    },
    {
      "midi": 66,
      "time": 232.222,
      "duration": 0.556,
      "velocity": 1,
      "hand": "right"
    },
    {
      "midi": 64,
      "time": 232.778,
      "duration": 0.333,
      "velocity": 1,
      "hand": "right"
    },
    {
      "midi": 64,
      "time": 233.333,
      "duration": 0.333,
      "velocity": 1,
      "hand": "right"
    },
    {
      "midi": 62,
      "time": 233.889,
      "duration": 0.333,
      "velocity": 1,
      "hand": "right"
    },
    {
      "midi": 61,
      "time": 234.444,
      "duration": 0.333,
      "velocity": 1,
      "hand": "right"
    },
    {
      "midi": 65,
      "time": 235,
      "duration": 0.333,
      "velocity": 1,
      "hand": "right"
    },
    {
      "midi": 55,
      "time": 235.555,
      "duration": 0.833,
      "velocity": 1,
      "hand": "right"
    },
    {
      "midi": 74,
      "time": 236.111,
      "duration": 0.333,
      "velocity": 1,
      "hand": "right"
    },
    {
      "midi": 57,
      "time": 236.666,
      "duration": 0.333,
      "velocity": 1,
      "hand": "right"
    },
    {
      "midi": 66,
      "time": 237.222,
      "duration": 0.833,
      "velocity": 1,
      "hand": "right"
    },
    {
      "midi": 64,
      "time": 237.778,
      "duration": 0.333,
      "velocity": 1,
      "hand": "right"
    },
    {
      "midi": 65,
      "time": 238.333,
      "duration": 0.333,
      "velocity": 1,
      "hand": "right"
    },
    {
      "midi": 55,
      "time": 238.889,
      "duration": 0.818,
      "velocity": 1,
      "hand": "right"
    },
    {
      "midi": 74,
      "time": 239.444,
      "duration": 0.333,
      "velocity": 1,
      "hand": "right"
    },
    {
      "midi": 56,
      "time": 240,
      "duration": 0.556,
      "velocity": 1,
      "hand": "right"
    },
    {
      "midi": 61,
      "time": 240.555,
      "duration": 0.556,
      "velocity": 1,
      "hand": "right"
    },
    {
      "midi": 68,
      "time": 241.111,
      "duration": 0.333,
      "velocity": 1,
      "hand": "right"
    },
    {
      "midi": 83,
      "time": 241.666,
      "duration": 0.333,
      "velocity": 1,
      "hand": "right"
    },
    {
      "midi": 83,
      "time": 242.222,
      "duration": 0.556,
      "velocity": 1,
      "hand": "right"
    },
    {
      "midi": 82,
      "time": 242.778,
      "duration": 0.333,
      "velocity": 1,
      "hand": "right"
    },
    {
      "midi": 79,
      "time": 243.333,
      "duration": 0.333,
      "velocity": 1,
      "hand": "right"
    },
    {
      "midi": 79,
      "time": 243.889,
      "duration": 0.556,
      "velocity": 1,
      "hand": "right"
    },
    {
      "midi": 78,
      "time": 244.444,
      "duration": 0.333,
      "velocity": 1,
      "hand": "right"
    },
    {
      "midi": 78,
      "time": 245,
      "duration": 0.333,
      "velocity": 1,
      "hand": "right"
    },
    {
      "midi": 78,
      "time": 245.555,
      "duration": 0.333,
      "velocity": 1,
      "hand": "right"
    },
    {
      "midi": 65,
      "time": 246.111,
      "duration": 0.333,
      "velocity": 1,
      "hand": "right"
    },
    {
      "midi": 64,
      "time": 246.666,
      "duration": 0.333,
      "velocity": 1,
      "hand": "right"
    },
    {
      "midi": 64,
      "time": 247.222,
      "duration": 0.333,
      "velocity": 1,
      "hand": "right"
    },
    {
      "midi": 63,
      "time": 247.778,
      "duration": 0.333,
      "velocity": 1,
      "hand": "right"
    },
    {
      "midi": 83,
      "time": 248.333,
      "duration": 0.333,
      "velocity": 1,
      "hand": "right"
    },
    {
      "midi": 83,
      "time": 248.889,
      "duration": 0.556,
      "velocity": 1,
      "hand": "right"
    },
    {
      "midi": 81,
      "time": 249.444,
      "duration": 0.333,
      "velocity": 1,
      "hand": "right"
    },
    {
      "midi": 84,
      "time": 250,
      "duration": 0.333,
      "velocity": 1,
      "hand": "right"
    },
    {
      "midi": 84,
      "time": 250.555,
      "duration": 0.556,
      "velocity": 1,
      "hand": "right"
    },
    {
      "midi": 83,
      "time": 251.111,
      "duration": 0.333,
      "velocity": 1,
      "hand": "right"
    },
    {
      "midi": 83,
      "time": 251.666,
      "duration": 0.333,
      "velocity": 1,
      "hand": "right"
    },
    {
      "midi": 83,
      "time": 252.222,
      "duration": 0.333,
      "velocity": 1,
      "hand": "right"
    },
    {
      "midi": 70,
      "time": 252.778,
      "duration": 0.333,
      "velocity": 1,
      "hand": "right"
    },
    {
      "midi": 70,
      "time": 253.333,
      "duration": 0.333,
      "velocity": 1,
      "hand": "right"
    },
    {
      "midi": 70,
      "time": 253.889,
      "duration": 0.333,
      "velocity": 1,
      "hand": "right"
    },
    {
      "midi": 68,
      "time": 254.444,
      "duration": 0.333,
      "velocity": 1,
      "hand": "right"
    },
    {
      "midi": 69,
      "time": 255,
      "duration": 0.556,
      "velocity": 1,
      "hand": "right"
    },
    {
      "midi": 71,
      "time": 255.555,
      "duration": 0.556,
      "velocity": 1,
      "hand": "right"
    },
    {
      "midi": 72,
      "time": 256.111,
      "duration": 0.333,
      "velocity": 1,
      "hand": "right"
    },
    {
      "midi": 69,
      "time": 256.666,
      "duration": 0.556,
      "velocity": 1,
      "hand": "right"
    },
    {
      "midi": 68,
      "time": 257.222,
      "duration": 0.556,
      "velocity": 1,
      "hand": "right"
    },
    {
      "midi": 69,
      "time": 257.778,
      "duration": 0.333,
      "velocity": 1,
      "hand": "right"
    },
    {
      "midi": 72,
      "time": 258.333,
      "duration": 0.556,
      "velocity": 1,
      "hand": "right"
    },
    {
      "midi": 74,
      "time": 258.889,
      "duration": 0.556,
      "velocity": 1,
      "hand": "right"
    },
    {
      "midi": 76,
      "time": 259.444,
      "duration": 0.333,
      "velocity": 1,
      "hand": "right"
    },
    {
      "midi": 72,
      "time": 260,
      "duration": 0.556,
      "velocity": 1,
      "hand": "right"
    },
    {
      "midi": 71,
      "time": 260.555,
      "duration": 0.556,
      "velocity": 1,
      "hand": "right"
    },
    {
      "midi": 72,
      "time": 261.111,
      "duration": 0.333,
      "velocity": 1,
      "hand": "right"
    },
    {
      "midi": 76,
      "time": 261.666,
      "duration": 0.556,
      "velocity": 1,
      "hand": "right"
    },
    {
      "midi": 78,
      "time": 262.222,
      "duration": 0.556,
      "velocity": 1,
      "hand": "right"
    },
    {
      "midi": 79,
      "time": 262.778,
      "duration": 0.333,
      "velocity": 1,
      "hand": "right"
    },
    {
      "midi": 79,
      "time": 263.333,
      "duration": 0.556,
      "velocity": 1,
      "hand": "right"
    },
    {
      "midi": 81,
      "time": 263.889,
      "duration": 0.556,
      "velocity": 1,
      "hand": "right"
    },
    {
      "midi": 83,
      "time": 264.444,
      "duration": 0.333,
      "velocity": 1,
      "hand": "right"
    },
    {
      "midi": 83,
      "time": 265,
      "duration": 0.556,
      "velocity": 1,
      "hand": "right"
    },
    {
      "midi": 82,
      "time": 265.555,
      "duration": 0.556,
      "velocity": 1,
      "hand": "right"
    },
    {
      "midi": 83,
      "time": 266.111,
      "duration": 0.333,
      "velocity": 1,
      "hand": "right"
    },
    {
      "midi": 78,
      "time": 266.666,
      "duration": 0.556,
      "velocity": 1,
      "hand": "right"
    },
    {
      "midi": 79,
      "time": 267.222,
      "duration": 0.556,
      "velocity": 1,
      "hand": "right"
    },
    {
      "midi": 78,
      "time": 267.778,
      "duration": 0.333,
      "velocity": 1,
      "hand": "right"
    },
    {
      "midi": 78,
      "time": 268.333,
      "duration": 0.541,
      "velocity": 1,
      "hand": "right"
    },
    {
      "midi": 78,
      "time": 268.889,
      "duration": 0.54,
      "velocity": 1,
      "hand": "right"
    },
    {
      "midi": 78,
      "time": 269.444,
      "duration": 0.541,
      "velocity": 1,
      "hand": "right"
    },
    {
      "midi": 78,
      "time": 270,
      "duration": 0.54,
      "velocity": 1,
      "hand": "right"
    },
    {
      "midi": 78,
      "time": 270.555,
      "duration": 0.541,
      "velocity": 1,
      "hand": "right"
    },
    {
      "midi": 78,
      "time": 271.111,
      "duration": 0.54,
      "velocity": 1,
      "hand": "right"
    },
    {
      "midi": 78,
      "time": 271.666,
      "duration": 0.541,
      "velocity": 1,
      "hand": "right"
    },
    {
      "midi": 78,
      "time": 272.222,
      "duration": 0.541,
      "velocity": 1,
      "hand": "right"
    },
    {
      "midi": 78,
      "time": 272.778,
      "duration": 0.556,
      "velocity": 1,
      "hand": "right"
    },
    {
      "midi": 66,
      "time": 273.333,
      "duration": 0.541,
      "velocity": 1,
      "hand": "right"
    },
    {
      "midi": 66,
      "time": 273.889,
      "duration": 0.54,
      "velocity": 1,
      "hand": "right"
    },
    {
      "midi": 66,
      "time": 274.444,
      "duration": 0.541,
      "velocity": 1,
      "hand": "right"
    },
    {
      "midi": 71,
      "time": 275,
      "duration": 0.333,
      "velocity": 1,
      "hand": "right"
    },
    {
      "midi": 71,
      "time": 275.555,
      "duration": 0.556,
      "velocity": 1,
      "hand": "right"
    },
    {
      "midi": 70,
      "time": 276.111,
      "duration": 0.333,
      "velocity": 1,
      "hand": "right"
    },
    {
      "midi": 67,
      "time": 276.666,
      "duration": 0.333,
      "velocity": 1,
      "hand": "right"
    },
    {
      "midi": 67,
      "time": 277.222,
      "duration": 0.556,
      "velocity": 1,
      "hand": "right"
    },
    {
      "midi": 66,
      "time": 277.778,
      "duration": 0.333,
      "velocity": 1,
      "hand": "right"
    },
    {
      "midi": 66,
      "time": 278.333,
      "duration": 0.333,
      "velocity": 1,
      "hand": "right"
    },
    {
      "midi": 66,
      "time": 278.889,
      "duration": 0.556,
      "velocity": 1,
      "hand": "right"
    },
    {
      "midi": 64,
      "time": 279.444,
      "duration": 0.333,
      "velocity": 1,
      "hand": "right"
    },
    {
      "midi": 64,
      "time": 280,
      "duration": 0.333,
      "velocity": 1,
      "hand": "right"
    },
    {
      "midi": 62,
      "time": 280.555,
      "duration": 0.333,
      "velocity": 1,
      "hand": "right"
    },
    {
      "midi": 61,
      "time": 281.111,
      "duration": 0.333,
      "velocity": 1,
      "hand": "right"
    },
    {
      "midi": 65,
      "time": 281.666,
      "duration": 0.333,
      "velocity": 1,
      "hand": "right"
    },
    {
      "midi": 55,
      "time": 282.222,
      "duration": 0.833,
      "velocity": 1,
      "hand": "right"
    },
    {
      "midi": 74,
      "time": 282.778,
      "duration": 0.333,
      "velocity": 1,
      "hand": "right"
    },
    {
      "midi": 57,
      "time": 283.333,
      "duration": 0.333,
      "velocity": 1,
      "hand": "right"
    },
    {
      "midi": 66,
      "time": 283.889,
      "duration": 0.833,
      "velocity": 1,
      "hand": "right"
    },
    {
      "midi": 64,
      "time": 284.444,
      "duration": 0.333,
      "velocity": 1,
      "hand": "right"
    },
    {
      "midi": 65,
      "time": 285,
      "duration": 0.333,
      "velocity": 1,
      "hand": "right"
    },
    {
      "midi": 55,
      "time": 285.555,
      "duration": 0.833,
      "velocity": 1,
      "hand": "right"
    },
    {
      "midi": 74,
      "time": 286.111,
      "duration": 0.333,
      "velocity": 1,
      "hand": "right"
    },
    {
      "midi": 57,
      "time": 286.666,
      "duration": 0.333,
      "velocity": 1,
      "hand": "right"
    },
    {
      "midi": 66,
      "time": 287.222,
      "duration": 0.833,
      "velocity": 1,
      "hand": "right"
    },
    {
      "midi": 64,
      "time": 287.778,
      "duration": 0.333,
      "velocity": 1,
      "hand": "right"
    },
    {
      "midi": 64,
      "time": 288.333,
      "duration": 0.333,
      "velocity": 1,
      "hand": "right"
    },
    {
      "midi": 61,
      "time": 288.889,
      "duration": 0.833,
      "velocity": 1,
      "hand": "right"
    },
    {
      "midi": 67,
      "time": 289.444,
      "duration": 0.333,
      "velocity": 1,
      "hand": "right"
    },
    {
      "midi": 56,
      "time": 290,
      "duration": 0.333,
      "velocity": 1,
      "hand": "right"
    },
    {
      "midi": 65,
      "time": 290.555,
      "duration": 0.833,
      "velocity": 1,
      "hand": "right"
    },
    {
      "midi": 71,
      "time": 291.111,
      "duration": 0.333,
      "velocity": 1,
      "hand": "right"
    },
    {
      "midi": 78,
      "time": 291.666,
      "duration": 0.333,
      "velocity": 1,
      "hand": "right"
    },
    {
      "midi": 74,
      "time": 292.222,
      "duration": 0.333,
      "velocity": 1,
      "hand": "right"
    },
    {
      "midi": 76,
      "time": 292.778,
      "duration": 0.333,
      "velocity": 1,
      "hand": "right"
    },
    {
      "midi": 78,
      "time": 293.333,
      "duration": 0.333,
      "velocity": 1,
      "hand": "right"
    },
    {
      "midi": 74,
      "time": 293.889,
      "duration": 0.333,
      "velocity": 1,
      "hand": "right"
    },
    {
      "midi": 74,
      "time": 294.444,
      "duration": 0.333,
      "velocity": 1,
      "hand": "right"
    },
    {
      "midi": 64,
      "time": 295.555,
      "duration": 0.541,
      "velocity": 1,
      "hand": "right"
    },
    {
      "midi": 64,
      "time": 296.111,
      "duration": 0.333,
      "velocity": 1,
      "hand": "right"
    },
    {
      "midi": 71,
      "time": 296.666,
      "duration": 0.333,
      "velocity": 1,
      "hand": "right"
    },
    {
      "midi": 59,
      "time": 297.222,
      "duration": 0.333,
      "velocity": 1,
      "hand": "right"
    },
    {
      "midi": 59,
      "time": 297.778,
      "duration": 0.333,
      "velocity": 1,
      "hand": "right"
    },
    {
      "midi": 61,
      "time": 298.333,
      "duration": 0.333,
      "velocity": 1,
      "hand": "right"
    },
    {
      "midi": 64,
      "time": 298.889,
      "duration": 0.556,
      "velocity": 1,
      "hand": "right"
    },
    {
      "midi": 67,
      "time": 299.444,
      "duration": 0.333,
      "velocity": 1,
      "hand": "right"
    },
    {
      "midi": 73,
      "time": 300,
      "duration": 0.333,
      "velocity": 1,
      "hand": "right"
    },
    {
      "midi": 61,
      "time": 300.555,
      "duration": 0.333,
      "velocity": 1,
      "hand": "right"
    },
    {
      "midi": 61,
      "time": 301.111,
      "duration": 0.333,
      "velocity": 1,
      "hand": "right"
    },
    {
      "midi": 61,
      "time": 301.666,
      "duration": 0.333,
      "velocity": 1,
      "hand": "right"
    },
    {
      "midi": 66,
      "time": 302.222,
      "duration": 0.556,
      "velocity": 1,
      "hand": "right"
    },
    {
      "midi": 59,
      "time": 302.778,
      "duration": 0.333,
      "velocity": 1,
      "hand": "right"
    },
    {
      "midi": 74,
      "time": 303.333,
      "duration": 0.333,
      "velocity": 1,
      "hand": "right"
    },
    {
      "midi": 78,
      "time": 303.889,
      "duration": 0.333,
      "velocity": 1,
      "hand": "right"
    },
    {
      "midi": 76,
      "time": 304.444,
      "duration": 0.333,
      "velocity": 1,
      "hand": "right"
    },
    {
      "midi": 74,
      "time": 305,
      "duration": 0.333,
      "velocity": 1,
      "hand": "right"
    },
    {
      "midi": 73,
      "time": 305.555,
      "duration": 0.333,
      "velocity": 1,
      "hand": "right"
    },
    {
      "midi": 82,
      "time": 306.111,
      "duration": 0.333,
      "velocity": 1,
      "hand": "right"
    },
    {
      "midi": 78,
      "time": 306.666,
      "duration": 0.333,
      "velocity": 1,
      "hand": "right"
    },
    {
      "midi": 76,
      "time": 307.222,
      "duration": 0.333,
      "velocity": 1,
      "hand": "right"
    },
    {
      "midi": 74,
      "time": 307.778,
      "duration": 0.333,
      "velocity": 1,
      "hand": "right"
    },
    {
      "midi": 73,
      "time": 308.333,
      "duration": 0.333,
      "velocity": 1,
      "hand": "right"
    },
    {
      "midi": 70,
      "time": 308.889,
      "duration": 0.333,
      "velocity": 1,
      "hand": "right"
    },
    {
      "midi": 66,
      "time": 309.444,
      "duration": 0.333,
      "velocity": 1,
      "hand": "right"
    },
    {
      "midi": 70,
      "time": 310.278,
      "duration": 0.333,
      "velocity": 1,
      "hand": "right"
    },
    {
      "midi": 64,
      "time": 310.833,
      "duration": 0.333,
      "velocity": 1,
      "hand": "right"
    },
    {
      "midi": 55,
      "time": 311.389,
      "duration": 1.111,
      "velocity": 1,
      "hand": "right"
    },
    {
      "midi": 73,
      "time": 311.944,
      "duration": 0.333,
      "velocity": 1,
      "hand": "right"
    },
    {
      "midi": 57,
      "time": 312.5,
      "duration": 0.333,
      "velocity": 1,
      "hand": "right"
    },
    {
      "midi": 66,
      "time": 313.055,
      "duration": 0.541,
      "velocity": 1,
      "hand": "right"
    },
    {
      "midi": 66,
      "time": 313.611,
      "duration": 0.333,
      "velocity": 1,
      "hand": "right"
    },
    {
      "midi": 64,
      "time": 314.166,
      "duration": 0.333,
      "velocity": 1,
      "hand": "right"
    },
    {
      "midi": 55,
      "time": 314.722,
      "duration": 1.111,
      "velocity": 1,
      "hand": "right"
    },
    {
      "midi": 73,
      "time": 315.278,
      "duration": 0.333,
      "velocity": 1,
      "hand": "right"
    },
    {
      "midi": 57,
      "time": 315.833,
      "duration": 0.333,
      "velocity": 1,
      "hand": "right"
    },
    {
      "midi": 66,
      "time": 316.389,
      "duration": 0.54,
      "velocity": 1,
      "hand": "right"
    },
    {
      "midi": 66,
      "time": 316.944,
      "duration": 0.333,
      "velocity": 1,
      "hand": "right"
    },
    {
      "midi": 71,
      "time": 317.5,
      "duration": 0.333,
      "velocity": 1,
      "hand": "right"
    },
    {
      "midi": 71,
      "time": 318.055,
      "duration": 0.333,
      "velocity": 1,
      "hand": "right"
    },
    {
      "midi": 73,
      "time": 318.611,
      "duration": 0.333,
      "velocity": 1,
      "hand": "right"
    },
    {
      "midi": 78,
      "time": 319.166,
      "duration": 0.333,
      "velocity": 1,
      "hand": "right"
    },
    {
      "midi": 78,
      "time": 319.722,
      "duration": 0.333,
      "velocity": 1,
      "hand": "right"
    },
    {
      "midi": 82,
      "time": 320.278,
      "duration": 0.333,
      "velocity": 1,
      "hand": "right"
    },
    {
      "midi": 83,
      "time": 320.833,
      "duration": 0.333,
      "velocity": 1,
      "hand": "right"
    },
    {
      "midi": 83,
      "time": 321.389,
      "duration": 0.333,
      "velocity": 1,
      "hand": "right"
    },
    {
      "midi": 83,
      "time": 321.944,
      "duration": 0.333,
      "velocity": 1,
      "hand": "right"
    },
    {
      "midi": 83,
      "time": 322.5,
      "duration": 0.333,
      "velocity": 1,
      "hand": "right"
    },
    {
      "midi": 83,
      "time": 323.055,
      "duration": 0.333,
      "velocity": 1,
      "hand": "right"
    },
    {
      "midi": 82,
      "time": 323.611,
      "duration": 0.333,
      "velocity": 1,
      "hand": "right"
    },
    {
      "midi": 83,
      "time": 324.722,
      "duration": 0.333,
      "velocity": 1,
      "hand": "right"
    },
    {
      "midi": 71,
      "time": 325.555,
      "duration": 0.333,
      "velocity": 1,
      "hand": "right"
    },
    {
      "midi": 59,
      "time": 326.389,
      "duration": 0.333,
      "velocity": 1,
      "hand": "right"
    },
    {
      "midi": 71,
      "time": 327.222,
      "duration": 0.333,
      "velocity": 1,
      "hand": "right"
    },
    {
      "midi": 83,
      "time": 328.055,
      "duration": 0.333,
      "velocity": 1,
      "hand": "right"
    },
    {
      "midi": 59,
      "time": 328.889,
      "duration": 1.667,
      "velocity": 1,
      "hand": "right"
    }
  ],
  "notes2Hands": [
    {
      "midi": 62,
      "time": 0,
      "duration": 0.278,
      "velocity": 1,
      "hand": "right"
    },
    {
      "midi": 66,
      "time": 0,
      "duration": 0.278,
      "velocity": 1,
      "hand": "right"
    },
    {
      "midi": 71,
      "time": 0,
      "duration": 0.278,
      "velocity": 1,
      "hand": "right"
    },
    {
      "midi": 61,
      "time": 0.278,
      "duration": 0.278,
      "velocity": 1,
      "hand": "right"
    },
    {
      "midi": 65,
      "time": 0.278,
      "duration": 0.278,
      "velocity": 1,
      "hand": "right"
    },
    {
      "midi": 62,
      "time": 0.555,
      "duration": 0.556,
      "velocity": 1,
      "hand": "right"
    },
    {
      "midi": 66,
      "time": 0.555,
      "duration": 0.556,
      "velocity": 1,
      "hand": "right"
    },
    {
      "midi": 71,
      "time": 0.555,
      "duration": 0.556,
      "velocity": 1,
      "hand": "right"
    },
    {
      "midi": 47,
      "time": 0.833,
      "duration": 0.278,
      "velocity": 1,
      "hand": "left"
    },
    {
      "midi": 61,
      "time": 1.111,
      "duration": 0.278,
      "velocity": 1,
      "hand": "right"
    },
    {
      "midi": 64,
      "time": 1.111,
      "duration": 0.278,
      "velocity": 1,
      "hand": "right"
    },
    {
      "midi": 70,
      "time": 1.111,
      "duration": 0.278,
      "velocity": 1,
      "hand": "right"
    },
    {
      "midi": 47,
      "time": 1.389,
      "duration": 0.278,
      "velocity": 1,
      "hand": "left"
    },
    {
      "midi": 59,
      "time": 1.666,
      "duration": 0.278,
      "velocity": 1,
      "hand": "left"
    },
    {
      "midi": 62,
      "time": 1.666,
      "duration": 0.278,
      "velocity": 1,
      "hand": "right"
    },
    {
      "midi": 67,
      "time": 1.666,
      "duration": 0.278,
      "velocity": 1,
      "hand": "right"
    },
    {
      "midi": 58,
      "time": 1.944,
      "duration": 0.278,
      "velocity": 1,
      "hand": "left"
    },
    {
      "midi": 61,
      "time": 1.944,
      "duration": 0.278,
      "velocity": 1,
      "hand": "right"
    },
    {
      "midi": 59,
      "time": 2.222,
      "duration": 0.556,
      "velocity": 1,
      "hand": "left"
    },
    {
      "midi": 62,
      "time": 2.222,
      "duration": 0.556,
      "velocity": 1,
      "hand": "right"
    },
    {
      "midi": 67,
      "time": 2.222,
      "duration": 0.556,
      "velocity": 1,
      "hand": "right"
    },
    {
      "midi": 47,
      "time": 2.5,
      "duration": 0.278,
      "velocity": 1,
      "hand": "left"
    },
    {
      "midi": 58,
      "time": 2.778,
      "duration": 0.278,
      "velocity": 1,
      "hand": "left"
    },
    {
      "midi": 61,
      "time": 2.778,
      "duration": 0.278,
      "velocity": 1,
      "hand": "right"
    },
    {
      "midi": 66,
      "time": 2.778,
      "duration": 0.278,
      "velocity": 1,
      "hand": "right"
    },
    {
      "midi": 47,
      "time": 3.055,
      "duration": 0.278,
      "velocity": 1,
      "hand": "left"
    },
    {
      "midi": 57,
      "time": 3.333,
      "duration": 0.278,
      "velocity": 1,
      "hand": "left"
    },
    {
      "midi": 60,
      "time": 3.333,
      "duration": 0.278,
      "velocity": 1,
      "hand": "right"
    },
    {
      "midi": 66,
      "time": 3.333,
      "duration": 0.278,
      "velocity": 1,
      "hand": "right"
    },
    {
      "midi": 56,
      "time": 3.611,
      "duration": 0.278,
      "velocity": 1,
      "hand": "left"
    },
    {
      "midi": 59,
      "time": 3.611,
      "duration": 0.278,
      "velocity": 1,
      "hand": "left"
    },
    {
      "midi": 57,
      "time": 3.889,
      "duration": 0.556,
      "velocity": 1,
      "hand": "left"
    },
    {
      "midi": 60,
      "time": 3.889,
      "duration": 0.556,
      "velocity": 1,
      "hand": "right"
    },
    {
      "midi": 66,
      "time": 3.889,
      "duration": 0.556,
      "velocity": 1,
      "hand": "right"
    },
    {
      "midi": 47,
      "time": 4.166,
      "duration": 0.278,
      "velocity": 1,
      "hand": "left"
    },
    {
      "midi": 56,
      "time": 4.444,
      "duration": 0.278,
      "velocity": 1,
      "hand": "left"
    },
    {
      "midi": 59,
      "time": 4.444,
      "duration": 0.278,
      "velocity": 1,
      "hand": "left"
    },
    {
      "midi": 64,
      "time": 4.444,
      "duration": 0.278,
      "velocity": 1,
      "hand": "right"
    },
    {
      "midi": 47,
      "time": 4.722,
      "duration": 0.278,
      "velocity": 1,
      "hand": "left"
    },
    {
      "midi": 55,
      "time": 5,
      "duration": 0.278,
      "velocity": 1,
      "hand": "left"
    },
    {
      "midi": 58,
      "time": 5,
      "duration": 0.278,
      "velocity": 1,
      "hand": "left"
    },
    {
      "midi": 64,
      "time": 5,
      "duration": 0.278,
      "velocity": 1,
      "hand": "right"
    },
    {
      "midi": 47,
      "time": 5.278,
      "duration": 0.278,
      "velocity": 1,
      "hand": "left"
    },
    {
      "midi": 54,
      "time": 5.555,
      "duration": 0.278,
      "velocity": 1,
      "hand": "left"
    },
    {
      "midi": 58,
      "time": 5.555,
      "duration": 0.278,
      "velocity": 1,
      "hand": "left"
    },
    {
      "midi": 62,
      "time": 5.555,
      "duration": 0.278,
      "velocity": 1,
      "hand": "right"
    },
    {
      "midi": 47,
      "time": 5.833,
      "duration": 0.278,
      "velocity": 1,
      "hand": "left"
    },
    {
      "midi": 52,
      "time": 6.111,
      "duration": 0.278,
      "velocity": 1,
      "hand": "left"
    },
    {
      "midi": 58,
      "time": 6.111,
      "duration": 0.278,
      "velocity": 1,
      "hand": "left"
    },
    {
      "midi": 61,
      "time": 6.111,
      "duration": 0.278,
      "velocity": 1,
      "hand": "right"
    },
    {
      "midi": 47,
      "time": 6.389,
      "duration": 0.278,
      "velocity": 1,
      "hand": "left"
    },
    {
      "midi": 50,
      "time": 6.389,
      "duration": 0.278,
      "velocity": 1,
      "hand": "left"
    },
    {
      "midi": 53,
      "time": 6.666,
      "duration": 0.278,
      "velocity": 1,
      "hand": "left"
    },
    {
      "midi": 54,
      "time": 6.944,
      "duration": 0.278,
      "velocity": 1,
      "hand": "left"
    },
    {
      "midi": 55,
      "time": 7.222,
      "duration": 0.833,
      "velocity": 1,
      "hand": "left"
    },
    {
      "midi": 62,
      "time": 7.5,
      "duration": 0.278,
      "velocity": 1,
      "hand": "right"
    },
    {
      "midi": 71,
      "time": 7.5,
      "duration": 0.263,
      "velocity": 1,
      "hand": "right"
    },
    {
      "midi": 74,
      "time": 7.5,
      "duration": 0.263,
      "velocity": 1,
      "hand": "right"
    },
    {
      "midi": 64,
      "time": 7.778,
      "duration": 0.278,
      "velocity": 1,
      "hand": "right"
    },
    {
      "midi": 71,
      "time": 7.778,
      "duration": 0.262,
      "velocity": 1,
      "hand": "right"
    },
    {
      "midi": 74,
      "time": 7.778,
      "duration": 0.262,
      "velocity": 1,
      "hand": "right"
    },
    {
      "midi": 43,
      "time": 8.055,
      "duration": 0.278,
      "velocity": 1,
      "hand": "left"
    },
    {
      "midi": 65,
      "time": 8.055,
      "duration": 0.278,
      "velocity": 1,
      "hand": "right"
    },
    {
      "midi": 71,
      "time": 8.055,
      "duration": 0.278,
      "velocity": 1,
      "hand": "right"
    },
    {
      "midi": 74,
      "time": 8.055,
      "duration": 0.278,
      "velocity": 1,
      "hand": "right"
    },
    {
      "midi": 45,
      "time": 8.333,
      "duration": 0.278,
      "velocity": 1,
      "hand": "left"
    },
    {
      "midi": 43,
      "time": 8.611,
      "duration": 0.278,
      "velocity": 1,
      "hand": "left"
    },
    {
      "midi": 42,
      "time": 8.889,
      "duration": 0.833,
      "velocity": 1,
      "hand": "left"
    },
    {
      "midi": 56,
      "time": 9.166,
      "duration": 0.278,
      "velocity": 1,
      "hand": "left"
    },
    {
      "midi": 59,
      "time": 9.166,
      "duration": 0.278,
      "velocity": 1,
      "hand": "left"
    },
    {
      "midi": 66,
      "time": 9.166,
      "duration": 0.278,
      "velocity": 1,
      "hand": "right"
    },
    {
      "midi": 58,
      "time": 9.444,
      "duration": 0.278,
      "velocity": 1,
      "hand": "left"
    },
    {
      "midi": 61,
      "time": 9.444,
      "duration": 0.278,
      "velocity": 1,
      "hand": "right"
    },
    {
      "midi": 64,
      "time": 9.444,
      "duration": 0.278,
      "velocity": 1,
      "hand": "right"
    },
    {
      "midi": 47,
      "time": 9.722,
      "duration": 0.278,
      "velocity": 1,
      "hand": "left"
    },
    {
      "midi": 59,
      "time": 9.722,
      "duration": 0.278,
      "velocity": 1,
      "hand": "left"
    },
    {
      "midi": 62,
      "time": 9.722,
      "duration": 0.278,
      "velocity": 1,
      "hand": "right"
    },
    {
      "midi": 53,
      "time": 10,
      "duration": 0.278,
      "velocity": 1,
      "hand": "left"
    },
    {
      "midi": 54,
      "time": 10.278,
      "duration": 0.278,
      "velocity": 1,
      "hand": "left"
    },
    {
      "midi": 55,
      "time": 10.555,
      "duration": 0.833,
      "velocity": 1,
      "hand": "left"
    },
    {
      "midi": 62,
      "time": 10.833,
      "duration": 0.278,
      "velocity": 1,
      "hand": "right"
    },
    {
      "midi": 71,
      "time": 10.833,
      "duration": 0.263,
      "velocity": 1,
      "hand": "right"
    },
    {
      "midi": 74,
      "time": 10.833,
      "duration": 0.263,
      "velocity": 1,
      "hand": "right"
    },
    {
      "midi": 64,
      "time": 11.111,
      "duration": 0.278,
      "velocity": 1,
      "hand": "right"
    },
    {
      "midi": 71,
      "time": 11.111,
      "duration": 0.263,
      "velocity": 1,
      "hand": "right"
    },
    {
      "midi": 74,
      "time": 11.111,
      "duration": 0.263,
      "velocity": 1,
      "hand": "right"
    },
    {
      "midi": 43,
      "time": 11.389,
      "duration": 0.278,
      "velocity": 1,
      "hand": "left"
    },
    {
      "midi": 65,
      "time": 11.389,
      "duration": 0.278,
      "velocity": 1,
      "hand": "right"
    },
    {
      "midi": 71,
      "time": 11.389,
      "duration": 0.278,
      "velocity": 1,
      "hand": "right"
    },
    {
      "midi": 74,
      "time": 11.389,
      "duration": 0.278,
      "velocity": 1,
      "hand": "right"
    },
    {
      "midi": 45,
      "time": 11.666,
      "duration": 0.278,
      "velocity": 1,
      "hand": "left"
    },
    {
      "midi": 43,
      "time": 11.944,
      "duration": 0.278,
      "velocity": 1,
      "hand": "left"
    },
    {
      "midi": 42,
      "time": 12.222,
      "duration": 0.833,
      "velocity": 1,
      "hand": "left"
    },
    {
      "midi": 56,
      "time": 12.5,
      "duration": 0.278,
      "velocity": 1,
      "hand": "left"
    },
    {
      "midi": 59,
      "time": 12.5,
      "duration": 0.278,
      "velocity": 1,
      "hand": "left"
    },
    {
      "midi": 66,
      "time": 12.5,
      "duration": 0.278,
      "velocity": 1,
      "hand": "right"
    },
    {
      "midi": 58,
      "time": 12.778,
      "duration": 0.278,
      "velocity": 1,
      "hand": "left"
    },
    {
      "midi": 61,
      "time": 12.778,
      "duration": 0.278,
      "velocity": 1,
      "hand": "right"
    },
    {
      "midi": 64,
      "time": 12.778,
      "duration": 0.278,
      "velocity": 1,
      "hand": "right"
    },
    {
      "midi": 47,
      "time": 13.055,
      "duration": 0.278,
      "velocity": 1,
      "hand": "left"
    },
    {
      "midi": 59,
      "time": 13.055,
      "duration": 0.278,
      "velocity": 1,
      "hand": "left"
    },
    {
      "midi": 62,
      "time": 13.055,
      "duration": 0.263,
      "velocity": 1,
      "hand": "right"
    },
    {
      "midi": 62,
      "time": 13.333,
      "duration": 0.278,
      "velocity": 1,
      "hand": "right"
    },
    {
      "midi": 66,
      "time": 13.333,
      "duration": 0.278,
      "velocity": 1,
      "hand": "right"
    },
    {
      "midi": 71,
      "time": 13.333,
      "duration": 0.278,
      "velocity": 1,
      "hand": "right"
    },
    {
      "midi": 61,
      "time": 13.611,
      "duration": 0.278,
      "velocity": 1,
      "hand": "right"
    },
    {
      "midi": 65,
      "time": 13.611,
      "duration": 0.278,
      "velocity": 1,
      "hand": "right"
    },
    {
      "midi": 62,
      "time": 13.889,
      "duration": 0.556,
      "velocity": 1,
      "hand": "right"
    },
    {
      "midi": 66,
      "time": 13.889,
      "duration": 0.556,
      "velocity": 1,
      "hand": "right"
    },
    {
      "midi": 71,
      "time": 13.889,
      "duration": 0.556,
      "velocity": 1,
      "hand": "right"
    },
    {
      "midi": 47,
      "time": 14.166,
      "duration": 0.278,
      "velocity": 1,
      "hand": "left"
    },
    {
      "midi": 61,
      "time": 14.444,
      "duration": 0.278,
      "velocity": 1,
      "hand": "right"
    },
    {
      "midi": 64,
      "time": 14.444,
      "duration": 0.278,
      "velocity": 1,
      "hand": "right"
    },
    {
      "midi": 70,
      "time": 14.444,
      "duration": 0.278,
      "velocity": 1,
      "hand": "right"
    },
    {
      "midi": 47,
      "time": 14.722,
      "duration": 0.278,
      "velocity": 1,
      "hand": "left"
    },
    {
      "midi": 59,
      "time": 15,
      "duration": 0.278,
      "velocity": 1,
      "hand": "left"
    },
    {
      "midi": 62,
      "time": 15,
      "duration": 0.278,
      "velocity": 1,
      "hand": "right"
    },
    {
      "midi": 67,
      "time": 15,
      "duration": 0.278,
      "velocity": 1,
      "hand": "right"
    },
    {
      "midi": 58,
      "time": 15.278,
      "duration": 0.278,
      "velocity": 1,
      "hand": "left"
    },
    {
      "midi": 61,
      "time": 15.278,
      "duration": 0.278,
      "velocity": 1,
      "hand": "right"
    },
    {
      "midi": 59,
      "time": 15.555,
      "duration": 0.556,
      "velocity": 1,
      "hand": "left"
    },
    {
      "midi": 62,
      "time": 15.555,
      "duration": 0.556,
      "velocity": 1,
      "hand": "right"
    },
    {
      "midi": 67,
      "time": 15.555,
      "duration": 0.556,
      "velocity": 1,
      "hand": "right"
    },
    {
      "midi": 47,
      "time": 15.833,
      "duration": 0.278,
      "velocity": 1,
      "hand": "left"
    },
    {
      "midi": 58,
      "time": 16.111,
      "duration": 0.278,
      "velocity": 1,
      "hand": "left"
    },
    {
      "midi": 61,
      "time": 16.111,
      "duration": 0.278,
      "velocity": 1,
      "hand": "right"
    },
    {
      "midi": 66,
      "time": 16.111,
      "duration": 0.278,
      "velocity": 1,
      "hand": "right"
    },
    {
      "midi": 47,
      "time": 16.389,
      "duration": 0.278,
      "velocity": 1,
      "hand": "left"
    },
    {
      "midi": 57,
      "time": 16.666,
      "duration": 0.278,
      "velocity": 1,
      "hand": "left"
    },
    {
      "midi": 60,
      "time": 16.666,
      "duration": 0.278,
      "velocity": 1,
      "hand": "right"
    },
    {
      "midi": 66,
      "time": 16.666,
      "duration": 0.278,
      "velocity": 1,
      "hand": "right"
    },
    {
      "midi": 56,
      "time": 16.944,
      "duration": 0.278,
      "velocity": 1,
      "hand": "left"
    },
    {
      "midi": 59,
      "time": 16.944,
      "duration": 0.278,
      "velocity": 1,
      "hand": "left"
    },
    {
      "midi": 57,
      "time": 17.222,
      "duration": 0.556,
      "velocity": 1,
      "hand": "left"
    },
    {
      "midi": 60,
      "time": 17.222,
      "duration": 0.556,
      "velocity": 1,
      "hand": "right"
    },
    {
      "midi": 66,
      "time": 17.222,
      "duration": 0.556,
      "velocity": 1,
      "hand": "right"
    },
    {
      "midi": 47,
      "time": 17.5,
      "duration": 0.278,
      "velocity": 1,
      "hand": "left"
    },
    {
      "midi": 56,
      "time": 17.778,
      "duration": 0.278,
      "velocity": 1,
      "hand": "left"
    },
    {
      "midi": 59,
      "time": 17.778,
      "duration": 0.278,
      "velocity": 1,
      "hand": "left"
    },
    {
      "midi": 64,
      "time": 17.778,
      "duration": 0.278,
      "velocity": 1,
      "hand": "right"
    },
    {
      "midi": 47,
      "time": 18.055,
      "duration": 0.278,
      "velocity": 1,
      "hand": "left"
    },
    {
      "midi": 55,
      "time": 18.333,
      "duration": 0.278,
      "velocity": 1,
      "hand": "left"
    },
    {
      "midi": 58,
      "time": 18.333,
      "duration": 0.278,
      "velocity": 1,
      "hand": "left"
    },
    {
      "midi": 64,
      "time": 18.333,
      "duration": 0.278,
      "velocity": 1,
      "hand": "right"
    },
    {
      "midi": 47,
      "time": 18.611,
      "duration": 0.278,
      "velocity": 1,
      "hand": "left"
    },
    {
      "midi": 54,
      "time": 18.889,
      "duration": 0.278,
      "velocity": 1,
      "hand": "left"
    },
    {
      "midi": 58,
      "time": 18.889,
      "duration": 0.278,
      "velocity": 1,
      "hand": "left"
    },
    {
      "midi": 62,
      "time": 18.889,
      "duration": 0.278,
      "velocity": 1,
      "hand": "right"
    },
    {
      "midi": 47,
      "time": 19.166,
      "duration": 0.278,
      "velocity": 1,
      "hand": "left"
    },
    {
      "midi": 52,
      "time": 19.444,
      "duration": 0.278,
      "velocity": 1,
      "hand": "left"
    },
    {
      "midi": 58,
      "time": 19.444,
      "duration": 0.278,
      "velocity": 1,
      "hand": "left"
    },
    {
      "midi": 61,
      "time": 19.444,
      "duration": 0.278,
      "velocity": 1,
      "hand": "right"
    },
    {
      "midi": 47,
      "time": 19.722,
      "duration": 0.278,
      "velocity": 1,
      "hand": "left"
    },
    {
      "midi": 50,
      "time": 19.722,
      "duration": 0.278,
      "velocity": 1,
      "hand": "left"
    },
    {
      "midi": 53,
      "time": 20,
      "duration": 0.278,
      "velocity": 1,
      "hand": "left"
    },
    {
      "midi": 54,
      "time": 20.278,
      "duration": 0.278,
      "velocity": 1,
      "hand": "left"
    },
    {
      "midi": 55,
      "time": 20.555,
      "duration": 0.833,
      "velocity": 1,
      "hand": "left"
    },
    {
      "midi": 62,
      "time": 20.833,
      "duration": 0.278,
      "velocity": 1,
      "hand": "right"
    },
    {
      "midi": 71,
      "time": 20.833,
      "duration": 0.263,
      "velocity": 1,
      "hand": "right"
    },
    {
      "midi": 74,
      "time": 20.833,
      "duration": 0.263,
      "velocity": 1,
      "hand": "right"
    },
    {
      "midi": 64,
      "time": 21.111,
      "duration": 0.278,
      "velocity": 1,
      "hand": "right"
    },
    {
      "midi": 71,
      "time": 21.111,
      "duration": 0.263,
      "velocity": 1,
      "hand": "right"
    },
    {
      "midi": 74,
      "time": 21.111,
      "duration": 0.263,
      "velocity": 1,
      "hand": "right"
    },
    {
      "midi": 43,
      "time": 21.389,
      "duration": 0.278,
      "velocity": 1,
      "hand": "left"
    },
    {
      "midi": 65,
      "time": 21.389,
      "duration": 0.278,
      "velocity": 1,
      "hand": "right"
    },
    {
      "midi": 71,
      "time": 21.389,
      "duration": 0.278,
      "velocity": 1,
      "hand": "right"
    },
    {
      "midi": 74,
      "time": 21.389,
      "duration": 0.278,
      "velocity": 1,
      "hand": "right"
    },
    {
      "midi": 45,
      "time": 21.666,
      "duration": 0.278,
      "velocity": 1,
      "hand": "left"
    },
    {
      "midi": 43,
      "time": 21.944,
      "duration": 0.278,
      "velocity": 1,
      "hand": "left"
    },
    {
      "midi": 42,
      "time": 22.222,
      "duration": 0.833,
      "velocity": 1,
      "hand": "left"
    },
    {
      "midi": 56,
      "time": 22.5,
      "duration": 0.278,
      "velocity": 1,
      "hand": "left"
    },
    {
      "midi": 59,
      "time": 22.5,
      "duration": 0.278,
      "velocity": 1,
      "hand": "left"
    },
    {
      "midi": 66,
      "time": 22.5,
      "duration": 0.278,
      "velocity": 1,
      "hand": "right"
    },
    {
      "midi": 58,
      "time": 22.778,
      "duration": 0.278,
      "velocity": 1,
      "hand": "left"
    },
    {
      "midi": 61,
      "time": 22.778,
      "duration": 0.278,
      "velocity": 1,
      "hand": "right"
    },
    {
      "midi": 64,
      "time": 22.778,
      "duration": 0.278,
      "velocity": 1,
      "hand": "right"
    },
    {
      "midi": 47,
      "time": 23.055,
      "duration": 0.278,
      "velocity": 1,
      "hand": "left"
    },
    {
      "midi": 59,
      "time": 23.055,
      "duration": 0.278,
      "velocity": 1,
      "hand": "left"
    },
    {
      "midi": 62,
      "time": 23.055,
      "duration": 0.278,
      "velocity": 1,
      "hand": "right"
    },
    {
      "midi": 53,
      "time": 23.333,
      "duration": 0.278,
      "velocity": 1,
      "hand": "left"
    },
    {
      "midi": 54,
      "time": 23.611,
      "duration": 0.278,
      "velocity": 1,
      "hand": "left"
    },
    {
      "midi": 55,
      "time": 23.889,
      "duration": 0.818,
      "velocity": 1,
      "hand": "left"
    },
    {
      "midi": 62,
      "time": 24.166,
      "duration": 0.278,
      "velocity": 1,
      "hand": "right"
    },
    {
      "midi": 71,
      "time": 24.166,
      "duration": 0.263,
      "velocity": 1,
      "hand": "right"
    },
    {
      "midi": 74,
      "time": 24.166,
      "duration": 0.263,
      "velocity": 1,
      "hand": "right"
    },
    {
      "midi": 64,
      "time": 24.444,
      "duration": 0.278,
      "velocity": 1,
      "hand": "right"
    },
    {
      "midi": 71,
      "time": 24.444,
      "duration": 0.263,
      "velocity": 1,
      "hand": "right"
    },
    {
      "midi": 74,
      "time": 24.444,
      "duration": 0.263,
      "velocity": 1,
      "hand": "right"
    },
    {
      "midi": 55,
      "time": 24.722,
      "duration": 0.278,
      "velocity": 1,
      "hand": "left"
    },
    {
      "midi": 65,
      "time": 24.722,
      "duration": 0.541,
      "velocity": 1,
      "hand": "right"
    },
    {
      "midi": 71,
      "time": 24.722,
      "duration": 0.541,
      "velocity": 1,
      "hand": "right"
    },
    {
      "midi": 74,
      "time": 24.722,
      "duration": 0.556,
      "velocity": 1,
      "hand": "right"
    },
    {
      "midi": 56,
      "time": 25,
      "duration": 0.556,
      "velocity": 1,
      "hand": "left"
    },
    {
      "midi": 65,
      "time": 25.278,
      "duration": 0.556,
      "velocity": 1,
      "hand": "right"
    },
    {
      "midi": 71,
      "time": 25.278,
      "duration": 0.54,
      "velocity": 1,
      "hand": "right"
    },
    {
      "midi": 73,
      "time": 25.278,
      "duration": 0.54,
      "velocity": 1,
      "hand": "right"
    },
    {
      "midi": 61,
      "time": 25.555,
      "duration": 0.556,
      "velocity": 1,
      "hand": "right"
    },
    {
      "midi": 71,
      "time": 25.833,
      "duration": 0.556,
      "velocity": 1,
      "hand": "right"
    },
    {
      "midi": 73,
      "time": 25.833,
      "duration": 0.541,
      "velocity": 1,
      "hand": "right"
    },
    {
      "midi": 77,
      "time": 25.833,
      "duration": 0.556,
      "velocity": 1,
      "hand": "right"
    },
    {
      "midi": 68,
      "time": 26.111,
      "duration": 0.278,
      "velocity": 1,
      "hand": "right"
    },
    {
      "midi": 66,
      "time": 26.389,
      "duration": 0.278,
      "velocity": 1,
      "hand": "right"
    },
    {
      "midi": 70,
      "time": 26.389,
      "duration": 0.278,
      "velocity": 1,
      "hand": "right"
    },
    {
      "midi": 73,
      "time": 26.389,
      "duration": 0.278,
      "velocity": 1,
      "hand": "right"
    },
    {
      "midi": 78,
      "time": 26.389,
      "duration": 0.262,
      "velocity": 1,
      "hand": "right"
    },
    {
      "midi": 74,
      "time": 26.666,
      "duration": 0.278,
      "velocity": 1,
      "hand": "right"
    },
    {
      "midi": 78,
      "time": 26.666,
      "duration": 0.278,
      "velocity": 1,
      "hand": "right"
    },
    {
      "midi": 83,
      "time": 26.666,
      "duration": 0.278,
      "velocity": 1,
      "hand": "right"
    },
    {
      "midi": 73,
      "time": 26.944,
      "duration": 0.278,
      "velocity": 1,
      "hand": "right"
    },
    {
      "midi": 77,
      "time": 26.944,
      "duration": 0.278,
      "velocity": 1,
      "hand": "right"
    },
    {
      "midi": 74,
      "time": 27.222,
      "duration": 0.556,
      "velocity": 1,
      "hand": "right"
    },
    {
      "midi": 78,
      "time": 27.222,
      "duration": 0.556,
      "velocity": 1,
      "hand": "right"
    },
    {
      "midi": 83,
      "time": 27.222,
      "duration": 0.556,
      "velocity": 1,
      "hand": "right"
    },
    {
      "midi": 66,
      "time": 27.5,
      "duration": 0.278,
      "velocity": 1,
      "hand": "right"
    },
    {
      "midi": 73,
      "time": 27.778,
      "duration": 0.278,
      "velocity": 1,
      "hand": "right"
    },
    {
      "midi": 76,
      "time": 27.778,
      "duration": 0.278,
      "velocity": 1,
      "hand": "right"
    },
    {
      "midi": 82,
      "time": 27.778,
      "duration": 0.278,
      "velocity": 1,
      "hand": "right"
    },
    {
      "midi": 66,
      "time": 28.055,
      "duration": 1.096,
      "velocity": 1,
      "hand": "right"
    },
    {
      "midi": 71,
      "time": 28.333,
      "duration": 0.278,
      "velocity": 1,
      "hand": "right"
    },
    {
      "midi": 74,
      "time": 28.333,
      "duration": 0.278,
      "velocity": 1,
      "hand": "right"
    },
    {
      "midi": 79,
      "time": 28.333,
      "duration": 0.278,
      "velocity": 1,
      "hand": "right"
    },
    {
      "midi": 70,
      "time": 28.611,
      "duration": 0.278,
      "velocity": 1,
      "hand": "right"
    },
    {
      "midi": 73,
      "time": 28.611,
      "duration": 0.278,
      "velocity": 1,
      "hand": "right"
    },
    {
      "midi": 71,
      "time": 28.889,
      "duration": 0.556,
      "velocity": 1,
      "hand": "right"
    },
    {
      "midi": 74,
      "time": 28.889,
      "duration": 0.556,
      "velocity": 1,
      "hand": "right"
    },
    {
      "midi": 79,
      "time": 28.889,
      "duration": 0.556,
      "velocity": 1,
      "hand": "right"
    },
    {
      "midi": 66,
      "time": 29.166,
      "duration": 0.541,
      "velocity": 1,
      "hand": "right"
    },
    {
      "midi": 70,
      "time": 29.444,
      "duration": 0.278,
      "velocity": 1,
      "hand": "right"
    },
    {
      "midi": 73,
      "time": 29.444,
      "duration": 0.278,
      "velocity": 1,
      "hand": "right"
    },
    {
      "midi": 78,
      "time": 29.444,
      "duration": 0.278,
      "velocity": 1,
      "hand": "right"
    },
    {
      "midi": 66,
      "time": 29.722,
      "duration": 0.278,
      "velocity": 1,
      "hand": "right"
    },
    {
      "midi": 64,
      "time": 30,
      "duration": 0.818,
      "velocity": 1,
      "hand": "right"
    },
    {
      "midi": 69,
      "time": 30,
      "duration": 0.833,
      "velocity": 1,
      "hand": "right"
    },
    {
      "midi": 72,
      "time": 30,
      "duration": 0.278,
      "velocity": 1,
      "hand": "right"
    },
    {
      "midi": 78,
      "time": 30,
      "duration": 0.278,
      "velocity": 1,
      "hand": "right"
    },
    {
      "midi": 71,
      "time": 30.278,
      "duration": 0.278,
      "velocity": 1,
      "hand": "right"
    },
    {
      "midi": 72,
      "time": 30.555,
      "duration": 0.263,
      "velocity": 1,
      "hand": "right"
    },
    {
      "midi": 78,
      "time": 30.555,
      "duration": 0.278,
      "velocity": 1,
      "hand": "right"
    },
    {
      "midi": 57,
      "time": 30.833,
      "duration": 0.818,
      "velocity": 1,
      "hand": "left"
    },
    {
      "midi": 64,
      "time": 30.833,
      "duration": 0.818,
      "velocity": 1,
      "hand": "right"
    },
    {
      "midi": 66,
      "time": 30.833,
      "duration": 0.278,
      "velocity": 1,
      "hand": "right"
    },
    {
      "midi": 72,
      "time": 30.833,
      "duration": 0.278,
      "velocity": 1,
      "hand": "right"
    },
    {
      "midi": 65,
      "time": 31.111,
      "duration": 0.278,
      "velocity": 1,
      "hand": "right"
    },
    {
      "midi": 66,
      "time": 31.389,
      "duration": 0.278,
      "velocity": 1,
      "hand": "right"
    },
    {
      "midi": 72,
      "time": 31.389,
      "duration": 0.278,
      "velocity": 1,
      "hand": "right"
    },
    {
      "midi": 54,
      "time": 31.666,
      "duration": 0.833,
      "velocity": 1,
      "hand": "left"
    },
    {
      "midi": 57,
      "time": 31.666,
      "duration": 0.833,
      "velocity": 1,
      "hand": "left"
    },
    {
      "midi": 60,
      "time": 31.666,
      "duration": 0.278,
      "velocity": 1,
      "hand": "right"
    },
    {
      "midi": 64,
      "time": 31.666,
      "duration": 0.278,
      "velocity": 1,
      "hand": "right"
    },
    {
      "midi": 59,
      "time": 31.944,
      "duration": 0.278,
      "velocity": 1,
      "hand": "left"
    },
    {
      "midi": 60,
      "time": 32.222,
      "duration": 0.278,
      "velocity": 1,
      "hand": "right"
    },
    {
      "midi": 64,
      "time": 32.222,
      "duration": 0.278,
      "velocity": 1,
      "hand": "right"
    },
    {
      "midi": 48,
      "time": 32.5,
      "duration": 0.278,
      "velocity": 1,
      "hand": "left"
    },
    {
      "midi": 47,
      "time": 32.778,
      "duration": 0.278,
      "velocity": 1,
      "hand": "left"
    },
    {
      "midi": 54,
      "time": 32.778,
      "duration": 0.278,
      "velocity": 1,
      "hand": "left"
    },
    {
      "midi": 63,
      "time": 32.778,
      "duration": 0.278,
      "velocity": 1,
      "hand": "right"
    },
    {
      "midi": 52,
      "time": 33.055,
      "duration": 0.278,
      "velocity": 1,
      "hand": "left"
    },
    {
      "midi": 55,
      "time": 33.055,
      "duration": 0.278,
      "velocity": 1,
      "hand": "left"
    },
    {
      "midi": 64,
      "time": 33.055,
      "duration": 0.278,
      "velocity": 1,
      "hand": "right"
    },
    {
      "midi": 76,
      "time": 33.333,
      "duration": 0.278,
      "velocity": 1,
      "hand": "right"
    },
    {
      "midi": 79,
      "time": 33.333,
      "duration": 0.278,
      "velocity": 1,
      "hand": "right"
    },
    {
      "midi": 83,
      "time": 33.333,
      "duration": 0.278,
      "velocity": 1,
      "hand": "right"
    },
    {
      "midi": 78,
      "time": 33.611,
      "duration": 0.278,
      "velocity": 1,
      "hand": "right"
    },
    {
      "midi": 82,
      "time": 33.611,
      "duration": 0.278,
      "velocity": 1,
      "hand": "right"
    },
    {
      "midi": 76,
      "time": 33.889,
      "duration": 0.556,
      "velocity": 1,
      "hand": "right"
    },
    {
      "midi": 79,
      "time": 33.889,
      "duration": 0.556,
      "velocity": 1,
      "hand": "right"
    },
    {
      "midi": 83,
      "time": 33.889,
      "duration": 0.556,
      "velocity": 1,
      "hand": "right"
    },
    {
      "midi": 71,
      "time": 34.166,
      "duration": 0.278,
      "velocity": 1,
      "hand": "right"
    },
    {
      "midi": 75,
      "time": 34.444,
      "duration": 0.278,
      "velocity": 1,
      "hand": "right"
    },
    {
      "midi": 78,
      "time": 34.444,
      "duration": 0.278,
      "velocity": 1,
      "hand": "right"
    },
    {
      "midi": 81,
      "time": 34.444,
      "duration": 0.278,
      "velocity": 1,
      "hand": "right"
    },
    {
      "midi": 71,
      "time": 34.722,
      "duration": 1.096,
      "velocity": 1,
      "hand": "right"
    },
    {
      "midi": 76,
      "time": 35,
      "duration": 0.278,
      "velocity": 1,
      "hand": "right"
    },
    {
      "midi": 79,
      "time": 35,
      "duration": 0.278,
      "velocity": 1,
      "hand": "right"
    },
    {
      "midi": 84,
      "time": 35,
      "duration": 0.278,
      "velocity": 1,
      "hand": "right"
    },
    {
      "midi": 75,
      "time": 35.278,
      "duration": 0.278,
      "velocity": 1,
      "hand": "right"
    },
    {
      "midi": 78,
      "time": 35.278,
      "duration": 0.278,
      "velocity": 1,
      "hand": "right"
    },
    {
      "midi": 76,
      "time": 35.555,
      "duration": 0.556,
      "velocity": 1,
      "hand": "right"
    },
    {
      "midi": 79,
      "time": 35.555,
      "duration": 0.556,
      "velocity": 1,
      "hand": "right"
    },
    {
      "midi": 84,
      "time": 35.555,
      "duration": 0.556,
      "velocity": 1,
      "hand": "right"
    },
    {
      "midi": 71,
      "time": 35.833,
      "duration": 0.541,
      "velocity": 1,
      "hand": "right"
    },
    {
      "midi": 75,
      "time": 36.111,
      "duration": 0.278,
      "velocity": 1,
      "hand": "right"
    },
    {
      "midi": 78,
      "time": 36.111,
      "duration": 0.278,
      "velocity": 1,
      "hand": "right"
    },
    {
      "midi": 83,
      "time": 36.111,
      "duration": 0.278,
      "velocity": 1,
      "hand": "right"
    },
    {
      "midi": 71,
      "time": 36.389,
      "duration": 0.278,
      "velocity": 1,
      "hand": "right"
    },
    {
      "midi": 69,
      "time": 36.666,
      "duration": 0.819,
      "velocity": 1,
      "hand": "right"
    },
    {
      "midi": 74,
      "time": 36.666,
      "duration": 0.833,
      "velocity": 1,
      "hand": "right"
    },
    {
      "midi": 77,
      "time": 36.666,
      "duration": 0.278,
      "velocity": 1,
      "hand": "right"
    },
    {
      "midi": 83,
      "time": 36.666,
      "duration": 0.278,
      "velocity": 1,
      "hand": "right"
    },
    {
      "midi": 76,
      "time": 36.944,
      "duration": 0.278,
      "velocity": 1,
      "hand": "right"
    },
    {
      "midi": 77,
      "time": 37.222,
      "duration": 0.263,
      "velocity": 1,
      "hand": "right"
    },
    {
      "midi": 83,
      "time": 37.222,
      "duration": 0.278,
      "velocity": 1,
      "hand": "right"
    },
    {
      "midi": 62,
      "time": 37.5,
      "duration": 0.818,
      "velocity": 1,
      "hand": "right"
    },
    {
      "midi": 69,
      "time": 37.5,
      "duration": 0.833,
      "velocity": 1,
      "hand": "right"
    },
    {
      "midi": 71,
      "time": 37.5,
      "duration": 0.278,
      "velocity": 1,
      "hand": "right"
    },
    {
      "midi": 77,
      "time": 37.5,
      "duration": 0.278,
      "velocity": 1,
      "hand": "right"
    },
    {
      "midi": 70,
      "time": 37.778,
      "duration": 0.278,
      "velocity": 1,
      "hand": "right"
    },
    {
      "midi": 71,
      "time": 38.055,
      "duration": 0.278,
      "velocity": 1,
      "hand": "right"
    },
    {
      "midi": 77,
      "time": 38.055,
      "duration": 0.278,
      "velocity": 1,
      "hand": "right"
    },
    {
      "midi": 59,
      "time": 38.333,
      "duration": 0.833,
      "velocity": 1,
      "hand": "left"
    },
    {
      "midi": 62,
      "time": 38.333,
      "duration": 0.833,
      "velocity": 1,
      "hand": "right"
    },
    {
      "midi": 65,
      "time": 38.333,
      "duration": 0.278,
      "velocity": 1,
      "hand": "right"
    },
    {
      "midi": 70,
      "time": 38.333,
      "duration": 0.278,
      "velocity": 1,
      "hand": "right"
    },
    {
      "midi": 64,
      "time": 38.611,
      "duration": 0.278,
      "velocity": 1,
      "hand": "right"
    },
    {
      "midi": 65,
      "time": 38.889,
      "duration": 0.278,
      "velocity": 1,
      "hand": "right"
    },
    {
      "midi": 70,
      "time": 38.889,
      "duration": 0.278,
      "velocity": 1,
      "hand": "right"
    },
    {
      "midi": 53,
      "time": 39.166,
      "duration": 0.278,
      "velocity": 1,
      "hand": "left"
    },
    {
      "midi": 52,
      "time": 39.444,
      "duration": 0.278,
      "velocity": 1,
      "hand": "left"
    },
    {
      "midi": 59,
      "time": 39.444,
      "duration": 0.278,
      "velocity": 1,
      "hand": "left"
    },
    {
      "midi": 62,
      "time": 39.444,
      "duration": 0.278,
      "velocity": 1,
      "hand": "right"
    },
    {
      "midi": 68,
      "time": 39.444,
      "duration": 0.278,
      "velocity": 1,
      "hand": "right"
    },
    {
      "midi": 45,
      "time": 39.722,
      "duration": 0.278,
      "velocity": 1,
      "hand": "left"
    },
    {
      "midi": 60,
      "time": 39.722,
      "duration": 0.263,
      "velocity": 1,
      "hand": "right"
    },
    {
      "midi": 69,
      "time": 39.722,
      "duration": 0.263,
      "velocity": 1,
      "hand": "right"
    },
    {
      "midi": 53,
      "time": 40,
      "duration": 0.278,
      "velocity": 1,
      "hand": "left"
    },
    {
      "midi": 60,
      "time": 40,
      "duration": 0.556,
      "velocity": 1,
      "hand": "right"
    },
    {
      "midi": 69,
      "time": 40,
      "duration": 0.556,
      "velocity": 1,
      "hand": "right"
    },
    {
      "midi": 52,
      "time": 40.278,
      "duration": 0.278,
      "velocity": 1,
      "hand": "left"
    },
    {
      "midi": 45,
      "time": 40.555,
      "duration": 0.278,
      "velocity": 1,
      "hand": "left"
    },
    {
      "midi": 62,
      "time": 40.555,
      "duration": 0.556,
      "velocity": 1,
      "hand": "right"
    },
    {
      "midi": 68,
      "time": 40.555,
      "duration": 0.556,
      "velocity": 1,
      "hand": "right"
    },
    {
      "midi": 71,
      "time": 40.555,
      "duration": 0.556,
      "velocity": 1,
      "hand": "right"
    },
    {
      "midi": 53,
      "time": 40.833,
      "duration": 0.278,
      "velocity": 1,
      "hand": "left"
    },
    {
      "midi": 52,
      "time": 41.111,
      "duration": 0.278,
      "velocity": 1,
      "hand": "left"
    },
    {
      "midi": 60,
      "time": 41.111,
      "duration": 0.278,
      "velocity": 1,
      "hand": "right"
    },
    {
      "midi": 69,
      "time": 41.111,
      "duration": 0.278,
      "velocity": 1,
      "hand": "right"
    },
    {
      "midi": 72,
      "time": 41.111,
      "duration": 0.278,
      "velocity": 1,
      "hand": "right"
    },
    {
      "midi": 45,
      "time": 41.389,
      "duration": 0.278,
      "velocity": 1,
      "hand": "left"
    },
    {
      "midi": 53,
      "time": 41.666,
      "duration": 0.278,
      "velocity": 1,
      "hand": "left"
    },
    {
      "midi": 60,
      "time": 41.666,
      "duration": 0.556,
      "velocity": 1,
      "hand": "right"
    },
    {
      "midi": 69,
      "time": 41.666,
      "duration": 0.556,
      "velocity": 1,
      "hand": "right"
    },
    {
      "midi": 52,
      "time": 41.944,
      "duration": 0.278,
      "velocity": 1,
      "hand": "left"
    },
    {
      "midi": 45,
      "time": 42.222,
      "duration": 0.278,
      "velocity": 1,
      "hand": "left"
    },
    {
      "midi": 59,
      "time": 42.222,
      "duration": 0.556,
      "velocity": 1,
      "hand": "left"
    },
    {
      "midi": 62,
      "time": 42.222,
      "duration": 0.556,
      "velocity": 1,
      "hand": "right"
    },
    {
      "midi": 68,
      "time": 42.222,
      "duration": 0.556,
      "velocity": 1,
      "hand": "right"
    },
    {
      "midi": 53,
      "time": 42.5,
      "duration": 0.278,
      "velocity": 1,
      "hand": "left"
    },
    {
      "midi": 52,
      "time": 42.778,
      "duration": 0.278,
      "velocity": 1,
      "hand": "left"
    },
    {
      "midi": 57,
      "time": 42.778,
      "duration": 0.278,
      "velocity": 1,
      "hand": "left"
    },
    {
      "midi": 60,
      "time": 42.778,
      "duration": 0.278,
      "velocity": 1,
      "hand": "right"
    },
    {
      "midi": 69,
      "time": 42.778,
      "duration": 0.278,
      "velocity": 1,
      "hand": "right"
    },
    {
      "midi": 45,
      "time": 43.055,
      "duration": 0.278,
      "velocity": 1,
      "hand": "left"
    },
    {
      "midi": 57,
      "time": 43.333,
      "duration": 0.278,
      "velocity": 1,
      "hand": "left"
    },
    {
      "midi": 64,
      "time": 43.333,
      "duration": 0.556,
      "velocity": 1,
      "hand": "right"
    },
    {
      "midi": 72,
      "time": 43.333,
      "duration": 0.556,
      "velocity": 1,
      "hand": "right"
    },
    {
      "midi": 56,
      "time": 43.611,
      "duration": 0.278,
      "velocity": 1,
      "hand": "left"
    },
    {
      "midi": 48,
      "time": 43.889,
      "duration": 0.278,
      "velocity": 1,
      "hand": "left"
    },
    {
      "midi": 65,
      "time": 43.889,
      "duration": 0.556,
      "velocity": 1,
      "hand": "right"
    },
    {
      "midi": 71,
      "time": 43.889,
      "duration": 0.556,
      "velocity": 1,
      "hand": "right"
    },
    {
      "midi": 74,
      "time": 43.889,
      "duration": 0.556,
      "velocity": 1,
      "hand": "right"
    },
    {
      "midi": 57,
      "time": 44.166,
      "duration": 0.278,
      "velocity": 1,
      "hand": "left"
    },
    {
      "midi": 56,
      "time": 44.444,
      "duration": 0.278,
      "velocity": 1,
      "hand": "left"
    },
    {
      "midi": 64,
      "time": 44.444,
      "duration": 0.278,
      "velocity": 1,
      "hand": "right"
    },
    {
      "midi": 72,
      "time": 44.444,
      "duration": 0.278,
      "velocity": 1,
      "hand": "right"
    },
    {
      "midi": 76,
      "time": 44.444,
      "duration": 0.278,
      "velocity": 1,
      "hand": "right"
    },
    {
      "midi": 48,
      "time": 44.722,
      "duration": 0.278,
      "velocity": 1,
      "hand": "left"
    },
    {
      "midi": 57,
      "time": 45,
      "duration": 0.278,
      "velocity": 1,
      "hand": "left"
    },
    {
      "midi": 64,
      "time": 45,
      "duration": 0.556,
      "velocity": 1,
      "hand": "right"
    },
    {
      "midi": 72,
      "time": 45,
      "duration": 0.556,
      "velocity": 1,
      "hand": "right"
    },
    {
      "midi": 56,
      "time": 45.278,
      "duration": 0.278,
      "velocity": 1,
      "hand": "left"
    },
    {
      "midi": 48,
      "time": 45.555,
      "duration": 0.278,
      "velocity": 1,
      "hand": "left"
    },
    {
      "midi": 62,
      "time": 45.555,
      "duration": 0.556,
      "velocity": 1,
      "hand": "right"
    },
    {
      "midi": 65,
      "time": 45.555,
      "duration": 0.556,
      "velocity": 1,
      "hand": "right"
    },
    {
      "midi": 71,
      "time": 45.555,
      "duration": 0.556,
      "velocity": 1,
      "hand": "right"
    },
    {
      "midi": 57,
      "time": 45.833,
      "duration": 0.278,
      "velocity": 1,
      "hand": "left"
    },
    {
      "midi": 56,
      "time": 46.111,
      "duration": 0.278,
      "velocity": 1,
      "hand": "left"
    },
    {
      "midi": 60,
      "time": 46.111,
      "duration": 0.278,
      "velocity": 1,
      "hand": "right"
    },
    {
      "midi": 64,
      "time": 46.111,
      "duration": 0.278,
      "velocity": 1,
      "hand": "right"
    },
    {
      "midi": 72,
      "time": 46.111,
      "duration": 0.278,
      "velocity": 1,
      "hand": "right"
    },
    {
      "midi": 48,
      "time": 46.389,
      "duration": 0.278,
      "velocity": 1,
      "hand": "left"
    },
    {
      "midi": 60,
      "time": 46.666,
      "duration": 0.278,
      "velocity": 1,
      "hand": "right"
    },
    {
      "midi": 67,
      "time": 46.666,
      "duration": 0.556,
      "velocity": 1,
      "hand": "right"
    },
    {
      "midi": 76,
      "time": 46.666,
      "duration": 0.556,
      "velocity": 1,
      "hand": "right"
    },
    {
      "midi": 59,
      "time": 46.944,
      "duration": 0.278,
      "velocity": 1,
      "hand": "left"
    },
    {
      "midi": 52,
      "time": 47.222,
      "duration": 0.278,
      "velocity": 1,
      "hand": "left"
    },
    {
      "midi": 69,
      "time": 47.222,
      "duration": 0.556,
      "velocity": 1,
      "hand": "right"
    },
    {
      "midi": 75,
      "time": 47.222,
      "duration": 0.556,
      "velocity": 1,
      "hand": "right"
    },
    {
      "midi": 78,
      "time": 47.222,
      "duration": 0.556,
      "velocity": 1,
      "hand": "right"
    },
    {
      "midi": 60,
      "time": 47.5,
      "duration": 0.278,
      "velocity": 1,
      "hand": "right"
    },
    {
      "midi": 59,
      "time": 47.778,
      "duration": 0.278,
      "velocity": 1,
      "hand": "left"
    },
    {
      "midi": 67,
      "time": 47.778,
      "duration": 0.278,
      "velocity": 1,
      "hand": "right"
    },
    {
      "midi": 76,
      "time": 47.778,
      "duration": 0.278,
      "velocity": 1,
      "hand": "right"
    },
    {
      "midi": 79,
      "time": 47.778,
      "duration": 0.278,
      "velocity": 1,
      "hand": "right"
    },
    {
      "midi": 52,
      "time": 48.055,
      "duration": 0.278,
      "velocity": 1,
      "hand": "left"
    },
    {
      "midi": 64,
      "time": 48.333,
      "duration": 0.278,
      "velocity": 1,
      "hand": "right"
    },
    {
      "midi": 71,
      "time": 48.333,
      "duration": 0.556,
      "velocity": 1,
      "hand": "right"
    },
    {
      "midi": 79,
      "time": 48.333,
      "duration": 0.556,
      "velocity": 1,
      "hand": "right"
    },
    {
      "midi": 63,
      "time": 48.611,
      "duration": 0.278,
      "velocity": 1,
      "hand": "right"
    },
    {
      "midi": 55,
      "time": 48.889,
      "duration": 0.278,
      "velocity": 1,
      "hand": "left"
    },
    {
      "midi": 72,
      "time": 48.889,
      "duration": 0.556,
      "velocity": 1,
      "hand": "right"
    },
    {
      "midi": 78,
      "time": 48.889,
      "duration": 0.556,
      "velocity": 1,
      "hand": "right"
    },
    {
      "midi": 81,
      "time": 48.889,
      "duration": 0.556,
      "velocity": 1,
      "hand": "right"
    },
    {
      "midi": 64,
      "time": 49.166,
      "duration": 0.278,
      "velocity": 1,
      "hand": "right"
    },
    {
      "midi": 63,
      "time": 49.444,
      "duration": 0.278,
      "velocity": 1,
      "hand": "right"
    },
    {
      "midi": 71,
      "time": 49.444,
      "duration": 0.278,
      "velocity": 1,
      "hand": "right"
    },
    {
      "midi": 79,
      "time": 49.444,
      "duration": 0.278,
      "velocity": 1,
      "hand": "right"
    },
    {
      "midi": 83,
      "time": 49.444,
      "duration": 0.278,
      "velocity": 1,
      "hand": "right"
    },
    {
      "midi": 55,
      "time": 49.722,
      "duration": 0.278,
      "velocity": 1,
      "hand": "left"
    },
    {
      "midi": 67,
      "time": 50,
      "duration": 0.278,
      "velocity": 1,
      "hand": "right"
    },
    {
      "midi": 74,
      "time": 50,
      "duration": 0.556,
      "velocity": 1,
      "hand": "right"
    },
    {
      "midi": 83,
      "time": 50,
      "duration": 0.556,
      "velocity": 1,
      "hand": "right"
    },
    {
      "midi": 66,
      "time": 50.278,
      "duration": 0.278,
      "velocity": 1,
      "hand": "right"
    },
    {
      "midi": 59,
      "time": 50.555,
      "duration": 0.278,
      "velocity": 1,
      "hand": "left"
    },
    {
      "midi": 73,
      "time": 50.555,
      "duration": 0.556,
      "velocity": 1,
      "hand": "right"
    },
    {
      "midi": 76,
      "time": 50.555,
      "duration": 0.556,
      "velocity": 1,
      "hand": "right"
    },
    {
      "midi": 82,
      "time": 50.555,
      "duration": 0.556,
      "velocity": 1,
      "hand": "right"
    },
    {
      "midi": 67,
      "time": 50.833,
      "duration": 0.278,
      "velocity": 1,
      "hand": "right"
    },
    {
      "midi": 66,
      "time": 51.111,
      "duration": 0.278,
      "velocity": 1,
      "hand": "right"
    },
    {
      "midi": 74,
      "time": 51.111,
      "duration": 0.278,
      "velocity": 1,
      "hand": "right"
    },
    {
      "midi": 83,
      "time": 51.111,
      "duration": 0.278,
      "velocity": 1,
      "hand": "right"
    },
    {
      "midi": 59,
      "time": 51.389,
      "duration": 0.278,
      "velocity": 1,
      "hand": "left"
    },
    {
      "midi": 71,
      "time": 51.666,
      "duration": 0.278,
      "velocity": 1,
      "hand": "right"
    },
    {
      "midi": 74,
      "time": 51.666,
      "duration": 0.556,
      "velocity": 1,
      "hand": "right"
    },
    {
      "midi": 78,
      "time": 51.666,
      "duration": 0.556,
      "velocity": 1,
      "hand": "right"
    },
    {
      "midi": 70,
      "time": 51.944,
      "duration": 0.278,
      "velocity": 1,
      "hand": "right"
    },
    {
      "midi": 62,
      "time": 52.222,
      "duration": 0.278,
      "velocity": 1,
      "hand": "right"
    },
    {
      "midi": 73,
      "time": 52.222,
      "duration": 0.556,
      "velocity": 1,
      "hand": "right"
    },
    {
      "midi": 76,
      "time": 52.222,
      "duration": 0.556,
      "velocity": 1,
      "hand": "right"
    },
    {
      "midi": 79,
      "time": 52.222,
      "duration": 0.556,
      "velocity": 1,
      "hand": "right"
    },
    {
      "midi": 71,
      "time": 52.5,
      "duration": 0.278,
      "velocity": 1,
      "hand": "right"
    },
    {
      "midi": 70,
      "time": 52.778,
      "duration": 0.278,
      "velocity": 1,
      "hand": "right"
    },
    {
      "midi": 74,
      "time": 52.778,
      "duration": 0.278,
      "velocity": 1,
      "hand": "right"
    },
    {
      "midi": 78,
      "time": 52.778,
      "duration": 0.278,
      "velocity": 1,
      "hand": "right"
    },
    {
      "midi": 62,
      "time": 53.055,
      "duration": 0.278,
      "velocity": 1,
      "hand": "right"
    },
    {
      "midi": 70,
      "time": 53.333,
      "duration": 0.278,
      "velocity": 1,
      "hand": "right"
    },
    {
      "midi": 74,
      "time": 53.333,
      "duration": 0.541,
      "velocity": 1,
      "hand": "right"
    },
    {
      "midi": 78,
      "time": 53.333,
      "duration": 0.541,
      "velocity": 1,
      "hand": "right"
    },
    {
      "midi": 62,
      "time": 53.611,
      "duration": 0.278,
      "velocity": 1,
      "hand": "right"
    },
    {
      "midi": 70,
      "time": 53.889,
      "duration": 0.278,
      "velocity": 1,
      "hand": "right"
    },
    {
      "midi": 74,
      "time": 53.889,
      "duration": 0.54,
      "velocity": 1,
      "hand": "right"
    },
    {
      "midi": 78,
      "time": 53.889,
      "duration": 0.54,
      "velocity": 1,
      "hand": "right"
    },
    {
      "midi": 62,
      "time": 54.166,
      "duration": 0.278,
      "velocity": 1,
      "hand": "right"
    },
    {
      "midi": 70,
      "time": 54.444,
      "duration": 0.278,
      "velocity": 1,
      "hand": "right"
    },
    {
      "midi": 74,
      "time": 54.444,
      "duration": 0.556,
      "velocity": 1,
      "hand": "right"
    },
    {
      "midi": 78,
      "time": 54.444,
      "duration": 0.541,
      "velocity": 1,
      "hand": "right"
    },
    {
      "midi": 62,
      "time": 54.722,
      "duration": 0.278,
      "velocity": 1,
      "hand": "right"
    },
    {
      "midi": 70,
      "time": 55,
      "duration": 0.278,
      "velocity": 1,
      "hand": "right"
    },
    {
      "midi": 76,
      "time": 55,
      "duration": 0.54,
      "velocity": 1,
      "hand": "right"
    },
    {
      "midi": 78,
      "time": 55,
      "duration": 0.54,
      "velocity": 1,
      "hand": "right"
    },
    {
      "midi": 61,
      "time": 55.278,
      "duration": 0.278,
      "velocity": 1,
      "hand": "right"
    },
    {
      "midi": 70,
      "time": 55.555,
      "duration": 0.278,
      "velocity": 1,
      "hand": "right"
    },
    {
      "midi": 76,
      "time": 55.555,
      "duration": 0.541,
      "velocity": 1,
      "hand": "right"
    },
    {
      "midi": 78,
      "time": 55.555,
      "duration": 0.541,
      "velocity": 1,
      "hand": "right"
    },
    {
      "midi": 61,
      "time": 55.833,
      "duration": 0.278,
      "velocity": 1,
      "hand": "right"
    },
    {
      "midi": 70,
      "time": 56.111,
      "duration": 0.278,
      "velocity": 1,
      "hand": "right"
    },
    {
      "midi": 76,
      "time": 56.111,
      "duration": 0.54,
      "velocity": 1,
      "hand": "right"
    },
    {
      "midi": 78,
      "time": 56.111,
      "duration": 0.54,
      "velocity": 1,
      "hand": "right"
    },
    {
      "midi": 61,
      "time": 56.389,
      "duration": 0.262,
      "velocity": 1,
      "hand": "right"
    },
    {
      "midi": 61,
      "time": 56.666,
      "duration": 0.278,
      "velocity": 1,
      "hand": "right"
    },
    {
      "midi": 70,
      "time": 56.666,
      "duration": 0.541,
      "velocity": 1,
      "hand": "right"
    },
    {
      "midi": 76,
      "time": 56.666,
      "duration": 0.541,
      "velocity": 1,
      "hand": "right"
    },
    {
      "midi": 78,
      "time": 56.666,
      "duration": 0.541,
      "velocity": 1,
      "hand": "right"
    },
    {
      "midi": 54,
      "time": 56.944,
      "duration": 0.278,
      "velocity": 1,
      "hand": "left"
    },
    {
      "midi": 61,
      "time": 57.222,
      "duration": 0.278,
      "velocity": 1,
      "hand": "right"
    },
    {
      "midi": 70,
      "time": 57.222,
      "duration": 0.541,
      "velocity": 1,
      "hand": "right"
    },
    {
      "midi": 76,
      "time": 57.222,
      "duration": 0.541,
      "velocity": 1,
      "hand": "right"
    },
    {
      "midi": 78,
      "time": 57.222,
      "duration": 0.541,
      "velocity": 1,
      "hand": "right"
    },
    {
      "midi": 54,
      "time": 57.5,
      "duration": 0.278,
      "velocity": 1,
      "hand": "left"
    },
    {
      "midi": 61,
      "time": 57.778,
      "duration": 0.278,
      "velocity": 1,
      "hand": "right"
    },
    {
      "midi": 70,
      "time": 57.778,
      "duration": 0.556,
      "velocity": 1,
      "hand": "right"
    },
    {
      "midi": 76,
      "time": 57.778,
      "duration": 0.556,
      "velocity": 1,
      "hand": "right"
    },
    {
      "midi": 78,
      "time": 57.778,
      "duration": 0.556,
      "velocity": 1,
      "hand": "right"
    },
    {
      "midi": 54,
      "time": 58.055,
      "duration": 0.278,
      "velocity": 1,
      "hand": "left"
    },
    {
      "midi": 49,
      "time": 58.333,
      "duration": 0.278,
      "velocity": 1,
      "hand": "left"
    },
    {
      "midi": 58,
      "time": 58.333,
      "duration": 0.541,
      "velocity": 1,
      "hand": "left"
    },
    {
      "midi": 64,
      "time": 58.333,
      "duration": 0.541,
      "velocity": 1,
      "hand": "right"
    },
    {
      "midi": 66,
      "time": 58.333,
      "duration": 0.541,
      "velocity": 1,
      "hand": "right"
    },
    {
      "midi": 42,
      "time": 58.611,
      "duration": 0.278,
      "velocity": 1,
      "hand": "left"
    },
    {
      "midi": 49,
      "time": 58.889,
      "duration": 0.278,
      "velocity": 1,
      "hand": "left"
    },
    {
      "midi": 58,
      "time": 58.889,
      "duration": 0.54,
      "velocity": 1,
      "hand": "left"
    },
    {
      "midi": 64,
      "time": 58.889,
      "duration": 0.54,
      "velocity": 1,
      "hand": "right"
    },
    {
      "midi": 66,
      "time": 58.889,
      "duration": 0.54,
      "velocity": 1,
      "hand": "right"
    },
    {
      "midi": 42,
      "time": 59.166,
      "duration": 0.278,
      "velocity": 1,
      "hand": "left"
    },
    {
      "midi": 49,
      "time": 59.444,
      "duration": 0.278,
      "velocity": 1,
      "hand": "left"
    },
    {
      "midi": 58,
      "time": 59.444,
      "duration": 0.556,
      "velocity": 1,
      "hand": "left"
    },
    {
      "midi": 64,
      "time": 59.444,
      "duration": 0.556,
      "velocity": 1,
      "hand": "right"
    },
    {
      "midi": 66,
      "time": 59.444,
      "duration": 0.541,
      "velocity": 1,
      "hand": "right"
    },
    {
      "midi": 42,
      "time": 59.722,
      "duration": 0.278,
      "velocity": 1,
      "hand": "left"
    },
    {
      "midi": 62,
      "time": 60,
      "duration": 0.278,
      "velocity": 1,
      "hand": "right"
    },
    {
      "midi": 66,
      "time": 60,
      "duration": 0.278,
      "velocity": 1,
      "hand": "right"
    },
    {
      "midi": 71,
      "time": 60,
      "duration": 0.278,
      "velocity": 1,
      "hand": "right"
    },
    {
      "midi": 61,
      "time": 60.278,
      "duration": 0.278,
      "velocity": 1,
      "hand": "right"
    },
    {
      "midi": 65,
      "time": 60.278,
      "duration": 0.278,
      "velocity": 1,
      "hand": "right"
    },
    {
      "midi": 62,
      "time": 60.555,
      "duration": 0.556,
      "velocity": 1,
      "hand": "right"
    },
    {
      "midi": 66,
      "time": 60.555,
      "duration": 0.556,
      "velocity": 1,
      "hand": "right"
    },
    {
      "midi": 71,
      "time": 60.555,
      "duration": 0.556,
      "velocity": 1,
      "hand": "right"
    },
    {
      "midi": 47,
      "time": 60.833,
      "duration": 0.278,
      "velocity": 1,
      "hand": "left"
    },
    {
      "midi": 61,
      "time": 61.111,
      "duration": 0.278,
      "velocity": 1,
      "hand": "right"
    },
    {
      "midi": 64,
      "time": 61.111,
      "duration": 0.278,
      "velocity": 1,
      "hand": "right"
    },
    {
      "midi": 70,
      "time": 61.111,
      "duration": 0.278,
      "velocity": 1,
      "hand": "right"
    },
    {
      "midi": 47,
      "time": 61.389,
      "duration": 0.278,
      "velocity": 1,
      "hand": "left"
    },
    {
      "midi": 59,
      "time": 61.666,
      "duration": 0.278,
      "velocity": 1,
      "hand": "left"
    },
    {
      "midi": 62,
      "time": 61.666,
      "duration": 0.278,
      "velocity": 1,
      "hand": "right"
    },
    {
      "midi": 67,
      "time": 61.666,
      "duration": 0.278,
      "velocity": 1,
      "hand": "right"
    },
    {
      "midi": 58,
      "time": 61.944,
      "duration": 0.278,
      "velocity": 1,
      "hand": "left"
    },
    {
      "midi": 61,
      "time": 61.944,
      "duration": 0.278,
      "velocity": 1,
      "hand": "right"
    },
    {
      "midi": 66,
      "time": 61.944,
      "duration": 0.278,
      "velocity": 1,
      "hand": "right"
    },
    {
      "midi": 59,
      "time": 62.222,
      "duration": 0.556,
      "velocity": 1,
      "hand": "left"
    },
    {
      "midi": 62,
      "time": 62.222,
      "duration": 0.556,
      "velocity": 1,
      "hand": "right"
    },
    {
      "midi": 67,
      "time": 62.222,
      "duration": 0.556,
      "velocity": 1,
      "hand": "right"
    },
    {
      "midi": 47,
      "time": 62.5,
      "duration": 0.278,
      "velocity": 1,
      "hand": "left"
    },
    {
      "midi": 58,
      "time": 62.778,
      "duration": 0.278,
      "velocity": 1,
      "hand": "left"
    },
    {
      "midi": 61,
      "time": 62.778,
      "duration": 0.278,
      "velocity": 1,
      "hand": "right"
    },
    {
      "midi": 66,
      "time": 62.778,
      "duration": 0.278,
      "velocity": 1,
      "hand": "right"
    },
    {
      "midi": 47,
      "time": 63.055,
      "duration": 0.278,
      "velocity": 1,
      "hand": "left"
    },
    {
      "midi": 57,
      "time": 63.333,
      "duration": 0.278,
      "velocity": 1,
      "hand": "left"
    },
    {
      "midi": 60,
      "time": 63.333,
      "duration": 0.278,
      "velocity": 1,
      "hand": "right"
    },
    {
      "midi": 66,
      "time": 63.333,
      "duration": 0.278,
      "velocity": 1,
      "hand": "right"
    },
    {
      "midi": 56,
      "time": 63.611,
      "duration": 0.278,
      "velocity": 1,
      "hand": "left"
    },
    {
      "midi": 59,
      "time": 63.611,
      "duration": 0.278,
      "velocity": 1,
      "hand": "left"
    },
    {
      "midi": 57,
      "time": 63.889,
      "duration": 0.556,
      "velocity": 1,
      "hand": "left"
    },
    {
      "midi": 60,
      "time": 63.889,
      "duration": 0.556,
      "velocity": 1,
      "hand": "right"
    },
    {
      "midi": 66,
      "time": 63.889,
      "duration": 0.556,
      "velocity": 1,
      "hand": "right"
    },
    {
      "midi": 47,
      "time": 64.166,
      "duration": 0.278,
      "velocity": 1,
      "hand": "left"
    },
    {
      "midi": 56,
      "time": 64.444,
      "duration": 0.278,
      "velocity": 1,
      "hand": "left"
    },
    {
      "midi": 59,
      "time": 64.444,
      "duration": 0.278,
      "velocity": 1,
      "hand": "left"
    },
    {
      "midi": 64,
      "time": 64.444,
      "duration": 0.278,
      "velocity": 1,
      "hand": "right"
    },
    {
      "midi": 47,
      "time": 64.722,
      "duration": 0.278,
      "velocity": 1,
      "hand": "left"
    },
    {
      "midi": 55,
      "time": 65,
      "duration": 0.278,
      "velocity": 1,
      "hand": "left"
    },
    {
      "midi": 58,
      "time": 65,
      "duration": 0.278,
      "velocity": 1,
      "hand": "left"
    },
    {
      "midi": 64,
      "time": 65,
      "duration": 0.278,
      "velocity": 1,
      "hand": "right"
    },
    {
      "midi": 47,
      "time": 65.278,
      "duration": 0.278,
      "velocity": 1,
      "hand": "left"
    },
    {
      "midi": 54,
      "time": 65.555,
      "duration": 0.278,
      "velocity": 1,
      "hand": "left"
    },
    {
      "midi": 58,
      "time": 65.555,
      "duration": 0.278,
      "velocity": 1,
      "hand": "left"
    },
    {
      "midi": 62,
      "time": 65.555,
      "duration": 0.278,
      "velocity": 1,
      "hand": "right"
    },
    {
      "midi": 47,
      "time": 65.833,
      "duration": 0.278,
      "velocity": 1,
      "hand": "left"
    },
    {
      "midi": 52,
      "time": 66.111,
      "duration": 0.278,
      "velocity": 1,
      "hand": "left"
    },
    {
      "midi": 58,
      "time": 66.111,
      "duration": 0.278,
      "velocity": 1,
      "hand": "left"
    },
    {
      "midi": 61,
      "time": 66.111,
      "duration": 0.278,
      "velocity": 1,
      "hand": "right"
    },
    {
      "midi": 47,
      "time": 66.389,
      "duration": 0.278,
      "velocity": 1,
      "hand": "left"
    },
    {
      "midi": 50,
      "time": 66.389,
      "duration": 0.278,
      "velocity": 1,
      "hand": "left"
    },
    {
      "midi": 53,
      "time": 66.666,
      "duration": 0.278,
      "velocity": 1,
      "hand": "left"
    },
    {
      "midi": 54,
      "time": 66.944,
      "duration": 0.278,
      "velocity": 1,
      "hand": "left"
    },
    {
      "midi": 55,
      "time": 67.222,
      "duration": 0.833,
      "velocity": 1,
      "hand": "left"
    },
    {
      "midi": 62,
      "time": 67.5,
      "duration": 0.278,
      "velocity": 1,
      "hand": "right"
    },
    {
      "midi": 71,
      "time": 67.5,
      "duration": 0.263,
      "velocity": 1,
      "hand": "right"
    },
    {
      "midi": 74,
      "time": 67.5,
      "duration": 0.263,
      "velocity": 1,
      "hand": "right"
    },
    {
      "midi": 64,
      "time": 67.778,
      "duration": 0.278,
      "velocity": 1,
      "hand": "right"
    },
    {
      "midi": 71,
      "time": 67.778,
      "duration": 0.262,
      "velocity": 1,
      "hand": "right"
    },
    {
      "midi": 74,
      "time": 67.778,
      "duration": 0.262,
      "velocity": 1,
      "hand": "right"
    },
    {
      "midi": 43,
      "time": 68.055,
      "duration": 0.278,
      "velocity": 1,
      "hand": "left"
    },
    {
      "midi": 65,
      "time": 68.055,
      "duration": 0.278,
      "velocity": 1,
      "hand": "right"
    },
    {
      "midi": 71,
      "time": 68.055,
      "duration": 0.278,
      "velocity": 1,
      "hand": "right"
    },
    {
      "midi": 74,
      "time": 68.055,
      "duration": 0.278,
      "velocity": 1,
      "hand": "right"
    },
    {
      "midi": 45,
      "time": 68.333,
      "duration": 0.278,
      "velocity": 1,
      "hand": "left"
    },
    {
      "midi": 43,
      "time": 68.611,
      "duration": 0.278,
      "velocity": 1,
      "hand": "left"
    },
    {
      "midi": 42,
      "time": 68.889,
      "duration": 0.833,
      "velocity": 1,
      "hand": "left"
    },
    {
      "midi": 56,
      "time": 69.166,
      "duration": 0.278,
      "velocity": 1,
      "hand": "left"
    },
    {
      "midi": 59,
      "time": 69.166,
      "duration": 0.278,
      "velocity": 1,
      "hand": "left"
    },
    {
      "midi": 66,
      "time": 69.166,
      "duration": 0.278,
      "velocity": 1,
      "hand": "right"
    },
    {
      "midi": 58,
      "time": 69.444,
      "duration": 0.278,
      "velocity": 1,
      "hand": "left"
    },
    {
      "midi": 61,
      "time": 69.444,
      "duration": 0.278,
      "velocity": 1,
      "hand": "right"
    },
    {
      "midi": 64,
      "time": 69.444,
      "duration": 0.278,
      "velocity": 1,
      "hand": "right"
    },
    {
      "midi": 47,
      "time": 69.722,
      "duration": 0.278,
      "velocity": 1,
      "hand": "left"
    },
    {
      "midi": 59,
      "time": 69.722,
      "duration": 0.278,
      "velocity": 1,
      "hand": "left"
    },
    {
      "midi": 62,
      "time": 69.722,
      "duration": 0.278,
      "velocity": 1,
      "hand": "right"
    },
    {
      "midi": 53,
      "time": 70,
      "duration": 0.278,
      "velocity": 1,
      "hand": "left"
    },
    {
      "midi": 54,
      "time": 70.278,
      "duration": 0.278,
      "velocity": 1,
      "hand": "left"
    },
    {
      "midi": 55,
      "time": 70.555,
      "duration": 0.833,
      "velocity": 1,
      "hand": "left"
    },
    {
      "midi": 62,
      "time": 70.833,
      "duration": 0.278,
      "velocity": 1,
      "hand": "right"
    },
    {
      "midi": 71,
      "time": 70.833,
      "duration": 0.263,
      "velocity": 1,
      "hand": "right"
    },
    {
      "midi": 74,
      "time": 70.833,
      "duration": 0.263,
      "velocity": 1,
      "hand": "right"
    },
    {
      "midi": 64,
      "time": 71.111,
      "duration": 0.278,
      "velocity": 1,
      "hand": "right"
    },
    {
      "midi": 71,
      "time": 71.111,
      "duration": 0.263,
      "velocity": 1,
      "hand": "right"
    },
    {
      "midi": 74,
      "time": 71.111,
      "duration": 0.263,
      "velocity": 1,
      "hand": "right"
    },
    {
      "midi": 43,
      "time": 71.389,
      "duration": 0.278,
      "velocity": 1,
      "hand": "left"
    },
    {
      "midi": 65,
      "time": 71.389,
      "duration": 0.278,
      "velocity": 1,
      "hand": "right"
    },
    {
      "midi": 71,
      "time": 71.389,
      "duration": 0.278,
      "velocity": 1,
      "hand": "right"
    },
    {
      "midi": 74,
      "time": 71.389,
      "duration": 0.278,
      "velocity": 1,
      "hand": "right"
    },
    {
      "midi": 45,
      "time": 71.666,
      "duration": 0.278,
      "velocity": 1,
      "hand": "left"
    },
    {
      "midi": 43,
      "time": 71.944,
      "duration": 0.278,
      "velocity": 1,
      "hand": "left"
    },
    {
      "midi": 42,
      "time": 72.222,
      "duration": 0.833,
      "velocity": 1,
      "hand": "left"
    },
    {
      "midi": 56,
      "time": 72.5,
      "duration": 0.278,
      "velocity": 1,
      "hand": "left"
    },
    {
      "midi": 59,
      "time": 72.5,
      "duration": 0.278,
      "velocity": 1,
      "hand": "left"
    },
    {
      "midi": 66,
      "time": 72.5,
      "duration": 0.278,
      "velocity": 1,
      "hand": "right"
    },
    {
      "midi": 58,
      "time": 72.778,
      "duration": 0.278,
      "velocity": 1,
      "hand": "left"
    },
    {
      "midi": 61,
      "time": 72.778,
      "duration": 0.278,
      "velocity": 1,
      "hand": "right"
    },
    {
      "midi": 64,
      "time": 72.778,
      "duration": 0.278,
      "velocity": 1,
      "hand": "right"
    },
    {
      "midi": 47,
      "time": 73.055,
      "duration": 0.278,
      "velocity": 1,
      "hand": "left"
    },
    {
      "midi": 59,
      "time": 73.055,
      "duration": 0.278,
      "velocity": 1,
      "hand": "left"
    },
    {
      "midi": 62,
      "time": 73.055,
      "duration": 0.278,
      "velocity": 1,
      "hand": "right"
    },
    {
      "midi": 52,
      "time": 73.333,
      "duration": 0.278,
      "velocity": 1,
      "hand": "left"
    },
    {
      "midi": 50,
      "time": 73.611,
      "duration": 0.278,
      "velocity": 1,
      "hand": "left"
    },
    {
      "midi": 49,
      "time": 73.889,
      "duration": 0.833,
      "velocity": 1,
      "hand": "left"
    },
    {
      "midi": 57,
      "time": 74.166,
      "duration": 0.263,
      "velocity": 1,
      "hand": "left"
    },
    {
      "midi": 64,
      "time": 74.166,
      "duration": 0.263,
      "velocity": 1,
      "hand": "right"
    },
    {
      "midi": 69,
      "time": 74.166,
      "duration": 0.278,
      "velocity": 1,
      "hand": "right"
    },
    {
      "midi": 57,
      "time": 74.444,
      "duration": 0.263,
      "velocity": 1,
      "hand": "left"
    },
    {
      "midi": 64,
      "time": 74.444,
      "duration": 0.278,
      "velocity": 1,
      "hand": "right"
    },
    {
      "midi": 67,
      "time": 74.444,
      "duration": 0.278,
      "velocity": 1,
      "hand": "right"
    },
    {
      "midi": 50,
      "time": 74.722,
      "duration": 0.278,
      "velocity": 1,
      "hand": "left"
    },
    {
      "midi": 57,
      "time": 74.722,
      "duration": 0.278,
      "velocity": 1,
      "hand": "left"
    },
    {
      "midi": 62,
      "time": 74.722,
      "duration": 0.278,
      "velocity": 1,
      "hand": "right"
    },
    {
      "midi": 66,
      "time": 74.722,
      "duration": 0.278,
      "velocity": 1,
      "hand": "right"
    },
    {
      "midi": 56,
      "time": 75,
      "duration": 0.278,
      "velocity": 1,
      "hand": "left"
    },
    {
      "midi": 54,
      "time": 75.278,
      "duration": 0.278,
      "velocity": 1,
      "hand": "left"
    },
    {
      "midi": 53,
      "time": 75.555,
      "duration": 0.833,
      "velocity": 1,
      "hand": "left"
    },
    {
      "midi": 61,
      "time": 75.833,
      "duration": 0.263,
      "velocity": 1,
      "hand": "right"
    },
    {
      "midi": 68,
      "time": 75.833,
      "duration": 0.263,
      "velocity": 1,
      "hand": "right"
    },
    {
      "midi": 73,
      "time": 75.833,
      "duration": 0.278,
      "velocity": 1,
      "hand": "right"
    },
    {
      "midi": 61,
      "time": 76.111,
      "duration": 0.263,
      "velocity": 1,
      "hand": "right"
    },
    {
      "midi": 68,
      "time": 76.111,
      "duration": 0.278,
      "velocity": 1,
      "hand": "right"
    },
    {
      "midi": 71,
      "time": 76.111,
      "duration": 0.278,
      "velocity": 1,
      "hand": "right"
    },
    {
      "midi": 54,
      "time": 76.389,
      "duration": 0.278,
      "velocity": 1,
      "hand": "left"
    },
    {
      "midi": 61,
      "time": 76.389,
      "duration": 0.278,
      "velocity": 1,
      "hand": "right"
    },
    {
      "midi": 66,
      "time": 76.389,
      "duration": 0.262,
      "velocity": 1,
      "hand": "right"
    },
    {
      "midi": 70,
      "time": 76.389,
      "duration": 0.278,
      "velocity": 1,
      "hand": "right"
    },
    {
      "midi": 58,
      "time": 76.666,
      "duration": 0.556,
      "velocity": 1,
      "hand": "left"
    },
    {
      "midi": 66,
      "time": 76.666,
      "duration": 0.541,
      "velocity": 1,
      "hand": "right"
    },
    {
      "midi": 73,
      "time": 76.666,
      "duration": 0.556,
      "velocity": 1,
      "hand": "right"
    },
    {
      "midi": 78,
      "time": 76.666,
      "duration": 0.278,
      "velocity": 1,
      "hand": "right"
    },
    {
      "midi": 76,
      "time": 76.944,
      "duration": 0.278,
      "velocity": 1,
      "hand": "right"
    },
    {
      "midi": 56,
      "time": 77.222,
      "duration": 0.278,
      "velocity": 1,
      "hand": "left"
    },
    {
      "midi": 66,
      "time": 77.222,
      "duration": 0.263,
      "velocity": 1,
      "hand": "right"
    },
    {
      "midi": 71,
      "time": 77.222,
      "duration": 0.278,
      "velocity": 1,
      "hand": "right"
    },
    {
      "midi": 74,
      "time": 77.222,
      "duration": 0.278,
      "velocity": 1,
      "hand": "right"
    },
    {
      "midi": 58,
      "time": 77.5,
      "duration": 0.556,
      "velocity": 1,
      "hand": "left"
    },
    {
      "midi": 66,
      "time": 77.5,
      "duration": 0.54,
      "velocity": 1,
      "hand": "right"
    },
    {
      "midi": 73,
      "time": 77.5,
      "duration": 0.556,
      "velocity": 1,
      "hand": "right"
    },
    {
      "midi": 78,
      "time": 77.5,
      "duration": 0.278,
      "velocity": 1,
      "hand": "right"
    },
    {
      "midi": 76,
      "time": 77.778,
      "duration": 0.278,
      "velocity": 1,
      "hand": "right"
    },
    {
      "midi": 56,
      "time": 78.055,
      "duration": 0.278,
      "velocity": 1,
      "hand": "left"
    },
    {
      "midi": 66,
      "time": 78.055,
      "duration": 0.263,
      "velocity": 1,
      "hand": "right"
    },
    {
      "midi": 71,
      "time": 78.055,
      "duration": 0.278,
      "velocity": 1,
      "hand": "right"
    },
    {
      "midi": 74,
      "time": 78.055,
      "duration": 0.278,
      "velocity": 1,
      "hand": "right"
    },
    {
      "midi": 58,
      "time": 78.333,
      "duration": 0.556,
      "velocity": 1,
      "hand": "left"
    },
    {
      "midi": 66,
      "time": 78.333,
      "duration": 0.541,
      "velocity": 1,
      "hand": "right"
    },
    {
      "midi": 73,
      "time": 78.333,
      "duration": 0.556,
      "velocity": 1,
      "hand": "right"
    },
    {
      "midi": 78,
      "time": 78.333,
      "duration": 0.278,
      "velocity": 1,
      "hand": "right"
    },
    {
      "midi": 76,
      "time": 78.611,
      "duration": 0.278,
      "velocity": 1,
      "hand": "right"
    },
    {
      "midi": 56,
      "time": 78.889,
      "duration": 0.278,
      "velocity": 1,
      "hand": "left"
    },
    {
      "midi": 66,
      "time": 78.889,
      "duration": 0.262,
      "velocity": 1,
      "hand": "right"
    },
    {
      "midi": 71,
      "time": 78.889,
      "duration": 0.278,
      "velocity": 1,
      "hand": "right"
    },
    {
      "midi": 74,
      "time": 78.889,
      "duration": 0.278,
      "velocity": 1,
      "hand": "right"
    },
    {
      "midi": 58,
      "time": 79.166,
      "duration": 0.278,
      "velocity": 1,
      "hand": "left"
    },
    {
      "midi": 66,
      "time": 79.166,
      "duration": 0.263,
      "velocity": 1,
      "hand": "right"
    },
    {
      "midi": 73,
      "time": 79.166,
      "duration": 0.278,
      "velocity": 1,
      "hand": "right"
    },
    {
      "midi": 78,
      "time": 79.166,
      "duration": 0.278,
      "velocity": 1,
      "hand": "right"
    },
    {
      "midi": 59,
      "time": 79.444,
      "duration": 0.263,
      "velocity": 1,
      "hand": "left"
    },
    {
      "midi": 66,
      "time": 79.444,
      "duration": 0.278,
      "velocity": 1,
      "hand": "right"
    },
    {
      "midi": 71,
      "time": 79.444,
      "duration": 0.263,
      "velocity": 1,
      "hand": "right"
    },
    {
      "midi": 74,
      "time": 79.444,
      "duration": 0.278,
      "velocity": 1,
      "hand": "right"
    },
    {
      "midi": 52,
      "time": 79.722,
      "duration": 0.818,
      "velocity": 1,
      "hand": "left"
    },
    {
      "midi": 59,
      "time": 79.722,
      "duration": 0.833,
      "velocity": 1,
      "hand": "left"
    },
    {
      "midi": 67,
      "time": 79.722,
      "duration": 0.833,
      "velocity": 1,
      "hand": "right"
    },
    {
      "midi": 71,
      "time": 79.722,
      "duration": 0.833,
      "velocity": 1,
      "hand": "right"
    },
    {
      "midi": 76,
      "time": 79.722,
      "duration": 0.833,
      "velocity": 1,
      "hand": "right"
    },
    {
      "midi": 79,
      "time": 79.722,
      "duration": 0.833,
      "velocity": 1,
      "hand": "right"
    },
    {
      "midi": 52,
      "time": 80.555,
      "duration": 0.556,
      "velocity": 1,
      "hand": "left"
    },
    {
      "midi": 55,
      "time": 80.694,
      "duration": 0.139,
      "velocity": 1,
      "hand": "left"
    },
    {
      "midi": 59,
      "time": 80.833,
      "duration": 0.139,
      "velocity": 1,
      "hand": "left"
    },
    {
      "midi": 61,
      "time": 80.972,
      "duration": 0.139,
      "velocity": 1,
      "hand": "right"
    },
    {
      "midi": 64,
      "time": 81.111,
      "duration": 0.139,
      "velocity": 1,
      "hand": "right"
    },
    {
      "midi": 67,
      "time": 81.25,
      "duration": 0.139,
      "velocity": 1,
      "hand": "right"
    },
    {
      "midi": 76,
      "time": 81.389,
      "duration": 0.139,
      "velocity": 1,
      "hand": "right"
    },
    {
      "midi": 73,
      "time": 81.528,
      "duration": 0.139,
      "velocity": 1,
      "hand": "right"
    },
    {
      "midi": 71,
      "time": 81.666,
      "duration": 0.139,
      "velocity": 1,
      "hand": "right"
    },
    {
      "midi": 67,
      "time": 81.805,
      "duration": 0.139,
      "velocity": 1,
      "hand": "right"
    },
    {
      "midi": 64,
      "time": 81.944,
      "duration": 0.139,
      "velocity": 1,
      "hand": "right"
    },
    {
      "midi": 61,
      "time": 82.083,
      "duration": 0.139,
      "velocity": 1,
      "hand": "right"
    },
    {
      "midi": 59,
      "time": 82.222,
      "duration": 0.139,
      "velocity": 1,
      "hand": "left"
    },
    {
      "midi": 55,
      "time": 82.361,
      "duration": 0.139,
      "velocity": 1,
      "hand": "left"
    },
    {
      "midi": 52,
      "time": 82.5,
      "duration": 0.139,
      "velocity": 1,
      "hand": "left"
    },
    {
      "midi": 49,
      "time": 82.639,
      "duration": 0.139,
      "velocity": 1,
      "hand": "left"
    },
    {
      "midi": 47,
      "time": 82.778,
      "duration": 0.139,
      "velocity": 1,
      "hand": "left"
    },
    {
      "midi": 43,
      "time": 82.916,
      "duration": 0.139,
      "velocity": 1,
      "hand": "left"
    },
    {
      "midi": 40,
      "time": 83.055,
      "duration": 0.278,
      "velocity": 1,
      "hand": "left"
    },
    {
      "midi": 49,
      "time": 83.333,
      "duration": 0.278,
      "velocity": 1,
      "hand": "left"
    },
    {
      "midi": 55,
      "time": 83.611,
      "duration": 0.278,
      "velocity": 1,
      "hand": "left"
    },
    {
      "midi": 59,
      "time": 83.611,
      "duration": 0.278,
      "velocity": 1,
      "hand": "left"
    },
    {
      "midi": 64,
      "time": 83.611,
      "duration": 0.278,
      "velocity": 1,
      "hand": "right"
    },
    {
      "midi": 52,
      "time": 83.889,
      "duration": 0.556,
      "velocity": 1,
      "hand": "left"
    },
    {
      "midi": 59,
      "time": 84.028,
      "duration": 0.139,
      "velocity": 1,
      "hand": "left"
    },
    {
      "midi": 61,
      "time": 84.166,
      "duration": 0.139,
      "velocity": 1,
      "hand": "right"
    },
    {
      "midi": 64,
      "time": 84.305,
      "duration": 0.139,
      "velocity": 1,
      "hand": "right"
    },
    {
      "midi": 67,
      "time": 84.444,
      "duration": 0.139,
      "velocity": 1,
      "hand": "right"
    },
    {
      "midi": 71,
      "time": 84.583,
      "duration": 0.139,
      "velocity": 1,
      "hand": "right"
    },
    {
      "midi": 79,
      "time": 84.722,
      "duration": 0.139,
      "velocity": 1,
      "hand": "right"
    },
    {
      "midi": 76,
      "time": 84.861,
      "duration": 0.139,
      "velocity": 1,
      "hand": "right"
    },
    {
      "midi": 73,
      "time": 85,
      "duration": 0.139,
      "velocity": 1,
      "hand": "right"
    },
    {
      "midi": 71,
      "time": 85.139,
      "duration": 0.139,
      "velocity": 1,
      "hand": "right"
    },
    {
      "midi": 67,
      "time": 85.278,
      "duration": 0.139,
      "velocity": 1,
      "hand": "right"
    },
    {
      "midi": 64,
      "time": 85.416,
      "duration": 0.139,
      "velocity": 1,
      "hand": "right"
    },
    {
      "midi": 61,
      "time": 85.555,
      "duration": 0.139,
      "velocity": 1,
      "hand": "right"
    },
    {
      "midi": 59,
      "time": 85.694,
      "duration": 0.139,
      "velocity": 1,
      "hand": "left"
    },
    {
      "midi": 55,
      "time": 85.833,
      "duration": 0.139,
      "velocity": 1,
      "hand": "left"
    },
    {
      "midi": 52,
      "time": 85.972,
      "duration": 0.139,
      "velocity": 1,
      "hand": "left"
    },
    {
      "midi": 49,
      "time": 86.111,
      "duration": 0.139,
      "velocity": 1,
      "hand": "left"
    },
    {
      "midi": 47,
      "time": 86.25,
      "duration": 0.139,
      "velocity": 1,
      "hand": "left"
    },
    {
      "midi": 43,
      "time": 86.389,
      "duration": 0.278,
      "velocity": 1,
      "hand": "left"
    },
    {
      "midi": 49,
      "time": 86.666,
      "duration": 0.278,
      "velocity": 1,
      "hand": "left"
    },
    {
      "midi": 59,
      "time": 86.944,
      "duration": 0.278,
      "velocity": 1,
      "hand": "left"
    },
    {
      "midi": 64,
      "time": 86.944,
      "duration": 0.278,
      "velocity": 1,
      "hand": "right"
    },
    {
      "midi": 67,
      "time": 86.944,
      "duration": 0.278,
      "velocity": 1,
      "hand": "right"
    },
    {
      "midi": 71,
      "time": 86.944,
      "duration": 0.278,
      "velocity": 1,
      "hand": "right"
    },
    {
      "midi": 42,
      "time": 87.222,
      "duration": 0.556,
      "velocity": 1,
      "hand": "left"
    },
    {
      "midi": 47,
      "time": 87.361,
      "duration": 0.139,
      "velocity": 1,
      "hand": "left"
    },
    {
      "midi": 50,
      "time": 87.5,
      "duration": 0.139,
      "velocity": 1,
      "hand": "left"
    },
    {
      "midi": 54,
      "time": 87.639,
      "duration": 0.139,
      "velocity": 1,
      "hand": "left"
    },
    {
      "midi": 59,
      "time": 87.778,
      "duration": 0.139,
      "velocity": 1,
      "hand": "left"
    },
    {
      "midi": 62,
      "time": 87.916,
      "duration": 0.139,
      "velocity": 1,
      "hand": "right"
    },
    {
      "midi": 54,
      "time": 88.055,
      "duration": 0.139,
      "velocity": 1,
      "hand": "left"
    },
    {
      "midi": 66,
      "time": 88.055,
      "duration": 0.139,
      "velocity": 1,
      "hand": "right"
    },
    {
      "midi": 59,
      "time": 88.194,
      "duration": 0.139,
      "velocity": 1,
      "hand": "left"
    },
    {
      "midi": 71,
      "time": 88.194,
      "duration": 0.139,
      "velocity": 1,
      "hand": "right"
    },
    {
      "midi": 62,
      "time": 88.333,
      "duration": 0.139,
      "velocity": 1,
      "hand": "right"
    },
    {
      "midi": 74,
      "time": 88.333,
      "duration": 0.139,
      "velocity": 1,
      "hand": "right"
    },
    {
      "midi": 66,
      "time": 88.472,
      "duration": 0.139,
      "velocity": 1,
      "hand": "right"
    },
    {
      "midi": 78,
      "time": 88.472,
      "duration": 0.139,
      "velocity": 1,
      "hand": "right"
    },
    {
      "midi": 71,
      "time": 88.611,
      "duration": 0.139,
      "velocity": 1,
      "hand": "right"
    },
    {
      "midi": 83,
      "time": 88.611,
      "duration": 0.139,
      "velocity": 1,
      "hand": "right"
    },
    {
      "midi": 74,
      "time": 88.75,
      "duration": 0.139,
      "velocity": 1,
      "hand": "right"
    },
    {
      "midi": 78,
      "time": 88.889,
      "duration": 0.278,
      "velocity": 1,
      "hand": "right"
    },
    {
      "midi": 64,
      "time": 89.166,
      "duration": 0.278,
      "velocity": 1,
      "hand": "right"
    },
    {
      "midi": 76,
      "time": 89.166,
      "duration": 0.263,
      "velocity": 1,
      "hand": "right"
    },
    {
      "midi": 79,
      "time": 89.166,
      "duration": 0.278,
      "velocity": 1,
      "hand": "right"
    },
    {
      "midi": 61,
      "time": 89.444,
      "duration": 0.278,
      "velocity": 1,
      "hand": "right"
    },
    {
      "midi": 73,
      "time": 89.444,
      "duration": 0.278,
      "velocity": 1,
      "hand": "right"
    },
    {
      "midi": 76,
      "time": 89.444,
      "duration": 0.278,
      "velocity": 1,
      "hand": "right"
    },
    {
      "midi": 62,
      "time": 89.722,
      "duration": 0.278,
      "velocity": 1,
      "hand": "right"
    },
    {
      "midi": 74,
      "time": 89.722,
      "duration": 0.263,
      "velocity": 1,
      "hand": "right"
    },
    {
      "midi": 78,
      "time": 89.722,
      "duration": 0.278,
      "velocity": 1,
      "hand": "right"
    },
    {
      "midi": 59,
      "time": 90,
      "duration": 0.278,
      "velocity": 1,
      "hand": "left"
    },
    {
      "midi": 71,
      "time": 90,
      "duration": 0.278,
      "velocity": 1,
      "hand": "right"
    },
    {
      "midi": 74,
      "time": 90,
      "duration": 0.278,
      "velocity": 1,
      "hand": "right"
    },
    {
      "midi": 61,
      "time": 90.278,
      "duration": 0.278,
      "velocity": 1,
      "hand": "right"
    },
    {
      "midi": 73,
      "time": 90.278,
      "duration": 0.262,
      "velocity": 1,
      "hand": "right"
    },
    {
      "midi": 76,
      "time": 90.278,
      "duration": 0.278,
      "velocity": 1,
      "hand": "right"
    },
    {
      "midi": 58,
      "time": 90.555,
      "duration": 0.278,
      "velocity": 1,
      "hand": "left"
    },
    {
      "midi": 70,
      "time": 90.555,
      "duration": 0.278,
      "velocity": 1,
      "hand": "right"
    },
    {
      "midi": 73,
      "time": 90.555,
      "duration": 0.278,
      "velocity": 1,
      "hand": "right"
    },
    {
      "midi": 59,
      "time": 90.833,
      "duration": 0.278,
      "velocity": 1,
      "hand": "left"
    },
    {
      "midi": 71,
      "time": 90.833,
      "duration": 0.278,
      "velocity": 1,
      "hand": "right"
    },
    {
      "midi": 74,
      "time": 90.833,
      "duration": 0.278,
      "velocity": 1,
      "hand": "right"
    },
    {
      "midi": 54,
      "time": 91.111,
      "duration": 0.278,
      "velocity": 1,
      "hand": "left"
    },
    {
      "midi": 66,
      "time": 91.111,
      "duration": 0.278,
      "velocity": 1,
      "hand": "right"
    },
    {
      "midi": 70,
      "time": 91.111,
      "duration": 0.278,
      "velocity": 1,
      "hand": "right"
    },
    {
      "midi": 82,
      "time": 91.111,
      "duration": 0.278,
      "velocity": 1,
      "hand": "right"
    },
    {
      "midi": 55,
      "time": 91.389,
      "duration": 0.278,
      "velocity": 1,
      "hand": "left"
    },
    {
      "midi": 67,
      "time": 91.389,
      "duration": 0.278,
      "velocity": 1,
      "hand": "right"
    },
    {
      "midi": 71,
      "time": 91.389,
      "duration": 0.278,
      "velocity": 1,
      "hand": "right"
    },
    {
      "midi": 83,
      "time": 91.389,
      "duration": 0.278,
      "velocity": 1,
      "hand": "right"
    },
    {
      "midi": 50,
      "time": 91.666,
      "duration": 0.278,
      "velocity": 1,
      "hand": "left"
    },
    {
      "midi": 62,
      "time": 91.666,
      "duration": 0.278,
      "velocity": 1,
      "hand": "right"
    },
    {
      "midi": 66,
      "time": 91.666,
      "duration": 0.278,
      "velocity": 1,
      "hand": "right"
    },
    {
      "midi": 78,
      "time": 91.666,
      "duration": 0.278,
      "velocity": 1,
      "hand": "right"
    },
    {
      "midi": 52,
      "time": 91.944,
      "duration": 0.278,
      "velocity": 1,
      "hand": "left"
    },
    {
      "midi": 64,
      "time": 91.944,
      "duration": 0.263,
      "velocity": 1,
      "hand": "right"
    },
    {
      "midi": 67,
      "time": 91.944,
      "duration": 0.278,
      "velocity": 1,
      "hand": "right"
    },
    {
      "midi": 79,
      "time": 91.944,
      "duration": 0.278,
      "velocity": 1,
      "hand": "right"
    },
    {
      "midi": 49,
      "time": 92.222,
      "duration": 0.278,
      "velocity": 1,
      "hand": "left"
    },
    {
      "midi": 61,
      "time": 92.222,
      "duration": 0.278,
      "velocity": 1,
      "hand": "right"
    },
    {
      "midi": 64,
      "time": 92.222,
      "duration": 0.278,
      "velocity": 1,
      "hand": "right"
    },
    {
      "midi": 76,
      "time": 92.222,
      "duration": 0.278,
      "velocity": 1,
      "hand": "right"
    },
    {
      "midi": 50,
      "time": 92.5,
      "duration": 0.278,
      "velocity": 1,
      "hand": "left"
    },
    {
      "midi": 62,
      "time": 92.5,
      "duration": 0.263,
      "velocity": 1,
      "hand": "right"
    },
    {
      "midi": 66,
      "time": 92.5,
      "duration": 0.278,
      "velocity": 1,
      "hand": "right"
    },
    {
      "midi": 78,
      "time": 92.5,
      "duration": 0.278,
      "velocity": 1,
      "hand": "right"
    },
    {
      "midi": 47,
      "time": 92.778,
      "duration": 0.278,
      "velocity": 1,
      "hand": "left"
    },
    {
      "midi": 59,
      "time": 92.778,
      "duration": 0.278,
      "velocity": 1,
      "hand": "left"
    },
    {
      "midi": 62,
      "time": 92.778,
      "duration": 0.278,
      "velocity": 1,
      "hand": "right"
    },
    {
      "midi": 74,
      "time": 92.778,
      "duration": 0.278,
      "velocity": 1,
      "hand": "right"
    },
    {
      "midi": 49,
      "time": 93.055,
      "duration": 0.278,
      "velocity": 1,
      "hand": "left"
    },
    {
      "midi": 61,
      "time": 93.055,
      "duration": 0.263,
      "velocity": 1,
      "hand": "right"
    },
    {
      "midi": 64,
      "time": 93.055,
      "duration": 0.278,
      "velocity": 1,
      "hand": "right"
    },
    {
      "midi": 76,
      "time": 93.055,
      "duration": 0.278,
      "velocity": 1,
      "hand": "right"
    },
    {
      "midi": 46,
      "time": 93.333,
      "duration": 0.278,
      "velocity": 1,
      "hand": "left"
    },
    {
      "midi": 58,
      "time": 93.333,
      "duration": 0.278,
      "velocity": 1,
      "hand": "left"
    },
    {
      "midi": 61,
      "time": 93.333,
      "duration": 0.278,
      "velocity": 1,
      "hand": "right"
    },
    {
      "midi": 73,
      "time": 93.333,
      "duration": 0.278,
      "velocity": 1,
      "hand": "right"
    },
    {
      "midi": 47,
      "time": 93.611,
      "duration": 0.278,
      "velocity": 1,
      "hand": "left"
    },
    {
      "midi": 59,
      "time": 93.611,
      "duration": 0.278,
      "velocity": 1,
      "hand": "left"
    },
    {
      "midi": 62,
      "time": 93.611,
      "duration": 0.278,
      "velocity": 1,
      "hand": "right"
    },
    {
      "midi": 74,
      "time": 93.611,
      "duration": 0.278,
      "velocity": 1,
      "hand": "right"
    },
    {
      "midi": 42,
      "time": 93.889,
      "duration": 0.278,
      "velocity": 1,
      "hand": "left"
    },
    {
      "midi": 54,
      "time": 93.889,
      "duration": 0.278,
      "velocity": 1,
      "hand": "left"
    },
    {
      "midi": 70,
      "time": 93.889,
      "duration": 0.278,
      "velocity": 1,
      "hand": "right"
    },
    {
      "midi": 43,
      "time": 94.166,
      "duration": 0.278,
      "velocity": 1,
      "hand": "left"
    },
    {
      "midi": 55,
      "time": 94.166,
      "duration": 0.278,
      "velocity": 1,
      "hand": "left"
    },
    {
      "midi": 71,
      "time": 94.166,
      "duration": 0.278,
      "velocity": 1,
      "hand": "right"
    },
    {
      "midi": 38,
      "time": 94.444,
      "duration": 0.278,
      "velocity": 1,
      "hand": "left"
    },
    {
      "midi": 50,
      "time": 94.444,
      "duration": 0.278,
      "velocity": 1,
      "hand": "left"
    },
    {
      "midi": 66,
      "time": 94.444,
      "duration": 0.278,
      "velocity": 1,
      "hand": "right"
    },
    {
      "midi": 40,
      "time": 94.722,
      "duration": 0.556,
      "velocity": 1,
      "hand": "left"
    },
    {
      "midi": 52,
      "time": 94.722,
      "duration": 0.556,
      "velocity": 1,
      "hand": "left"
    },
    {
      "midi": 67,
      "time": 94.722,
      "duration": 0.556,
      "velocity": 1,
      "hand": "right"
    },
    {
      "midi": 42,
      "time": 95.278,
      "duration": 0.278,
      "velocity": 1,
      "hand": "left"
    },
    {
      "midi": 54,
      "time": 95.278,
      "duration": 0.278,
      "velocity": 1,
      "hand": "left"
    },
    {
      "midi": 61,
      "time": 95.278,
      "duration": 0.278,
      "velocity": 1,
      "hand": "right"
    },
    {
      "midi": 64,
      "time": 95.278,
      "duration": 0.278,
      "velocity": 1,
      "hand": "right"
    },
    {
      "midi": 70,
      "time": 95.278,
      "duration": 0.278,
      "velocity": 1,
      "hand": "right"
    },
    {
      "midi": 47,
      "time": 95.555,
      "duration": 0.278,
      "velocity": 1,
      "hand": "left"
    },
    {
      "midi": 62,
      "time": 95.555,
      "duration": 0.278,
      "velocity": 1,
      "hand": "right"
    },
    {
      "midi": 66,
      "time": 95.555,
      "duration": 0.278,
      "velocity": 1,
      "hand": "right"
    },
    {
      "midi": 71,
      "time": 95.555,
      "duration": 0.278,
      "velocity": 1,
      "hand": "right"
    },
    {
      "midi": 52,
      "time": 95.833,
      "duration": 0.278,
      "velocity": 1,
      "hand": "left"
    },
    {
      "midi": 54,
      "time": 96.111,
      "duration": 0.278,
      "velocity": 1,
      "hand": "left"
    },
    {
      "midi": 55,
      "time": 96.389,
      "duration": 1.111,
      "velocity": 1,
      "hand": "left"
    },
    {
      "midi": 61,
      "time": 96.666,
      "duration": 0.278,
      "velocity": 1,
      "hand": "right"
    },
    {
      "midi": 71,
      "time": 96.666,
      "duration": 0.263,
      "velocity": 1,
      "hand": "right"
    },
    {
      "midi": 73,
      "time": 96.666,
      "duration": 0.263,
      "velocity": 1,
      "hand": "right"
    },
    {
      "midi": 62,
      "time": 96.944,
      "duration": 0.278,
      "velocity": 1,
      "hand": "right"
    },
    {
      "midi": 71,
      "time": 96.944,
      "duration": 0.263,
      "velocity": 1,
      "hand": "right"
    },
    {
      "midi": 73,
      "time": 96.944,
      "duration": 0.263,
      "velocity": 1,
      "hand": "right"
    },
    {
      "midi": 64,
      "time": 97.222,
      "duration": 0.278,
      "velocity": 1,
      "hand": "right"
    },
    {
      "midi": 71,
      "time": 97.222,
      "duration": 0.278,
      "velocity": 1,
      "hand": "right"
    },
    {
      "midi": 73,
      "time": 97.222,
      "duration": 0.278,
      "velocity": 1,
      "hand": "right"
    },
    {
      "midi": 45,
      "time": 97.5,
      "duration": 0.278,
      "velocity": 1,
      "hand": "left"
    },
    {
      "midi": 43,
      "time": 97.778,
      "duration": 0.278,
      "velocity": 1,
      "hand": "left"
    },
    {
      "midi": 42,
      "time": 98.055,
      "duration": 0.833,
      "velocity": 1,
      "hand": "left"
    },
    {
      "midi": 56,
      "time": 98.333,
      "duration": 0.278,
      "velocity": 1,
      "hand": "left"
    },
    {
      "midi": 59,
      "time": 98.333,
      "duration": 0.278,
      "velocity": 1,
      "hand": "left"
    },
    {
      "midi": 66,
      "time": 98.333,
      "duration": 0.263,
      "velocity": 1,
      "hand": "right"
    },
    {
      "midi": 58,
      "time": 98.611,
      "duration": 0.278,
      "velocity": 1,
      "hand": "left"
    },
    {
      "midi": 61,
      "time": 98.611,
      "duration": 0.278,
      "velocity": 1,
      "hand": "right"
    },
    {
      "midi": 66,
      "time": 98.611,
      "duration": 0.263,
      "velocity": 1,
      "hand": "right"
    },
    {
      "midi": 47,
      "time": 98.889,
      "duration": 0.278,
      "velocity": 1,
      "hand": "left"
    },
    {
      "midi": 59,
      "time": 98.889,
      "duration": 0.278,
      "velocity": 1,
      "hand": "left"
    },
    {
      "midi": 62,
      "time": 98.889,
      "duration": 0.278,
      "velocity": 1,
      "hand": "right"
    },
    {
      "midi": 66,
      "time": 98.889,
      "duration": 0.278,
      "velocity": 1,
      "hand": "right"
    },
    {
      "midi": 52,
      "time": 99.166,
      "duration": 0.278,
      "velocity": 1,
      "hand": "left"
    },
    {
      "midi": 54,
      "time": 99.444,
      "duration": 0.278,
      "velocity": 1,
      "hand": "left"
    },
    {
      "midi": 55,
      "time": 99.722,
      "duration": 1.111,
      "velocity": 1,
      "hand": "left"
    },
    {
      "midi": 61,
      "time": 100,
      "duration": 0.278,
      "velocity": 1,
      "hand": "right"
    },
    {
      "midi": 71,
      "time": 100,
      "duration": 0.263,
      "velocity": 1,
      "hand": "right"
    },
    {
      "midi": 73,
      "time": 100,
      "duration": 0.263,
      "velocity": 1,
      "hand": "right"
    },
    {
      "midi": 62,
      "time": 100.278,
      "duration": 0.278,
      "velocity": 1,
      "hand": "right"
    },
    {
      "midi": 71,
      "time": 100.278,
      "duration": 0.262,
      "velocity": 1,
      "hand": "right"
    },
    {
      "midi": 73,
      "time": 100.278,
      "duration": 0.262,
      "velocity": 1,
      "hand": "right"
    },
    {
      "midi": 64,
      "time": 100.555,
      "duration": 0.278,
      "velocity": 1,
      "hand": "right"
    },
    {
      "midi": 71,
      "time": 100.555,
      "duration": 0.278,
      "velocity": 1,
      "hand": "right"
    },
    {
      "midi": 73,
      "time": 100.555,
      "duration": 0.278,
      "velocity": 1,
      "hand": "right"
    },
    {
      "midi": 45,
      "time": 100.833,
      "duration": 0.278,
      "velocity": 1,
      "hand": "left"
    },
    {
      "midi": 43,
      "time": 101.111,
      "duration": 0.278,
      "velocity": 1,
      "hand": "left"
    },
    {
      "midi": 42,
      "time": 101.389,
      "duration": 0.833,
      "velocity": 1,
      "hand": "left"
    },
    {
      "midi": 56,
      "time": 101.666,
      "duration": 0.278,
      "velocity": 1,
      "hand": "left"
    },
    {
      "midi": 59,
      "time": 101.666,
      "duration": 0.278,
      "velocity": 1,
      "hand": "left"
    },
    {
      "midi": 66,
      "time": 101.666,
      "duration": 0.263,
      "velocity": 1,
      "hand": "right"
    },
    {
      "midi": 58,
      "time": 101.944,
      "duration": 0.278,
      "velocity": 1,
      "hand": "left"
    },
    {
      "midi": 61,
      "time": 101.944,
      "duration": 0.278,
      "velocity": 1,
      "hand": "right"
    },
    {
      "midi": 66,
      "time": 101.944,
      "duration": 0.263,
      "velocity": 1,
      "hand": "right"
    },
    {
      "midi": 47,
      "time": 102.222,
      "duration": 0.278,
      "velocity": 1,
      "hand": "left"
    },
    {
      "midi": 59,
      "time": 102.222,
      "duration": 0.263,
      "velocity": 1,
      "hand": "left"
    },
    {
      "midi": 62,
      "time": 102.222,
      "duration": 0.263,
      "velocity": 1,
      "hand": "right"
    },
    {
      "midi": 66,
      "time": 102.222,
      "duration": 0.263,
      "velocity": 1,
      "hand": "right"
    },
    {
      "midi": 50,
      "time": 102.5,
      "duration": 0.263,
      "velocity": 1,
      "hand": "left"
    },
    {
      "midi": 54,
      "time": 102.5,
      "duration": 0.263,
      "velocity": 1,
      "hand": "left"
    },
    {
      "midi": 62,
      "time": 102.5,
      "duration": 0.263,
      "velocity": 1,
      "hand": "right"
    },
    {
      "midi": 66,
      "time": 102.5,
      "duration": 0.263,
      "velocity": 1,
      "hand": "right"
    },
    {
      "midi": 71,
      "time": 102.5,
      "duration": 0.278,
      "velocity": 1,
      "hand": "right"
    },
    {
      "midi": 50,
      "time": 102.778,
      "duration": 0.262,
      "velocity": 1,
      "hand": "left"
    },
    {
      "midi": 54,
      "time": 102.778,
      "duration": 0.262,
      "velocity": 1,
      "hand": "left"
    },
    {
      "midi": 62,
      "time": 102.778,
      "duration": 0.262,
      "velocity": 1,
      "hand": "right"
    },
    {
      "midi": 66,
      "time": 102.778,
      "duration": 0.262,
      "velocity": 1,
      "hand": "right"
    },
    {
      "midi": 70,
      "time": 102.778,
      "duration": 0.278,
      "velocity": 1,
      "hand": "right"
    },
    {
      "midi": 50,
      "time": 103.055,
      "duration": 0.278,
      "velocity": 1,
      "hand": "left"
    },
    {
      "midi": 54,
      "time": 103.055,
      "duration": 0.263,
      "velocity": 1,
      "hand": "left"
    },
    {
      "midi": 62,
      "time": 103.055,
      "duration": 0.263,
      "velocity": 1,
      "hand": "right"
    },
    {
      "midi": 66,
      "time": 103.055,
      "duration": 0.263,
      "velocity": 1,
      "hand": "right"
    },
    {
      "midi": 71,
      "time": 103.055,
      "duration": 0.263,
      "velocity": 1,
      "hand": "right"
    },
    {
      "midi": 54,
      "time": 103.333,
      "duration": 0.263,
      "velocity": 1,
      "hand": "left"
    },
    {
      "midi": 59,
      "time": 103.333,
      "duration": 0.263,
      "velocity": 1,
      "hand": "left"
    },
    {
      "midi": 62,
      "time": 103.333,
      "duration": 0.278,
      "velocity": 1,
      "hand": "right"
    },
    {
      "midi": 66,
      "time": 103.333,
      "duration": 0.263,
      "velocity": 1,
      "hand": "right"
    },
    {
      "midi": 71,
      "time": 103.333,
      "duration": 0.263,
      "velocity": 1,
      "hand": "right"
    },
    {
      "midi": 74,
      "time": 103.333,
      "duration": 0.278,
      "velocity": 1,
      "hand": "right"
    },
    {
      "midi": 54,
      "time": 103.611,
      "duration": 0.263,
      "velocity": 1,
      "hand": "left"
    },
    {
      "midi": 59,
      "time": 103.611,
      "duration": 0.263,
      "velocity": 1,
      "hand": "left"
    },
    {
      "midi": 61,
      "time": 103.611,
      "duration": 0.278,
      "velocity": 1,
      "hand": "right"
    },
    {
      "midi": 66,
      "time": 103.611,
      "duration": 0.263,
      "velocity": 1,
      "hand": "right"
    },
    {
      "midi": 71,
      "time": 103.611,
      "duration": 0.263,
      "velocity": 1,
      "hand": "right"
    },
    {
      "midi": 73,
      "time": 103.611,
      "duration": 0.278,
      "velocity": 1,
      "hand": "right"
    },
    {
      "midi": 54,
      "time": 103.889,
      "duration": 0.278,
      "velocity": 1,
      "hand": "left"
    },
    {
      "midi": 59,
      "time": 103.889,
      "duration": 0.262,
      "velocity": 1,
      "hand": "left"
    },
    {
      "midi": 62,
      "time": 103.889,
      "duration": 0.262,
      "velocity": 1,
      "hand": "right"
    },
    {
      "midi": 66,
      "time": 103.889,
      "duration": 0.262,
      "velocity": 1,
      "hand": "right"
    },
    {
      "midi": 71,
      "time": 103.889,
      "duration": 0.262,
      "velocity": 1,
      "hand": "right"
    },
    {
      "midi": 74,
      "time": 103.889,
      "duration": 0.262,
      "velocity": 1,
      "hand": "right"
    },
    {
      "midi": 59,
      "time": 104.166,
      "duration": 0.263,
      "velocity": 1,
      "hand": "left"
    },
    {
      "midi": 66,
      "time": 104.166,
      "duration": 0.278,
      "velocity": 1,
      "hand": "right"
    },
    {
      "midi": 71,
      "time": 104.166,
      "duration": 0.263,
      "velocity": 1,
      "hand": "right"
    },
    {
      "midi": 74,
      "time": 104.166,
      "duration": 0.263,
      "velocity": 1,
      "hand": "right"
    },
    {
      "midi": 78,
      "time": 104.166,
      "duration": 0.278,
      "velocity": 1,
      "hand": "right"
    },
    {
      "midi": 59,
      "time": 104.444,
      "duration": 0.263,
      "velocity": 1,
      "hand": "left"
    },
    {
      "midi": 65,
      "time": 104.444,
      "duration": 0.278,
      "velocity": 1,
      "hand": "right"
    },
    {
      "midi": 71,
      "time": 104.444,
      "duration": 0.263,
      "velocity": 1,
      "hand": "right"
    },
    {
      "midi": 74,
      "time": 104.444,
      "duration": 0.263,
      "velocity": 1,
      "hand": "right"
    },
    {
      "midi": 77,
      "time": 104.444,
      "duration": 0.278,
      "velocity": 1,
      "hand": "right"
    },
    {
      "midi": 59,
      "time": 104.722,
      "duration": 0.278,
      "velocity": 1,
      "hand": "left"
    },
    {
      "midi": 66,
      "time": 104.722,
      "duration": 0.263,
      "velocity": 1,
      "hand": "right"
    },
    {
      "midi": 71,
      "time": 104.722,
      "duration": 0.263,
      "velocity": 1,
      "hand": "right"
    },
    {
      "midi": 74,
      "time": 104.722,
      "duration": 0.263,
      "velocity": 1,
      "hand": "right"
    },
    {
      "midi": 78,
      "time": 104.722,
      "duration": 0.263,
      "velocity": 1,
      "hand": "right"
    },
    {
      "midi": 71,
      "time": 105,
      "duration": 0.278,
      "velocity": 1,
      "hand": "right"
    },
    {
      "midi": 74,
      "time": 105,
      "duration": 0.263,
      "velocity": 1,
      "hand": "right"
    },
    {
      "midi": 78,
      "time": 105,
      "duration": 0.263,
      "velocity": 1,
      "hand": "right"
    },
    {
      "midi": 83,
      "time": 105,
      "duration": 0.278,
      "velocity": 1,
      "hand": "right"
    },
    {
      "midi": 70,
      "time": 105.278,
      "duration": 0.278,
      "velocity": 1,
      "hand": "right"
    },
    {
      "midi": 74,
      "time": 105.278,
      "duration": 0.262,
      "velocity": 1,
      "hand": "right"
    },
    {
      "midi": 78,
      "time": 105.278,
      "duration": 0.262,
      "velocity": 1,
      "hand": "right"
    },
    {
      "midi": 82,
      "time": 105.278,
      "duration": 0.278,
      "velocity": 1,
      "hand": "right"
    },
    {
      "midi": 71,
      "time": 105.555,
      "duration": 0.263,
      "velocity": 1,
      "hand": "right"
    },
    {
      "midi": 74,
      "time": 105.555,
      "duration": 0.263,
      "velocity": 1,
      "hand": "right"
    },
    {
      "midi": 78,
      "time": 105.555,
      "duration": 0.263,
      "velocity": 1,
      "hand": "right"
    },
    {
      "midi": 83,
      "time": 105.555,
      "duration": 0.263,
      "velocity": 1,
      "hand": "right"
    },
    {
      "midi": 71,
      "time": 105.833,
      "duration": 0.263,
      "velocity": 1,
      "hand": "right"
    },
    {
      "midi": 74,
      "time": 105.833,
      "duration": 0.278,
      "velocity": 1,
      "hand": "right"
    },
    {
      "midi": 78,
      "time": 105.833,
      "duration": 0.263,
      "velocity": 1,
      "hand": "right"
    },
    {
      "midi": 83,
      "time": 105.833,
      "duration": 0.263,
      "velocity": 1,
      "hand": "right"
    },
    {
      "midi": 71,
      "time": 106.111,
      "duration": 0.263,
      "velocity": 1,
      "hand": "right"
    },
    {
      "midi": 73,
      "time": 106.111,
      "duration": 0.278,
      "velocity": 1,
      "hand": "right"
    },
    {
      "midi": 78,
      "time": 106.111,
      "duration": 0.263,
      "velocity": 1,
      "hand": "right"
    },
    {
      "midi": 83,
      "time": 106.111,
      "duration": 0.263,
      "velocity": 1,
      "hand": "right"
    },
    {
      "midi": 71,
      "time": 106.389,
      "duration": 0.262,
      "velocity": 1,
      "hand": "right"
    },
    {
      "midi": 74,
      "time": 106.389,
      "duration": 0.262,
      "velocity": 1,
      "hand": "right"
    },
    {
      "midi": 78,
      "time": 106.389,
      "duration": 0.262,
      "velocity": 1,
      "hand": "right"
    },
    {
      "midi": 83,
      "time": 106.389,
      "duration": 0.262,
      "velocity": 1,
      "hand": "right"
    },
    {
      "midi": 71,
      "time": 106.666,
      "duration": 0.263,
      "velocity": 1,
      "hand": "right"
    },
    {
      "midi": 74,
      "time": 106.666,
      "duration": 0.263,
      "velocity": 1,
      "hand": "right"
    },
    {
      "midi": 78,
      "time": 106.666,
      "duration": 0.278,
      "velocity": 1,
      "hand": "right"
    },
    {
      "midi": 83,
      "time": 106.666,
      "duration": 0.263,
      "velocity": 1,
      "hand": "right"
    },
    {
      "midi": 71,
      "time": 106.944,
      "duration": 0.263,
      "velocity": 1,
      "hand": "right"
    },
    {
      "midi": 74,
      "time": 106.944,
      "duration": 0.263,
      "velocity": 1,
      "hand": "right"
    },
    {
      "midi": 77,
      "time": 106.944,
      "duration": 0.278,
      "velocity": 1,
      "hand": "right"
    },
    {
      "midi": 83,
      "time": 106.944,
      "duration": 0.263,
      "velocity": 1,
      "hand": "right"
    },
    {
      "midi": 71,
      "time": 107.222,
      "duration": 0.263,
      "velocity": 1,
      "hand": "right"
    },
    {
      "midi": 74,
      "time": 107.222,
      "duration": 0.263,
      "velocity": 1,
      "hand": "right"
    },
    {
      "midi": 78,
      "time": 107.222,
      "duration": 0.263,
      "velocity": 1,
      "hand": "right"
    },
    {
      "midi": 83,
      "time": 107.222,
      "duration": 0.263,
      "velocity": 1,
      "hand": "right"
    },
    {
      "midi": 71,
      "time": 107.5,
      "duration": 0.263,
      "velocity": 1,
      "hand": "right"
    },
    {
      "midi": 74,
      "time": 107.5,
      "duration": 0.263,
      "velocity": 1,
      "hand": "right"
    },
    {
      "midi": 78,
      "time": 107.5,
      "duration": 0.263,
      "velocity": 1,
      "hand": "right"
    },
    {
      "midi": 83,
      "time": 107.5,
      "duration": 0.278,
      "velocity": 1,
      "hand": "right"
    },
    {
      "midi": 71,
      "time": 107.778,
      "duration": 0.262,
      "velocity": 1,
      "hand": "right"
    },
    {
      "midi": 74,
      "time": 107.778,
      "duration": 0.262,
      "velocity": 1,
      "hand": "right"
    },
    {
      "midi": 78,
      "time": 107.778,
      "duration": 0.262,
      "velocity": 1,
      "hand": "right"
    },
    {
      "midi": 82,
      "time": 107.778,
      "duration": 0.278,
      "velocity": 1,
      "hand": "right"
    },
    {
      "midi": 71,
      "time": 108.055,
      "duration": 0.263,
      "velocity": 1,
      "hand": "right"
    },
    {
      "midi": 74,
      "time": 108.055,
      "duration": 0.263,
      "velocity": 1,
      "hand": "right"
    },
    {
      "midi": 78,
      "time": 108.055,
      "duration": 0.263,
      "velocity": 1,
      "hand": "right"
    },
    {
      "midi": 83,
      "time": 108.055,
      "duration": 0.263,
      "velocity": 1,
      "hand": "right"
    },
    {
      "midi": 71,
      "time": 108.333,
      "duration": 0.263,
      "velocity": 1,
      "hand": "right"
    },
    {
      "midi": 74,
      "time": 108.333,
      "duration": 0.263,
      "velocity": 1,
      "hand": "right"
    },
    {
      "midi": 78,
      "time": 108.333,
      "duration": 0.263,
      "velocity": 1,
      "hand": "right"
    },
    {
      "midi": 83,
      "time": 108.333,
      "duration": 0.278,
      "velocity": 1,
      "hand": "right"
    },
    {
      "midi": 71,
      "time": 108.611,
      "duration": 0.263,
      "velocity": 1,
      "hand": "right"
    },
    {
      "midi": 74,
      "time": 108.611,
      "duration": 0.263,
      "velocity": 1,
      "hand": "right"
    },
    {
      "midi": 78,
      "time": 108.611,
      "duration": 0.263,
      "velocity": 1,
      "hand": "right"
    },
    {
      "midi": 82,
      "time": 108.611,
      "duration": 0.278,
      "velocity": 1,
      "hand": "right"
    },
    {
      "midi": 71,
      "time": 108.889,
      "duration": 0.278,
      "velocity": 1,
      "hand": "right"
    },
    {
      "midi": 74,
      "time": 108.889,
      "duration": 0.278,
      "velocity": 1,
      "hand": "right"
    },
    {
      "midi": 78,
      "time": 108.889,
      "duration": 0.278,
      "velocity": 1,
      "hand": "right"
    },
    {
      "midi": 83,
      "time": 108.889,
      "duration": 0.278,
      "velocity": 1,
      "hand": "right"
    },
    {
      "midi": 59,
      "time": 109.722,
      "duration": 0.278,
      "velocity": 1,
      "hand": "left"
    },
    {
      "midi": 71,
      "time": 109.722,
      "duration": 0.278,
      "velocity": 1,
      "hand": "right"
    },
    {
      "midi": 74,
      "time": 109.722,
      "duration": 0.278,
      "velocity": 1,
      "hand": "right"
    },
    {
      "midi": 78,
      "time": 109.722,
      "duration": 0.278,
      "velocity": 1,
      "hand": "right"
    },
    {
      "midi": 83,
      "time": 109.722,
      "duration": 0.278,
      "velocity": 1,
      "hand": "right"
    },
    {
      "midi": 47,
      "time": 110.555,
      "duration": 0.278,
      "velocity": 1,
      "hand": "left"
    },
    {
      "midi": 54,
      "time": 110.555,
      "duration": 0.278,
      "velocity": 1,
      "hand": "left"
    },
    {
      "midi": 62,
      "time": 110.555,
      "duration": 0.278,
      "velocity": 1,
      "hand": "right"
    },
    {
      "midi": 66,
      "time": 110.555,
      "duration": 0.278,
      "velocity": 1,
      "hand": "right"
    },
    {
      "midi": 71,
      "time": 110.555,
      "duration": 0.278,
      "velocity": 1,
      "hand": "right"
    },
    {
      "midi": 42,
      "time": 111.389,
      "duration": 0.278,
      "velocity": 1,
      "hand": "left"
    },
    {
      "midi": 47,
      "time": 111.389,
      "duration": 0.278,
      "velocity": 1,
      "hand": "left"
    },
    {
      "midi": 50,
      "time": 112.222,
      "duration": 3.333,
      "velocity": 1,
      "hand": "left"
    },
    {
      "midi": 57,
      "time": 112.222,
      "duration": 3.318,
      "velocity": 1,
      "hand": "left"
    },
    {
      "midi": 66,
      "time": 112.222,
      "duration": 3.333,
      "velocity": 1,
      "hand": "right"
    },
    {
      "midi": 74,
      "time": 112.222,
      "duration": 0.833,
      "velocity": 1,
      "hand": "right"
    },
    {
      "midi": 73,
      "time": 113.055,
      "duration": 0.833,
      "velocity": 1,
      "hand": "right"
    },
    {
      "midi": 71,
      "time": 113.889,
      "duration": 0.556,
      "velocity": 1,
      "hand": "right"
    },
    {
      "midi": 69,
      "time": 114.444,
      "duration": 0.263,
      "velocity": 1,
      "hand": "right"
    },
    {
      "midi": 69,
      "time": 114.722,
      "duration": 0.833,
      "velocity": 1,
      "hand": "right"
    },
    {
      "midi": 49,
      "time": 115.555,
      "duration": 1.667,
      "velocity": 1,
      "hand": "left"
    },
    {
      "midi": 57,
      "time": 115.555,
      "duration": 3.333,
      "velocity": 1,
      "hand": "left"
    },
    {
      "midi": 64,
      "time": 115.555,
      "duration": 1.667,
      "velocity": 1,
      "hand": "right"
    },
    {
      "midi": 71,
      "time": 115.555,
      "duration": 0.833,
      "velocity": 1,
      "hand": "right"
    },
    {
      "midi": 69,
      "time": 116.389,
      "duration": 0.833,
      "velocity": 1,
      "hand": "right"
    },
    {
      "midi": 48,
      "time": 117.222,
      "duration": 1.667,
      "velocity": 1,
      "hand": "left"
    },
    {
      "midi": 63,
      "time": 117.222,
      "duration": 1.667,
      "velocity": 1,
      "hand": "right"
    },
    {
      "midi": 67,
      "time": 117.222,
      "duration": 0.556,
      "velocity": 1,
      "hand": "right"
    },
    {
      "midi": 66,
      "time": 117.778,
      "duration": 0.262,
      "velocity": 1,
      "hand": "right"
    },
    {
      "midi": 66,
      "time": 118.055,
      "duration": 0.833,
      "velocity": 1,
      "hand": "right"
    },
    {
      "midi": 47,
      "time": 118.889,
      "duration": 3.333,
      "velocity": 1,
      "hand": "left"
    },
    {
      "midi": 54,
      "time": 118.889,
      "duration": 1.667,
      "velocity": 1,
      "hand": "left"
    },
    {
      "midi": 62,
      "time": 118.889,
      "duration": 0.818,
      "velocity": 1,
      "hand": "right"
    },
    {
      "midi": 69,
      "time": 118.889,
      "duration": 0.833,
      "velocity": 1,
      "hand": "right"
    },
    {
      "midi": 62,
      "time": 119.722,
      "duration": 0.818,
      "velocity": 1,
      "hand": "right"
    },
    {
      "midi": 56,
      "time": 120.555,
      "duration": 1.667,
      "velocity": 1,
      "hand": "left"
    },
    {
      "midi": 62,
      "time": 120.555,
      "duration": 1.667,
      "velocity": 1,
      "hand": "right"
    },
    {
      "midi": 66,
      "time": 120.555,
      "duration": 0.556,
      "velocity": 1,
      "hand": "right"
    },
    {
      "midi": 64,
      "time": 121.111,
      "duration": 0.263,
      "velocity": 1,
      "hand": "right"
    },
    {
      "midi": 64,
      "time": 121.389,
      "duration": 0.833,
      "velocity": 1,
      "hand": "right"
    },
    {
      "midi": 44,
      "time": 122.222,
      "duration": 1.667,
      "velocity": 1,
      "hand": "left"
    },
    {
      "midi": 50,
      "time": 122.222,
      "duration": 1.667,
      "velocity": 1,
      "hand": "left"
    },
    {
      "midi": 66,
      "time": 122.222,
      "duration": 0.833,
      "velocity": 1,
      "hand": "right"
    },
    {
      "midi": 59,
      "time": 123.055,
      "duration": 0.833,
      "velocity": 1,
      "hand": "left"
    },
    {
      "midi": 43,
      "time": 123.889,
      "duration": 1.667,
      "velocity": 1,
      "hand": "left"
    },
    {
      "midi": 52,
      "time": 123.889,
      "duration": 1.667,
      "velocity": 1,
      "hand": "left"
    },
    {
      "midi": 62,
      "time": 123.889,
      "duration": 0.556,
      "velocity": 1,
      "hand": "right"
    },
    {
      "midi": 61,
      "time": 124.444,
      "duration": 0.263,
      "velocity": 1,
      "hand": "right"
    },
    {
      "midi": 61,
      "time": 124.722,
      "duration": 0.833,
      "velocity": 1,
      "hand": "right"
    },
    {
      "midi": 42,
      "time": 125.555,
      "duration": 1.667,
      "velocity": 1,
      "hand": "left"
    },
    {
      "midi": 45,
      "time": 125.555,
      "duration": 0.833,
      "velocity": 1,
      "hand": "left"
    },
    {
      "midi": 62,
      "time": 125.555,
      "duration": 1.667,
      "velocity": 1,
      "hand": "right"
    },
    {
      "midi": 69,
      "time": 125.555,
      "duration": 1.667,
      "velocity": 1,
      "hand": "right"
    },
    {
      "midi": 47,
      "time": 126.389,
      "duration": 0.833,
      "velocity": 1,
      "hand": "left"
    },
    {
      "midi": 45,
      "time": 127.222,
      "duration": 1.667,
      "velocity": 1,
      "hand": "left"
    },
    {
      "midi": 49,
      "time": 127.222,
      "duration": 0.556,
      "velocity": 1,
      "hand": "left"
    },
    {
      "midi": 50,
      "time": 127.778,
      "duration": 0.262,
      "velocity": 1,
      "hand": "left"
    },
    {
      "midi": 50,
      "time": 128.055,
      "duration": 0.833,
      "velocity": 1,
      "hand": "left"
    },
    {
      "midi": 44,
      "time": 128.889,
      "duration": 1.667,
      "velocity": 1,
      "hand": "left"
    },
    {
      "midi": 52,
      "time": 128.889,
      "duration": 0.833,
      "velocity": 1,
      "hand": "left"
    },
    {
      "midi": 62,
      "time": 128.889,
      "duration": 1.667,
      "velocity": 1,
      "hand": "right"
    },
    {
      "midi": 71,
      "time": 128.889,
      "duration": 1.667,
      "velocity": 1,
      "hand": "right"
    },
    {
      "midi": 74,
      "time": 128.889,
      "duration": 1.667,
      "velocity": 1,
      "hand": "right"
    },
    {
      "midi": 54,
      "time": 129.722,
      "duration": 0.833,
      "velocity": 1,
      "hand": "left"
    },
    {
      "midi": 50,
      "time": 130.555,
      "duration": 1.667,
      "velocity": 1,
      "hand": "left"
    },
    {
      "midi": 55,
      "time": 130.555,
      "duration": 0.556,
      "velocity": 1,
      "hand": "left"
    },
    {
      "midi": 64,
      "time": 130.555,
      "duration": 1.652,
      "velocity": 1,
      "hand": "right"
    },
    {
      "midi": 56,
      "time": 131.111,
      "duration": 0.263,
      "velocity": 1,
      "hand": "left"
    },
    {
      "midi": 56,
      "time": 131.389,
      "duration": 0.818,
      "velocity": 1,
      "hand": "left"
    },
    {
      "midi": 49,
      "time": 132.222,
      "duration": 1.667,
      "velocity": 1,
      "hand": "left"
    },
    {
      "midi": 56,
      "time": 132.222,
      "duration": 0.833,
      "velocity": 1,
      "hand": "left"
    },
    {
      "midi": 64,
      "time": 132.222,
      "duration": 1.667,
      "velocity": 1,
      "hand": "right"
    },
    {
      "midi": 76,
      "time": 132.222,
      "duration": 1.667,
      "velocity": 1,
      "hand": "right"
    },
    {
      "midi": 57,
      "time": 133.055,
      "duration": 0.833,
      "velocity": 1,
      "hand": "left"
    },
    {
      "midi": 54,
      "time": 133.889,
      "duration": 1.667,
      "velocity": 1,
      "hand": "left"
    },
    {
      "midi": 59,
      "time": 133.889,
      "duration": 0.556,
      "velocity": 1,
      "hand": "left"
    },
    {
      "midi": 69,
      "time": 133.889,
      "duration": 1.651,
      "velocity": 1,
      "hand": "right"
    },
    {
      "midi": 75,
      "time": 133.889,
      "duration": 1.667,
      "velocity": 1,
      "hand": "right"
    },
    {
      "midi": 60,
      "time": 134.444,
      "duration": 0.263,
      "velocity": 1,
      "hand": "right"
    },
    {
      "midi": 60,
      "time": 134.722,
      "duration": 0.833,
      "velocity": 1,
      "hand": "right"
    },
    {
      "midi": 52,
      "time": 135.555,
      "duration": 1.652,
      "velocity": 1,
      "hand": "left"
    },
    {
      "midi": 61,
      "time": 135.555,
      "duration": 0.833,
      "velocity": 1,
      "hand": "right"
    },
    {
      "midi": 69,
      "time": 135.555,
      "duration": 0.819,
      "velocity": 1,
      "hand": "right"
    },
    {
      "midi": 76,
      "time": 135.555,
      "duration": 0.833,
      "velocity": 1,
      "hand": "right"
    },
    {
      "midi": 81,
      "time": 135.555,
      "duration": 0.833,
      "velocity": 1,
      "hand": "right"
    },
    {
      "midi": 66,
      "time": 136.389,
      "duration": 0.556,
      "velocity": 1,
      "hand": "right"
    },
    {
      "midi": 69,
      "time": 136.389,
      "duration": 0.833,
      "velocity": 1,
      "hand": "right"
    },
    {
      "midi": 73,
      "time": 136.389,
      "duration": 0.818,
      "velocity": 1,
      "hand": "right"
    },
    {
      "midi": 64,
      "time": 136.944,
      "duration": 0.278,
      "velocity": 1,
      "hand": "right"
    },
    {
      "midi": 52,
      "time": 137.222,
      "duration": 0.833,
      "velocity": 1,
      "hand": "left"
    },
    {
      "midi": 62,
      "time": 137.222,
      "duration": 0.833,
      "velocity": 1,
      "hand": "right"
    },
    {
      "midi": 68,
      "time": 137.222,
      "duration": 0.833,
      "velocity": 1,
      "hand": "right"
    },
    {
      "midi": 73,
      "time": 137.222,
      "duration": 0.556,
      "velocity": 1,
      "hand": "right"
    },
    {
      "midi": 71,
      "time": 137.778,
      "duration": 0.278,
      "velocity": 1,
      "hand": "right"
    },
    {
      "midi": 57,
      "time": 138.055,
      "duration": 0.819,
      "velocity": 1,
      "hand": "left"
    },
    {
      "midi": 61,
      "time": 138.055,
      "duration": 0.833,
      "velocity": 1,
      "hand": "right"
    },
    {
      "midi": 69,
      "time": 138.055,
      "duration": 0.833,
      "velocity": 1,
      "hand": "right"
    },
    {
      "midi": 49,
      "time": 138.889,
      "duration": 1.667,
      "velocity": 1,
      "hand": "left"
    },
    {
      "midi": 57,
      "time": 138.889,
      "duration": 3.333,
      "velocity": 1,
      "hand": "left"
    },
    {
      "midi": 67,
      "time": 138.889,
      "duration": 1.667,
      "velocity": 1,
      "hand": "right"
    },
    {
      "midi": 76,
      "time": 138.889,
      "duration": 0.833,
      "velocity": 1,
      "hand": "right"
    },
    {
      "midi": 69,
      "time": 139.722,
      "duration": 0.833,
      "velocity": 1,
      "hand": "right"
    },
    {
      "midi": 50,
      "time": 140.555,
      "duration": 1.667,
      "velocity": 1,
      "hand": "left"
    },
    {
      "midi": 66,
      "time": 140.555,
      "duration": 1.652,
      "velocity": 1,
      "hand": "right"
    },
    {
      "midi": 71,
      "time": 140.555,
      "duration": 0.556,
      "velocity": 1,
      "hand": "right"
    },
    {
      "midi": 69,
      "time": 141.111,
      "duration": 0.263,
      "velocity": 1,
      "hand": "right"
    },
    {
      "midi": 69,
      "time": 141.389,
      "duration": 0.818,
      "velocity": 1,
      "hand": "right"
    },
    {
      "midi": 51,
      "time": 142.222,
      "duration": 1.667,
      "velocity": 1,
      "hand": "left"
    },
    {
      "midi": 66,
      "time": 142.222,
      "duration": 0.833,
      "velocity": 1,
      "hand": "right"
    },
    {
      "midi": 69,
      "time": 142.222,
      "duration": 1.667,
      "velocity": 1,
      "hand": "right"
    },
    {
      "midi": 71,
      "time": 142.222,
      "duration": 1.667,
      "velocity": 1,
      "hand": "right"
    },
    {
      "midi": 59,
      "time": 143.055,
      "duration": 0.833,
      "velocity": 1,
      "hand": "left"
    },
    {
      "midi": 52,
      "time": 143.889,
      "duration": 1.667,
      "velocity": 1,
      "hand": "left"
    },
    {
      "midi": 61,
      "time": 143.889,
      "duration": 0.556,
      "velocity": 1,
      "hand": "right"
    },
    {
      "midi": 67,
      "time": 143.889,
      "duration": 0.833,
      "velocity": 1,
      "hand": "right"
    },
    {
      "midi": 70,
      "time": 143.889,
      "duration": 0.833,
      "velocity": 1,
      "hand": "right"
    },
    {
      "midi": 59,
      "time": 144.444,
      "duration": 0.263,
      "velocity": 1,
      "hand": "left"
    },
    {
      "midi": 59,
      "time": 144.722,
      "duration": 0.833,
      "velocity": 1,
      "hand": "left"
    },
    {
      "midi": 68,
      "time": 144.722,
      "duration": 0.833,
      "velocity": 1,
      "hand": "right"
    },
    {
      "midi": 71,
      "time": 144.722,
      "duration": 0.818,
      "velocity": 1,
      "hand": "right"
    },
    {
      "midi": 53,
      "time": 145.555,
      "duration": 1.667,
      "velocity": 1,
      "hand": "left"
    },
    {
      "midi": 61,
      "time": 145.555,
      "duration": 3.333,
      "velocity": 1,
      "hand": "right"
    },
    {
      "midi": 71,
      "time": 145.555,
      "duration": 1.667,
      "velocity": 1,
      "hand": "right"
    },
    {
      "midi": 80,
      "time": 145.555,
      "duration": 0.833,
      "velocity": 1,
      "hand": "right"
    },
    {
      "midi": 73,
      "time": 146.389,
      "duration": 0.833,
      "velocity": 1,
      "hand": "right"
    },
    {
      "midi": 54,
      "time": 147.222,
      "duration": 1.652,
      "velocity": 1,
      "hand": "left"
    },
    {
      "midi": 69,
      "time": 147.222,
      "duration": 1.652,
      "velocity": 1,
      "hand": "right"
    },
    {
      "midi": 74,
      "time": 147.222,
      "duration": 0.556,
      "velocity": 1,
      "hand": "right"
    },
    {
      "midi": 73,
      "time": 147.778,
      "duration": 0.262,
      "velocity": 1,
      "hand": "right"
    },
    {
      "midi": 73,
      "time": 148.055,
      "duration": 0.833,
      "velocity": 1,
      "hand": "right"
    },
    {
      "midi": 54,
      "time": 148.889,
      "duration": 1.667,
      "velocity": 1,
      "hand": "left"
    },
    {
      "midi": 69,
      "time": 148.889,
      "duration": 0.833,
      "velocity": 1,
      "hand": "right"
    },
    {
      "midi": 72,
      "time": 148.889,
      "duration": 1.667,
      "velocity": 1,
      "hand": "right"
    },
    {
      "midi": 74,
      "time": 148.889,
      "duration": 1.667,
      "velocity": 1,
      "hand": "right"
    },
    {
      "midi": 62,
      "time": 149.722,
      "duration": 0.833,
      "velocity": 1,
      "hand": "right"
    },
    {
      "midi": 55,
      "time": 150.555,
      "duration": 1.667,
      "velocity": 1,
      "hand": "left"
    },
    {
      "midi": 64,
      "time": 150.555,
      "duration": 0.556,
      "velocity": 1,
      "hand": "right"
    },
    {
      "midi": 70,
      "time": 150.555,
      "duration": 0.833,
      "velocity": 1,
      "hand": "right"
    },
    {
      "midi": 73,
      "time": 150.555,
      "duration": 0.833,
      "velocity": 1,
      "hand": "right"
    },
    {
      "midi": 62,
      "time": 151.111,
      "duration": 0.263,
      "velocity": 1,
      "hand": "right"
    },
    {
      "midi": 62,
      "time": 151.389,
      "duration": 0.833,
      "velocity": 1,
      "hand": "right"
    },
    {
      "midi": 71,
      "time": 151.389,
      "duration": 0.833,
      "velocity": 1,
      "hand": "right"
    },
    {
      "midi": 74,
      "time": 151.389,
      "duration": 0.818,
      "velocity": 1,
      "hand": "right"
    },
    {
      "midi": 56,
      "time": 152.222,
      "duration": 1.667,
      "velocity": 1,
      "hand": "left"
    },
    {
      "midi": 64,
      "time": 152.222,
      "duration": 3.333,
      "velocity": 1,
      "hand": "right"
    },
    {
      "midi": 74,
      "time": 152.222,
      "duration": 1.667,
      "velocity": 1,
      "hand": "right"
    },
    {
      "midi": 83,
      "time": 152.222,
      "duration": 0.833,
      "velocity": 1,
      "hand": "right"
    },
    {
      "midi": 76,
      "time": 153.055,
      "duration": 0.833,
      "velocity": 1,
      "hand": "right"
    },
    {
      "midi": 57,
      "time": 153.889,
      "duration": 1.667,
      "velocity": 1,
      "hand": "left"
    },
    {
      "midi": 73,
      "time": 153.889,
      "duration": 1.651,
      "velocity": 1,
      "hand": "right"
    },
    {
      "midi": 75,
      "time": 153.889,
      "duration": 0.556,
      "velocity": 1,
      "hand": "right"
    },
    {
      "midi": 76,
      "time": 154.444,
      "duration": 0.263,
      "velocity": 1,
      "hand": "right"
    },
    {
      "midi": 76,
      "time": 154.722,
      "duration": 0.818,
      "velocity": 1,
      "hand": "right"
    },
    {
      "midi": 58,
      "time": 155.555,
      "duration": 1.667,
      "velocity": 1,
      "hand": "left"
    },
    {
      "midi": 66,
      "time": 155.555,
      "duration": 3.319,
      "velocity": 1,
      "hand": "right"
    },
    {
      "midi": 73,
      "time": 155.555,
      "duration": 0.833,
      "velocity": 1,
      "hand": "right"
    },
    {
      "midi": 76,
      "time": 155.555,
      "duration": 1.667,
      "velocity": 1,
      "hand": "right"
    },
    {
      "midi": 78,
      "time": 156.389,
      "duration": 0.833,
      "velocity": 1,
      "hand": "right"
    },
    {
      "midi": 59,
      "time": 157.222,
      "duration": 1.667,
      "velocity": 1,
      "hand": "left"
    },
    {
      "midi": 74,
      "time": 157.222,
      "duration": 1.667,
      "velocity": 1,
      "hand": "right"
    },
    {
      "midi": 77,
      "time": 157.222,
      "duration": 0.556,
      "velocity": 1,
      "hand": "right"
    },
    {
      "midi": 78,
      "time": 157.778,
      "duration": 0.262,
      "velocity": 1,
      "hand": "right"
    },
    {
      "midi": 78,
      "time": 158.055,
      "duration": 0.833,
      "velocity": 1,
      "hand": "right"
    },
    {
      "midi": 52,
      "time": 158.889,
      "duration": 3.318,
      "velocity": 1,
      "hand": "left"
    },
    {
      "midi": 66,
      "time": 158.889,
      "duration": 0.833,
      "velocity": 1,
      "hand": "right"
    },
    {
      "midi": 68,
      "time": 158.889,
      "duration": 3.333,
      "velocity": 1,
      "hand": "right"
    },
    {
      "midi": 71,
      "time": 158.889,
      "duration": 3.333,
      "velocity": 1,
      "hand": "right"
    },
    {
      "midi": 59,
      "time": 159.722,
      "duration": 0.833,
      "velocity": 1,
      "hand": "left"
    },
    {
      "midi": 66,
      "time": 160.555,
      "duration": 0.556,
      "velocity": 1,
      "hand": "right"
    },
    {
      "midi": 64,
      "time": 161.111,
      "duration": 0.263,
      "velocity": 1,
      "hand": "right"
    },
    {
      "midi": 64,
      "time": 161.389,
      "duration": 0.833,
      "velocity": 1,
      "hand": "right"
    },
    {
      "midi": 46,
      "time": 162.222,
      "duration": 1.667,
      "velocity": 1,
      "hand": "left"
    },
    {
      "midi": 52,
      "time": 162.222,
      "duration": 3.333,
      "velocity": 1,
      "hand": "left"
    },
    {
      "midi": 67,
      "time": 162.222,
      "duration": 0.818,
      "velocity": 1,
      "hand": "right"
    },
    {
      "midi": 74,
      "time": 162.222,
      "duration": 0.833,
      "velocity": 1,
      "hand": "right"
    },
    {
      "midi": 67,
      "time": 163.055,
      "duration": 0.819,
      "velocity": 1,
      "hand": "right"
    },
    {
      "midi": 45,
      "time": 163.889,
      "duration": 1.667,
      "velocity": 1,
      "hand": "left"
    },
    {
      "midi": 67,
      "time": 163.889,
      "duration": 1.667,
      "velocity": 1,
      "hand": "right"
    },
    {
      "midi": 74,
      "time": 163.889,
      "duration": 0.556,
      "velocity": 1,
      "hand": "right"
    },
    {
      "midi": 73,
      "time": 164.444,
      "duration": 0.263,
      "velocity": 1,
      "hand": "right"
    },
    {
      "midi": 73,
      "time": 164.722,
      "duration": 0.833,
      "velocity": 1,
      "hand": "right"
    },
    {
      "midi": 50,
      "time": 165.555,
      "duration": 3.333,
      "velocity": 1,
      "hand": "left"
    },
    {
      "midi": 57,
      "time": 165.555,
      "duration": 3.319,
      "velocity": 1,
      "hand": "left"
    },
    {
      "midi": 66,
      "time": 165.555,
      "duration": 3.333,
      "velocity": 1,
      "hand": "right"
    },
    {
      "midi": 74,
      "time": 165.555,
      "duration": 0.833,
      "velocity": 1,
      "hand": "right"
    },
    {
      "midi": 73,
      "time": 166.389,
      "duration": 0.833,
      "velocity": 1,
      "hand": "right"
    },
    {
      "midi": 71,
      "time": 167.222,
      "duration": 0.556,
      "velocity": 1,
      "hand": "right"
    },
    {
      "midi": 69,
      "time": 167.778,
      "duration": 0.262,
      "velocity": 1,
      "hand": "right"
    },
    {
      "midi": 69,
      "time": 168.055,
      "duration": 0.833,
      "velocity": 1,
      "hand": "right"
    },
    {
      "midi": 49,
      "time": 168.889,
      "duration": 1.667,
      "velocity": 1,
      "hand": "left"
    },
    {
      "midi": 57,
      "time": 168.889,
      "duration": 3.333,
      "velocity": 1,
      "hand": "left"
    },
    {
      "midi": 64,
      "time": 168.889,
      "duration": 1.667,
      "velocity": 1,
      "hand": "right"
    },
    {
      "midi": 71,
      "time": 168.889,
      "duration": 0.833,
      "velocity": 1,
      "hand": "right"
    },
    {
      "midi": 69,
      "time": 169.722,
      "duration": 0.833,
      "velocity": 1,
      "hand": "right"
    },
    {
      "midi": 48,
      "time": 170.555,
      "duration": 1.667,
      "velocity": 1,
      "hand": "left"
    },
    {
      "midi": 63,
      "time": 170.555,
      "duration": 1.667,
      "velocity": 1,
      "hand": "right"
    },
    {
      "midi": 67,
      "time": 170.555,
      "duration": 0.556,
      "velocity": 1,
      "hand": "right"
    },
    {
      "midi": 66,
      "time": 171.111,
      "duration": 0.263,
      "velocity": 1,
      "hand": "right"
    },
    {
      "midi": 66,
      "time": 171.389,
      "duration": 0.833,
      "velocity": 1,
      "hand": "right"
    },
    {
      "midi": 47,
      "time": 172.222,
      "duration": 3.333,
      "velocity": 1,
      "hand": "left"
    },
    {
      "midi": 54,
      "time": 172.222,
      "duration": 1.667,
      "velocity": 1,
      "hand": "left"
    },
    {
      "midi": 62,
      "time": 172.222,
      "duration": 0.818,
      "velocity": 1,
      "hand": "right"
    },
    {
      "midi": 69,
      "time": 172.222,
      "duration": 0.833,
      "velocity": 1,
      "hand": "right"
    },
    {
      "midi": 62,
      "time": 173.055,
      "duration": 0.819,
      "velocity": 1,
      "hand": "right"
    },
    {
      "midi": 56,
      "time": 173.889,
      "duration": 1.667,
      "velocity": 1,
      "hand": "left"
    },
    {
      "midi": 62,
      "time": 173.889,
      "duration": 1.667,
      "velocity": 1,
      "hand": "right"
    },
    {
      "midi": 66,
      "time": 173.889,
      "duration": 0.556,
      "velocity": 1,
      "hand": "right"
    },
    {
      "midi": 64,
      "time": 174.444,
      "duration": 0.263,
      "velocity": 1,
      "hand": "right"
    },
    {
      "midi": 64,
      "time": 174.722,
      "duration": 0.833,
      "velocity": 1,
      "hand": "right"
    },
    {
      "midi": 44,
      "time": 175.555,
      "duration": 1.667,
      "velocity": 1,
      "hand": "left"
    },
    {
      "midi": 50,
      "time": 175.555,
      "duration": 1.667,
      "velocity": 1,
      "hand": "left"
    },
    {
      "midi": 66,
      "time": 175.555,
      "duration": 0.833,
      "velocity": 1,
      "hand": "right"
    },
    {
      "midi": 59,
      "time": 176.389,
      "duration": 0.833,
      "velocity": 1,
      "hand": "left"
    },
    {
      "midi": 43,
      "time": 177.222,
      "duration": 1.667,
      "velocity": 1,
      "hand": "left"
    },
    {
      "midi": 52,
      "time": 177.222,
      "duration": 1.667,
      "velocity": 1,
      "hand": "left"
    },
    {
      "midi": 62,
      "time": 177.222,
      "duration": 0.556,
      "velocity": 1,
      "hand": "right"
    },
    {
      "midi": 61,
      "time": 177.778,
      "duration": 0.262,
      "velocity": 1,
      "hand": "right"
    },
    {
      "midi": 61,
      "time": 178.055,
      "duration": 0.833,
      "velocity": 1,
      "hand": "right"
    },
    {
      "midi": 42,
      "time": 178.889,
      "duration": 1.667,
      "velocity": 1,
      "hand": "left"
    },
    {
      "midi": 45,
      "time": 178.889,
      "duration": 0.833,
      "velocity": 1,
      "hand": "left"
    },
    {
      "midi": 62,
      "time": 178.889,
      "duration": 1.651,
      "velocity": 1,
      "hand": "right"
    },
    {
      "midi": 69,
      "time": 178.889,
      "duration": 1.667,
      "velocity": 1,
      "hand": "right"
    },
    {
      "midi": 47,
      "time": 179.722,
      "duration": 0.818,
      "velocity": 1,
      "hand": "left"
    },
    {
      "midi": 45,
      "time": 180.555,
      "duration": 1.667,
      "velocity": 1,
      "hand": "left"
    },
    {
      "midi": 47,
      "time": 180.555,
      "duration": 0.556,
      "velocity": 1,
      "hand": "left"
    },
    {
      "midi": 62,
      "time": 180.555,
      "duration": 1.652,
      "velocity": 1,
      "hand": "right"
    },
    {
      "midi": 48,
      "time": 181.111,
      "duration": 0.263,
      "velocity": 1,
      "hand": "left"
    },
    {
      "midi": 48,
      "time": 181.389,
      "duration": 0.833,
      "velocity": 1,
      "hand": "left"
    },
    {
      "midi": 43,
      "time": 182.222,
      "duration": 1.667,
      "velocity": 1,
      "hand": "left"
    },
    {
      "midi": 46,
      "time": 182.222,
      "duration": 0.833,
      "velocity": 1,
      "hand": "left"
    },
    {
      "midi": 62,
      "time": 182.222,
      "duration": 1.667,
      "velocity": 1,
      "hand": "right"
    },
    {
      "midi": 67,
      "time": 182.222,
      "duration": 1.667,
      "velocity": 1,
      "hand": "right"
    },
    {
      "midi": 74,
      "time": 182.222,
      "duration": 1.667,
      "velocity": 1,
      "hand": "right"
    },
    {
      "midi": 47,
      "time": 183.055,
      "duration": 0.833,
      "velocity": 1,
      "hand": "left"
    },
    {
      "midi": 44,
      "time": 183.889,
      "duration": 1.667,
      "velocity": 1,
      "hand": "left"
    },
    {
      "midi": 49,
      "time": 183.889,
      "duration": 0.556,
      "velocity": 1,
      "hand": "left"
    },
    {
      "midi": 65,
      "time": 183.889,
      "duration": 1.667,
      "velocity": 1,
      "hand": "right"
    },
    {
      "midi": 71,
      "time": 183.889,
      "duration": 1.667,
      "velocity": 1,
      "hand": "right"
    },
    {
      "midi": 50,
      "time": 184.444,
      "duration": 0.263,
      "velocity": 1,
      "hand": "left"
    },
    {
      "midi": 50,
      "time": 184.722,
      "duration": 0.818,
      "velocity": 1,
      "hand": "left"
    },
    {
      "midi": 42,
      "time": 185.555,
      "duration": 1.667,
      "velocity": 1,
      "hand": "left"
    },
    {
      "midi": 50,
      "time": 185.555,
      "duration": 0.833,
      "velocity": 1,
      "hand": "left"
    },
    {
      "midi": 66,
      "time": 185.555,
      "duration": 1.667,
      "velocity": 1,
      "hand": "right"
    },
    {
      "midi": 69,
      "time": 185.555,
      "duration": 1.667,
      "velocity": 1,
      "hand": "right"
    },
    {
      "midi": 51,
      "time": 186.389,
      "duration": 0.833,
      "velocity": 1,
      "hand": "left"
    },
    {
      "midi": 43,
      "time": 187.222,
      "duration": 1.667,
      "velocity": 1,
      "hand": "left"
    },
    {
      "midi": 57,
      "time": 187.222,
      "duration": 0.556,
      "velocity": 1,
      "hand": "left"
    },
    {
      "midi": 64,
      "time": 187.222,
      "duration": 1.667,
      "velocity": 1,
      "hand": "right"
    },
    {
      "midi": 55,
      "time": 187.778,
      "duration": 0.262,
      "velocity": 1,
      "hand": "left"
    },
    {
      "midi": 55,
      "time": 188.055,
      "duration": 0.819,
      "velocity": 1,
      "hand": "left"
    },
    {
      "midi": 45,
      "time": 188.889,
      "duration": 1.667,
      "velocity": 1,
      "hand": "left"
    },
    {
      "midi": 54,
      "time": 188.889,
      "duration": 0.556,
      "velocity": 1,
      "hand": "left"
    },
    {
      "midi": 61,
      "time": 188.889,
      "duration": 1.667,
      "velocity": 1,
      "hand": "right"
    },
    {
      "midi": 52,
      "time": 189.444,
      "duration": 0.263,
      "velocity": 1,
      "hand": "left"
    },
    {
      "midi": 52,
      "time": 189.722,
      "duration": 0.833,
      "velocity": 1,
      "hand": "left"
    },
    {
      "midi": 38,
      "time": 190.555,
      "duration": 1.667,
      "velocity": 1,
      "hand": "left"
    },
    {
      "midi": 46,
      "time": 190.555,
      "duration": 0.556,
      "velocity": 1,
      "hand": "left"
    },
    {
      "midi": 62,
      "time": 190.555,
      "duration": 1.652,
      "velocity": 1,
      "hand": "right"
    },
    {
      "midi": 45,
      "time": 191.111,
      "duration": 0.263,
      "velocity": 1,
      "hand": "left"
    },
    {
      "midi": 45,
      "time": 191.389,
      "duration": 0.833,
      "velocity": 1,
      "hand": "left"
    },
    {
      "midi": 54,
      "time": 192.222,
      "duration": 3.318,
      "velocity": 1,
      "hand": "left"
    },
    {
      "midi": 62,
      "time": 192.222,
      "duration": 0.833,
      "velocity": 1,
      "hand": "right"
    },
    {
      "midi": 66,
      "time": 192.222,
      "duration": 1.667,
      "velocity": 1,
      "hand": "right"
    },
    {
      "midi": 71,
      "time": 192.222,
      "duration": 0.833,
      "velocity": 1,
      "hand": "right"
    },
    {
      "midi": 61,
      "time": 193.055,
      "duration": 0.819,
      "velocity": 1,
      "hand": "right"
    },
    {
      "midi": 70,
      "time": 193.055,
      "duration": 0.833,
      "velocity": 1,
      "hand": "right"
    },
    {
      "midi": 59,
      "time": 193.889,
      "duration": 0.833,
      "velocity": 1,
      "hand": "left"
    },
    {
      "midi": 61,
      "time": 193.889,
      "duration": 1.667,
      "velocity": 1,
      "hand": "right"
    },
    {
      "midi": 67,
      "time": 193.889,
      "duration": 0.556,
      "velocity": 1,
      "hand": "right"
    },
    {
      "midi": 66,
      "time": 194.444,
      "duration": 0.263,
      "velocity": 1,
      "hand": "right"
    },
    {
      "midi": 58,
      "time": 194.722,
      "duration": 0.833,
      "velocity": 1,
      "hand": "left"
    },
    {
      "midi": 66,
      "time": 194.722,
      "duration": 0.818,
      "velocity": 1,
      "hand": "right"
    },
    {
      "midi": 54,
      "time": 195.555,
      "duration": 3.333,
      "velocity": 1,
      "hand": "left"
    },
    {
      "midi": 56,
      "time": 195.555,
      "duration": 0.833,
      "velocity": 1,
      "hand": "left"
    },
    {
      "midi": 64,
      "time": 195.555,
      "duration": 1.667,
      "velocity": 1,
      "hand": "right"
    },
    {
      "midi": 66,
      "time": 195.555,
      "duration": 1.652,
      "velocity": 1,
      "hand": "right"
    },
    {
      "midi": 74,
      "time": 195.555,
      "duration": 0.833,
      "velocity": 1,
      "hand": "right"
    },
    {
      "midi": 58,
      "time": 196.389,
      "duration": 0.833,
      "velocity": 1,
      "hand": "left"
    },
    {
      "midi": 73,
      "time": 196.389,
      "duration": 0.833,
      "velocity": 1,
      "hand": "right"
    },
    {
      "midi": 59,
      "time": 197.222,
      "duration": 0.556,
      "velocity": 1,
      "hand": "left"
    },
    {
      "midi": 62,
      "time": 197.222,
      "duration": 0.833,
      "velocity": 1,
      "hand": "right"
    },
    {
      "midi": 66,
      "time": 197.222,
      "duration": 0.818,
      "velocity": 1,
      "hand": "right"
    },
    {
      "midi": 71,
      "time": 197.222,
      "duration": 0.833,
      "velocity": 1,
      "hand": "right"
    },
    {
      "midi": 61,
      "time": 197.778,
      "duration": 0.262,
      "velocity": 1,
      "hand": "right"
    },
    {
      "midi": 61,
      "time": 198.055,
      "duration": 0.833,
      "velocity": 1,
      "hand": "right"
    },
    {
      "midi": 66,
      "time": 198.055,
      "duration": 0.819,
      "velocity": 1,
      "hand": "right"
    },
    {
      "midi": 70,
      "time": 198.055,
      "duration": 0.833,
      "velocity": 1,
      "hand": "right"
    },
    {
      "midi": 66,
      "time": 198.889,
      "duration": 3.318,
      "velocity": 1,
      "hand": "right"
    },
    {
      "midi": 74,
      "time": 198.889,
      "duration": 0.833,
      "velocity": 1,
      "hand": "right"
    },
    {
      "midi": 78,
      "time": 198.889,
      "duration": 1.667,
      "velocity": 1,
      "hand": "right"
    },
    {
      "midi": 83,
      "time": 198.889,
      "duration": 0.833,
      "velocity": 1,
      "hand": "right"
    },
    {
      "midi": 73,
      "time": 199.722,
      "duration": 0.818,
      "velocity": 1,
      "hand": "right"
    },
    {
      "midi": 82,
      "time": 199.722,
      "duration": 0.833,
      "velocity": 1,
      "hand": "right"
    },
    {
      "midi": 71,
      "time": 200.555,
      "duration": 0.833,
      "velocity": 1,
      "hand": "right"
    },
    {
      "midi": 73,
      "time": 200.555,
      "duration": 1.667,
      "velocity": 1,
      "hand": "right"
    },
    {
      "midi": 79,
      "time": 200.555,
      "duration": 0.556,
      "velocity": 1,
      "hand": "right"
    },
    {
      "midi": 78,
      "time": 201.111,
      "duration": 0.263,
      "velocity": 1,
      "hand": "right"
    },
    {
      "midi": 70,
      "time": 201.389,
      "duration": 0.833,
      "velocity": 1,
      "hand": "right"
    },
    {
      "midi": 78,
      "time": 201.389,
      "duration": 0.818,
      "velocity": 1,
      "hand": "right"
    },
    {
      "midi": 68,
      "time": 202.222,
      "duration": 0.833,
      "velocity": 1,
      "hand": "right"
    },
    {
      "midi": 74,
      "time": 202.222,
      "duration": 0.833,
      "velocity": 1,
      "hand": "right"
    },
    {
      "midi": 76,
      "time": 202.222,
      "duration": 1.667,
      "velocity": 1,
      "hand": "right"
    },
    {
      "midi": 78,
      "time": 202.222,
      "duration": 1.652,
      "velocity": 1,
      "hand": "right"
    },
    {
      "midi": 70,
      "time": 203.055,
      "duration": 0.833,
      "velocity": 1,
      "hand": "right"
    },
    {
      "midi": 73,
      "time": 203.055,
      "duration": 0.833,
      "velocity": 1,
      "hand": "right"
    },
    {
      "midi": 71,
      "time": 203.889,
      "duration": 0.556,
      "velocity": 1,
      "hand": "right"
    },
    {
      "midi": 74,
      "time": 203.889,
      "duration": 0.833,
      "velocity": 1,
      "hand": "right"
    },
    {
      "midi": 78,
      "time": 203.889,
      "duration": 0.818,
      "velocity": 1,
      "hand": "right"
    },
    {
      "midi": 83,
      "time": 203.889,
      "duration": 0.833,
      "velocity": 1,
      "hand": "right"
    },
    {
      "midi": 73,
      "time": 204.444,
      "duration": 0.263,
      "velocity": 1,
      "hand": "right"
    },
    {
      "midi": 73,
      "time": 204.722,
      "duration": 0.818,
      "velocity": 1,
      "hand": "right"
    },
    {
      "midi": 78,
      "time": 204.722,
      "duration": 0.833,
      "velocity": 1,
      "hand": "right"
    },
    {
      "midi": 82,
      "time": 204.722,
      "duration": 0.833,
      "velocity": 1,
      "hand": "right"
    },
    {
      "midi": 67,
      "time": 205.555,
      "duration": 0.833,
      "velocity": 1,
      "hand": "right"
    },
    {
      "midi": 73,
      "time": 205.555,
      "duration": 1.667,
      "velocity": 1,
      "hand": "right"
    },
    {
      "midi": 76,
      "time": 205.555,
      "duration": 1.667,
      "velocity": 1,
      "hand": "right"
    },
    {
      "midi": 83,
      "time": 205.555,
      "duration": 0.556,
      "velocity": 1,
      "hand": "right"
    },
    {
      "midi": 82,
      "time": 206.111,
      "duration": 0.263,
      "velocity": 1,
      "hand": "right"
    },
    {
      "midi": 66,
      "time": 206.389,
      "duration": 0.833,
      "velocity": 1,
      "hand": "right"
    },
    {
      "midi": 82,
      "time": 206.389,
      "duration": 0.833,
      "velocity": 1,
      "hand": "right"
    },
    {
      "midi": 67,
      "time": 207.222,
      "duration": 0.556,
      "velocity": 1,
      "hand": "right"
    },
    {
      "midi": 66,
      "time": 207.778,
      "duration": 0.262,
      "velocity": 1,
      "hand": "right"
    },
    {
      "midi": 66,
      "time": 208.055,
      "duration": 0.833,
      "velocity": 1,
      "hand": "right"
    },
    {
      "midi": 55,
      "time": 208.889,
      "duration": 0.833,
      "velocity": 1,
      "hand": "left"
    },
    {
      "midi": 61,
      "time": 208.889,
      "duration": 1.667,
      "velocity": 1,
      "hand": "right"
    },
    {
      "midi": 64,
      "time": 208.889,
      "duration": 1.667,
      "velocity": 1,
      "hand": "right"
    },
    {
      "midi": 71,
      "time": 208.889,
      "duration": 0.556,
      "velocity": 1,
      "hand": "right"
    },
    {
      "midi": 70,
      "time": 209.444,
      "duration": 0.263,
      "velocity": 1,
      "hand": "right"
    },
    {
      "midi": 54,
      "time": 209.722,
      "duration": 0.833,
      "velocity": 1,
      "hand": "left"
    },
    {
      "midi": 70,
      "time": 209.722,
      "duration": 0.833,
      "velocity": 1,
      "hand": "right"
    },
    {
      "midi": 55,
      "time": 210.555,
      "duration": 0.556,
      "velocity": 1,
      "hand": "left"
    },
    {
      "midi": 54,
      "time": 211.111,
      "duration": 0.263,
      "velocity": 1,
      "hand": "left"
    },
    {
      "midi": 54,
      "time": 211.389,
      "duration": 0.833,
      "velocity": 1,
      "hand": "left"
    },
    {
      "midi": 55,
      "time": 212.222,
      "duration": 0.556,
      "velocity": 1,
      "hand": "left"
    },
    {
      "midi": 54,
      "time": 212.778,
      "duration": 0.262,
      "velocity": 1,
      "hand": "left"
    },
    {
      "midi": 54,
      "time": 213.055,
      "duration": 0.833,
      "velocity": 1,
      "hand": "left"
    },
    {
      "midi": 55,
      "time": 213.889,
      "duration": 0.556,
      "velocity": 1,
      "hand": "left"
    },
    {
      "midi": 54,
      "time": 214.444,
      "duration": 0.263,
      "velocity": 1,
      "hand": "left"
    },
    {
      "midi": 54,
      "time": 214.722,
      "duration": 0.278,
      "velocity": 1,
      "hand": "left"
    },
    {
      "midi": 62,
      "time": 215,
      "duration": 0.278,
      "velocity": 1,
      "hand": "right"
    },
    {
      "midi": 66,
      "time": 215,
      "duration": 0.278,
      "velocity": 1,
      "hand": "right"
    },
    {
      "midi": 71,
      "time": 215,
      "duration": 0.278,
      "velocity": 1,
      "hand": "right"
    },
    {
      "midi": 61,
      "time": 215.278,
      "duration": 0.278,
      "velocity": 1,
      "hand": "right"
    },
    {
      "midi": 65,
      "time": 215.278,
      "duration": 0.278,
      "velocity": 1,
      "hand": "right"
    },
    {
      "midi": 62,
      "time": 215.555,
      "duration": 0.556,
      "velocity": 1,
      "hand": "right"
    },
    {
      "midi": 66,
      "time": 215.555,
      "duration": 0.556,
      "velocity": 1,
      "hand": "right"
    },
    {
      "midi": 71,
      "time": 215.555,
      "duration": 0.556,
      "velocity": 1,
      "hand": "right"
    },
    {
      "midi": 47,
      "time": 215.833,
      "duration": 0.278,
      "velocity": 1,
      "hand": "left"
    },
    {
      "midi": 61,
      "time": 216.111,
      "duration": 0.278,
      "velocity": 1,
      "hand": "right"
    },
    {
      "midi": 64,
      "time": 216.111,
      "duration": 0.278,
      "velocity": 1,
      "hand": "right"
    },
    {
      "midi": 70,
      "time": 216.111,
      "duration": 0.278,
      "velocity": 1,
      "hand": "right"
    },
    {
      "midi": 47,
      "time": 216.389,
      "duration": 0.278,
      "velocity": 1,
      "hand": "left"
    },
    {
      "midi": 59,
      "time": 216.666,
      "duration": 0.278,
      "velocity": 1,
      "hand": "left"
    },
    {
      "midi": 62,
      "time": 216.666,
      "duration": 0.278,
      "velocity": 1,
      "hand": "right"
    },
    {
      "midi": 67,
      "time": 216.666,
      "duration": 0.278,
      "velocity": 1,
      "hand": "right"
    },
    {
      "midi": 58,
      "time": 216.944,
      "duration": 0.278,
      "velocity": 1,
      "hand": "left"
    },
    {
      "midi": 61,
      "time": 216.944,
      "duration": 0.278,
      "velocity": 1,
      "hand": "right"
    },
    {
      "midi": 59,
      "time": 217.222,
      "duration": 0.556,
      "velocity": 1,
      "hand": "left"
    },
    {
      "midi": 62,
      "time": 217.222,
      "duration": 0.556,
      "velocity": 1,
      "hand": "right"
    },
    {
      "midi": 67,
      "time": 217.222,
      "duration": 0.556,
      "velocity": 1,
      "hand": "right"
    },
    {
      "midi": 47,
      "time": 217.5,
      "duration": 0.278,
      "velocity": 1,
      "hand": "left"
    },
    {
      "midi": 58,
      "time": 217.778,
      "duration": 0.278,
      "velocity": 1,
      "hand": "left"
    },
    {
      "midi": 61,
      "time": 217.778,
      "duration": 0.278,
      "velocity": 1,
      "hand": "right"
    },
    {
      "midi": 66,
      "time": 217.778,
      "duration": 0.278,
      "velocity": 1,
      "hand": "right"
    },
    {
      "midi": 47,
      "time": 218.055,
      "duration": 0.278,
      "velocity": 1,
      "hand": "left"
    },
    {
      "midi": 57,
      "time": 218.333,
      "duration": 0.278,
      "velocity": 1,
      "hand": "left"
    },
    {
      "midi": 60,
      "time": 218.333,
      "duration": 0.278,
      "velocity": 1,
      "hand": "right"
    },
    {
      "midi": 66,
      "time": 218.333,
      "duration": 0.278,
      "velocity": 1,
      "hand": "right"
    },
    {
      "midi": 56,
      "time": 218.611,
      "duration": 0.278,
      "velocity": 1,
      "hand": "left"
    },
    {
      "midi": 59,
      "time": 218.611,
      "duration": 0.278,
      "velocity": 1,
      "hand": "left"
    },
    {
      "midi": 57,
      "time": 218.889,
      "duration": 0.556,
      "velocity": 1,
      "hand": "left"
    },
    {
      "midi": 60,
      "time": 218.889,
      "duration": 0.556,
      "velocity": 1,
      "hand": "right"
    },
    {
      "midi": 66,
      "time": 218.889,
      "duration": 0.556,
      "velocity": 1,
      "hand": "right"
    },
    {
      "midi": 47,
      "time": 219.166,
      "duration": 0.278,
      "velocity": 1,
      "hand": "left"
    },
    {
      "midi": 56,
      "time": 219.444,
      "duration": 0.278,
      "velocity": 1,
      "hand": "left"
    },
    {
      "midi": 59,
      "time": 219.444,
      "duration": 0.278,
      "velocity": 1,
      "hand": "left"
    },
    {
      "midi": 64,
      "time": 219.444,
      "duration": 0.278,
      "velocity": 1,
      "hand": "right"
    },
    {
      "midi": 47,
      "time": 219.722,
      "duration": 0.278,
      "velocity": 1,
      "hand": "left"
    },
    {
      "midi": 55,
      "time": 220,
      "duration": 0.278,
      "velocity": 1,
      "hand": "left"
    },
    {
      "midi": 58,
      "time": 220,
      "duration": 0.278,
      "velocity": 1,
      "hand": "left"
    },
    {
      "midi": 64,
      "time": 220,
      "duration": 0.278,
      "velocity": 1,
      "hand": "right"
    },
    {
      "midi": 47,
      "time": 220.278,
      "duration": 0.278,
      "velocity": 1,
      "hand": "left"
    },
    {
      "midi": 54,
      "time": 220.555,
      "duration": 0.278,
      "velocity": 1,
      "hand": "left"
    },
    {
      "midi": 58,
      "time": 220.555,
      "duration": 0.278,
      "velocity": 1,
      "hand": "left"
    },
    {
      "midi": 62,
      "time": 220.555,
      "duration": 0.278,
      "velocity": 1,
      "hand": "right"
    },
    {
      "midi": 47,
      "time": 220.833,
      "duration": 0.278,
      "velocity": 1,
      "hand": "left"
    },
    {
      "midi": 52,
      "time": 221.111,
      "duration": 0.278,
      "velocity": 1,
      "hand": "left"
    },
    {
      "midi": 58,
      "time": 221.111,
      "duration": 0.278,
      "velocity": 1,
      "hand": "left"
    },
    {
      "midi": 61,
      "time": 221.111,
      "duration": 0.278,
      "velocity": 1,
      "hand": "right"
    },
    {
      "midi": 47,
      "time": 221.389,
      "duration": 0.278,
      "velocity": 1,
      "hand": "left"
    },
    {
      "midi": 50,
      "time": 221.389,
      "duration": 0.278,
      "velocity": 1,
      "hand": "left"
    },
    {
      "midi": 53,
      "time": 221.666,
      "duration": 0.278,
      "velocity": 1,
      "hand": "left"
    },
    {
      "midi": 54,
      "time": 221.944,
      "duration": 0.278,
      "velocity": 1,
      "hand": "left"
    },
    {
      "midi": 55,
      "time": 222.222,
      "duration": 0.833,
      "velocity": 1,
      "hand": "left"
    },
    {
      "midi": 62,
      "time": 222.5,
      "duration": 0.278,
      "velocity": 1,
      "hand": "right"
    },
    {
      "midi": 71,
      "time": 222.5,
      "duration": 0.263,
      "velocity": 1,
      "hand": "right"
    },
    {
      "midi": 74,
      "time": 222.5,
      "duration": 0.263,
      "velocity": 1,
      "hand": "right"
    },
    {
      "midi": 64,
      "time": 222.778,
      "duration": 0.278,
      "velocity": 1,
      "hand": "right"
    },
    {
      "midi": 71,
      "time": 222.778,
      "duration": 0.262,
      "velocity": 1,
      "hand": "right"
    },
    {
      "midi": 74,
      "time": 222.778,
      "duration": 0.262,
      "velocity": 1,
      "hand": "right"
    },
    {
      "midi": 43,
      "time": 223.055,
      "duration": 0.278,
      "velocity": 1,
      "hand": "left"
    },
    {
      "midi": 65,
      "time": 223.055,
      "duration": 0.278,
      "velocity": 1,
      "hand": "right"
    },
    {
      "midi": 71,
      "time": 223.055,
      "duration": 0.278,
      "velocity": 1,
      "hand": "right"
    },
    {
      "midi": 74,
      "time": 223.055,
      "duration": 0.278,
      "velocity": 1,
      "hand": "right"
    },
    {
      "midi": 45,
      "time": 223.333,
      "duration": 0.278,
      "velocity": 1,
      "hand": "left"
    },
    {
      "midi": 43,
      "time": 223.611,
      "duration": 0.278,
      "velocity": 1,
      "hand": "left"
    },
    {
      "midi": 42,
      "time": 223.889,
      "duration": 0.833,
      "velocity": 1,
      "hand": "left"
    },
    {
      "midi": 56,
      "time": 224.166,
      "duration": 0.278,
      "velocity": 1,
      "hand": "left"
    },
    {
      "midi": 59,
      "time": 224.166,
      "duration": 0.278,
      "velocity": 1,
      "hand": "left"
    },
    {
      "midi": 66,
      "time": 224.166,
      "duration": 0.278,
      "velocity": 1,
      "hand": "right"
    },
    {
      "midi": 58,
      "time": 224.444,
      "duration": 0.278,
      "velocity": 1,
      "hand": "left"
    },
    {
      "midi": 61,
      "time": 224.444,
      "duration": 0.278,
      "velocity": 1,
      "hand": "right"
    },
    {
      "midi": 64,
      "time": 224.444,
      "duration": 0.278,
      "velocity": 1,
      "hand": "right"
    },
    {
      "midi": 47,
      "time": 224.722,
      "duration": 0.278,
      "velocity": 1,
      "hand": "left"
    },
    {
      "midi": 59,
      "time": 224.722,
      "duration": 0.278,
      "velocity": 1,
      "hand": "left"
    },
    {
      "midi": 62,
      "time": 224.722,
      "duration": 0.278,
      "velocity": 1,
      "hand": "right"
    },
    {
      "midi": 53,
      "time": 225,
      "duration": 0.278,
      "velocity": 1,
      "hand": "left"
    },
    {
      "midi": 54,
      "time": 225.278,
      "duration": 0.278,
      "velocity": 1,
      "hand": "left"
    },
    {
      "midi": 55,
      "time": 225.555,
      "duration": 0.833,
      "velocity": 1,
      "hand": "left"
    },
    {
      "midi": 62,
      "time": 225.833,
      "duration": 0.278,
      "velocity": 1,
      "hand": "right"
    },
    {
      "midi": 71,
      "time": 225.833,
      "duration": 0.263,
      "velocity": 1,
      "hand": "right"
    },
    {
      "midi": 74,
      "time": 225.833,
      "duration": 0.263,
      "velocity": 1,
      "hand": "right"
    },
    {
      "midi": 64,
      "time": 226.111,
      "duration": 0.278,
      "velocity": 1,
      "hand": "right"
    },
    {
      "midi": 71,
      "time": 226.111,
      "duration": 0.263,
      "velocity": 1,
      "hand": "right"
    },
    {
      "midi": 74,
      "time": 226.111,
      "duration": 0.263,
      "velocity": 1,
      "hand": "right"
    },
    {
      "midi": 43,
      "time": 226.389,
      "duration": 0.278,
      "velocity": 1,
      "hand": "left"
    },
    {
      "midi": 65,
      "time": 226.389,
      "duration": 0.278,
      "velocity": 1,
      "hand": "right"
    },
    {
      "midi": 71,
      "time": 226.389,
      "duration": 0.278,
      "velocity": 1,
      "hand": "right"
    },
    {
      "midi": 74,
      "time": 226.389,
      "duration": 0.278,
      "velocity": 1,
      "hand": "right"
    },
    {
      "midi": 45,
      "time": 226.666,
      "duration": 0.278,
      "velocity": 1,
      "hand": "left"
    },
    {
      "midi": 43,
      "time": 226.944,
      "duration": 0.278,
      "velocity": 1,
      "hand": "left"
    },
    {
      "midi": 42,
      "time": 227.222,
      "duration": 0.833,
      "velocity": 1,
      "hand": "left"
    },
    {
      "midi": 56,
      "time": 227.5,
      "duration": 0.278,
      "velocity": 1,
      "hand": "left"
    },
    {
      "midi": 59,
      "time": 227.5,
      "duration": 0.278,
      "velocity": 1,
      "hand": "left"
    },
    {
      "midi": 66,
      "time": 227.5,
      "duration": 0.278,
      "velocity": 1,
      "hand": "right"
    },
    {
      "midi": 58,
      "time": 227.778,
      "duration": 0.278,
      "velocity": 1,
      "hand": "left"
    },
    {
      "midi": 61,
      "time": 227.778,
      "duration": 0.278,
      "velocity": 1,
      "hand": "right"
    },
    {
      "midi": 64,
      "time": 227.778,
      "duration": 0.278,
      "velocity": 1,
      "hand": "right"
    },
    {
      "midi": 47,
      "time": 228.055,
      "duration": 0.278,
      "velocity": 1,
      "hand": "left"
    },
    {
      "midi": 59,
      "time": 228.055,
      "duration": 0.278,
      "velocity": 1,
      "hand": "left"
    },
    {
      "midi": 62,
      "time": 228.055,
      "duration": 0.263,
      "velocity": 1,
      "hand": "right"
    },
    {
      "midi": 62,
      "time": 228.333,
      "duration": 0.278,
      "velocity": 1,
      "hand": "right"
    },
    {
      "midi": 66,
      "time": 228.333,
      "duration": 0.278,
      "velocity": 1,
      "hand": "right"
    },
    {
      "midi": 71,
      "time": 228.333,
      "duration": 0.278,
      "velocity": 1,
      "hand": "right"
    },
    {
      "midi": 61,
      "time": 228.611,
      "duration": 0.278,
      "velocity": 1,
      "hand": "right"
    },
    {
      "midi": 65,
      "time": 228.611,
      "duration": 0.278,
      "velocity": 1,
      "hand": "right"
    },
    {
      "midi": 62,
      "time": 228.889,
      "duration": 0.556,
      "velocity": 1,
      "hand": "right"
    },
    {
      "midi": 66,
      "time": 228.889,
      "duration": 0.556,
      "velocity": 1,
      "hand": "right"
    },
    {
      "midi": 71,
      "time": 228.889,
      "duration": 0.556,
      "velocity": 1,
      "hand": "right"
    },
    {
      "midi": 47,
      "time": 229.166,
      "duration": 0.278,
      "velocity": 1,
      "hand": "left"
    },
    {
      "midi": 61,
      "time": 229.444,
      "duration": 0.278,
      "velocity": 1,
      "hand": "right"
    },
    {
      "midi": 64,
      "time": 229.444,
      "duration": 0.278,
      "velocity": 1,
      "hand": "right"
    },
    {
      "midi": 70,
      "time": 229.444,
      "duration": 0.278,
      "velocity": 1,
      "hand": "right"
    },
    {
      "midi": 47,
      "time": 229.722,
      "duration": 0.278,
      "velocity": 1,
      "hand": "left"
    },
    {
      "midi": 59,
      "time": 230,
      "duration": 0.278,
      "velocity": 1,
      "hand": "left"
    },
    {
      "midi": 62,
      "time": 230,
      "duration": 0.278,
      "velocity": 1,
      "hand": "right"
    },
    {
      "midi": 67,
      "time": 230,
      "duration": 0.278,
      "velocity": 1,
      "hand": "right"
    },
    {
      "midi": 58,
      "time": 230.278,
      "duration": 0.278,
      "velocity": 1,
      "hand": "left"
    },
    {
      "midi": 61,
      "time": 230.278,
      "duration": 0.278,
      "velocity": 1,
      "hand": "right"
    },
    {
      "midi": 59,
      "time": 230.555,
      "duration": 0.556,
      "velocity": 1,
      "hand": "left"
    },
    {
      "midi": 62,
      "time": 230.555,
      "duration": 0.556,
      "velocity": 1,
      "hand": "right"
    },
    {
      "midi": 67,
      "time": 230.555,
      "duration": 0.556,
      "velocity": 1,
      "hand": "right"
    },
    {
      "midi": 47,
      "time": 230.833,
      "duration": 0.278,
      "velocity": 1,
      "hand": "left"
    },
    {
      "midi": 58,
      "time": 231.111,
      "duration": 0.278,
      "velocity": 1,
      "hand": "left"
    },
    {
      "midi": 61,
      "time": 231.111,
      "duration": 0.278,
      "velocity": 1,
      "hand": "right"
    },
    {
      "midi": 66,
      "time": 231.111,
      "duration": 0.278,
      "velocity": 1,
      "hand": "right"
    },
    {
      "midi": 47,
      "time": 231.389,
      "duration": 0.278,
      "velocity": 1,
      "hand": "left"
    },
    {
      "midi": 57,
      "time": 231.666,
      "duration": 0.278,
      "velocity": 1,
      "hand": "left"
    },
    {
      "midi": 60,
      "time": 231.666,
      "duration": 0.278,
      "velocity": 1,
      "hand": "right"
    },
    {
      "midi": 66,
      "time": 231.666,
      "duration": 0.278,
      "velocity": 1,
      "hand": "right"
    },
    {
      "midi": 56,
      "time": 231.944,
      "duration": 0.278,
      "velocity": 1,
      "hand": "left"
    },
    {
      "midi": 59,
      "time": 231.944,
      "duration": 0.278,
      "velocity": 1,
      "hand": "left"
    },
    {
      "midi": 57,
      "time": 232.222,
      "duration": 0.556,
      "velocity": 1,
      "hand": "left"
    },
    {
      "midi": 60,
      "time": 232.222,
      "duration": 0.556,
      "velocity": 1,
      "hand": "right"
    },
    {
      "midi": 66,
      "time": 232.222,
      "duration": 0.556,
      "velocity": 1,
      "hand": "right"
    },
    {
      "midi": 47,
      "time": 232.5,
      "duration": 0.278,
      "velocity": 1,
      "hand": "left"
    },
    {
      "midi": 56,
      "time": 232.778,
      "duration": 0.278,
      "velocity": 1,
      "hand": "left"
    },
    {
      "midi": 59,
      "time": 232.778,
      "duration": 0.278,
      "velocity": 1,
      "hand": "left"
    },
    {
      "midi": 64,
      "time": 232.778,
      "duration": 0.278,
      "velocity": 1,
      "hand": "right"
    },
    {
      "midi": 47,
      "time": 233.055,
      "duration": 0.278,
      "velocity": 1,
      "hand": "left"
    },
    {
      "midi": 55,
      "time": 233.333,
      "duration": 0.278,
      "velocity": 1,
      "hand": "left"
    },
    {
      "midi": 58,
      "time": 233.333,
      "duration": 0.278,
      "velocity": 1,
      "hand": "left"
    },
    {
      "midi": 64,
      "time": 233.333,
      "duration": 0.278,
      "velocity": 1,
      "hand": "right"
    },
    {
      "midi": 47,
      "time": 233.611,
      "duration": 0.278,
      "velocity": 1,
      "hand": "left"
    },
    {
      "midi": 54,
      "time": 233.889,
      "duration": 0.278,
      "velocity": 1,
      "hand": "left"
    },
    {
      "midi": 58,
      "time": 233.889,
      "duration": 0.278,
      "velocity": 1,
      "hand": "left"
    },
    {
      "midi": 62,
      "time": 233.889,
      "duration": 0.278,
      "velocity": 1,
      "hand": "right"
    },
    {
      "midi": 47,
      "time": 234.166,
      "duration": 0.278,
      "velocity": 1,
      "hand": "left"
    },
    {
      "midi": 52,
      "time": 234.444,
      "duration": 0.278,
      "velocity": 1,
      "hand": "left"
    },
    {
      "midi": 58,
      "time": 234.444,
      "duration": 0.278,
      "velocity": 1,
      "hand": "left"
    },
    {
      "midi": 61,
      "time": 234.444,
      "duration": 0.278,
      "velocity": 1,
      "hand": "right"
    },
    {
      "midi": 47,
      "time": 234.722,
      "duration": 0.278,
      "velocity": 1,
      "hand": "left"
    },
    {
      "midi": 50,
      "time": 234.722,
      "duration": 0.278,
      "velocity": 1,
      "hand": "left"
    },
    {
      "midi": 53,
      "time": 235,
      "duration": 0.278,
      "velocity": 1,
      "hand": "left"
    },
    {
      "midi": 54,
      "time": 235.278,
      "duration": 0.278,
      "velocity": 1,
      "hand": "left"
    },
    {
      "midi": 55,
      "time": 235.555,
      "duration": 0.833,
      "velocity": 1,
      "hand": "left"
    },
    {
      "midi": 62,
      "time": 235.833,
      "duration": 0.278,
      "velocity": 1,
      "hand": "right"
    },
    {
      "midi": 71,
      "time": 235.833,
      "duration": 0.263,
      "velocity": 1,
      "hand": "right"
    },
    {
      "midi": 74,
      "time": 235.833,
      "duration": 0.263,
      "velocity": 1,
      "hand": "right"
    },
    {
      "midi": 64,
      "time": 236.111,
      "duration": 0.278,
      "velocity": 1,
      "hand": "right"
    },
    {
      "midi": 71,
      "time": 236.111,
      "duration": 0.263,
      "velocity": 1,
      "hand": "right"
    },
    {
      "midi": 74,
      "time": 236.111,
      "duration": 0.263,
      "velocity": 1,
      "hand": "right"
    },
    {
      "midi": 43,
      "time": 236.389,
      "duration": 0.278,
      "velocity": 1,
      "hand": "left"
    },
    {
      "midi": 65,
      "time": 236.389,
      "duration": 0.278,
      "velocity": 1,
      "hand": "right"
    },
    {
      "midi": 71,
      "time": 236.389,
      "duration": 0.278,
      "velocity": 1,
      "hand": "right"
    },
    {
      "midi": 74,
      "time": 236.389,
      "duration": 0.278,
      "velocity": 1,
      "hand": "right"
    },
    {
      "midi": 45,
      "time": 236.666,
      "duration": 0.278,
      "velocity": 1,
      "hand": "left"
    },
    {
      "midi": 43,
      "time": 236.944,
      "duration": 0.278,
      "velocity": 1,
      "hand": "left"
    },
    {
      "midi": 42,
      "time": 237.222,
      "duration": 0.833,
      "velocity": 1,
      "hand": "left"
    },
    {
      "midi": 56,
      "time": 237.5,
      "duration": 0.278,
      "velocity": 1,
      "hand": "left"
    },
    {
      "midi": 59,
      "time": 237.5,
      "duration": 0.278,
      "velocity": 1,
      "hand": "left"
    },
    {
      "midi": 66,
      "time": 237.5,
      "duration": 0.278,
      "velocity": 1,
      "hand": "right"
    },
    {
      "midi": 58,
      "time": 237.778,
      "duration": 0.278,
      "velocity": 1,
      "hand": "left"
    },
    {
      "midi": 61,
      "time": 237.778,
      "duration": 0.278,
      "velocity": 1,
      "hand": "right"
    },
    {
      "midi": 64,
      "time": 237.778,
      "duration": 0.278,
      "velocity": 1,
      "hand": "right"
    },
    {
      "midi": 47,
      "time": 238.055,
      "duration": 0.278,
      "velocity": 1,
      "hand": "left"
    },
    {
      "midi": 59,
      "time": 238.055,
      "duration": 0.278,
      "velocity": 1,
      "hand": "left"
    },
    {
      "midi": 62,
      "time": 238.055,
      "duration": 0.278,
      "velocity": 1,
      "hand": "right"
    },
    {
      "midi": 53,
      "time": 238.333,
      "duration": 0.278,
      "velocity": 1,
      "hand": "left"
    },
    {
      "midi": 54,
      "time": 238.611,
      "duration": 0.278,
      "velocity": 1,
      "hand": "left"
    },
    {
      "midi": 55,
      "time": 238.889,
      "duration": 0.818,
      "velocity": 1,
      "hand": "left"
    },
    {
      "midi": 62,
      "time": 239.166,
      "duration": 0.278,
      "velocity": 1,
      "hand": "right"
    },
    {
      "midi": 71,
      "time": 239.166,
      "duration": 0.263,
      "velocity": 1,
      "hand": "right"
    },
    {
      "midi": 74,
      "time": 239.166,
      "duration": 0.263,
      "velocity": 1,
      "hand": "right"
    },
    {
      "midi": 64,
      "time": 239.444,
      "duration": 0.278,
      "velocity": 1,
      "hand": "right"
    },
    {
      "midi": 71,
      "time": 239.444,
      "duration": 0.263,
      "velocity": 1,
      "hand": "right"
    },
    {
      "midi": 74,
      "time": 239.444,
      "duration": 0.263,
      "velocity": 1,
      "hand": "right"
    },
    {
      "midi": 55,
      "time": 239.722,
      "duration": 0.278,
      "velocity": 1,
      "hand": "left"
    },
    {
      "midi": 65,
      "time": 239.722,
      "duration": 0.541,
      "velocity": 1,
      "hand": "right"
    },
    {
      "midi": 71,
      "time": 239.722,
      "duration": 0.541,
      "velocity": 1,
      "hand": "right"
    },
    {
      "midi": 74,
      "time": 239.722,
      "duration": 0.556,
      "velocity": 1,
      "hand": "right"
    },
    {
      "midi": 56,
      "time": 240,
      "duration": 0.556,
      "velocity": 1,
      "hand": "left"
    },
    {
      "midi": 65,
      "time": 240.278,
      "duration": 0.556,
      "velocity": 1,
      "hand": "right"
    },
    {
      "midi": 71,
      "time": 240.278,
      "duration": 0.54,
      "velocity": 1,
      "hand": "right"
    },
    {
      "midi": 73,
      "time": 240.278,
      "duration": 0.54,
      "velocity": 1,
      "hand": "right"
    },
    {
      "midi": 61,
      "time": 240.555,
      "duration": 0.556,
      "velocity": 1,
      "hand": "right"
    },
    {
      "midi": 71,
      "time": 240.833,
      "duration": 0.556,
      "velocity": 1,
      "hand": "right"
    },
    {
      "midi": 73,
      "time": 240.833,
      "duration": 0.541,
      "velocity": 1,
      "hand": "right"
    },
    {
      "midi": 77,
      "time": 240.833,
      "duration": 0.556,
      "velocity": 1,
      "hand": "right"
    },
    {
      "midi": 68,
      "time": 241.111,
      "duration": 0.278,
      "velocity": 1,
      "hand": "right"
    },
    {
      "midi": 66,
      "time": 241.389,
      "duration": 0.278,
      "velocity": 1,
      "hand": "right"
    },
    {
      "midi": 70,
      "time": 241.389,
      "duration": 0.278,
      "velocity": 1,
      "hand": "right"
    },
    {
      "midi": 73,
      "time": 241.389,
      "duration": 0.278,
      "velocity": 1,
      "hand": "right"
    },
    {
      "midi": 78,
      "time": 241.389,
      "duration": 0.262,
      "velocity": 1,
      "hand": "right"
    },
    {
      "midi": 74,
      "time": 241.666,
      "duration": 0.278,
      "velocity": 1,
      "hand": "right"
    },
    {
      "midi": 78,
      "time": 241.666,
      "duration": 0.278,
      "velocity": 1,
      "hand": "right"
    },
    {
      "midi": 83,
      "time": 241.666,
      "duration": 0.278,
      "velocity": 1,
      "hand": "right"
    },
    {
      "midi": 73,
      "time": 241.944,
      "duration": 0.278,
      "velocity": 1,
      "hand": "right"
    },
    {
      "midi": 77,
      "time": 241.944,
      "duration": 0.278,
      "velocity": 1,
      "hand": "right"
    },
    {
      "midi": 74,
      "time": 242.222,
      "duration": 0.556,
      "velocity": 1,
      "hand": "right"
    },
    {
      "midi": 78,
      "time": 242.222,
      "duration": 0.556,
      "velocity": 1,
      "hand": "right"
    },
    {
      "midi": 83,
      "time": 242.222,
      "duration": 0.556,
      "velocity": 1,
      "hand": "right"
    },
    {
      "midi": 66,
      "time": 242.5,
      "duration": 0.278,
      "velocity": 1,
      "hand": "right"
    },
    {
      "midi": 73,
      "time": 242.778,
      "duration": 0.278,
      "velocity": 1,
      "hand": "right"
    },
    {
      "midi": 76,
      "time": 242.778,
      "duration": 0.278,
      "velocity": 1,
      "hand": "right"
    },
    {
      "midi": 82,
      "time": 242.778,
      "duration": 0.278,
      "velocity": 1,
      "hand": "right"
    },
    {
      "midi": 66,
      "time": 243.055,
      "duration": 1.096,
      "velocity": 1,
      "hand": "right"
    },
    {
      "midi": 71,
      "time": 243.333,
      "duration": 0.278,
      "velocity": 1,
      "hand": "right"
    },
    {
      "midi": 74,
      "time": 243.333,
      "duration": 0.278,
      "velocity": 1,
      "hand": "right"
    },
    {
      "midi": 79,
      "time": 243.333,
      "duration": 0.278,
      "velocity": 1,
      "hand": "right"
    },
    {
      "midi": 70,
      "time": 243.611,
      "duration": 0.278,
      "velocity": 1,
      "hand": "right"
    },
    {
      "midi": 73,
      "time": 243.611,
      "duration": 0.278,
      "velocity": 1,
      "hand": "right"
    },
    {
      "midi": 71,
      "time": 243.889,
      "duration": 0.556,
      "velocity": 1,
      "hand": "right"
    },
    {
      "midi": 74,
      "time": 243.889,
      "duration": 0.556,
      "velocity": 1,
      "hand": "right"
    },
    {
      "midi": 79,
      "time": 243.889,
      "duration": 0.556,
      "velocity": 1,
      "hand": "right"
    },
    {
      "midi": 66,
      "time": 244.166,
      "duration": 0.541,
      "velocity": 1,
      "hand": "right"
    },
    {
      "midi": 70,
      "time": 244.444,
      "duration": 0.278,
      "velocity": 1,
      "hand": "right"
    },
    {
      "midi": 73,
      "time": 244.444,
      "duration": 0.278,
      "velocity": 1,
      "hand": "right"
    },
    {
      "midi": 78,
      "time": 244.444,
      "duration": 0.278,
      "velocity": 1,
      "hand": "right"
    },
    {
      "midi": 66,
      "time": 244.722,
      "duration": 0.278,
      "velocity": 1,
      "hand": "right"
    },
    {
      "midi": 64,
      "time": 245,
      "duration": 0.818,
      "velocity": 1,
      "hand": "right"
    },
    {
      "midi": 69,
      "time": 245,
      "duration": 0.833,
      "velocity": 1,
      "hand": "right"
    },
    {
      "midi": 72,
      "time": 245,
      "duration": 0.278,
      "velocity": 1,
      "hand": "right"
    },
    {
      "midi": 78,
      "time": 245,
      "duration": 0.278,
      "velocity": 1,
      "hand": "right"
    },
    {
      "midi": 71,
      "time": 245.278,
      "duration": 0.278,
      "velocity": 1,
      "hand": "right"
    },
    {
      "midi": 72,
      "time": 245.555,
      "duration": 0.263,
      "velocity": 1,
      "hand": "right"
    },
    {
      "midi": 78,
      "time": 245.555,
      "duration": 0.278,
      "velocity": 1,
      "hand": "right"
    },
    {
      "midi": 57,
      "time": 245.833,
      "duration": 0.818,
      "velocity": 1,
      "hand": "left"
    },
    {
      "midi": 64,
      "time": 245.833,
      "duration": 0.818,
      "velocity": 1,
      "hand": "right"
    },
    {
      "midi": 66,
      "time": 245.833,
      "duration": 0.278,
      "velocity": 1,
      "hand": "right"
    },
    {
      "midi": 72,
      "time": 245.833,
      "duration": 0.278,
      "velocity": 1,
      "hand": "right"
    },
    {
      "midi": 65,
      "time": 246.111,
      "duration": 0.278,
      "velocity": 1,
      "hand": "right"
    },
    {
      "midi": 66,
      "time": 246.389,
      "duration": 0.278,
      "velocity": 1,
      "hand": "right"
    },
    {
      "midi": 72,
      "time": 246.389,
      "duration": 0.278,
      "velocity": 1,
      "hand": "right"
    },
    {
      "midi": 54,
      "time": 246.666,
      "duration": 0.833,
      "velocity": 1,
      "hand": "left"
    },
    {
      "midi": 57,
      "time": 246.666,
      "duration": 0.833,
      "velocity": 1,
      "hand": "left"
    },
    {
      "midi": 60,
      "time": 246.666,
      "duration": 0.278,
      "velocity": 1,
      "hand": "right"
    },
    {
      "midi": 64,
      "time": 246.666,
      "duration": 0.278,
      "velocity": 1,
      "hand": "right"
    },
    {
      "midi": 59,
      "time": 246.944,
      "duration": 0.278,
      "velocity": 1,
      "hand": "left"
    },
    {
      "midi": 60,
      "time": 247.222,
      "duration": 0.278,
      "velocity": 1,
      "hand": "right"
    },
    {
      "midi": 64,
      "time": 247.222,
      "duration": 0.278,
      "velocity": 1,
      "hand": "right"
    },
    {
      "midi": 48,
      "time": 247.5,
      "duration": 0.278,
      "velocity": 1,
      "hand": "left"
    },
    {
      "midi": 47,
      "time": 247.778,
      "duration": 0.278,
      "velocity": 1,
      "hand": "left"
    },
    {
      "midi": 54,
      "time": 247.778,
      "duration": 0.278,
      "velocity": 1,
      "hand": "left"
    },
    {
      "midi": 63,
      "time": 247.778,
      "duration": 0.278,
      "velocity": 1,
      "hand": "right"
    },
    {
      "midi": 52,
      "time": 248.055,
      "duration": 0.278,
      "velocity": 1,
      "hand": "left"
    },
    {
      "midi": 55,
      "time": 248.055,
      "duration": 0.278,
      "velocity": 1,
      "hand": "left"
    },
    {
      "midi": 64,
      "time": 248.055,
      "duration": 0.278,
      "velocity": 1,
      "hand": "right"
    },
    {
      "midi": 76,
      "time": 248.333,
      "duration": 0.278,
      "velocity": 1,
      "hand": "right"
    },
    {
      "midi": 79,
      "time": 248.333,
      "duration": 0.278,
      "velocity": 1,
      "hand": "right"
    },
    {
      "midi": 83,
      "time": 248.333,
      "duration": 0.278,
      "velocity": 1,
      "hand": "right"
    },
    {
      "midi": 78,
      "time": 248.611,
      "duration": 0.278,
      "velocity": 1,
      "hand": "right"
    },
    {
      "midi": 82,
      "time": 248.611,
      "duration": 0.278,
      "velocity": 1,
      "hand": "right"
    },
    {
      "midi": 76,
      "time": 248.889,
      "duration": 0.556,
      "velocity": 1,
      "hand": "right"
    },
    {
      "midi": 79,
      "time": 248.889,
      "duration": 0.556,
      "velocity": 1,
      "hand": "right"
    },
    {
      "midi": 83,
      "time": 248.889,
      "duration": 0.556,
      "velocity": 1,
      "hand": "right"
    },
    {
      "midi": 71,
      "time": 249.166,
      "duration": 0.278,
      "velocity": 1,
      "hand": "right"
    },
    {
      "midi": 75,
      "time": 249.444,
      "duration": 0.278,
      "velocity": 1,
      "hand": "right"
    },
    {
      "midi": 78,
      "time": 249.444,
      "duration": 0.278,
      "velocity": 1,
      "hand": "right"
    },
    {
      "midi": 81,
      "time": 249.444,
      "duration": 0.278,
      "velocity": 1,
      "hand": "right"
    },
    {
      "midi": 71,
      "time": 249.722,
      "duration": 1.096,
      "velocity": 1,
      "hand": "right"
    },
    {
      "midi": 76,
      "time": 250,
      "duration": 0.278,
      "velocity": 1,
      "hand": "right"
    },
    {
      "midi": 79,
      "time": 250,
      "duration": 0.278,
      "velocity": 1,
      "hand": "right"
    },
    {
      "midi": 84,
      "time": 250,
      "duration": 0.278,
      "velocity": 1,
      "hand": "right"
    },
    {
      "midi": 75,
      "time": 250.278,
      "duration": 0.278,
      "velocity": 1,
      "hand": "right"
    },
    {
      "midi": 78,
      "time": 250.278,
      "duration": 0.278,
      "velocity": 1,
      "hand": "right"
    },
    {
      "midi": 76,
      "time": 250.555,
      "duration": 0.556,
      "velocity": 1,
      "hand": "right"
    },
    {
      "midi": 79,
      "time": 250.555,
      "duration": 0.556,
      "velocity": 1,
      "hand": "right"
    },
    {
      "midi": 84,
      "time": 250.555,
      "duration": 0.556,
      "velocity": 1,
      "hand": "right"
    },
    {
      "midi": 71,
      "time": 250.833,
      "duration": 0.541,
      "velocity": 1,
      "hand": "right"
    },
    {
      "midi": 75,
      "time": 251.111,
      "duration": 0.278,
      "velocity": 1,
      "hand": "right"
    },
    {
      "midi": 78,
      "time": 251.111,
      "duration": 0.278,
      "velocity": 1,
      "hand": "right"
    },
    {
      "midi": 83,
      "time": 251.111,
      "duration": 0.278,
      "velocity": 1,
      "hand": "right"
    },
    {
      "midi": 71,
      "time": 251.389,
      "duration": 0.278,
      "velocity": 1,
      "hand": "right"
    },
    {
      "midi": 69,
      "time": 251.666,
      "duration": 0.819,
      "velocity": 1,
      "hand": "right"
    },
    {
      "midi": 74,
      "time": 251.666,
      "duration": 0.833,
      "velocity": 1,
      "hand": "right"
    },
    {
      "midi": 77,
      "time": 251.666,
      "duration": 0.278,
      "velocity": 1,
      "hand": "right"
    },
    {
      "midi": 83,
      "time": 251.666,
      "duration": 0.278,
      "velocity": 1,
      "hand": "right"
    },
    {
      "midi": 76,
      "time": 251.944,
      "duration": 0.278,
      "velocity": 1,
      "hand": "right"
    },
    {
      "midi": 77,
      "time": 252.222,
      "duration": 0.263,
      "velocity": 1,
      "hand": "right"
    },
    {
      "midi": 83,
      "time": 252.222,
      "duration": 0.278,
      "velocity": 1,
      "hand": "right"
    },
    {
      "midi": 62,
      "time": 252.5,
      "duration": 0.818,
      "velocity": 1,
      "hand": "right"
    },
    {
      "midi": 69,
      "time": 252.5,
      "duration": 0.833,
      "velocity": 1,
      "hand": "right"
    },
    {
      "midi": 71,
      "time": 252.5,
      "duration": 0.278,
      "velocity": 1,
      "hand": "right"
    },
    {
      "midi": 77,
      "time": 252.5,
      "duration": 0.278,
      "velocity": 1,
      "hand": "right"
    },
    {
      "midi": 70,
      "time": 252.778,
      "duration": 0.278,
      "velocity": 1,
      "hand": "right"
    },
    {
      "midi": 71,
      "time": 253.055,
      "duration": 0.278,
      "velocity": 1,
      "hand": "right"
    },
    {
      "midi": 77,
      "time": 253.055,
      "duration": 0.278,
      "velocity": 1,
      "hand": "right"
    },
    {
      "midi": 59,
      "time": 253.333,
      "duration": 0.833,
      "velocity": 1,
      "hand": "left"
    },
    {
      "midi": 62,
      "time": 253.333,
      "duration": 0.833,
      "velocity": 1,
      "hand": "right"
    },
    {
      "midi": 65,
      "time": 253.333,
      "duration": 0.278,
      "velocity": 1,
      "hand": "right"
    },
    {
      "midi": 70,
      "time": 253.333,
      "duration": 0.278,
      "velocity": 1,
      "hand": "right"
    },
    {
      "midi": 64,
      "time": 253.611,
      "duration": 0.278,
      "velocity": 1,
      "hand": "right"
    },
    {
      "midi": 65,
      "time": 253.889,
      "duration": 0.278,
      "velocity": 1,
      "hand": "right"
    },
    {
      "midi": 70,
      "time": 253.889,
      "duration": 0.278,
      "velocity": 1,
      "hand": "right"
    },
    {
      "midi": 53,
      "time": 254.166,
      "duration": 0.278,
      "velocity": 1,
      "hand": "left"
    },
    {
      "midi": 52,
      "time": 254.444,
      "duration": 0.278,
      "velocity": 1,
      "hand": "left"
    },
    {
      "midi": 59,
      "time": 254.444,
      "duration": 0.278,
      "velocity": 1,
      "hand": "left"
    },
    {
      "midi": 62,
      "time": 254.444,
      "duration": 0.278,
      "velocity": 1,
      "hand": "right"
    },
    {
      "midi": 68,
      "time": 254.444,
      "duration": 0.278,
      "velocity": 1,
      "hand": "right"
    },
    {
      "midi": 45,
      "time": 254.722,
      "duration": 0.278,
      "velocity": 1,
      "hand": "left"
    },
    {
      "midi": 60,
      "time": 254.722,
      "duration": 0.263,
      "velocity": 1,
      "hand": "right"
    },
    {
      "midi": 69,
      "time": 254.722,
      "duration": 0.263,
      "velocity": 1,
      "hand": "right"
    },
    {
      "midi": 53,
      "time": 255,
      "duration": 0.278,
      "velocity": 1,
      "hand": "left"
    },
    {
      "midi": 60,
      "time": 255,
      "duration": 0.556,
      "velocity": 1,
      "hand": "right"
    },
    {
      "midi": 69,
      "time": 255,
      "duration": 0.556,
      "velocity": 1,
      "hand": "right"
    },
    {
      "midi": 52,
      "time": 255.278,
      "duration": 0.278,
      "velocity": 1,
      "hand": "left"
    },
    {
      "midi": 45,
      "time": 255.555,
      "duration": 0.278,
      "velocity": 1,
      "hand": "left"
    },
    {
      "midi": 62,
      "time": 255.555,
      "duration": 0.556,
      "velocity": 1,
      "hand": "right"
    },
    {
      "midi": 68,
      "time": 255.555,
      "duration": 0.556,
      "velocity": 1,
      "hand": "right"
    },
    {
      "midi": 71,
      "time": 255.555,
      "duration": 0.556,
      "velocity": 1,
      "hand": "right"
    },
    {
      "midi": 53,
      "time": 255.833,
      "duration": 0.278,
      "velocity": 1,
      "hand": "left"
    },
    {
      "midi": 52,
      "time": 256.111,
      "duration": 0.278,
      "velocity": 1,
      "hand": "left"
    },
    {
      "midi": 60,
      "time": 256.111,
      "duration": 0.278,
      "velocity": 1,
      "hand": "right"
    },
    {
      "midi": 69,
      "time": 256.111,
      "duration": 0.278,
      "velocity": 1,
      "hand": "right"
    },
    {
      "midi": 72,
      "time": 256.111,
      "duration": 0.278,
      "velocity": 1,
      "hand": "right"
    },
    {
      "midi": 45,
      "time": 256.389,
      "duration": 0.278,
      "velocity": 1,
      "hand": "left"
    },
    {
      "midi": 53,
      "time": 256.666,
      "duration": 0.278,
      "velocity": 1,
      "hand": "left"
    },
    {
      "midi": 60,
      "time": 256.666,
      "duration": 0.556,
      "velocity": 1,
      "hand": "right"
    },
    {
      "midi": 69,
      "time": 256.666,
      "duration": 0.556,
      "velocity": 1,
      "hand": "right"
    },
    {
      "midi": 52,
      "time": 256.944,
      "duration": 0.278,
      "velocity": 1,
      "hand": "left"
    },
    {
      "midi": 45,
      "time": 257.222,
      "duration": 0.278,
      "velocity": 1,
      "hand": "left"
    },
    {
      "midi": 59,
      "time": 257.222,
      "duration": 0.556,
      "velocity": 1,
      "hand": "left"
    },
    {
      "midi": 62,
      "time": 257.222,
      "duration": 0.556,
      "velocity": 1,
      "hand": "right"
    },
    {
      "midi": 68,
      "time": 257.222,
      "duration": 0.556,
      "velocity": 1,
      "hand": "right"
    },
    {
      "midi": 53,
      "time": 257.5,
      "duration": 0.278,
      "velocity": 1,
      "hand": "left"
    },
    {
      "midi": 52,
      "time": 257.778,
      "duration": 0.278,
      "velocity": 1,
      "hand": "left"
    },
    {
      "midi": 57,
      "time": 257.778,
      "duration": 0.278,
      "velocity": 1,
      "hand": "left"
    },
    {
      "midi": 60,
      "time": 257.778,
      "duration": 0.278,
      "velocity": 1,
      "hand": "right"
    },
    {
      "midi": 69,
      "time": 257.778,
      "duration": 0.278,
      "velocity": 1,
      "hand": "right"
    },
    {
      "midi": 45,
      "time": 258.055,
      "duration": 0.278,
      "velocity": 1,
      "hand": "left"
    },
    {
      "midi": 57,
      "time": 258.333,
      "duration": 0.278,
      "velocity": 1,
      "hand": "left"
    },
    {
      "midi": 64,
      "time": 258.333,
      "duration": 0.556,
      "velocity": 1,
      "hand": "right"
    },
    {
      "midi": 72,
      "time": 258.333,
      "duration": 0.556,
      "velocity": 1,
      "hand": "right"
    },
    {
      "midi": 56,
      "time": 258.611,
      "duration": 0.278,
      "velocity": 1,
      "hand": "left"
    },
    {
      "midi": 48,
      "time": 258.889,
      "duration": 0.278,
      "velocity": 1,
      "hand": "left"
    },
    {
      "midi": 65,
      "time": 258.889,
      "duration": 0.556,
      "velocity": 1,
      "hand": "right"
    },
    {
      "midi": 71,
      "time": 258.889,
      "duration": 0.556,
      "velocity": 1,
      "hand": "right"
    },
    {
      "midi": 74,
      "time": 258.889,
      "duration": 0.556,
      "velocity": 1,
      "hand": "right"
    },
    {
      "midi": 57,
      "time": 259.166,
      "duration": 0.278,
      "velocity": 1,
      "hand": "left"
    },
    {
      "midi": 56,
      "time": 259.444,
      "duration": 0.278,
      "velocity": 1,
      "hand": "left"
    },
    {
      "midi": 64,
      "time": 259.444,
      "duration": 0.278,
      "velocity": 1,
      "hand": "right"
    },
    {
      "midi": 72,
      "time": 259.444,
      "duration": 0.278,
      "velocity": 1,
      "hand": "right"
    },
    {
      "midi": 76,
      "time": 259.444,
      "duration": 0.278,
      "velocity": 1,
      "hand": "right"
    },
    {
      "midi": 48,
      "time": 259.722,
      "duration": 0.278,
      "velocity": 1,
      "hand": "left"
    },
    {
      "midi": 57,
      "time": 260,
      "duration": 0.278,
      "velocity": 1,
      "hand": "left"
    },
    {
      "midi": 64,
      "time": 260,
      "duration": 0.556,
      "velocity": 1,
      "hand": "right"
    },
    {
      "midi": 72,
      "time": 260,
      "duration": 0.556,
      "velocity": 1,
      "hand": "right"
    },
    {
      "midi": 56,
      "time": 260.278,
      "duration": 0.278,
      "velocity": 1,
      "hand": "left"
    },
    {
      "midi": 48,
      "time": 260.555,
      "duration": 0.278,
      "velocity": 1,
      "hand": "left"
    },
    {
      "midi": 62,
      "time": 260.555,
      "duration": 0.556,
      "velocity": 1,
      "hand": "right"
    },
    {
      "midi": 65,
      "time": 260.555,
      "duration": 0.556,
      "velocity": 1,
      "hand": "right"
    },
    {
      "midi": 71,
      "time": 260.555,
      "duration": 0.556,
      "velocity": 1,
      "hand": "right"
    },
    {
      "midi": 57,
      "time": 260.833,
      "duration": 0.278,
      "velocity": 1,
      "hand": "left"
    },
    {
      "midi": 56,
      "time": 261.111,
      "duration": 0.278,
      "velocity": 1,
      "hand": "left"
    },
    {
      "midi": 60,
      "time": 261.111,
      "duration": 0.278,
      "velocity": 1,
      "hand": "right"
    },
    {
      "midi": 64,
      "time": 261.111,
      "duration": 0.278,
      "velocity": 1,
      "hand": "right"
    },
    {
      "midi": 72,
      "time": 261.111,
      "duration": 0.278,
      "velocity": 1,
      "hand": "right"
    },
    {
      "midi": 48,
      "time": 261.389,
      "duration": 0.278,
      "velocity": 1,
      "hand": "left"
    },
    {
      "midi": 60,
      "time": 261.666,
      "duration": 0.278,
      "velocity": 1,
      "hand": "right"
    },
    {
      "midi": 67,
      "time": 261.666,
      "duration": 0.556,
      "velocity": 1,
      "hand": "right"
    },
    {
      "midi": 76,
      "time": 261.666,
      "duration": 0.556,
      "velocity": 1,
      "hand": "right"
    },
    {
      "midi": 59,
      "time": 261.944,
      "duration": 0.278,
      "velocity": 1,
      "hand": "left"
    },
    {
      "midi": 52,
      "time": 262.222,
      "duration": 0.278,
      "velocity": 1,
      "hand": "left"
    },
    {
      "midi": 69,
      "time": 262.222,
      "duration": 0.556,
      "velocity": 1,
      "hand": "right"
    },
    {
      "midi": 75,
      "time": 262.222,
      "duration": 0.556,
      "velocity": 1,
      "hand": "right"
    },
    {
      "midi": 78,
      "time": 262.222,
      "duration": 0.556,
      "velocity": 1,
      "hand": "right"
    },
    {
      "midi": 60,
      "time": 262.5,
      "duration": 0.278,
      "velocity": 1,
      "hand": "right"
    },
    {
      "midi": 59,
      "time": 262.778,
      "duration": 0.278,
      "velocity": 1,
      "hand": "left"
    },
    {
      "midi": 67,
      "time": 262.778,
      "duration": 0.278,
      "velocity": 1,
      "hand": "right"
    },
    {
      "midi": 76,
      "time": 262.778,
      "duration": 0.278,
      "velocity": 1,
      "hand": "right"
    },
    {
      "midi": 79,
      "time": 262.778,
      "duration": 0.278,
      "velocity": 1,
      "hand": "right"
    },
    {
      "midi": 52,
      "time": 263.055,
      "duration": 0.278,
      "velocity": 1,
      "hand": "left"
    },
    {
      "midi": 64,
      "time": 263.333,
      "duration": 0.278,
      "velocity": 1,
      "hand": "right"
    },
    {
      "midi": 71,
      "time": 263.333,
      "duration": 0.556,
      "velocity": 1,
      "hand": "right"
    },
    {
      "midi": 79,
      "time": 263.333,
      "duration": 0.556,
      "velocity": 1,
      "hand": "right"
    },
    {
      "midi": 63,
      "time": 263.611,
      "duration": 0.278,
      "velocity": 1,
      "hand": "right"
    },
    {
      "midi": 55,
      "time": 263.889,
      "duration": 0.278,
      "velocity": 1,
      "hand": "left"
    },
    {
      "midi": 72,
      "time": 263.889,
      "duration": 0.556,
      "velocity": 1,
      "hand": "right"
    },
    {
      "midi": 78,
      "time": 263.889,
      "duration": 0.556,
      "velocity": 1,
      "hand": "right"
    },
    {
      "midi": 81,
      "time": 263.889,
      "duration": 0.556,
      "velocity": 1,
      "hand": "right"
    },
    {
      "midi": 64,
      "time": 264.166,
      "duration": 0.278,
      "velocity": 1,
      "hand": "right"
    },
    {
      "midi": 63,
      "time": 264.444,
      "duration": 0.278,
      "velocity": 1,
      "hand": "right"
    },
    {
      "midi": 71,
      "time": 264.444,
      "duration": 0.278,
      "velocity": 1,
      "hand": "right"
    },
    {
      "midi": 79,
      "time": 264.444,
      "duration": 0.278,
      "velocity": 1,
      "hand": "right"
    },
    {
      "midi": 83,
      "time": 264.444,
      "duration": 0.278,
      "velocity": 1,
      "hand": "right"
    },
    {
      "midi": 55,
      "time": 264.722,
      "duration": 0.278,
      "velocity": 1,
      "hand": "left"
    },
    {
      "midi": 67,
      "time": 265,
      "duration": 0.278,
      "velocity": 1,
      "hand": "right"
    },
    {
      "midi": 74,
      "time": 265,
      "duration": 0.556,
      "velocity": 1,
      "hand": "right"
    },
    {
      "midi": 83,
      "time": 265,
      "duration": 0.556,
      "velocity": 1,
      "hand": "right"
    },
    {
      "midi": 66,
      "time": 265.278,
      "duration": 0.278,
      "velocity": 1,
      "hand": "right"
    },
    {
      "midi": 59,
      "time": 265.555,
      "duration": 0.278,
      "velocity": 1,
      "hand": "left"
    },
    {
      "midi": 73,
      "time": 265.555,
      "duration": 0.556,
      "velocity": 1,
      "hand": "right"
    },
    {
      "midi": 76,
      "time": 265.555,
      "duration": 0.556,
      "velocity": 1,
      "hand": "right"
    },
    {
      "midi": 82,
      "time": 265.555,
      "duration": 0.556,
      "velocity": 1,
      "hand": "right"
    },
    {
      "midi": 67,
      "time": 265.833,
      "duration": 0.278,
      "velocity": 1,
      "hand": "right"
    },
    {
      "midi": 66,
      "time": 266.111,
      "duration": 0.278,
      "velocity": 1,
      "hand": "right"
    },
    {
      "midi": 74,
      "time": 266.111,
      "duration": 0.278,
      "velocity": 1,
      "hand": "right"
    },
    {
      "midi": 83,
      "time": 266.111,
      "duration": 0.278,
      "velocity": 1,
      "hand": "right"
    },
    {
      "midi": 59,
      "time": 266.389,
      "duration": 0.278,
      "velocity": 1,
      "hand": "left"
    },
    {
      "midi": 71,
      "time": 266.666,
      "duration": 0.278,
      "velocity": 1,
      "hand": "right"
    },
    {
      "midi": 74,
      "time": 266.666,
      "duration": 0.556,
      "velocity": 1,
      "hand": "right"
    },
    {
      "midi": 78,
      "time": 266.666,
      "duration": 0.556,
      "velocity": 1,
      "hand": "right"
    },
    {
      "midi": 70,
      "time": 266.944,
      "duration": 0.278,
      "velocity": 1,
      "hand": "right"
    },
    {
      "midi": 62,
      "time": 267.222,
      "duration": 0.278,
      "velocity": 1,
      "hand": "right"
    },
    {
      "midi": 73,
      "time": 267.222,
      "duration": 0.556,
      "velocity": 1,
      "hand": "right"
    },
    {
      "midi": 76,
      "time": 267.222,
      "duration": 0.556,
      "velocity": 1,
      "hand": "right"
    },
    {
      "midi": 79,
      "time": 267.222,
      "duration": 0.556,
      "velocity": 1,
      "hand": "right"
    },
    {
      "midi": 71,
      "time": 267.5,
      "duration": 0.278,
      "velocity": 1,
      "hand": "right"
    },
    {
      "midi": 70,
      "time": 267.778,
      "duration": 0.278,
      "velocity": 1,
      "hand": "right"
    },
    {
      "midi": 74,
      "time": 267.778,
      "duration": 0.278,
      "velocity": 1,
      "hand": "right"
    },
    {
      "midi": 78,
      "time": 267.778,
      "duration": 0.278,
      "velocity": 1,
      "hand": "right"
    },
    {
      "midi": 62,
      "time": 268.055,
      "duration": 0.278,
      "velocity": 1,
      "hand": "right"
    },
    {
      "midi": 70,
      "time": 268.333,
      "duration": 0.278,
      "velocity": 1,
      "hand": "right"
    },
    {
      "midi": 74,
      "time": 268.333,
      "duration": 0.541,
      "velocity": 1,
      "hand": "right"
    },
    {
      "midi": 78,
      "time": 268.333,
      "duration": 0.541,
      "velocity": 1,
      "hand": "right"
    },
    {
      "midi": 62,
      "time": 268.611,
      "duration": 0.278,
      "velocity": 1,
      "hand": "right"
    },
    {
      "midi": 70,
      "time": 268.889,
      "duration": 0.278,
      "velocity": 1,
      "hand": "right"
    },
    {
      "midi": 74,
      "time": 268.889,
      "duration": 0.54,
      "velocity": 1,
      "hand": "right"
    },
    {
      "midi": 78,
      "time": 268.889,
      "duration": 0.54,
      "velocity": 1,
      "hand": "right"
    },
    {
      "midi": 62,
      "time": 269.166,
      "duration": 0.278,
      "velocity": 1,
      "hand": "right"
    },
    {
      "midi": 70,
      "time": 269.444,
      "duration": 0.278,
      "velocity": 1,
      "hand": "right"
    },
    {
      "midi": 74,
      "time": 269.444,
      "duration": 0.556,
      "velocity": 1,
      "hand": "right"
    },
    {
      "midi": 78,
      "time": 269.444,
      "duration": 0.541,
      "velocity": 1,
      "hand": "right"
    },
    {
      "midi": 62,
      "time": 269.722,
      "duration": 0.278,
      "velocity": 1,
      "hand": "right"
    },
    {
      "midi": 70,
      "time": 270,
      "duration": 0.278,
      "velocity": 1,
      "hand": "right"
    },
    {
      "midi": 76,
      "time": 270,
      "duration": 0.54,
      "velocity": 1,
      "hand": "right"
    },
    {
      "midi": 78,
      "time": 270,
      "duration": 0.54,
      "velocity": 1,
      "hand": "right"
    },
    {
      "midi": 61,
      "time": 270.278,
      "duration": 0.278,
      "velocity": 1,
      "hand": "right"
    },
    {
      "midi": 70,
      "time": 270.555,
      "duration": 0.278,
      "velocity": 1,
      "hand": "right"
    },
    {
      "midi": 76,
      "time": 270.555,
      "duration": 0.541,
      "velocity": 1,
      "hand": "right"
    },
    {
      "midi": 78,
      "time": 270.555,
      "duration": 0.541,
      "velocity": 1,
      "hand": "right"
    },
    {
      "midi": 61,
      "time": 270.833,
      "duration": 0.278,
      "velocity": 1,
      "hand": "right"
    },
    {
      "midi": 70,
      "time": 271.111,
      "duration": 0.278,
      "velocity": 1,
      "hand": "right"
    },
    {
      "midi": 76,
      "time": 271.111,
      "duration": 0.54,
      "velocity": 1,
      "hand": "right"
    },
    {
      "midi": 78,
      "time": 271.111,
      "duration": 0.54,
      "velocity": 1,
      "hand": "right"
    },
    {
      "midi": 61,
      "time": 271.389,
      "duration": 0.262,
      "velocity": 1,
      "hand": "right"
    },
    {
      "midi": 61,
      "time": 271.666,
      "duration": 0.278,
      "velocity": 1,
      "hand": "right"
    },
    {
      "midi": 70,
      "time": 271.666,
      "duration": 0.541,
      "velocity": 1,
      "hand": "right"
    },
    {
      "midi": 76,
      "time": 271.666,
      "duration": 0.541,
      "velocity": 1,
      "hand": "right"
    },
    {
      "midi": 78,
      "time": 271.666,
      "duration": 0.541,
      "velocity": 1,
      "hand": "right"
    },
    {
      "midi": 54,
      "time": 271.944,
      "duration": 0.278,
      "velocity": 1,
      "hand": "left"
    },
    {
      "midi": 61,
      "time": 272.222,
      "duration": 0.278,
      "velocity": 1,
      "hand": "right"
    },
    {
      "midi": 70,
      "time": 272.222,
      "duration": 0.541,
      "velocity": 1,
      "hand": "right"
    },
    {
      "midi": 76,
      "time": 272.222,
      "duration": 0.541,
      "velocity": 1,
      "hand": "right"
    },
    {
      "midi": 78,
      "time": 272.222,
      "duration": 0.541,
      "velocity": 1,
      "hand": "right"
    },
    {
      "midi": 54,
      "time": 272.5,
      "duration": 0.278,
      "velocity": 1,
      "hand": "left"
    },
    {
      "midi": 61,
      "time": 272.778,
      "duration": 0.278,
      "velocity": 1,
      "hand": "right"
    },
    {
      "midi": 70,
      "time": 272.778,
      "duration": 0.556,
      "velocity": 1,
      "hand": "right"
    },
    {
      "midi": 76,
      "time": 272.778,
      "duration": 0.556,
      "velocity": 1,
      "hand": "right"
    },
    {
      "midi": 78,
      "time": 272.778,
      "duration": 0.556,
      "velocity": 1,
      "hand": "right"
    },
    {
      "midi": 54,
      "time": 273.055,
      "duration": 0.278,
      "velocity": 1,
      "hand": "left"
    },
    {
      "midi": 49,
      "time": 273.333,
      "duration": 0.278,
      "velocity": 1,
      "hand": "left"
    },
    {
      "midi": 58,
      "time": 273.333,
      "duration": 0.541,
      "velocity": 1,
      "hand": "left"
    },
    {
      "midi": 64,
      "time": 273.333,
      "duration": 0.541,
      "velocity": 1,
      "hand": "right"
    },
    {
      "midi": 66,
      "time": 273.333,
      "duration": 0.541,
      "velocity": 1,
      "hand": "right"
    },
    {
      "midi": 42,
      "time": 273.611,
      "duration": 0.278,
      "velocity": 1,
      "hand": "left"
    },
    {
      "midi": 49,
      "time": 273.889,
      "duration": 0.278,
      "velocity": 1,
      "hand": "left"
    },
    {
      "midi": 58,
      "time": 273.889,
      "duration": 0.54,
      "velocity": 1,
      "hand": "left"
    },
    {
      "midi": 64,
      "time": 273.889,
      "duration": 0.54,
      "velocity": 1,
      "hand": "right"
    },
    {
      "midi": 66,
      "time": 273.889,
      "duration": 0.54,
      "velocity": 1,
      "hand": "right"
    },
    {
      "midi": 42,
      "time": 274.166,
      "duration": 0.278,
      "velocity": 1,
      "hand": "left"
    },
    {
      "midi": 49,
      "time": 274.444,
      "duration": 0.278,
      "velocity": 1,
      "hand": "left"
    },
    {
      "midi": 58,
      "time": 274.444,
      "duration": 0.556,
      "velocity": 1,
      "hand": "left"
    },
    {
      "midi": 64,
      "time": 274.444,
      "duration": 0.556,
      "velocity": 1,
      "hand": "right"
    },
    {
      "midi": 66,
      "time": 274.444,
      "duration": 0.541,
      "velocity": 1,
      "hand": "right"
    },
    {
      "midi": 42,
      "time": 274.722,
      "duration": 0.278,
      "velocity": 1,
      "hand": "left"
    },
    {
      "midi": 62,
      "time": 275,
      "duration": 0.278,
      "velocity": 1,
      "hand": "right"
    },
    {
      "midi": 66,
      "time": 275,
      "duration": 0.278,
      "velocity": 1,
      "hand": "right"
    },
    {
      "midi": 71,
      "time": 275,
      "duration": 0.278,
      "velocity": 1,
      "hand": "right"
    },
    {
      "midi": 61,
      "time": 275.278,
      "duration": 0.278,
      "velocity": 1,
      "hand": "right"
    },
    {
      "midi": 65,
      "time": 275.278,
      "duration": 0.278,
      "velocity": 1,
      "hand": "right"
    },
    {
      "midi": 62,
      "time": 275.555,
      "duration": 0.556,
      "velocity": 1,
      "hand": "right"
    },
    {
      "midi": 66,
      "time": 275.555,
      "duration": 0.556,
      "velocity": 1,
      "hand": "right"
    },
    {
      "midi": 71,
      "time": 275.555,
      "duration": 0.556,
      "velocity": 1,
      "hand": "right"
    },
    {
      "midi": 47,
      "time": 275.833,
      "duration": 0.278,
      "velocity": 1,
      "hand": "left"
    },
    {
      "midi": 61,
      "time": 276.111,
      "duration": 0.278,
      "velocity": 1,
      "hand": "right"
    },
    {
      "midi": 64,
      "time": 276.111,
      "duration": 0.278,
      "velocity": 1,
      "hand": "right"
    },
    {
      "midi": 70,
      "time": 276.111,
      "duration": 0.278,
      "velocity": 1,
      "hand": "right"
    },
    {
      "midi": 47,
      "time": 276.389,
      "duration": 0.278,
      "velocity": 1,
      "hand": "left"
    },
    {
      "midi": 59,
      "time": 276.666,
      "duration": 0.278,
      "velocity": 1,
      "hand": "left"
    },
    {
      "midi": 62,
      "time": 276.666,
      "duration": 0.278,
      "velocity": 1,
      "hand": "right"
    },
    {
      "midi": 67,
      "time": 276.666,
      "duration": 0.278,
      "velocity": 1,
      "hand": "right"
    },
    {
      "midi": 58,
      "time": 276.944,
      "duration": 0.278,
      "velocity": 1,
      "hand": "left"
    },
    {
      "midi": 61,
      "time": 276.944,
      "duration": 0.278,
      "velocity": 1,
      "hand": "right"
    },
    {
      "midi": 66,
      "time": 276.944,
      "duration": 0.278,
      "velocity": 1,
      "hand": "right"
    },
    {
      "midi": 59,
      "time": 277.222,
      "duration": 0.556,
      "velocity": 1,
      "hand": "left"
    },
    {
      "midi": 62,
      "time": 277.222,
      "duration": 0.556,
      "velocity": 1,
      "hand": "right"
    },
    {
      "midi": 67,
      "time": 277.222,
      "duration": 0.556,
      "velocity": 1,
      "hand": "right"
    },
    {
      "midi": 47,
      "time": 277.5,
      "duration": 0.278,
      "velocity": 1,
      "hand": "left"
    },
    {
      "midi": 58,
      "time": 277.778,
      "duration": 0.278,
      "velocity": 1,
      "hand": "left"
    },
    {
      "midi": 61,
      "time": 277.778,
      "duration": 0.278,
      "velocity": 1,
      "hand": "right"
    },
    {
      "midi": 66,
      "time": 277.778,
      "duration": 0.278,
      "velocity": 1,
      "hand": "right"
    },
    {
      "midi": 47,
      "time": 278.055,
      "duration": 0.278,
      "velocity": 1,
      "hand": "left"
    },
    {
      "midi": 57,
      "time": 278.333,
      "duration": 0.278,
      "velocity": 1,
      "hand": "left"
    },
    {
      "midi": 60,
      "time": 278.333,
      "duration": 0.278,
      "velocity": 1,
      "hand": "right"
    },
    {
      "midi": 66,
      "time": 278.333,
      "duration": 0.278,
      "velocity": 1,
      "hand": "right"
    },
    {
      "midi": 56,
      "time": 278.611,
      "duration": 0.278,
      "velocity": 1,
      "hand": "left"
    },
    {
      "midi": 59,
      "time": 278.611,
      "duration": 0.278,
      "velocity": 1,
      "hand": "left"
    },
    {
      "midi": 57,
      "time": 278.889,
      "duration": 0.556,
      "velocity": 1,
      "hand": "left"
    },
    {
      "midi": 60,
      "time": 278.889,
      "duration": 0.556,
      "velocity": 1,
      "hand": "right"
    },
    {
      "midi": 66,
      "time": 278.889,
      "duration": 0.556,
      "velocity": 1,
      "hand": "right"
    },
    {
      "midi": 47,
      "time": 279.166,
      "duration": 0.278,
      "velocity": 1,
      "hand": "left"
    },
    {
      "midi": 56,
      "time": 279.444,
      "duration": 0.278,
      "velocity": 1,
      "hand": "left"
    },
    {
      "midi": 59,
      "time": 279.444,
      "duration": 0.278,
      "velocity": 1,
      "hand": "left"
    },
    {
      "midi": 64,
      "time": 279.444,
      "duration": 0.278,
      "velocity": 1,
      "hand": "right"
    },
    {
      "midi": 47,
      "time": 279.722,
      "duration": 0.278,
      "velocity": 1,
      "hand": "left"
    },
    {
      "midi": 55,
      "time": 280,
      "duration": 0.278,
      "velocity": 1,
      "hand": "left"
    },
    {
      "midi": 58,
      "time": 280,
      "duration": 0.278,
      "velocity": 1,
      "hand": "left"
    },
    {
      "midi": 64,
      "time": 280,
      "duration": 0.278,
      "velocity": 1,
      "hand": "right"
    },
    {
      "midi": 47,
      "time": 280.278,
      "duration": 0.278,
      "velocity": 1,
      "hand": "left"
    },
    {
      "midi": 54,
      "time": 280.555,
      "duration": 0.278,
      "velocity": 1,
      "hand": "left"
    },
    {
      "midi": 58,
      "time": 280.555,
      "duration": 0.278,
      "velocity": 1,
      "hand": "left"
    },
    {
      "midi": 62,
      "time": 280.555,
      "duration": 0.278,
      "velocity": 1,
      "hand": "right"
    },
    {
      "midi": 47,
      "time": 280.833,
      "duration": 0.278,
      "velocity": 1,
      "hand": "left"
    },
    {
      "midi": 52,
      "time": 281.111,
      "duration": 0.278,
      "velocity": 1,
      "hand": "left"
    },
    {
      "midi": 58,
      "time": 281.111,
      "duration": 0.278,
      "velocity": 1,
      "hand": "left"
    },
    {
      "midi": 61,
      "time": 281.111,
      "duration": 0.278,
      "velocity": 1,
      "hand": "right"
    },
    {
      "midi": 47,
      "time": 281.389,
      "duration": 0.278,
      "velocity": 1,
      "hand": "left"
    },
    {
      "midi": 50,
      "time": 281.389,
      "duration": 0.278,
      "velocity": 1,
      "hand": "left"
    },
    {
      "midi": 53,
      "time": 281.666,
      "duration": 0.278,
      "velocity": 1,
      "hand": "left"
    },
    {
      "midi": 54,
      "time": 281.944,
      "duration": 0.278,
      "velocity": 1,
      "hand": "left"
    },
    {
      "midi": 55,
      "time": 282.222,
      "duration": 0.833,
      "velocity": 1,
      "hand": "left"
    },
    {
      "midi": 62,
      "time": 282.5,
      "duration": 0.278,
      "velocity": 1,
      "hand": "right"
    },
    {
      "midi": 71,
      "time": 282.5,
      "duration": 0.263,
      "velocity": 1,
      "hand": "right"
    },
    {
      "midi": 74,
      "time": 282.5,
      "duration": 0.263,
      "velocity": 1,
      "hand": "right"
    },
    {
      "midi": 64,
      "time": 282.778,
      "duration": 0.278,
      "velocity": 1,
      "hand": "right"
    },
    {
      "midi": 71,
      "time": 282.778,
      "duration": 0.262,
      "velocity": 1,
      "hand": "right"
    },
    {
      "midi": 74,
      "time": 282.778,
      "duration": 0.262,
      "velocity": 1,
      "hand": "right"
    },
    {
      "midi": 43,
      "time": 283.055,
      "duration": 0.278,
      "velocity": 1,
      "hand": "left"
    },
    {
      "midi": 65,
      "time": 283.055,
      "duration": 0.278,
      "velocity": 1,
      "hand": "right"
    },
    {
      "midi": 71,
      "time": 283.055,
      "duration": 0.278,
      "velocity": 1,
      "hand": "right"
    },
    {
      "midi": 74,
      "time": 283.055,
      "duration": 0.278,
      "velocity": 1,
      "hand": "right"
    },
    {
      "midi": 45,
      "time": 283.333,
      "duration": 0.278,
      "velocity": 1,
      "hand": "left"
    },
    {
      "midi": 43,
      "time": 283.611,
      "duration": 0.278,
      "velocity": 1,
      "hand": "left"
    },
    {
      "midi": 42,
      "time": 283.889,
      "duration": 0.833,
      "velocity": 1,
      "hand": "left"
    },
    {
      "midi": 56,
      "time": 284.166,
      "duration": 0.278,
      "velocity": 1,
      "hand": "left"
    },
    {
      "midi": 59,
      "time": 284.166,
      "duration": 0.278,
      "velocity": 1,
      "hand": "left"
    },
    {
      "midi": 66,
      "time": 284.166,
      "duration": 0.278,
      "velocity": 1,
      "hand": "right"
    },
    {
      "midi": 58,
      "time": 284.444,
      "duration": 0.278,
      "velocity": 1,
      "hand": "left"
    },
    {
      "midi": 61,
      "time": 284.444,
      "duration": 0.278,
      "velocity": 1,
      "hand": "right"
    },
    {
      "midi": 64,
      "time": 284.444,
      "duration": 0.278,
      "velocity": 1,
      "hand": "right"
    },
    {
      "midi": 47,
      "time": 284.722,
      "duration": 0.278,
      "velocity": 1,
      "hand": "left"
    },
    {
      "midi": 59,
      "time": 284.722,
      "duration": 0.278,
      "velocity": 1,
      "hand": "left"
    },
    {
      "midi": 62,
      "time": 284.722,
      "duration": 0.278,
      "velocity": 1,
      "hand": "right"
    },
    {
      "midi": 53,
      "time": 285,
      "duration": 0.278,
      "velocity": 1,
      "hand": "left"
    },
    {
      "midi": 54,
      "time": 285.278,
      "duration": 0.278,
      "velocity": 1,
      "hand": "left"
    },
    {
      "midi": 55,
      "time": 285.555,
      "duration": 0.833,
      "velocity": 1,
      "hand": "left"
    },
    {
      "midi": 62,
      "time": 285.833,
      "duration": 0.278,
      "velocity": 1,
      "hand": "right"
    },
    {
      "midi": 71,
      "time": 285.833,
      "duration": 0.263,
      "velocity": 1,
      "hand": "right"
    },
    {
      "midi": 74,
      "time": 285.833,
      "duration": 0.263,
      "velocity": 1,
      "hand": "right"
    },
    {
      "midi": 64,
      "time": 286.111,
      "duration": 0.278,
      "velocity": 1,
      "hand": "right"
    },
    {
      "midi": 71,
      "time": 286.111,
      "duration": 0.263,
      "velocity": 1,
      "hand": "right"
    },
    {
      "midi": 74,
      "time": 286.111,
      "duration": 0.263,
      "velocity": 1,
      "hand": "right"
    },
    {
      "midi": 43,
      "time": 286.389,
      "duration": 0.278,
      "velocity": 1,
      "hand": "left"
    },
    {
      "midi": 65,
      "time": 286.389,
      "duration": 0.278,
      "velocity": 1,
      "hand": "right"
    },
    {
      "midi": 71,
      "time": 286.389,
      "duration": 0.278,
      "velocity": 1,
      "hand": "right"
    },
    {
      "midi": 74,
      "time": 286.389,
      "duration": 0.278,
      "velocity": 1,
      "hand": "right"
    },
    {
      "midi": 45,
      "time": 286.666,
      "duration": 0.278,
      "velocity": 1,
      "hand": "left"
    },
    {
      "midi": 43,
      "time": 286.944,
      "duration": 0.278,
      "velocity": 1,
      "hand": "left"
    },
    {
      "midi": 42,
      "time": 287.222,
      "duration": 0.833,
      "velocity": 1,
      "hand": "left"
    },
    {
      "midi": 56,
      "time": 287.5,
      "duration": 0.278,
      "velocity": 1,
      "hand": "left"
    },
    {
      "midi": 59,
      "time": 287.5,
      "duration": 0.278,
      "velocity": 1,
      "hand": "left"
    },
    {
      "midi": 66,
      "time": 287.5,
      "duration": 0.278,
      "velocity": 1,
      "hand": "right"
    },
    {
      "midi": 58,
      "time": 287.778,
      "duration": 0.278,
      "velocity": 1,
      "hand": "left"
    },
    {
      "midi": 61,
      "time": 287.778,
      "duration": 0.278,
      "velocity": 1,
      "hand": "right"
    },
    {
      "midi": 64,
      "time": 287.778,
      "duration": 0.278,
      "velocity": 1,
      "hand": "right"
    },
    {
      "midi": 47,
      "time": 288.055,
      "duration": 0.278,
      "velocity": 1,
      "hand": "left"
    },
    {
      "midi": 59,
      "time": 288.055,
      "duration": 0.278,
      "velocity": 1,
      "hand": "left"
    },
    {
      "midi": 62,
      "time": 288.055,
      "duration": 0.278,
      "velocity": 1,
      "hand": "right"
    },
    {
      "midi": 52,
      "time": 288.333,
      "duration": 0.278,
      "velocity": 1,
      "hand": "left"
    },
    {
      "midi": 50,
      "time": 288.611,
      "duration": 0.278,
      "velocity": 1,
      "hand": "left"
    },
    {
      "midi": 49,
      "time": 288.889,
      "duration": 0.833,
      "velocity": 1,
      "hand": "left"
    },
    {
      "midi": 57,
      "time": 289.166,
      "duration": 0.263,
      "velocity": 1,
      "hand": "left"
    },
    {
      "midi": 64,
      "time": 289.166,
      "duration": 0.263,
      "velocity": 1,
      "hand": "right"
    },
    {
      "midi": 69,
      "time": 289.166,
      "duration": 0.278,
      "velocity": 1,
      "hand": "right"
    },
    {
      "midi": 57,
      "time": 289.444,
      "duration": 0.263,
      "velocity": 1,
      "hand": "left"
    },
    {
      "midi": 64,
      "time": 289.444,
      "duration": 0.278,
      "velocity": 1,
      "hand": "right"
    },
    {
      "midi": 67,
      "time": 289.444,
      "duration": 0.278,
      "velocity": 1,
      "hand": "right"
    },
    {
      "midi": 50,
      "time": 289.722,
      "duration": 0.278,
      "velocity": 1,
      "hand": "left"
    },
    {
      "midi": 57,
      "time": 289.722,
      "duration": 0.278,
      "velocity": 1,
      "hand": "left"
    },
    {
      "midi": 62,
      "time": 289.722,
      "duration": 0.278,
      "velocity": 1,
      "hand": "right"
    },
    {
      "midi": 66,
      "time": 289.722,
      "duration": 0.278,
      "velocity": 1,
      "hand": "right"
    },
    {
      "midi": 56,
      "time": 290,
      "duration": 0.278,
      "velocity": 1,
      "hand": "left"
    },
    {
      "midi": 54,
      "time": 290.278,
      "duration": 0.278,
      "velocity": 1,
      "hand": "left"
    },
    {
      "midi": 53,
      "time": 290.555,
      "duration": 0.833,
      "velocity": 1,
      "hand": "left"
    },
    {
      "midi": 61,
      "time": 290.833,
      "duration": 0.263,
      "velocity": 1,
      "hand": "right"
    },
    {
      "midi": 68,
      "time": 290.833,
      "duration": 0.263,
      "velocity": 1,
      "hand": "right"
    },
    {
      "midi": 73,
      "time": 290.833,
      "duration": 0.278,
      "velocity": 1,
      "hand": "right"
    },
    {
      "midi": 61,
      "time": 291.111,
      "duration": 0.263,
      "velocity": 1,
      "hand": "right"
    },
    {
      "midi": 68,
      "time": 291.111,
      "duration": 0.278,
      "velocity": 1,
      "hand": "right"
    },
    {
      "midi": 71,
      "time": 291.111,
      "duration": 0.278,
      "velocity": 1,
      "hand": "right"
    },
    {
      "midi": 54,
      "time": 291.389,
      "duration": 0.278,
      "velocity": 1,
      "hand": "left"
    },
    {
      "midi": 61,
      "time": 291.389,
      "duration": 0.278,
      "velocity": 1,
      "hand": "right"
    },
    {
      "midi": 66,
      "time": 291.389,
      "duration": 0.262,
      "velocity": 1,
      "hand": "right"
    },
    {
      "midi": 70,
      "time": 291.389,
      "duration": 0.278,
      "velocity": 1,
      "hand": "right"
    },
    {
      "midi": 58,
      "time": 291.666,
      "duration": 0.556,
      "velocity": 1,
      "hand": "left"
    },
    {
      "midi": 66,
      "time": 291.666,
      "duration": 0.541,
      "velocity": 1,
      "hand": "right"
    },
    {
      "midi": 73,
      "time": 291.666,
      "duration": 0.556,
      "velocity": 1,
      "hand": "right"
    },
    {
      "midi": 78,
      "time": 291.666,
      "duration": 0.278,
      "velocity": 1,
      "hand": "right"
    },
    {
      "midi": 76,
      "time": 291.944,
      "duration": 0.278,
      "velocity": 1,
      "hand": "right"
    },
    {
      "midi": 56,
      "time": 292.222,
      "duration": 0.278,
      "velocity": 1,
      "hand": "left"
    },
    {
      "midi": 66,
      "time": 292.222,
      "duration": 0.263,
      "velocity": 1,
      "hand": "right"
    },
    {
      "midi": 71,
      "time": 292.222,
      "duration": 0.278,
      "velocity": 1,
      "hand": "right"
    },
    {
      "midi": 74,
      "time": 292.222,
      "duration": 0.278,
      "velocity": 1,
      "hand": "right"
    },
    {
      "midi": 58,
      "time": 292.5,
      "duration": 0.556,
      "velocity": 1,
      "hand": "left"
    },
    {
      "midi": 66,
      "time": 292.5,
      "duration": 0.54,
      "velocity": 1,
      "hand": "right"
    },
    {
      "midi": 73,
      "time": 292.5,
      "duration": 0.556,
      "velocity": 1,
      "hand": "right"
    },
    {
      "midi": 78,
      "time": 292.5,
      "duration": 0.278,
      "velocity": 1,
      "hand": "right"
    },
    {
      "midi": 76,
      "time": 292.778,
      "duration": 0.278,
      "velocity": 1,
      "hand": "right"
    },
    {
      "midi": 56,
      "time": 293.055,
      "duration": 0.278,
      "velocity": 1,
      "hand": "left"
    },
    {
      "midi": 66,
      "time": 293.055,
      "duration": 0.263,
      "velocity": 1,
      "hand": "right"
    },
    {
      "midi": 71,
      "time": 293.055,
      "duration": 0.278,
      "velocity": 1,
      "hand": "right"
    },
    {
      "midi": 74,
      "time": 293.055,
      "duration": 0.278,
      "velocity": 1,
      "hand": "right"
    },
    {
      "midi": 58,
      "time": 293.333,
      "duration": 0.556,
      "velocity": 1,
      "hand": "left"
    },
    {
      "midi": 66,
      "time": 293.333,
      "duration": 0.541,
      "velocity": 1,
      "hand": "right"
    },
    {
      "midi": 73,
      "time": 293.333,
      "duration": 0.556,
      "velocity": 1,
      "hand": "right"
    },
    {
      "midi": 78,
      "time": 293.333,
      "duration": 0.278,
      "velocity": 1,
      "hand": "right"
    },
    {
      "midi": 76,
      "time": 293.611,
      "duration": 0.278,
      "velocity": 1,
      "hand": "right"
    },
    {
      "midi": 56,
      "time": 293.889,
      "duration": 0.278,
      "velocity": 1,
      "hand": "left"
    },
    {
      "midi": 66,
      "time": 293.889,
      "duration": 0.262,
      "velocity": 1,
      "hand": "right"
    },
    {
      "midi": 71,
      "time": 293.889,
      "duration": 0.278,
      "velocity": 1,
      "hand": "right"
    },
    {
      "midi": 74,
      "time": 293.889,
      "duration": 0.278,
      "velocity": 1,
      "hand": "right"
    },
    {
      "midi": 58,
      "time": 294.166,
      "duration": 0.278,
      "velocity": 1,
      "hand": "left"
    },
    {
      "midi": 66,
      "time": 294.166,
      "duration": 0.263,
      "velocity": 1,
      "hand": "right"
    },
    {
      "midi": 73,
      "time": 294.166,
      "duration": 0.278,
      "velocity": 1,
      "hand": "right"
    },
    {
      "midi": 78,
      "time": 294.166,
      "duration": 0.278,
      "velocity": 1,
      "hand": "right"
    },
    {
      "midi": 59,
      "time": 294.444,
      "duration": 0.263,
      "velocity": 1,
      "hand": "left"
    },
    {
      "midi": 66,
      "time": 294.444,
      "duration": 0.278,
      "velocity": 1,
      "hand": "right"
    },
    {
      "midi": 71,
      "time": 294.444,
      "duration": 0.263,
      "velocity": 1,
      "hand": "right"
    },
    {
      "midi": 74,
      "time": 294.444,
      "duration": 0.278,
      "velocity": 1,
      "hand": "right"
    },
    {
      "midi": 52,
      "time": 294.722,
      "duration": 0.818,
      "velocity": 1,
      "hand": "left"
    },
    {
      "midi": 59,
      "time": 294.722,
      "duration": 0.833,
      "velocity": 1,
      "hand": "left"
    },
    {
      "midi": 67,
      "time": 294.722,
      "duration": 0.833,
      "velocity": 1,
      "hand": "right"
    },
    {
      "midi": 71,
      "time": 294.722,
      "duration": 0.833,
      "velocity": 1,
      "hand": "right"
    },
    {
      "midi": 76,
      "time": 294.722,
      "duration": 0.833,
      "velocity": 1,
      "hand": "right"
    },
    {
      "midi": 79,
      "time": 294.722,
      "duration": 0.833,
      "velocity": 1,
      "hand": "right"
    },
    {
      "midi": 52,
      "time": 295.555,
      "duration": 0.556,
      "velocity": 1,
      "hand": "left"
    },
    {
      "midi": 55,
      "time": 295.694,
      "duration": 0.139,
      "velocity": 1,
      "hand": "left"
    },
    {
      "midi": 59,
      "time": 295.833,
      "duration": 0.139,
      "velocity": 1,
      "hand": "left"
    },
    {
      "midi": 61,
      "time": 295.972,
      "duration": 0.139,
      "velocity": 1,
      "hand": "right"
    },
    {
      "midi": 64,
      "time": 296.111,
      "duration": 0.139,
      "velocity": 1,
      "hand": "right"
    },
    {
      "midi": 67,
      "time": 296.25,
      "duration": 0.139,
      "velocity": 1,
      "hand": "right"
    },
    {
      "midi": 76,
      "time": 296.389,
      "duration": 0.139,
      "velocity": 1,
      "hand": "right"
    },
    {
      "midi": 73,
      "time": 296.528,
      "duration": 0.139,
      "velocity": 1,
      "hand": "right"
    },
    {
      "midi": 71,
      "time": 296.666,
      "duration": 0.139,
      "velocity": 1,
      "hand": "right"
    },
    {
      "midi": 67,
      "time": 296.805,
      "duration": 0.139,
      "velocity": 1,
      "hand": "right"
    },
    {
      "midi": 64,
      "time": 296.944,
      "duration": 0.139,
      "velocity": 1,
      "hand": "right"
    },
    {
      "midi": 61,
      "time": 297.083,
      "duration": 0.139,
      "velocity": 1,
      "hand": "right"
    },
    {
      "midi": 59,
      "time": 297.222,
      "duration": 0.139,
      "velocity": 1,
      "hand": "left"
    },
    {
      "midi": 55,
      "time": 297.361,
      "duration": 0.139,
      "velocity": 1,
      "hand": "left"
    },
    {
      "midi": 52,
      "time": 297.5,
      "duration": 0.139,
      "velocity": 1,
      "hand": "left"
    },
    {
      "midi": 49,
      "time": 297.639,
      "duration": 0.139,
      "velocity": 1,
      "hand": "left"
    },
    {
      "midi": 47,
      "time": 297.778,
      "duration": 0.139,
      "velocity": 1,
      "hand": "left"
    },
    {
      "midi": 43,
      "time": 297.916,
      "duration": 0.139,
      "velocity": 1,
      "hand": "left"
    },
    {
      "midi": 40,
      "time": 298.055,
      "duration": 0.278,
      "velocity": 1,
      "hand": "left"
    },
    {
      "midi": 49,
      "time": 298.333,
      "duration": 0.278,
      "velocity": 1,
      "hand": "left"
    },
    {
      "midi": 55,
      "time": 298.611,
      "duration": 0.278,
      "velocity": 1,
      "hand": "left"
    },
    {
      "midi": 59,
      "time": 298.611,
      "duration": 0.278,
      "velocity": 1,
      "hand": "left"
    },
    {
      "midi": 64,
      "time": 298.611,
      "duration": 0.278,
      "velocity": 1,
      "hand": "right"
    },
    {
      "midi": 52,
      "time": 298.889,
      "duration": 0.556,
      "velocity": 1,
      "hand": "left"
    },
    {
      "midi": 59,
      "time": 299.028,
      "duration": 0.139,
      "velocity": 1,
      "hand": "left"
    },
    {
      "midi": 61,
      "time": 299.166,
      "duration": 0.139,
      "velocity": 1,
      "hand": "right"
    },
    {
      "midi": 64,
      "time": 299.305,
      "duration": 0.139,
      "velocity": 1,
      "hand": "right"
    },
    {
      "midi": 67,
      "time": 299.444,
      "duration": 0.139,
      "velocity": 1,
      "hand": "right"
    },
    {
      "midi": 71,
      "time": 299.583,
      "duration": 0.139,
      "velocity": 1,
      "hand": "right"
    },
    {
      "midi": 79,
      "time": 299.722,
      "duration": 0.139,
      "velocity": 1,
      "hand": "right"
    },
    {
      "midi": 76,
      "time": 299.861,
      "duration": 0.139,
      "velocity": 1,
      "hand": "right"
    },
    {
      "midi": 73,
      "time": 300,
      "duration": 0.139,
      "velocity": 1,
      "hand": "right"
    },
    {
      "midi": 71,
      "time": 300.139,
      "duration": 0.139,
      "velocity": 1,
      "hand": "right"
    },
    {
      "midi": 67,
      "time": 300.278,
      "duration": 0.139,
      "velocity": 1,
      "hand": "right"
    },
    {
      "midi": 64,
      "time": 300.416,
      "duration": 0.139,
      "velocity": 1,
      "hand": "right"
    },
    {
      "midi": 61,
      "time": 300.555,
      "duration": 0.139,
      "velocity": 1,
      "hand": "right"
    },
    {
      "midi": 59,
      "time": 300.694,
      "duration": 0.139,
      "velocity": 1,
      "hand": "left"
    },
    {
      "midi": 55,
      "time": 300.833,
      "duration": 0.139,
      "velocity": 1,
      "hand": "left"
    },
    {
      "midi": 52,
      "time": 300.972,
      "duration": 0.139,
      "velocity": 1,
      "hand": "left"
    },
    {
      "midi": 49,
      "time": 301.111,
      "duration": 0.139,
      "velocity": 1,
      "hand": "left"
    },
    {
      "midi": 47,
      "time": 301.25,
      "duration": 0.139,
      "velocity": 1,
      "hand": "left"
    },
    {
      "midi": 43,
      "time": 301.389,
      "duration": 0.278,
      "velocity": 1,
      "hand": "left"
    },
    {
      "midi": 49,
      "time": 301.666,
      "duration": 0.278,
      "velocity": 1,
      "hand": "left"
    },
    {
      "midi": 59,
      "time": 301.944,
      "duration": 0.278,
      "velocity": 1,
      "hand": "left"
    },
    {
      "midi": 64,
      "time": 301.944,
      "duration": 0.278,
      "velocity": 1,
      "hand": "right"
    },
    {
      "midi": 67,
      "time": 301.944,
      "duration": 0.278,
      "velocity": 1,
      "hand": "right"
    },
    {
      "midi": 71,
      "time": 301.944,
      "duration": 0.278,
      "velocity": 1,
      "hand": "right"
    },
    {
      "midi": 42,
      "time": 302.222,
      "duration": 0.556,
      "velocity": 1,
      "hand": "left"
    },
    {
      "midi": 47,
      "time": 302.361,
      "duration": 0.139,
      "velocity": 1,
      "hand": "left"
    },
    {
      "midi": 50,
      "time": 302.5,
      "duration": 0.139,
      "velocity": 1,
      "hand": "left"
    },
    {
      "midi": 54,
      "time": 302.639,
      "duration": 0.139,
      "velocity": 1,
      "hand": "left"
    },
    {
      "midi": 59,
      "time": 302.778,
      "duration": 0.139,
      "velocity": 1,
      "hand": "left"
    },
    {
      "midi": 62,
      "time": 302.916,
      "duration": 0.139,
      "velocity": 1,
      "hand": "right"
    },
    {
      "midi": 54,
      "time": 303.055,
      "duration": 0.139,
      "velocity": 1,
      "hand": "left"
    },
    {
      "midi": 66,
      "time": 303.055,
      "duration": 0.139,
      "velocity": 1,
      "hand": "right"
    },
    {
      "midi": 59,
      "time": 303.194,
      "duration": 0.139,
      "velocity": 1,
      "hand": "left"
    },
    {
      "midi": 71,
      "time": 303.194,
      "duration": 0.139,
      "velocity": 1,
      "hand": "right"
    },
    {
      "midi": 62,
      "time": 303.333,
      "duration": 0.139,
      "velocity": 1,
      "hand": "right"
    },
    {
      "midi": 74,
      "time": 303.333,
      "duration": 0.139,
      "velocity": 1,
      "hand": "right"
    },
    {
      "midi": 66,
      "time": 303.472,
      "duration": 0.139,
      "velocity": 1,
      "hand": "right"
    },
    {
      "midi": 78,
      "time": 303.472,
      "duration": 0.139,
      "velocity": 1,
      "hand": "right"
    },
    {
      "midi": 71,
      "time": 303.611,
      "duration": 0.139,
      "velocity": 1,
      "hand": "right"
    },
    {
      "midi": 83,
      "time": 303.611,
      "duration": 0.139,
      "velocity": 1,
      "hand": "right"
    },
    {
      "midi": 74,
      "time": 303.75,
      "duration": 0.139,
      "velocity": 1,
      "hand": "right"
    },
    {
      "midi": 78,
      "time": 303.889,
      "duration": 0.278,
      "velocity": 1,
      "hand": "right"
    },
    {
      "midi": 64,
      "time": 304.166,
      "duration": 0.278,
      "velocity": 1,
      "hand": "right"
    },
    {
      "midi": 76,
      "time": 304.166,
      "duration": 0.263,
      "velocity": 1,
      "hand": "right"
    },
    {
      "midi": 79,
      "time": 304.166,
      "duration": 0.278,
      "velocity": 1,
      "hand": "right"
    },
    {
      "midi": 61,
      "time": 304.444,
      "duration": 0.278,
      "velocity": 1,
      "hand": "right"
    },
    {
      "midi": 73,
      "time": 304.444,
      "duration": 0.278,
      "velocity": 1,
      "hand": "right"
    },
    {
      "midi": 76,
      "time": 304.444,
      "duration": 0.278,
      "velocity": 1,
      "hand": "right"
    },
    {
      "midi": 62,
      "time": 304.722,
      "duration": 0.278,
      "velocity": 1,
      "hand": "right"
    },
    {
      "midi": 74,
      "time": 304.722,
      "duration": 0.263,
      "velocity": 1,
      "hand": "right"
    },
    {
      "midi": 78,
      "time": 304.722,
      "duration": 0.278,
      "velocity": 1,
      "hand": "right"
    },
    {
      "midi": 59,
      "time": 305,
      "duration": 0.278,
      "velocity": 1,
      "hand": "left"
    },
    {
      "midi": 71,
      "time": 305,
      "duration": 0.278,
      "velocity": 1,
      "hand": "right"
    },
    {
      "midi": 74,
      "time": 305,
      "duration": 0.278,
      "velocity": 1,
      "hand": "right"
    },
    {
      "midi": 61,
      "time": 305.278,
      "duration": 0.278,
      "velocity": 1,
      "hand": "right"
    },
    {
      "midi": 73,
      "time": 305.278,
      "duration": 0.262,
      "velocity": 1,
      "hand": "right"
    },
    {
      "midi": 76,
      "time": 305.278,
      "duration": 0.278,
      "velocity": 1,
      "hand": "right"
    },
    {
      "midi": 58,
      "time": 305.555,
      "duration": 0.278,
      "velocity": 1,
      "hand": "left"
    },
    {
      "midi": 70,
      "time": 305.555,
      "duration": 0.278,
      "velocity": 1,
      "hand": "right"
    },
    {
      "midi": 73,
      "time": 305.555,
      "duration": 0.278,
      "velocity": 1,
      "hand": "right"
    },
    {
      "midi": 59,
      "time": 305.833,
      "duration": 0.278,
      "velocity": 1,
      "hand": "left"
    },
    {
      "midi": 71,
      "time": 305.833,
      "duration": 0.278,
      "velocity": 1,
      "hand": "right"
    },
    {
      "midi": 74,
      "time": 305.833,
      "duration": 0.278,
      "velocity": 1,
      "hand": "right"
    },
    {
      "midi": 54,
      "time": 306.111,
      "duration": 0.278,
      "velocity": 1,
      "hand": "left"
    },
    {
      "midi": 66,
      "time": 306.111,
      "duration": 0.278,
      "velocity": 1,
      "hand": "right"
    },
    {
      "midi": 70,
      "time": 306.111,
      "duration": 0.278,
      "velocity": 1,
      "hand": "right"
    },
    {
      "midi": 82,
      "time": 306.111,
      "duration": 0.278,
      "velocity": 1,
      "hand": "right"
    },
    {
      "midi": 55,
      "time": 306.389,
      "duration": 0.278,
      "velocity": 1,
      "hand": "left"
    },
    {
      "midi": 67,
      "time": 306.389,
      "duration": 0.278,
      "velocity": 1,
      "hand": "right"
    },
    {
      "midi": 71,
      "time": 306.389,
      "duration": 0.278,
      "velocity": 1,
      "hand": "right"
    },
    {
      "midi": 83,
      "time": 306.389,
      "duration": 0.278,
      "velocity": 1,
      "hand": "right"
    },
    {
      "midi": 50,
      "time": 306.666,
      "duration": 0.278,
      "velocity": 1,
      "hand": "left"
    },
    {
      "midi": 62,
      "time": 306.666,
      "duration": 0.278,
      "velocity": 1,
      "hand": "right"
    },
    {
      "midi": 66,
      "time": 306.666,
      "duration": 0.278,
      "velocity": 1,
      "hand": "right"
    },
    {
      "midi": 78,
      "time": 306.666,
      "duration": 0.278,
      "velocity": 1,
      "hand": "right"
    },
    {
      "midi": 52,
      "time": 306.944,
      "duration": 0.278,
      "velocity": 1,
      "hand": "left"
    },
    {
      "midi": 64,
      "time": 306.944,
      "duration": 0.263,
      "velocity": 1,
      "hand": "right"
    },
    {
      "midi": 67,
      "time": 306.944,
      "duration": 0.278,
      "velocity": 1,
      "hand": "right"
    },
    {
      "midi": 79,
      "time": 306.944,
      "duration": 0.278,
      "velocity": 1,
      "hand": "right"
    },
    {
      "midi": 49,
      "time": 307.222,
      "duration": 0.278,
      "velocity": 1,
      "hand": "left"
    },
    {
      "midi": 61,
      "time": 307.222,
      "duration": 0.278,
      "velocity": 1,
      "hand": "right"
    },
    {
      "midi": 64,
      "time": 307.222,
      "duration": 0.278,
      "velocity": 1,
      "hand": "right"
    },
    {
      "midi": 76,
      "time": 307.222,
      "duration": 0.278,
      "velocity": 1,
      "hand": "right"
    },
    {
      "midi": 50,
      "time": 307.5,
      "duration": 0.278,
      "velocity": 1,
      "hand": "left"
    },
    {
      "midi": 62,
      "time": 307.5,
      "duration": 0.263,
      "velocity": 1,
      "hand": "right"
    },
    {
      "midi": 66,
      "time": 307.5,
      "duration": 0.278,
      "velocity": 1,
      "hand": "right"
    },
    {
      "midi": 78,
      "time": 307.5,
      "duration": 0.278,
      "velocity": 1,
      "hand": "right"
    },
    {
      "midi": 47,
      "time": 307.778,
      "duration": 0.278,
      "velocity": 1,
      "hand": "left"
    },
    {
      "midi": 59,
      "time": 307.778,
      "duration": 0.278,
      "velocity": 1,
      "hand": "left"
    },
    {
      "midi": 62,
      "time": 307.778,
      "duration": 0.278,
      "velocity": 1,
      "hand": "right"
    },
    {
      "midi": 74,
      "time": 307.778,
      "duration": 0.278,
      "velocity": 1,
      "hand": "right"
    },
    {
      "midi": 49,
      "time": 308.055,
      "duration": 0.278,
      "velocity": 1,
      "hand": "left"
    },
    {
      "midi": 61,
      "time": 308.055,
      "duration": 0.263,
      "velocity": 1,
      "hand": "right"
    },
    {
      "midi": 64,
      "time": 308.055,
      "duration": 0.278,
      "velocity": 1,
      "hand": "right"
    },
    {
      "midi": 76,
      "time": 308.055,
      "duration": 0.278,
      "velocity": 1,
      "hand": "right"
    },
    {
      "midi": 46,
      "time": 308.333,
      "duration": 0.278,
      "velocity": 1,
      "hand": "left"
    },
    {
      "midi": 58,
      "time": 308.333,
      "duration": 0.278,
      "velocity": 1,
      "hand": "left"
    },
    {
      "midi": 61,
      "time": 308.333,
      "duration": 0.278,
      "velocity": 1,
      "hand": "right"
    },
    {
      "midi": 73,
      "time": 308.333,
      "duration": 0.278,
      "velocity": 1,
      "hand": "right"
    },
    {
      "midi": 47,
      "time": 308.611,
      "duration": 0.278,
      "velocity": 1,
      "hand": "left"
    },
    {
      "midi": 59,
      "time": 308.611,
      "duration": 0.278,
      "velocity": 1,
      "hand": "left"
    },
    {
      "midi": 62,
      "time": 308.611,
      "duration": 0.278,
      "velocity": 1,
      "hand": "right"
    },
    {
      "midi": 74,
      "time": 308.611,
      "duration": 0.278,
      "velocity": 1,
      "hand": "right"
    },
    {
      "midi": 42,
      "time": 308.889,
      "duration": 0.278,
      "velocity": 1,
      "hand": "left"
    },
    {
      "midi": 54,
      "time": 308.889,
      "duration": 0.278,
      "velocity": 1,
      "hand": "left"
    },
    {
      "midi": 70,
      "time": 308.889,
      "duration": 0.278,
      "velocity": 1,
      "hand": "right"
    },
    {
      "midi": 43,
      "time": 309.166,
      "duration": 0.278,
      "velocity": 1,
      "hand": "left"
    },
    {
      "midi": 55,
      "time": 309.166,
      "duration": 0.278,
      "velocity": 1,
      "hand": "left"
    },
    {
      "midi": 71,
      "time": 309.166,
      "duration": 0.278,
      "velocity": 1,
      "hand": "right"
    },
    {
      "midi": 38,
      "time": 309.444,
      "duration": 0.278,
      "velocity": 1,
      "hand": "left"
    },
    {
      "midi": 50,
      "time": 309.444,
      "duration": 0.278,
      "velocity": 1,
      "hand": "left"
    },
    {
      "midi": 66,
      "time": 309.444,
      "duration": 0.278,
      "velocity": 1,
      "hand": "right"
    },
    {
      "midi": 40,
      "time": 309.722,
      "duration": 0.556,
      "velocity": 1,
      "hand": "left"
    },
    {
      "midi": 52,
      "time": 309.722,
      "duration": 0.556,
      "velocity": 1,
      "hand": "left"
    },
    {
      "midi": 67,
      "time": 309.722,
      "duration": 0.556,
      "velocity": 1,
      "hand": "right"
    },
    {
      "midi": 42,
      "time": 310.278,
      "duration": 0.278,
      "velocity": 1,
      "hand": "left"
    },
    {
      "midi": 54,
      "time": 310.278,
      "duration": 0.278,
      "velocity": 1,
      "hand": "left"
    },
    {
      "midi": 61,
      "time": 310.278,
      "duration": 0.278,
      "velocity": 1,
      "hand": "right"
    },
    {
      "midi": 64,
      "time": 310.278,
      "duration": 0.278,
      "velocity": 1,
      "hand": "right"
    },
    {
      "midi": 70,
      "time": 310.278,
      "duration": 0.278,
      "velocity": 1,
      "hand": "right"
    },
    {
      "midi": 47,
      "time": 310.555,
      "duration": 0.278,
      "velocity": 1,
      "hand": "left"
    },
    {
      "midi": 62,
      "time": 310.555,
      "duration": 0.278,
      "velocity": 1,
      "hand": "right"
    },
    {
      "midi": 66,
      "time": 310.555,
      "duration": 0.278,
      "velocity": 1,
      "hand": "right"
    },
    {
      "midi": 71,
      "time": 310.555,
      "duration": 0.278,
      "velocity": 1,
      "hand": "right"
    },
    {
      "midi": 52,
      "time": 310.833,
      "duration": 0.278,
      "velocity": 1,
      "hand": "left"
    },
    {
      "midi": 54,
      "time": 311.111,
      "duration": 0.278,
      "velocity": 1,
      "hand": "left"
    },
    {
      "midi": 55,
      "time": 311.389,
      "duration": 1.111,
      "velocity": 1,
      "hand": "left"
    },
    {
      "midi": 61,
      "time": 311.666,
      "duration": 0.278,
      "velocity": 1,
      "hand": "right"
    },
    {
      "midi": 71,
      "time": 311.666,
      "duration": 0.263,
      "velocity": 1,
      "hand": "right"
    },
    {
      "midi": 73,
      "time": 311.666,
      "duration": 0.263,
      "velocity": 1,
      "hand": "right"
    },
    {
      "midi": 62,
      "time": 311.944,
      "duration": 0.278,
      "velocity": 1,
      "hand": "right"
    },
    {
      "midi": 71,
      "time": 311.944,
      "duration": 0.263,
      "velocity": 1,
      "hand": "right"
    },
    {
      "midi": 73,
      "time": 311.944,
      "duration": 0.263,
      "velocity": 1,
      "hand": "right"
    },
    {
      "midi": 64,
      "time": 312.222,
      "duration": 0.278,
      "velocity": 1,
      "hand": "right"
    },
    {
      "midi": 71,
      "time": 312.222,
      "duration": 0.278,
      "velocity": 1,
      "hand": "right"
    },
    {
      "midi": 73,
      "time": 312.222,
      "duration": 0.278,
      "velocity": 1,
      "hand": "right"
    },
    {
      "midi": 45,
      "time": 312.5,
      "duration": 0.278,
      "velocity": 1,
      "hand": "left"
    },
    {
      "midi": 43,
      "time": 312.778,
      "duration": 0.278,
      "velocity": 1,
      "hand": "left"
    },
    {
      "midi": 42,
      "time": 313.055,
      "duration": 0.833,
      "velocity": 1,
      "hand": "left"
    },
    {
      "midi": 56,
      "time": 313.333,
      "duration": 0.278,
      "velocity": 1,
      "hand": "left"
    },
    {
      "midi": 59,
      "time": 313.333,
      "duration": 0.278,
      "velocity": 1,
      "hand": "left"
    },
    {
      "midi": 66,
      "time": 313.333,
      "duration": 0.263,
      "velocity": 1,
      "hand": "right"
    },
    {
      "midi": 58,
      "time": 313.611,
      "duration": 0.278,
      "velocity": 1,
      "hand": "left"
    },
    {
      "midi": 61,
      "time": 313.611,
      "duration": 0.278,
      "velocity": 1,
      "hand": "right"
    },
    {
      "midi": 66,
      "time": 313.611,
      "duration": 0.263,
      "velocity": 1,
      "hand": "right"
    },
    {
      "midi": 47,
      "time": 313.889,
      "duration": 0.278,
      "velocity": 1,
      "hand": "left"
    },
    {
      "midi": 59,
      "time": 313.889,
      "duration": 0.278,
      "velocity": 1,
      "hand": "left"
    },
    {
      "midi": 62,
      "time": 313.889,
      "duration": 0.278,
      "velocity": 1,
      "hand": "right"
    },
    {
      "midi": 66,
      "time": 313.889,
      "duration": 0.278,
      "velocity": 1,
      "hand": "right"
    },
    {
      "midi": 52,
      "time": 314.166,
      "duration": 0.278,
      "velocity": 1,
      "hand": "left"
    },
    {
      "midi": 54,
      "time": 314.444,
      "duration": 0.278,
      "velocity": 1,
      "hand": "left"
    },
    {
      "midi": 55,
      "time": 314.722,
      "duration": 1.111,
      "velocity": 1,
      "hand": "left"
    },
    {
      "midi": 61,
      "time": 315,
      "duration": 0.278,
      "velocity": 1,
      "hand": "right"
    },
    {
      "midi": 71,
      "time": 315,
      "duration": 0.263,
      "velocity": 1,
      "hand": "right"
    },
    {
      "midi": 73,
      "time": 315,
      "duration": 0.263,
      "velocity": 1,
      "hand": "right"
    },
    {
      "midi": 62,
      "time": 315.278,
      "duration": 0.278,
      "velocity": 1,
      "hand": "right"
    },
    {
      "midi": 71,
      "time": 315.278,
      "duration": 0.262,
      "velocity": 1,
      "hand": "right"
    },
    {
      "midi": 73,
      "time": 315.278,
      "duration": 0.262,
      "velocity": 1,
      "hand": "right"
    },
    {
      "midi": 64,
      "time": 315.555,
      "duration": 0.278,
      "velocity": 1,
      "hand": "right"
    },
    {
      "midi": 71,
      "time": 315.555,
      "duration": 0.278,
      "velocity": 1,
      "hand": "right"
    },
    {
      "midi": 73,
      "time": 315.555,
      "duration": 0.278,
      "velocity": 1,
      "hand": "right"
    },
    {
      "midi": 45,
      "time": 315.833,
      "duration": 0.278,
      "velocity": 1,
      "hand": "left"
    },
    {
      "midi": 43,
      "time": 316.111,
      "duration": 0.278,
      "velocity": 1,
      "hand": "left"
    },
    {
      "midi": 42,
      "time": 316.389,
      "duration": 0.833,
      "velocity": 1,
      "hand": "left"
    },
    {
      "midi": 56,
      "time": 316.666,
      "duration": 0.278,
      "velocity": 1,
      "hand": "left"
    },
    {
      "midi": 59,
      "time": 316.666,
      "duration": 0.278,
      "velocity": 1,
      "hand": "left"
    },
    {
      "midi": 66,
      "time": 316.666,
      "duration": 0.263,
      "velocity": 1,
      "hand": "right"
    },
    {
      "midi": 58,
      "time": 316.944,
      "duration": 0.278,
      "velocity": 1,
      "hand": "left"
    },
    {
      "midi": 61,
      "time": 316.944,
      "duration": 0.278,
      "velocity": 1,
      "hand": "right"
    },
    {
      "midi": 66,
      "time": 316.944,
      "duration": 0.263,
      "velocity": 1,
      "hand": "right"
    },
    {
      "midi": 47,
      "time": 317.222,
      "duration": 0.278,
      "velocity": 1,
      "hand": "left"
    },
    {
      "midi": 59,
      "time": 317.222,
      "duration": 0.263,
      "velocity": 1,
      "hand": "left"
    },
    {
      "midi": 62,
      "time": 317.222,
      "duration": 0.263,
      "velocity": 1,
      "hand": "right"
    },
    {
      "midi": 66,
      "time": 317.222,
      "duration": 0.263,
      "velocity": 1,
      "hand": "right"
    },
    {
      "midi": 50,
      "time": 317.5,
      "duration": 0.263,
      "velocity": 1,
      "hand": "left"
    },
    {
      "midi": 54,
      "time": 317.5,
      "duration": 0.263,
      "velocity": 1,
      "hand": "left"
    },
    {
      "midi": 62,
      "time": 317.5,
      "duration": 0.263,
      "velocity": 1,
      "hand": "right"
    },
    {
      "midi": 66,
      "time": 317.5,
      "duration": 0.263,
      "velocity": 1,
      "hand": "right"
    },
    {
      "midi": 71,
      "time": 317.5,
      "duration": 0.278,
      "velocity": 1,
      "hand": "right"
    },
    {
      "midi": 50,
      "time": 317.778,
      "duration": 0.262,
      "velocity": 1,
      "hand": "left"
    },
    {
      "midi": 54,
      "time": 317.778,
      "duration": 0.262,
      "velocity": 1,
      "hand": "left"
    },
    {
      "midi": 62,
      "time": 317.778,
      "duration": 0.262,
      "velocity": 1,
      "hand": "right"
    },
    {
      "midi": 66,
      "time": 317.778,
      "duration": 0.262,
      "velocity": 1,
      "hand": "right"
    },
    {
      "midi": 70,
      "time": 317.778,
      "duration": 0.278,
      "velocity": 1,
      "hand": "right"
    },
    {
      "midi": 50,
      "time": 318.055,
      "duration": 0.278,
      "velocity": 1,
      "hand": "left"
    },
    {
      "midi": 54,
      "time": 318.055,
      "duration": 0.263,
      "velocity": 1,
      "hand": "left"
    },
    {
      "midi": 62,
      "time": 318.055,
      "duration": 0.263,
      "velocity": 1,
      "hand": "right"
    },
    {
      "midi": 66,
      "time": 318.055,
      "duration": 0.263,
      "velocity": 1,
      "hand": "right"
    },
    {
      "midi": 71,
      "time": 318.055,
      "duration": 0.263,
      "velocity": 1,
      "hand": "right"
    },
    {
      "midi": 54,
      "time": 318.333,
      "duration": 0.263,
      "velocity": 1,
      "hand": "left"
    },
    {
      "midi": 59,
      "time": 318.333,
      "duration": 0.263,
      "velocity": 1,
      "hand": "left"
    },
    {
      "midi": 62,
      "time": 318.333,
      "duration": 0.278,
      "velocity": 1,
      "hand": "right"
    },
    {
      "midi": 66,
      "time": 318.333,
      "duration": 0.263,
      "velocity": 1,
      "hand": "right"
    },
    {
      "midi": 71,
      "time": 318.333,
      "duration": 0.263,
      "velocity": 1,
      "hand": "right"
    },
    {
      "midi": 74,
      "time": 318.333,
      "duration": 0.278,
      "velocity": 1,
      "hand": "right"
    },
    {
      "midi": 54,
      "time": 318.611,
      "duration": 0.263,
      "velocity": 1,
      "hand": "left"
    },
    {
      "midi": 59,
      "time": 318.611,
      "duration": 0.263,
      "velocity": 1,
      "hand": "left"
    },
    {
      "midi": 61,
      "time": 318.611,
      "duration": 0.278,
      "velocity": 1,
      "hand": "right"
    },
    {
      "midi": 66,
      "time": 318.611,
      "duration": 0.263,
      "velocity": 1,
      "hand": "right"
    },
    {
      "midi": 71,
      "time": 318.611,
      "duration": 0.263,
      "velocity": 1,
      "hand": "right"
    },
    {
      "midi": 73,
      "time": 318.611,
      "duration": 0.278,
      "velocity": 1,
      "hand": "right"
    },
    {
      "midi": 54,
      "time": 318.889,
      "duration": 0.278,
      "velocity": 1,
      "hand": "left"
    },
    {
      "midi": 59,
      "time": 318.889,
      "duration": 0.262,
      "velocity": 1,
      "hand": "left"
    },
    {
      "midi": 62,
      "time": 318.889,
      "duration": 0.262,
      "velocity": 1,
      "hand": "right"
    },
    {
      "midi": 66,
      "time": 318.889,
      "duration": 0.262,
      "velocity": 1,
      "hand": "right"
    },
    {
      "midi": 71,
      "time": 318.889,
      "duration": 0.262,
      "velocity": 1,
      "hand": "right"
    },
    {
      "midi": 74,
      "time": 318.889,
      "duration": 0.262,
      "velocity": 1,
      "hand": "right"
    },
    {
      "midi": 59,
      "time": 319.166,
      "duration": 0.263,
      "velocity": 1,
      "hand": "left"
    },
    {
      "midi": 66,
      "time": 319.166,
      "duration": 0.278,
      "velocity": 1,
      "hand": "right"
    },
    {
      "midi": 71,
      "time": 319.166,
      "duration": 0.263,
      "velocity": 1,
      "hand": "right"
    },
    {
      "midi": 74,
      "time": 319.166,
      "duration": 0.263,
      "velocity": 1,
      "hand": "right"
    },
    {
      "midi": 78,
      "time": 319.166,
      "duration": 0.278,
      "velocity": 1,
      "hand": "right"
    },
    {
      "midi": 59,
      "time": 319.444,
      "duration": 0.263,
      "velocity": 1,
      "hand": "left"
    },
    {
      "midi": 65,
      "time": 319.444,
      "duration": 0.278,
      "velocity": 1,
      "hand": "right"
    },
    {
      "midi": 71,
      "time": 319.444,
      "duration": 0.263,
      "velocity": 1,
      "hand": "right"
    },
    {
      "midi": 74,
      "time": 319.444,
      "duration": 0.263,
      "velocity": 1,
      "hand": "right"
    },
    {
      "midi": 77,
      "time": 319.444,
      "duration": 0.278,
      "velocity": 1,
      "hand": "right"
    },
    {
      "midi": 59,
      "time": 319.722,
      "duration": 0.278,
      "velocity": 1,
      "hand": "left"
    },
    {
      "midi": 66,
      "time": 319.722,
      "duration": 0.263,
      "velocity": 1,
      "hand": "right"
    },
    {
      "midi": 71,
      "time": 319.722,
      "duration": 0.263,
      "velocity": 1,
      "hand": "right"
    },
    {
      "midi": 74,
      "time": 319.722,
      "duration": 0.263,
      "velocity": 1,
      "hand": "right"
    },
    {
      "midi": 78,
      "time": 319.722,
      "duration": 0.263,
      "velocity": 1,
      "hand": "right"
    },
    {
      "midi": 71,
      "time": 320,
      "duration": 0.278,
      "velocity": 1,
      "hand": "right"
    },
    {
      "midi": 74,
      "time": 320,
      "duration": 0.263,
      "velocity": 1,
      "hand": "right"
    },
    {
      "midi": 78,
      "time": 320,
      "duration": 0.263,
      "velocity": 1,
      "hand": "right"
    },
    {
      "midi": 83,
      "time": 320,
      "duration": 0.278,
      "velocity": 1,
      "hand": "right"
    },
    {
      "midi": 70,
      "time": 320.278,
      "duration": 0.278,
      "velocity": 1,
      "hand": "right"
    },
    {
      "midi": 74,
      "time": 320.278,
      "duration": 0.262,
      "velocity": 1,
      "hand": "right"
    },
    {
      "midi": 78,
      "time": 320.278,
      "duration": 0.262,
      "velocity": 1,
      "hand": "right"
    },
    {
      "midi": 82,
      "time": 320.278,
      "duration": 0.278,
      "velocity": 1,
      "hand": "right"
    },
    {
      "midi": 71,
      "time": 320.555,
      "duration": 0.263,
      "velocity": 1,
      "hand": "right"
    },
    {
      "midi": 74,
      "time": 320.555,
      "duration": 0.263,
      "velocity": 1,
      "hand": "right"
    },
    {
      "midi": 78,
      "time": 320.555,
      "duration": 0.263,
      "velocity": 1,
      "hand": "right"
    },
    {
      "midi": 83,
      "time": 320.555,
      "duration": 0.263,
      "velocity": 1,
      "hand": "right"
    },
    {
      "midi": 71,
      "time": 320.833,
      "duration": 0.263,
      "velocity": 1,
      "hand": "right"
    },
    {
      "midi": 74,
      "time": 320.833,
      "duration": 0.278,
      "velocity": 1,
      "hand": "right"
    },
    {
      "midi": 78,
      "time": 320.833,
      "duration": 0.263,
      "velocity": 1,
      "hand": "right"
    },
    {
      "midi": 83,
      "time": 320.833,
      "duration": 0.263,
      "velocity": 1,
      "hand": "right"
    },
    {
      "midi": 71,
      "time": 321.111,
      "duration": 0.263,
      "velocity": 1,
      "hand": "right"
    },
    {
      "midi": 73,
      "time": 321.111,
      "duration": 0.278,
      "velocity": 1,
      "hand": "right"
    },
    {
      "midi": 78,
      "time": 321.111,
      "duration": 0.263,
      "velocity": 1,
      "hand": "right"
    },
    {
      "midi": 83,
      "time": 321.111,
      "duration": 0.263,
      "velocity": 1,
      "hand": "right"
    },
    {
      "midi": 71,
      "time": 321.389,
      "duration": 0.262,
      "velocity": 1,
      "hand": "right"
    },
    {
      "midi": 74,
      "time": 321.389,
      "duration": 0.262,
      "velocity": 1,
      "hand": "right"
    },
    {
      "midi": 78,
      "time": 321.389,
      "duration": 0.262,
      "velocity": 1,
      "hand": "right"
    },
    {
      "midi": 83,
      "time": 321.389,
      "duration": 0.262,
      "velocity": 1,
      "hand": "right"
    },
    {
      "midi": 71,
      "time": 321.666,
      "duration": 0.263,
      "velocity": 1,
      "hand": "right"
    },
    {
      "midi": 74,
      "time": 321.666,
      "duration": 0.263,
      "velocity": 1,
      "hand": "right"
    },
    {
      "midi": 78,
      "time": 321.666,
      "duration": 0.278,
      "velocity": 1,
      "hand": "right"
    },
    {
      "midi": 83,
      "time": 321.666,
      "duration": 0.263,
      "velocity": 1,
      "hand": "right"
    },
    {
      "midi": 71,
      "time": 321.944,
      "duration": 0.263,
      "velocity": 1,
      "hand": "right"
    },
    {
      "midi": 74,
      "time": 321.944,
      "duration": 0.263,
      "velocity": 1,
      "hand": "right"
    },
    {
      "midi": 77,
      "time": 321.944,
      "duration": 0.278,
      "velocity": 1,
      "hand": "right"
    },
    {
      "midi": 83,
      "time": 321.944,
      "duration": 0.263,
      "velocity": 1,
      "hand": "right"
    },
    {
      "midi": 71,
      "time": 322.222,
      "duration": 0.263,
      "velocity": 1,
      "hand": "right"
    },
    {
      "midi": 74,
      "time": 322.222,
      "duration": 0.263,
      "velocity": 1,
      "hand": "right"
    },
    {
      "midi": 78,
      "time": 322.222,
      "duration": 0.263,
      "velocity": 1,
      "hand": "right"
    },
    {
      "midi": 83,
      "time": 322.222,
      "duration": 0.263,
      "velocity": 1,
      "hand": "right"
    },
    {
      "midi": 71,
      "time": 322.5,
      "duration": 0.263,
      "velocity": 1,
      "hand": "right"
    },
    {
      "midi": 74,
      "time": 322.5,
      "duration": 0.263,
      "velocity": 1,
      "hand": "right"
    },
    {
      "midi": 78,
      "time": 322.5,
      "duration": 0.263,
      "velocity": 1,
      "hand": "right"
    },
    {
      "midi": 83,
      "time": 322.5,
      "duration": 0.278,
      "velocity": 1,
      "hand": "right"
    },
    {
      "midi": 71,
      "time": 322.778,
      "duration": 0.262,
      "velocity": 1,
      "hand": "right"
    },
    {
      "midi": 74,
      "time": 322.778,
      "duration": 0.262,
      "velocity": 1,
      "hand": "right"
    },
    {
      "midi": 78,
      "time": 322.778,
      "duration": 0.262,
      "velocity": 1,
      "hand": "right"
    },
    {
      "midi": 82,
      "time": 322.778,
      "duration": 0.278,
      "velocity": 1,
      "hand": "right"
    },
    {
      "midi": 71,
      "time": 323.055,
      "duration": 0.263,
      "velocity": 1,
      "hand": "right"
    },
    {
      "midi": 74,
      "time": 323.055,
      "duration": 0.263,
      "velocity": 1,
      "hand": "right"
    },
    {
      "midi": 78,
      "time": 323.055,
      "duration": 0.263,
      "velocity": 1,
      "hand": "right"
    },
    {
      "midi": 83,
      "time": 323.055,
      "duration": 0.263,
      "velocity": 1,
      "hand": "right"
    },
    {
      "midi": 71,
      "time": 323.333,
      "duration": 0.263,
      "velocity": 1,
      "hand": "right"
    },
    {
      "midi": 74,
      "time": 323.333,
      "duration": 0.263,
      "velocity": 1,
      "hand": "right"
    },
    {
      "midi": 78,
      "time": 323.333,
      "duration": 0.263,
      "velocity": 1,
      "hand": "right"
    },
    {
      "midi": 83,
      "time": 323.333,
      "duration": 0.278,
      "velocity": 1,
      "hand": "right"
    },
    {
      "midi": 71,
      "time": 323.611,
      "duration": 0.263,
      "velocity": 1,
      "hand": "right"
    },
    {
      "midi": 74,
      "time": 323.611,
      "duration": 0.263,
      "velocity": 1,
      "hand": "right"
    },
    {
      "midi": 78,
      "time": 323.611,
      "duration": 0.263,
      "velocity": 1,
      "hand": "right"
    },
    {
      "midi": 82,
      "time": 323.611,
      "duration": 0.278,
      "velocity": 1,
      "hand": "right"
    },
    {
      "midi": 71,
      "time": 323.889,
      "duration": 0.278,
      "velocity": 1,
      "hand": "right"
    },
    {
      "midi": 74,
      "time": 323.889,
      "duration": 0.278,
      "velocity": 1,
      "hand": "right"
    },
    {
      "midi": 78,
      "time": 323.889,
      "duration": 0.278,
      "velocity": 1,
      "hand": "right"
    },
    {
      "midi": 83,
      "time": 323.889,
      "duration": 0.278,
      "velocity": 1,
      "hand": "right"
    },
    {
      "midi": 59,
      "time": 324.722,
      "duration": 0.278,
      "velocity": 1,
      "hand": "left"
    },
    {
      "midi": 71,
      "time": 324.722,
      "duration": 0.278,
      "velocity": 1,
      "hand": "right"
    },
    {
      "midi": 74,
      "time": 324.722,
      "duration": 0.278,
      "velocity": 1,
      "hand": "right"
    },
    {
      "midi": 78,
      "time": 324.722,
      "duration": 0.278,
      "velocity": 1,
      "hand": "right"
    },
    {
      "midi": 83,
      "time": 324.722,
      "duration": 0.278,
      "velocity": 1,
      "hand": "right"
    },
    {
      "midi": 47,
      "time": 325.555,
      "duration": 0.278,
      "velocity": 1,
      "hand": "left"
    },
    {
      "midi": 54,
      "time": 325.555,
      "duration": 0.278,
      "velocity": 1,
      "hand": "left"
    },
    {
      "midi": 62,
      "time": 325.555,
      "duration": 0.278,
      "velocity": 1,
      "hand": "right"
    },
    {
      "midi": 66,
      "time": 325.555,
      "duration": 0.278,
      "velocity": 1,
      "hand": "right"
    },
    {
      "midi": 71,
      "time": 325.555,
      "duration": 0.278,
      "velocity": 1,
      "hand": "right"
    },
    {
      "midi": 42,
      "time": 326.389,
      "duration": 0.278,
      "velocity": 1,
      "hand": "left"
    },
    {
      "midi": 47,
      "time": 326.389,
      "duration": 0.278,
      "velocity": 1,
      "hand": "left"
    },
    {
      "midi": 47,
      "time": 327.222,
      "duration": 0.278,
      "velocity": 1,
      "hand": "left"
    },
    {
      "midi": 50,
      "time": 327.222,
      "duration": 0.278,
      "velocity": 1,
      "hand": "left"
    },
    {
      "midi": 62,
      "time": 327.222,
      "duration": 0.278,
      "velocity": 1,
      "hand": "right"
    },
    {
      "midi": 66,
      "time": 327.222,
      "duration": 0.278,
      "velocity": 1,
      "hand": "right"
    },
    {
      "midi": 71,
      "time": 327.222,
      "duration": 0.278,
      "velocity": 1,
      "hand": "right"
    },
    {
      "midi": 47,
      "time": 328.055,
      "duration": 0.278,
      "velocity": 1,
      "hand": "left"
    },
    {
      "midi": 54,
      "time": 328.055,
      "duration": 0.278,
      "velocity": 1,
      "hand": "left"
    },
    {
      "midi": 71,
      "time": 328.055,
      "duration": 0.278,
      "velocity": 1,
      "hand": "right"
    },
    {
      "midi": 74,
      "time": 328.055,
      "duration": 0.278,
      "velocity": 1,
      "hand": "right"
    },
    {
      "midi": 78,
      "time": 328.055,
      "duration": 0.278,
      "velocity": 1,
      "hand": "right"
    },
    {
      "midi": 83,
      "time": 328.055,
      "duration": 0.278,
      "velocity": 1,
      "hand": "right"
    },
    {
      "midi": 47,
      "time": 328.889,
      "duration": 1.667,
      "velocity": 1,
      "hand": "left"
    },
    {
      "midi": 59,
      "time": 328.889,
      "duration": 1.667,
      "velocity": 1,
      "hand": "left"
    }
  ]
}
