{
  "id": "trois-nouvelles-etudes-no-1-f-minorchopin",
  "title": "Três Novos Estudos nº 1 em Fá Menor",
  "artist": "Frédéric Chopin",
  "difficulty": "Difícil",
  "bpm": 100,
  "duration": 162,
  "category": "Clássicos",
  "isPremium": true,
  "coverUrl": "/images/covers/placeholder.png",
  "notes": [
    {
      "midi": 59,
      "time": 0,
      "duration": 0.45,
      "velocity": 0.54,
      "hand": "right"
    },
    {
      "midi": 60,
      "time": 0.3,
      "duration": 0.45,
      "velocity": 0.54,
      "hand": "right"
    },
    {
      "midi": 61,
      "time": 0.75,
      "duration": 0.45,
      "velocity": 0.54,
      "hand": "right"
    },
    {
      "midi": 58,
      "time": 1.2,
      "duration": 0.45,
      "velocity": 0.54,
      "hand": "right"
    },
    {
      "midi": 65,
      "time": 1.5,
      "duration": 0.45,
      "velocity": 0.54,
      "hand": "right"
    },
    {
      "midi": 64,
      "time": 1.95,
      "duration": 0.45,
      "velocity": 0.54,
      "hand": "right"
    },
    {
      "midi": 59,
      "time": 2.4,
      "duration": 0.45,
      "velocity": 0.54,
      "hand": "right"
    },
    {
      "midi": 60,
      "time": 2.7,
      "duration": 0.45,
      "velocity": 0.54,
      "hand": "right"
    },
    {
      "midi": 61,
      "time": 3.15,
      "duration": 0.45,
      "velocity": 0.54,
      "hand": "right"
    },
    {
      "midi": 58,
      "time": 3.6,
      "duration": 0.45,
      "velocity": 0.54,
      "hand": "right"
    },
    {
      "midi": 65,
      "time": 3.9,
      "duration": 0.45,
      "velocity": 0.54,
      "hand": "right"
    },
    {
      "midi": 64,
      "time": 4.35,
      "duration": 0.45,
      "velocity": 0.54,
      "hand": "right"
    },
    {
      "midi": 59,
      "time": 4.8,
      "duration": 0.45,
      "velocity": 0.54,
      "hand": "right"
    },
    {
      "midi": 60,
      "time": 5.1,
      "duration": 0.45,
      "velocity": 0.59,
      "hand": "right"
    },
    {
      "midi": 61,
      "time": 5.55,
      "duration": 0.45,
      "velocity": 0.64,
      "hand": "right"
    },
    {
      "midi": 60,
      "time": 6,
      "duration": 0.45,
      "velocity": 0.68,
      "hand": "right"
    },
    {
      "midi": 62,
      "time": 6.3,
      "duration": 0.45,
      "velocity": 0.72,
      "hand": "right"
    },
    {
      "midi": 65,
      "time": 6.75,
      "duration": 0.45,
      "velocity": 0.77,
      "hand": "right"
    },
    {
      "midi": 64,
      "time": 7.2,
      "duration": 0.45,
      "velocity": 0.77,
      "hand": "right"
    },
    {
      "midi": 65,
      "time": 7.5,
      "duration": 0.45,
      "velocity": 0.77,
      "hand": "right"
    },
    {
      "midi": 68,
      "time": 7.95,
      "duration": 0.45,
      "velocity": 0.77,
      "hand": "right"
    },
    {
      "midi": 67,
      "time": 8.4,
      "duration": 0.45,
      "velocity": 0.69,
      "hand": "right"
    },
    {
      "midi": 68,
      "time": 8.7,
      "duration": 0.45,
      "velocity": 0.62,
      "hand": "right"
    },
    {
      "midi": 41,
      "time": 9.15,
      "duration": 0.3,
      "velocity": 0.71,
      "hand": "left"
    },
    {
      "midi": 65,
      "time": 9.15,
      "duration": 0.6,
      "velocity": 0.54,
      "hand": "right"
    },
    {
      "midi": 48,
      "time": 9.45,
      "duration": 0.3,
      "velocity": 0.71,
      "hand": "left"
    },
    {
      "midi": 53,
      "time": 9.75,
      "duration": 0.3,
      "velocity": 0.71,
      "hand": "left"
    },
    {
      "midi": 56,
      "time": 10.05,
      "duration": 0.3,
      "velocity": 0.71,
      "hand": "left"
    },
    {
      "midi": 60,
      "time": 10.35,
      "duration": 0.3,
      "velocity": 0.71,
      "hand": "left"
    },
    {
      "midi": 56,
      "time": 10.65,
      "duration": 0.3,
      "velocity": 0.71,
      "hand": "left"
    },
    {
      "midi": 53,
      "time": 10.95,
      "duration": 0.3,
      "velocity": 0.71,
      "hand": "left"
    },
    {
      "midi": 48,
      "time": 11.25,
      "duration": 0.3,
      "velocity": 0.71,
      "hand": "left"
    },
    {
      "midi": 41,
      "time": 11.55,
      "duration": 0.3,
      "velocity": 0.71,
      "hand": "left"
    },
    {
      "midi": 48,
      "time": 11.85,
      "duration": 0.3,
      "velocity": 0.71,
      "hand": "left"
    },
    {
      "midi": 53,
      "time": 12.15,
      "duration": 0.3,
      "velocity": 0.71,
      "hand": "left"
    },
    {
      "midi": 56,
      "time": 12.45,
      "duration": 0.3,
      "velocity": 0.71,
      "hand": "left"
    },
    {
      "midi": 60,
      "time": 12.75,
      "duration": 0.3,
      "velocity": 0.71,
      "hand": "left"
    },
    {
      "midi": 56,
      "time": 13.05,
      "duration": 0.3,
      "velocity": 0.71,
      "hand": "left"
    },
    {
      "midi": 53,
      "time": 13.35,
      "duration": 0.3,
      "velocity": 0.71,
      "hand": "left"
    },
    {
      "midi": 48,
      "time": 13.65,
      "duration": 0.3,
      "velocity": 0.71,
      "hand": "left"
    },
    {
      "midi": 41,
      "time": 13.95,
      "duration": 0.3,
      "velocity": 0.71,
      "hand": "left"
    },
    {
      "midi": 48,
      "time": 14.25,
      "duration": 0.3,
      "velocity": 0.71,
      "hand": "left"
    },
    {
      "midi": 53,
      "time": 14.55,
      "duration": 0.3,
      "velocity": 0.71,
      "hand": "left"
    },
    {
      "midi": 56,
      "time": 14.85,
      "duration": 0.3,
      "velocity": 0.71,
      "hand": "left"
    },
    {
      "midi": 60,
      "time": 15.15,
      "duration": 0.3,
      "velocity": 0.71,
      "hand": "left"
    },
    {
      "midi": 56,
      "time": 15.45,
      "duration": 0.3,
      "velocity": 0.71,
      "hand": "left"
    },
    {
      "midi": 53,
      "time": 15.75,
      "duration": 0.3,
      "velocity": 0.71,
      "hand": "left"
    },
    {
      "midi": 48,
      "time": 16.05,
      "duration": 0.3,
      "velocity": 0.71,
      "hand": "left"
    },
    {
      "midi": 41,
      "time": 16.35,
      "duration": 0.3,
      "velocity": 0.71,
      "hand": "left"
    },
    {
      "midi": 48,
      "time": 16.65,
      "duration": 0.3,
      "velocity": 0.71,
      "hand": "left"
    },
    {
      "midi": 53,
      "time": 16.95,
      "duration": 0.3,
      "velocity": 0.71,
      "hand": "left"
    },
    {
      "midi": 56,
      "time": 17.25,
      "duration": 0.3,
      "velocity": 0.71,
      "hand": "left"
    },
    {
      "midi": 60,
      "time": 17.55,
      "duration": 0.3,
      "velocity": 0.71,
      "hand": "left"
    },
    {
      "midi": 56,
      "time": 17.85,
      "duration": 0.3,
      "velocity": 0.71,
      "hand": "left"
    },
    {
      "midi": 53,
      "time": 18.15,
      "duration": 0.3,
      "velocity": 0.71,
      "hand": "left"
    },
    {
      "midi": 48,
      "time": 18.45,
      "duration": 0.3,
      "velocity": 0.71,
      "hand": "left"
    },
    {
      "midi": 41,
      "time": 18.75,
      "duration": 0.3,
      "velocity": 0.71,
      "hand": "left"
    },
    {
      "midi": 48,
      "time": 19.05,
      "duration": 0.3,
      "velocity": 0.71,
      "hand": "left"
    },
    {
      "midi": 60,
      "time": 19.2,
      "duration": 0.45,
      "velocity": 0.54,
      "hand": "right"
    },
    {
      "midi": 53,
      "time": 19.35,
      "duration": 0.3,
      "velocity": 0.71,
      "hand": "left"
    },
    {
      "midi": 68,
      "time": 19.5,
      "duration": 0.45,
      "velocity": 0.54,
      "hand": "right"
    },
    {
      "midi": 56,
      "time": 19.65,
      "duration": 0.3,
      "velocity": 0.71,
      "hand": "left"
    },
    {
      "midi": 60,
      "time": 19.95,
      "duration": 0.3,
      "velocity": 0.71,
      "hand": "left"
    },
    {
      "midi": 67,
      "time": 19.95,
      "duration": 0.45,
      "velocity": 0.54,
      "hand": "right"
    },
    {
      "midi": 56,
      "time": 20.25,
      "duration": 0.3,
      "velocity": 0.71,
      "hand": "left"
    },
    {
      "midi": 65,
      "time": 20.4,
      "duration": 0.45,
      "velocity": 0.54,
      "hand": "right"
    },
    {
      "midi": 53,
      "time": 20.55,
      "duration": 0.3,
      "velocity": 0.71,
      "hand": "left"
    },
    {
      "midi": 71,
      "time": 20.7,
      "duration": 0.45,
      "velocity": 0.54,
      "hand": "right"
    },
    {
      "midi": 48,
      "time": 20.85,
      "duration": 0.3,
      "velocity": 0.71,
      "hand": "left"
    },
    {
      "midi": 40,
      "time": 21.15,
      "duration": 0.3,
      "velocity": 0.71,
      "hand": "left"
    },
    {
      "midi": 72,
      "time": 21.15,
      "duration": 0.45,
      "velocity": 0.54,
      "hand": "right"
    },
    {
      "midi": 48,
      "time": 21.45,
      "duration": 0.3,
      "velocity": 0.71,
      "hand": "left"
    },
    {
      "midi": 73,
      "time": 21.6,
      "duration": 0.45,
      "velocity": 0.59,
      "hand": "right"
    },
    {
      "midi": 55,
      "time": 21.75,
      "duration": 0.3,
      "velocity": 0.71,
      "hand": "left"
    },
    {
      "midi": 71,
      "time": 21.9,
      "duration": 0.45,
      "velocity": 0.64,
      "hand": "right"
    },
    {
      "midi": 58,
      "time": 22.05,
      "duration": 0.3,
      "velocity": 0.71,
      "hand": "left"
    },
    {
      "midi": 60,
      "time": 22.35,
      "duration": 0.3,
      "velocity": 0.71,
      "hand": "left"
    },
    {
      "midi": 72,
      "time": 22.35,
      "duration": 0.45,
      "velocity": 0.68,
      "hand": "right"
    },
    {
      "midi": 58,
      "time": 22.65,
      "duration": 0.3,
      "velocity": 0.71,
      "hand": "left"
    },
    {
      "midi": 60,
      "time": 22.8,
      "duration": 0.45,
      "velocity": 0.72,
      "hand": "right"
    },
    {
      "midi": 55,
      "time": 22.95,
      "duration": 0.3,
      "velocity": 0.71,
      "hand": "left"
    },
    {
      "midi": 70,
      "time": 23.1,
      "duration": 0.45,
      "velocity": 0.77,
      "hand": "right"
    },
    {
      "midi": 48,
      "time": 23.25,
      "duration": 0.3,
      "velocity": 0.71,
      "hand": "left"
    },
    {
      "midi": 41,
      "time": 23.55,
      "duration": 0.3,
      "velocity": 0.71,
      "hand": "left"
    },
    {
      "midi": 69,
      "time": 23.55,
      "duration": 0.45,
      "velocity": 0.77,
      "hand": "right"
    },
    {
      "midi": 48,
      "time": 23.85,
      "duration": 0.3,
      "velocity": 0.71,
      "hand": "left"
    },
    {
      "midi": 68,
      "time": 24,
      "duration": 0.45,
      "velocity": 0.77,
      "hand": "right"
    },
    {
      "midi": 53,
      "time": 24.15,
      "duration": 0.3,
      "velocity": 0.71,
      "hand": "left"
    },
    {
      "midi": 67,
      "time": 24.3,
      "duration": 0.45,
      "velocity": 0.77,
      "hand": "right"
    },
    {
      "midi": 56,
      "time": 24.45,
      "duration": 0.3,
      "velocity": 0.71,
      "hand": "left"
    },
    {
      "midi": 60,
      "time": 24.75,
      "duration": 0.3,
      "velocity": 0.71,
      "hand": "left"
    },
    {
      "midi": 65,
      "time": 24.75,
      "duration": 0.45,
      "velocity": 0.77,
      "hand": "right"
    },
    {
      "midi": 56,
      "time": 25.05,
      "duration": 0.3,
      "velocity": 0.71,
      "hand": "left"
    },
    {
      "midi": 77,
      "time": 25.2,
      "duration": 0.45,
      "velocity": 0.77,
      "hand": "right"
    },
    {
      "midi": 53,
      "time": 25.35,
      "duration": 0.3,
      "velocity": 0.71,
      "hand": "left"
    },
    {
      "midi": 71,
      "time": 25.5,
      "duration": 0.45,
      "velocity": 0.77,
      "hand": "right"
    },
    {
      "midi": 48,
      "time": 25.65,
      "duration": 0.3,
      "velocity": 0.71,
      "hand": "left"
    },
    {
      "midi": 40,
      "time": 25.95,
      "duration": 0.3,
      "velocity": 0.71,
      "hand": "left"
    },
    {
      "midi": 72,
      "time": 25.95,
      "duration": 0.45,
      "velocity": 0.77,
      "hand": "right"
    },
    {
      "midi": 48,
      "time": 26.25,
      "duration": 0.3,
      "velocity": 0.71,
      "hand": "left"
    },
    {
      "midi": 75,
      "time": 26.4,
      "duration": 0.45,
      "velocity": 0.72,
      "hand": "right"
    },
    {
      "midi": 55,
      "time": 26.55,
      "duration": 0.3,
      "velocity": 0.71,
      "hand": "left"
    },
    {
      "midi": 73,
      "time": 26.7,
      "duration": 0.45,
      "velocity": 0.68,
      "hand": "right"
    },
    {
      "midi": 58,
      "time": 26.85,
      "duration": 0.3,
      "velocity": 0.71,
      "hand": "left"
    },
    {
      "midi": 60,
      "time": 27.15,
      "duration": 0.3,
      "velocity": 0.71,
      "hand": "left"
    },
    {
      "midi": 72,
      "time": 27.15,
      "duration": 0.45,
      "velocity": 0.64,
      "hand": "right"
    },
    {
      "midi": 58,
      "time": 27.45,
      "duration": 0.3,
      "velocity": 0.71,
      "hand": "left"
    },
    {
      "midi": 65,
      "time": 27.6,
      "duration": 0.45,
      "velocity": 0.59,
      "hand": "right"
    },
    {
      "midi": 55,
      "time": 27.75,
      "duration": 0.3,
      "velocity": 0.71,
      "hand": "left"
    },
    {
      "midi": 67,
      "time": 27.9,
      "duration": 0.45,
      "velocity": 0.54,
      "hand": "right"
    },
    {
      "midi": 48,
      "time": 28.05,
      "duration": 0.3,
      "velocity": 0.71,
      "hand": "left"
    },
    {
      "midi": 41,
      "time": 28.35,
      "duration": 0.3,
      "velocity": 0.71,
      "hand": "left"
    },
    {
      "midi": 68,
      "time": 28.35,
      "duration": 0.45,
      "velocity": 0.54,
      "hand": "right"
    },
    {
      "midi": 48,
      "time": 28.65,
      "duration": 0.3,
      "velocity": 0.71,
      "hand": "left"
    },
    {
      "midi": 64,
      "time": 28.8,
      "duration": 0.45,
      "velocity": 0.54,
      "hand": "right"
    },
    {
      "midi": 53,
      "time": 28.95,
      "duration": 0.3,
      "velocity": 0.71,
      "hand": "left"
    },
    {
      "midi": 65,
      "time": 29.1,
      "duration": 0.45,
      "velocity": 0.54,
      "hand": "right"
    },
    {
      "midi": 56,
      "time": 29.25,
      "duration": 0.3,
      "velocity": 0.71,
      "hand": "left"
    },
    {
      "midi": 60,
      "time": 29.55,
      "duration": 0.3,
      "velocity": 0.71,
      "hand": "left"
    },
    {
      "midi": 69,
      "time": 29.55,
      "duration": 0.45,
      "velocity": 0.54,
      "hand": "right"
    },
    {
      "midi": 56,
      "time": 29.85,
      "duration": 0.3,
      "velocity": 0.71,
      "hand": "left"
    },
    {
      "midi": 71,
      "time": 30,
      "duration": 0.45,
      "velocity": 0.54,
      "hand": "right"
    },
    {
      "midi": 53,
      "time": 30.15,
      "duration": 0.3,
      "velocity": 0.71,
      "hand": "left"
    },
    {
      "midi": 72,
      "time": 30.3,
      "duration": 0.45,
      "velocity": 0.55,
      "hand": "right"
    },
    {
      "midi": 48,
      "time": 30.45,
      "duration": 0.3,
      "velocity": 0.71,
      "hand": "left"
    },
    {
      "midi": 43,
      "time": 30.75,
      "duration": 0.3,
      "velocity": 0.71,
      "hand": "left"
    },
    {
      "midi": 73,
      "time": 30.75,
      "duration": 0.45,
      "velocity": 0.56,
      "hand": "right"
    },
    {
      "midi": 51,
      "time": 31.05,
      "duration": 0.3,
      "velocity": 0.71,
      "hand": "left"
    },
    {
      "midi": 74,
      "time": 31.2,
      "duration": 0.45,
      "velocity": 0.57,
      "hand": "right"
    },
    {
      "midi": 58,
      "time": 31.35,
      "duration": 0.3,
      "velocity": 0.71,
      "hand": "left"
    },
    {
      "midi": 77,
      "time": 31.5,
      "duration": 0.45,
      "velocity": 0.57,
      "hand": "right"
    },
    {
      "midi": 61,
      "time": 31.65,
      "duration": 0.3,
      "velocity": 0.71,
      "hand": "left"
    },
    {
      "midi": 63,
      "time": 31.95,
      "duration": 0.3,
      "velocity": 0.71,
      "hand": "left"
    },
    {
      "midi": 75,
      "time": 31.95,
      "duration": 0.45,
      "velocity": 0.58,
      "hand": "right"
    },
    {
      "midi": 61,
      "time": 32.25,
      "duration": 0.3,
      "velocity": 0.71,
      "hand": "left"
    },
    {
      "midi": 68,
      "time": 32.4,
      "duration": 0.45,
      "velocity": 0.59,
      "hand": "right"
    },
    {
      "midi": 58,
      "time": 32.55,
      "duration": 0.3,
      "velocity": 0.71,
      "hand": "left"
    },
    {
      "midi": 70,
      "time": 32.7,
      "duration": 0.45,
      "velocity": 0.6,
      "hand": "right"
    },
    {
      "midi": 51,
      "time": 32.85,
      "duration": 0.3,
      "velocity": 0.71,
      "hand": "left"
    },
    {
      "midi": 44,
      "time": 33.15,
      "duration": 0.3,
      "velocity": 0.71,
      "hand": "left"
    },
    {
      "midi": 72,
      "time": 33.15,
      "duration": 0.45,
      "velocity": 0.6,
      "hand": "right"
    },
    {
      "midi": 51,
      "time": 33.45,
      "duration": 0.3,
      "velocity": 0.71,
      "hand": "left"
    },
    {
      "midi": 67,
      "time": 33.6,
      "duration": 0.45,
      "velocity": 0.61,
      "hand": "right"
    },
    {
      "midi": 56,
      "time": 33.75,
      "duration": 0.3,
      "velocity": 0.71,
      "hand": "left"
    },
    {
      "midi": 68,
      "time": 33.9,
      "duration": 0.45,
      "velocity": 0.61,
      "hand": "right"
    },
    {
      "midi": 60,
      "time": 34.05,
      "duration": 0.3,
      "velocity": 0.71,
      "hand": "left"
    },
    {
      "midi": 63,
      "time": 34.35,
      "duration": 0.3,
      "velocity": 0.71,
      "hand": "left"
    },
    {
      "midi": 71,
      "time": 34.35,
      "duration": 0.45,
      "velocity": 0.62,
      "hand": "right"
    },
    {
      "midi": 60,
      "time": 34.65,
      "duration": 0.3,
      "velocity": 0.71,
      "hand": "left"
    },
    {
      "midi": 72,
      "time": 34.8,
      "duration": 0.45,
      "velocity": 0.63,
      "hand": "right"
    },
    {
      "midi": 56,
      "time": 34.95,
      "duration": 0.3,
      "velocity": 0.71,
      "hand": "left"
    },
    {
      "midi": 75,
      "time": 35.1,
      "duration": 0.45,
      "velocity": 0.64,
      "hand": "right"
    },
    {
      "midi": 51,
      "time": 35.25,
      "duration": 0.3,
      "velocity": 0.71,
      "hand": "left"
    },
    {
      "midi": 47,
      "time": 35.55,
      "duration": 0.3,
      "velocity": 0.71,
      "hand": "left"
    },
    {
      "midi": 76,
      "time": 35.55,
      "duration": 0.45,
      "velocity": 0.65,
      "hand": "right"
    },
    {
      "midi": 53,
      "time": 35.85,
      "duration": 0.3,
      "velocity": 0.71,
      "hand": "left"
    },
    {
      "midi": 77,
      "time": 36,
      "duration": 0.45,
      "velocity": 0.65,
      "hand": "right"
    },
    {
      "midi": 55,
      "time": 36.15,
      "duration": 0.3,
      "velocity": 0.71,
      "hand": "left"
    },
    {
      "midi": 78,
      "time": 36.3,
      "duration": 0.45,
      "velocity": 0.66,
      "hand": "right"
    },
    {
      "midi": 62,
      "time": 36.45,
      "duration": 0.3,
      "velocity": 0.71,
      "hand": "left"
    },
    {
      "midi": 65,
      "time": 36.75,
      "duration": 0.3,
      "velocity": 0.71,
      "hand": "left"
    },
    {
      "midi": 79,
      "time": 36.75,
      "duration": 0.45,
      "velocity": 0.67,
      "hand": "right"
    },
    {
      "midi": 62,
      "time": 37.05,
      "duration": 0.3,
      "velocity": 0.71,
      "hand": "left"
    },
    {
      "midi": 74,
      "time": 37.2,
      "duration": 0.45,
      "velocity": 0.67,
      "hand": "right"
    },
    {
      "midi": 56,
      "time": 37.35,
      "duration": 0.3,
      "velocity": 0.71,
      "hand": "left"
    },
    {
      "midi": 77,
      "time": 37.5,
      "duration": 0.45,
      "velocity": 0.68,
      "hand": "right"
    },
    {
      "midi": 55,
      "time": 37.65,
      "duration": 0.3,
      "velocity": 0.71,
      "hand": "left"
    },
    {
      "midi": 48,
      "time": 37.95,
      "duration": 0.3,
      "velocity": 0.71,
      "hand": "left"
    },
    {
      "midi": 76,
      "time": 37.95,
      "duration": 0.45,
      "velocity": 0.69,
      "hand": "right"
    },
    {
      "midi": 55,
      "time": 38.25,
      "duration": 0.3,
      "velocity": 0.71,
      "hand": "left"
    },
    {
      "midi": 71,
      "time": 38.4,
      "duration": 0.45,
      "velocity": 0.69,
      "hand": "right"
    },
    {
      "midi": 58,
      "time": 38.55,
      "duration": 0.3,
      "velocity": 0.71,
      "hand": "left"
    },
    {
      "midi": 72,
      "time": 38.7,
      "duration": 0.45,
      "velocity": 0.7,
      "hand": "right"
    },
    {
      "midi": 60,
      "time": 38.85,
      "duration": 0.3,
      "velocity": 0.71,
      "hand": "left"
    },
    {
      "midi": 64,
      "time": 39.15,
      "duration": 0.3,
      "velocity": 0.71,
      "hand": "left"
    },
    {
      "midi": 73,
      "time": 39.15,
      "duration": 0.45,
      "velocity": 0.71,
      "hand": "right"
    },
    {
      "midi": 60,
      "time": 39.45,
      "duration": 0.3,
      "velocity": 0.71,
      "hand": "left"
    },
    {
      "midi": 70,
      "time": 39.6,
      "duration": 0.45,
      "velocity": 0.72,
      "hand": "right"
    },
    {
      "midi": 58,
      "time": 39.75,
      "duration": 0.3,
      "velocity": 0.71,
      "hand": "left"
    },
    {
      "midi": 77,
      "time": 39.9,
      "duration": 0.45,
      "velocity": 0.72,
      "hand": "right"
    },
    {
      "midi": 55,
      "time": 40.05,
      "duration": 0.3,
      "velocity": 0.71,
      "hand": "left"
    },
    {
      "midi": 48,
      "time": 40.35,
      "duration": 0.3,
      "velocity": 0.71,
      "hand": "left"
    },
    {
      "midi": 76,
      "time": 40.35,
      "duration": 0.45,
      "velocity": 0.73,
      "hand": "right"
    },
    {
      "midi": 55,
      "time": 40.65,
      "duration": 0.3,
      "velocity": 0.71,
      "hand": "left"
    },
    {
      "midi": 71,
      "time": 40.8,
      "duration": 0.45,
      "velocity": 0.73,
      "hand": "right"
    },
    {
      "midi": 58,
      "time": 40.95,
      "duration": 0.3,
      "velocity": 0.71,
      "hand": "left"
    },
    {
      "midi": 72,
      "time": 41.1,
      "duration": 0.45,
      "velocity": 0.74,
      "hand": "right"
    },
    {
      "midi": 60,
      "time": 41.25,
      "duration": 0.3,
      "velocity": 0.71,
      "hand": "left"
    },
    {
      "midi": 64,
      "time": 41.55,
      "duration": 0.3,
      "velocity": 0.71,
      "hand": "left"
    },
    {
      "midi": 73,
      "time": 41.55,
      "duration": 0.45,
      "velocity": 0.75,
      "hand": "right"
    },
    {
      "midi": 60,
      "time": 41.85,
      "duration": 0.3,
      "velocity": 0.71,
      "hand": "left"
    },
    {
      "midi": 70,
      "time": 42,
      "duration": 0.45,
      "velocity": 0.76,
      "hand": "right"
    },
    {
      "midi": 58,
      "time": 42.15,
      "duration": 0.3,
      "velocity": 0.71,
      "hand": "left"
    },
    {
      "midi": 77,
      "time": 42.3,
      "duration": 0.45,
      "velocity": 0.76,
      "hand": "right"
    },
    {
      "midi": 55,
      "time": 42.45,
      "duration": 0.3,
      "velocity": 0.71,
      "hand": "left"
    },
    {
      "midi": 48,
      "time": 42.75,
      "duration": 0.3,
      "velocity": 0.71,
      "hand": "left"
    },
    {
      "midi": 76,
      "time": 42.75,
      "duration": 0.45,
      "velocity": 0.77,
      "hand": "right"
    },
    {
      "midi": 55,
      "time": 43.05,
      "duration": 0.3,
      "velocity": 0.71,
      "hand": "left"
    },
    {
      "midi": 71,
      "time": 43.2,
      "duration": 0.45,
      "velocity": 0.77,
      "hand": "right"
    },
    {
      "midi": 58,
      "time": 43.35,
      "duration": 0.3,
      "velocity": 0.71,
      "hand": "left"
    },
    {
      "midi": 72,
      "time": 43.5,
      "duration": 0.45,
      "velocity": 0.75,
      "hand": "right"
    },
    {
      "midi": 60,
      "time": 43.65,
      "duration": 0.3,
      "velocity": 0.71,
      "hand": "left"
    },
    {
      "midi": 64,
      "time": 43.95,
      "duration": 0.3,
      "velocity": 0.71,
      "hand": "left"
    },
    {
      "midi": 73,
      "time": 43.95,
      "duration": 0.45,
      "velocity": 0.73,
      "hand": "right"
    },
    {
      "midi": 60,
      "time": 44.25,
      "duration": 0.3,
      "velocity": 0.71,
      "hand": "left"
    },
    {
      "midi": 72,
      "time": 44.4,
      "duration": 0.45,
      "velocity": 0.71,
      "hand": "right"
    },
    {
      "midi": 58,
      "time": 44.55,
      "duration": 0.3,
      "velocity": 0.71,
      "hand": "left"
    },
    {
      "midi": 74,
      "time": 44.7,
      "duration": 0.45,
      "velocity": 0.69,
      "hand": "right"
    },
    {
      "midi": 55,
      "time": 44.85,
      "duration": 0.3,
      "velocity": 0.71,
      "hand": "left"
    },
    {
      "midi": 48,
      "time": 45.15,
      "duration": 0.3,
      "velocity": 0.71,
      "hand": "left"
    },
    {
      "midi": 77,
      "time": 45.15,
      "duration": 0.45,
      "velocity": 0.67,
      "hand": "right"
    },
    {
      "midi": 55,
      "time": 45.45,
      "duration": 0.3,
      "velocity": 0.71,
      "hand": "left"
    },
    {
      "midi": 76,
      "time": 45.6,
      "duration": 0.45,
      "velocity": 0.65,
      "hand": "right"
    },
    {
      "midi": 58,
      "time": 45.75,
      "duration": 0.3,
      "velocity": 0.71,
      "hand": "left"
    },
    {
      "midi": 77,
      "time": 45.9,
      "duration": 0.45,
      "velocity": 0.63,
      "hand": "right"
    },
    {
      "midi": 60,
      "time": 46.05,
      "duration": 0.3,
      "velocity": 0.71,
      "hand": "left"
    },
    {
      "midi": 64,
      "time": 46.35,
      "duration": 0.3,
      "velocity": 0.71,
      "hand": "left"
    },
    {
      "midi": 80,
      "time": 46.35,
      "duration": 0.45,
      "velocity": 0.61,
      "hand": "right"
    },
    {
      "midi": 60,
      "time": 46.65,
      "duration": 0.3,
      "velocity": 0.71,
      "hand": "left"
    },
    {
      "midi": 79,
      "time": 46.8,
      "duration": 0.45,
      "velocity": 0.59,
      "hand": "right"
    },
    {
      "midi": 58,
      "time": 46.95,
      "duration": 0.3,
      "velocity": 0.71,
      "hand": "left"
    },
    {
      "midi": 80,
      "time": 47.1,
      "duration": 0.45,
      "velocity": 0.57,
      "hand": "right"
    },
    {
      "midi": 55,
      "time": 47.25,
      "duration": 0.3,
      "velocity": 0.71,
      "hand": "left"
    },
    {
      "midi": 41,
      "time": 47.55,
      "duration": 0.3,
      "velocity": 0.71,
      "hand": "left"
    },
    {
      "midi": 77,
      "time": 47.55,
      "duration": 0.6,
      "velocity": 0.54,
      "hand": "right"
    },
    {
      "midi": 48,
      "time": 47.85,
      "duration": 0.3,
      "velocity": 0.71,
      "hand": "left"
    },
    {
      "midi": 53,
      "time": 48.15,
      "duration": 0.3,
      "velocity": 0.71,
      "hand": "left"
    },
    {
      "midi": 56,
      "time": 48.45,
      "duration": 0.3,
      "velocity": 0.71,
      "hand": "left"
    },
    {
      "midi": 65,
      "time": 48.75,
      "duration": 0.3,
      "velocity": 0.71,
      "hand": "left"
    },
    {
      "midi": 60,
      "time": 49.05,
      "duration": 0.3,
      "velocity": 0.71,
      "hand": "left"
    },
    {
      "midi": 56,
      "time": 49.35,
      "duration": 0.3,
      "velocity": 0.71,
      "hand": "left"
    },
    {
      "midi": 53,
      "time": 49.65,
      "duration": 0.3,
      "velocity": 0.71,
      "hand": "left"
    },
    {
      "midi": 41,
      "time": 49.95,
      "duration": 0.3,
      "velocity": 0.71,
      "hand": "left"
    },
    {
      "midi": 75,
      "time": 49.95,
      "duration": 0.45,
      "velocity": 0.54,
      "hand": "right"
    },
    {
      "midi": 48,
      "time": 50.25,
      "duration": 0.3,
      "velocity": 0.71,
      "hand": "left"
    },
    {
      "midi": 77,
      "time": 50.4,
      "duration": 0.45,
      "velocity": 0.54,
      "hand": "right"
    },
    {
      "midi": 53,
      "time": 50.55,
      "duration": 0.3,
      "velocity": 0.71,
      "hand": "left"
    },
    {
      "midi": 75,
      "time": 50.7,
      "duration": 0.45,
      "velocity": 0.54,
      "hand": "right"
    },
    {
      "midi": 56,
      "time": 50.85,
      "duration": 0.3,
      "velocity": 0.71,
      "hand": "left"
    },
    {
      "midi": 63,
      "time": 51.15,
      "duration": 0.3,
      "velocity": 0.71,
      "hand": "left"
    },
    {
      "midi": 77,
      "time": 51.15,
      "duration": 0.45,
      "velocity": 0.54,
      "hand": "right"
    },
    {
      "midi": 60,
      "time": 51.45,
      "duration": 0.3,
      "velocity": 0.71,
      "hand": "left"
    },
    {
      "midi": 75,
      "time": 51.6,
      "duration": 0.45,
      "velocity": 0.54,
      "hand": "right"
    },
    {
      "midi": 56,
      "time": 51.75,
      "duration": 0.3,
      "velocity": 0.71,
      "hand": "left"
    },
    {
      "midi": 77,
      "time": 51.9,
      "duration": 0.45,
      "velocity": 0.54,
      "hand": "right"
    },
    {
      "midi": 53,
      "time": 52.05,
      "duration": 0.3,
      "velocity": 0.71,
      "hand": "left"
    },
    {
      "midi": 41,
      "time": 52.35,
      "duration": 0.3,
      "velocity": 0.71,
      "hand": "left"
    },
    {
      "midi": 73,
      "time": 52.35,
      "duration": 0.45,
      "velocity": 0.54,
      "hand": "right"
    },
    {
      "midi": 49,
      "time": 52.65,
      "duration": 0.3,
      "velocity": 0.71,
      "hand": "left"
    },
    {
      "midi": 75,
      "time": 52.8,
      "duration": 0.45,
      "velocity": 0.54,
      "hand": "right"
    },
    {
      "midi": 53,
      "time": 52.95,
      "duration": 0.3,
      "velocity": 0.71,
      "hand": "left"
    },
    {
      "midi": 73,
      "time": 53.1,
      "duration": 0.45,
      "velocity": 0.54,
      "hand": "right"
    },
    {
      "midi": 56,
      "time": 53.25,
      "duration": 0.3,
      "velocity": 0.71,
      "hand": "left"
    },
    {
      "midi": 61,
      "time": 53.55,
      "duration": 0.3,
      "velocity": 0.71,
      "hand": "left"
    },
    {
      "midi": 75,
      "time": 53.55,
      "duration": 0.45,
      "velocity": 0.54,
      "hand": "right"
    },
    {
      "midi": 56,
      "time": 53.85,
      "duration": 0.3,
      "velocity": 0.71,
      "hand": "left"
    },
    {
      "midi": 73,
      "time": 54,
      "duration": 0.45,
      "velocity": 0.54,
      "hand": "right"
    },
    {
      "midi": 53,
      "time": 54.15,
      "duration": 0.3,
      "velocity": 0.71,
      "hand": "left"
    },
    {
      "midi": 75,
      "time": 54.3,
      "duration": 0.45,
      "velocity": 0.54,
      "hand": "right"
    },
    {
      "midi": 49,
      "time": 54.45,
      "duration": 0.3,
      "velocity": 0.71,
      "hand": "left"
    },
    {
      "midi": 41,
      "time": 54.75,
      "duration": 0.3,
      "velocity": 0.71,
      "hand": "left"
    },
    {
      "midi": 72,
      "time": 54.75,
      "duration": 0.45,
      "velocity": 0.54,
      "hand": "right"
    },
    {
      "midi": 49,
      "time": 55.05,
      "duration": 0.3,
      "velocity": 0.71,
      "hand": "left"
    },
    {
      "midi": 73,
      "time": 55.2,
      "duration": 0.45,
      "velocity": 0.54,
      "hand": "right"
    },
    {
      "midi": 53,
      "time": 55.35,
      "duration": 0.3,
      "velocity": 0.71,
      "hand": "left"
    },
    {
      "midi": 72,
      "time": 55.5,
      "duration": 0.45,
      "velocity": 0.59,
      "hand": "right"
    },
    {
      "midi": 56,
      "time": 55.65,
      "duration": 0.3,
      "velocity": 0.71,
      "hand": "left"
    },
    {
      "midi": 60,
      "time": 55.95,
      "duration": 0.3,
      "velocity": 0.71,
      "hand": "left"
    },
    {
      "midi": 73,
      "time": 55.95,
      "duration": 0.45,
      "velocity": 0.64,
      "hand": "right"
    },
    {
      "midi": 56,
      "time": 56.25,
      "duration": 0.3,
      "velocity": 0.71,
      "hand": "left"
    },
    {
      "midi": 72,
      "time": 56.4,
      "duration": 0.45,
      "velocity": 0.68,
      "hand": "right"
    },
    {
      "midi": 53,
      "time": 56.55,
      "duration": 0.3,
      "velocity": 0.71,
      "hand": "left"
    },
    {
      "midi": 73,
      "time": 56.7,
      "duration": 0.45,
      "velocity": 0.72,
      "hand": "right"
    },
    {
      "midi": 49,
      "time": 56.85,
      "duration": 0.3,
      "velocity": 0.71,
      "hand": "left"
    },
    {
      "midi": 43,
      "time": 57.15,
      "duration": 0.3,
      "velocity": 0.71,
      "hand": "left"
    },
    {
      "midi": 71,
      "time": 57.15,
      "duration": 0.45,
      "velocity": 0.77,
      "hand": "right"
    },
    {
      "midi": 50,
      "time": 57.45,
      "duration": 0.3,
      "velocity": 0.71,
      "hand": "left"
    },
    {
      "midi": 66,
      "time": 57.6,
      "duration": 0.45,
      "velocity": 0.77,
      "hand": "right"
    },
    {
      "midi": 53,
      "time": 57.75,
      "duration": 0.3,
      "velocity": 0.71,
      "hand": "left"
    },
    {
      "midi": 67,
      "time": 57.9,
      "duration": 0.45,
      "velocity": 0.77,
      "hand": "right"
    },
    {
      "midi": 55,
      "time": 58.05,
      "duration": 0.3,
      "velocity": 0.71,
      "hand": "left"
    },
    {
      "midi": 59,
      "time": 58.35,
      "duration": 0.3,
      "velocity": 0.71,
      "hand": "left"
    },
    {
      "midi": 68,
      "time": 58.35,
      "duration": 0.45,
      "velocity": 0.77,
      "hand": "right"
    },
    {
      "midi": 55,
      "time": 58.65,
      "duration": 0.3,
      "velocity": 0.71,
      "hand": "left"
    },
    {
      "midi": 65,
      "time": 58.8,
      "duration": 0.45,
      "velocity": 0.77,
      "hand": "right"
    },
    {
      "midi": 53,
      "time": 58.95,
      "duration": 0.3,
      "velocity": 0.71,
      "hand": "left"
    },
    {
      "midi": 72,
      "time": 59.1,
      "duration": 0.45,
      "velocity": 0.77,
      "hand": "right"
    },
    {
      "midi": 50,
      "time": 59.25,
      "duration": 0.3,
      "velocity": 0.71,
      "hand": "left"
    },
    {
      "midi": 43,
      "time": 59.55,
      "duration": 0.3,
      "velocity": 0.71,
      "hand": "left"
    },
    {
      "midi": 71,
      "time": 59.55,
      "duration": 0.45,
      "velocity": 0.77,
      "hand": "right"
    },
    {
      "midi": 50,
      "time": 59.85,
      "duration": 0.3,
      "velocity": 0.71,
      "hand": "left"
    },
    {
      "midi": 66,
      "time": 60,
      "duration": 0.45,
      "velocity": 0.77,
      "hand": "right"
    },
    {
      "midi": 53,
      "time": 60.15,
      "duration": 0.3,
      "velocity": 0.71,
      "hand": "left"
    },
    {
      "midi": 67,
      "time": 60.3,
      "duration": 0.45,
      "velocity": 0.76,
      "hand": "right"
    },
    {
      "midi": 55,
      "time": 60.45,
      "duration": 0.3,
      "velocity": 0.71,
      "hand": "left"
    },
    {
      "midi": 59,
      "time": 60.75,
      "duration": 0.3,
      "velocity": 0.71,
      "hand": "left"
    },
    {
      "midi": 68,
      "time": 60.75,
      "duration": 0.45,
      "velocity": 0.75,
      "hand": "right"
    },
    {
      "midi": 55,
      "time": 61.05,
      "duration": 0.3,
      "velocity": 0.71,
      "hand": "left"
    },
    {
      "midi": 65,
      "time": 61.2,
      "duration": 0.45,
      "velocity": 0.73,
      "hand": "right"
    },
    {
      "midi": 53,
      "time": 61.35,
      "duration": 0.3,
      "velocity": 0.71,
      "hand": "left"
    },
    {
      "midi": 72,
      "time": 61.5,
      "duration": 0.45,
      "velocity": 0.72,
      "hand": "right"
    },
    {
      "midi": 50,
      "time": 61.65,
      "duration": 0.3,
      "velocity": 0.71,
      "hand": "left"
    },
    {
      "midi": 43,
      "time": 61.95,
      "duration": 0.3,
      "velocity": 0.71,
      "hand": "left"
    },
    {
      "midi": 71,
      "time": 61.95,
      "duration": 0.45,
      "velocity": 0.71,
      "hand": "right"
    },
    {
      "midi": 50,
      "time": 62.25,
      "duration": 0.3,
      "velocity": 0.71,
      "hand": "left"
    },
    {
      "midi": 66,
      "time": 62.4,
      "duration": 0.45,
      "velocity": 0.69,
      "hand": "right"
    },
    {
      "midi": 53,
      "time": 62.55,
      "duration": 0.3,
      "velocity": 0.71,
      "hand": "left"
    },
    {
      "midi": 67,
      "time": 62.7,
      "duration": 0.45,
      "velocity": 0.68,
      "hand": "right"
    },
    {
      "midi": 55,
      "time": 62.85,
      "duration": 0.3,
      "velocity": 0.71,
      "hand": "left"
    },
    {
      "midi": 59,
      "time": 63.15,
      "duration": 0.3,
      "velocity": 0.71,
      "hand": "left"
    },
    {
      "midi": 68,
      "time": 63.15,
      "duration": 0.45,
      "velocity": 0.66,
      "hand": "right"
    },
    {
      "midi": 55,
      "time": 63.45,
      "duration": 0.3,
      "velocity": 0.71,
      "hand": "left"
    },
    {
      "midi": 67,
      "time": 63.6,
      "duration": 0.45,
      "velocity": 0.65,
      "hand": "right"
    },
    {
      "midi": 53,
      "time": 63.75,
      "duration": 0.3,
      "velocity": 0.71,
      "hand": "left"
    },
    {
      "midi": 69,
      "time": 63.9,
      "duration": 0.45,
      "velocity": 0.64,
      "hand": "right"
    },
    {
      "midi": 50,
      "time": 64.05,
      "duration": 0.3,
      "velocity": 0.71,
      "hand": "left"
    },
    {
      "midi": 43,
      "time": 64.35,
      "duration": 0.3,
      "velocity": 0.71,
      "hand": "left"
    },
    {
      "midi": 72,
      "time": 64.35,
      "duration": 0.45,
      "velocity": 0.62,
      "hand": "right"
    },
    {
      "midi": 50,
      "time": 64.65,
      "duration": 0.3,
      "velocity": 0.71,
      "hand": "left"
    },
    {
      "midi": 71,
      "time": 64.8,
      "duration": 0.45,
      "velocity": 0.61,
      "hand": "right"
    },
    {
      "midi": 53,
      "time": 64.95,
      "duration": 0.3,
      "velocity": 0.71,
      "hand": "left"
    },
    {
      "midi": 72,
      "time": 65.1,
      "duration": 0.45,
      "velocity": 0.6,
      "hand": "right"
    },
    {
      "midi": 55,
      "time": 65.25,
      "duration": 0.3,
      "velocity": 0.71,
      "hand": "left"
    },
    {
      "midi": 59,
      "time": 65.55,
      "duration": 0.3,
      "velocity": 0.71,
      "hand": "left"
    },
    {
      "midi": 75,
      "time": 65.55,
      "duration": 0.45,
      "velocity": 0.58,
      "hand": "right"
    },
    {
      "midi": 55,
      "time": 65.85,
      "duration": 0.3,
      "velocity": 0.71,
      "hand": "left"
    },
    {
      "midi": 74,
      "time": 66,
      "duration": 0.45,
      "velocity": 0.57,
      "hand": "right"
    },
    {
      "midi": 53,
      "time": 66.15,
      "duration": 0.3,
      "velocity": 0.71,
      "hand": "left"
    },
    {
      "midi": 75,
      "time": 66.3,
      "duration": 0.45,
      "velocity": 0.56,
      "hand": "right"
    },
    {
      "midi": 50,
      "time": 66.45,
      "duration": 0.3,
      "velocity": 0.71,
      "hand": "left"
    },
    {
      "midi": 36,
      "time": 66.75,
      "duration": 0.3,
      "velocity": 0.71,
      "hand": "left"
    },
    {
      "midi": 72,
      "time": 66.75,
      "duration": 0.6,
      "velocity": 0.54,
      "hand": "right"
    },
    {
      "midi": 43,
      "time": 67.05,
      "duration": 0.3,
      "velocity": 0.71,
      "hand": "left"
    },
    {
      "midi": 48,
      "time": 67.35,
      "duration": 0.3,
      "velocity": 0.71,
      "hand": "left"
    },
    {
      "midi": 51,
      "time": 67.65,
      "duration": 0.3,
      "velocity": 0.71,
      "hand": "left"
    },
    {
      "midi": 60,
      "time": 67.95,
      "duration": 0.3,
      "velocity": 0.71,
      "hand": "left"
    },
    {
      "midi": 55,
      "time": 68.25,
      "duration": 0.3,
      "velocity": 0.71,
      "hand": "left"
    },
    {
      "midi": 51,
      "time": 68.55,
      "duration": 0.3,
      "velocity": 0.71,
      "hand": "left"
    },
    {
      "midi": 48,
      "time": 68.85,
      "duration": 0.3,
      "velocity": 0.71,
      "hand": "left"
    },
    {
      "midi": 36,
      "time": 69.15,
      "duration": 0.3,
      "velocity": 0.71,
      "hand": "left"
    },
    {
      "midi": 70,
      "time": 69.15,
      "duration": 0.45,
      "velocity": 0.54,
      "hand": "right"
    },
    {
      "midi": 43,
      "time": 69.45,
      "duration": 0.3,
      "velocity": 0.71,
      "hand": "left"
    },
    {
      "midi": 72,
      "time": 69.6,
      "duration": 0.45,
      "velocity": 0.54,
      "hand": "right"
    },
    {
      "midi": 48,
      "time": 69.75,
      "duration": 0.3,
      "velocity": 0.71,
      "hand": "left"
    },
    {
      "midi": 70,
      "time": 69.9,
      "duration": 0.45,
      "velocity": 0.54,
      "hand": "right"
    },
    {
      "midi": 51,
      "time": 70.05,
      "duration": 0.3,
      "velocity": 0.71,
      "hand": "left"
    },
    {
      "midi": 55,
      "time": 70.35,
      "duration": 0.3,
      "velocity": 0.71,
      "hand": "left"
    },
    {
      "midi": 72,
      "time": 70.35,
      "duration": 0.45,
      "velocity": 0.54,
      "hand": "right"
    },
    {
      "midi": 51,
      "time": 70.65,
      "duration": 0.3,
      "velocity": 0.71,
      "hand": "left"
    },
    {
      "midi": 70,
      "time": 70.8,
      "duration": 0.45,
      "velocity": 0.54,
      "hand": "right"
    },
    {
      "midi": 48,
      "time": 70.95,
      "duration": 0.3,
      "velocity": 0.71,
      "hand": "left"
    },
    {
      "midi": 72,
      "time": 71.1,
      "duration": 0.45,
      "velocity": 0.54,
      "hand": "right"
    },
    {
      "midi": 43,
      "time": 71.25,
      "duration": 0.3,
      "velocity": 0.71,
      "hand": "left"
    },
    {
      "midi": 36,
      "time": 71.55,
      "duration": 0.3,
      "velocity": 0.71,
      "hand": "left"
    },
    {
      "midi": 68,
      "time": 71.55,
      "duration": 0.45,
      "velocity": 0.54,
      "hand": "right"
    },
    {
      "midi": 44,
      "time": 71.85,
      "duration": 0.3,
      "velocity": 0.71,
      "hand": "left"
    },
    {
      "midi": 70,
      "time": 72,
      "duration": 0.45,
      "velocity": 0.54,
      "hand": "right"
    },
    {
      "midi": 48,
      "time": 72.15,
      "duration": 0.3,
      "velocity": 0.71,
      "hand": "left"
    },
    {
      "midi": 68,
      "time": 72.3,
      "duration": 0.45,
      "velocity": 0.57,
      "hand": "right"
    },
    {
      "midi": 51,
      "time": 72.45,
      "duration": 0.3,
      "velocity": 0.71,
      "hand": "left"
    },
    {
      "midi": 56,
      "time": 72.75,
      "duration": 0.3,
      "velocity": 0.71,
      "hand": "left"
    },
    {
      "midi": 70,
      "time": 72.75,
      "duration": 0.45,
      "velocity": 0.59,
      "hand": "right"
    },
    {
      "midi": 51,
      "time": 73.05,
      "duration": 0.3,
      "velocity": 0.71,
      "hand": "left"
    },
    {
      "midi": 68,
      "time": 73.2,
      "duration": 0.45,
      "velocity": 0.61,
      "hand": "right"
    },
    {
      "midi": 48,
      "time": 73.35,
      "duration": 0.3,
      "velocity": 0.71,
      "hand": "left"
    },
    {
      "midi": 70,
      "time": 73.5,
      "duration": 0.45,
      "velocity": 0.63,
      "hand": "right"
    },
    {
      "midi": 44,
      "time": 73.65,
      "duration": 0.3,
      "velocity": 0.71,
      "hand": "left"
    },
    {
      "midi": 36,
      "time": 73.95,
      "duration": 0.3,
      "velocity": 0.71,
      "hand": "left"
    },
    {
      "midi": 66,
      "time": 73.95,
      "duration": 0.45,
      "velocity": 0.65,
      "hand": "right"
    },
    {
      "midi": 44,
      "time": 74.25,
      "duration": 0.3,
      "velocity": 0.71,
      "hand": "left"
    },
    {
      "midi": 68,
      "time": 74.4,
      "duration": 0.45,
      "velocity": 0.67,
      "hand": "right"
    },
    {
      "midi": 48,
      "time": 74.55,
      "duration": 0.3,
      "velocity": 0.71,
      "hand": "left"
    },
    {
      "midi": 66,
      "time": 74.7,
      "duration": 0.45,
      "velocity": 0.69,
      "hand": "right"
    },
    {
      "midi": 51,
      "time": 74.85,
      "duration": 0.3,
      "velocity": 0.71,
      "hand": "left"
    },
    {
      "midi": 56,
      "time": 75.15,
      "duration": 0.3,
      "velocity": 0.71,
      "hand": "left"
    },
    {
      "midi": 68,
      "time": 75.15,
      "duration": 0.45,
      "velocity": 0.71,
      "hand": "right"
    },
    {
      "midi": 51,
      "time": 75.45,
      "duration": 0.3,
      "velocity": 0.71,
      "hand": "left"
    },
    {
      "midi": 66,
      "time": 75.6,
      "duration": 0.45,
      "velocity": 0.73,
      "hand": "right"
    },
    {
      "midi": 48,
      "time": 75.75,
      "duration": 0.3,
      "velocity": 0.71,
      "hand": "left"
    },
    {
      "midi": 68,
      "time": 75.9,
      "duration": 0.45,
      "velocity": 0.75,
      "hand": "right"
    },
    {
      "midi": 44,
      "time": 76.05,
      "duration": 0.3,
      "velocity": 0.71,
      "hand": "left"
    },
    {
      "midi": 37,
      "time": 76.35,
      "duration": 0.3,
      "velocity": 0.71,
      "hand": "left"
    },
    {
      "midi": 65,
      "time": 76.35,
      "duration": 0.45,
      "velocity": 0.77,
      "hand": "right"
    },
    {
      "midi": 44,
      "time": 76.65,
      "duration": 0.3,
      "velocity": 0.71,
      "hand": "left"
    },
    {
      "midi": 77,
      "time": 76.8,
      "duration": 0.45,
      "velocity": 0.77,
      "hand": "right"
    },
    {
      "midi": 49,
      "time": 76.95,
      "duration": 0.3,
      "velocity": 0.71,
      "hand": "left"
    },
    {
      "midi": 75,
      "time": 77.1,
      "duration": 0.45,
      "velocity": 0.77,
      "hand": "right"
    },
    {
      "midi": 53,
      "time": 77.25,
      "duration": 0.3,
      "velocity": 0.71,
      "hand": "left"
    },
    {
      "midi": 56,
      "time": 77.55,
      "duration": 0.3,
      "velocity": 0.71,
      "hand": "left"
    },
    {
      "midi": 73,
      "time": 77.55,
      "duration": 0.45,
      "velocity": 0.77,
      "hand": "right"
    },
    {
      "midi": 53,
      "time": 77.85,
      "duration": 0.3,
      "velocity": 0.71,
      "hand": "left"
    },
    {
      "midi": 68,
      "time": 78,
      "duration": 0.45,
      "velocity": 0.77,
      "hand": "right"
    },
    {
      "midi": 49,
      "time": 78.15,
      "duration": 0.3,
      "velocity": 0.71,
      "hand": "left"
    },
    {
      "midi": 70,
      "time": 78.3,
      "duration": 0.45,
      "velocity": 0.77,
      "hand": "right"
    },
    {
      "midi": 44,
      "time": 78.45,
      "duration": 0.3,
      "velocity": 0.71,
      "hand": "left"
    },
    {
      "midi": 37,
      "time": 78.75,
      "duration": 0.3,
      "velocity": 0.71,
      "hand": "left"
    },
    {
      "midi": 71,
      "time": 78.75,
      "duration": 0.45,
      "velocity": 0.77,
      "hand": "right"
    },
    {
      "midi": 44,
      "time": 79.05,
      "duration": 0.3,
      "velocity": 0.71,
      "hand": "left"
    },
    {
      "midi": 82,
      "time": 79.2,
      "duration": 0.45,
      "velocity": 0.82,
      "hand": "right"
    },
    {
      "midi": 49,
      "time": 79.35,
      "duration": 0.3,
      "velocity": 0.71,
      "hand": "left"
    },
    {
      "midi": 80,
      "time": 79.5,
      "duration": 0.45,
      "velocity": 0.86,
      "hand": "right"
    },
    {
      "midi": 53,
      "time": 79.65,
      "duration": 0.3,
      "velocity": 0.71,
      "hand": "left"
    },
    {
      "midi": 56,
      "time": 79.95,
      "duration": 0.3,
      "velocity": 0.71,
      "hand": "left"
    },
    {
      "midi": 78,
      "time": 79.95,
      "duration": 0.45,
      "velocity": 0.91,
      "hand": "right"
    },
    {
      "midi": 53,
      "time": 80.25,
      "duration": 0.3,
      "velocity": 0.71,
      "hand": "left"
    },
    {
      "midi": 75,
      "time": 80.4,
      "duration": 0.45,
      "velocity": 0.95,
      "hand": "right"
    },
    {
      "midi": 49,
      "time": 80.55,
      "duration": 0.3,
      "velocity": 0.71,
      "hand": "left"
    },
    {
      "midi": 78,
      "time": 80.7,
      "duration": 0.45,
      "velocity": 1,
      "hand": "right"
    },
    {
      "midi": 44,
      "time": 80.85,
      "duration": 0.3,
      "velocity": 0.71,
      "hand": "left"
    },
    {
      "midi": 37,
      "time": 81.15,
      "duration": 0.3,
      "velocity": 0.71,
      "hand": "left"
    },
    {
      "midi": 68,
      "time": 81.15,
      "duration": 0.45,
      "velocity": 1,
      "hand": "right"
    },
    {
      "midi": 44,
      "time": 81.45,
      "duration": 0.3,
      "velocity": 0.71,
      "hand": "left"
    },
    {
      "midi": 78,
      "time": 81.6,
      "duration": 0.45,
      "velocity": 1,
      "hand": "right"
    },
    {
      "midi": 49,
      "time": 81.75,
      "duration": 0.3,
      "velocity": 0.71,
      "hand": "left"
    },
    {
      "midi": 77,
      "time": 81.9,
      "duration": 0.45,
      "velocity": 1,
      "hand": "right"
    },
    {
      "midi": 53,
      "time": 82.05,
      "duration": 0.3,
      "velocity": 0.71,
      "hand": "left"
    },
    {
      "midi": 56,
      "time": 82.35,
      "duration": 0.3,
      "velocity": 0.71,
      "hand": "left"
    },
    {
      "midi": 75,
      "time": 82.35,
      "duration": 0.45,
      "velocity": 1,
      "hand": "right"
    },
    {
      "midi": 53,
      "time": 82.65,
      "duration": 0.3,
      "velocity": 0.71,
      "hand": "left"
    },
    {
      "midi": 71,
      "time": 82.8,
      "duration": 0.45,
      "velocity": 1,
      "hand": "right"
    },
    {
      "midi": 49,
      "time": 82.95,
      "duration": 0.3,
      "velocity": 0.71,
      "hand": "left"
    },
    {
      "midi": 75,
      "time": 83.1,
      "duration": 0.45,
      "velocity": 1,
      "hand": "right"
    },
    {
      "midi": 44,
      "time": 83.25,
      "duration": 0.3,
      "velocity": 0.71,
      "hand": "left"
    },
    {
      "midi": 37,
      "time": 83.55,
      "duration": 0.3,
      "velocity": 0.71,
      "hand": "left"
    },
    {
      "midi": 65,
      "time": 83.55,
      "duration": 0.45,
      "velocity": 1,
      "hand": "right"
    },
    {
      "midi": 44,
      "time": 83.85,
      "duration": 0.3,
      "velocity": 0.71,
      "hand": "left"
    },
    {
      "midi": 75,
      "time": 84,
      "duration": 0.45,
      "velocity": 1,
      "hand": "right"
    },
    {
      "midi": 49,
      "time": 84.15,
      "duration": 0.3,
      "velocity": 0.71,
      "hand": "left"
    },
    {
      "midi": 73,
      "time": 84.3,
      "duration": 0.45,
      "velocity": 1,
      "hand": "right"
    },
    {
      "midi": 53,
      "time": 84.45,
      "duration": 0.3,
      "velocity": 0.71,
      "hand": "left"
    },
    {
      "midi": 56,
      "time": 84.75,
      "duration": 0.3,
      "velocity": 0.71,
      "hand": "left"
    },
    {
      "midi": 71,
      "time": 84.75,
      "duration": 0.45,
      "velocity": 0.92,
      "hand": "right"
    },
    {
      "midi": 53,
      "time": 85.05,
      "duration": 0.3,
      "velocity": 0.71,
      "hand": "left"
    },
    {
      "midi": 68,
      "time": 85.2,
      "duration": 0.45,
      "velocity": 0.84,
      "hand": "right"
    },
    {
      "midi": 49,
      "time": 85.35,
      "duration": 0.3,
      "velocity": 0.71,
      "hand": "left"
    },
    {
      "midi": 71,
      "time": 85.5,
      "duration": 0.45,
      "velocity": 0.77,
      "hand": "right"
    },
    {
      "midi": 44,
      "time": 85.65,
      "duration": 0.3,
      "velocity": 0.71,
      "hand": "left"
    },
    {
      "midi": 38,
      "time": 85.95,
      "duration": 0.3,
      "velocity": 0.71,
      "hand": "left"
    },
    {
      "midi": 58,
      "time": 85.95,
      "duration": 0.45,
      "velocity": 0.77,
      "hand": "right"
    },
    {
      "midi": 44,
      "time": 86.25,
      "duration": 0.3,
      "velocity": 0.71,
      "hand": "left"
    },
    {
      "midi": 65,
      "time": 86.4,
      "duration": 0.45,
      "velocity": 0.77,
      "hand": "right"
    },
    {
      "midi": 46,
      "time": 86.55,
      "duration": 0.3,
      "velocity": 0.71,
      "hand": "left"
    },
    {
      "midi": 64,
      "time": 86.7,
      "duration": 0.45,
      "velocity": 0.78,
      "hand": "right"
    },
    {
      "midi": 53,
      "time": 86.85,
      "duration": 0.3,
      "velocity": 0.71,
      "hand": "left"
    },
    {
      "midi": 56,
      "time": 87.15,
      "duration": 0.3,
      "velocity": 0.71,
      "hand": "left"
    },
    {
      "midi": 63,
      "time": 87.15,
      "duration": 0.45,
      "velocity": 0.8,
      "hand": "right"
    },
    {
      "midi": 53,
      "time": 87.45,
      "duration": 0.3,
      "velocity": 0.71,
      "hand": "left"
    },
    {
      "midi": 62,
      "time": 87.6,
      "duration": 0.45,
      "velocity": 0.8,
      "hand": "right"
    },
    {
      "midi": 46,
      "time": 87.75,
      "duration": 0.3,
      "velocity": 0.71,
      "hand": "left"
    },
    {
      "midi": 65,
      "time": 87.9,
      "duration": 0.45,
      "velocity": 0.81,
      "hand": "right"
    },
    {
      "midi": 44,
      "time": 88.05,
      "duration": 0.3,
      "velocity": 0.71,
      "hand": "left"
    },
    {
      "midi": 38,
      "time": 88.35,
      "duration": 0.3,
      "velocity": 0.71,
      "hand": "left"
    },
    {
      "midi": 58,
      "time": 88.35,
      "duration": 0.45,
      "velocity": 0.82,
      "hand": "right"
    },
    {
      "midi": 46,
      "time": 88.65,
      "duration": 0.3,
      "velocity": 0.71,
      "hand": "left"
    },
    {
      "midi": 71,
      "time": 88.8,
      "duration": 0.45,
      "velocity": 0.83,
      "hand": "right"
    },
    {
      "midi": 53,
      "time": 88.95,
      "duration": 0.3,
      "velocity": 0.71,
      "hand": "left"
    },
    {
      "midi": 70,
      "time": 89.1,
      "duration": 0.45,
      "velocity": 0.84,
      "hand": "right"
    },
    {
      "midi": 56,
      "time": 89.25,
      "duration": 0.3,
      "velocity": 0.71,
      "hand": "left"
    },
    {
      "midi": 58,
      "time": 89.55,
      "duration": 0.3,
      "velocity": 0.71,
      "hand": "left"
    },
    {
      "midi": 69,
      "time": 89.55,
      "duration": 0.45,
      "velocity": 0.85,
      "hand": "right"
    },
    {
      "midi": 56,
      "time": 89.85,
      "duration": 0.3,
      "velocity": 0.71,
      "hand": "left"
    },
    {
      "midi": 68,
      "time": 90,
      "duration": 0.45,
      "velocity": 0.87,
      "hand": "right"
    },
    {
      "midi": 53,
      "time": 90.15,
      "duration": 0.3,
      "velocity": 0.71,
      "hand": "left"
    },
    {
      "midi": 77,
      "time": 90.3,
      "duration": 0.45,
      "velocity": 0.87,
      "hand": "right"
    },
    {
      "midi": 46,
      "time": 90.45,
      "duration": 0.285,
      "velocity": 0.71,
      "hand": "left"
    },
    {
      "midi": 46,
      "time": 90.75,
      "duration": 0.285,
      "velocity": 0.71,
      "hand": "left"
    },
    {
      "midi": 75,
      "time": 90.75,
      "duration": 0.45,
      "velocity": 0.88,
      "hand": "right"
    },
    {
      "midi": 46,
      "time": 91.05,
      "duration": 0.3,
      "velocity": 0.71,
      "hand": "left"
    },
    {
      "midi": 74,
      "time": 91.2,
      "duration": 0.45,
      "velocity": 0.9,
      "hand": "right"
    },
    {
      "midi": 53,
      "time": 91.35,
      "duration": 0.3,
      "velocity": 0.71,
      "hand": "left"
    },
    {
      "midi": 83,
      "time": 91.5,
      "duration": 0.45,
      "velocity": 0.91,
      "hand": "right"
    },
    {
      "midi": 56,
      "time": 91.65,
      "duration": 0.3,
      "velocity": 0.71,
      "hand": "left"
    },
    {
      "midi": 58,
      "time": 91.95,
      "duration": 0.3,
      "velocity": 0.71,
      "hand": "left"
    },
    {
      "midi": 82,
      "time": 91.95,
      "duration": 0.45,
      "velocity": 0.91,
      "hand": "right"
    },
    {
      "midi": 56,
      "time": 92.25,
      "duration": 0.3,
      "velocity": 0.71,
      "hand": "left"
    },
    {
      "midi": 81,
      "time": 92.4,
      "duration": 0.45,
      "velocity": 0.92,
      "hand": "right"
    },
    {
      "midi": 53,
      "time": 92.55,
      "duration": 0.3,
      "velocity": 0.71,
      "hand": "left"
    },
    {
      "midi": 80,
      "time": 92.7,
      "duration": 0.45,
      "velocity": 0.94,
      "hand": "right"
    },
    {
      "midi": 46,
      "time": 92.85,
      "duration": 0.3,
      "velocity": 0.71,
      "hand": "left"
    },
    {
      "midi": 38,
      "time": 93.15,
      "duration": 0.3,
      "velocity": 0.71,
      "hand": "left"
    },
    {
      "midi": 77,
      "time": 93.15,
      "duration": 0.45,
      "velocity": 0.94,
      "hand": "right"
    },
    {
      "midi": 46,
      "time": 93.45,
      "duration": 0.3,
      "velocity": 0.71,
      "hand": "left"
    },
    {
      "midi": 73,
      "time": 93.6,
      "duration": 0.45,
      "velocity": 0.95,
      "hand": "right"
    },
    {
      "midi": 53,
      "time": 93.75,
      "duration": 0.3,
      "velocity": 0.71,
      "hand": "left"
    },
    {
      "midi": 71,
      "time": 93.9,
      "duration": 0.45,
      "velocity": 0.97,
      "hand": "right"
    },
    {
      "midi": 56,
      "time": 94.05,
      "duration": 0.3,
      "velocity": 0.71,
      "hand": "left"
    },
    {
      "midi": 58,
      "time": 94.35,
      "duration": 0.3,
      "velocity": 0.71,
      "hand": "left"
    },
    {
      "midi": 70,
      "time": 94.35,
      "duration": 0.45,
      "velocity": 0.98,
      "hand": "right"
    },
    {
      "midi": 56,
      "time": 94.65,
      "duration": 0.3,
      "velocity": 0.71,
      "hand": "left"
    },
    {
      "midi": 61,
      "time": 94.8,
      "duration": 0.45,
      "velocity": 0.98,
      "hand": "right"
    },
    {
      "midi": 53,
      "time": 94.95,
      "duration": 0.3,
      "velocity": 0.71,
      "hand": "left"
    },
    {
      "midi": 59,
      "time": 95.1,
      "duration": 0.45,
      "velocity": 1,
      "hand": "right"
    },
    {
      "midi": 46,
      "time": 95.25,
      "duration": 0.3,
      "velocity": 0.71,
      "hand": "left"
    },
    {
      "midi": 39,
      "time": 95.55,
      "duration": 0.3,
      "velocity": 0.71,
      "hand": "left"
    },
    {
      "midi": 58,
      "time": 95.55,
      "duration": 0.45,
      "velocity": 0.75,
      "hand": "right"
    },
    {
      "midi": 46,
      "time": 95.85,
      "duration": 0.3,
      "velocity": 0.71,
      "hand": "left"
    },
    {
      "midi": 62,
      "time": 96,
      "duration": 0.45,
      "velocity": 0.75,
      "hand": "right"
    },
    {
      "midi": 51,
      "time": 96.15,
      "duration": 0.3,
      "velocity": 0.71,
      "hand": "left"
    },
    {
      "midi": 63,
      "time": 96.3,
      "duration": 0.45,
      "velocity": 0.75,
      "hand": "right"
    },
    {
      "midi": 54,
      "time": 96.45,
      "duration": 0.3,
      "velocity": 0.71,
      "hand": "left"
    },
    {
      "midi": 58,
      "time": 96.75,
      "duration": 0.3,
      "velocity": 0.71,
      "hand": "left"
    },
    {
      "midi": 65,
      "time": 96.75,
      "duration": 0.45,
      "velocity": 0.75,
      "hand": "right"
    },
    {
      "midi": 54,
      "time": 97.05,
      "duration": 0.3,
      "velocity": 0.71,
      "hand": "left"
    },
    {
      "midi": 66,
      "time": 97.2,
      "duration": 0.45,
      "velocity": 0.75,
      "hand": "right"
    },
    {
      "midi": 51,
      "time": 97.35,
      "duration": 0.3,
      "velocity": 0.71,
      "hand": "left"
    },
    {
      "midi": 69,
      "time": 97.5,
      "duration": 0.45,
      "velocity": 0.75,
      "hand": "right"
    },
    {
      "midi": 46,
      "time": 97.65,
      "duration": 0.3,
      "velocity": 0.71,
      "hand": "left"
    },
    {
      "midi": 38,
      "time": 97.95,
      "duration": 0.3,
      "velocity": 0.71,
      "hand": "left"
    },
    {
      "midi": 70,
      "time": 97.95,
      "duration": 0.45,
      "velocity": 0.75,
      "hand": "right"
    },
    {
      "midi": 46,
      "time": 98.25,
      "duration": 0.3,
      "velocity": 0.71,
      "hand": "left"
    },
    {
      "midi": 71,
      "time": 98.4,
      "duration": 0.45,
      "velocity": 0.75,
      "hand": "right"
    },
    {
      "midi": 53,
      "time": 98.55,
      "duration": 0.3,
      "velocity": 0.71,
      "hand": "left"
    },
    {
      "midi": 69,
      "time": 98.7,
      "duration": 0.45,
      "velocity": 0.75,
      "hand": "right"
    },
    {
      "midi": 56,
      "time": 98.85,
      "duration": 0.3,
      "velocity": 0.71,
      "hand": "left"
    },
    {
      "midi": 58,
      "time": 99.15,
      "duration": 0.3,
      "velocity": 0.71,
      "hand": "left"
    },
    {
      "midi": 70,
      "time": 99.15,
      "duration": 0.45,
      "velocity": 0.75,
      "hand": "right"
    },
    {
      "midi": 56,
      "time": 99.45,
      "duration": 0.3,
      "velocity": 0.71,
      "hand": "left"
    },
    {
      "midi": 61,
      "time": 99.6,
      "duration": 0.45,
      "velocity": 0.75,
      "hand": "right"
    },
    {
      "midi": 53,
      "time": 99.75,
      "duration": 0.3,
      "velocity": 0.71,
      "hand": "left"
    },
    {
      "midi": 59,
      "time": 99.9,
      "duration": 0.45,
      "velocity": 0.75,
      "hand": "right"
    },
    {
      "midi": 46,
      "time": 100.05,
      "duration": 0.3,
      "velocity": 0.71,
      "hand": "left"
    },
    {
      "midi": 39,
      "time": 100.35,
      "duration": 0.3,
      "velocity": 0.71,
      "hand": "left"
    },
    {
      "midi": 58,
      "time": 100.35,
      "duration": 0.45,
      "velocity": 0.75,
      "hand": "right"
    },
    {
      "midi": 46,
      "time": 100.65,
      "duration": 0.3,
      "velocity": 0.71,
      "hand": "left"
    },
    {
      "midi": 62,
      "time": 100.8,
      "duration": 0.45,
      "velocity": 0.75,
      "hand": "right"
    },
    {
      "midi": 51,
      "time": 100.95,
      "duration": 0.3,
      "velocity": 0.71,
      "hand": "left"
    },
    {
      "midi": 65,
      "time": 101.1,
      "duration": 0.45,
      "velocity": 0.75,
      "hand": "right"
    },
    {
      "midi": 54,
      "time": 101.25,
      "duration": 0.3,
      "velocity": 0.71,
      "hand": "left"
    },
    {
      "midi": 58,
      "time": 101.55,
      "duration": 0.3,
      "velocity": 0.71,
      "hand": "left"
    },
    {
      "midi": 63,
      "time": 101.55,
      "duration": 0.45,
      "velocity": 0.75,
      "hand": "right"
    },
    {
      "midi": 54,
      "time": 101.85,
      "duration": 0.3,
      "velocity": 0.71,
      "hand": "left"
    },
    {
      "midi": 75,
      "time": 102,
      "duration": 0.45,
      "velocity": 0.75,
      "hand": "right"
    },
    {
      "midi": 51,
      "time": 102.15,
      "duration": 0.3,
      "velocity": 0.71,
      "hand": "left"
    },
    {
      "midi": 69,
      "time": 102.3,
      "duration": 0.45,
      "velocity": 0.75,
      "hand": "right"
    },
    {
      "midi": 46,
      "time": 102.45,
      "duration": 0.3,
      "velocity": 0.71,
      "hand": "left"
    },
    {
      "midi": 38,
      "time": 102.75,
      "duration": 0.3,
      "velocity": 0.71,
      "hand": "left"
    },
    {
      "midi": 70,
      "time": 102.75,
      "duration": 0.45,
      "velocity": 0.75,
      "hand": "right"
    },
    {
      "midi": 46,
      "time": 103.05,
      "duration": 0.3,
      "velocity": 0.71,
      "hand": "left"
    },
    {
      "midi": 73,
      "time": 103.2,
      "duration": 0.45,
      "velocity": 0.75,
      "hand": "right"
    },
    {
      "midi": 53,
      "time": 103.35,
      "duration": 0.3,
      "velocity": 0.71,
      "hand": "left"
    },
    {
      "midi": 71,
      "time": 103.5,
      "duration": 0.435,
      "velocity": 0.75,
      "hand": "right"
    },
    {
      "midi": 56,
      "time": 103.65,
      "duration": 0.3,
      "velocity": 0.71,
      "hand": "left"
    },
    {
      "midi": 58,
      "time": 103.95,
      "duration": 0.3,
      "velocity": 0.71,
      "hand": "left"
    },
    {
      "midi": 71,
      "time": 103.95,
      "duration": 0.45,
      "velocity": 0.75,
      "hand": "right"
    },
    {
      "midi": 56,
      "time": 104.25,
      "duration": 0.3,
      "velocity": 0.71,
      "hand": "left"
    },
    {
      "midi": 63,
      "time": 104.4,
      "duration": 0.45,
      "velocity": 0.75,
      "hand": "right"
    },
    {
      "midi": 53,
      "time": 104.55,
      "duration": 0.3,
      "velocity": 0.71,
      "hand": "left"
    },
    {
      "midi": 65,
      "time": 104.7,
      "duration": 0.45,
      "velocity": 0.75,
      "hand": "right"
    },
    {
      "midi": 46,
      "time": 104.85,
      "duration": 0.3,
      "velocity": 0.71,
      "hand": "left"
    },
    {
      "midi": 39,
      "time": 105.15,
      "duration": 0.3,
      "velocity": 0.71,
      "hand": "left"
    },
    {
      "midi": 66,
      "time": 105.15,
      "duration": 0.45,
      "velocity": 0.75,
      "hand": "right"
    },
    {
      "midi": 46,
      "time": 105.45,
      "duration": 0.3,
      "velocity": 0.71,
      "hand": "left"
    },
    {
      "midi": 62,
      "time": 105.6,
      "duration": 0.45,
      "velocity": 0.75,
      "hand": "right"
    },
    {
      "midi": 51,
      "time": 105.75,
      "duration": 0.3,
      "velocity": 0.71,
      "hand": "left"
    },
    {
      "midi": 63,
      "time": 105.9,
      "duration": 0.45,
      "velocity": 0.76,
      "hand": "right"
    },
    {
      "midi": 54,
      "time": 106.05,
      "duration": 0.3,
      "velocity": 0.71,
      "hand": "left"
    },
    {
      "midi": 58,
      "time": 106.35,
      "duration": 0.3,
      "velocity": 0.71,
      "hand": "left"
    },
    {
      "midi": 66,
      "time": 106.35,
      "duration": 0.45,
      "velocity": 0.76,
      "hand": "right"
    },
    {
      "midi": 54,
      "time": 106.65,
      "duration": 0.3,
      "velocity": 0.71,
      "hand": "left"
    },
    {
      "midi": 70,
      "time": 106.8,
      "duration": 0.45,
      "velocity": 0.77,
      "hand": "right"
    },
    {
      "midi": 51,
      "time": 106.95,
      "duration": 0.3,
      "velocity": 0.71,
      "hand": "left"
    },
    {
      "midi": 71,
      "time": 107.1,
      "duration": 0.45,
      "velocity": 0.79,
      "hand": "right"
    },
    {
      "midi": 46,
      "time": 107.25,
      "duration": 0.3,
      "velocity": 0.71,
      "hand": "left"
    },
    {
      "midi": 40,
      "time": 107.55,
      "duration": 0.3,
      "velocity": 0.71,
      "hand": "left"
    },
    {
      "midi": 72,
      "time": 107.55,
      "duration": 0.45,
      "velocity": 0.8,
      "hand": "right"
    },
    {
      "midi": 48,
      "time": 107.85,
      "duration": 0.3,
      "velocity": 0.71,
      "hand": "left"
    },
    {
      "midi": 73,
      "time": 108,
      "duration": 0.45,
      "velocity": 0.8,
      "hand": "right"
    },
    {
      "midi": 55,
      "time": 108.15,
      "duration": 0.3,
      "velocity": 0.71,
      "hand": "left"
    },
    {
      "midi": 71,
      "time": 108.3,
      "duration": 0.45,
      "velocity": 0.81,
      "hand": "right"
    },
    {
      "midi": 58,
      "time": 108.45,
      "duration": 0.3,
      "velocity": 0.71,
      "hand": "left"
    },
    {
      "midi": 60,
      "time": 108.75,
      "duration": 0.3,
      "velocity": 0.71,
      "hand": "left"
    },
    {
      "midi": 72,
      "time": 108.75,
      "duration": 0.45,
      "velocity": 0.83,
      "hand": "right"
    },
    {
      "midi": 58,
      "time": 109.05,
      "duration": 0.3,
      "velocity": 0.71,
      "hand": "left"
    },
    {
      "midi": 63,
      "time": 109.2,
      "duration": 0.45,
      "velocity": 0.83,
      "hand": "right"
    },
    {
      "midi": 55,
      "time": 109.35,
      "duration": 0.3,
      "velocity": 0.71,
      "hand": "left"
    },
    {
      "midi": 61,
      "time": 109.5,
      "duration": 0.45,
      "velocity": 0.84,
      "hand": "right"
    },
    {
      "midi": 48,
      "time": 109.65,
      "duration": 0.3,
      "velocity": 0.71,
      "hand": "left"
    },
    {
      "midi": 41,
      "time": 109.95,
      "duration": 0.3,
      "velocity": 0.71,
      "hand": "left"
    },
    {
      "midi": 60,
      "time": 109.95,
      "duration": 0.45,
      "velocity": 0.85,
      "hand": "right"
    },
    {
      "midi": 48,
      "time": 110.25,
      "duration": 0.3,
      "velocity": 0.71,
      "hand": "left"
    },
    {
      "midi": 64,
      "time": 110.4,
      "duration": 0.45,
      "velocity": 0.87,
      "hand": "right"
    },
    {
      "midi": 53,
      "time": 110.55,
      "duration": 0.3,
      "velocity": 0.71,
      "hand": "left"
    },
    {
      "midi": 66,
      "time": 110.7,
      "duration": 0.45,
      "velocity": 0.87,
      "hand": "right"
    },
    {
      "midi": 56,
      "time": 110.85,
      "duration": 0.3,
      "velocity": 0.71,
      "hand": "left"
    },
    {
      "midi": 60,
      "time": 111.15,
      "duration": 0.3,
      "velocity": 0.71,
      "hand": "left"
    },
    {
      "midi": 65,
      "time": 111.15,
      "duration": 0.45,
      "velocity": 0.88,
      "hand": "right"
    },
    {
      "midi": 56,
      "time": 111.45,
      "duration": 0.3,
      "velocity": 0.71,
      "hand": "left"
    },
    {
      "midi": 77,
      "time": 111.6,
      "duration": 0.45,
      "velocity": 0.89,
      "hand": "right"
    },
    {
      "midi": 53,
      "time": 111.75,
      "duration": 0.3,
      "velocity": 0.71,
      "hand": "left"
    },
    {
      "midi": 71,
      "time": 111.9,
      "duration": 0.45,
      "velocity": 0.91,
      "hand": "right"
    },
    {
      "midi": 48,
      "time": 112.05,
      "duration": 0.3,
      "velocity": 0.71,
      "hand": "left"
    },
    {
      "midi": 40,
      "time": 112.35,
      "duration": 0.3,
      "velocity": 0.71,
      "hand": "left"
    },
    {
      "midi": 72,
      "time": 112.35,
      "duration": 0.45,
      "velocity": 0.91,
      "hand": "right"
    },
    {
      "midi": 48,
      "time": 112.65,
      "duration": 0.3,
      "velocity": 0.71,
      "hand": "left"
    },
    {
      "midi": 75,
      "time": 112.8,
      "duration": 0.45,
      "velocity": 0.92,
      "hand": "right"
    },
    {
      "midi": 55,
      "time": 112.95,
      "duration": 0.3,
      "velocity": 0.71,
      "hand": "left"
    },
    {
      "midi": 73,
      "time": 113.1,
      "duration": 0.45,
      "velocity": 0.93,
      "hand": "right"
    },
    {
      "midi": 58,
      "time": 113.25,
      "duration": 0.3,
      "velocity": 0.71,
      "hand": "left"
    },
    {
      "midi": 60,
      "time": 113.55,
      "duration": 0.3,
      "velocity": 0.71,
      "hand": "left"
    },
    {
      "midi": 72,
      "time": 113.55,
      "duration": 0.45,
      "velocity": 0.94,
      "hand": "right"
    },
    {
      "midi": 58,
      "time": 113.85,
      "duration": 0.3,
      "velocity": 0.71,
      "hand": "left"
    },
    {
      "midi": 67,
      "time": 114,
      "duration": 0.45,
      "velocity": 0.95,
      "hand": "right"
    },
    {
      "midi": 55,
      "time": 114.15,
      "duration": 0.3,
      "velocity": 0.71,
      "hand": "left"
    },
    {
      "midi": 70,
      "time": 114.3,
      "duration": 0.45,
      "velocity": 0.96,
      "hand": "right"
    },
    {
      "midi": 48,
      "time": 114.45,
      "duration": 0.3,
      "velocity": 0.71,
      "hand": "left"
    },
    {
      "midi": 41,
      "time": 114.75,
      "duration": 0.3,
      "velocity": 0.71,
      "hand": "left"
    },
    {
      "midi": 69,
      "time": 114.75,
      "duration": 0.45,
      "velocity": 0.97,
      "hand": "right"
    },
    {
      "midi": 48,
      "time": 115.05,
      "duration": 0.3,
      "velocity": 0.71,
      "hand": "left"
    },
    {
      "midi": 64,
      "time": 115.2,
      "duration": 0.45,
      "velocity": 0.5,
      "hand": "right"
    },
    {
      "midi": 51,
      "time": 115.35,
      "duration": 0.3,
      "velocity": 0.71,
      "hand": "left"
    },
    {
      "midi": 65,
      "time": 115.5,
      "duration": 0.45,
      "velocity": 0.5,
      "hand": "right"
    },
    {
      "midi": 57,
      "time": 115.65,
      "duration": 0.3,
      "velocity": 0.71,
      "hand": "left"
    },
    {
      "midi": 60,
      "time": 115.95,
      "duration": 0.3,
      "velocity": 0.71,
      "hand": "left"
    },
    {
      "midi": 66,
      "time": 115.95,
      "duration": 0.45,
      "velocity": 0.5,
      "hand": "right"
    },
    {
      "midi": 57,
      "time": 116.25,
      "duration": 0.3,
      "velocity": 0.71,
      "hand": "left"
    },
    {
      "midi": 63,
      "time": 116.4,
      "duration": 0.45,
      "velocity": 0.5,
      "hand": "right"
    },
    {
      "midi": 51,
      "time": 116.55,
      "duration": 0.3,
      "velocity": 0.71,
      "hand": "left"
    },
    {
      "midi": 70,
      "time": 116.7,
      "duration": 0.45,
      "velocity": 0.5,
      "hand": "right"
    },
    {
      "midi": 48,
      "time": 116.85,
      "duration": 0.3,
      "velocity": 0.71,
      "hand": "left"
    },
    {
      "midi": 41,
      "time": 117.15,
      "duration": 0.3,
      "velocity": 0.71,
      "hand": "left"
    },
    {
      "midi": 69,
      "time": 117.15,
      "duration": 0.45,
      "velocity": 0.5,
      "hand": "right"
    },
    {
      "midi": 48,
      "time": 117.45,
      "duration": 0.3,
      "velocity": 0.71,
      "hand": "left"
    },
    {
      "midi": 64,
      "time": 117.6,
      "duration": 0.45,
      "velocity": 0.5,
      "hand": "right"
    },
    {
      "midi": 51,
      "time": 117.75,
      "duration": 0.3,
      "velocity": 0.71,
      "hand": "left"
    },
    {
      "midi": 65,
      "time": 117.9,
      "duration": 0.45,
      "velocity": 0.5,
      "hand": "right"
    },
    {
      "midi": 57,
      "time": 118.05,
      "duration": 0.3,
      "velocity": 0.71,
      "hand": "left"
    },
    {
      "midi": 60,
      "time": 118.35,
      "duration": 0.3,
      "velocity": 0.71,
      "hand": "left"
    },
    {
      "midi": 66,
      "time": 118.35,
      "duration": 0.45,
      "velocity": 0.5,
      "hand": "right"
    },
    {
      "midi": 57,
      "time": 118.65,
      "duration": 0.3,
      "velocity": 0.71,
      "hand": "left"
    },
    {
      "midi": 63,
      "time": 118.8,
      "duration": 0.45,
      "velocity": 0.5,
      "hand": "right"
    },
    {
      "midi": 51,
      "time": 118.95,
      "duration": 0.3,
      "velocity": 0.71,
      "hand": "left"
    },
    {
      "midi": 72,
      "time": 119.1,
      "duration": 0.45,
      "velocity": 0.5,
      "hand": "right"
    },
    {
      "midi": 48,
      "time": 119.25,
      "duration": 0.3,
      "velocity": 0.71,
      "hand": "left"
    },
    {
      "midi": 41,
      "time": 119.55,
      "duration": 0.3,
      "velocity": 0.71,
      "hand": "left"
    },
    {
      "midi": 71,
      "time": 119.55,
      "duration": 0.45,
      "velocity": 0.5,
      "hand": "right"
    },
    {
      "midi": 50,
      "time": 119.85,
      "duration": 0.3,
      "velocity": 0.71,
      "hand": "left"
    },
    {
      "midi": 66,
      "time": 120,
      "duration": 0.45,
      "velocity": 0.75,
      "hand": "right"
    },
    {
      "midi": 55,
      "time": 120.15,
      "duration": 0.3,
      "velocity": 0.71,
      "hand": "left"
    },
    {
      "midi": 67,
      "time": 120.3,
      "duration": 0.45,
      "velocity": 0.75,
      "hand": "right"
    },
    {
      "midi": 59,
      "time": 120.45,
      "duration": 0.3,
      "velocity": 0.71,
      "hand": "left"
    },
    {
      "midi": 62,
      "time": 120.75,
      "duration": 0.3,
      "velocity": 0.71,
      "hand": "left"
    },
    {
      "midi": 68,
      "time": 120.75,
      "duration": 0.45,
      "velocity": 0.77,
      "hand": "right"
    },
    {
      "midi": 59,
      "time": 121.05,
      "duration": 0.3,
      "velocity": 0.71,
      "hand": "left"
    },
    {
      "midi": 65,
      "time": 121.2,
      "duration": 0.45,
      "velocity": 0.8,
      "hand": "right"
    },
    {
      "midi": 55,
      "time": 121.35,
      "duration": 0.3,
      "velocity": 0.71,
      "hand": "left"
    },
    {
      "midi": 72,
      "time": 121.5,
      "duration": 0.45,
      "velocity": 0.82,
      "hand": "right"
    },
    {
      "midi": 50,
      "time": 121.65,
      "duration": 0.3,
      "velocity": 0.71,
      "hand": "left"
    },
    {
      "midi": 41,
      "time": 121.95,
      "duration": 0.3,
      "velocity": 0.71,
      "hand": "left"
    },
    {
      "midi": 71,
      "time": 121.95,
      "duration": 0.45,
      "velocity": 0.84,
      "hand": "right"
    },
    {
      "midi": 50,
      "time": 122.25,
      "duration": 0.3,
      "velocity": 0.71,
      "hand": "left"
    },
    {
      "midi": 66,
      "time": 122.4,
      "duration": 0.45,
      "velocity": 0.87,
      "hand": "right"
    },
    {
      "midi": 53,
      "time": 122.55,
      "duration": 0.3,
      "velocity": 0.71,
      "hand": "left"
    },
    {
      "midi": 67,
      "time": 122.7,
      "duration": 0.45,
      "velocity": 0.9,
      "hand": "right"
    },
    {
      "midi": 55,
      "time": 122.85,
      "duration": 0.3,
      "velocity": 0.71,
      "hand": "left"
    },
    {
      "midi": 59,
      "time": 123.15,
      "duration": 0.3,
      "velocity": 0.71,
      "hand": "left"
    },
    {
      "midi": 68,
      "time": 123.15,
      "duration": 0.45,
      "velocity": 0.92,
      "hand": "right"
    },
    {
      "midi": 55,
      "time": 123.45,
      "duration": 0.3,
      "velocity": 0.71,
      "hand": "left"
    },
    {
      "midi": 65,
      "time": 123.6,
      "duration": 0.45,
      "velocity": 0.94,
      "hand": "right"
    },
    {
      "midi": 53,
      "time": 123.75,
      "duration": 0.3,
      "velocity": 0.71,
      "hand": "left"
    },
    {
      "midi": 80,
      "time": 123.9,
      "duration": 0.45,
      "velocity": 0.97,
      "hand": "right"
    },
    {
      "midi": 50,
      "time": 124.05,
      "duration": 0.3,
      "velocity": 0.71,
      "hand": "left"
    },
    {
      "midi": 41,
      "time": 124.35,
      "duration": 0.3,
      "velocity": 0.71,
      "hand": "left"
    },
    {
      "midi": 79,
      "time": 124.35,
      "duration": 0.45,
      "velocity": 0.97,
      "hand": "right"
    },
    {
      "midi": 49,
      "time": 124.65,
      "duration": 0.3,
      "velocity": 0.71,
      "hand": "left"
    },
    {
      "midi": 77,
      "time": 124.8,
      "duration": 0.45,
      "velocity": 0.95,
      "hand": "right"
    },
    {
      "midi": 53,
      "time": 124.95,
      "duration": 0.3,
      "velocity": 0.71,
      "hand": "left"
    },
    {
      "midi": 76,
      "time": 125.1,
      "duration": 0.45,
      "velocity": 0.93,
      "hand": "right"
    },
    {
      "midi": 58,
      "time": 125.25,
      "duration": 0.3,
      "velocity": 0.71,
      "hand": "left"
    },
    {
      "midi": 61,
      "time": 125.55,
      "duration": 0.3,
      "velocity": 0.71,
      "hand": "left"
    },
    {
      "midi": 77,
      "time": 125.55,
      "duration": 0.45,
      "velocity": 0.91,
      "hand": "right"
    },
    {
      "midi": 58,
      "time": 125.85,
      "duration": 0.3,
      "velocity": 0.71,
      "hand": "left"
    },
    {
      "midi": 75,
      "time": 126,
      "duration": 0.45,
      "velocity": 0.89,
      "hand": "right"
    },
    {
      "midi": 53,
      "time": 126.15,
      "duration": 0.3,
      "velocity": 0.71,
      "hand": "left"
    },
    {
      "midi": 73,
      "time": 126.3,
      "duration": 0.45,
      "velocity": 0.87,
      "hand": "right"
    },
    {
      "midi": 49,
      "time": 126.45,
      "duration": 0.3,
      "velocity": 0.71,
      "hand": "left"
    },
    {
      "midi": 41,
      "time": 126.75,
      "duration": 0.3,
      "velocity": 0.71,
      "hand": "left"
    },
    {
      "midi": 75,
      "time": 126.75,
      "duration": 0.45,
      "velocity": 0.85,
      "hand": "right"
    },
    {
      "midi": 49,
      "time": 127.05,
      "duration": 0.3,
      "velocity": 0.71,
      "hand": "left"
    },
    {
      "midi": 73,
      "time": 127.2,
      "duration": 0.45,
      "velocity": 0.83,
      "hand": "right"
    },
    {
      "midi": 53,
      "time": 127.35,
      "duration": 0.3,
      "velocity": 0.71,
      "hand": "left"
    },
    {
      "midi": 72,
      "time": 127.5,
      "duration": 0.45,
      "velocity": 0.81,
      "hand": "right"
    },
    {
      "midi": 58,
      "time": 127.65,
      "duration": 0.3,
      "velocity": 0.71,
      "hand": "left"
    },
    {
      "midi": 61,
      "time": 127.95,
      "duration": 0.3,
      "velocity": 0.71,
      "hand": "left"
    },
    {
      "midi": 70,
      "time": 127.95,
      "duration": 0.45,
      "velocity": 0.79,
      "hand": "right"
    },
    {
      "midi": 58,
      "time": 128.25,
      "duration": 0.3,
      "velocity": 0.71,
      "hand": "left"
    },
    {
      "midi": 68,
      "time": 128.4,
      "duration": 0.45,
      "velocity": 0.76,
      "hand": "right"
    },
    {
      "midi": 53,
      "time": 128.55,
      "duration": 0.3,
      "velocity": 0.71,
      "hand": "left"
    },
    {
      "midi": 66,
      "time": 128.7,
      "duration": 0.45,
      "velocity": 0.75,
      "hand": "right"
    },
    {
      "midi": 49,
      "time": 128.85,
      "duration": 0.3,
      "velocity": 0.71,
      "hand": "left"
    },
    {
      "midi": 41,
      "time": 129.15,
      "duration": 0.3,
      "velocity": 0.71,
      "hand": "left"
    },
    {
      "midi": 65,
      "time": 129.15,
      "duration": 0.45,
      "velocity": 0.75,
      "hand": "right"
    },
    {
      "midi": 48,
      "time": 129.45,
      "duration": 0.3,
      "velocity": 0.71,
      "hand": "left"
    },
    {
      "midi": 64,
      "time": 129.6,
      "duration": 0.45,
      "velocity": 0.72,
      "hand": "right"
    },
    {
      "midi": 55,
      "time": 129.75,
      "duration": 0.3,
      "velocity": 0.71,
      "hand": "left"
    },
    {
      "midi": 71,
      "time": 129.9,
      "duration": 0.45,
      "velocity": 0.71,
      "hand": "right"
    },
    {
      "midi": 58,
      "time": 130.05,
      "duration": 0.3,
      "velocity": 0.71,
      "hand": "left"
    },
    {
      "midi": 60,
      "time": 130.35,
      "duration": 0.3,
      "velocity": 0.71,
      "hand": "left"
    },
    {
      "midi": 73,
      "time": 130.35,
      "duration": 0.45,
      "velocity": 0.69,
      "hand": "right"
    },
    {
      "midi": 58,
      "time": 130.65,
      "duration": 0.3,
      "velocity": 0.71,
      "hand": "left"
    },
    {
      "midi": 72,
      "time": 130.8,
      "duration": 0.45,
      "velocity": 0.66,
      "hand": "right"
    },
    {
      "midi": 55,
      "time": 130.95,
      "duration": 0.3,
      "velocity": 0.71,
      "hand": "left"
    },
    {
      "midi": 74,
      "time": 131.1,
      "duration": 0.45,
      "velocity": 0.65,
      "hand": "right"
    },
    {
      "midi": 48,
      "time": 131.25,
      "duration": 0.3,
      "velocity": 0.71,
      "hand": "left"
    },
    {
      "midi": 41,
      "time": 131.55,
      "duration": 0.3,
      "velocity": 0.71,
      "hand": "left"
    },
    {
      "midi": 77,
      "time": 131.55,
      "duration": 0.45,
      "velocity": 0.62,
      "hand": "right"
    },
    {
      "midi": 48,
      "time": 131.85,
      "duration": 0.3,
      "velocity": 0.71,
      "hand": "left"
    },
    {
      "midi": 76,
      "time": 132,
      "duration": 0.45,
      "velocity": 0.61,
      "hand": "right"
    },
    {
      "midi": 55,
      "time": 132.15,
      "duration": 0.3,
      "velocity": 0.71,
      "hand": "left"
    },
    {
      "midi": 77,
      "time": 132.3,
      "duration": 0.45,
      "velocity": 0.58,
      "hand": "right"
    },
    {
      "midi": 58,
      "time": 132.45,
      "duration": 0.3,
      "velocity": 0.71,
      "hand": "left"
    },
    {
      "midi": 60,
      "time": 132.75,
      "duration": 0.3,
      "velocity": 0.71,
      "hand": "left"
    },
    {
      "midi": 80,
      "time": 132.75,
      "duration": 0.45,
      "velocity": 0.56,
      "hand": "right"
    },
    {
      "midi": 58,
      "time": 133.05,
      "duration": 0.3,
      "velocity": 0.71,
      "hand": "left"
    },
    {
      "midi": 79,
      "time": 133.2,
      "duration": 0.45,
      "velocity": 0.54,
      "hand": "right"
    },
    {
      "midi": 55,
      "time": 133.35,
      "duration": 0.3,
      "velocity": 0.71,
      "hand": "left"
    },
    {
      "midi": 80,
      "time": 133.5,
      "duration": 0.45,
      "velocity": 0.52,
      "hand": "right"
    },
    {
      "midi": 48,
      "time": 133.65,
      "duration": 0.3,
      "velocity": 0.71,
      "hand": "left"
    },
    {
      "midi": 41,
      "time": 133.95,
      "duration": 0.3,
      "velocity": 0.71,
      "hand": "left"
    },
    {
      "midi": 77,
      "time": 133.95,
      "duration": 2.4,
      "velocity": 0.54,
      "hand": "right"
    },
    {
      "midi": 48,
      "time": 134.25,
      "duration": 0.3,
      "velocity": 0.71,
      "hand": "left"
    },
    {
      "midi": 53,
      "time": 134.55,
      "duration": 0.3,
      "velocity": 0.71,
      "hand": "left"
    },
    {
      "midi": 56,
      "time": 134.85,
      "duration": 0.3,
      "velocity": 0.71,
      "hand": "left"
    },
    {
      "midi": 60,
      "time": 135.15,
      "duration": 0.285,
      "velocity": 0.71,
      "hand": "left"
    },
    {
      "midi": 65,
      "time": 135.15,
      "duration": 0.3,
      "velocity": 0.71,
      "hand": "right"
    },
    {
      "midi": 56,
      "time": 135.45,
      "duration": 0.3,
      "velocity": 0.71,
      "hand": "left"
    },
    {
      "midi": 60,
      "time": 135.45,
      "duration": 0.3,
      "velocity": 0.71,
      "hand": "right"
    },
    {
      "midi": 53,
      "time": 135.75,
      "duration": 0.285,
      "velocity": 0.71,
      "hand": "left"
    },
    {
      "midi": 57,
      "time": 135.75,
      "duration": 0.3,
      "velocity": 0.71,
      "hand": "left"
    },
    {
      "midi": 48,
      "time": 136.05,
      "duration": 0.3,
      "velocity": 0.71,
      "hand": "left"
    },
    {
      "midi": 53,
      "time": 136.05,
      "duration": 0.3,
      "velocity": 0.71,
      "hand": "left"
    },
    {
      "midi": 41,
      "time": 136.35,
      "duration": 0.3,
      "velocity": 0.71,
      "hand": "left"
    },
    {
      "midi": 75,
      "time": 136.35,
      "duration": 0.45,
      "velocity": 0.49,
      "hand": "right"
    },
    {
      "midi": 48,
      "time": 136.65,
      "duration": 0.3,
      "velocity": 0.71,
      "hand": "left"
    },
    {
      "midi": 77,
      "time": 136.8,
      "duration": 0.45,
      "velocity": 0.49,
      "hand": "right"
    },
    {
      "midi": 53,
      "time": 136.95,
      "duration": 0.3,
      "velocity": 0.71,
      "hand": "left"
    },
    {
      "midi": 75,
      "time": 137.1,
      "duration": 0.45,
      "velocity": 0.49,
      "hand": "right"
    },
    {
      "midi": 56,
      "time": 137.25,
      "duration": 0.3,
      "velocity": 0.71,
      "hand": "left"
    },
    {
      "midi": 60,
      "time": 137.55,
      "duration": 0.285,
      "velocity": 0.71,
      "hand": "left"
    },
    {
      "midi": 64,
      "time": 137.55,
      "duration": 0.3,
      "velocity": 0.71,
      "hand": "right"
    },
    {
      "midi": 77,
      "time": 137.55,
      "duration": 0.45,
      "velocity": 0.49,
      "hand": "right"
    },
    {
      "midi": 56,
      "time": 137.85,
      "duration": 0.3,
      "velocity": 0.71,
      "hand": "left"
    },
    {
      "midi": 60,
      "time": 137.85,
      "duration": 0.3,
      "velocity": 0.71,
      "hand": "right"
    },
    {
      "midi": 75,
      "time": 138,
      "duration": 0.45,
      "velocity": 0.49,
      "hand": "right"
    },
    {
      "midi": 53,
      "time": 138.15,
      "duration": 0.285,
      "velocity": 0.71,
      "hand": "left"
    },
    {
      "midi": 57,
      "time": 138.15,
      "duration": 0.3,
      "velocity": 0.71,
      "hand": "left"
    },
    {
      "midi": 77,
      "time": 138.3,
      "duration": 0.45,
      "velocity": 0.49,
      "hand": "right"
    },
    {
      "midi": 48,
      "time": 138.45,
      "duration": 0.3,
      "velocity": 0.71,
      "hand": "left"
    },
    {
      "midi": 53,
      "time": 138.45,
      "duration": 0.3,
      "velocity": 0.71,
      "hand": "left"
    },
    {
      "midi": 41,
      "time": 138.75,
      "duration": 0.3,
      "velocity": 0.71,
      "hand": "left"
    },
    {
      "midi": 73,
      "time": 138.75,
      "duration": 0.45,
      "velocity": 0.49,
      "hand": "right"
    },
    {
      "midi": 49,
      "time": 139.05,
      "duration": 0.3,
      "velocity": 0.71,
      "hand": "left"
    },
    {
      "midi": 75,
      "time": 139.2,
      "duration": 0.45,
      "velocity": 0.49,
      "hand": "right"
    },
    {
      "midi": 53,
      "time": 139.35,
      "duration": 0.3,
      "velocity": 0.71,
      "hand": "left"
    },
    {
      "midi": 73,
      "time": 139.5,
      "duration": 0.45,
      "velocity": 0.54,
      "hand": "right"
    },
    {
      "midi": 56,
      "time": 139.65,
      "duration": 0.3,
      "velocity": 0.71,
      "hand": "left"
    },
    {
      "midi": 61,
      "time": 139.95,
      "duration": 0.3,
      "velocity": 0.71,
      "hand": "left"
    },
    {
      "midi": 75,
      "time": 139.95,
      "duration": 0.45,
      "velocity": 0.6,
      "hand": "right"
    },
    {
      "midi": 56,
      "time": 140.25,
      "duration": 0.3,
      "velocity": 0.71,
      "hand": "left"
    },
    {
      "midi": 73,
      "time": 140.4,
      "duration": 0.45,
      "velocity": 0.65,
      "hand": "right"
    },
    {
      "midi": 53,
      "time": 140.55,
      "duration": 0.3,
      "velocity": 0.71,
      "hand": "left"
    },
    {
      "midi": 75,
      "time": 140.7,
      "duration": 0.45,
      "velocity": 0.71,
      "hand": "right"
    },
    {
      "midi": 49,
      "time": 140.85,
      "duration": 0.3,
      "velocity": 0.71,
      "hand": "left"
    },
    {
      "midi": 41,
      "time": 141.15,
      "duration": 0.3,
      "velocity": 0.71,
      "hand": "left"
    },
    {
      "midi": 71,
      "time": 141.15,
      "duration": 0.45,
      "velocity": 0.71,
      "hand": "right"
    },
    {
      "midi": 49,
      "time": 141.45,
      "duration": 0.3,
      "velocity": 0.71,
      "hand": "left"
    },
    {
      "midi": 73,
      "time": 141.6,
      "duration": 0.45,
      "velocity": 0.76,
      "hand": "right"
    },
    {
      "midi": 53,
      "time": 141.75,
      "duration": 0.3,
      "velocity": 0.71,
      "hand": "left"
    },
    {
      "midi": 71,
      "time": 141.9,
      "duration": 0.45,
      "velocity": 0.8,
      "hand": "right"
    },
    {
      "midi": 56,
      "time": 142.05,
      "duration": 0.3,
      "velocity": 0.71,
      "hand": "left"
    },
    {
      "midi": 61,
      "time": 142.35,
      "duration": 0.3,
      "velocity": 0.71,
      "hand": "left"
    },
    {
      "midi": 73,
      "time": 142.35,
      "duration": 0.45,
      "velocity": 0.84,
      "hand": "right"
    },
    {
      "midi": 56,
      "time": 142.65,
      "duration": 0.3,
      "velocity": 0.71,
      "hand": "left"
    },
    {
      "midi": 71,
      "time": 142.8,
      "duration": 0.45,
      "velocity": 0.89,
      "hand": "right"
    },
    {
      "midi": 53,
      "time": 142.95,
      "duration": 0.3,
      "velocity": 0.71,
      "hand": "left"
    },
    {
      "midi": 73,
      "time": 143.1,
      "duration": 0.45,
      "velocity": 0.94,
      "hand": "right"
    },
    {
      "midi": 49,
      "time": 143.25,
      "duration": 0.3,
      "velocity": 0.71,
      "hand": "left"
    },
    {
      "midi": 42,
      "time": 143.55,
      "duration": 0.3,
      "velocity": 0.71,
      "hand": "left"
    },
    {
      "midi": 70,
      "time": 143.55,
      "duration": 0.45,
      "velocity": 0.94,
      "hand": "right"
    },
    {
      "midi": 49,
      "time": 143.85,
      "duration": 0.3,
      "velocity": 0.71,
      "hand": "left"
    },
    {
      "midi": 72,
      "time": 144,
      "duration": 0.45,
      "velocity": 0.89,
      "hand": "right"
    },
    {
      "midi": 54,
      "time": 144.15,
      "duration": 0.3,
      "velocity": 0.71,
      "hand": "left"
    },
    {
      "midi": 70,
      "time": 144.3,
      "duration": 0.45,
      "velocity": 0.84,
      "hand": "right"
    },
    {
      "midi": 58,
      "time": 144.45,
      "duration": 0.3,
      "velocity": 0.71,
      "hand": "left"
    },
    {
      "midi": 61,
      "time": 144.75,
      "duration": 0.3,
      "velocity": 0.71,
      "hand": "left"
    },
    {
      "midi": 72,
      "time": 144.75,
      "duration": 0.45,
      "velocity": 0.8,
      "hand": "right"
    },
    {
      "midi": 58,
      "time": 145.05,
      "duration": 0.3,
      "velocity": 0.71,
      "hand": "left"
    },
    {
      "midi": 70,
      "time": 145.2,
      "duration": 0.45,
      "velocity": 0.76,
      "hand": "right"
    },
    {
      "midi": 54,
      "time": 145.35,
      "duration": 0.3,
      "velocity": 0.71,
      "hand": "left"
    },
    {
      "midi": 72,
      "time": 145.5,
      "duration": 0.45,
      "velocity": 0.71,
      "hand": "right"
    },
    {
      "midi": 49,
      "time": 145.65,
      "duration": 0.3,
      "velocity": 0.71,
      "hand": "left"
    },
    {
      "midi": 43,
      "time": 145.95,
      "duration": 0.3,
      "velocity": 0.71,
      "hand": "left"
    },
    {
      "midi": 70,
      "time": 145.95,
      "duration": 0.45,
      "velocity": 0.71,
      "hand": "right"
    },
    {
      "midi": 48,
      "time": 146.25,
      "duration": 0.3,
      "velocity": 0.71,
      "hand": "left"
    },
    {
      "midi": 72,
      "time": 146.4,
      "duration": 0.45,
      "velocity": 0.7,
      "hand": "right"
    },
    {
      "midi": 52,
      "time": 146.55,
      "duration": 0.3,
      "velocity": 0.71,
      "hand": "left"
    },
    {
      "midi": 70,
      "time": 146.7,
      "duration": 0.45,
      "velocity": 0.69,
      "hand": "right"
    },
    {
      "midi": 58,
      "time": 146.85,
      "duration": 0.3,
      "velocity": 0.71,
      "hand": "left"
    },
    {
      "midi": 72,
      "time": 147.15,
      "duration": 0.45,
      "velocity": 0.68,
      "hand": "right"
    },
    {
      "midi": 70,
      "time": 147.6,
      "duration": 0.45,
      "velocity": 0.67,
      "hand": "right"
    },
    {
      "midi": 65,
      "time": 147.9,
      "duration": 0.45,
      "velocity": 0.66,
      "hand": "right"
    },
    {
      "midi": 67,
      "time": 148.35,
      "duration": 0.45,
      "velocity": 0.65,
      "hand": "right"
    },
    {
      "midi": 68,
      "time": 148.8,
      "duration": 0.45,
      "velocity": 0.64,
      "hand": "right"
    },
    {
      "midi": 67,
      "time": 149.1,
      "duration": 0.45,
      "velocity": 0.62,
      "hand": "right"
    },
    {
      "midi": 68,
      "time": 149.55,
      "duration": 0.45,
      "velocity": 0.61,
      "hand": "right"
    },
    {
      "midi": 67,
      "time": 150,
      "duration": 0.45,
      "velocity": 0.61,
      "hand": "right"
    },
    {
      "midi": 58,
      "time": 150.3,
      "duration": 0.45,
      "velocity": 0.59,
      "hand": "right"
    },
    {
      "midi": 61,
      "time": 150.75,
      "duration": 1.2,
      "velocity": 0.58,
      "hand": "right"
    },
    {
      "midi": 36,
      "time": 151.95,
      "duration": 1.2,
      "velocity": 0.71,
      "hand": "left"
    },
    {
      "midi": 48,
      "time": 151.95,
      "duration": 1.2,
      "velocity": 0.71,
      "hand": "left"
    },
    {
      "midi": 55,
      "time": 151.95,
      "duration": 1.2,
      "velocity": 0.55,
      "hand": "right"
    },
    {
      "midi": 60,
      "time": 151.95,
      "duration": 1.185,
      "velocity": 0.55,
      "hand": "right"
    },
    {
      "midi": 64,
      "time": 151.95,
      "duration": 1.2,
      "velocity": 0.55,
      "hand": "right"
    },
    {
      "midi": 41,
      "time": 153.15,
      "duration": 1.2,
      "velocity": 0.71,
      "hand": "left"
    },
    {
      "midi": 56,
      "time": 153.15,
      "duration": 1.2,
      "velocity": 0.52,
      "hand": "right"
    },
    {
      "midi": 60,
      "time": 153.15,
      "duration": 1.2,
      "velocity": 0.52,
      "hand": "right"
    },
    {
      "midi": 65,
      "time": 153.15,
      "duration": 1.2,
      "velocity": 0.52,
      "hand": "right"
    },
    {
      "midi": 41,
      "time": 155.55,
      "duration": 1.185,
      "velocity": 0.71,
      "hand": "left"
    },
    {
      "midi": 48,
      "time": 155.55,
      "duration": 1.185,
      "velocity": 0.71,
      "hand": "left"
    },
    {
      "midi": 53,
      "time": 155.55,
      "duration": 1.185,
      "velocity": 0.49,
      "hand": "right"
    },
    {
      "midi": 56,
      "time": 155.55,
      "duration": 1.185,
      "velocity": 0.49,
      "hand": "right"
    },
    {
      "midi": 41,
      "time": 156.75,
      "duration": 1.185,
      "velocity": 0.71,
      "hand": "left"
    },
    {
      "midi": 48,
      "time": 156.75,
      "duration": 1.185,
      "velocity": 0.71,
      "hand": "left"
    },
    {
      "midi": 53,
      "time": 156.75,
      "duration": 1.185,
      "velocity": 0.49,
      "hand": "right"
    },
    {
      "midi": 56,
      "time": 156.75,
      "duration": 1.185,
      "velocity": 0.49,
      "hand": "right"
    },
    {
      "midi": 41,
      "time": 157.95,
      "duration": 2.4,
      "velocity": 0.71,
      "hand": "left"
    },
    {
      "midi": 48,
      "time": 157.95,
      "duration": 2.4,
      "velocity": 0.71,
      "hand": "left"
    },
    {
      "midi": 53,
      "time": 157.95,
      "duration": 2.4,
      "velocity": 0.49,
      "hand": "right"
    },
    {
      "midi": 56,
      "time": 157.95,
      "duration": 2.4,
      "velocity": 0.49,
      "hand": "right"
    }
  ],
  "arrangements": {
    "easy": [
      {
        "midi": 59,
        "time": 0,
        "duration": 0.4,
        "velocity": 0.54,
        "hand": "right"
      },
      {
        "midi": 61,
        "time": 0.8,
        "duration": 0.4,
        "velocity": 0.54,
        "hand": "right"
      },
      {
        "midi": 65,
        "time": 1.6,
        "duration": 0.4,
        "velocity": 0.54,
        "hand": "right"
      },
      {
        "midi": 59,
        "time": 2.4,
        "duration": 0.4,
        "velocity": 0.54,
        "hand": "right"
      },
      {
        "midi": 61,
        "time": 3.2,
        "duration": 0.4,
        "velocity": 0.54,
        "hand": "right"
      },
      {
        "midi": 65,
        "time": 4,
        "duration": 0.4,
        "velocity": 0.54,
        "hand": "right"
      },
      {
        "midi": 59,
        "time": 4.8,
        "duration": 0.4,
        "velocity": 0.54,
        "hand": "right"
      },
      {
        "midi": 61,
        "time": 5.6,
        "duration": 0.4,
        "velocity": 0.64,
        "hand": "right"
      },
      {
        "midi": 62,
        "time": 6.4,
        "duration": 0.4,
        "velocity": 0.72,
        "hand": "right"
      },
      {
        "midi": 64,
        "time": 7.2,
        "duration": 0.4,
        "velocity": 0.77,
        "hand": "right"
      },
      {
        "midi": 68,
        "time": 8,
        "duration": 0.4,
        "velocity": 0.77,
        "hand": "right"
      },
      {
        "midi": 68,
        "time": 8.8,
        "duration": 0.4,
        "velocity": 0.62,
        "hand": "right"
      },
      {
        "midi": 60,
        "time": 9.5,
        "duration": 0.3,
        "velocity": 0.71,
        "hand": "right"
      },
      {
        "midi": 56,
        "time": 10.1,
        "duration": 0.3,
        "velocity": 0.71,
        "hand": "right"
      },
      {
        "midi": 56,
        "time": 10.7,
        "duration": 0.3,
        "velocity": 0.71,
        "hand": "right"
      },
      {
        "midi": 60,
        "time": 11.3,
        "duration": 0.3,
        "velocity": 0.71,
        "hand": "right"
      },
      {
        "midi": 60,
        "time": 11.9,
        "duration": 0.3,
        "velocity": 0.71,
        "hand": "right"
      },
      {
        "midi": 56,
        "time": 12.5,
        "duration": 0.3,
        "velocity": 0.71,
        "hand": "right"
      },
      {
        "midi": 56,
        "time": 13.1,
        "duration": 0.3,
        "velocity": 0.71,
        "hand": "right"
      },
      {
        "midi": 60,
        "time": 13.7,
        "duration": 0.3,
        "velocity": 0.71,
        "hand": "right"
      },
      {
        "midi": 60,
        "time": 14.3,
        "duration": 0.3,
        "velocity": 0.71,
        "hand": "right"
      },
      {
        "midi": 56,
        "time": 14.9,
        "duration": 0.3,
        "velocity": 0.71,
        "hand": "right"
      },
      {
        "midi": 56,
        "time": 15.5,
        "duration": 0.3,
        "velocity": 0.71,
        "hand": "right"
      },
      {
        "midi": 60,
        "time": 16.1,
        "duration": 0.3,
        "velocity": 0.71,
        "hand": "right"
      },
      {
        "midi": 60,
        "time": 16.7,
        "duration": 0.3,
        "velocity": 0.71,
        "hand": "right"
      },
      {
        "midi": 56,
        "time": 17.3,
        "duration": 0.3,
        "velocity": 0.71,
        "hand": "right"
      },
      {
        "midi": 56,
        "time": 17.9,
        "duration": 0.3,
        "velocity": 0.71,
        "hand": "right"
      },
      {
        "midi": 60,
        "time": 18.5,
        "duration": 0.3,
        "velocity": 0.71,
        "hand": "right"
      },
      {
        "midi": 60,
        "time": 19.2,
        "duration": 0.4,
        "velocity": 0.54,
        "hand": "right"
      },
      {
        "midi": 67,
        "time": 20,
        "duration": 0.4,
        "velocity": 0.54,
        "hand": "right"
      },
      {
        "midi": 65,
        "time": 20.6,
        "duration": 0.3,
        "velocity": 0.71,
        "hand": "right"
      },
      {
        "midi": 72,
        "time": 21.2,
        "duration": 0.4,
        "velocity": 0.54,
        "hand": "right"
      },
      {
        "midi": 55,
        "time": 21.8,
        "duration": 0.3,
        "velocity": 0.71,
        "hand": "right"
      },
      {
        "midi": 72,
        "time": 22.4,
        "duration": 0.4,
        "velocity": 0.68,
        "hand": "right"
      },
      {
        "midi": 55,
        "time": 23,
        "duration": 0.3,
        "velocity": 0.71,
        "hand": "right"
      },
      {
        "midi": 69,
        "time": 23.6,
        "duration": 0.4,
        "velocity": 0.77,
        "hand": "right"
      },
      {
        "midi": 65,
        "time": 24.2,
        "duration": 0.3,
        "velocity": 0.71,
        "hand": "right"
      },
      {
        "midi": 65,
        "time": 24.8,
        "duration": 0.4,
        "velocity": 0.77,
        "hand": "right"
      },
      {
        "midi": 65,
        "time": 25.4,
        "duration": 0.3,
        "velocity": 0.71,
        "hand": "right"
      },
      {
        "midi": 72,
        "time": 26,
        "duration": 0.4,
        "velocity": 0.77,
        "hand": "right"
      },
      {
        "midi": 55,
        "time": 26.6,
        "duration": 0.3,
        "velocity": 0.71,
        "hand": "right"
      },
      {
        "midi": 72,
        "time": 27.2,
        "duration": 0.4,
        "velocity": 0.64,
        "hand": "right"
      },
      {
        "midi": 55,
        "time": 27.8,
        "duration": 0.3,
        "velocity": 0.71,
        "hand": "right"
      },
      {
        "midi": 68,
        "time": 28.4,
        "duration": 0.4,
        "velocity": 0.54,
        "hand": "right"
      },
      {
        "midi": 65,
        "time": 29,
        "duration": 0.3,
        "velocity": 0.71,
        "hand": "right"
      },
      {
        "midi": 69,
        "time": 29.6,
        "duration": 0.4,
        "velocity": 0.54,
        "hand": "right"
      },
      {
        "midi": 65,
        "time": 30.2,
        "duration": 0.3,
        "velocity": 0.71,
        "hand": "right"
      },
      {
        "midi": 73,
        "time": 30.8,
        "duration": 0.4,
        "velocity": 0.56,
        "hand": "right"
      },
      {
        "midi": 58,
        "time": 31.4,
        "duration": 0.3,
        "velocity": 0.71,
        "hand": "right"
      },
      {
        "midi": 75,
        "time": 32,
        "duration": 0.4,
        "velocity": 0.58,
        "hand": "right"
      },
      {
        "midi": 58,
        "time": 32.6,
        "duration": 0.3,
        "velocity": 0.71,
        "hand": "right"
      },
      {
        "midi": 72,
        "time": 33.2,
        "duration": 0.4,
        "velocity": 0.6,
        "hand": "right"
      },
      {
        "midi": 56,
        "time": 33.8,
        "duration": 0.3,
        "velocity": 0.71,
        "hand": "right"
      },
      {
        "midi": 71,
        "time": 34.4,
        "duration": 0.4,
        "velocity": 0.62,
        "hand": "right"
      },
      {
        "midi": 56,
        "time": 35,
        "duration": 0.3,
        "velocity": 0.71,
        "hand": "right"
      },
      {
        "midi": 76,
        "time": 35.6,
        "duration": 0.4,
        "velocity": 0.65,
        "hand": "right"
      },
      {
        "midi": 55,
        "time": 36.2,
        "duration": 0.3,
        "velocity": 0.71,
        "hand": "right"
      },
      {
        "midi": 79,
        "time": 36.8,
        "duration": 0.4,
        "velocity": 0.67,
        "hand": "right"
      },
      {
        "midi": 56,
        "time": 37.4,
        "duration": 0.3,
        "velocity": 0.71,
        "hand": "right"
      },
      {
        "midi": 76,
        "time": 38,
        "duration": 0.4,
        "velocity": 0.69,
        "hand": "right"
      },
      {
        "midi": 58,
        "time": 38.6,
        "duration": 0.3,
        "velocity": 0.71,
        "hand": "right"
      },
      {
        "midi": 73,
        "time": 39.2,
        "duration": 0.4,
        "velocity": 0.71,
        "hand": "right"
      },
      {
        "midi": 58,
        "time": 39.8,
        "duration": 0.3,
        "velocity": 0.71,
        "hand": "right"
      },
      {
        "midi": 76,
        "time": 40.4,
        "duration": 0.4,
        "velocity": 0.73,
        "hand": "right"
      },
      {
        "midi": 58,
        "time": 41,
        "duration": 0.3,
        "velocity": 0.71,
        "hand": "right"
      },
      {
        "midi": 73,
        "time": 41.6,
        "duration": 0.4,
        "velocity": 0.75,
        "hand": "right"
      },
      {
        "midi": 58,
        "time": 42.2,
        "duration": 0.3,
        "velocity": 0.71,
        "hand": "right"
      },
      {
        "midi": 76,
        "time": 42.8,
        "duration": 0.4,
        "velocity": 0.77,
        "hand": "right"
      },
      {
        "midi": 58,
        "time": 43.4,
        "duration": 0.3,
        "velocity": 0.71,
        "hand": "right"
      },
      {
        "midi": 73,
        "time": 44,
        "duration": 0.4,
        "velocity": 0.73,
        "hand": "right"
      },
      {
        "midi": 58,
        "time": 44.6,
        "duration": 0.3,
        "velocity": 0.71,
        "hand": "right"
      },
      {
        "midi": 77,
        "time": 45.2,
        "duration": 0.4,
        "velocity": 0.67,
        "hand": "right"
      },
      {
        "midi": 58,
        "time": 45.8,
        "duration": 0.3,
        "velocity": 0.71,
        "hand": "right"
      },
      {
        "midi": 80,
        "time": 46.4,
        "duration": 0.4,
        "velocity": 0.61,
        "hand": "right"
      },
      {
        "midi": 58,
        "time": 47,
        "duration": 0.3,
        "velocity": 0.71,
        "hand": "right"
      },
      {
        "midi": 77,
        "time": 47.6,
        "duration": 0.6,
        "velocity": 0.54,
        "hand": "right"
      },
      {
        "midi": 65,
        "time": 48.2,
        "duration": 0.3,
        "velocity": 0.71,
        "hand": "right"
      },
      {
        "midi": 65,
        "time": 48.8,
        "duration": 0.3,
        "velocity": 0.71,
        "hand": "right"
      },
      {
        "midi": 56,
        "time": 49.4,
        "duration": 0.3,
        "velocity": 0.71,
        "hand": "right"
      },
      {
        "midi": 75,
        "time": 50,
        "duration": 0.4,
        "velocity": 0.54,
        "hand": "right"
      },
      {
        "midi": 65,
        "time": 50.6,
        "duration": 0.3,
        "velocity": 0.71,
        "hand": "right"
      },
      {
        "midi": 77,
        "time": 51.2,
        "duration": 0.4,
        "velocity": 0.54,
        "hand": "right"
      },
      {
        "midi": 56,
        "time": 51.8,
        "duration": 0.3,
        "velocity": 0.71,
        "hand": "right"
      },
      {
        "midi": 73,
        "time": 52.4,
        "duration": 0.4,
        "velocity": 0.54,
        "hand": "right"
      },
      {
        "midi": 65,
        "time": 53,
        "duration": 0.3,
        "velocity": 0.71,
        "hand": "right"
      },
      {
        "midi": 75,
        "time": 53.6,
        "duration": 0.4,
        "velocity": 0.54,
        "hand": "right"
      },
      {
        "midi": 65,
        "time": 54.2,
        "duration": 0.3,
        "velocity": 0.71,
        "hand": "right"
      },
      {
        "midi": 72,
        "time": 54.8,
        "duration": 0.4,
        "velocity": 0.54,
        "hand": "right"
      },
      {
        "midi": 65,
        "time": 55.4,
        "duration": 0.3,
        "velocity": 0.71,
        "hand": "right"
      },
      {
        "midi": 73,
        "time": 56,
        "duration": 0.4,
        "velocity": 0.64,
        "hand": "right"
      },
      {
        "midi": 65,
        "time": 56.6,
        "duration": 0.3,
        "velocity": 0.71,
        "hand": "right"
      },
      {
        "midi": 71,
        "time": 57.2,
        "duration": 0.4,
        "velocity": 0.77,
        "hand": "right"
      },
      {
        "midi": 65,
        "time": 57.8,
        "duration": 0.3,
        "velocity": 0.71,
        "hand": "right"
      },
      {
        "midi": 68,
        "time": 58.4,
        "duration": 0.4,
        "velocity": 0.77,
        "hand": "right"
      },
      {
        "midi": 65,
        "time": 59,
        "duration": 0.3,
        "velocity": 0.71,
        "hand": "right"
      },
      {
        "midi": 71,
        "time": 59.6,
        "duration": 0.4,
        "velocity": 0.77,
        "hand": "right"
      },
      {
        "midi": 65,
        "time": 60.2,
        "duration": 0.3,
        "velocity": 0.71,
        "hand": "right"
      },
      {
        "midi": 68,
        "time": 60.8,
        "duration": 0.4,
        "velocity": 0.75,
        "hand": "right"
      },
      {
        "midi": 65,
        "time": 61.4,
        "duration": 0.3,
        "velocity": 0.71,
        "hand": "right"
      },
      {
        "midi": 71,
        "time": 62,
        "duration": 0.4,
        "velocity": 0.71,
        "hand": "right"
      },
      {
        "midi": 65,
        "time": 62.6,
        "duration": 0.3,
        "velocity": 0.71,
        "hand": "right"
      },
      {
        "midi": 68,
        "time": 63.2,
        "duration": 0.4,
        "velocity": 0.66,
        "hand": "right"
      },
      {
        "midi": 65,
        "time": 63.8,
        "duration": 0.3,
        "velocity": 0.71,
        "hand": "right"
      },
      {
        "midi": 72,
        "time": 64.4,
        "duration": 0.4,
        "velocity": 0.62,
        "hand": "right"
      },
      {
        "midi": 65,
        "time": 65,
        "duration": 0.3,
        "velocity": 0.71,
        "hand": "right"
      },
      {
        "midi": 75,
        "time": 65.6,
        "duration": 0.4,
        "velocity": 0.58,
        "hand": "right"
      },
      {
        "midi": 65,
        "time": 66.2,
        "duration": 0.3,
        "velocity": 0.71,
        "hand": "right"
      },
      {
        "midi": 72,
        "time": 66.8,
        "duration": 0.6,
        "velocity": 0.54,
        "hand": "right"
      },
      {
        "midi": 60,
        "time": 67.4,
        "duration": 0.3,
        "velocity": 0.71,
        "hand": "right"
      },
      {
        "midi": 60,
        "time": 68,
        "duration": 0.3,
        "velocity": 0.71,
        "hand": "right"
      },
      {
        "midi": 63,
        "time": 68.6,
        "duration": 0.3,
        "velocity": 0.71,
        "hand": "right"
      },
      {
        "midi": 70,
        "time": 69.2,
        "duration": 0.4,
        "velocity": 0.54,
        "hand": "right"
      },
      {
        "midi": 60,
        "time": 69.8,
        "duration": 0.3,
        "velocity": 0.71,
        "hand": "right"
      },
      {
        "midi": 72,
        "time": 70.4,
        "duration": 0.4,
        "velocity": 0.54,
        "hand": "right"
      },
      {
        "midi": 60,
        "time": 71,
        "duration": 0.3,
        "velocity": 0.71,
        "hand": "right"
      },
      {
        "midi": 68,
        "time": 71.6,
        "duration": 0.4,
        "velocity": 0.54,
        "hand": "right"
      },
      {
        "midi": 60,
        "time": 72.2,
        "duration": 0.3,
        "velocity": 0.71,
        "hand": "right"
      },
      {
        "midi": 70,
        "time": 72.8,
        "duration": 0.4,
        "velocity": 0.59,
        "hand": "right"
      },
      {
        "midi": 60,
        "time": 73.4,
        "duration": 0.3,
        "velocity": 0.71,
        "hand": "right"
      },
      {
        "midi": 66,
        "time": 74,
        "duration": 0.4,
        "velocity": 0.65,
        "hand": "right"
      },
      {
        "midi": 60,
        "time": 74.6,
        "duration": 0.3,
        "velocity": 0.71,
        "hand": "right"
      },
      {
        "midi": 68,
        "time": 75.2,
        "duration": 0.4,
        "velocity": 0.71,
        "hand": "right"
      },
      {
        "midi": 60,
        "time": 75.8,
        "duration": 0.3,
        "velocity": 0.71,
        "hand": "right"
      },
      {
        "midi": 65,
        "time": 76.4,
        "duration": 0.4,
        "velocity": 0.77,
        "hand": "right"
      },
      {
        "midi": 61,
        "time": 77,
        "duration": 0.3,
        "velocity": 0.71,
        "hand": "right"
      },
      {
        "midi": 73,
        "time": 77.6,
        "duration": 0.4,
        "velocity": 0.77,
        "hand": "right"
      },
      {
        "midi": 61,
        "time": 78.2,
        "duration": 0.3,
        "velocity": 0.71,
        "hand": "right"
      },
      {
        "midi": 71,
        "time": 78.8,
        "duration": 0.4,
        "velocity": 0.77,
        "hand": "right"
      },
      {
        "midi": 61,
        "time": 79.4,
        "duration": 0.3,
        "velocity": 0.71,
        "hand": "right"
      },
      {
        "midi": 78,
        "time": 80,
        "duration": 0.4,
        "velocity": 0.91,
        "hand": "right"
      },
      {
        "midi": 61,
        "time": 80.6,
        "duration": 0.3,
        "velocity": 0.71,
        "hand": "right"
      },
      {
        "midi": 68,
        "time": 81.2,
        "duration": 0.4,
        "velocity": 1,
        "hand": "right"
      },
      {
        "midi": 61,
        "time": 81.8,
        "duration": 0.3,
        "velocity": 0.71,
        "hand": "right"
      },
      {
        "midi": 75,
        "time": 82.4,
        "duration": 0.4,
        "velocity": 1,
        "hand": "right"
      },
      {
        "midi": 61,
        "time": 83,
        "duration": 0.3,
        "velocity": 0.71,
        "hand": "right"
      },
      {
        "midi": 65,
        "time": 83.6,
        "duration": 0.4,
        "velocity": 1,
        "hand": "right"
      },
      {
        "midi": 61,
        "time": 84.2,
        "duration": 0.3,
        "velocity": 0.71,
        "hand": "right"
      },
      {
        "midi": 71,
        "time": 84.8,
        "duration": 0.4,
        "velocity": 0.92,
        "hand": "right"
      },
      {
        "midi": 61,
        "time": 85.4,
        "duration": 0.3,
        "velocity": 0.71,
        "hand": "right"
      },
      {
        "midi": 58,
        "time": 86,
        "duration": 0.4,
        "velocity": 0.77,
        "hand": "right"
      },
      {
        "midi": 58,
        "time": 86.6,
        "duration": 0.3,
        "velocity": 0.71,
        "hand": "right"
      },
      {
        "midi": 63,
        "time": 87.2,
        "duration": 0.4,
        "velocity": 0.8,
        "hand": "right"
      },
      {
        "midi": 58,
        "time": 87.8,
        "duration": 0.3,
        "velocity": 0.71,
        "hand": "right"
      },
      {
        "midi": 58,
        "time": 88.4,
        "duration": 0.4,
        "velocity": 0.82,
        "hand": "right"
      },
      {
        "midi": 65,
        "time": 89,
        "duration": 0.3,
        "velocity": 0.71,
        "hand": "right"
      },
      {
        "midi": 69,
        "time": 89.6,
        "duration": 0.4,
        "velocity": 0.85,
        "hand": "right"
      },
      {
        "midi": 65,
        "time": 90.2,
        "duration": 0.3,
        "velocity": 0.71,
        "hand": "right"
      },
      {
        "midi": 75,
        "time": 90.8,
        "duration": 0.4,
        "velocity": 0.88,
        "hand": "right"
      },
      {
        "midi": 65,
        "time": 91.4,
        "duration": 0.3,
        "velocity": 0.71,
        "hand": "right"
      },
      {
        "midi": 82,
        "time": 92,
        "duration": 0.4,
        "velocity": 0.91,
        "hand": "right"
      },
      {
        "midi": 65,
        "time": 92.6,
        "duration": 0.3,
        "velocity": 0.71,
        "hand": "right"
      },
      {
        "midi": 77,
        "time": 93.2,
        "duration": 0.4,
        "velocity": 0.94,
        "hand": "right"
      },
      {
        "midi": 65,
        "time": 93.8,
        "duration": 0.3,
        "velocity": 0.71,
        "hand": "right"
      },
      {
        "midi": 70,
        "time": 94.4,
        "duration": 0.4,
        "velocity": 0.98,
        "hand": "right"
      },
      {
        "midi": 65,
        "time": 95,
        "duration": 0.3,
        "velocity": 0.71,
        "hand": "right"
      },
      {
        "midi": 58,
        "time": 95.6,
        "duration": 0.4,
        "velocity": 0.75,
        "hand": "right"
      },
      {
        "midi": 63,
        "time": 96.2,
        "duration": 0.3,
        "velocity": 0.71,
        "hand": "right"
      },
      {
        "midi": 65,
        "time": 96.8,
        "duration": 0.4,
        "velocity": 0.75,
        "hand": "right"
      },
      {
        "midi": 63,
        "time": 97.4,
        "duration": 0.3,
        "velocity": 0.71,
        "hand": "right"
      },
      {
        "midi": 70,
        "time": 98,
        "duration": 0.4,
        "velocity": 0.75,
        "hand": "right"
      },
      {
        "midi": 65,
        "time": 98.6,
        "duration": 0.3,
        "velocity": 0.71,
        "hand": "right"
      },
      {
        "midi": 70,
        "time": 99.2,
        "duration": 0.4,
        "velocity": 0.75,
        "hand": "right"
      },
      {
        "midi": 65,
        "time": 99.8,
        "duration": 0.3,
        "velocity": 0.71,
        "hand": "right"
      },
      {
        "midi": 58,
        "time": 100.4,
        "duration": 0.4,
        "velocity": 0.75,
        "hand": "right"
      },
      {
        "midi": 63,
        "time": 101,
        "duration": 0.3,
        "velocity": 0.71,
        "hand": "right"
      },
      {
        "midi": 63,
        "time": 101.6,
        "duration": 0.4,
        "velocity": 0.75,
        "hand": "right"
      },
      {
        "midi": 63,
        "time": 102.2,
        "duration": 0.3,
        "velocity": 0.71,
        "hand": "right"
      },
      {
        "midi": 70,
        "time": 102.8,
        "duration": 0.4,
        "velocity": 0.75,
        "hand": "right"
      },
      {
        "midi": 65,
        "time": 103.4,
        "duration": 0.3,
        "velocity": 0.71,
        "hand": "right"
      },
      {
        "midi": 71,
        "time": 104,
        "duration": 0.4,
        "velocity": 0.75,
        "hand": "right"
      },
      {
        "midi": 65,
        "time": 104.6,
        "duration": 0.3,
        "velocity": 0.71,
        "hand": "right"
      },
      {
        "midi": 66,
        "time": 105.2,
        "duration": 0.4,
        "velocity": 0.75,
        "hand": "right"
      },
      {
        "midi": 63,
        "time": 105.8,
        "duration": 0.3,
        "velocity": 0.71,
        "hand": "right"
      },
      {
        "midi": 66,
        "time": 106.4,
        "duration": 0.4,
        "velocity": 0.76,
        "hand": "right"
      },
      {
        "midi": 63,
        "time": 107,
        "duration": 0.3,
        "velocity": 0.71,
        "hand": "right"
      },
      {
        "midi": 72,
        "time": 107.6,
        "duration": 0.4,
        "velocity": 0.8,
        "hand": "right"
      },
      {
        "midi": 55,
        "time": 108.2,
        "duration": 0.3,
        "velocity": 0.71,
        "hand": "right"
      },
      {
        "midi": 72,
        "time": 108.8,
        "duration": 0.4,
        "velocity": 0.83,
        "hand": "right"
      },
      {
        "midi": 55,
        "time": 109.4,
        "duration": 0.3,
        "velocity": 0.71,
        "hand": "right"
      },
      {
        "midi": 60,
        "time": 110,
        "duration": 0.4,
        "velocity": 0.85,
        "hand": "right"
      },
      {
        "midi": 65,
        "time": 110.6,
        "duration": 0.3,
        "velocity": 0.71,
        "hand": "right"
      },
      {
        "midi": 65,
        "time": 111.2,
        "duration": 0.4,
        "velocity": 0.88,
        "hand": "right"
      },
      {
        "midi": 65,
        "time": 111.8,
        "duration": 0.3,
        "velocity": 0.71,
        "hand": "right"
      },
      {
        "midi": 72,
        "time": 112.4,
        "duration": 0.4,
        "velocity": 0.91,
        "hand": "right"
      },
      {
        "midi": 55,
        "time": 113,
        "duration": 0.3,
        "velocity": 0.71,
        "hand": "right"
      },
      {
        "midi": 72,
        "time": 113.6,
        "duration": 0.4,
        "velocity": 0.94,
        "hand": "right"
      },
      {
        "midi": 55,
        "time": 114.2,
        "duration": 0.3,
        "velocity": 0.71,
        "hand": "right"
      },
      {
        "midi": 69,
        "time": 114.8,
        "duration": 0.4,
        "velocity": 0.97,
        "hand": "right"
      },
      {
        "midi": 63,
        "time": 115.4,
        "duration": 0.3,
        "velocity": 0.71,
        "hand": "right"
      },
      {
        "midi": 66,
        "time": 116,
        "duration": 0.4,
        "velocity": 0.5,
        "hand": "right"
      },
      {
        "midi": 63,
        "time": 116.6,
        "duration": 0.3,
        "velocity": 0.71,
        "hand": "right"
      },
      {
        "midi": 69,
        "time": 117.2,
        "duration": 0.4,
        "velocity": 0.5,
        "hand": "right"
      },
      {
        "midi": 63,
        "time": 117.8,
        "duration": 0.3,
        "velocity": 0.71,
        "hand": "right"
      },
      {
        "midi": 66,
        "time": 118.4,
        "duration": 0.4,
        "velocity": 0.5,
        "hand": "right"
      },
      {
        "midi": 63,
        "time": 119,
        "duration": 0.3,
        "velocity": 0.71,
        "hand": "right"
      },
      {
        "midi": 71,
        "time": 119.6,
        "duration": 0.4,
        "velocity": 0.5,
        "hand": "right"
      },
      {
        "midi": 55,
        "time": 120.2,
        "duration": 0.3,
        "velocity": 0.71,
        "hand": "right"
      },
      {
        "midi": 68,
        "time": 120.8,
        "duration": 0.4,
        "velocity": 0.77,
        "hand": "right"
      },
      {
        "midi": 55,
        "time": 121.4,
        "duration": 0.3,
        "velocity": 0.71,
        "hand": "right"
      },
      {
        "midi": 71,
        "time": 122,
        "duration": 0.4,
        "velocity": 0.84,
        "hand": "right"
      },
      {
        "midi": 65,
        "time": 122.6,
        "duration": 0.3,
        "velocity": 0.71,
        "hand": "right"
      },
      {
        "midi": 68,
        "time": 123.2,
        "duration": 0.4,
        "velocity": 0.92,
        "hand": "right"
      },
      {
        "midi": 65,
        "time": 123.8,
        "duration": 0.3,
        "velocity": 0.71,
        "hand": "right"
      },
      {
        "midi": 79,
        "time": 124.4,
        "duration": 0.4,
        "velocity": 0.97,
        "hand": "right"
      },
      {
        "midi": 65,
        "time": 125,
        "duration": 0.3,
        "velocity": 0.71,
        "hand": "right"
      },
      {
        "midi": 77,
        "time": 125.6,
        "duration": 0.4,
        "velocity": 0.91,
        "hand": "right"
      },
      {
        "midi": 65,
        "time": 126.2,
        "duration": 0.3,
        "velocity": 0.71,
        "hand": "right"
      },
      {
        "midi": 75,
        "time": 126.8,
        "duration": 0.4,
        "velocity": 0.85,
        "hand": "right"
      },
      {
        "midi": 65,
        "time": 127.4,
        "duration": 0.3,
        "velocity": 0.71,
        "hand": "right"
      },
      {
        "midi": 70,
        "time": 128,
        "duration": 0.4,
        "velocity": 0.79,
        "hand": "right"
      },
      {
        "midi": 65,
        "time": 128.6,
        "duration": 0.3,
        "velocity": 0.71,
        "hand": "right"
      },
      {
        "midi": 65,
        "time": 129.2,
        "duration": 0.4,
        "velocity": 0.75,
        "hand": "right"
      },
      {
        "midi": 55,
        "time": 129.8,
        "duration": 0.3,
        "velocity": 0.71,
        "hand": "right"
      },
      {
        "midi": 73,
        "time": 130.4,
        "duration": 0.4,
        "velocity": 0.69,
        "hand": "right"
      },
      {
        "midi": 55,
        "time": 131,
        "duration": 0.3,
        "velocity": 0.71,
        "hand": "right"
      },
      {
        "midi": 77,
        "time": 131.6,
        "duration": 0.4,
        "velocity": 0.62,
        "hand": "right"
      },
      {
        "midi": 55,
        "time": 132.2,
        "duration": 0.3,
        "velocity": 0.71,
        "hand": "right"
      },
      {
        "midi": 80,
        "time": 132.8,
        "duration": 0.4,
        "velocity": 0.56,
        "hand": "right"
      },
      {
        "midi": 55,
        "time": 133.4,
        "duration": 0.3,
        "velocity": 0.71,
        "hand": "right"
      },
      {
        "midi": 77,
        "time": 134,
        "duration": 2.4,
        "velocity": 0.54,
        "hand": "right"
      },
      {
        "midi": 65,
        "time": 134.6,
        "duration": 0.3,
        "velocity": 0.71,
        "hand": "right"
      },
      {
        "midi": 65,
        "time": 135.2,
        "duration": 0.3,
        "velocity": 0.71,
        "hand": "right"
      },
      {
        "midi": 57,
        "time": 135.8,
        "duration": 0.3,
        "velocity": 0.71,
        "hand": "right"
      },
      {
        "midi": 75,
        "time": 136.4,
        "duration": 0.4,
        "velocity": 0.49,
        "hand": "right"
      },
      {
        "midi": 65,
        "time": 137,
        "duration": 0.3,
        "velocity": 0.71,
        "hand": "right"
      },
      {
        "midi": 77,
        "time": 137.6,
        "duration": 0.4,
        "velocity": 0.49,
        "hand": "right"
      },
      {
        "midi": 57,
        "time": 138.2,
        "duration": 0.3,
        "velocity": 0.71,
        "hand": "right"
      },
      {
        "midi": 73,
        "time": 138.8,
        "duration": 0.4,
        "velocity": 0.49,
        "hand": "right"
      },
      {
        "midi": 65,
        "time": 139.4,
        "duration": 0.3,
        "velocity": 0.71,
        "hand": "right"
      },
      {
        "midi": 75,
        "time": 140,
        "duration": 0.4,
        "velocity": 0.6,
        "hand": "right"
      },
      {
        "midi": 65,
        "time": 140.6,
        "duration": 0.3,
        "velocity": 0.71,
        "hand": "right"
      },
      {
        "midi": 71,
        "time": 141.2,
        "duration": 0.4,
        "velocity": 0.71,
        "hand": "right"
      },
      {
        "midi": 65,
        "time": 141.8,
        "duration": 0.3,
        "velocity": 0.71,
        "hand": "right"
      },
      {
        "midi": 73,
        "time": 142.4,
        "duration": 0.4,
        "velocity": 0.84,
        "hand": "right"
      },
      {
        "midi": 65,
        "time": 143,
        "duration": 0.3,
        "velocity": 0.71,
        "hand": "right"
      },
      {
        "midi": 70,
        "time": 143.6,
        "duration": 0.4,
        "velocity": 0.94,
        "hand": "right"
      },
      {
        "midi": 66,
        "time": 144.2,
        "duration": 0.3,
        "velocity": 0.71,
        "hand": "right"
      },
      {
        "midi": 72,
        "time": 144.8,
        "duration": 0.4,
        "velocity": 0.8,
        "hand": "right"
      },
      {
        "midi": 66,
        "time": 145.4,
        "duration": 0.3,
        "velocity": 0.71,
        "hand": "right"
      },
      {
        "midi": 70,
        "time": 146,
        "duration": 0.4,
        "velocity": 0.71,
        "hand": "right"
      },
      {
        "midi": 64,
        "time": 146.6,
        "duration": 0.3,
        "velocity": 0.71,
        "hand": "right"
      },
      {
        "midi": 72,
        "time": 147.2,
        "duration": 0.4,
        "velocity": 0.68,
        "hand": "right"
      },
      {
        "midi": 65,
        "time": 148,
        "duration": 0.4,
        "velocity": 0.66,
        "hand": "right"
      },
      {
        "midi": 68,
        "time": 148.8,
        "duration": 0.4,
        "velocity": 0.64,
        "hand": "right"
      },
      {
        "midi": 68,
        "time": 149.6,
        "duration": 0.4,
        "velocity": 0.61,
        "hand": "right"
      },
      {
        "midi": 58,
        "time": 150.4,
        "duration": 0.4,
        "velocity": 0.59,
        "hand": "right"
      },
      {
        "midi": 64,
        "time": 152,
        "duration": 1.2,
        "velocity": 0.55,
        "hand": "right"
      },
      {
        "midi": 65,
        "time": 153.2,
        "duration": 1.2,
        "velocity": 0.52,
        "hand": "right"
      },
      {
        "midi": 56,
        "time": 155.6,
        "duration": 1.2,
        "velocity": 0.49,
        "hand": "right"
      },
      {
        "midi": 56,
        "time": 156.8,
        "duration": 1.2,
        "velocity": 0.49,
        "hand": "right"
      },
      {
        "midi": 56,
        "time": 158,
        "duration": 2.4,
        "velocity": 0.49,
        "hand": "right"
      }
    ],
    "medium": [
      {
        "midi": 59,
        "time": 0,
        "duration": 0.4,
        "velocity": 0.54,
        "hand": "right"
      },
      {
        "midi": 61,
        "time": 0.8,
        "duration": 0.4,
        "velocity": 0.54,
        "hand": "right"
      },
      {
        "midi": 58,
        "time": 1.2,
        "duration": 0.4,
        "velocity": 0.43,
        "hand": "left"
      },
      {
        "midi": 65,
        "time": 1.6,
        "duration": 0.4,
        "velocity": 0.54,
        "hand": "right"
      },
      {
        "midi": 59,
        "time": 2.4,
        "duration": 0.4,
        "velocity": 0.54,
        "hand": "right"
      },
      {
        "midi": 61,
        "time": 3.2,
        "duration": 0.4,
        "velocity": 0.54,
        "hand": "right"
      },
      {
        "midi": 58,
        "time": 3.6,
        "duration": 0.4,
        "velocity": 0.43,
        "hand": "left"
      },
      {
        "midi": 65,
        "time": 4,
        "duration": 0.4,
        "velocity": 0.54,
        "hand": "right"
      },
      {
        "midi": 59,
        "time": 4.8,
        "duration": 0.4,
        "velocity": 0.54,
        "hand": "right"
      },
      {
        "midi": 61,
        "time": 5.6,
        "duration": 0.4,
        "velocity": 0.64,
        "hand": "right"
      },
      {
        "midi": 48,
        "time": 6,
        "duration": 0.4,
        "velocity": 0.54,
        "hand": "left"
      },
      {
        "midi": 62,
        "time": 6.4,
        "duration": 0.4,
        "velocity": 0.72,
        "hand": "right"
      },
      {
        "midi": 52,
        "time": 7.2,
        "duration": 0.4,
        "velocity": 0.62,
        "hand": "left"
      },
      {
        "midi": 64,
        "time": 7.2,
        "duration": 0.4,
        "velocity": 0.77,
        "hand": "right"
      },
      {
        "midi": 68,
        "time": 8,
        "duration": 0.4,
        "velocity": 0.77,
        "hand": "right"
      },
      {
        "midi": 55,
        "time": 8.4,
        "duration": 0.4,
        "velocity": 0.55,
        "hand": "left"
      },
      {
        "midi": 68,
        "time": 8.8,
        "duration": 0.4,
        "velocity": 0.62,
        "hand": "right"
      },
      {
        "midi": 48,
        "time": 9.5,
        "duration": 0.3,
        "velocity": 0.71,
        "hand": "right"
      },
      {
        "midi": 53,
        "time": 9.8,
        "duration": 0.35,
        "velocity": 0.57,
        "hand": "left"
      },
      {
        "midi": 56,
        "time": 10.1,
        "duration": 0.3,
        "velocity": 0.71,
        "hand": "right"
      },
      {
        "midi": 56,
        "time": 10.7,
        "duration": 0.3,
        "velocity": 0.71,
        "hand": "right"
      },
      {
        "midi": 53,
        "time": 11,
        "duration": 0.35,
        "velocity": 0.57,
        "hand": "left"
      },
      {
        "midi": 48,
        "time": 11.3,
        "duration": 0.3,
        "velocity": 0.71,
        "hand": "right"
      },
      {
        "midi": 48,
        "time": 11.9,
        "duration": 0.3,
        "velocity": 0.71,
        "hand": "right"
      },
      {
        "midi": 53,
        "time": 12.2,
        "duration": 0.35,
        "velocity": 0.57,
        "hand": "left"
      },
      {
        "midi": 56,
        "time": 12.5,
        "duration": 0.3,
        "velocity": 0.71,
        "hand": "right"
      },
      {
        "midi": 56,
        "time": 13.1,
        "duration": 0.3,
        "velocity": 0.71,
        "hand": "right"
      },
      {
        "midi": 53,
        "time": 13.4,
        "duration": 0.35,
        "velocity": 0.57,
        "hand": "left"
      },
      {
        "midi": 48,
        "time": 13.7,
        "duration": 0.3,
        "velocity": 0.71,
        "hand": "right"
      },
      {
        "midi": 48,
        "time": 14.3,
        "duration": 0.3,
        "velocity": 0.71,
        "hand": "right"
      },
      {
        "midi": 53,
        "time": 14.6,
        "duration": 0.35,
        "velocity": 0.57,
        "hand": "left"
      },
      {
        "midi": 56,
        "time": 14.9,
        "duration": 0.3,
        "velocity": 0.71,
        "hand": "right"
      },
      {
        "midi": 56,
        "time": 15.5,
        "duration": 0.3,
        "velocity": 0.71,
        "hand": "right"
      },
      {
        "midi": 53,
        "time": 15.8,
        "duration": 0.35,
        "velocity": 0.57,
        "hand": "left"
      },
      {
        "midi": 48,
        "time": 16.1,
        "duration": 0.3,
        "velocity": 0.71,
        "hand": "right"
      },
      {
        "midi": 48,
        "time": 16.7,
        "duration": 0.3,
        "velocity": 0.71,
        "hand": "right"
      },
      {
        "midi": 53,
        "time": 17,
        "duration": 0.35,
        "velocity": 0.57,
        "hand": "left"
      },
      {
        "midi": 56,
        "time": 17.3,
        "duration": 0.3,
        "velocity": 0.71,
        "hand": "right"
      },
      {
        "midi": 56,
        "time": 17.9,
        "duration": 0.3,
        "velocity": 0.71,
        "hand": "right"
      },
      {
        "midi": 53,
        "time": 18.2,
        "duration": 0.35,
        "velocity": 0.57,
        "hand": "left"
      },
      {
        "midi": 48,
        "time": 18.5,
        "duration": 0.3,
        "velocity": 0.71,
        "hand": "right"
      },
      {
        "midi": 60,
        "time": 19.2,
        "duration": 0.4,
        "velocity": 0.54,
        "hand": "right"
      },
      {
        "midi": 53,
        "time": 19.4,
        "duration": 0.35,
        "velocity": 0.57,
        "hand": "left"
      },
      {
        "midi": 67,
        "time": 20,
        "duration": 0.4,
        "velocity": 0.54,
        "hand": "right"
      },
      {
        "midi": 53,
        "time": 20.6,
        "duration": 0.35,
        "velocity": 0.71,
        "hand": "right"
      },
      {
        "midi": 72,
        "time": 21.2,
        "duration": 0.4,
        "velocity": 0.54,
        "hand": "right"
      },
      {
        "midi": 55,
        "time": 21.8,
        "duration": 0.35,
        "velocity": 0.71,
        "hand": "right"
      },
      {
        "midi": 72,
        "time": 22.4,
        "duration": 0.4,
        "velocity": 0.68,
        "hand": "right"
      },
      {
        "midi": 55,
        "time": 23,
        "duration": 0.35,
        "velocity": 0.71,
        "hand": "right"
      },
      {
        "midi": 69,
        "time": 23.6,
        "duration": 0.4,
        "velocity": 0.77,
        "hand": "right"
      },
      {
        "midi": 53,
        "time": 24.2,
        "duration": 0.35,
        "velocity": 0.71,
        "hand": "right"
      },
      {
        "midi": 65,
        "time": 24.8,
        "duration": 0.4,
        "velocity": 0.77,
        "hand": "right"
      },
      {
        "midi": 53,
        "time": 25.4,
        "duration": 0.35,
        "velocity": 0.71,
        "hand": "right"
      },
      {
        "midi": 72,
        "time": 26,
        "duration": 0.4,
        "velocity": 0.77,
        "hand": "right"
      },
      {
        "midi": 55,
        "time": 26.6,
        "duration": 0.35,
        "velocity": 0.71,
        "hand": "right"
      },
      {
        "midi": 72,
        "time": 27.2,
        "duration": 0.4,
        "velocity": 0.64,
        "hand": "right"
      },
      {
        "midi": 55,
        "time": 27.8,
        "duration": 0.35,
        "velocity": 0.71,
        "hand": "right"
      },
      {
        "midi": 68,
        "time": 28.4,
        "duration": 0.4,
        "velocity": 0.54,
        "hand": "right"
      },
      {
        "midi": 53,
        "time": 29,
        "duration": 0.35,
        "velocity": 0.71,
        "hand": "right"
      },
      {
        "midi": 69,
        "time": 29.6,
        "duration": 0.4,
        "velocity": 0.54,
        "hand": "right"
      },
      {
        "midi": 53,
        "time": 30.2,
        "duration": 0.35,
        "velocity": 0.71,
        "hand": "right"
      },
      {
        "midi": 73,
        "time": 30.8,
        "duration": 0.4,
        "velocity": 0.56,
        "hand": "right"
      },
      {
        "midi": 58,
        "time": 31.4,
        "duration": 0.35,
        "velocity": 0.71,
        "hand": "right"
      },
      {
        "midi": 75,
        "time": 32,
        "duration": 0.4,
        "velocity": 0.58,
        "hand": "right"
      },
      {
        "midi": 58,
        "time": 32.6,
        "duration": 0.35,
        "velocity": 0.71,
        "hand": "right"
      },
      {
        "midi": 72,
        "time": 33.2,
        "duration": 0.4,
        "velocity": 0.6,
        "hand": "right"
      },
      {
        "midi": 56,
        "time": 33.8,
        "duration": 0.35,
        "velocity": 0.71,
        "hand": "right"
      },
      {
        "midi": 71,
        "time": 34.4,
        "duration": 0.4,
        "velocity": 0.62,
        "hand": "right"
      },
      {
        "midi": 56,
        "time": 35,
        "duration": 0.35,
        "velocity": 0.71,
        "hand": "right"
      },
      {
        "midi": 76,
        "time": 35.6,
        "duration": 0.4,
        "velocity": 0.65,
        "hand": "right"
      },
      {
        "midi": 55,
        "time": 36.2,
        "duration": 0.35,
        "velocity": 0.71,
        "hand": "right"
      },
      {
        "midi": 79,
        "time": 36.8,
        "duration": 0.4,
        "velocity": 0.67,
        "hand": "right"
      },
      {
        "midi": 56,
        "time": 37.4,
        "duration": 0.35,
        "velocity": 0.71,
        "hand": "right"
      },
      {
        "midi": 76,
        "time": 38,
        "duration": 0.4,
        "velocity": 0.69,
        "hand": "right"
      },
      {
        "midi": 58,
        "time": 38.6,
        "duration": 0.35,
        "velocity": 0.71,
        "hand": "right"
      },
      {
        "midi": 73,
        "time": 39.2,
        "duration": 0.4,
        "velocity": 0.71,
        "hand": "right"
      },
      {
        "midi": 58,
        "time": 39.8,
        "duration": 0.35,
        "velocity": 0.71,
        "hand": "right"
      },
      {
        "midi": 76,
        "time": 40.4,
        "duration": 0.4,
        "velocity": 0.73,
        "hand": "right"
      },
      {
        "midi": 58,
        "time": 41,
        "duration": 0.35,
        "velocity": 0.71,
        "hand": "right"
      },
      {
        "midi": 73,
        "time": 41.6,
        "duration": 0.4,
        "velocity": 0.75,
        "hand": "right"
      },
      {
        "midi": 58,
        "time": 42.2,
        "duration": 0.35,
        "velocity": 0.71,
        "hand": "right"
      },
      {
        "midi": 76,
        "time": 42.8,
        "duration": 0.4,
        "velocity": 0.77,
        "hand": "right"
      },
      {
        "midi": 58,
        "time": 43.4,
        "duration": 0.35,
        "velocity": 0.71,
        "hand": "right"
      },
      {
        "midi": 73,
        "time": 44,
        "duration": 0.4,
        "velocity": 0.73,
        "hand": "right"
      },
      {
        "midi": 58,
        "time": 44.6,
        "duration": 0.35,
        "velocity": 0.71,
        "hand": "right"
      },
      {
        "midi": 77,
        "time": 45.2,
        "duration": 0.4,
        "velocity": 0.67,
        "hand": "right"
      },
      {
        "midi": 58,
        "time": 45.8,
        "duration": 0.35,
        "velocity": 0.71,
        "hand": "right"
      },
      {
        "midi": 80,
        "time": 46.4,
        "duration": 0.4,
        "velocity": 0.61,
        "hand": "right"
      },
      {
        "midi": 58,
        "time": 47,
        "duration": 0.35,
        "velocity": 0.71,
        "hand": "right"
      },
      {
        "midi": 77,
        "time": 47.6,
        "duration": 0.6,
        "velocity": 0.54,
        "hand": "right"
      },
      {
        "midi": 53,
        "time": 48.2,
        "duration": 0.35,
        "velocity": 0.71,
        "hand": "right"
      },
      {
        "midi": 65,
        "time": 48.8,
        "duration": 0.3,
        "velocity": 0.71,
        "hand": "right"
      },
      {
        "midi": 56,
        "time": 49.4,
        "duration": 0.35,
        "velocity": 0.71,
        "hand": "right"
      },
      {
        "midi": 75,
        "time": 50,
        "duration": 0.4,
        "velocity": 0.54,
        "hand": "right"
      },
      {
        "midi": 53,
        "time": 50.6,
        "duration": 0.35,
        "velocity": 0.71,
        "hand": "right"
      },
      {
        "midi": 77,
        "time": 51.2,
        "duration": 0.4,
        "velocity": 0.54,
        "hand": "right"
      },
      {
        "midi": 56,
        "time": 51.8,
        "duration": 0.35,
        "velocity": 0.71,
        "hand": "right"
      },
      {
        "midi": 73,
        "time": 52.4,
        "duration": 0.4,
        "velocity": 0.54,
        "hand": "right"
      },
      {
        "midi": 53,
        "time": 53,
        "duration": 0.35,
        "velocity": 0.71,
        "hand": "right"
      },
      {
        "midi": 75,
        "time": 53.6,
        "duration": 0.4,
        "velocity": 0.54,
        "hand": "right"
      },
      {
        "midi": 53,
        "time": 54.2,
        "duration": 0.35,
        "velocity": 0.71,
        "hand": "right"
      },
      {
        "midi": 72,
        "time": 54.8,
        "duration": 0.4,
        "velocity": 0.54,
        "hand": "right"
      },
      {
        "midi": 53,
        "time": 55.4,
        "duration": 0.35,
        "velocity": 0.71,
        "hand": "right"
      },
      {
        "midi": 73,
        "time": 56,
        "duration": 0.4,
        "velocity": 0.64,
        "hand": "right"
      },
      {
        "midi": 53,
        "time": 56.6,
        "duration": 0.35,
        "velocity": 0.71,
        "hand": "right"
      },
      {
        "midi": 71,
        "time": 57.2,
        "duration": 0.4,
        "velocity": 0.77,
        "hand": "right"
      },
      {
        "midi": 53,
        "time": 57.8,
        "duration": 0.35,
        "velocity": 0.71,
        "hand": "right"
      },
      {
        "midi": 68,
        "time": 58.4,
        "duration": 0.4,
        "velocity": 0.77,
        "hand": "right"
      },
      {
        "midi": 53,
        "time": 59,
        "duration": 0.35,
        "velocity": 0.71,
        "hand": "right"
      },
      {
        "midi": 71,
        "time": 59.6,
        "duration": 0.4,
        "velocity": 0.77,
        "hand": "right"
      },
      {
        "midi": 53,
        "time": 60.2,
        "duration": 0.35,
        "velocity": 0.71,
        "hand": "right"
      },
      {
        "midi": 68,
        "time": 60.8,
        "duration": 0.4,
        "velocity": 0.75,
        "hand": "right"
      },
      {
        "midi": 53,
        "time": 61.4,
        "duration": 0.35,
        "velocity": 0.71,
        "hand": "right"
      },
      {
        "midi": 71,
        "time": 62,
        "duration": 0.4,
        "velocity": 0.71,
        "hand": "right"
      },
      {
        "midi": 53,
        "time": 62.6,
        "duration": 0.35,
        "velocity": 0.71,
        "hand": "right"
      },
      {
        "midi": 68,
        "time": 63.2,
        "duration": 0.4,
        "velocity": 0.66,
        "hand": "right"
      },
      {
        "midi": 53,
        "time": 63.8,
        "duration": 0.35,
        "velocity": 0.71,
        "hand": "right"
      },
      {
        "midi": 72,
        "time": 64.4,
        "duration": 0.4,
        "velocity": 0.62,
        "hand": "right"
      },
      {
        "midi": 53,
        "time": 65,
        "duration": 0.35,
        "velocity": 0.71,
        "hand": "right"
      },
      {
        "midi": 75,
        "time": 65.6,
        "duration": 0.4,
        "velocity": 0.58,
        "hand": "right"
      },
      {
        "midi": 53,
        "time": 66.2,
        "duration": 0.35,
        "velocity": 0.71,
        "hand": "right"
      },
      {
        "midi": 72,
        "time": 66.8,
        "duration": 0.6,
        "velocity": 0.54,
        "hand": "right"
      },
      {
        "midi": 48,
        "time": 67.4,
        "duration": 0.35,
        "velocity": 0.71,
        "hand": "right"
      },
      {
        "midi": 60,
        "time": 68,
        "duration": 0.3,
        "velocity": 0.71,
        "hand": "right"
      },
      {
        "midi": 51,
        "time": 68.6,
        "duration": 0.35,
        "velocity": 0.71,
        "hand": "right"
      },
      {
        "midi": 70,
        "time": 69.2,
        "duration": 0.4,
        "velocity": 0.54,
        "hand": "right"
      },
      {
        "midi": 48,
        "time": 69.8,
        "duration": 0.35,
        "velocity": 0.71,
        "hand": "right"
      },
      {
        "midi": 72,
        "time": 70.4,
        "duration": 0.4,
        "velocity": 0.54,
        "hand": "right"
      },
      {
        "midi": 48,
        "time": 71,
        "duration": 0.35,
        "velocity": 0.71,
        "hand": "right"
      },
      {
        "midi": 68,
        "time": 71.6,
        "duration": 0.4,
        "velocity": 0.54,
        "hand": "right"
      },
      {
        "midi": 48,
        "time": 72.2,
        "duration": 0.35,
        "velocity": 0.71,
        "hand": "right"
      },
      {
        "midi": 70,
        "time": 72.8,
        "duration": 0.4,
        "velocity": 0.59,
        "hand": "right"
      },
      {
        "midi": 48,
        "time": 73.4,
        "duration": 0.35,
        "velocity": 0.71,
        "hand": "right"
      },
      {
        "midi": 66,
        "time": 74,
        "duration": 0.4,
        "velocity": 0.65,
        "hand": "right"
      },
      {
        "midi": 48,
        "time": 74.6,
        "duration": 0.35,
        "velocity": 0.71,
        "hand": "right"
      },
      {
        "midi": 68,
        "time": 75.2,
        "duration": 0.4,
        "velocity": 0.71,
        "hand": "right"
      },
      {
        "midi": 48,
        "time": 75.8,
        "duration": 0.35,
        "velocity": 0.71,
        "hand": "right"
      },
      {
        "midi": 65,
        "time": 76.4,
        "duration": 0.4,
        "velocity": 0.77,
        "hand": "right"
      },
      {
        "midi": 49,
        "time": 77,
        "duration": 0.35,
        "velocity": 0.71,
        "hand": "right"
      },
      {
        "midi": 73,
        "time": 77.6,
        "duration": 0.4,
        "velocity": 0.77,
        "hand": "right"
      },
      {
        "midi": 49,
        "time": 78.2,
        "duration": 0.35,
        "velocity": 0.71,
        "hand": "right"
      },
      {
        "midi": 71,
        "time": 78.8,
        "duration": 0.4,
        "velocity": 0.77,
        "hand": "right"
      },
      {
        "midi": 49,
        "time": 79.4,
        "duration": 0.35,
        "velocity": 0.71,
        "hand": "right"
      },
      {
        "midi": 78,
        "time": 80,
        "duration": 0.4,
        "velocity": 0.91,
        "hand": "right"
      },
      {
        "midi": 49,
        "time": 80.6,
        "duration": 0.35,
        "velocity": 0.71,
        "hand": "right"
      },
      {
        "midi": 68,
        "time": 81.2,
        "duration": 0.4,
        "velocity": 1,
        "hand": "right"
      },
      {
        "midi": 49,
        "time": 81.8,
        "duration": 0.35,
        "velocity": 0.71,
        "hand": "right"
      },
      {
        "midi": 75,
        "time": 82.4,
        "duration": 0.4,
        "velocity": 1,
        "hand": "right"
      },
      {
        "midi": 49,
        "time": 83,
        "duration": 0.35,
        "velocity": 0.71,
        "hand": "right"
      },
      {
        "midi": 65,
        "time": 83.6,
        "duration": 0.4,
        "velocity": 1,
        "hand": "right"
      },
      {
        "midi": 49,
        "time": 84.2,
        "duration": 0.35,
        "velocity": 0.71,
        "hand": "right"
      },
      {
        "midi": 71,
        "time": 84.8,
        "duration": 0.4,
        "velocity": 0.92,
        "hand": "right"
      },
      {
        "midi": 49,
        "time": 85.4,
        "duration": 0.35,
        "velocity": 0.71,
        "hand": "right"
      },
      {
        "midi": 58,
        "time": 86,
        "duration": 0.4,
        "velocity": 0.77,
        "hand": "right"
      },
      {
        "midi": 46,
        "time": 86.6,
        "duration": 0.35,
        "velocity": 0.71,
        "hand": "right"
      },
      {
        "midi": 63,
        "time": 87.2,
        "duration": 0.4,
        "velocity": 0.8,
        "hand": "right"
      },
      {
        "midi": 46,
        "time": 87.8,
        "duration": 0.35,
        "velocity": 0.71,
        "hand": "right"
      },
      {
        "midi": 58,
        "time": 88.4,
        "duration": 0.4,
        "velocity": 0.82,
        "hand": "right"
      },
      {
        "midi": 53,
        "time": 89,
        "duration": 0.35,
        "velocity": 0.71,
        "hand": "right"
      },
      {
        "midi": 69,
        "time": 89.6,
        "duration": 0.4,
        "velocity": 0.85,
        "hand": "right"
      },
      {
        "midi": 53,
        "time": 90.2,
        "duration": 0.35,
        "velocity": 0.71,
        "hand": "right"
      },
      {
        "midi": 75,
        "time": 90.8,
        "duration": 0.4,
        "velocity": 0.88,
        "hand": "right"
      },
      {
        "midi": 53,
        "time": 91.4,
        "duration": 0.35,
        "velocity": 0.71,
        "hand": "right"
      },
      {
        "midi": 82,
        "time": 92,
        "duration": 0.4,
        "velocity": 0.91,
        "hand": "right"
      },
      {
        "midi": 53,
        "time": 92.6,
        "duration": 0.35,
        "velocity": 0.71,
        "hand": "right"
      },
      {
        "midi": 77,
        "time": 93.2,
        "duration": 0.4,
        "velocity": 0.94,
        "hand": "right"
      },
      {
        "midi": 53,
        "time": 93.8,
        "duration": 0.35,
        "velocity": 0.71,
        "hand": "right"
      },
      {
        "midi": 70,
        "time": 94.4,
        "duration": 0.4,
        "velocity": 0.98,
        "hand": "right"
      },
      {
        "midi": 53,
        "time": 95,
        "duration": 0.35,
        "velocity": 0.71,
        "hand": "right"
      },
      {
        "midi": 58,
        "time": 95.6,
        "duration": 0.4,
        "velocity": 0.75,
        "hand": "right"
      },
      {
        "midi": 51,
        "time": 96.2,
        "duration": 0.35,
        "velocity": 0.71,
        "hand": "right"
      },
      {
        "midi": 65,
        "time": 96.8,
        "duration": 0.4,
        "velocity": 0.75,
        "hand": "right"
      },
      {
        "midi": 51,
        "time": 97.4,
        "duration": 0.35,
        "velocity": 0.71,
        "hand": "right"
      },
      {
        "midi": 70,
        "time": 98,
        "duration": 0.4,
        "velocity": 0.75,
        "hand": "right"
      },
      {
        "midi": 53,
        "time": 98.6,
        "duration": 0.35,
        "velocity": 0.71,
        "hand": "right"
      },
      {
        "midi": 70,
        "time": 99.2,
        "duration": 0.4,
        "velocity": 0.75,
        "hand": "right"
      },
      {
        "midi": 53,
        "time": 99.8,
        "duration": 0.35,
        "velocity": 0.71,
        "hand": "right"
      },
      {
        "midi": 58,
        "time": 100.4,
        "duration": 0.4,
        "velocity": 0.75,
        "hand": "right"
      },
      {
        "midi": 51,
        "time": 101,
        "duration": 0.35,
        "velocity": 0.71,
        "hand": "right"
      },
      {
        "midi": 63,
        "time": 101.6,
        "duration": 0.4,
        "velocity": 0.75,
        "hand": "right"
      },
      {
        "midi": 51,
        "time": 102.2,
        "duration": 0.35,
        "velocity": 0.71,
        "hand": "right"
      },
      {
        "midi": 70,
        "time": 102.8,
        "duration": 0.4,
        "velocity": 0.75,
        "hand": "right"
      },
      {
        "midi": 53,
        "time": 103.4,
        "duration": 0.35,
        "velocity": 0.71,
        "hand": "right"
      },
      {
        "midi": 71,
        "time": 104,
        "duration": 0.4,
        "velocity": 0.75,
        "hand": "right"
      },
      {
        "midi": 53,
        "time": 104.6,
        "duration": 0.35,
        "velocity": 0.71,
        "hand": "right"
      },
      {
        "midi": 66,
        "time": 105.2,
        "duration": 0.4,
        "velocity": 0.75,
        "hand": "right"
      },
      {
        "midi": 51,
        "time": 105.8,
        "duration": 0.35,
        "velocity": 0.71,
        "hand": "right"
      },
      {
        "midi": 66,
        "time": 106.4,
        "duration": 0.4,
        "velocity": 0.76,
        "hand": "right"
      },
      {
        "midi": 51,
        "time": 107,
        "duration": 0.35,
        "velocity": 0.71,
        "hand": "right"
      },
      {
        "midi": 72,
        "time": 107.6,
        "duration": 0.4,
        "velocity": 0.8,
        "hand": "right"
      },
      {
        "midi": 55,
        "time": 108.2,
        "duration": 0.35,
        "velocity": 0.71,
        "hand": "right"
      },
      {
        "midi": 72,
        "time": 108.8,
        "duration": 0.4,
        "velocity": 0.83,
        "hand": "right"
      },
      {
        "midi": 55,
        "time": 109.4,
        "duration": 0.35,
        "velocity": 0.71,
        "hand": "right"
      },
      {
        "midi": 60,
        "time": 110,
        "duration": 0.4,
        "velocity": 0.85,
        "hand": "right"
      },
      {
        "midi": 53,
        "time": 110.6,
        "duration": 0.35,
        "velocity": 0.71,
        "hand": "right"
      },
      {
        "midi": 65,
        "time": 111.2,
        "duration": 0.4,
        "velocity": 0.88,
        "hand": "right"
      },
      {
        "midi": 53,
        "time": 111.8,
        "duration": 0.35,
        "velocity": 0.71,
        "hand": "right"
      },
      {
        "midi": 72,
        "time": 112.4,
        "duration": 0.4,
        "velocity": 0.91,
        "hand": "right"
      },
      {
        "midi": 55,
        "time": 113,
        "duration": 0.35,
        "velocity": 0.71,
        "hand": "right"
      },
      {
        "midi": 72,
        "time": 113.6,
        "duration": 0.4,
        "velocity": 0.94,
        "hand": "right"
      },
      {
        "midi": 55,
        "time": 114.2,
        "duration": 0.35,
        "velocity": 0.71,
        "hand": "right"
      },
      {
        "midi": 69,
        "time": 114.8,
        "duration": 0.4,
        "velocity": 0.97,
        "hand": "right"
      },
      {
        "midi": 51,
        "time": 115.4,
        "duration": 0.35,
        "velocity": 0.71,
        "hand": "right"
      },
      {
        "midi": 66,
        "time": 116,
        "duration": 0.4,
        "velocity": 0.5,
        "hand": "right"
      },
      {
        "midi": 51,
        "time": 116.6,
        "duration": 0.35,
        "velocity": 0.71,
        "hand": "right"
      },
      {
        "midi": 69,
        "time": 117.2,
        "duration": 0.4,
        "velocity": 0.5,
        "hand": "right"
      },
      {
        "midi": 51,
        "time": 117.8,
        "duration": 0.35,
        "velocity": 0.71,
        "hand": "right"
      },
      {
        "midi": 66,
        "time": 118.4,
        "duration": 0.4,
        "velocity": 0.5,
        "hand": "right"
      },
      {
        "midi": 51,
        "time": 119,
        "duration": 0.35,
        "velocity": 0.71,
        "hand": "right"
      },
      {
        "midi": 71,
        "time": 119.6,
        "duration": 0.4,
        "velocity": 0.5,
        "hand": "right"
      },
      {
        "midi": 55,
        "time": 120.2,
        "duration": 0.35,
        "velocity": 0.71,
        "hand": "right"
      },
      {
        "midi": 68,
        "time": 120.8,
        "duration": 0.4,
        "velocity": 0.77,
        "hand": "right"
      },
      {
        "midi": 55,
        "time": 121.4,
        "duration": 0.35,
        "velocity": 0.71,
        "hand": "right"
      },
      {
        "midi": 71,
        "time": 122,
        "duration": 0.4,
        "velocity": 0.84,
        "hand": "right"
      },
      {
        "midi": 53,
        "time": 122.6,
        "duration": 0.35,
        "velocity": 0.71,
        "hand": "right"
      },
      {
        "midi": 68,
        "time": 123.2,
        "duration": 0.4,
        "velocity": 0.92,
        "hand": "right"
      },
      {
        "midi": 53,
        "time": 123.8,
        "duration": 0.35,
        "velocity": 0.71,
        "hand": "right"
      },
      {
        "midi": 79,
        "time": 124.4,
        "duration": 0.4,
        "velocity": 0.97,
        "hand": "right"
      },
      {
        "midi": 53,
        "time": 125,
        "duration": 0.35,
        "velocity": 0.71,
        "hand": "right"
      },
      {
        "midi": 77,
        "time": 125.6,
        "duration": 0.4,
        "velocity": 0.91,
        "hand": "right"
      },
      {
        "midi": 53,
        "time": 126.2,
        "duration": 0.35,
        "velocity": 0.71,
        "hand": "right"
      },
      {
        "midi": 75,
        "time": 126.8,
        "duration": 0.4,
        "velocity": 0.85,
        "hand": "right"
      },
      {
        "midi": 53,
        "time": 127.4,
        "duration": 0.35,
        "velocity": 0.71,
        "hand": "right"
      },
      {
        "midi": 70,
        "time": 128,
        "duration": 0.4,
        "velocity": 0.79,
        "hand": "right"
      },
      {
        "midi": 53,
        "time": 128.6,
        "duration": 0.35,
        "velocity": 0.71,
        "hand": "right"
      },
      {
        "midi": 65,
        "time": 129.2,
        "duration": 0.4,
        "velocity": 0.75,
        "hand": "right"
      },
      {
        "midi": 55,
        "time": 129.8,
        "duration": 0.35,
        "velocity": 0.71,
        "hand": "right"
      },
      {
        "midi": 73,
        "time": 130.4,
        "duration": 0.4,
        "velocity": 0.69,
        "hand": "right"
      },
      {
        "midi": 55,
        "time": 131,
        "duration": 0.35,
        "velocity": 0.71,
        "hand": "right"
      },
      {
        "midi": 77,
        "time": 131.6,
        "duration": 0.4,
        "velocity": 0.62,
        "hand": "right"
      },
      {
        "midi": 55,
        "time": 132.2,
        "duration": 0.35,
        "velocity": 0.71,
        "hand": "right"
      },
      {
        "midi": 80,
        "time": 132.8,
        "duration": 0.4,
        "velocity": 0.56,
        "hand": "right"
      },
      {
        "midi": 55,
        "time": 133.4,
        "duration": 0.35,
        "velocity": 0.71,
        "hand": "right"
      },
      {
        "midi": 77,
        "time": 134,
        "duration": 2.4,
        "velocity": 0.54,
        "hand": "right"
      },
      {
        "midi": 53,
        "time": 134.6,
        "duration": 0.35,
        "velocity": 0.71,
        "hand": "right"
      },
      {
        "midi": 65,
        "time": 135.2,
        "duration": 0.3,
        "velocity": 0.71,
        "hand": "right"
      },
      {
        "midi": 53,
        "time": 135.8,
        "duration": 0.35,
        "velocity": 0.57,
        "hand": "left"
      },
      {
        "midi": 57,
        "time": 135.8,
        "duration": 0.3,
        "velocity": 0.71,
        "hand": "right"
      },
      {
        "midi": 75,
        "time": 136.4,
        "duration": 0.4,
        "velocity": 0.49,
        "hand": "right"
      },
      {
        "midi": 53,
        "time": 137,
        "duration": 0.35,
        "velocity": 0.71,
        "hand": "right"
      },
      {
        "midi": 77,
        "time": 137.6,
        "duration": 0.4,
        "velocity": 0.49,
        "hand": "right"
      },
      {
        "midi": 53,
        "time": 138.2,
        "duration": 0.35,
        "velocity": 0.57,
        "hand": "left"
      },
      {
        "midi": 57,
        "time": 138.2,
        "duration": 0.3,
        "velocity": 0.71,
        "hand": "right"
      },
      {
        "midi": 73,
        "time": 138.8,
        "duration": 0.4,
        "velocity": 0.49,
        "hand": "right"
      },
      {
        "midi": 53,
        "time": 139.4,
        "duration": 0.35,
        "velocity": 0.71,
        "hand": "right"
      },
      {
        "midi": 75,
        "time": 140,
        "duration": 0.4,
        "velocity": 0.6,
        "hand": "right"
      },
      {
        "midi": 53,
        "time": 140.6,
        "duration": 0.35,
        "velocity": 0.71,
        "hand": "right"
      },
      {
        "midi": 71,
        "time": 141.2,
        "duration": 0.4,
        "velocity": 0.71,
        "hand": "right"
      },
      {
        "midi": 53,
        "time": 141.8,
        "duration": 0.35,
        "velocity": 0.71,
        "hand": "right"
      },
      {
        "midi": 73,
        "time": 142.4,
        "duration": 0.4,
        "velocity": 0.84,
        "hand": "right"
      },
      {
        "midi": 53,
        "time": 143,
        "duration": 0.35,
        "velocity": 0.71,
        "hand": "right"
      },
      {
        "midi": 70,
        "time": 143.6,
        "duration": 0.4,
        "velocity": 0.94,
        "hand": "right"
      },
      {
        "midi": 54,
        "time": 144.2,
        "duration": 0.35,
        "velocity": 0.71,
        "hand": "right"
      },
      {
        "midi": 72,
        "time": 144.8,
        "duration": 0.4,
        "velocity": 0.8,
        "hand": "right"
      },
      {
        "midi": 54,
        "time": 145.4,
        "duration": 0.35,
        "velocity": 0.71,
        "hand": "right"
      },
      {
        "midi": 70,
        "time": 146,
        "duration": 0.4,
        "velocity": 0.71,
        "hand": "right"
      },
      {
        "midi": 52,
        "time": 146.6,
        "duration": 0.35,
        "velocity": 0.71,
        "hand": "right"
      },
      {
        "midi": 72,
        "time": 147.2,
        "duration": 0.4,
        "velocity": 0.68,
        "hand": "right"
      },
      {
        "midi": 53,
        "time": 148,
        "duration": 0.4,
        "velocity": 0.53,
        "hand": "left"
      },
      {
        "midi": 65,
        "time": 148,
        "duration": 0.4,
        "velocity": 0.66,
        "hand": "right"
      },
      {
        "midi": 68,
        "time": 148.8,
        "duration": 0.4,
        "velocity": 0.64,
        "hand": "right"
      },
      {
        "midi": 55,
        "time": 149.2,
        "duration": 0.4,
        "velocity": 0.5,
        "hand": "left"
      },
      {
        "midi": 68,
        "time": 149.6,
        "duration": 0.4,
        "velocity": 0.61,
        "hand": "right"
      },
      {
        "midi": 58,
        "time": 150.4,
        "duration": 0.4,
        "velocity": 0.59,
        "hand": "right"
      },
      {
        "midi": 36,
        "time": 152,
        "duration": 1.2,
        "velocity": 0.57,
        "hand": "left"
      },
      {
        "midi": 64,
        "time": 152,
        "duration": 1.2,
        "velocity": 0.55,
        "hand": "right"
      },
      {
        "midi": 41,
        "time": 153.2,
        "duration": 1.2,
        "velocity": 0.57,
        "hand": "left"
      },
      {
        "midi": 65,
        "time": 153.2,
        "duration": 1.2,
        "velocity": 0.52,
        "hand": "right"
      },
      {
        "midi": 41,
        "time": 155.6,
        "duration": 1.2,
        "velocity": 0.57,
        "hand": "left"
      },
      {
        "midi": 56,
        "time": 155.6,
        "duration": 1.2,
        "velocity": 0.49,
        "hand": "right"
      },
      {
        "midi": 41,
        "time": 156.8,
        "duration": 1.2,
        "velocity": 0.57,
        "hand": "left"
      },
      {
        "midi": 56,
        "time": 156.8,
        "duration": 1.2,
        "velocity": 0.49,
        "hand": "right"
      },
      {
        "midi": 41,
        "time": 158,
        "duration": 2.4,
        "velocity": 0.57,
        "hand": "left"
      },
      {
        "midi": 56,
        "time": 158,
        "duration": 2.4,
        "velocity": 0.49,
        "hand": "right"
      }
    ],
    "hard": [
      {
        "midi": 59,
        "time": 0,
        "duration": 0.45,
        "velocity": 0.54,
        "hand": "right"
      },
      {
        "midi": 60,
        "time": 0.3,
        "duration": 0.45,
        "velocity": 0.54,
        "hand": "right"
      },
      {
        "midi": 61,
        "time": 0.75,
        "duration": 0.45,
        "velocity": 0.54,
        "hand": "right"
      },
      {
        "midi": 58,
        "time": 1.2,
        "duration": 0.45,
        "velocity": 0.54,
        "hand": "right"
      },
      {
        "midi": 65,
        "time": 1.5,
        "duration": 0.45,
        "velocity": 0.54,
        "hand": "right"
      },
      {
        "midi": 64,
        "time": 1.95,
        "duration": 0.45,
        "velocity": 0.54,
        "hand": "right"
      },
      {
        "midi": 59,
        "time": 2.4,
        "duration": 0.45,
        "velocity": 0.54,
        "hand": "right"
      },
      {
        "midi": 60,
        "time": 2.7,
        "duration": 0.45,
        "velocity": 0.54,
        "hand": "right"
      },
      {
        "midi": 61,
        "time": 3.15,
        "duration": 0.45,
        "velocity": 0.54,
        "hand": "right"
      },
      {
        "midi": 58,
        "time": 3.6,
        "duration": 0.45,
        "velocity": 0.54,
        "hand": "right"
      },
      {
        "midi": 65,
        "time": 3.9,
        "duration": 0.45,
        "velocity": 0.54,
        "hand": "right"
      },
      {
        "midi": 64,
        "time": 4.35,
        "duration": 0.45,
        "velocity": 0.54,
        "hand": "right"
      },
      {
        "midi": 59,
        "time": 4.8,
        "duration": 0.45,
        "velocity": 0.54,
        "hand": "right"
      },
      {
        "midi": 60,
        "time": 5.1,
        "duration": 0.45,
        "velocity": 0.59,
        "hand": "right"
      },
      {
        "midi": 61,
        "time": 5.55,
        "duration": 0.45,
        "velocity": 0.64,
        "hand": "right"
      },
      {
        "midi": 60,
        "time": 6,
        "duration": 0.45,
        "velocity": 0.68,
        "hand": "right"
      },
      {
        "midi": 62,
        "time": 6.3,
        "duration": 0.45,
        "velocity": 0.72,
        "hand": "right"
      },
      {
        "midi": 65,
        "time": 6.75,
        "duration": 0.45,
        "velocity": 0.77,
        "hand": "right"
      },
      {
        "midi": 64,
        "time": 7.2,
        "duration": 0.45,
        "velocity": 0.77,
        "hand": "right"
      },
      {
        "midi": 65,
        "time": 7.5,
        "duration": 0.45,
        "velocity": 0.77,
        "hand": "right"
      },
      {
        "midi": 68,
        "time": 7.95,
        "duration": 0.45,
        "velocity": 0.77,
        "hand": "right"
      },
      {
        "midi": 67,
        "time": 8.4,
        "duration": 0.45,
        "velocity": 0.69,
        "hand": "right"
      },
      {
        "midi": 68,
        "time": 8.7,
        "duration": 0.45,
        "velocity": 0.62,
        "hand": "right"
      },
      {
        "midi": 41,
        "time": 9.15,
        "duration": 0.3,
        "velocity": 0.71,
        "hand": "left"
      },
      {
        "midi": 65,
        "time": 9.15,
        "duration": 0.6,
        "velocity": 0.54,
        "hand": "right"
      },
      {
        "midi": 48,
        "time": 9.45,
        "duration": 0.3,
        "velocity": 0.71,
        "hand": "left"
      },
      {
        "midi": 53,
        "time": 9.75,
        "duration": 0.3,
        "velocity": 0.71,
        "hand": "left"
      },
      {
        "midi": 56,
        "time": 10.05,
        "duration": 0.3,
        "velocity": 0.71,
        "hand": "left"
      },
      {
        "midi": 60,
        "time": 10.35,
        "duration": 0.3,
        "velocity": 0.71,
        "hand": "left"
      },
      {
        "midi": 56,
        "time": 10.65,
        "duration": 0.3,
        "velocity": 0.71,
        "hand": "left"
      },
      {
        "midi": 53,
        "time": 10.95,
        "duration": 0.3,
        "velocity": 0.71,
        "hand": "left"
      },
      {
        "midi": 48,
        "time": 11.25,
        "duration": 0.3,
        "velocity": 0.71,
        "hand": "left"
      },
      {
        "midi": 41,
        "time": 11.55,
        "duration": 0.3,
        "velocity": 0.71,
        "hand": "left"
      },
      {
        "midi": 48,
        "time": 11.85,
        "duration": 0.3,
        "velocity": 0.71,
        "hand": "left"
      },
      {
        "midi": 53,
        "time": 12.15,
        "duration": 0.3,
        "velocity": 0.71,
        "hand": "left"
      },
      {
        "midi": 56,
        "time": 12.45,
        "duration": 0.3,
        "velocity": 0.71,
        "hand": "left"
      },
      {
        "midi": 60,
        "time": 12.75,
        "duration": 0.3,
        "velocity": 0.71,
        "hand": "left"
      },
      {
        "midi": 56,
        "time": 13.05,
        "duration": 0.3,
        "velocity": 0.71,
        "hand": "left"
      },
      {
        "midi": 53,
        "time": 13.35,
        "duration": 0.3,
        "velocity": 0.71,
        "hand": "left"
      },
      {
        "midi": 48,
        "time": 13.65,
        "duration": 0.3,
        "velocity": 0.71,
        "hand": "left"
      },
      {
        "midi": 41,
        "time": 13.95,
        "duration": 0.3,
        "velocity": 0.71,
        "hand": "left"
      },
      {
        "midi": 48,
        "time": 14.25,
        "duration": 0.3,
        "velocity": 0.71,
        "hand": "left"
      },
      {
        "midi": 53,
        "time": 14.55,
        "duration": 0.3,
        "velocity": 0.71,
        "hand": "left"
      },
      {
        "midi": 56,
        "time": 14.85,
        "duration": 0.3,
        "velocity": 0.71,
        "hand": "left"
      },
      {
        "midi": 60,
        "time": 15.15,
        "duration": 0.3,
        "velocity": 0.71,
        "hand": "left"
      },
      {
        "midi": 56,
        "time": 15.45,
        "duration": 0.3,
        "velocity": 0.71,
        "hand": "left"
      },
      {
        "midi": 53,
        "time": 15.75,
        "duration": 0.3,
        "velocity": 0.71,
        "hand": "left"
      },
      {
        "midi": 48,
        "time": 16.05,
        "duration": 0.3,
        "velocity": 0.71,
        "hand": "left"
      },
      {
        "midi": 41,
        "time": 16.35,
        "duration": 0.3,
        "velocity": 0.71,
        "hand": "left"
      },
      {
        "midi": 48,
        "time": 16.65,
        "duration": 0.3,
        "velocity": 0.71,
        "hand": "left"
      },
      {
        "midi": 53,
        "time": 16.95,
        "duration": 0.3,
        "velocity": 0.71,
        "hand": "left"
      },
      {
        "midi": 56,
        "time": 17.25,
        "duration": 0.3,
        "velocity": 0.71,
        "hand": "left"
      },
      {
        "midi": 60,
        "time": 17.55,
        "duration": 0.3,
        "velocity": 0.71,
        "hand": "left"
      },
      {
        "midi": 56,
        "time": 17.85,
        "duration": 0.3,
        "velocity": 0.71,
        "hand": "left"
      },
      {
        "midi": 53,
        "time": 18.15,
        "duration": 0.3,
        "velocity": 0.71,
        "hand": "left"
      },
      {
        "midi": 48,
        "time": 18.45,
        "duration": 0.3,
        "velocity": 0.71,
        "hand": "left"
      },
      {
        "midi": 41,
        "time": 18.75,
        "duration": 0.3,
        "velocity": 0.71,
        "hand": "left"
      },
      {
        "midi": 48,
        "time": 19.05,
        "duration": 0.3,
        "velocity": 0.71,
        "hand": "left"
      },
      {
        "midi": 60,
        "time": 19.2,
        "duration": 0.45,
        "velocity": 0.54,
        "hand": "right"
      },
      {
        "midi": 53,
        "time": 19.35,
        "duration": 0.3,
        "velocity": 0.71,
        "hand": "left"
      },
      {
        "midi": 68,
        "time": 19.5,
        "duration": 0.45,
        "velocity": 0.54,
        "hand": "right"
      },
      {
        "midi": 56,
        "time": 19.65,
        "duration": 0.3,
        "velocity": 0.71,
        "hand": "left"
      },
      {
        "midi": 60,
        "time": 19.95,
        "duration": 0.3,
        "velocity": 0.71,
        "hand": "left"
      },
      {
        "midi": 67,
        "time": 19.95,
        "duration": 0.45,
        "velocity": 0.54,
        "hand": "right"
      },
      {
        "midi": 56,
        "time": 20.25,
        "duration": 0.3,
        "velocity": 0.71,
        "hand": "left"
      },
      {
        "midi": 65,
        "time": 20.4,
        "duration": 0.45,
        "velocity": 0.54,
        "hand": "right"
      },
      {
        "midi": 53,
        "time": 20.55,
        "duration": 0.3,
        "velocity": 0.71,
        "hand": "left"
      },
      {
        "midi": 71,
        "time": 20.7,
        "duration": 0.45,
        "velocity": 0.54,
        "hand": "right"
      },
      {
        "midi": 48,
        "time": 20.85,
        "duration": 0.3,
        "velocity": 0.71,
        "hand": "left"
      },
      {
        "midi": 40,
        "time": 21.15,
        "duration": 0.3,
        "velocity": 0.71,
        "hand": "left"
      },
      {
        "midi": 72,
        "time": 21.15,
        "duration": 0.45,
        "velocity": 0.54,
        "hand": "right"
      },
      {
        "midi": 48,
        "time": 21.45,
        "duration": 0.3,
        "velocity": 0.71,
        "hand": "left"
      },
      {
        "midi": 73,
        "time": 21.6,
        "duration": 0.45,
        "velocity": 0.59,
        "hand": "right"
      },
      {
        "midi": 55,
        "time": 21.75,
        "duration": 0.3,
        "velocity": 0.71,
        "hand": "left"
      },
      {
        "midi": 71,
        "time": 21.9,
        "duration": 0.45,
        "velocity": 0.64,
        "hand": "right"
      },
      {
        "midi": 58,
        "time": 22.05,
        "duration": 0.3,
        "velocity": 0.71,
        "hand": "left"
      },
      {
        "midi": 60,
        "time": 22.35,
        "duration": 0.3,
        "velocity": 0.71,
        "hand": "left"
      },
      {
        "midi": 72,
        "time": 22.35,
        "duration": 0.45,
        "velocity": 0.68,
        "hand": "right"
      },
      {
        "midi": 58,
        "time": 22.65,
        "duration": 0.3,
        "velocity": 0.71,
        "hand": "left"
      },
      {
        "midi": 60,
        "time": 22.8,
        "duration": 0.45,
        "velocity": 0.72,
        "hand": "right"
      },
      {
        "midi": 55,
        "time": 22.95,
        "duration": 0.3,
        "velocity": 0.71,
        "hand": "left"
      },
      {
        "midi": 70,
        "time": 23.1,
        "duration": 0.45,
        "velocity": 0.77,
        "hand": "right"
      },
      {
        "midi": 48,
        "time": 23.25,
        "duration": 0.3,
        "velocity": 0.71,
        "hand": "left"
      },
      {
        "midi": 41,
        "time": 23.55,
        "duration": 0.3,
        "velocity": 0.71,
        "hand": "left"
      },
      {
        "midi": 69,
        "time": 23.55,
        "duration": 0.45,
        "velocity": 0.77,
        "hand": "right"
      },
      {
        "midi": 48,
        "time": 23.85,
        "duration": 0.3,
        "velocity": 0.71,
        "hand": "left"
      },
      {
        "midi": 68,
        "time": 24,
        "duration": 0.45,
        "velocity": 0.77,
        "hand": "right"
      },
      {
        "midi": 53,
        "time": 24.15,
        "duration": 0.3,
        "velocity": 0.71,
        "hand": "left"
      },
      {
        "midi": 67,
        "time": 24.3,
        "duration": 0.45,
        "velocity": 0.77,
        "hand": "right"
      },
      {
        "midi": 56,
        "time": 24.45,
        "duration": 0.3,
        "velocity": 0.71,
        "hand": "left"
      },
      {
        "midi": 60,
        "time": 24.75,
        "duration": 0.3,
        "velocity": 0.71,
        "hand": "left"
      },
      {
        "midi": 65,
        "time": 24.75,
        "duration": 0.45,
        "velocity": 0.77,
        "hand": "right"
      },
      {
        "midi": 56,
        "time": 25.05,
        "duration": 0.3,
        "velocity": 0.71,
        "hand": "left"
      },
      {
        "midi": 77,
        "time": 25.2,
        "duration": 0.45,
        "velocity": 0.77,
        "hand": "right"
      },
      {
        "midi": 53,
        "time": 25.35,
        "duration": 0.3,
        "velocity": 0.71,
        "hand": "left"
      },
      {
        "midi": 71,
        "time": 25.5,
        "duration": 0.45,
        "velocity": 0.77,
        "hand": "right"
      },
      {
        "midi": 48,
        "time": 25.65,
        "duration": 0.3,
        "velocity": 0.71,
        "hand": "left"
      },
      {
        "midi": 40,
        "time": 25.95,
        "duration": 0.3,
        "velocity": 0.71,
        "hand": "left"
      },
      {
        "midi": 72,
        "time": 25.95,
        "duration": 0.45,
        "velocity": 0.77,
        "hand": "right"
      },
      {
        "midi": 48,
        "time": 26.25,
        "duration": 0.3,
        "velocity": 0.71,
        "hand": "left"
      },
      {
        "midi": 75,
        "time": 26.4,
        "duration": 0.45,
        "velocity": 0.72,
        "hand": "right"
      },
      {
        "midi": 55,
        "time": 26.55,
        "duration": 0.3,
        "velocity": 0.71,
        "hand": "left"
      },
      {
        "midi": 73,
        "time": 26.7,
        "duration": 0.45,
        "velocity": 0.68,
        "hand": "right"
      },
      {
        "midi": 58,
        "time": 26.85,
        "duration": 0.3,
        "velocity": 0.71,
        "hand": "left"
      },
      {
        "midi": 60,
        "time": 27.15,
        "duration": 0.3,
        "velocity": 0.71,
        "hand": "left"
      },
      {
        "midi": 72,
        "time": 27.15,
        "duration": 0.45,
        "velocity": 0.64,
        "hand": "right"
      },
      {
        "midi": 58,
        "time": 27.45,
        "duration": 0.3,
        "velocity": 0.71,
        "hand": "left"
      },
      {
        "midi": 65,
        "time": 27.6,
        "duration": 0.45,
        "velocity": 0.59,
        "hand": "right"
      },
      {
        "midi": 55,
        "time": 27.75,
        "duration": 0.3,
        "velocity": 0.71,
        "hand": "left"
      },
      {
        "midi": 67,
        "time": 27.9,
        "duration": 0.45,
        "velocity": 0.54,
        "hand": "right"
      },
      {
        "midi": 48,
        "time": 28.05,
        "duration": 0.3,
        "velocity": 0.71,
        "hand": "left"
      },
      {
        "midi": 41,
        "time": 28.35,
        "duration": 0.3,
        "velocity": 0.71,
        "hand": "left"
      },
      {
        "midi": 68,
        "time": 28.35,
        "duration": 0.45,
        "velocity": 0.54,
        "hand": "right"
      },
      {
        "midi": 48,
        "time": 28.65,
        "duration": 0.3,
        "velocity": 0.71,
        "hand": "left"
      },
      {
        "midi": 64,
        "time": 28.8,
        "duration": 0.45,
        "velocity": 0.54,
        "hand": "right"
      },
      {
        "midi": 53,
        "time": 28.95,
        "duration": 0.3,
        "velocity": 0.71,
        "hand": "left"
      },
      {
        "midi": 65,
        "time": 29.1,
        "duration": 0.45,
        "velocity": 0.54,
        "hand": "right"
      },
      {
        "midi": 56,
        "time": 29.25,
        "duration": 0.3,
        "velocity": 0.71,
        "hand": "left"
      },
      {
        "midi": 60,
        "time": 29.55,
        "duration": 0.3,
        "velocity": 0.71,
        "hand": "left"
      },
      {
        "midi": 69,
        "time": 29.55,
        "duration": 0.45,
        "velocity": 0.54,
        "hand": "right"
      },
      {
        "midi": 56,
        "time": 29.85,
        "duration": 0.3,
        "velocity": 0.71,
        "hand": "left"
      },
      {
        "midi": 71,
        "time": 30,
        "duration": 0.45,
        "velocity": 0.54,
        "hand": "right"
      },
      {
        "midi": 53,
        "time": 30.15,
        "duration": 0.3,
        "velocity": 0.71,
        "hand": "left"
      },
      {
        "midi": 72,
        "time": 30.3,
        "duration": 0.45,
        "velocity": 0.55,
        "hand": "right"
      },
      {
        "midi": 48,
        "time": 30.45,
        "duration": 0.3,
        "velocity": 0.71,
        "hand": "left"
      },
      {
        "midi": 43,
        "time": 30.75,
        "duration": 0.3,
        "velocity": 0.71,
        "hand": "left"
      },
      {
        "midi": 73,
        "time": 30.75,
        "duration": 0.45,
        "velocity": 0.56,
        "hand": "right"
      },
      {
        "midi": 51,
        "time": 31.05,
        "duration": 0.3,
        "velocity": 0.71,
        "hand": "left"
      },
      {
        "midi": 74,
        "time": 31.2,
        "duration": 0.45,
        "velocity": 0.57,
        "hand": "right"
      },
      {
        "midi": 58,
        "time": 31.35,
        "duration": 0.3,
        "velocity": 0.71,
        "hand": "left"
      },
      {
        "midi": 77,
        "time": 31.5,
        "duration": 0.45,
        "velocity": 0.57,
        "hand": "right"
      },
      {
        "midi": 61,
        "time": 31.65,
        "duration": 0.3,
        "velocity": 0.71,
        "hand": "left"
      },
      {
        "midi": 63,
        "time": 31.95,
        "duration": 0.3,
        "velocity": 0.71,
        "hand": "left"
      },
      {
        "midi": 75,
        "time": 31.95,
        "duration": 0.45,
        "velocity": 0.58,
        "hand": "right"
      },
      {
        "midi": 61,
        "time": 32.25,
        "duration": 0.3,
        "velocity": 0.71,
        "hand": "left"
      },
      {
        "midi": 68,
        "time": 32.4,
        "duration": 0.45,
        "velocity": 0.59,
        "hand": "right"
      },
      {
        "midi": 58,
        "time": 32.55,
        "duration": 0.3,
        "velocity": 0.71,
        "hand": "left"
      },
      {
        "midi": 70,
        "time": 32.7,
        "duration": 0.45,
        "velocity": 0.6,
        "hand": "right"
      },
      {
        "midi": 51,
        "time": 32.85,
        "duration": 0.3,
        "velocity": 0.71,
        "hand": "left"
      },
      {
        "midi": 44,
        "time": 33.15,
        "duration": 0.3,
        "velocity": 0.71,
        "hand": "left"
      },
      {
        "midi": 72,
        "time": 33.15,
        "duration": 0.45,
        "velocity": 0.6,
        "hand": "right"
      },
      {
        "midi": 51,
        "time": 33.45,
        "duration": 0.3,
        "velocity": 0.71,
        "hand": "left"
      },
      {
        "midi": 67,
        "time": 33.6,
        "duration": 0.45,
        "velocity": 0.61,
        "hand": "right"
      },
      {
        "midi": 56,
        "time": 33.75,
        "duration": 0.3,
        "velocity": 0.71,
        "hand": "left"
      },
      {
        "midi": 68,
        "time": 33.9,
        "duration": 0.45,
        "velocity": 0.61,
        "hand": "right"
      },
      {
        "midi": 60,
        "time": 34.05,
        "duration": 0.3,
        "velocity": 0.71,
        "hand": "left"
      },
      {
        "midi": 63,
        "time": 34.35,
        "duration": 0.3,
        "velocity": 0.71,
        "hand": "left"
      },
      {
        "midi": 71,
        "time": 34.35,
        "duration": 0.45,
        "velocity": 0.62,
        "hand": "right"
      },
      {
        "midi": 60,
        "time": 34.65,
        "duration": 0.3,
        "velocity": 0.71,
        "hand": "left"
      },
      {
        "midi": 72,
        "time": 34.8,
        "duration": 0.45,
        "velocity": 0.63,
        "hand": "right"
      },
      {
        "midi": 56,
        "time": 34.95,
        "duration": 0.3,
        "velocity": 0.71,
        "hand": "left"
      },
      {
        "midi": 75,
        "time": 35.1,
        "duration": 0.45,
        "velocity": 0.64,
        "hand": "right"
      },
      {
        "midi": 51,
        "time": 35.25,
        "duration": 0.3,
        "velocity": 0.71,
        "hand": "left"
      },
      {
        "midi": 47,
        "time": 35.55,
        "duration": 0.3,
        "velocity": 0.71,
        "hand": "left"
      },
      {
        "midi": 76,
        "time": 35.55,
        "duration": 0.45,
        "velocity": 0.65,
        "hand": "right"
      },
      {
        "midi": 53,
        "time": 35.85,
        "duration": 0.3,
        "velocity": 0.71,
        "hand": "left"
      },
      {
        "midi": 77,
        "time": 36,
        "duration": 0.45,
        "velocity": 0.65,
        "hand": "right"
      },
      {
        "midi": 55,
        "time": 36.15,
        "duration": 0.3,
        "velocity": 0.71,
        "hand": "left"
      },
      {
        "midi": 78,
        "time": 36.3,
        "duration": 0.45,
        "velocity": 0.66,
        "hand": "right"
      },
      {
        "midi": 62,
        "time": 36.45,
        "duration": 0.3,
        "velocity": 0.71,
        "hand": "left"
      },
      {
        "midi": 65,
        "time": 36.75,
        "duration": 0.3,
        "velocity": 0.71,
        "hand": "left"
      },
      {
        "midi": 79,
        "time": 36.75,
        "duration": 0.45,
        "velocity": 0.67,
        "hand": "right"
      },
      {
        "midi": 62,
        "time": 37.05,
        "duration": 0.3,
        "velocity": 0.71,
        "hand": "left"
      },
      {
        "midi": 74,
        "time": 37.2,
        "duration": 0.45,
        "velocity": 0.67,
        "hand": "right"
      },
      {
        "midi": 56,
        "time": 37.35,
        "duration": 0.3,
        "velocity": 0.71,
        "hand": "left"
      },
      {
        "midi": 77,
        "time": 37.5,
        "duration": 0.45,
        "velocity": 0.68,
        "hand": "right"
      },
      {
        "midi": 55,
        "time": 37.65,
        "duration": 0.3,
        "velocity": 0.71,
        "hand": "left"
      },
      {
        "midi": 48,
        "time": 37.95,
        "duration": 0.3,
        "velocity": 0.71,
        "hand": "left"
      },
      {
        "midi": 76,
        "time": 37.95,
        "duration": 0.45,
        "velocity": 0.69,
        "hand": "right"
      },
      {
        "midi": 55,
        "time": 38.25,
        "duration": 0.3,
        "velocity": 0.71,
        "hand": "left"
      },
      {
        "midi": 71,
        "time": 38.4,
        "duration": 0.45,
        "velocity": 0.69,
        "hand": "right"
      },
      {
        "midi": 58,
        "time": 38.55,
        "duration": 0.3,
        "velocity": 0.71,
        "hand": "left"
      },
      {
        "midi": 72,
        "time": 38.7,
        "duration": 0.45,
        "velocity": 0.7,
        "hand": "right"
      },
      {
        "midi": 60,
        "time": 38.85,
        "duration": 0.3,
        "velocity": 0.71,
        "hand": "left"
      },
      {
        "midi": 64,
        "time": 39.15,
        "duration": 0.3,
        "velocity": 0.71,
        "hand": "left"
      },
      {
        "midi": 73,
        "time": 39.15,
        "duration": 0.45,
        "velocity": 0.71,
        "hand": "right"
      },
      {
        "midi": 60,
        "time": 39.45,
        "duration": 0.3,
        "velocity": 0.71,
        "hand": "left"
      },
      {
        "midi": 70,
        "time": 39.6,
        "duration": 0.45,
        "velocity": 0.72,
        "hand": "right"
      },
      {
        "midi": 58,
        "time": 39.75,
        "duration": 0.3,
        "velocity": 0.71,
        "hand": "left"
      },
      {
        "midi": 77,
        "time": 39.9,
        "duration": 0.45,
        "velocity": 0.72,
        "hand": "right"
      },
      {
        "midi": 55,
        "time": 40.05,
        "duration": 0.3,
        "velocity": 0.71,
        "hand": "left"
      },
      {
        "midi": 48,
        "time": 40.35,
        "duration": 0.3,
        "velocity": 0.71,
        "hand": "left"
      },
      {
        "midi": 76,
        "time": 40.35,
        "duration": 0.45,
        "velocity": 0.73,
        "hand": "right"
      },
      {
        "midi": 55,
        "time": 40.65,
        "duration": 0.3,
        "velocity": 0.71,
        "hand": "left"
      },
      {
        "midi": 71,
        "time": 40.8,
        "duration": 0.45,
        "velocity": 0.73,
        "hand": "right"
      },
      {
        "midi": 58,
        "time": 40.95,
        "duration": 0.3,
        "velocity": 0.71,
        "hand": "left"
      },
      {
        "midi": 72,
        "time": 41.1,
        "duration": 0.45,
        "velocity": 0.74,
        "hand": "right"
      },
      {
        "midi": 60,
        "time": 41.25,
        "duration": 0.3,
        "velocity": 0.71,
        "hand": "left"
      },
      {
        "midi": 64,
        "time": 41.55,
        "duration": 0.3,
        "velocity": 0.71,
        "hand": "left"
      },
      {
        "midi": 73,
        "time": 41.55,
        "duration": 0.45,
        "velocity": 0.75,
        "hand": "right"
      },
      {
        "midi": 60,
        "time": 41.85,
        "duration": 0.3,
        "velocity": 0.71,
        "hand": "left"
      },
      {
        "midi": 70,
        "time": 42,
        "duration": 0.45,
        "velocity": 0.76,
        "hand": "right"
      },
      {
        "midi": 58,
        "time": 42.15,
        "duration": 0.3,
        "velocity": 0.71,
        "hand": "left"
      },
      {
        "midi": 77,
        "time": 42.3,
        "duration": 0.45,
        "velocity": 0.76,
        "hand": "right"
      },
      {
        "midi": 55,
        "time": 42.45,
        "duration": 0.3,
        "velocity": 0.71,
        "hand": "left"
      },
      {
        "midi": 48,
        "time": 42.75,
        "duration": 0.3,
        "velocity": 0.71,
        "hand": "left"
      },
      {
        "midi": 76,
        "time": 42.75,
        "duration": 0.45,
        "velocity": 0.77,
        "hand": "right"
      },
      {
        "midi": 55,
        "time": 43.05,
        "duration": 0.3,
        "velocity": 0.71,
        "hand": "left"
      },
      {
        "midi": 71,
        "time": 43.2,
        "duration": 0.45,
        "velocity": 0.77,
        "hand": "right"
      },
      {
        "midi": 58,
        "time": 43.35,
        "duration": 0.3,
        "velocity": 0.71,
        "hand": "left"
      },
      {
        "midi": 72,
        "time": 43.5,
        "duration": 0.45,
        "velocity": 0.75,
        "hand": "right"
      },
      {
        "midi": 60,
        "time": 43.65,
        "duration": 0.3,
        "velocity": 0.71,
        "hand": "left"
      },
      {
        "midi": 64,
        "time": 43.95,
        "duration": 0.3,
        "velocity": 0.71,
        "hand": "left"
      },
      {
        "midi": 73,
        "time": 43.95,
        "duration": 0.45,
        "velocity": 0.73,
        "hand": "right"
      },
      {
        "midi": 60,
        "time": 44.25,
        "duration": 0.3,
        "velocity": 0.71,
        "hand": "left"
      },
      {
        "midi": 72,
        "time": 44.4,
        "duration": 0.45,
        "velocity": 0.71,
        "hand": "right"
      },
      {
        "midi": 58,
        "time": 44.55,
        "duration": 0.3,
        "velocity": 0.71,
        "hand": "left"
      },
      {
        "midi": 74,
        "time": 44.7,
        "duration": 0.45,
        "velocity": 0.69,
        "hand": "right"
      },
      {
        "midi": 55,
        "time": 44.85,
        "duration": 0.3,
        "velocity": 0.71,
        "hand": "left"
      },
      {
        "midi": 48,
        "time": 45.15,
        "duration": 0.3,
        "velocity": 0.71,
        "hand": "left"
      },
      {
        "midi": 77,
        "time": 45.15,
        "duration": 0.45,
        "velocity": 0.67,
        "hand": "right"
      },
      {
        "midi": 55,
        "time": 45.45,
        "duration": 0.3,
        "velocity": 0.71,
        "hand": "left"
      },
      {
        "midi": 76,
        "time": 45.6,
        "duration": 0.45,
        "velocity": 0.65,
        "hand": "right"
      },
      {
        "midi": 58,
        "time": 45.75,
        "duration": 0.3,
        "velocity": 0.71,
        "hand": "left"
      },
      {
        "midi": 77,
        "time": 45.9,
        "duration": 0.45,
        "velocity": 0.63,
        "hand": "right"
      },
      {
        "midi": 60,
        "time": 46.05,
        "duration": 0.3,
        "velocity": 0.71,
        "hand": "left"
      },
      {
        "midi": 64,
        "time": 46.35,
        "duration": 0.3,
        "velocity": 0.71,
        "hand": "left"
      },
      {
        "midi": 80,
        "time": 46.35,
        "duration": 0.45,
        "velocity": 0.61,
        "hand": "right"
      },
      {
        "midi": 60,
        "time": 46.65,
        "duration": 0.3,
        "velocity": 0.71,
        "hand": "left"
      },
      {
        "midi": 79,
        "time": 46.8,
        "duration": 0.45,
        "velocity": 0.59,
        "hand": "right"
      },
      {
        "midi": 58,
        "time": 46.95,
        "duration": 0.3,
        "velocity": 0.71,
        "hand": "left"
      },
      {
        "midi": 80,
        "time": 47.1,
        "duration": 0.45,
        "velocity": 0.57,
        "hand": "right"
      },
      {
        "midi": 55,
        "time": 47.25,
        "duration": 0.3,
        "velocity": 0.71,
        "hand": "left"
      },
      {
        "midi": 41,
        "time": 47.55,
        "duration": 0.3,
        "velocity": 0.71,
        "hand": "left"
      },
      {
        "midi": 77,
        "time": 47.55,
        "duration": 0.6,
        "velocity": 0.54,
        "hand": "right"
      },
      {
        "midi": 48,
        "time": 47.85,
        "duration": 0.3,
        "velocity": 0.71,
        "hand": "left"
      },
      {
        "midi": 53,
        "time": 48.15,
        "duration": 0.3,
        "velocity": 0.71,
        "hand": "left"
      },
      {
        "midi": 56,
        "time": 48.45,
        "duration": 0.3,
        "velocity": 0.71,
        "hand": "left"
      },
      {
        "midi": 65,
        "time": 48.75,
        "duration": 0.3,
        "velocity": 0.71,
        "hand": "left"
      },
      {
        "midi": 60,
        "time": 49.05,
        "duration": 0.3,
        "velocity": 0.71,
        "hand": "left"
      },
      {
        "midi": 56,
        "time": 49.35,
        "duration": 0.3,
        "velocity": 0.71,
        "hand": "left"
      },
      {
        "midi": 53,
        "time": 49.65,
        "duration": 0.3,
        "velocity": 0.71,
        "hand": "left"
      },
      {
        "midi": 41,
        "time": 49.95,
        "duration": 0.3,
        "velocity": 0.71,
        "hand": "left"
      },
      {
        "midi": 75,
        "time": 49.95,
        "duration": 0.45,
        "velocity": 0.54,
        "hand": "right"
      },
      {
        "midi": 48,
        "time": 50.25,
        "duration": 0.3,
        "velocity": 0.71,
        "hand": "left"
      },
      {
        "midi": 77,
        "time": 50.4,
        "duration": 0.45,
        "velocity": 0.54,
        "hand": "right"
      },
      {
        "midi": 53,
        "time": 50.55,
        "duration": 0.3,
        "velocity": 0.71,
        "hand": "left"
      },
      {
        "midi": 75,
        "time": 50.7,
        "duration": 0.45,
        "velocity": 0.54,
        "hand": "right"
      },
      {
        "midi": 56,
        "time": 50.85,
        "duration": 0.3,
        "velocity": 0.71,
        "hand": "left"
      },
      {
        "midi": 63,
        "time": 51.15,
        "duration": 0.3,
        "velocity": 0.71,
        "hand": "left"
      },
      {
        "midi": 77,
        "time": 51.15,
        "duration": 0.45,
        "velocity": 0.54,
        "hand": "right"
      },
      {
        "midi": 60,
        "time": 51.45,
        "duration": 0.3,
        "velocity": 0.71,
        "hand": "left"
      },
      {
        "midi": 75,
        "time": 51.6,
        "duration": 0.45,
        "velocity": 0.54,
        "hand": "right"
      },
      {
        "midi": 56,
        "time": 51.75,
        "duration": 0.3,
        "velocity": 0.71,
        "hand": "left"
      },
      {
        "midi": 77,
        "time": 51.9,
        "duration": 0.45,
        "velocity": 0.54,
        "hand": "right"
      },
      {
        "midi": 53,
        "time": 52.05,
        "duration": 0.3,
        "velocity": 0.71,
        "hand": "left"
      },
      {
        "midi": 41,
        "time": 52.35,
        "duration": 0.3,
        "velocity": 0.71,
        "hand": "left"
      },
      {
        "midi": 73,
        "time": 52.35,
        "duration": 0.45,
        "velocity": 0.54,
        "hand": "right"
      },
      {
        "midi": 49,
        "time": 52.65,
        "duration": 0.3,
        "velocity": 0.71,
        "hand": "left"
      },
      {
        "midi": 75,
        "time": 52.8,
        "duration": 0.45,
        "velocity": 0.54,
        "hand": "right"
      },
      {
        "midi": 53,
        "time": 52.95,
        "duration": 0.3,
        "velocity": 0.71,
        "hand": "left"
      },
      {
        "midi": 73,
        "time": 53.1,
        "duration": 0.45,
        "velocity": 0.54,
        "hand": "right"
      },
      {
        "midi": 56,
        "time": 53.25,
        "duration": 0.3,
        "velocity": 0.71,
        "hand": "left"
      },
      {
        "midi": 61,
        "time": 53.55,
        "duration": 0.3,
        "velocity": 0.71,
        "hand": "left"
      },
      {
        "midi": 75,
        "time": 53.55,
        "duration": 0.45,
        "velocity": 0.54,
        "hand": "right"
      },
      {
        "midi": 56,
        "time": 53.85,
        "duration": 0.3,
        "velocity": 0.71,
        "hand": "left"
      },
      {
        "midi": 73,
        "time": 54,
        "duration": 0.45,
        "velocity": 0.54,
        "hand": "right"
      },
      {
        "midi": 53,
        "time": 54.15,
        "duration": 0.3,
        "velocity": 0.71,
        "hand": "left"
      },
      {
        "midi": 75,
        "time": 54.3,
        "duration": 0.45,
        "velocity": 0.54,
        "hand": "right"
      },
      {
        "midi": 49,
        "time": 54.45,
        "duration": 0.3,
        "velocity": 0.71,
        "hand": "left"
      },
      {
        "midi": 41,
        "time": 54.75,
        "duration": 0.3,
        "velocity": 0.71,
        "hand": "left"
      },
      {
        "midi": 72,
        "time": 54.75,
        "duration": 0.45,
        "velocity": 0.54,
        "hand": "right"
      },
      {
        "midi": 49,
        "time": 55.05,
        "duration": 0.3,
        "velocity": 0.71,
        "hand": "left"
      },
      {
        "midi": 73,
        "time": 55.2,
        "duration": 0.45,
        "velocity": 0.54,
        "hand": "right"
      },
      {
        "midi": 53,
        "time": 55.35,
        "duration": 0.3,
        "velocity": 0.71,
        "hand": "left"
      },
      {
        "midi": 72,
        "time": 55.5,
        "duration": 0.45,
        "velocity": 0.59,
        "hand": "right"
      },
      {
        "midi": 56,
        "time": 55.65,
        "duration": 0.3,
        "velocity": 0.71,
        "hand": "left"
      },
      {
        "midi": 60,
        "time": 55.95,
        "duration": 0.3,
        "velocity": 0.71,
        "hand": "left"
      },
      {
        "midi": 73,
        "time": 55.95,
        "duration": 0.45,
        "velocity": 0.64,
        "hand": "right"
      },
      {
        "midi": 56,
        "time": 56.25,
        "duration": 0.3,
        "velocity": 0.71,
        "hand": "left"
      },
      {
        "midi": 72,
        "time": 56.4,
        "duration": 0.45,
        "velocity": 0.68,
        "hand": "right"
      },
      {
        "midi": 53,
        "time": 56.55,
        "duration": 0.3,
        "velocity": 0.71,
        "hand": "left"
      },
      {
        "midi": 73,
        "time": 56.7,
        "duration": 0.45,
        "velocity": 0.72,
        "hand": "right"
      },
      {
        "midi": 49,
        "time": 56.85,
        "duration": 0.3,
        "velocity": 0.71,
        "hand": "left"
      },
      {
        "midi": 43,
        "time": 57.15,
        "duration": 0.3,
        "velocity": 0.71,
        "hand": "left"
      },
      {
        "midi": 71,
        "time": 57.15,
        "duration": 0.45,
        "velocity": 0.77,
        "hand": "right"
      },
      {
        "midi": 50,
        "time": 57.45,
        "duration": 0.3,
        "velocity": 0.71,
        "hand": "left"
      },
      {
        "midi": 66,
        "time": 57.6,
        "duration": 0.45,
        "velocity": 0.77,
        "hand": "right"
      },
      {
        "midi": 53,
        "time": 57.75,
        "duration": 0.3,
        "velocity": 0.71,
        "hand": "left"
      },
      {
        "midi": 67,
        "time": 57.9,
        "duration": 0.45,
        "velocity": 0.77,
        "hand": "right"
      },
      {
        "midi": 55,
        "time": 58.05,
        "duration": 0.3,
        "velocity": 0.71,
        "hand": "left"
      },
      {
        "midi": 59,
        "time": 58.35,
        "duration": 0.3,
        "velocity": 0.71,
        "hand": "left"
      },
      {
        "midi": 68,
        "time": 58.35,
        "duration": 0.45,
        "velocity": 0.77,
        "hand": "right"
      },
      {
        "midi": 55,
        "time": 58.65,
        "duration": 0.3,
        "velocity": 0.71,
        "hand": "left"
      },
      {
        "midi": 65,
        "time": 58.8,
        "duration": 0.45,
        "velocity": 0.77,
        "hand": "right"
      },
      {
        "midi": 53,
        "time": 58.95,
        "duration": 0.3,
        "velocity": 0.71,
        "hand": "left"
      },
      {
        "midi": 72,
        "time": 59.1,
        "duration": 0.45,
        "velocity": 0.77,
        "hand": "right"
      },
      {
        "midi": 50,
        "time": 59.25,
        "duration": 0.3,
        "velocity": 0.71,
        "hand": "left"
      },
      {
        "midi": 43,
        "time": 59.55,
        "duration": 0.3,
        "velocity": 0.71,
        "hand": "left"
      },
      {
        "midi": 71,
        "time": 59.55,
        "duration": 0.45,
        "velocity": 0.77,
        "hand": "right"
      },
      {
        "midi": 50,
        "time": 59.85,
        "duration": 0.3,
        "velocity": 0.71,
        "hand": "left"
      },
      {
        "midi": 66,
        "time": 60,
        "duration": 0.45,
        "velocity": 0.77,
        "hand": "right"
      },
      {
        "midi": 53,
        "time": 60.15,
        "duration": 0.3,
        "velocity": 0.71,
        "hand": "left"
      },
      {
        "midi": 67,
        "time": 60.3,
        "duration": 0.45,
        "velocity": 0.76,
        "hand": "right"
      },
      {
        "midi": 55,
        "time": 60.45,
        "duration": 0.3,
        "velocity": 0.71,
        "hand": "left"
      },
      {
        "midi": 59,
        "time": 60.75,
        "duration": 0.3,
        "velocity": 0.71,
        "hand": "left"
      },
      {
        "midi": 68,
        "time": 60.75,
        "duration": 0.45,
        "velocity": 0.75,
        "hand": "right"
      },
      {
        "midi": 55,
        "time": 61.05,
        "duration": 0.3,
        "velocity": 0.71,
        "hand": "left"
      },
      {
        "midi": 65,
        "time": 61.2,
        "duration": 0.45,
        "velocity": 0.73,
        "hand": "right"
      },
      {
        "midi": 53,
        "time": 61.35,
        "duration": 0.3,
        "velocity": 0.71,
        "hand": "left"
      },
      {
        "midi": 72,
        "time": 61.5,
        "duration": 0.45,
        "velocity": 0.72,
        "hand": "right"
      },
      {
        "midi": 50,
        "time": 61.65,
        "duration": 0.3,
        "velocity": 0.71,
        "hand": "left"
      },
      {
        "midi": 43,
        "time": 61.95,
        "duration": 0.3,
        "velocity": 0.71,
        "hand": "left"
      },
      {
        "midi": 71,
        "time": 61.95,
        "duration": 0.45,
        "velocity": 0.71,
        "hand": "right"
      },
      {
        "midi": 50,
        "time": 62.25,
        "duration": 0.3,
        "velocity": 0.71,
        "hand": "left"
      },
      {
        "midi": 66,
        "time": 62.4,
        "duration": 0.45,
        "velocity": 0.69,
        "hand": "right"
      },
      {
        "midi": 53,
        "time": 62.55,
        "duration": 0.3,
        "velocity": 0.71,
        "hand": "left"
      },
      {
        "midi": 67,
        "time": 62.7,
        "duration": 0.45,
        "velocity": 0.68,
        "hand": "right"
      },
      {
        "midi": 55,
        "time": 62.85,
        "duration": 0.3,
        "velocity": 0.71,
        "hand": "left"
      },
      {
        "midi": 59,
        "time": 63.15,
        "duration": 0.3,
        "velocity": 0.71,
        "hand": "left"
      },
      {
        "midi": 68,
        "time": 63.15,
        "duration": 0.45,
        "velocity": 0.66,
        "hand": "right"
      },
      {
        "midi": 55,
        "time": 63.45,
        "duration": 0.3,
        "velocity": 0.71,
        "hand": "left"
      },
      {
        "midi": 67,
        "time": 63.6,
        "duration": 0.45,
        "velocity": 0.65,
        "hand": "right"
      },
      {
        "midi": 53,
        "time": 63.75,
        "duration": 0.3,
        "velocity": 0.71,
        "hand": "left"
      },
      {
        "midi": 69,
        "time": 63.9,
        "duration": 0.45,
        "velocity": 0.64,
        "hand": "right"
      },
      {
        "midi": 50,
        "time": 64.05,
        "duration": 0.3,
        "velocity": 0.71,
        "hand": "left"
      },
      {
        "midi": 43,
        "time": 64.35,
        "duration": 0.3,
        "velocity": 0.71,
        "hand": "left"
      },
      {
        "midi": 72,
        "time": 64.35,
        "duration": 0.45,
        "velocity": 0.62,
        "hand": "right"
      },
      {
        "midi": 50,
        "time": 64.65,
        "duration": 0.3,
        "velocity": 0.71,
        "hand": "left"
      },
      {
        "midi": 71,
        "time": 64.8,
        "duration": 0.45,
        "velocity": 0.61,
        "hand": "right"
      },
      {
        "midi": 53,
        "time": 64.95,
        "duration": 0.3,
        "velocity": 0.71,
        "hand": "left"
      },
      {
        "midi": 72,
        "time": 65.1,
        "duration": 0.45,
        "velocity": 0.6,
        "hand": "right"
      },
      {
        "midi": 55,
        "time": 65.25,
        "duration": 0.3,
        "velocity": 0.71,
        "hand": "left"
      },
      {
        "midi": 59,
        "time": 65.55,
        "duration": 0.3,
        "velocity": 0.71,
        "hand": "left"
      },
      {
        "midi": 75,
        "time": 65.55,
        "duration": 0.45,
        "velocity": 0.58,
        "hand": "right"
      },
      {
        "midi": 55,
        "time": 65.85,
        "duration": 0.3,
        "velocity": 0.71,
        "hand": "left"
      },
      {
        "midi": 74,
        "time": 66,
        "duration": 0.45,
        "velocity": 0.57,
        "hand": "right"
      },
      {
        "midi": 53,
        "time": 66.15,
        "duration": 0.3,
        "velocity": 0.71,
        "hand": "left"
      },
      {
        "midi": 75,
        "time": 66.3,
        "duration": 0.45,
        "velocity": 0.56,
        "hand": "right"
      },
      {
        "midi": 50,
        "time": 66.45,
        "duration": 0.3,
        "velocity": 0.71,
        "hand": "left"
      },
      {
        "midi": 36,
        "time": 66.75,
        "duration": 0.3,
        "velocity": 0.71,
        "hand": "left"
      },
      {
        "midi": 72,
        "time": 66.75,
        "duration": 0.6,
        "velocity": 0.54,
        "hand": "right"
      },
      {
        "midi": 43,
        "time": 67.05,
        "duration": 0.3,
        "velocity": 0.71,
        "hand": "left"
      },
      {
        "midi": 48,
        "time": 67.35,
        "duration": 0.3,
        "velocity": 0.71,
        "hand": "left"
      },
      {
        "midi": 51,
        "time": 67.65,
        "duration": 0.3,
        "velocity": 0.71,
        "hand": "left"
      },
      {
        "midi": 60,
        "time": 67.95,
        "duration": 0.3,
        "velocity": 0.71,
        "hand": "left"
      },
      {
        "midi": 55,
        "time": 68.25,
        "duration": 0.3,
        "velocity": 0.71,
        "hand": "left"
      },
      {
        "midi": 51,
        "time": 68.55,
        "duration": 0.3,
        "velocity": 0.71,
        "hand": "left"
      },
      {
        "midi": 48,
        "time": 68.85,
        "duration": 0.3,
        "velocity": 0.71,
        "hand": "left"
      },
      {
        "midi": 36,
        "time": 69.15,
        "duration": 0.3,
        "velocity": 0.71,
        "hand": "left"
      },
      {
        "midi": 70,
        "time": 69.15,
        "duration": 0.45,
        "velocity": 0.54,
        "hand": "right"
      },
      {
        "midi": 43,
        "time": 69.45,
        "duration": 0.3,
        "velocity": 0.71,
        "hand": "left"
      },
      {
        "midi": 72,
        "time": 69.6,
        "duration": 0.45,
        "velocity": 0.54,
        "hand": "right"
      },
      {
        "midi": 48,
        "time": 69.75,
        "duration": 0.3,
        "velocity": 0.71,
        "hand": "left"
      },
      {
        "midi": 70,
        "time": 69.9,
        "duration": 0.45,
        "velocity": 0.54,
        "hand": "right"
      },
      {
        "midi": 51,
        "time": 70.05,
        "duration": 0.3,
        "velocity": 0.71,
        "hand": "left"
      },
      {
        "midi": 55,
        "time": 70.35,
        "duration": 0.3,
        "velocity": 0.71,
        "hand": "left"
      },
      {
        "midi": 72,
        "time": 70.35,
        "duration": 0.45,
        "velocity": 0.54,
        "hand": "right"
      },
      {
        "midi": 51,
        "time": 70.65,
        "duration": 0.3,
        "velocity": 0.71,
        "hand": "left"
      },
      {
        "midi": 70,
        "time": 70.8,
        "duration": 0.45,
        "velocity": 0.54,
        "hand": "right"
      },
      {
        "midi": 48,
        "time": 70.95,
        "duration": 0.3,
        "velocity": 0.71,
        "hand": "left"
      },
      {
        "midi": 72,
        "time": 71.1,
        "duration": 0.45,
        "velocity": 0.54,
        "hand": "right"
      },
      {
        "midi": 43,
        "time": 71.25,
        "duration": 0.3,
        "velocity": 0.71,
        "hand": "left"
      },
      {
        "midi": 36,
        "time": 71.55,
        "duration": 0.3,
        "velocity": 0.71,
        "hand": "left"
      },
      {
        "midi": 68,
        "time": 71.55,
        "duration": 0.45,
        "velocity": 0.54,
        "hand": "right"
      },
      {
        "midi": 44,
        "time": 71.85,
        "duration": 0.3,
        "velocity": 0.71,
        "hand": "left"
      },
      {
        "midi": 70,
        "time": 72,
        "duration": 0.45,
        "velocity": 0.54,
        "hand": "right"
      },
      {
        "midi": 48,
        "time": 72.15,
        "duration": 0.3,
        "velocity": 0.71,
        "hand": "left"
      },
      {
        "midi": 68,
        "time": 72.3,
        "duration": 0.45,
        "velocity": 0.57,
        "hand": "right"
      },
      {
        "midi": 51,
        "time": 72.45,
        "duration": 0.3,
        "velocity": 0.71,
        "hand": "left"
      },
      {
        "midi": 56,
        "time": 72.75,
        "duration": 0.3,
        "velocity": 0.71,
        "hand": "left"
      },
      {
        "midi": 70,
        "time": 72.75,
        "duration": 0.45,
        "velocity": 0.59,
        "hand": "right"
      },
      {
        "midi": 51,
        "time": 73.05,
        "duration": 0.3,
        "velocity": 0.71,
        "hand": "left"
      },
      {
        "midi": 68,
        "time": 73.2,
        "duration": 0.45,
        "velocity": 0.61,
        "hand": "right"
      },
      {
        "midi": 48,
        "time": 73.35,
        "duration": 0.3,
        "velocity": 0.71,
        "hand": "left"
      },
      {
        "midi": 70,
        "time": 73.5,
        "duration": 0.45,
        "velocity": 0.63,
        "hand": "right"
      },
      {
        "midi": 44,
        "time": 73.65,
        "duration": 0.3,
        "velocity": 0.71,
        "hand": "left"
      },
      {
        "midi": 36,
        "time": 73.95,
        "duration": 0.3,
        "velocity": 0.71,
        "hand": "left"
      },
      {
        "midi": 66,
        "time": 73.95,
        "duration": 0.45,
        "velocity": 0.65,
        "hand": "right"
      },
      {
        "midi": 44,
        "time": 74.25,
        "duration": 0.3,
        "velocity": 0.71,
        "hand": "left"
      },
      {
        "midi": 68,
        "time": 74.4,
        "duration": 0.45,
        "velocity": 0.67,
        "hand": "right"
      },
      {
        "midi": 48,
        "time": 74.55,
        "duration": 0.3,
        "velocity": 0.71,
        "hand": "left"
      },
      {
        "midi": 66,
        "time": 74.7,
        "duration": 0.45,
        "velocity": 0.69,
        "hand": "right"
      },
      {
        "midi": 51,
        "time": 74.85,
        "duration": 0.3,
        "velocity": 0.71,
        "hand": "left"
      },
      {
        "midi": 56,
        "time": 75.15,
        "duration": 0.3,
        "velocity": 0.71,
        "hand": "left"
      },
      {
        "midi": 68,
        "time": 75.15,
        "duration": 0.45,
        "velocity": 0.71,
        "hand": "right"
      },
      {
        "midi": 51,
        "time": 75.45,
        "duration": 0.3,
        "velocity": 0.71,
        "hand": "left"
      },
      {
        "midi": 66,
        "time": 75.6,
        "duration": 0.45,
        "velocity": 0.73,
        "hand": "right"
      },
      {
        "midi": 48,
        "time": 75.75,
        "duration": 0.3,
        "velocity": 0.71,
        "hand": "left"
      },
      {
        "midi": 68,
        "time": 75.9,
        "duration": 0.45,
        "velocity": 0.75,
        "hand": "right"
      },
      {
        "midi": 44,
        "time": 76.05,
        "duration": 0.3,
        "velocity": 0.71,
        "hand": "left"
      },
      {
        "midi": 37,
        "time": 76.35,
        "duration": 0.3,
        "velocity": 0.71,
        "hand": "left"
      },
      {
        "midi": 65,
        "time": 76.35,
        "duration": 0.45,
        "velocity": 0.77,
        "hand": "right"
      },
      {
        "midi": 44,
        "time": 76.65,
        "duration": 0.3,
        "velocity": 0.71,
        "hand": "left"
      },
      {
        "midi": 77,
        "time": 76.8,
        "duration": 0.45,
        "velocity": 0.77,
        "hand": "right"
      },
      {
        "midi": 49,
        "time": 76.95,
        "duration": 0.3,
        "velocity": 0.71,
        "hand": "left"
      },
      {
        "midi": 75,
        "time": 77.1,
        "duration": 0.45,
        "velocity": 0.77,
        "hand": "right"
      },
      {
        "midi": 53,
        "time": 77.25,
        "duration": 0.3,
        "velocity": 0.71,
        "hand": "left"
      },
      {
        "midi": 56,
        "time": 77.55,
        "duration": 0.3,
        "velocity": 0.71,
        "hand": "left"
      },
      {
        "midi": 73,
        "time": 77.55,
        "duration": 0.45,
        "velocity": 0.77,
        "hand": "right"
      },
      {
        "midi": 53,
        "time": 77.85,
        "duration": 0.3,
        "velocity": 0.71,
        "hand": "left"
      },
      {
        "midi": 68,
        "time": 78,
        "duration": 0.45,
        "velocity": 0.77,
        "hand": "right"
      },
      {
        "midi": 49,
        "time": 78.15,
        "duration": 0.3,
        "velocity": 0.71,
        "hand": "left"
      },
      {
        "midi": 70,
        "time": 78.3,
        "duration": 0.45,
        "velocity": 0.77,
        "hand": "right"
      },
      {
        "midi": 44,
        "time": 78.45,
        "duration": 0.3,
        "velocity": 0.71,
        "hand": "left"
      },
      {
        "midi": 37,
        "time": 78.75,
        "duration": 0.3,
        "velocity": 0.71,
        "hand": "left"
      },
      {
        "midi": 71,
        "time": 78.75,
        "duration": 0.45,
        "velocity": 0.77,
        "hand": "right"
      },
      {
        "midi": 44,
        "time": 79.05,
        "duration": 0.3,
        "velocity": 0.71,
        "hand": "left"
      },
      {
        "midi": 82,
        "time": 79.2,
        "duration": 0.45,
        "velocity": 0.82,
        "hand": "right"
      },
      {
        "midi": 49,
        "time": 79.35,
        "duration": 0.3,
        "velocity": 0.71,
        "hand": "left"
      },
      {
        "midi": 80,
        "time": 79.5,
        "duration": 0.45,
        "velocity": 0.86,
        "hand": "right"
      },
      {
        "midi": 53,
        "time": 79.65,
        "duration": 0.3,
        "velocity": 0.71,
        "hand": "left"
      },
      {
        "midi": 56,
        "time": 79.95,
        "duration": 0.3,
        "velocity": 0.71,
        "hand": "left"
      },
      {
        "midi": 78,
        "time": 79.95,
        "duration": 0.45,
        "velocity": 0.91,
        "hand": "right"
      },
      {
        "midi": 53,
        "time": 80.25,
        "duration": 0.3,
        "velocity": 0.71,
        "hand": "left"
      },
      {
        "midi": 75,
        "time": 80.4,
        "duration": 0.45,
        "velocity": 0.95,
        "hand": "right"
      },
      {
        "midi": 49,
        "time": 80.55,
        "duration": 0.3,
        "velocity": 0.71,
        "hand": "left"
      },
      {
        "midi": 78,
        "time": 80.7,
        "duration": 0.45,
        "velocity": 1,
        "hand": "right"
      },
      {
        "midi": 44,
        "time": 80.85,
        "duration": 0.3,
        "velocity": 0.71,
        "hand": "left"
      },
      {
        "midi": 37,
        "time": 81.15,
        "duration": 0.3,
        "velocity": 0.71,
        "hand": "left"
      },
      {
        "midi": 68,
        "time": 81.15,
        "duration": 0.45,
        "velocity": 1,
        "hand": "right"
      },
      {
        "midi": 44,
        "time": 81.45,
        "duration": 0.3,
        "velocity": 0.71,
        "hand": "left"
      },
      {
        "midi": 78,
        "time": 81.6,
        "duration": 0.45,
        "velocity": 1,
        "hand": "right"
      },
      {
        "midi": 49,
        "time": 81.75,
        "duration": 0.3,
        "velocity": 0.71,
        "hand": "left"
      },
      {
        "midi": 77,
        "time": 81.9,
        "duration": 0.45,
        "velocity": 1,
        "hand": "right"
      },
      {
        "midi": 53,
        "time": 82.05,
        "duration": 0.3,
        "velocity": 0.71,
        "hand": "left"
      },
      {
        "midi": 56,
        "time": 82.35,
        "duration": 0.3,
        "velocity": 0.71,
        "hand": "left"
      },
      {
        "midi": 75,
        "time": 82.35,
        "duration": 0.45,
        "velocity": 1,
        "hand": "right"
      },
      {
        "midi": 53,
        "time": 82.65,
        "duration": 0.3,
        "velocity": 0.71,
        "hand": "left"
      },
      {
        "midi": 71,
        "time": 82.8,
        "duration": 0.45,
        "velocity": 1,
        "hand": "right"
      },
      {
        "midi": 49,
        "time": 82.95,
        "duration": 0.3,
        "velocity": 0.71,
        "hand": "left"
      },
      {
        "midi": 75,
        "time": 83.1,
        "duration": 0.45,
        "velocity": 1,
        "hand": "right"
      },
      {
        "midi": 44,
        "time": 83.25,
        "duration": 0.3,
        "velocity": 0.71,
        "hand": "left"
      },
      {
        "midi": 37,
        "time": 83.55,
        "duration": 0.3,
        "velocity": 0.71,
        "hand": "left"
      },
      {
        "midi": 65,
        "time": 83.55,
        "duration": 0.45,
        "velocity": 1,
        "hand": "right"
      },
      {
        "midi": 44,
        "time": 83.85,
        "duration": 0.3,
        "velocity": 0.71,
        "hand": "left"
      },
      {
        "midi": 75,
        "time": 84,
        "duration": 0.45,
        "velocity": 1,
        "hand": "right"
      },
      {
        "midi": 49,
        "time": 84.15,
        "duration": 0.3,
        "velocity": 0.71,
        "hand": "left"
      },
      {
        "midi": 73,
        "time": 84.3,
        "duration": 0.45,
        "velocity": 1,
        "hand": "right"
      },
      {
        "midi": 53,
        "time": 84.45,
        "duration": 0.3,
        "velocity": 0.71,
        "hand": "left"
      },
      {
        "midi": 56,
        "time": 84.75,
        "duration": 0.3,
        "velocity": 0.71,
        "hand": "left"
      },
      {
        "midi": 71,
        "time": 84.75,
        "duration": 0.45,
        "velocity": 0.92,
        "hand": "right"
      },
      {
        "midi": 53,
        "time": 85.05,
        "duration": 0.3,
        "velocity": 0.71,
        "hand": "left"
      },
      {
        "midi": 68,
        "time": 85.2,
        "duration": 0.45,
        "velocity": 0.84,
        "hand": "right"
      },
      {
        "midi": 49,
        "time": 85.35,
        "duration": 0.3,
        "velocity": 0.71,
        "hand": "left"
      },
      {
        "midi": 71,
        "time": 85.5,
        "duration": 0.45,
        "velocity": 0.77,
        "hand": "right"
      },
      {
        "midi": 44,
        "time": 85.65,
        "duration": 0.3,
        "velocity": 0.71,
        "hand": "left"
      },
      {
        "midi": 38,
        "time": 85.95,
        "duration": 0.3,
        "velocity": 0.71,
        "hand": "left"
      },
      {
        "midi": 58,
        "time": 85.95,
        "duration": 0.45,
        "velocity": 0.77,
        "hand": "right"
      },
      {
        "midi": 44,
        "time": 86.25,
        "duration": 0.3,
        "velocity": 0.71,
        "hand": "left"
      },
      {
        "midi": 65,
        "time": 86.4,
        "duration": 0.45,
        "velocity": 0.77,
        "hand": "right"
      },
      {
        "midi": 46,
        "time": 86.55,
        "duration": 0.3,
        "velocity": 0.71,
        "hand": "left"
      },
      {
        "midi": 64,
        "time": 86.7,
        "duration": 0.45,
        "velocity": 0.78,
        "hand": "right"
      },
      {
        "midi": 53,
        "time": 86.85,
        "duration": 0.3,
        "velocity": 0.71,
        "hand": "left"
      },
      {
        "midi": 56,
        "time": 87.15,
        "duration": 0.3,
        "velocity": 0.71,
        "hand": "left"
      },
      {
        "midi": 63,
        "time": 87.15,
        "duration": 0.45,
        "velocity": 0.8,
        "hand": "right"
      },
      {
        "midi": 53,
        "time": 87.45,
        "duration": 0.3,
        "velocity": 0.71,
        "hand": "left"
      },
      {
        "midi": 62,
        "time": 87.6,
        "duration": 0.45,
        "velocity": 0.8,
        "hand": "right"
      },
      {
        "midi": 46,
        "time": 87.75,
        "duration": 0.3,
        "velocity": 0.71,
        "hand": "left"
      },
      {
        "midi": 65,
        "time": 87.9,
        "duration": 0.45,
        "velocity": 0.81,
        "hand": "right"
      },
      {
        "midi": 44,
        "time": 88.05,
        "duration": 0.3,
        "velocity": 0.71,
        "hand": "left"
      },
      {
        "midi": 38,
        "time": 88.35,
        "duration": 0.3,
        "velocity": 0.71,
        "hand": "left"
      },
      {
        "midi": 58,
        "time": 88.35,
        "duration": 0.45,
        "velocity": 0.82,
        "hand": "right"
      },
      {
        "midi": 46,
        "time": 88.65,
        "duration": 0.3,
        "velocity": 0.71,
        "hand": "left"
      },
      {
        "midi": 71,
        "time": 88.8,
        "duration": 0.45,
        "velocity": 0.83,
        "hand": "right"
      },
      {
        "midi": 53,
        "time": 88.95,
        "duration": 0.3,
        "velocity": 0.71,
        "hand": "left"
      },
      {
        "midi": 70,
        "time": 89.1,
        "duration": 0.45,
        "velocity": 0.84,
        "hand": "right"
      },
      {
        "midi": 56,
        "time": 89.25,
        "duration": 0.3,
        "velocity": 0.71,
        "hand": "left"
      },
      {
        "midi": 58,
        "time": 89.55,
        "duration": 0.3,
        "velocity": 0.71,
        "hand": "left"
      },
      {
        "midi": 69,
        "time": 89.55,
        "duration": 0.45,
        "velocity": 0.85,
        "hand": "right"
      },
      {
        "midi": 56,
        "time": 89.85,
        "duration": 0.3,
        "velocity": 0.71,
        "hand": "left"
      },
      {
        "midi": 68,
        "time": 90,
        "duration": 0.45,
        "velocity": 0.87,
        "hand": "right"
      },
      {
        "midi": 53,
        "time": 90.15,
        "duration": 0.3,
        "velocity": 0.71,
        "hand": "left"
      },
      {
        "midi": 77,
        "time": 90.3,
        "duration": 0.45,
        "velocity": 0.87,
        "hand": "right"
      },
      {
        "midi": 46,
        "time": 90.45,
        "duration": 0.285,
        "velocity": 0.71,
        "hand": "left"
      },
      {
        "midi": 46,
        "time": 90.75,
        "duration": 0.285,
        "velocity": 0.71,
        "hand": "left"
      },
      {
        "midi": 75,
        "time": 90.75,
        "duration": 0.45,
        "velocity": 0.88,
        "hand": "right"
      },
      {
        "midi": 46,
        "time": 91.05,
        "duration": 0.3,
        "velocity": 0.71,
        "hand": "left"
      },
      {
        "midi": 74,
        "time": 91.2,
        "duration": 0.45,
        "velocity": 0.9,
        "hand": "right"
      },
      {
        "midi": 53,
        "time": 91.35,
        "duration": 0.3,
        "velocity": 0.71,
        "hand": "left"
      },
      {
        "midi": 83,
        "time": 91.5,
        "duration": 0.45,
        "velocity": 0.91,
        "hand": "right"
      },
      {
        "midi": 56,
        "time": 91.65,
        "duration": 0.3,
        "velocity": 0.71,
        "hand": "left"
      },
      {
        "midi": 58,
        "time": 91.95,
        "duration": 0.3,
        "velocity": 0.71,
        "hand": "left"
      },
      {
        "midi": 82,
        "time": 91.95,
        "duration": 0.45,
        "velocity": 0.91,
        "hand": "right"
      },
      {
        "midi": 56,
        "time": 92.25,
        "duration": 0.3,
        "velocity": 0.71,
        "hand": "left"
      },
      {
        "midi": 81,
        "time": 92.4,
        "duration": 0.45,
        "velocity": 0.92,
        "hand": "right"
      },
      {
        "midi": 53,
        "time": 92.55,
        "duration": 0.3,
        "velocity": 0.71,
        "hand": "left"
      },
      {
        "midi": 80,
        "time": 92.7,
        "duration": 0.45,
        "velocity": 0.94,
        "hand": "right"
      },
      {
        "midi": 46,
        "time": 92.85,
        "duration": 0.3,
        "velocity": 0.71,
        "hand": "left"
      },
      {
        "midi": 38,
        "time": 93.15,
        "duration": 0.3,
        "velocity": 0.71,
        "hand": "left"
      },
      {
        "midi": 77,
        "time": 93.15,
        "duration": 0.45,
        "velocity": 0.94,
        "hand": "right"
      },
      {
        "midi": 46,
        "time": 93.45,
        "duration": 0.3,
        "velocity": 0.71,
        "hand": "left"
      },
      {
        "midi": 73,
        "time": 93.6,
        "duration": 0.45,
        "velocity": 0.95,
        "hand": "right"
      },
      {
        "midi": 53,
        "time": 93.75,
        "duration": 0.3,
        "velocity": 0.71,
        "hand": "left"
      },
      {
        "midi": 71,
        "time": 93.9,
        "duration": 0.45,
        "velocity": 0.97,
        "hand": "right"
      },
      {
        "midi": 56,
        "time": 94.05,
        "duration": 0.3,
        "velocity": 0.71,
        "hand": "left"
      },
      {
        "midi": 58,
        "time": 94.35,
        "duration": 0.3,
        "velocity": 0.71,
        "hand": "left"
      },
      {
        "midi": 70,
        "time": 94.35,
        "duration": 0.45,
        "velocity": 0.98,
        "hand": "right"
      },
      {
        "midi": 56,
        "time": 94.65,
        "duration": 0.3,
        "velocity": 0.71,
        "hand": "left"
      },
      {
        "midi": 61,
        "time": 94.8,
        "duration": 0.45,
        "velocity": 0.98,
        "hand": "right"
      },
      {
        "midi": 53,
        "time": 94.95,
        "duration": 0.3,
        "velocity": 0.71,
        "hand": "left"
      },
      {
        "midi": 59,
        "time": 95.1,
        "duration": 0.45,
        "velocity": 1,
        "hand": "right"
      },
      {
        "midi": 46,
        "time": 95.25,
        "duration": 0.3,
        "velocity": 0.71,
        "hand": "left"
      },
      {
        "midi": 39,
        "time": 95.55,
        "duration": 0.3,
        "velocity": 0.71,
        "hand": "left"
      },
      {
        "midi": 58,
        "time": 95.55,
        "duration": 0.45,
        "velocity": 0.75,
        "hand": "right"
      },
      {
        "midi": 46,
        "time": 95.85,
        "duration": 0.3,
        "velocity": 0.71,
        "hand": "left"
      },
      {
        "midi": 62,
        "time": 96,
        "duration": 0.45,
        "velocity": 0.75,
        "hand": "right"
      },
      {
        "midi": 51,
        "time": 96.15,
        "duration": 0.3,
        "velocity": 0.71,
        "hand": "left"
      },
      {
        "midi": 63,
        "time": 96.3,
        "duration": 0.45,
        "velocity": 0.75,
        "hand": "right"
      },
      {
        "midi": 54,
        "time": 96.45,
        "duration": 0.3,
        "velocity": 0.71,
        "hand": "left"
      },
      {
        "midi": 58,
        "time": 96.75,
        "duration": 0.3,
        "velocity": 0.71,
        "hand": "left"
      },
      {
        "midi": 65,
        "time": 96.75,
        "duration": 0.45,
        "velocity": 0.75,
        "hand": "right"
      },
      {
        "midi": 54,
        "time": 97.05,
        "duration": 0.3,
        "velocity": 0.71,
        "hand": "left"
      },
      {
        "midi": 66,
        "time": 97.2,
        "duration": 0.45,
        "velocity": 0.75,
        "hand": "right"
      },
      {
        "midi": 51,
        "time": 97.35,
        "duration": 0.3,
        "velocity": 0.71,
        "hand": "left"
      },
      {
        "midi": 69,
        "time": 97.5,
        "duration": 0.45,
        "velocity": 0.75,
        "hand": "right"
      },
      {
        "midi": 46,
        "time": 97.65,
        "duration": 0.3,
        "velocity": 0.71,
        "hand": "left"
      },
      {
        "midi": 38,
        "time": 97.95,
        "duration": 0.3,
        "velocity": 0.71,
        "hand": "left"
      },
      {
        "midi": 70,
        "time": 97.95,
        "duration": 0.45,
        "velocity": 0.75,
        "hand": "right"
      },
      {
        "midi": 46,
        "time": 98.25,
        "duration": 0.3,
        "velocity": 0.71,
        "hand": "left"
      },
      {
        "midi": 71,
        "time": 98.4,
        "duration": 0.45,
        "velocity": 0.75,
        "hand": "right"
      },
      {
        "midi": 53,
        "time": 98.55,
        "duration": 0.3,
        "velocity": 0.71,
        "hand": "left"
      },
      {
        "midi": 69,
        "time": 98.7,
        "duration": 0.45,
        "velocity": 0.75,
        "hand": "right"
      },
      {
        "midi": 56,
        "time": 98.85,
        "duration": 0.3,
        "velocity": 0.71,
        "hand": "left"
      },
      {
        "midi": 58,
        "time": 99.15,
        "duration": 0.3,
        "velocity": 0.71,
        "hand": "left"
      },
      {
        "midi": 70,
        "time": 99.15,
        "duration": 0.45,
        "velocity": 0.75,
        "hand": "right"
      },
      {
        "midi": 56,
        "time": 99.45,
        "duration": 0.3,
        "velocity": 0.71,
        "hand": "left"
      },
      {
        "midi": 61,
        "time": 99.6,
        "duration": 0.45,
        "velocity": 0.75,
        "hand": "right"
      },
      {
        "midi": 53,
        "time": 99.75,
        "duration": 0.3,
        "velocity": 0.71,
        "hand": "left"
      },
      {
        "midi": 59,
        "time": 99.9,
        "duration": 0.45,
        "velocity": 0.75,
        "hand": "right"
      },
      {
        "midi": 46,
        "time": 100.05,
        "duration": 0.3,
        "velocity": 0.71,
        "hand": "left"
      },
      {
        "midi": 39,
        "time": 100.35,
        "duration": 0.3,
        "velocity": 0.71,
        "hand": "left"
      },
      {
        "midi": 58,
        "time": 100.35,
        "duration": 0.45,
        "velocity": 0.75,
        "hand": "right"
      },
      {
        "midi": 46,
        "time": 100.65,
        "duration": 0.3,
        "velocity": 0.71,
        "hand": "left"
      },
      {
        "midi": 62,
        "time": 100.8,
        "duration": 0.45,
        "velocity": 0.75,
        "hand": "right"
      },
      {
        "midi": 51,
        "time": 100.95,
        "duration": 0.3,
        "velocity": 0.71,
        "hand": "left"
      },
      {
        "midi": 65,
        "time": 101.1,
        "duration": 0.45,
        "velocity": 0.75,
        "hand": "right"
      },
      {
        "midi": 54,
        "time": 101.25,
        "duration": 0.3,
        "velocity": 0.71,
        "hand": "left"
      },
      {
        "midi": 58,
        "time": 101.55,
        "duration": 0.3,
        "velocity": 0.71,
        "hand": "left"
      },
      {
        "midi": 63,
        "time": 101.55,
        "duration": 0.45,
        "velocity": 0.75,
        "hand": "right"
      },
      {
        "midi": 54,
        "time": 101.85,
        "duration": 0.3,
        "velocity": 0.71,
        "hand": "left"
      },
      {
        "midi": 75,
        "time": 102,
        "duration": 0.45,
        "velocity": 0.75,
        "hand": "right"
      },
      {
        "midi": 51,
        "time": 102.15,
        "duration": 0.3,
        "velocity": 0.71,
        "hand": "left"
      },
      {
        "midi": 69,
        "time": 102.3,
        "duration": 0.45,
        "velocity": 0.75,
        "hand": "right"
      },
      {
        "midi": 46,
        "time": 102.45,
        "duration": 0.3,
        "velocity": 0.71,
        "hand": "left"
      },
      {
        "midi": 38,
        "time": 102.75,
        "duration": 0.3,
        "velocity": 0.71,
        "hand": "left"
      },
      {
        "midi": 70,
        "time": 102.75,
        "duration": 0.45,
        "velocity": 0.75,
        "hand": "right"
      },
      {
        "midi": 46,
        "time": 103.05,
        "duration": 0.3,
        "velocity": 0.71,
        "hand": "left"
      },
      {
        "midi": 73,
        "time": 103.2,
        "duration": 0.45,
        "velocity": 0.75,
        "hand": "right"
      },
      {
        "midi": 53,
        "time": 103.35,
        "duration": 0.3,
        "velocity": 0.71,
        "hand": "left"
      },
      {
        "midi": 71,
        "time": 103.5,
        "duration": 0.435,
        "velocity": 0.75,
        "hand": "right"
      },
      {
        "midi": 56,
        "time": 103.65,
        "duration": 0.3,
        "velocity": 0.71,
        "hand": "left"
      },
      {
        "midi": 58,
        "time": 103.95,
        "duration": 0.3,
        "velocity": 0.71,
        "hand": "left"
      },
      {
        "midi": 71,
        "time": 103.95,
        "duration": 0.45,
        "velocity": 0.75,
        "hand": "right"
      },
      {
        "midi": 56,
        "time": 104.25,
        "duration": 0.3,
        "velocity": 0.71,
        "hand": "left"
      },
      {
        "midi": 63,
        "time": 104.4,
        "duration": 0.45,
        "velocity": 0.75,
        "hand": "right"
      },
      {
        "midi": 53,
        "time": 104.55,
        "duration": 0.3,
        "velocity": 0.71,
        "hand": "left"
      },
      {
        "midi": 65,
        "time": 104.7,
        "duration": 0.45,
        "velocity": 0.75,
        "hand": "right"
      },
      {
        "midi": 46,
        "time": 104.85,
        "duration": 0.3,
        "velocity": 0.71,
        "hand": "left"
      },
      {
        "midi": 39,
        "time": 105.15,
        "duration": 0.3,
        "velocity": 0.71,
        "hand": "left"
      },
      {
        "midi": 66,
        "time": 105.15,
        "duration": 0.45,
        "velocity": 0.75,
        "hand": "right"
      },
      {
        "midi": 46,
        "time": 105.45,
        "duration": 0.3,
        "velocity": 0.71,
        "hand": "left"
      },
      {
        "midi": 62,
        "time": 105.6,
        "duration": 0.45,
        "velocity": 0.75,
        "hand": "right"
      },
      {
        "midi": 51,
        "time": 105.75,
        "duration": 0.3,
        "velocity": 0.71,
        "hand": "left"
      },
      {
        "midi": 63,
        "time": 105.9,
        "duration": 0.45,
        "velocity": 0.76,
        "hand": "right"
      },
      {
        "midi": 54,
        "time": 106.05,
        "duration": 0.3,
        "velocity": 0.71,
        "hand": "left"
      },
      {
        "midi": 58,
        "time": 106.35,
        "duration": 0.3,
        "velocity": 0.71,
        "hand": "left"
      },
      {
        "midi": 66,
        "time": 106.35,
        "duration": 0.45,
        "velocity": 0.76,
        "hand": "right"
      },
      {
        "midi": 54,
        "time": 106.65,
        "duration": 0.3,
        "velocity": 0.71,
        "hand": "left"
      },
      {
        "midi": 70,
        "time": 106.8,
        "duration": 0.45,
        "velocity": 0.77,
        "hand": "right"
      },
      {
        "midi": 51,
        "time": 106.95,
        "duration": 0.3,
        "velocity": 0.71,
        "hand": "left"
      },
      {
        "midi": 71,
        "time": 107.1,
        "duration": 0.45,
        "velocity": 0.79,
        "hand": "right"
      },
      {
        "midi": 46,
        "time": 107.25,
        "duration": 0.3,
        "velocity": 0.71,
        "hand": "left"
      },
      {
        "midi": 40,
        "time": 107.55,
        "duration": 0.3,
        "velocity": 0.71,
        "hand": "left"
      },
      {
        "midi": 72,
        "time": 107.55,
        "duration": 0.45,
        "velocity": 0.8,
        "hand": "right"
      },
      {
        "midi": 48,
        "time": 107.85,
        "duration": 0.3,
        "velocity": 0.71,
        "hand": "left"
      },
      {
        "midi": 73,
        "time": 108,
        "duration": 0.45,
        "velocity": 0.8,
        "hand": "right"
      },
      {
        "midi": 55,
        "time": 108.15,
        "duration": 0.3,
        "velocity": 0.71,
        "hand": "left"
      },
      {
        "midi": 71,
        "time": 108.3,
        "duration": 0.45,
        "velocity": 0.81,
        "hand": "right"
      },
      {
        "midi": 58,
        "time": 108.45,
        "duration": 0.3,
        "velocity": 0.71,
        "hand": "left"
      },
      {
        "midi": 60,
        "time": 108.75,
        "duration": 0.3,
        "velocity": 0.71,
        "hand": "left"
      },
      {
        "midi": 72,
        "time": 108.75,
        "duration": 0.45,
        "velocity": 0.83,
        "hand": "right"
      },
      {
        "midi": 58,
        "time": 109.05,
        "duration": 0.3,
        "velocity": 0.71,
        "hand": "left"
      },
      {
        "midi": 63,
        "time": 109.2,
        "duration": 0.45,
        "velocity": 0.83,
        "hand": "right"
      },
      {
        "midi": 55,
        "time": 109.35,
        "duration": 0.3,
        "velocity": 0.71,
        "hand": "left"
      },
      {
        "midi": 61,
        "time": 109.5,
        "duration": 0.45,
        "velocity": 0.84,
        "hand": "right"
      },
      {
        "midi": 48,
        "time": 109.65,
        "duration": 0.3,
        "velocity": 0.71,
        "hand": "left"
      },
      {
        "midi": 41,
        "time": 109.95,
        "duration": 0.3,
        "velocity": 0.71,
        "hand": "left"
      },
      {
        "midi": 60,
        "time": 109.95,
        "duration": 0.45,
        "velocity": 0.85,
        "hand": "right"
      },
      {
        "midi": 48,
        "time": 110.25,
        "duration": 0.3,
        "velocity": 0.71,
        "hand": "left"
      },
      {
        "midi": 64,
        "time": 110.4,
        "duration": 0.45,
        "velocity": 0.87,
        "hand": "right"
      },
      {
        "midi": 53,
        "time": 110.55,
        "duration": 0.3,
        "velocity": 0.71,
        "hand": "left"
      },
      {
        "midi": 66,
        "time": 110.7,
        "duration": 0.45,
        "velocity": 0.87,
        "hand": "right"
      },
      {
        "midi": 56,
        "time": 110.85,
        "duration": 0.3,
        "velocity": 0.71,
        "hand": "left"
      },
      {
        "midi": 60,
        "time": 111.15,
        "duration": 0.3,
        "velocity": 0.71,
        "hand": "left"
      },
      {
        "midi": 65,
        "time": 111.15,
        "duration": 0.45,
        "velocity": 0.88,
        "hand": "right"
      },
      {
        "midi": 56,
        "time": 111.45,
        "duration": 0.3,
        "velocity": 0.71,
        "hand": "left"
      },
      {
        "midi": 77,
        "time": 111.6,
        "duration": 0.45,
        "velocity": 0.89,
        "hand": "right"
      },
      {
        "midi": 53,
        "time": 111.75,
        "duration": 0.3,
        "velocity": 0.71,
        "hand": "left"
      },
      {
        "midi": 71,
        "time": 111.9,
        "duration": 0.45,
        "velocity": 0.91,
        "hand": "right"
      },
      {
        "midi": 48,
        "time": 112.05,
        "duration": 0.3,
        "velocity": 0.71,
        "hand": "left"
      },
      {
        "midi": 40,
        "time": 112.35,
        "duration": 0.3,
        "velocity": 0.71,
        "hand": "left"
      },
      {
        "midi": 72,
        "time": 112.35,
        "duration": 0.45,
        "velocity": 0.91,
        "hand": "right"
      },
      {
        "midi": 48,
        "time": 112.65,
        "duration": 0.3,
        "velocity": 0.71,
        "hand": "left"
      },
      {
        "midi": 75,
        "time": 112.8,
        "duration": 0.45,
        "velocity": 0.92,
        "hand": "right"
      },
      {
        "midi": 55,
        "time": 112.95,
        "duration": 0.3,
        "velocity": 0.71,
        "hand": "left"
      },
      {
        "midi": 73,
        "time": 113.1,
        "duration": 0.45,
        "velocity": 0.93,
        "hand": "right"
      },
      {
        "midi": 58,
        "time": 113.25,
        "duration": 0.3,
        "velocity": 0.71,
        "hand": "left"
      },
      {
        "midi": 60,
        "time": 113.55,
        "duration": 0.3,
        "velocity": 0.71,
        "hand": "left"
      },
      {
        "midi": 72,
        "time": 113.55,
        "duration": 0.45,
        "velocity": 0.94,
        "hand": "right"
      },
      {
        "midi": 58,
        "time": 113.85,
        "duration": 0.3,
        "velocity": 0.71,
        "hand": "left"
      },
      {
        "midi": 67,
        "time": 114,
        "duration": 0.45,
        "velocity": 0.95,
        "hand": "right"
      },
      {
        "midi": 55,
        "time": 114.15,
        "duration": 0.3,
        "velocity": 0.71,
        "hand": "left"
      },
      {
        "midi": 70,
        "time": 114.3,
        "duration": 0.45,
        "velocity": 0.96,
        "hand": "right"
      },
      {
        "midi": 48,
        "time": 114.45,
        "duration": 0.3,
        "velocity": 0.71,
        "hand": "left"
      },
      {
        "midi": 41,
        "time": 114.75,
        "duration": 0.3,
        "velocity": 0.71,
        "hand": "left"
      },
      {
        "midi": 69,
        "time": 114.75,
        "duration": 0.45,
        "velocity": 0.97,
        "hand": "right"
      },
      {
        "midi": 48,
        "time": 115.05,
        "duration": 0.3,
        "velocity": 0.71,
        "hand": "left"
      },
      {
        "midi": 64,
        "time": 115.2,
        "duration": 0.45,
        "velocity": 0.5,
        "hand": "right"
      },
      {
        "midi": 51,
        "time": 115.35,
        "duration": 0.3,
        "velocity": 0.71,
        "hand": "left"
      },
      {
        "midi": 65,
        "time": 115.5,
        "duration": 0.45,
        "velocity": 0.5,
        "hand": "right"
      },
      {
        "midi": 57,
        "time": 115.65,
        "duration": 0.3,
        "velocity": 0.71,
        "hand": "left"
      },
      {
        "midi": 60,
        "time": 115.95,
        "duration": 0.3,
        "velocity": 0.71,
        "hand": "left"
      },
      {
        "midi": 66,
        "time": 115.95,
        "duration": 0.45,
        "velocity": 0.5,
        "hand": "right"
      },
      {
        "midi": 57,
        "time": 116.25,
        "duration": 0.3,
        "velocity": 0.71,
        "hand": "left"
      },
      {
        "midi": 63,
        "time": 116.4,
        "duration": 0.45,
        "velocity": 0.5,
        "hand": "right"
      },
      {
        "midi": 51,
        "time": 116.55,
        "duration": 0.3,
        "velocity": 0.71,
        "hand": "left"
      },
      {
        "midi": 70,
        "time": 116.7,
        "duration": 0.45,
        "velocity": 0.5,
        "hand": "right"
      },
      {
        "midi": 48,
        "time": 116.85,
        "duration": 0.3,
        "velocity": 0.71,
        "hand": "left"
      },
      {
        "midi": 41,
        "time": 117.15,
        "duration": 0.3,
        "velocity": 0.71,
        "hand": "left"
      },
      {
        "midi": 69,
        "time": 117.15,
        "duration": 0.45,
        "velocity": 0.5,
        "hand": "right"
      },
      {
        "midi": 48,
        "time": 117.45,
        "duration": 0.3,
        "velocity": 0.71,
        "hand": "left"
      },
      {
        "midi": 64,
        "time": 117.6,
        "duration": 0.45,
        "velocity": 0.5,
        "hand": "right"
      },
      {
        "midi": 51,
        "time": 117.75,
        "duration": 0.3,
        "velocity": 0.71,
        "hand": "left"
      },
      {
        "midi": 65,
        "time": 117.9,
        "duration": 0.45,
        "velocity": 0.5,
        "hand": "right"
      },
      {
        "midi": 57,
        "time": 118.05,
        "duration": 0.3,
        "velocity": 0.71,
        "hand": "left"
      },
      {
        "midi": 60,
        "time": 118.35,
        "duration": 0.3,
        "velocity": 0.71,
        "hand": "left"
      },
      {
        "midi": 66,
        "time": 118.35,
        "duration": 0.45,
        "velocity": 0.5,
        "hand": "right"
      },
      {
        "midi": 57,
        "time": 118.65,
        "duration": 0.3,
        "velocity": 0.71,
        "hand": "left"
      },
      {
        "midi": 63,
        "time": 118.8,
        "duration": 0.45,
        "velocity": 0.5,
        "hand": "right"
      },
      {
        "midi": 51,
        "time": 118.95,
        "duration": 0.3,
        "velocity": 0.71,
        "hand": "left"
      },
      {
        "midi": 72,
        "time": 119.1,
        "duration": 0.45,
        "velocity": 0.5,
        "hand": "right"
      },
      {
        "midi": 48,
        "time": 119.25,
        "duration": 0.3,
        "velocity": 0.71,
        "hand": "left"
      },
      {
        "midi": 41,
        "time": 119.55,
        "duration": 0.3,
        "velocity": 0.71,
        "hand": "left"
      },
      {
        "midi": 71,
        "time": 119.55,
        "duration": 0.45,
        "velocity": 0.5,
        "hand": "right"
      },
      {
        "midi": 50,
        "time": 119.85,
        "duration": 0.3,
        "velocity": 0.71,
        "hand": "left"
      },
      {
        "midi": 66,
        "time": 120,
        "duration": 0.45,
        "velocity": 0.75,
        "hand": "right"
      },
      {
        "midi": 55,
        "time": 120.15,
        "duration": 0.3,
        "velocity": 0.71,
        "hand": "left"
      },
      {
        "midi": 67,
        "time": 120.3,
        "duration": 0.45,
        "velocity": 0.75,
        "hand": "right"
      },
      {
        "midi": 59,
        "time": 120.45,
        "duration": 0.3,
        "velocity": 0.71,
        "hand": "left"
      },
      {
        "midi": 62,
        "time": 120.75,
        "duration": 0.3,
        "velocity": 0.71,
        "hand": "left"
      },
      {
        "midi": 68,
        "time": 120.75,
        "duration": 0.45,
        "velocity": 0.77,
        "hand": "right"
      },
      {
        "midi": 59,
        "time": 121.05,
        "duration": 0.3,
        "velocity": 0.71,
        "hand": "left"
      },
      {
        "midi": 65,
        "time": 121.2,
        "duration": 0.45,
        "velocity": 0.8,
        "hand": "right"
      },
      {
        "midi": 55,
        "time": 121.35,
        "duration": 0.3,
        "velocity": 0.71,
        "hand": "left"
      },
      {
        "midi": 72,
        "time": 121.5,
        "duration": 0.45,
        "velocity": 0.82,
        "hand": "right"
      },
      {
        "midi": 50,
        "time": 121.65,
        "duration": 0.3,
        "velocity": 0.71,
        "hand": "left"
      },
      {
        "midi": 41,
        "time": 121.95,
        "duration": 0.3,
        "velocity": 0.71,
        "hand": "left"
      },
      {
        "midi": 71,
        "time": 121.95,
        "duration": 0.45,
        "velocity": 0.84,
        "hand": "right"
      },
      {
        "midi": 50,
        "time": 122.25,
        "duration": 0.3,
        "velocity": 0.71,
        "hand": "left"
      },
      {
        "midi": 66,
        "time": 122.4,
        "duration": 0.45,
        "velocity": 0.87,
        "hand": "right"
      },
      {
        "midi": 53,
        "time": 122.55,
        "duration": 0.3,
        "velocity": 0.71,
        "hand": "left"
      },
      {
        "midi": 67,
        "time": 122.7,
        "duration": 0.45,
        "velocity": 0.9,
        "hand": "right"
      },
      {
        "midi": 55,
        "time": 122.85,
        "duration": 0.3,
        "velocity": 0.71,
        "hand": "left"
      },
      {
        "midi": 59,
        "time": 123.15,
        "duration": 0.3,
        "velocity": 0.71,
        "hand": "left"
      },
      {
        "midi": 68,
        "time": 123.15,
        "duration": 0.45,
        "velocity": 0.92,
        "hand": "right"
      },
      {
        "midi": 55,
        "time": 123.45,
        "duration": 0.3,
        "velocity": 0.71,
        "hand": "left"
      },
      {
        "midi": 65,
        "time": 123.6,
        "duration": 0.45,
        "velocity": 0.94,
        "hand": "right"
      },
      {
        "midi": 53,
        "time": 123.75,
        "duration": 0.3,
        "velocity": 0.71,
        "hand": "left"
      },
      {
        "midi": 80,
        "time": 123.9,
        "duration": 0.45,
        "velocity": 0.97,
        "hand": "right"
      },
      {
        "midi": 50,
        "time": 124.05,
        "duration": 0.3,
        "velocity": 0.71,
        "hand": "left"
      },
      {
        "midi": 41,
        "time": 124.35,
        "duration": 0.3,
        "velocity": 0.71,
        "hand": "left"
      },
      {
        "midi": 79,
        "time": 124.35,
        "duration": 0.45,
        "velocity": 0.97,
        "hand": "right"
      },
      {
        "midi": 49,
        "time": 124.65,
        "duration": 0.3,
        "velocity": 0.71,
        "hand": "left"
      },
      {
        "midi": 77,
        "time": 124.8,
        "duration": 0.45,
        "velocity": 0.95,
        "hand": "right"
      },
      {
        "midi": 53,
        "time": 124.95,
        "duration": 0.3,
        "velocity": 0.71,
        "hand": "left"
      },
      {
        "midi": 76,
        "time": 125.1,
        "duration": 0.45,
        "velocity": 0.93,
        "hand": "right"
      },
      {
        "midi": 58,
        "time": 125.25,
        "duration": 0.3,
        "velocity": 0.71,
        "hand": "left"
      },
      {
        "midi": 61,
        "time": 125.55,
        "duration": 0.3,
        "velocity": 0.71,
        "hand": "left"
      },
      {
        "midi": 77,
        "time": 125.55,
        "duration": 0.45,
        "velocity": 0.91,
        "hand": "right"
      },
      {
        "midi": 58,
        "time": 125.85,
        "duration": 0.3,
        "velocity": 0.71,
        "hand": "left"
      },
      {
        "midi": 75,
        "time": 126,
        "duration": 0.45,
        "velocity": 0.89,
        "hand": "right"
      },
      {
        "midi": 53,
        "time": 126.15,
        "duration": 0.3,
        "velocity": 0.71,
        "hand": "left"
      },
      {
        "midi": 73,
        "time": 126.3,
        "duration": 0.45,
        "velocity": 0.87,
        "hand": "right"
      },
      {
        "midi": 49,
        "time": 126.45,
        "duration": 0.3,
        "velocity": 0.71,
        "hand": "left"
      },
      {
        "midi": 41,
        "time": 126.75,
        "duration": 0.3,
        "velocity": 0.71,
        "hand": "left"
      },
      {
        "midi": 75,
        "time": 126.75,
        "duration": 0.45,
        "velocity": 0.85,
        "hand": "right"
      },
      {
        "midi": 49,
        "time": 127.05,
        "duration": 0.3,
        "velocity": 0.71,
        "hand": "left"
      },
      {
        "midi": 73,
        "time": 127.2,
        "duration": 0.45,
        "velocity": 0.83,
        "hand": "right"
      },
      {
        "midi": 53,
        "time": 127.35,
        "duration": 0.3,
        "velocity": 0.71,
        "hand": "left"
      },
      {
        "midi": 72,
        "time": 127.5,
        "duration": 0.45,
        "velocity": 0.81,
        "hand": "right"
      },
      {
        "midi": 58,
        "time": 127.65,
        "duration": 0.3,
        "velocity": 0.71,
        "hand": "left"
      },
      {
        "midi": 61,
        "time": 127.95,
        "duration": 0.3,
        "velocity": 0.71,
        "hand": "left"
      },
      {
        "midi": 70,
        "time": 127.95,
        "duration": 0.45,
        "velocity": 0.79,
        "hand": "right"
      },
      {
        "midi": 58,
        "time": 128.25,
        "duration": 0.3,
        "velocity": 0.71,
        "hand": "left"
      },
      {
        "midi": 68,
        "time": 128.4,
        "duration": 0.45,
        "velocity": 0.76,
        "hand": "right"
      },
      {
        "midi": 53,
        "time": 128.55,
        "duration": 0.3,
        "velocity": 0.71,
        "hand": "left"
      },
      {
        "midi": 66,
        "time": 128.7,
        "duration": 0.45,
        "velocity": 0.75,
        "hand": "right"
      },
      {
        "midi": 49,
        "time": 128.85,
        "duration": 0.3,
        "velocity": 0.71,
        "hand": "left"
      },
      {
        "midi": 41,
        "time": 129.15,
        "duration": 0.3,
        "velocity": 0.71,
        "hand": "left"
      },
      {
        "midi": 65,
        "time": 129.15,
        "duration": 0.45,
        "velocity": 0.75,
        "hand": "right"
      },
      {
        "midi": 48,
        "time": 129.45,
        "duration": 0.3,
        "velocity": 0.71,
        "hand": "left"
      },
      {
        "midi": 64,
        "time": 129.6,
        "duration": 0.45,
        "velocity": 0.72,
        "hand": "right"
      },
      {
        "midi": 55,
        "time": 129.75,
        "duration": 0.3,
        "velocity": 0.71,
        "hand": "left"
      },
      {
        "midi": 71,
        "time": 129.9,
        "duration": 0.45,
        "velocity": 0.71,
        "hand": "right"
      },
      {
        "midi": 58,
        "time": 130.05,
        "duration": 0.3,
        "velocity": 0.71,
        "hand": "left"
      },
      {
        "midi": 60,
        "time": 130.35,
        "duration": 0.3,
        "velocity": 0.71,
        "hand": "left"
      },
      {
        "midi": 73,
        "time": 130.35,
        "duration": 0.45,
        "velocity": 0.69,
        "hand": "right"
      },
      {
        "midi": 58,
        "time": 130.65,
        "duration": 0.3,
        "velocity": 0.71,
        "hand": "left"
      },
      {
        "midi": 72,
        "time": 130.8,
        "duration": 0.45,
        "velocity": 0.66,
        "hand": "right"
      },
      {
        "midi": 55,
        "time": 130.95,
        "duration": 0.3,
        "velocity": 0.71,
        "hand": "left"
      },
      {
        "midi": 74,
        "time": 131.1,
        "duration": 0.45,
        "velocity": 0.65,
        "hand": "right"
      },
      {
        "midi": 48,
        "time": 131.25,
        "duration": 0.3,
        "velocity": 0.71,
        "hand": "left"
      },
      {
        "midi": 41,
        "time": 131.55,
        "duration": 0.3,
        "velocity": 0.71,
        "hand": "left"
      },
      {
        "midi": 77,
        "time": 131.55,
        "duration": 0.45,
        "velocity": 0.62,
        "hand": "right"
      },
      {
        "midi": 48,
        "time": 131.85,
        "duration": 0.3,
        "velocity": 0.71,
        "hand": "left"
      },
      {
        "midi": 76,
        "time": 132,
        "duration": 0.45,
        "velocity": 0.61,
        "hand": "right"
      },
      {
        "midi": 55,
        "time": 132.15,
        "duration": 0.3,
        "velocity": 0.71,
        "hand": "left"
      },
      {
        "midi": 77,
        "time": 132.3,
        "duration": 0.45,
        "velocity": 0.58,
        "hand": "right"
      },
      {
        "midi": 58,
        "time": 132.45,
        "duration": 0.3,
        "velocity": 0.71,
        "hand": "left"
      },
      {
        "midi": 60,
        "time": 132.75,
        "duration": 0.3,
        "velocity": 0.71,
        "hand": "left"
      },
      {
        "midi": 80,
        "time": 132.75,
        "duration": 0.45,
        "velocity": 0.56,
        "hand": "right"
      },
      {
        "midi": 58,
        "time": 133.05,
        "duration": 0.3,
        "velocity": 0.71,
        "hand": "left"
      },
      {
        "midi": 79,
        "time": 133.2,
        "duration": 0.45,
        "velocity": 0.54,
        "hand": "right"
      },
      {
        "midi": 55,
        "time": 133.35,
        "duration": 0.3,
        "velocity": 0.71,
        "hand": "left"
      },
      {
        "midi": 80,
        "time": 133.5,
        "duration": 0.45,
        "velocity": 0.52,
        "hand": "right"
      },
      {
        "midi": 48,
        "time": 133.65,
        "duration": 0.3,
        "velocity": 0.71,
        "hand": "left"
      },
      {
        "midi": 41,
        "time": 133.95,
        "duration": 0.3,
        "velocity": 0.71,
        "hand": "left"
      },
      {
        "midi": 77,
        "time": 133.95,
        "duration": 2.4,
        "velocity": 0.54,
        "hand": "right"
      },
      {
        "midi": 48,
        "time": 134.25,
        "duration": 0.3,
        "velocity": 0.71,
        "hand": "left"
      },
      {
        "midi": 53,
        "time": 134.55,
        "duration": 0.3,
        "velocity": 0.71,
        "hand": "left"
      },
      {
        "midi": 56,
        "time": 134.85,
        "duration": 0.3,
        "velocity": 0.71,
        "hand": "left"
      },
      {
        "midi": 60,
        "time": 135.15,
        "duration": 0.285,
        "velocity": 0.71,
        "hand": "left"
      },
      {
        "midi": 65,
        "time": 135.15,
        "duration": 0.3,
        "velocity": 0.71,
        "hand": "right"
      },
      {
        "midi": 56,
        "time": 135.45,
        "duration": 0.3,
        "velocity": 0.71,
        "hand": "left"
      },
      {
        "midi": 60,
        "time": 135.45,
        "duration": 0.3,
        "velocity": 0.71,
        "hand": "right"
      },
      {
        "midi": 53,
        "time": 135.75,
        "duration": 0.285,
        "velocity": 0.71,
        "hand": "left"
      },
      {
        "midi": 57,
        "time": 135.75,
        "duration": 0.3,
        "velocity": 0.71,
        "hand": "left"
      },
      {
        "midi": 48,
        "time": 136.05,
        "duration": 0.3,
        "velocity": 0.71,
        "hand": "left"
      },
      {
        "midi": 53,
        "time": 136.05,
        "duration": 0.3,
        "velocity": 0.71,
        "hand": "left"
      },
      {
        "midi": 41,
        "time": 136.35,
        "duration": 0.3,
        "velocity": 0.71,
        "hand": "left"
      },
      {
        "midi": 75,
        "time": 136.35,
        "duration": 0.45,
        "velocity": 0.49,
        "hand": "right"
      },
      {
        "midi": 48,
        "time": 136.65,
        "duration": 0.3,
        "velocity": 0.71,
        "hand": "left"
      },
      {
        "midi": 77,
        "time": 136.8,
        "duration": 0.45,
        "velocity": 0.49,
        "hand": "right"
      },
      {
        "midi": 53,
        "time": 136.95,
        "duration": 0.3,
        "velocity": 0.71,
        "hand": "left"
      },
      {
        "midi": 75,
        "time": 137.1,
        "duration": 0.45,
        "velocity": 0.49,
        "hand": "right"
      },
      {
        "midi": 56,
        "time": 137.25,
        "duration": 0.3,
        "velocity": 0.71,
        "hand": "left"
      },
      {
        "midi": 60,
        "time": 137.55,
        "duration": 0.285,
        "velocity": 0.71,
        "hand": "left"
      },
      {
        "midi": 64,
        "time": 137.55,
        "duration": 0.3,
        "velocity": 0.71,
        "hand": "right"
      },
      {
        "midi": 77,
        "time": 137.55,
        "duration": 0.45,
        "velocity": 0.49,
        "hand": "right"
      },
      {
        "midi": 56,
        "time": 137.85,
        "duration": 0.3,
        "velocity": 0.71,
        "hand": "left"
      },
      {
        "midi": 60,
        "time": 137.85,
        "duration": 0.3,
        "velocity": 0.71,
        "hand": "right"
      },
      {
        "midi": 75,
        "time": 138,
        "duration": 0.45,
        "velocity": 0.49,
        "hand": "right"
      },
      {
        "midi": 53,
        "time": 138.15,
        "duration": 0.285,
        "velocity": 0.71,
        "hand": "left"
      },
      {
        "midi": 57,
        "time": 138.15,
        "duration": 0.3,
        "velocity": 0.71,
        "hand": "left"
      },
      {
        "midi": 77,
        "time": 138.3,
        "duration": 0.45,
        "velocity": 0.49,
        "hand": "right"
      },
      {
        "midi": 48,
        "time": 138.45,
        "duration": 0.3,
        "velocity": 0.71,
        "hand": "left"
      },
      {
        "midi": 53,
        "time": 138.45,
        "duration": 0.3,
        "velocity": 0.71,
        "hand": "left"
      },
      {
        "midi": 41,
        "time": 138.75,
        "duration": 0.3,
        "velocity": 0.71,
        "hand": "left"
      },
      {
        "midi": 73,
        "time": 138.75,
        "duration": 0.45,
        "velocity": 0.49,
        "hand": "right"
      },
      {
        "midi": 49,
        "time": 139.05,
        "duration": 0.3,
        "velocity": 0.71,
        "hand": "left"
      },
      {
        "midi": 75,
        "time": 139.2,
        "duration": 0.45,
        "velocity": 0.49,
        "hand": "right"
      },
      {
        "midi": 53,
        "time": 139.35,
        "duration": 0.3,
        "velocity": 0.71,
        "hand": "left"
      },
      {
        "midi": 73,
        "time": 139.5,
        "duration": 0.45,
        "velocity": 0.54,
        "hand": "right"
      },
      {
        "midi": 56,
        "time": 139.65,
        "duration": 0.3,
        "velocity": 0.71,
        "hand": "left"
      },
      {
        "midi": 61,
        "time": 139.95,
        "duration": 0.3,
        "velocity": 0.71,
        "hand": "left"
      },
      {
        "midi": 75,
        "time": 139.95,
        "duration": 0.45,
        "velocity": 0.6,
        "hand": "right"
      },
      {
        "midi": 56,
        "time": 140.25,
        "duration": 0.3,
        "velocity": 0.71,
        "hand": "left"
      },
      {
        "midi": 73,
        "time": 140.4,
        "duration": 0.45,
        "velocity": 0.65,
        "hand": "right"
      },
      {
        "midi": 53,
        "time": 140.55,
        "duration": 0.3,
        "velocity": 0.71,
        "hand": "left"
      },
      {
        "midi": 75,
        "time": 140.7,
        "duration": 0.45,
        "velocity": 0.71,
        "hand": "right"
      },
      {
        "midi": 49,
        "time": 140.85,
        "duration": 0.3,
        "velocity": 0.71,
        "hand": "left"
      },
      {
        "midi": 41,
        "time": 141.15,
        "duration": 0.3,
        "velocity": 0.71,
        "hand": "left"
      },
      {
        "midi": 71,
        "time": 141.15,
        "duration": 0.45,
        "velocity": 0.71,
        "hand": "right"
      },
      {
        "midi": 49,
        "time": 141.45,
        "duration": 0.3,
        "velocity": 0.71,
        "hand": "left"
      },
      {
        "midi": 73,
        "time": 141.6,
        "duration": 0.45,
        "velocity": 0.76,
        "hand": "right"
      },
      {
        "midi": 53,
        "time": 141.75,
        "duration": 0.3,
        "velocity": 0.71,
        "hand": "left"
      },
      {
        "midi": 71,
        "time": 141.9,
        "duration": 0.45,
        "velocity": 0.8,
        "hand": "right"
      },
      {
        "midi": 56,
        "time": 142.05,
        "duration": 0.3,
        "velocity": 0.71,
        "hand": "left"
      },
      {
        "midi": 61,
        "time": 142.35,
        "duration": 0.3,
        "velocity": 0.71,
        "hand": "left"
      },
      {
        "midi": 73,
        "time": 142.35,
        "duration": 0.45,
        "velocity": 0.84,
        "hand": "right"
      },
      {
        "midi": 56,
        "time": 142.65,
        "duration": 0.3,
        "velocity": 0.71,
        "hand": "left"
      },
      {
        "midi": 71,
        "time": 142.8,
        "duration": 0.45,
        "velocity": 0.89,
        "hand": "right"
      },
      {
        "midi": 53,
        "time": 142.95,
        "duration": 0.3,
        "velocity": 0.71,
        "hand": "left"
      },
      {
        "midi": 73,
        "time": 143.1,
        "duration": 0.45,
        "velocity": 0.94,
        "hand": "right"
      },
      {
        "midi": 49,
        "time": 143.25,
        "duration": 0.3,
        "velocity": 0.71,
        "hand": "left"
      },
      {
        "midi": 42,
        "time": 143.55,
        "duration": 0.3,
        "velocity": 0.71,
        "hand": "left"
      },
      {
        "midi": 70,
        "time": 143.55,
        "duration": 0.45,
        "velocity": 0.94,
        "hand": "right"
      },
      {
        "midi": 49,
        "time": 143.85,
        "duration": 0.3,
        "velocity": 0.71,
        "hand": "left"
      },
      {
        "midi": 72,
        "time": 144,
        "duration": 0.45,
        "velocity": 0.89,
        "hand": "right"
      },
      {
        "midi": 54,
        "time": 144.15,
        "duration": 0.3,
        "velocity": 0.71,
        "hand": "left"
      },
      {
        "midi": 70,
        "time": 144.3,
        "duration": 0.45,
        "velocity": 0.84,
        "hand": "right"
      },
      {
        "midi": 58,
        "time": 144.45,
        "duration": 0.3,
        "velocity": 0.71,
        "hand": "left"
      },
      {
        "midi": 61,
        "time": 144.75,
        "duration": 0.3,
        "velocity": 0.71,
        "hand": "left"
      },
      {
        "midi": 72,
        "time": 144.75,
        "duration": 0.45,
        "velocity": 0.8,
        "hand": "right"
      },
      {
        "midi": 58,
        "time": 145.05,
        "duration": 0.3,
        "velocity": 0.71,
        "hand": "left"
      },
      {
        "midi": 70,
        "time": 145.2,
        "duration": 0.45,
        "velocity": 0.76,
        "hand": "right"
      },
      {
        "midi": 54,
        "time": 145.35,
        "duration": 0.3,
        "velocity": 0.71,
        "hand": "left"
      },
      {
        "midi": 72,
        "time": 145.5,
        "duration": 0.45,
        "velocity": 0.71,
        "hand": "right"
      },
      {
        "midi": 49,
        "time": 145.65,
        "duration": 0.3,
        "velocity": 0.71,
        "hand": "left"
      },
      {
        "midi": 43,
        "time": 145.95,
        "duration": 0.3,
        "velocity": 0.71,
        "hand": "left"
      },
      {
        "midi": 70,
        "time": 145.95,
        "duration": 0.45,
        "velocity": 0.71,
        "hand": "right"
      },
      {
        "midi": 48,
        "time": 146.25,
        "duration": 0.3,
        "velocity": 0.71,
        "hand": "left"
      },
      {
        "midi": 72,
        "time": 146.4,
        "duration": 0.45,
        "velocity": 0.7,
        "hand": "right"
      },
      {
        "midi": 52,
        "time": 146.55,
        "duration": 0.3,
        "velocity": 0.71,
        "hand": "left"
      },
      {
        "midi": 70,
        "time": 146.7,
        "duration": 0.45,
        "velocity": 0.69,
        "hand": "right"
      },
      {
        "midi": 58,
        "time": 146.85,
        "duration": 0.3,
        "velocity": 0.71,
        "hand": "left"
      },
      {
        "midi": 72,
        "time": 147.15,
        "duration": 0.45,
        "velocity": 0.68,
        "hand": "right"
      },
      {
        "midi": 70,
        "time": 147.6,
        "duration": 0.45,
        "velocity": 0.67,
        "hand": "right"
      },
      {
        "midi": 65,
        "time": 147.9,
        "duration": 0.45,
        "velocity": 0.66,
        "hand": "right"
      },
      {
        "midi": 67,
        "time": 148.35,
        "duration": 0.45,
        "velocity": 0.65,
        "hand": "right"
      },
      {
        "midi": 68,
        "time": 148.8,
        "duration": 0.45,
        "velocity": 0.64,
        "hand": "right"
      },
      {
        "midi": 67,
        "time": 149.1,
        "duration": 0.45,
        "velocity": 0.62,
        "hand": "right"
      },
      {
        "midi": 68,
        "time": 149.55,
        "duration": 0.45,
        "velocity": 0.61,
        "hand": "right"
      },
      {
        "midi": 67,
        "time": 150,
        "duration": 0.45,
        "velocity": 0.61,
        "hand": "right"
      },
      {
        "midi": 58,
        "time": 150.3,
        "duration": 0.45,
        "velocity": 0.59,
        "hand": "right"
      },
      {
        "midi": 61,
        "time": 150.75,
        "duration": 1.2,
        "velocity": 0.58,
        "hand": "right"
      },
      {
        "midi": 36,
        "time": 151.95,
        "duration": 1.2,
        "velocity": 0.71,
        "hand": "left"
      },
      {
        "midi": 48,
        "time": 151.95,
        "duration": 1.2,
        "velocity": 0.71,
        "hand": "left"
      },
      {
        "midi": 55,
        "time": 151.95,
        "duration": 1.2,
        "velocity": 0.55,
        "hand": "right"
      },
      {
        "midi": 60,
        "time": 151.95,
        "duration": 1.185,
        "velocity": 0.55,
        "hand": "right"
      },
      {
        "midi": 64,
        "time": 151.95,
        "duration": 1.2,
        "velocity": 0.55,
        "hand": "right"
      },
      {
        "midi": 41,
        "time": 153.15,
        "duration": 1.2,
        "velocity": 0.71,
        "hand": "left"
      },
      {
        "midi": 56,
        "time": 153.15,
        "duration": 1.2,
        "velocity": 0.52,
        "hand": "right"
      },
      {
        "midi": 60,
        "time": 153.15,
        "duration": 1.2,
        "velocity": 0.52,
        "hand": "right"
      },
      {
        "midi": 65,
        "time": 153.15,
        "duration": 1.2,
        "velocity": 0.52,
        "hand": "right"
      },
      {
        "midi": 41,
        "time": 155.55,
        "duration": 1.185,
        "velocity": 0.71,
        "hand": "left"
      },
      {
        "midi": 48,
        "time": 155.55,
        "duration": 1.185,
        "velocity": 0.71,
        "hand": "left"
      },
      {
        "midi": 53,
        "time": 155.55,
        "duration": 1.185,
        "velocity": 0.49,
        "hand": "right"
      },
      {
        "midi": 56,
        "time": 155.55,
        "duration": 1.185,
        "velocity": 0.49,
        "hand": "right"
      },
      {
        "midi": 41,
        "time": 156.75,
        "duration": 1.185,
        "velocity": 0.71,
        "hand": "left"
      },
      {
        "midi": 48,
        "time": 156.75,
        "duration": 1.185,
        "velocity": 0.71,
        "hand": "left"
      },
      {
        "midi": 53,
        "time": 156.75,
        "duration": 1.185,
        "velocity": 0.49,
        "hand": "right"
      },
      {
        "midi": 56,
        "time": 156.75,
        "duration": 1.185,
        "velocity": 0.49,
        "hand": "right"
      },
      {
        "midi": 41,
        "time": 157.95,
        "duration": 2.4,
        "velocity": 0.71,
        "hand": "left"
      },
      {
        "midi": 48,
        "time": 157.95,
        "duration": 2.4,
        "velocity": 0.71,
        "hand": "left"
      },
      {
        "midi": 53,
        "time": 157.95,
        "duration": 2.4,
        "velocity": 0.49,
        "hand": "right"
      },
      {
        "midi": 56,
        "time": 157.95,
        "duration": 2.4,
        "velocity": 0.49,
        "hand": "right"
      }
    ]
  },
  "notes1Hand": [
    {
      "midi": 59,
      "time": 0,
      "duration": 0.4,
      "velocity": 0.54,
      "hand": "right"
    },
    {
      "midi": 61,
      "time": 0.8,
      "duration": 0.4,
      "velocity": 0.54,
      "hand": "right"
    },
    {
      "midi": 65,
      "time": 1.6,
      "duration": 0.4,
      "velocity": 0.54,
      "hand": "right"
    },
    {
      "midi": 59,
      "time": 2.4,
      "duration": 0.4,
      "velocity": 0.54,
      "hand": "right"
    },
    {
      "midi": 61,
      "time": 3.2,
      "duration": 0.4,
      "velocity": 0.54,
      "hand": "right"
    },
    {
      "midi": 65,
      "time": 4,
      "duration": 0.4,
      "velocity": 0.54,
      "hand": "right"
    },
    {
      "midi": 59,
      "time": 4.8,
      "duration": 0.4,
      "velocity": 0.54,
      "hand": "right"
    },
    {
      "midi": 61,
      "time": 5.6,
      "duration": 0.4,
      "velocity": 0.64,
      "hand": "right"
    },
    {
      "midi": 62,
      "time": 6.4,
      "duration": 0.4,
      "velocity": 0.72,
      "hand": "right"
    },
    {
      "midi": 64,
      "time": 7.2,
      "duration": 0.4,
      "velocity": 0.77,
      "hand": "right"
    },
    {
      "midi": 68,
      "time": 8,
      "duration": 0.4,
      "velocity": 0.77,
      "hand": "right"
    },
    {
      "midi": 68,
      "time": 8.8,
      "duration": 0.4,
      "velocity": 0.62,
      "hand": "right"
    },
    {
      "midi": 60,
      "time": 9.5,
      "duration": 0.3,
      "velocity": 0.71,
      "hand": "right"
    },
    {
      "midi": 56,
      "time": 10.1,
      "duration": 0.3,
      "velocity": 0.71,
      "hand": "right"
    },
    {
      "midi": 56,
      "time": 10.7,
      "duration": 0.3,
      "velocity": 0.71,
      "hand": "right"
    },
    {
      "midi": 60,
      "time": 11.3,
      "duration": 0.3,
      "velocity": 0.71,
      "hand": "right"
    },
    {
      "midi": 60,
      "time": 11.9,
      "duration": 0.3,
      "velocity": 0.71,
      "hand": "right"
    },
    {
      "midi": 56,
      "time": 12.5,
      "duration": 0.3,
      "velocity": 0.71,
      "hand": "right"
    },
    {
      "midi": 56,
      "time": 13.1,
      "duration": 0.3,
      "velocity": 0.71,
      "hand": "right"
    },
    {
      "midi": 60,
      "time": 13.7,
      "duration": 0.3,
      "velocity": 0.71,
      "hand": "right"
    },
    {
      "midi": 60,
      "time": 14.3,
      "duration": 0.3,
      "velocity": 0.71,
      "hand": "right"
    },
    {
      "midi": 56,
      "time": 14.9,
      "duration": 0.3,
      "velocity": 0.71,
      "hand": "right"
    },
    {
      "midi": 56,
      "time": 15.5,
      "duration": 0.3,
      "velocity": 0.71,
      "hand": "right"
    },
    {
      "midi": 60,
      "time": 16.1,
      "duration": 0.3,
      "velocity": 0.71,
      "hand": "right"
    },
    {
      "midi": 60,
      "time": 16.7,
      "duration": 0.3,
      "velocity": 0.71,
      "hand": "right"
    },
    {
      "midi": 56,
      "time": 17.3,
      "duration": 0.3,
      "velocity": 0.71,
      "hand": "right"
    },
    {
      "midi": 56,
      "time": 17.9,
      "duration": 0.3,
      "velocity": 0.71,
      "hand": "right"
    },
    {
      "midi": 60,
      "time": 18.5,
      "duration": 0.3,
      "velocity": 0.71,
      "hand": "right"
    },
    {
      "midi": 60,
      "time": 19.2,
      "duration": 0.4,
      "velocity": 0.54,
      "hand": "right"
    },
    {
      "midi": 67,
      "time": 20,
      "duration": 0.4,
      "velocity": 0.54,
      "hand": "right"
    },
    {
      "midi": 65,
      "time": 20.6,
      "duration": 0.3,
      "velocity": 0.71,
      "hand": "right"
    },
    {
      "midi": 72,
      "time": 21.2,
      "duration": 0.4,
      "velocity": 0.54,
      "hand": "right"
    },
    {
      "midi": 55,
      "time": 21.8,
      "duration": 0.3,
      "velocity": 0.71,
      "hand": "right"
    },
    {
      "midi": 72,
      "time": 22.4,
      "duration": 0.4,
      "velocity": 0.68,
      "hand": "right"
    },
    {
      "midi": 55,
      "time": 23,
      "duration": 0.3,
      "velocity": 0.71,
      "hand": "right"
    },
    {
      "midi": 69,
      "time": 23.6,
      "duration": 0.4,
      "velocity": 0.77,
      "hand": "right"
    },
    {
      "midi": 65,
      "time": 24.2,
      "duration": 0.3,
      "velocity": 0.71,
      "hand": "right"
    },
    {
      "midi": 65,
      "time": 24.8,
      "duration": 0.4,
      "velocity": 0.77,
      "hand": "right"
    },
    {
      "midi": 65,
      "time": 25.4,
      "duration": 0.3,
      "velocity": 0.71,
      "hand": "right"
    },
    {
      "midi": 72,
      "time": 26,
      "duration": 0.4,
      "velocity": 0.77,
      "hand": "right"
    },
    {
      "midi": 55,
      "time": 26.6,
      "duration": 0.3,
      "velocity": 0.71,
      "hand": "right"
    },
    {
      "midi": 72,
      "time": 27.2,
      "duration": 0.4,
      "velocity": 0.64,
      "hand": "right"
    },
    {
      "midi": 55,
      "time": 27.8,
      "duration": 0.3,
      "velocity": 0.71,
      "hand": "right"
    },
    {
      "midi": 68,
      "time": 28.4,
      "duration": 0.4,
      "velocity": 0.54,
      "hand": "right"
    },
    {
      "midi": 65,
      "time": 29,
      "duration": 0.3,
      "velocity": 0.71,
      "hand": "right"
    },
    {
      "midi": 69,
      "time": 29.6,
      "duration": 0.4,
      "velocity": 0.54,
      "hand": "right"
    },
    {
      "midi": 65,
      "time": 30.2,
      "duration": 0.3,
      "velocity": 0.71,
      "hand": "right"
    },
    {
      "midi": 73,
      "time": 30.8,
      "duration": 0.4,
      "velocity": 0.56,
      "hand": "right"
    },
    {
      "midi": 58,
      "time": 31.4,
      "duration": 0.3,
      "velocity": 0.71,
      "hand": "right"
    },
    {
      "midi": 75,
      "time": 32,
      "duration": 0.4,
      "velocity": 0.58,
      "hand": "right"
    },
    {
      "midi": 58,
      "time": 32.6,
      "duration": 0.3,
      "velocity": 0.71,
      "hand": "right"
    },
    {
      "midi": 72,
      "time": 33.2,
      "duration": 0.4,
      "velocity": 0.6,
      "hand": "right"
    },
    {
      "midi": 56,
      "time": 33.8,
      "duration": 0.3,
      "velocity": 0.71,
      "hand": "right"
    },
    {
      "midi": 71,
      "time": 34.4,
      "duration": 0.4,
      "velocity": 0.62,
      "hand": "right"
    },
    {
      "midi": 56,
      "time": 35,
      "duration": 0.3,
      "velocity": 0.71,
      "hand": "right"
    },
    {
      "midi": 76,
      "time": 35.6,
      "duration": 0.4,
      "velocity": 0.65,
      "hand": "right"
    },
    {
      "midi": 55,
      "time": 36.2,
      "duration": 0.3,
      "velocity": 0.71,
      "hand": "right"
    },
    {
      "midi": 79,
      "time": 36.8,
      "duration": 0.4,
      "velocity": 0.67,
      "hand": "right"
    },
    {
      "midi": 56,
      "time": 37.4,
      "duration": 0.3,
      "velocity": 0.71,
      "hand": "right"
    },
    {
      "midi": 76,
      "time": 38,
      "duration": 0.4,
      "velocity": 0.69,
      "hand": "right"
    },
    {
      "midi": 58,
      "time": 38.6,
      "duration": 0.3,
      "velocity": 0.71,
      "hand": "right"
    },
    {
      "midi": 73,
      "time": 39.2,
      "duration": 0.4,
      "velocity": 0.71,
      "hand": "right"
    },
    {
      "midi": 58,
      "time": 39.8,
      "duration": 0.3,
      "velocity": 0.71,
      "hand": "right"
    },
    {
      "midi": 76,
      "time": 40.4,
      "duration": 0.4,
      "velocity": 0.73,
      "hand": "right"
    },
    {
      "midi": 58,
      "time": 41,
      "duration": 0.3,
      "velocity": 0.71,
      "hand": "right"
    },
    {
      "midi": 73,
      "time": 41.6,
      "duration": 0.4,
      "velocity": 0.75,
      "hand": "right"
    },
    {
      "midi": 58,
      "time": 42.2,
      "duration": 0.3,
      "velocity": 0.71,
      "hand": "right"
    },
    {
      "midi": 76,
      "time": 42.8,
      "duration": 0.4,
      "velocity": 0.77,
      "hand": "right"
    },
    {
      "midi": 58,
      "time": 43.4,
      "duration": 0.3,
      "velocity": 0.71,
      "hand": "right"
    },
    {
      "midi": 73,
      "time": 44,
      "duration": 0.4,
      "velocity": 0.73,
      "hand": "right"
    },
    {
      "midi": 58,
      "time": 44.6,
      "duration": 0.3,
      "velocity": 0.71,
      "hand": "right"
    },
    {
      "midi": 77,
      "time": 45.2,
      "duration": 0.4,
      "velocity": 0.67,
      "hand": "right"
    },
    {
      "midi": 58,
      "time": 45.8,
      "duration": 0.3,
      "velocity": 0.71,
      "hand": "right"
    },
    {
      "midi": 80,
      "time": 46.4,
      "duration": 0.4,
      "velocity": 0.61,
      "hand": "right"
    },
    {
      "midi": 58,
      "time": 47,
      "duration": 0.3,
      "velocity": 0.71,
      "hand": "right"
    },
    {
      "midi": 77,
      "time": 47.6,
      "duration": 0.6,
      "velocity": 0.54,
      "hand": "right"
    },
    {
      "midi": 65,
      "time": 48.2,
      "duration": 0.3,
      "velocity": 0.71,
      "hand": "right"
    },
    {
      "midi": 65,
      "time": 48.8,
      "duration": 0.3,
      "velocity": 0.71,
      "hand": "right"
    },
    {
      "midi": 56,
      "time": 49.4,
      "duration": 0.3,
      "velocity": 0.71,
      "hand": "right"
    },
    {
      "midi": 75,
      "time": 50,
      "duration": 0.4,
      "velocity": 0.54,
      "hand": "right"
    },
    {
      "midi": 65,
      "time": 50.6,
      "duration": 0.3,
      "velocity": 0.71,
      "hand": "right"
    },
    {
      "midi": 77,
      "time": 51.2,
      "duration": 0.4,
      "velocity": 0.54,
      "hand": "right"
    },
    {
      "midi": 56,
      "time": 51.8,
      "duration": 0.3,
      "velocity": 0.71,
      "hand": "right"
    },
    {
      "midi": 73,
      "time": 52.4,
      "duration": 0.4,
      "velocity": 0.54,
      "hand": "right"
    },
    {
      "midi": 65,
      "time": 53,
      "duration": 0.3,
      "velocity": 0.71,
      "hand": "right"
    },
    {
      "midi": 75,
      "time": 53.6,
      "duration": 0.4,
      "velocity": 0.54,
      "hand": "right"
    },
    {
      "midi": 65,
      "time": 54.2,
      "duration": 0.3,
      "velocity": 0.71,
      "hand": "right"
    },
    {
      "midi": 72,
      "time": 54.8,
      "duration": 0.4,
      "velocity": 0.54,
      "hand": "right"
    },
    {
      "midi": 65,
      "time": 55.4,
      "duration": 0.3,
      "velocity": 0.71,
      "hand": "right"
    },
    {
      "midi": 73,
      "time": 56,
      "duration": 0.4,
      "velocity": 0.64,
      "hand": "right"
    },
    {
      "midi": 65,
      "time": 56.6,
      "duration": 0.3,
      "velocity": 0.71,
      "hand": "right"
    },
    {
      "midi": 71,
      "time": 57.2,
      "duration": 0.4,
      "velocity": 0.77,
      "hand": "right"
    },
    {
      "midi": 65,
      "time": 57.8,
      "duration": 0.3,
      "velocity": 0.71,
      "hand": "right"
    },
    {
      "midi": 68,
      "time": 58.4,
      "duration": 0.4,
      "velocity": 0.77,
      "hand": "right"
    },
    {
      "midi": 65,
      "time": 59,
      "duration": 0.3,
      "velocity": 0.71,
      "hand": "right"
    },
    {
      "midi": 71,
      "time": 59.6,
      "duration": 0.4,
      "velocity": 0.77,
      "hand": "right"
    },
    {
      "midi": 65,
      "time": 60.2,
      "duration": 0.3,
      "velocity": 0.71,
      "hand": "right"
    },
    {
      "midi": 68,
      "time": 60.8,
      "duration": 0.4,
      "velocity": 0.75,
      "hand": "right"
    },
    {
      "midi": 65,
      "time": 61.4,
      "duration": 0.3,
      "velocity": 0.71,
      "hand": "right"
    },
    {
      "midi": 71,
      "time": 62,
      "duration": 0.4,
      "velocity": 0.71,
      "hand": "right"
    },
    {
      "midi": 65,
      "time": 62.6,
      "duration": 0.3,
      "velocity": 0.71,
      "hand": "right"
    },
    {
      "midi": 68,
      "time": 63.2,
      "duration": 0.4,
      "velocity": 0.66,
      "hand": "right"
    },
    {
      "midi": 65,
      "time": 63.8,
      "duration": 0.3,
      "velocity": 0.71,
      "hand": "right"
    },
    {
      "midi": 72,
      "time": 64.4,
      "duration": 0.4,
      "velocity": 0.62,
      "hand": "right"
    },
    {
      "midi": 65,
      "time": 65,
      "duration": 0.3,
      "velocity": 0.71,
      "hand": "right"
    },
    {
      "midi": 75,
      "time": 65.6,
      "duration": 0.4,
      "velocity": 0.58,
      "hand": "right"
    },
    {
      "midi": 65,
      "time": 66.2,
      "duration": 0.3,
      "velocity": 0.71,
      "hand": "right"
    },
    {
      "midi": 72,
      "time": 66.8,
      "duration": 0.6,
      "velocity": 0.54,
      "hand": "right"
    },
    {
      "midi": 60,
      "time": 67.4,
      "duration": 0.3,
      "velocity": 0.71,
      "hand": "right"
    },
    {
      "midi": 60,
      "time": 68,
      "duration": 0.3,
      "velocity": 0.71,
      "hand": "right"
    },
    {
      "midi": 63,
      "time": 68.6,
      "duration": 0.3,
      "velocity": 0.71,
      "hand": "right"
    },
    {
      "midi": 70,
      "time": 69.2,
      "duration": 0.4,
      "velocity": 0.54,
      "hand": "right"
    },
    {
      "midi": 60,
      "time": 69.8,
      "duration": 0.3,
      "velocity": 0.71,
      "hand": "right"
    },
    {
      "midi": 72,
      "time": 70.4,
      "duration": 0.4,
      "velocity": 0.54,
      "hand": "right"
    },
    {
      "midi": 60,
      "time": 71,
      "duration": 0.3,
      "velocity": 0.71,
      "hand": "right"
    },
    {
      "midi": 68,
      "time": 71.6,
      "duration": 0.4,
      "velocity": 0.54,
      "hand": "right"
    },
    {
      "midi": 60,
      "time": 72.2,
      "duration": 0.3,
      "velocity": 0.71,
      "hand": "right"
    },
    {
      "midi": 70,
      "time": 72.8,
      "duration": 0.4,
      "velocity": 0.59,
      "hand": "right"
    },
    {
      "midi": 60,
      "time": 73.4,
      "duration": 0.3,
      "velocity": 0.71,
      "hand": "right"
    },
    {
      "midi": 66,
      "time": 74,
      "duration": 0.4,
      "velocity": 0.65,
      "hand": "right"
    },
    {
      "midi": 60,
      "time": 74.6,
      "duration": 0.3,
      "velocity": 0.71,
      "hand": "right"
    },
    {
      "midi": 68,
      "time": 75.2,
      "duration": 0.4,
      "velocity": 0.71,
      "hand": "right"
    },
    {
      "midi": 60,
      "time": 75.8,
      "duration": 0.3,
      "velocity": 0.71,
      "hand": "right"
    },
    {
      "midi": 65,
      "time": 76.4,
      "duration": 0.4,
      "velocity": 0.77,
      "hand": "right"
    },
    {
      "midi": 61,
      "time": 77,
      "duration": 0.3,
      "velocity": 0.71,
      "hand": "right"
    },
    {
      "midi": 73,
      "time": 77.6,
      "duration": 0.4,
      "velocity": 0.77,
      "hand": "right"
    },
    {
      "midi": 61,
      "time": 78.2,
      "duration": 0.3,
      "velocity": 0.71,
      "hand": "right"
    },
    {
      "midi": 71,
      "time": 78.8,
      "duration": 0.4,
      "velocity": 0.77,
      "hand": "right"
    },
    {
      "midi": 61,
      "time": 79.4,
      "duration": 0.3,
      "velocity": 0.71,
      "hand": "right"
    },
    {
      "midi": 78,
      "time": 80,
      "duration": 0.4,
      "velocity": 0.91,
      "hand": "right"
    },
    {
      "midi": 61,
      "time": 80.6,
      "duration": 0.3,
      "velocity": 0.71,
      "hand": "right"
    },
    {
      "midi": 68,
      "time": 81.2,
      "duration": 0.4,
      "velocity": 1,
      "hand": "right"
    },
    {
      "midi": 61,
      "time": 81.8,
      "duration": 0.3,
      "velocity": 0.71,
      "hand": "right"
    },
    {
      "midi": 75,
      "time": 82.4,
      "duration": 0.4,
      "velocity": 1,
      "hand": "right"
    },
    {
      "midi": 61,
      "time": 83,
      "duration": 0.3,
      "velocity": 0.71,
      "hand": "right"
    },
    {
      "midi": 65,
      "time": 83.6,
      "duration": 0.4,
      "velocity": 1,
      "hand": "right"
    },
    {
      "midi": 61,
      "time": 84.2,
      "duration": 0.3,
      "velocity": 0.71,
      "hand": "right"
    },
    {
      "midi": 71,
      "time": 84.8,
      "duration": 0.4,
      "velocity": 0.92,
      "hand": "right"
    },
    {
      "midi": 61,
      "time": 85.4,
      "duration": 0.3,
      "velocity": 0.71,
      "hand": "right"
    },
    {
      "midi": 58,
      "time": 86,
      "duration": 0.4,
      "velocity": 0.77,
      "hand": "right"
    },
    {
      "midi": 58,
      "time": 86.6,
      "duration": 0.3,
      "velocity": 0.71,
      "hand": "right"
    },
    {
      "midi": 63,
      "time": 87.2,
      "duration": 0.4,
      "velocity": 0.8,
      "hand": "right"
    },
    {
      "midi": 58,
      "time": 87.8,
      "duration": 0.3,
      "velocity": 0.71,
      "hand": "right"
    },
    {
      "midi": 58,
      "time": 88.4,
      "duration": 0.4,
      "velocity": 0.82,
      "hand": "right"
    },
    {
      "midi": 65,
      "time": 89,
      "duration": 0.3,
      "velocity": 0.71,
      "hand": "right"
    },
    {
      "midi": 69,
      "time": 89.6,
      "duration": 0.4,
      "velocity": 0.85,
      "hand": "right"
    },
    {
      "midi": 65,
      "time": 90.2,
      "duration": 0.3,
      "velocity": 0.71,
      "hand": "right"
    },
    {
      "midi": 75,
      "time": 90.8,
      "duration": 0.4,
      "velocity": 0.88,
      "hand": "right"
    },
    {
      "midi": 65,
      "time": 91.4,
      "duration": 0.3,
      "velocity": 0.71,
      "hand": "right"
    },
    {
      "midi": 82,
      "time": 92,
      "duration": 0.4,
      "velocity": 0.91,
      "hand": "right"
    },
    {
      "midi": 65,
      "time": 92.6,
      "duration": 0.3,
      "velocity": 0.71,
      "hand": "right"
    },
    {
      "midi": 77,
      "time": 93.2,
      "duration": 0.4,
      "velocity": 0.94,
      "hand": "right"
    },
    {
      "midi": 65,
      "time": 93.8,
      "duration": 0.3,
      "velocity": 0.71,
      "hand": "right"
    },
    {
      "midi": 70,
      "time": 94.4,
      "duration": 0.4,
      "velocity": 0.98,
      "hand": "right"
    },
    {
      "midi": 65,
      "time": 95,
      "duration": 0.3,
      "velocity": 0.71,
      "hand": "right"
    },
    {
      "midi": 58,
      "time": 95.6,
      "duration": 0.4,
      "velocity": 0.75,
      "hand": "right"
    },
    {
      "midi": 63,
      "time": 96.2,
      "duration": 0.3,
      "velocity": 0.71,
      "hand": "right"
    },
    {
      "midi": 65,
      "time": 96.8,
      "duration": 0.4,
      "velocity": 0.75,
      "hand": "right"
    },
    {
      "midi": 63,
      "time": 97.4,
      "duration": 0.3,
      "velocity": 0.71,
      "hand": "right"
    },
    {
      "midi": 70,
      "time": 98,
      "duration": 0.4,
      "velocity": 0.75,
      "hand": "right"
    },
    {
      "midi": 65,
      "time": 98.6,
      "duration": 0.3,
      "velocity": 0.71,
      "hand": "right"
    },
    {
      "midi": 70,
      "time": 99.2,
      "duration": 0.4,
      "velocity": 0.75,
      "hand": "right"
    },
    {
      "midi": 65,
      "time": 99.8,
      "duration": 0.3,
      "velocity": 0.71,
      "hand": "right"
    },
    {
      "midi": 58,
      "time": 100.4,
      "duration": 0.4,
      "velocity": 0.75,
      "hand": "right"
    },
    {
      "midi": 63,
      "time": 101,
      "duration": 0.3,
      "velocity": 0.71,
      "hand": "right"
    },
    {
      "midi": 63,
      "time": 101.6,
      "duration": 0.4,
      "velocity": 0.75,
      "hand": "right"
    },
    {
      "midi": 63,
      "time": 102.2,
      "duration": 0.3,
      "velocity": 0.71,
      "hand": "right"
    },
    {
      "midi": 70,
      "time": 102.8,
      "duration": 0.4,
      "velocity": 0.75,
      "hand": "right"
    },
    {
      "midi": 65,
      "time": 103.4,
      "duration": 0.3,
      "velocity": 0.71,
      "hand": "right"
    },
    {
      "midi": 71,
      "time": 104,
      "duration": 0.4,
      "velocity": 0.75,
      "hand": "right"
    },
    {
      "midi": 65,
      "time": 104.6,
      "duration": 0.3,
      "velocity": 0.71,
      "hand": "right"
    },
    {
      "midi": 66,
      "time": 105.2,
      "duration": 0.4,
      "velocity": 0.75,
      "hand": "right"
    },
    {
      "midi": 63,
      "time": 105.8,
      "duration": 0.3,
      "velocity": 0.71,
      "hand": "right"
    },
    {
      "midi": 66,
      "time": 106.4,
      "duration": 0.4,
      "velocity": 0.76,
      "hand": "right"
    },
    {
      "midi": 63,
      "time": 107,
      "duration": 0.3,
      "velocity": 0.71,
      "hand": "right"
    },
    {
      "midi": 72,
      "time": 107.6,
      "duration": 0.4,
      "velocity": 0.8,
      "hand": "right"
    },
    {
      "midi": 55,
      "time": 108.2,
      "duration": 0.3,
      "velocity": 0.71,
      "hand": "right"
    },
    {
      "midi": 72,
      "time": 108.8,
      "duration": 0.4,
      "velocity": 0.83,
      "hand": "right"
    },
    {
      "midi": 55,
      "time": 109.4,
      "duration": 0.3,
      "velocity": 0.71,
      "hand": "right"
    },
    {
      "midi": 60,
      "time": 110,
      "duration": 0.4,
      "velocity": 0.85,
      "hand": "right"
    },
    {
      "midi": 65,
      "time": 110.6,
      "duration": 0.3,
      "velocity": 0.71,
      "hand": "right"
    },
    {
      "midi": 65,
      "time": 111.2,
      "duration": 0.4,
      "velocity": 0.88,
      "hand": "right"
    },
    {
      "midi": 65,
      "time": 111.8,
      "duration": 0.3,
      "velocity": 0.71,
      "hand": "right"
    },
    {
      "midi": 72,
      "time": 112.4,
      "duration": 0.4,
      "velocity": 0.91,
      "hand": "right"
    },
    {
      "midi": 55,
      "time": 113,
      "duration": 0.3,
      "velocity": 0.71,
      "hand": "right"
    },
    {
      "midi": 72,
      "time": 113.6,
      "duration": 0.4,
      "velocity": 0.94,
      "hand": "right"
    },
    {
      "midi": 55,
      "time": 114.2,
      "duration": 0.3,
      "velocity": 0.71,
      "hand": "right"
    },
    {
      "midi": 69,
      "time": 114.8,
      "duration": 0.4,
      "velocity": 0.97,
      "hand": "right"
    },
    {
      "midi": 63,
      "time": 115.4,
      "duration": 0.3,
      "velocity": 0.71,
      "hand": "right"
    },
    {
      "midi": 66,
      "time": 116,
      "duration": 0.4,
      "velocity": 0.5,
      "hand": "right"
    },
    {
      "midi": 63,
      "time": 116.6,
      "duration": 0.3,
      "velocity": 0.71,
      "hand": "right"
    },
    {
      "midi": 69,
      "time": 117.2,
      "duration": 0.4,
      "velocity": 0.5,
      "hand": "right"
    },
    {
      "midi": 63,
      "time": 117.8,
      "duration": 0.3,
      "velocity": 0.71,
      "hand": "right"
    },
    {
      "midi": 66,
      "time": 118.4,
      "duration": 0.4,
      "velocity": 0.5,
      "hand": "right"
    },
    {
      "midi": 63,
      "time": 119,
      "duration": 0.3,
      "velocity": 0.71,
      "hand": "right"
    },
    {
      "midi": 71,
      "time": 119.6,
      "duration": 0.4,
      "velocity": 0.5,
      "hand": "right"
    },
    {
      "midi": 55,
      "time": 120.2,
      "duration": 0.3,
      "velocity": 0.71,
      "hand": "right"
    },
    {
      "midi": 68,
      "time": 120.8,
      "duration": 0.4,
      "velocity": 0.77,
      "hand": "right"
    },
    {
      "midi": 55,
      "time": 121.4,
      "duration": 0.3,
      "velocity": 0.71,
      "hand": "right"
    },
    {
      "midi": 71,
      "time": 122,
      "duration": 0.4,
      "velocity": 0.84,
      "hand": "right"
    },
    {
      "midi": 65,
      "time": 122.6,
      "duration": 0.3,
      "velocity": 0.71,
      "hand": "right"
    },
    {
      "midi": 68,
      "time": 123.2,
      "duration": 0.4,
      "velocity": 0.92,
      "hand": "right"
    },
    {
      "midi": 65,
      "time": 123.8,
      "duration": 0.3,
      "velocity": 0.71,
      "hand": "right"
    },
    {
      "midi": 79,
      "time": 124.4,
      "duration": 0.4,
      "velocity": 0.97,
      "hand": "right"
    },
    {
      "midi": 65,
      "time": 125,
      "duration": 0.3,
      "velocity": 0.71,
      "hand": "right"
    },
    {
      "midi": 77,
      "time": 125.6,
      "duration": 0.4,
      "velocity": 0.91,
      "hand": "right"
    },
    {
      "midi": 65,
      "time": 126.2,
      "duration": 0.3,
      "velocity": 0.71,
      "hand": "right"
    },
    {
      "midi": 75,
      "time": 126.8,
      "duration": 0.4,
      "velocity": 0.85,
      "hand": "right"
    },
    {
      "midi": 65,
      "time": 127.4,
      "duration": 0.3,
      "velocity": 0.71,
      "hand": "right"
    },
    {
      "midi": 70,
      "time": 128,
      "duration": 0.4,
      "velocity": 0.79,
      "hand": "right"
    },
    {
      "midi": 65,
      "time": 128.6,
      "duration": 0.3,
      "velocity": 0.71,
      "hand": "right"
    },
    {
      "midi": 65,
      "time": 129.2,
      "duration": 0.4,
      "velocity": 0.75,
      "hand": "right"
    },
    {
      "midi": 55,
      "time": 129.8,
      "duration": 0.3,
      "velocity": 0.71,
      "hand": "right"
    },
    {
      "midi": 73,
      "time": 130.4,
      "duration": 0.4,
      "velocity": 0.69,
      "hand": "right"
    },
    {
      "midi": 55,
      "time": 131,
      "duration": 0.3,
      "velocity": 0.71,
      "hand": "right"
    },
    {
      "midi": 77,
      "time": 131.6,
      "duration": 0.4,
      "velocity": 0.62,
      "hand": "right"
    },
    {
      "midi": 55,
      "time": 132.2,
      "duration": 0.3,
      "velocity": 0.71,
      "hand": "right"
    },
    {
      "midi": 80,
      "time": 132.8,
      "duration": 0.4,
      "velocity": 0.56,
      "hand": "right"
    },
    {
      "midi": 55,
      "time": 133.4,
      "duration": 0.3,
      "velocity": 0.71,
      "hand": "right"
    },
    {
      "midi": 77,
      "time": 134,
      "duration": 2.4,
      "velocity": 0.54,
      "hand": "right"
    },
    {
      "midi": 65,
      "time": 134.6,
      "duration": 0.3,
      "velocity": 0.71,
      "hand": "right"
    },
    {
      "midi": 65,
      "time": 135.2,
      "duration": 0.3,
      "velocity": 0.71,
      "hand": "right"
    },
    {
      "midi": 57,
      "time": 135.8,
      "duration": 0.3,
      "velocity": 0.71,
      "hand": "right"
    },
    {
      "midi": 75,
      "time": 136.4,
      "duration": 0.4,
      "velocity": 0.49,
      "hand": "right"
    },
    {
      "midi": 65,
      "time": 137,
      "duration": 0.3,
      "velocity": 0.71,
      "hand": "right"
    },
    {
      "midi": 77,
      "time": 137.6,
      "duration": 0.4,
      "velocity": 0.49,
      "hand": "right"
    },
    {
      "midi": 57,
      "time": 138.2,
      "duration": 0.3,
      "velocity": 0.71,
      "hand": "right"
    },
    {
      "midi": 73,
      "time": 138.8,
      "duration": 0.4,
      "velocity": 0.49,
      "hand": "right"
    },
    {
      "midi": 65,
      "time": 139.4,
      "duration": 0.3,
      "velocity": 0.71,
      "hand": "right"
    },
    {
      "midi": 75,
      "time": 140,
      "duration": 0.4,
      "velocity": 0.6,
      "hand": "right"
    },
    {
      "midi": 65,
      "time": 140.6,
      "duration": 0.3,
      "velocity": 0.71,
      "hand": "right"
    },
    {
      "midi": 71,
      "time": 141.2,
      "duration": 0.4,
      "velocity": 0.71,
      "hand": "right"
    },
    {
      "midi": 65,
      "time": 141.8,
      "duration": 0.3,
      "velocity": 0.71,
      "hand": "right"
    },
    {
      "midi": 73,
      "time": 142.4,
      "duration": 0.4,
      "velocity": 0.84,
      "hand": "right"
    },
    {
      "midi": 65,
      "time": 143,
      "duration": 0.3,
      "velocity": 0.71,
      "hand": "right"
    },
    {
      "midi": 70,
      "time": 143.6,
      "duration": 0.4,
      "velocity": 0.94,
      "hand": "right"
    },
    {
      "midi": 66,
      "time": 144.2,
      "duration": 0.3,
      "velocity": 0.71,
      "hand": "right"
    },
    {
      "midi": 72,
      "time": 144.8,
      "duration": 0.4,
      "velocity": 0.8,
      "hand": "right"
    },
    {
      "midi": 66,
      "time": 145.4,
      "duration": 0.3,
      "velocity": 0.71,
      "hand": "right"
    },
    {
      "midi": 70,
      "time": 146,
      "duration": 0.4,
      "velocity": 0.71,
      "hand": "right"
    },
    {
      "midi": 64,
      "time": 146.6,
      "duration": 0.3,
      "velocity": 0.71,
      "hand": "right"
    },
    {
      "midi": 72,
      "time": 147.2,
      "duration": 0.4,
      "velocity": 0.68,
      "hand": "right"
    },
    {
      "midi": 65,
      "time": 148,
      "duration": 0.4,
      "velocity": 0.66,
      "hand": "right"
    },
    {
      "midi": 68,
      "time": 148.8,
      "duration": 0.4,
      "velocity": 0.64,
      "hand": "right"
    },
    {
      "midi": 68,
      "time": 149.6,
      "duration": 0.4,
      "velocity": 0.61,
      "hand": "right"
    },
    {
      "midi": 58,
      "time": 150.4,
      "duration": 0.4,
      "velocity": 0.59,
      "hand": "right"
    },
    {
      "midi": 64,
      "time": 152,
      "duration": 1.2,
      "velocity": 0.55,
      "hand": "right"
    },
    {
      "midi": 65,
      "time": 153.2,
      "duration": 1.2,
      "velocity": 0.52,
      "hand": "right"
    },
    {
      "midi": 56,
      "time": 155.6,
      "duration": 1.2,
      "velocity": 0.49,
      "hand": "right"
    },
    {
      "midi": 56,
      "time": 156.8,
      "duration": 1.2,
      "velocity": 0.49,
      "hand": "right"
    },
    {
      "midi": 56,
      "time": 158,
      "duration": 2.4,
      "velocity": 0.49,
      "hand": "right"
    }
  ],
  "notes2Hands": [
    {
      "midi": 59,
      "time": 0,
      "duration": 0.45,
      "velocity": 0.54,
      "hand": "right"
    },
    {
      "midi": 60,
      "time": 0.3,
      "duration": 0.45,
      "velocity": 0.54,
      "hand": "right"
    },
    {
      "midi": 61,
      "time": 0.75,
      "duration": 0.45,
      "velocity": 0.54,
      "hand": "right"
    },
    {
      "midi": 58,
      "time": 1.2,
      "duration": 0.45,
      "velocity": 0.54,
      "hand": "right"
    },
    {
      "midi": 65,
      "time": 1.5,
      "duration": 0.45,
      "velocity": 0.54,
      "hand": "right"
    },
    {
      "midi": 64,
      "time": 1.95,
      "duration": 0.45,
      "velocity": 0.54,
      "hand": "right"
    },
    {
      "midi": 59,
      "time": 2.4,
      "duration": 0.45,
      "velocity": 0.54,
      "hand": "right"
    },
    {
      "midi": 60,
      "time": 2.7,
      "duration": 0.45,
      "velocity": 0.54,
      "hand": "right"
    },
    {
      "midi": 61,
      "time": 3.15,
      "duration": 0.45,
      "velocity": 0.54,
      "hand": "right"
    },
    {
      "midi": 58,
      "time": 3.6,
      "duration": 0.45,
      "velocity": 0.54,
      "hand": "right"
    },
    {
      "midi": 65,
      "time": 3.9,
      "duration": 0.45,
      "velocity": 0.54,
      "hand": "right"
    },
    {
      "midi": 64,
      "time": 4.35,
      "duration": 0.45,
      "velocity": 0.54,
      "hand": "right"
    },
    {
      "midi": 59,
      "time": 4.8,
      "duration": 0.45,
      "velocity": 0.54,
      "hand": "right"
    },
    {
      "midi": 60,
      "time": 5.1,
      "duration": 0.45,
      "velocity": 0.59,
      "hand": "right"
    },
    {
      "midi": 61,
      "time": 5.55,
      "duration": 0.45,
      "velocity": 0.64,
      "hand": "right"
    },
    {
      "midi": 60,
      "time": 6,
      "duration": 0.45,
      "velocity": 0.68,
      "hand": "right"
    },
    {
      "midi": 62,
      "time": 6.3,
      "duration": 0.45,
      "velocity": 0.72,
      "hand": "right"
    },
    {
      "midi": 65,
      "time": 6.75,
      "duration": 0.45,
      "velocity": 0.77,
      "hand": "right"
    },
    {
      "midi": 64,
      "time": 7.2,
      "duration": 0.45,
      "velocity": 0.77,
      "hand": "right"
    },
    {
      "midi": 65,
      "time": 7.5,
      "duration": 0.45,
      "velocity": 0.77,
      "hand": "right"
    },
    {
      "midi": 68,
      "time": 7.95,
      "duration": 0.45,
      "velocity": 0.77,
      "hand": "right"
    },
    {
      "midi": 67,
      "time": 8.4,
      "duration": 0.45,
      "velocity": 0.69,
      "hand": "right"
    },
    {
      "midi": 68,
      "time": 8.7,
      "duration": 0.45,
      "velocity": 0.62,
      "hand": "right"
    },
    {
      "midi": 41,
      "time": 9.15,
      "duration": 0.3,
      "velocity": 0.71,
      "hand": "left"
    },
    {
      "midi": 65,
      "time": 9.15,
      "duration": 0.6,
      "velocity": 0.54,
      "hand": "right"
    },
    {
      "midi": 48,
      "time": 9.45,
      "duration": 0.3,
      "velocity": 0.71,
      "hand": "left"
    },
    {
      "midi": 53,
      "time": 9.75,
      "duration": 0.3,
      "velocity": 0.71,
      "hand": "left"
    },
    {
      "midi": 56,
      "time": 10.05,
      "duration": 0.3,
      "velocity": 0.71,
      "hand": "left"
    },
    {
      "midi": 60,
      "time": 10.35,
      "duration": 0.3,
      "velocity": 0.71,
      "hand": "left"
    },
    {
      "midi": 56,
      "time": 10.65,
      "duration": 0.3,
      "velocity": 0.71,
      "hand": "left"
    },
    {
      "midi": 53,
      "time": 10.95,
      "duration": 0.3,
      "velocity": 0.71,
      "hand": "left"
    },
    {
      "midi": 48,
      "time": 11.25,
      "duration": 0.3,
      "velocity": 0.71,
      "hand": "left"
    },
    {
      "midi": 41,
      "time": 11.55,
      "duration": 0.3,
      "velocity": 0.71,
      "hand": "left"
    },
    {
      "midi": 48,
      "time": 11.85,
      "duration": 0.3,
      "velocity": 0.71,
      "hand": "left"
    },
    {
      "midi": 53,
      "time": 12.15,
      "duration": 0.3,
      "velocity": 0.71,
      "hand": "left"
    },
    {
      "midi": 56,
      "time": 12.45,
      "duration": 0.3,
      "velocity": 0.71,
      "hand": "left"
    },
    {
      "midi": 60,
      "time": 12.75,
      "duration": 0.3,
      "velocity": 0.71,
      "hand": "left"
    },
    {
      "midi": 56,
      "time": 13.05,
      "duration": 0.3,
      "velocity": 0.71,
      "hand": "left"
    },
    {
      "midi": 53,
      "time": 13.35,
      "duration": 0.3,
      "velocity": 0.71,
      "hand": "left"
    },
    {
      "midi": 48,
      "time": 13.65,
      "duration": 0.3,
      "velocity": 0.71,
      "hand": "left"
    },
    {
      "midi": 41,
      "time": 13.95,
      "duration": 0.3,
      "velocity": 0.71,
      "hand": "left"
    },
    {
      "midi": 48,
      "time": 14.25,
      "duration": 0.3,
      "velocity": 0.71,
      "hand": "left"
    },
    {
      "midi": 53,
      "time": 14.55,
      "duration": 0.3,
      "velocity": 0.71,
      "hand": "left"
    },
    {
      "midi": 56,
      "time": 14.85,
      "duration": 0.3,
      "velocity": 0.71,
      "hand": "left"
    },
    {
      "midi": 60,
      "time": 15.15,
      "duration": 0.3,
      "velocity": 0.71,
      "hand": "left"
    },
    {
      "midi": 56,
      "time": 15.45,
      "duration": 0.3,
      "velocity": 0.71,
      "hand": "left"
    },
    {
      "midi": 53,
      "time": 15.75,
      "duration": 0.3,
      "velocity": 0.71,
      "hand": "left"
    },
    {
      "midi": 48,
      "time": 16.05,
      "duration": 0.3,
      "velocity": 0.71,
      "hand": "left"
    },
    {
      "midi": 41,
      "time": 16.35,
      "duration": 0.3,
      "velocity": 0.71,
      "hand": "left"
    },
    {
      "midi": 48,
      "time": 16.65,
      "duration": 0.3,
      "velocity": 0.71,
      "hand": "left"
    },
    {
      "midi": 53,
      "time": 16.95,
      "duration": 0.3,
      "velocity": 0.71,
      "hand": "left"
    },
    {
      "midi": 56,
      "time": 17.25,
      "duration": 0.3,
      "velocity": 0.71,
      "hand": "left"
    },
    {
      "midi": 60,
      "time": 17.55,
      "duration": 0.3,
      "velocity": 0.71,
      "hand": "left"
    },
    {
      "midi": 56,
      "time": 17.85,
      "duration": 0.3,
      "velocity": 0.71,
      "hand": "left"
    },
    {
      "midi": 53,
      "time": 18.15,
      "duration": 0.3,
      "velocity": 0.71,
      "hand": "left"
    },
    {
      "midi": 48,
      "time": 18.45,
      "duration": 0.3,
      "velocity": 0.71,
      "hand": "left"
    },
    {
      "midi": 41,
      "time": 18.75,
      "duration": 0.3,
      "velocity": 0.71,
      "hand": "left"
    },
    {
      "midi": 48,
      "time": 19.05,
      "duration": 0.3,
      "velocity": 0.71,
      "hand": "left"
    },
    {
      "midi": 60,
      "time": 19.2,
      "duration": 0.45,
      "velocity": 0.54,
      "hand": "right"
    },
    {
      "midi": 53,
      "time": 19.35,
      "duration": 0.3,
      "velocity": 0.71,
      "hand": "left"
    },
    {
      "midi": 68,
      "time": 19.5,
      "duration": 0.45,
      "velocity": 0.54,
      "hand": "right"
    },
    {
      "midi": 56,
      "time": 19.65,
      "duration": 0.3,
      "velocity": 0.71,
      "hand": "left"
    },
    {
      "midi": 60,
      "time": 19.95,
      "duration": 0.3,
      "velocity": 0.71,
      "hand": "left"
    },
    {
      "midi": 67,
      "time": 19.95,
      "duration": 0.45,
      "velocity": 0.54,
      "hand": "right"
    },
    {
      "midi": 56,
      "time": 20.25,
      "duration": 0.3,
      "velocity": 0.71,
      "hand": "left"
    },
    {
      "midi": 65,
      "time": 20.4,
      "duration": 0.45,
      "velocity": 0.54,
      "hand": "right"
    },
    {
      "midi": 53,
      "time": 20.55,
      "duration": 0.3,
      "velocity": 0.71,
      "hand": "left"
    },
    {
      "midi": 71,
      "time": 20.7,
      "duration": 0.45,
      "velocity": 0.54,
      "hand": "right"
    },
    {
      "midi": 48,
      "time": 20.85,
      "duration": 0.3,
      "velocity": 0.71,
      "hand": "left"
    },
    {
      "midi": 40,
      "time": 21.15,
      "duration": 0.3,
      "velocity": 0.71,
      "hand": "left"
    },
    {
      "midi": 72,
      "time": 21.15,
      "duration": 0.45,
      "velocity": 0.54,
      "hand": "right"
    },
    {
      "midi": 48,
      "time": 21.45,
      "duration": 0.3,
      "velocity": 0.71,
      "hand": "left"
    },
    {
      "midi": 73,
      "time": 21.6,
      "duration": 0.45,
      "velocity": 0.59,
      "hand": "right"
    },
    {
      "midi": 55,
      "time": 21.75,
      "duration": 0.3,
      "velocity": 0.71,
      "hand": "left"
    },
    {
      "midi": 71,
      "time": 21.9,
      "duration": 0.45,
      "velocity": 0.64,
      "hand": "right"
    },
    {
      "midi": 58,
      "time": 22.05,
      "duration": 0.3,
      "velocity": 0.71,
      "hand": "left"
    },
    {
      "midi": 60,
      "time": 22.35,
      "duration": 0.3,
      "velocity": 0.71,
      "hand": "left"
    },
    {
      "midi": 72,
      "time": 22.35,
      "duration": 0.45,
      "velocity": 0.68,
      "hand": "right"
    },
    {
      "midi": 58,
      "time": 22.65,
      "duration": 0.3,
      "velocity": 0.71,
      "hand": "left"
    },
    {
      "midi": 60,
      "time": 22.8,
      "duration": 0.45,
      "velocity": 0.72,
      "hand": "right"
    },
    {
      "midi": 55,
      "time": 22.95,
      "duration": 0.3,
      "velocity": 0.71,
      "hand": "left"
    },
    {
      "midi": 70,
      "time": 23.1,
      "duration": 0.45,
      "velocity": 0.77,
      "hand": "right"
    },
    {
      "midi": 48,
      "time": 23.25,
      "duration": 0.3,
      "velocity": 0.71,
      "hand": "left"
    },
    {
      "midi": 41,
      "time": 23.55,
      "duration": 0.3,
      "velocity": 0.71,
      "hand": "left"
    },
    {
      "midi": 69,
      "time": 23.55,
      "duration": 0.45,
      "velocity": 0.77,
      "hand": "right"
    },
    {
      "midi": 48,
      "time": 23.85,
      "duration": 0.3,
      "velocity": 0.71,
      "hand": "left"
    },
    {
      "midi": 68,
      "time": 24,
      "duration": 0.45,
      "velocity": 0.77,
      "hand": "right"
    },
    {
      "midi": 53,
      "time": 24.15,
      "duration": 0.3,
      "velocity": 0.71,
      "hand": "left"
    },
    {
      "midi": 67,
      "time": 24.3,
      "duration": 0.45,
      "velocity": 0.77,
      "hand": "right"
    },
    {
      "midi": 56,
      "time": 24.45,
      "duration": 0.3,
      "velocity": 0.71,
      "hand": "left"
    },
    {
      "midi": 60,
      "time": 24.75,
      "duration": 0.3,
      "velocity": 0.71,
      "hand": "left"
    },
    {
      "midi": 65,
      "time": 24.75,
      "duration": 0.45,
      "velocity": 0.77,
      "hand": "right"
    },
    {
      "midi": 56,
      "time": 25.05,
      "duration": 0.3,
      "velocity": 0.71,
      "hand": "left"
    },
    {
      "midi": 77,
      "time": 25.2,
      "duration": 0.45,
      "velocity": 0.77,
      "hand": "right"
    },
    {
      "midi": 53,
      "time": 25.35,
      "duration": 0.3,
      "velocity": 0.71,
      "hand": "left"
    },
    {
      "midi": 71,
      "time": 25.5,
      "duration": 0.45,
      "velocity": 0.77,
      "hand": "right"
    },
    {
      "midi": 48,
      "time": 25.65,
      "duration": 0.3,
      "velocity": 0.71,
      "hand": "left"
    },
    {
      "midi": 40,
      "time": 25.95,
      "duration": 0.3,
      "velocity": 0.71,
      "hand": "left"
    },
    {
      "midi": 72,
      "time": 25.95,
      "duration": 0.45,
      "velocity": 0.77,
      "hand": "right"
    },
    {
      "midi": 48,
      "time": 26.25,
      "duration": 0.3,
      "velocity": 0.71,
      "hand": "left"
    },
    {
      "midi": 75,
      "time": 26.4,
      "duration": 0.45,
      "velocity": 0.72,
      "hand": "right"
    },
    {
      "midi": 55,
      "time": 26.55,
      "duration": 0.3,
      "velocity": 0.71,
      "hand": "left"
    },
    {
      "midi": 73,
      "time": 26.7,
      "duration": 0.45,
      "velocity": 0.68,
      "hand": "right"
    },
    {
      "midi": 58,
      "time": 26.85,
      "duration": 0.3,
      "velocity": 0.71,
      "hand": "left"
    },
    {
      "midi": 60,
      "time": 27.15,
      "duration": 0.3,
      "velocity": 0.71,
      "hand": "left"
    },
    {
      "midi": 72,
      "time": 27.15,
      "duration": 0.45,
      "velocity": 0.64,
      "hand": "right"
    },
    {
      "midi": 58,
      "time": 27.45,
      "duration": 0.3,
      "velocity": 0.71,
      "hand": "left"
    },
    {
      "midi": 65,
      "time": 27.6,
      "duration": 0.45,
      "velocity": 0.59,
      "hand": "right"
    },
    {
      "midi": 55,
      "time": 27.75,
      "duration": 0.3,
      "velocity": 0.71,
      "hand": "left"
    },
    {
      "midi": 67,
      "time": 27.9,
      "duration": 0.45,
      "velocity": 0.54,
      "hand": "right"
    },
    {
      "midi": 48,
      "time": 28.05,
      "duration": 0.3,
      "velocity": 0.71,
      "hand": "left"
    },
    {
      "midi": 41,
      "time": 28.35,
      "duration": 0.3,
      "velocity": 0.71,
      "hand": "left"
    },
    {
      "midi": 68,
      "time": 28.35,
      "duration": 0.45,
      "velocity": 0.54,
      "hand": "right"
    },
    {
      "midi": 48,
      "time": 28.65,
      "duration": 0.3,
      "velocity": 0.71,
      "hand": "left"
    },
    {
      "midi": 64,
      "time": 28.8,
      "duration": 0.45,
      "velocity": 0.54,
      "hand": "right"
    },
    {
      "midi": 53,
      "time": 28.95,
      "duration": 0.3,
      "velocity": 0.71,
      "hand": "left"
    },
    {
      "midi": 65,
      "time": 29.1,
      "duration": 0.45,
      "velocity": 0.54,
      "hand": "right"
    },
    {
      "midi": 56,
      "time": 29.25,
      "duration": 0.3,
      "velocity": 0.71,
      "hand": "left"
    },
    {
      "midi": 60,
      "time": 29.55,
      "duration": 0.3,
      "velocity": 0.71,
      "hand": "left"
    },
    {
      "midi": 69,
      "time": 29.55,
      "duration": 0.45,
      "velocity": 0.54,
      "hand": "right"
    },
    {
      "midi": 56,
      "time": 29.85,
      "duration": 0.3,
      "velocity": 0.71,
      "hand": "left"
    },
    {
      "midi": 71,
      "time": 30,
      "duration": 0.45,
      "velocity": 0.54,
      "hand": "right"
    },
    {
      "midi": 53,
      "time": 30.15,
      "duration": 0.3,
      "velocity": 0.71,
      "hand": "left"
    },
    {
      "midi": 72,
      "time": 30.3,
      "duration": 0.45,
      "velocity": 0.55,
      "hand": "right"
    },
    {
      "midi": 48,
      "time": 30.45,
      "duration": 0.3,
      "velocity": 0.71,
      "hand": "left"
    },
    {
      "midi": 43,
      "time": 30.75,
      "duration": 0.3,
      "velocity": 0.71,
      "hand": "left"
    },
    {
      "midi": 73,
      "time": 30.75,
      "duration": 0.45,
      "velocity": 0.56,
      "hand": "right"
    },
    {
      "midi": 51,
      "time": 31.05,
      "duration": 0.3,
      "velocity": 0.71,
      "hand": "left"
    },
    {
      "midi": 74,
      "time": 31.2,
      "duration": 0.45,
      "velocity": 0.57,
      "hand": "right"
    },
    {
      "midi": 58,
      "time": 31.35,
      "duration": 0.3,
      "velocity": 0.71,
      "hand": "left"
    },
    {
      "midi": 77,
      "time": 31.5,
      "duration": 0.45,
      "velocity": 0.57,
      "hand": "right"
    },
    {
      "midi": 61,
      "time": 31.65,
      "duration": 0.3,
      "velocity": 0.71,
      "hand": "left"
    },
    {
      "midi": 63,
      "time": 31.95,
      "duration": 0.3,
      "velocity": 0.71,
      "hand": "left"
    },
    {
      "midi": 75,
      "time": 31.95,
      "duration": 0.45,
      "velocity": 0.58,
      "hand": "right"
    },
    {
      "midi": 61,
      "time": 32.25,
      "duration": 0.3,
      "velocity": 0.71,
      "hand": "left"
    },
    {
      "midi": 68,
      "time": 32.4,
      "duration": 0.45,
      "velocity": 0.59,
      "hand": "right"
    },
    {
      "midi": 58,
      "time": 32.55,
      "duration": 0.3,
      "velocity": 0.71,
      "hand": "left"
    },
    {
      "midi": 70,
      "time": 32.7,
      "duration": 0.45,
      "velocity": 0.6,
      "hand": "right"
    },
    {
      "midi": 51,
      "time": 32.85,
      "duration": 0.3,
      "velocity": 0.71,
      "hand": "left"
    },
    {
      "midi": 44,
      "time": 33.15,
      "duration": 0.3,
      "velocity": 0.71,
      "hand": "left"
    },
    {
      "midi": 72,
      "time": 33.15,
      "duration": 0.45,
      "velocity": 0.6,
      "hand": "right"
    },
    {
      "midi": 51,
      "time": 33.45,
      "duration": 0.3,
      "velocity": 0.71,
      "hand": "left"
    },
    {
      "midi": 67,
      "time": 33.6,
      "duration": 0.45,
      "velocity": 0.61,
      "hand": "right"
    },
    {
      "midi": 56,
      "time": 33.75,
      "duration": 0.3,
      "velocity": 0.71,
      "hand": "left"
    },
    {
      "midi": 68,
      "time": 33.9,
      "duration": 0.45,
      "velocity": 0.61,
      "hand": "right"
    },
    {
      "midi": 60,
      "time": 34.05,
      "duration": 0.3,
      "velocity": 0.71,
      "hand": "left"
    },
    {
      "midi": 63,
      "time": 34.35,
      "duration": 0.3,
      "velocity": 0.71,
      "hand": "left"
    },
    {
      "midi": 71,
      "time": 34.35,
      "duration": 0.45,
      "velocity": 0.62,
      "hand": "right"
    },
    {
      "midi": 60,
      "time": 34.65,
      "duration": 0.3,
      "velocity": 0.71,
      "hand": "left"
    },
    {
      "midi": 72,
      "time": 34.8,
      "duration": 0.45,
      "velocity": 0.63,
      "hand": "right"
    },
    {
      "midi": 56,
      "time": 34.95,
      "duration": 0.3,
      "velocity": 0.71,
      "hand": "left"
    },
    {
      "midi": 75,
      "time": 35.1,
      "duration": 0.45,
      "velocity": 0.64,
      "hand": "right"
    },
    {
      "midi": 51,
      "time": 35.25,
      "duration": 0.3,
      "velocity": 0.71,
      "hand": "left"
    },
    {
      "midi": 47,
      "time": 35.55,
      "duration": 0.3,
      "velocity": 0.71,
      "hand": "left"
    },
    {
      "midi": 76,
      "time": 35.55,
      "duration": 0.45,
      "velocity": 0.65,
      "hand": "right"
    },
    {
      "midi": 53,
      "time": 35.85,
      "duration": 0.3,
      "velocity": 0.71,
      "hand": "left"
    },
    {
      "midi": 77,
      "time": 36,
      "duration": 0.45,
      "velocity": 0.65,
      "hand": "right"
    },
    {
      "midi": 55,
      "time": 36.15,
      "duration": 0.3,
      "velocity": 0.71,
      "hand": "left"
    },
    {
      "midi": 78,
      "time": 36.3,
      "duration": 0.45,
      "velocity": 0.66,
      "hand": "right"
    },
    {
      "midi": 62,
      "time": 36.45,
      "duration": 0.3,
      "velocity": 0.71,
      "hand": "left"
    },
    {
      "midi": 65,
      "time": 36.75,
      "duration": 0.3,
      "velocity": 0.71,
      "hand": "left"
    },
    {
      "midi": 79,
      "time": 36.75,
      "duration": 0.45,
      "velocity": 0.67,
      "hand": "right"
    },
    {
      "midi": 62,
      "time": 37.05,
      "duration": 0.3,
      "velocity": 0.71,
      "hand": "left"
    },
    {
      "midi": 74,
      "time": 37.2,
      "duration": 0.45,
      "velocity": 0.67,
      "hand": "right"
    },
    {
      "midi": 56,
      "time": 37.35,
      "duration": 0.3,
      "velocity": 0.71,
      "hand": "left"
    },
    {
      "midi": 77,
      "time": 37.5,
      "duration": 0.45,
      "velocity": 0.68,
      "hand": "right"
    },
    {
      "midi": 55,
      "time": 37.65,
      "duration": 0.3,
      "velocity": 0.71,
      "hand": "left"
    },
    {
      "midi": 48,
      "time": 37.95,
      "duration": 0.3,
      "velocity": 0.71,
      "hand": "left"
    },
    {
      "midi": 76,
      "time": 37.95,
      "duration": 0.45,
      "velocity": 0.69,
      "hand": "right"
    },
    {
      "midi": 55,
      "time": 38.25,
      "duration": 0.3,
      "velocity": 0.71,
      "hand": "left"
    },
    {
      "midi": 71,
      "time": 38.4,
      "duration": 0.45,
      "velocity": 0.69,
      "hand": "right"
    },
    {
      "midi": 58,
      "time": 38.55,
      "duration": 0.3,
      "velocity": 0.71,
      "hand": "left"
    },
    {
      "midi": 72,
      "time": 38.7,
      "duration": 0.45,
      "velocity": 0.7,
      "hand": "right"
    },
    {
      "midi": 60,
      "time": 38.85,
      "duration": 0.3,
      "velocity": 0.71,
      "hand": "left"
    },
    {
      "midi": 64,
      "time": 39.15,
      "duration": 0.3,
      "velocity": 0.71,
      "hand": "left"
    },
    {
      "midi": 73,
      "time": 39.15,
      "duration": 0.45,
      "velocity": 0.71,
      "hand": "right"
    },
    {
      "midi": 60,
      "time": 39.45,
      "duration": 0.3,
      "velocity": 0.71,
      "hand": "left"
    },
    {
      "midi": 70,
      "time": 39.6,
      "duration": 0.45,
      "velocity": 0.72,
      "hand": "right"
    },
    {
      "midi": 58,
      "time": 39.75,
      "duration": 0.3,
      "velocity": 0.71,
      "hand": "left"
    },
    {
      "midi": 77,
      "time": 39.9,
      "duration": 0.45,
      "velocity": 0.72,
      "hand": "right"
    },
    {
      "midi": 55,
      "time": 40.05,
      "duration": 0.3,
      "velocity": 0.71,
      "hand": "left"
    },
    {
      "midi": 48,
      "time": 40.35,
      "duration": 0.3,
      "velocity": 0.71,
      "hand": "left"
    },
    {
      "midi": 76,
      "time": 40.35,
      "duration": 0.45,
      "velocity": 0.73,
      "hand": "right"
    },
    {
      "midi": 55,
      "time": 40.65,
      "duration": 0.3,
      "velocity": 0.71,
      "hand": "left"
    },
    {
      "midi": 71,
      "time": 40.8,
      "duration": 0.45,
      "velocity": 0.73,
      "hand": "right"
    },
    {
      "midi": 58,
      "time": 40.95,
      "duration": 0.3,
      "velocity": 0.71,
      "hand": "left"
    },
    {
      "midi": 72,
      "time": 41.1,
      "duration": 0.45,
      "velocity": 0.74,
      "hand": "right"
    },
    {
      "midi": 60,
      "time": 41.25,
      "duration": 0.3,
      "velocity": 0.71,
      "hand": "left"
    },
    {
      "midi": 64,
      "time": 41.55,
      "duration": 0.3,
      "velocity": 0.71,
      "hand": "left"
    },
    {
      "midi": 73,
      "time": 41.55,
      "duration": 0.45,
      "velocity": 0.75,
      "hand": "right"
    },
    {
      "midi": 60,
      "time": 41.85,
      "duration": 0.3,
      "velocity": 0.71,
      "hand": "left"
    },
    {
      "midi": 70,
      "time": 42,
      "duration": 0.45,
      "velocity": 0.76,
      "hand": "right"
    },
    {
      "midi": 58,
      "time": 42.15,
      "duration": 0.3,
      "velocity": 0.71,
      "hand": "left"
    },
    {
      "midi": 77,
      "time": 42.3,
      "duration": 0.45,
      "velocity": 0.76,
      "hand": "right"
    },
    {
      "midi": 55,
      "time": 42.45,
      "duration": 0.3,
      "velocity": 0.71,
      "hand": "left"
    },
    {
      "midi": 48,
      "time": 42.75,
      "duration": 0.3,
      "velocity": 0.71,
      "hand": "left"
    },
    {
      "midi": 76,
      "time": 42.75,
      "duration": 0.45,
      "velocity": 0.77,
      "hand": "right"
    },
    {
      "midi": 55,
      "time": 43.05,
      "duration": 0.3,
      "velocity": 0.71,
      "hand": "left"
    },
    {
      "midi": 71,
      "time": 43.2,
      "duration": 0.45,
      "velocity": 0.77,
      "hand": "right"
    },
    {
      "midi": 58,
      "time": 43.35,
      "duration": 0.3,
      "velocity": 0.71,
      "hand": "left"
    },
    {
      "midi": 72,
      "time": 43.5,
      "duration": 0.45,
      "velocity": 0.75,
      "hand": "right"
    },
    {
      "midi": 60,
      "time": 43.65,
      "duration": 0.3,
      "velocity": 0.71,
      "hand": "left"
    },
    {
      "midi": 64,
      "time": 43.95,
      "duration": 0.3,
      "velocity": 0.71,
      "hand": "left"
    },
    {
      "midi": 73,
      "time": 43.95,
      "duration": 0.45,
      "velocity": 0.73,
      "hand": "right"
    },
    {
      "midi": 60,
      "time": 44.25,
      "duration": 0.3,
      "velocity": 0.71,
      "hand": "left"
    },
    {
      "midi": 72,
      "time": 44.4,
      "duration": 0.45,
      "velocity": 0.71,
      "hand": "right"
    },
    {
      "midi": 58,
      "time": 44.55,
      "duration": 0.3,
      "velocity": 0.71,
      "hand": "left"
    },
    {
      "midi": 74,
      "time": 44.7,
      "duration": 0.45,
      "velocity": 0.69,
      "hand": "right"
    },
    {
      "midi": 55,
      "time": 44.85,
      "duration": 0.3,
      "velocity": 0.71,
      "hand": "left"
    },
    {
      "midi": 48,
      "time": 45.15,
      "duration": 0.3,
      "velocity": 0.71,
      "hand": "left"
    },
    {
      "midi": 77,
      "time": 45.15,
      "duration": 0.45,
      "velocity": 0.67,
      "hand": "right"
    },
    {
      "midi": 55,
      "time": 45.45,
      "duration": 0.3,
      "velocity": 0.71,
      "hand": "left"
    },
    {
      "midi": 76,
      "time": 45.6,
      "duration": 0.45,
      "velocity": 0.65,
      "hand": "right"
    },
    {
      "midi": 58,
      "time": 45.75,
      "duration": 0.3,
      "velocity": 0.71,
      "hand": "left"
    },
    {
      "midi": 77,
      "time": 45.9,
      "duration": 0.45,
      "velocity": 0.63,
      "hand": "right"
    },
    {
      "midi": 60,
      "time": 46.05,
      "duration": 0.3,
      "velocity": 0.71,
      "hand": "left"
    },
    {
      "midi": 64,
      "time": 46.35,
      "duration": 0.3,
      "velocity": 0.71,
      "hand": "left"
    },
    {
      "midi": 80,
      "time": 46.35,
      "duration": 0.45,
      "velocity": 0.61,
      "hand": "right"
    },
    {
      "midi": 60,
      "time": 46.65,
      "duration": 0.3,
      "velocity": 0.71,
      "hand": "left"
    },
    {
      "midi": 79,
      "time": 46.8,
      "duration": 0.45,
      "velocity": 0.59,
      "hand": "right"
    },
    {
      "midi": 58,
      "time": 46.95,
      "duration": 0.3,
      "velocity": 0.71,
      "hand": "left"
    },
    {
      "midi": 80,
      "time": 47.1,
      "duration": 0.45,
      "velocity": 0.57,
      "hand": "right"
    },
    {
      "midi": 55,
      "time": 47.25,
      "duration": 0.3,
      "velocity": 0.71,
      "hand": "left"
    },
    {
      "midi": 41,
      "time": 47.55,
      "duration": 0.3,
      "velocity": 0.71,
      "hand": "left"
    },
    {
      "midi": 77,
      "time": 47.55,
      "duration": 0.6,
      "velocity": 0.54,
      "hand": "right"
    },
    {
      "midi": 48,
      "time": 47.85,
      "duration": 0.3,
      "velocity": 0.71,
      "hand": "left"
    },
    {
      "midi": 53,
      "time": 48.15,
      "duration": 0.3,
      "velocity": 0.71,
      "hand": "left"
    },
    {
      "midi": 56,
      "time": 48.45,
      "duration": 0.3,
      "velocity": 0.71,
      "hand": "left"
    },
    {
      "midi": 65,
      "time": 48.75,
      "duration": 0.3,
      "velocity": 0.71,
      "hand": "left"
    },
    {
      "midi": 60,
      "time": 49.05,
      "duration": 0.3,
      "velocity": 0.71,
      "hand": "left"
    },
    {
      "midi": 56,
      "time": 49.35,
      "duration": 0.3,
      "velocity": 0.71,
      "hand": "left"
    },
    {
      "midi": 53,
      "time": 49.65,
      "duration": 0.3,
      "velocity": 0.71,
      "hand": "left"
    },
    {
      "midi": 41,
      "time": 49.95,
      "duration": 0.3,
      "velocity": 0.71,
      "hand": "left"
    },
    {
      "midi": 75,
      "time": 49.95,
      "duration": 0.45,
      "velocity": 0.54,
      "hand": "right"
    },
    {
      "midi": 48,
      "time": 50.25,
      "duration": 0.3,
      "velocity": 0.71,
      "hand": "left"
    },
    {
      "midi": 77,
      "time": 50.4,
      "duration": 0.45,
      "velocity": 0.54,
      "hand": "right"
    },
    {
      "midi": 53,
      "time": 50.55,
      "duration": 0.3,
      "velocity": 0.71,
      "hand": "left"
    },
    {
      "midi": 75,
      "time": 50.7,
      "duration": 0.45,
      "velocity": 0.54,
      "hand": "right"
    },
    {
      "midi": 56,
      "time": 50.85,
      "duration": 0.3,
      "velocity": 0.71,
      "hand": "left"
    },
    {
      "midi": 63,
      "time": 51.15,
      "duration": 0.3,
      "velocity": 0.71,
      "hand": "left"
    },
    {
      "midi": 77,
      "time": 51.15,
      "duration": 0.45,
      "velocity": 0.54,
      "hand": "right"
    },
    {
      "midi": 60,
      "time": 51.45,
      "duration": 0.3,
      "velocity": 0.71,
      "hand": "left"
    },
    {
      "midi": 75,
      "time": 51.6,
      "duration": 0.45,
      "velocity": 0.54,
      "hand": "right"
    },
    {
      "midi": 56,
      "time": 51.75,
      "duration": 0.3,
      "velocity": 0.71,
      "hand": "left"
    },
    {
      "midi": 77,
      "time": 51.9,
      "duration": 0.45,
      "velocity": 0.54,
      "hand": "right"
    },
    {
      "midi": 53,
      "time": 52.05,
      "duration": 0.3,
      "velocity": 0.71,
      "hand": "left"
    },
    {
      "midi": 41,
      "time": 52.35,
      "duration": 0.3,
      "velocity": 0.71,
      "hand": "left"
    },
    {
      "midi": 73,
      "time": 52.35,
      "duration": 0.45,
      "velocity": 0.54,
      "hand": "right"
    },
    {
      "midi": 49,
      "time": 52.65,
      "duration": 0.3,
      "velocity": 0.71,
      "hand": "left"
    },
    {
      "midi": 75,
      "time": 52.8,
      "duration": 0.45,
      "velocity": 0.54,
      "hand": "right"
    },
    {
      "midi": 53,
      "time": 52.95,
      "duration": 0.3,
      "velocity": 0.71,
      "hand": "left"
    },
    {
      "midi": 73,
      "time": 53.1,
      "duration": 0.45,
      "velocity": 0.54,
      "hand": "right"
    },
    {
      "midi": 56,
      "time": 53.25,
      "duration": 0.3,
      "velocity": 0.71,
      "hand": "left"
    },
    {
      "midi": 61,
      "time": 53.55,
      "duration": 0.3,
      "velocity": 0.71,
      "hand": "left"
    },
    {
      "midi": 75,
      "time": 53.55,
      "duration": 0.45,
      "velocity": 0.54,
      "hand": "right"
    },
    {
      "midi": 56,
      "time": 53.85,
      "duration": 0.3,
      "velocity": 0.71,
      "hand": "left"
    },
    {
      "midi": 73,
      "time": 54,
      "duration": 0.45,
      "velocity": 0.54,
      "hand": "right"
    },
    {
      "midi": 53,
      "time": 54.15,
      "duration": 0.3,
      "velocity": 0.71,
      "hand": "left"
    },
    {
      "midi": 75,
      "time": 54.3,
      "duration": 0.45,
      "velocity": 0.54,
      "hand": "right"
    },
    {
      "midi": 49,
      "time": 54.45,
      "duration": 0.3,
      "velocity": 0.71,
      "hand": "left"
    },
    {
      "midi": 41,
      "time": 54.75,
      "duration": 0.3,
      "velocity": 0.71,
      "hand": "left"
    },
    {
      "midi": 72,
      "time": 54.75,
      "duration": 0.45,
      "velocity": 0.54,
      "hand": "right"
    },
    {
      "midi": 49,
      "time": 55.05,
      "duration": 0.3,
      "velocity": 0.71,
      "hand": "left"
    },
    {
      "midi": 73,
      "time": 55.2,
      "duration": 0.45,
      "velocity": 0.54,
      "hand": "right"
    },
    {
      "midi": 53,
      "time": 55.35,
      "duration": 0.3,
      "velocity": 0.71,
      "hand": "left"
    },
    {
      "midi": 72,
      "time": 55.5,
      "duration": 0.45,
      "velocity": 0.59,
      "hand": "right"
    },
    {
      "midi": 56,
      "time": 55.65,
      "duration": 0.3,
      "velocity": 0.71,
      "hand": "left"
    },
    {
      "midi": 60,
      "time": 55.95,
      "duration": 0.3,
      "velocity": 0.71,
      "hand": "left"
    },
    {
      "midi": 73,
      "time": 55.95,
      "duration": 0.45,
      "velocity": 0.64,
      "hand": "right"
    },
    {
      "midi": 56,
      "time": 56.25,
      "duration": 0.3,
      "velocity": 0.71,
      "hand": "left"
    },
    {
      "midi": 72,
      "time": 56.4,
      "duration": 0.45,
      "velocity": 0.68,
      "hand": "right"
    },
    {
      "midi": 53,
      "time": 56.55,
      "duration": 0.3,
      "velocity": 0.71,
      "hand": "left"
    },
    {
      "midi": 73,
      "time": 56.7,
      "duration": 0.45,
      "velocity": 0.72,
      "hand": "right"
    },
    {
      "midi": 49,
      "time": 56.85,
      "duration": 0.3,
      "velocity": 0.71,
      "hand": "left"
    },
    {
      "midi": 43,
      "time": 57.15,
      "duration": 0.3,
      "velocity": 0.71,
      "hand": "left"
    },
    {
      "midi": 71,
      "time": 57.15,
      "duration": 0.45,
      "velocity": 0.77,
      "hand": "right"
    },
    {
      "midi": 50,
      "time": 57.45,
      "duration": 0.3,
      "velocity": 0.71,
      "hand": "left"
    },
    {
      "midi": 66,
      "time": 57.6,
      "duration": 0.45,
      "velocity": 0.77,
      "hand": "right"
    },
    {
      "midi": 53,
      "time": 57.75,
      "duration": 0.3,
      "velocity": 0.71,
      "hand": "left"
    },
    {
      "midi": 67,
      "time": 57.9,
      "duration": 0.45,
      "velocity": 0.77,
      "hand": "right"
    },
    {
      "midi": 55,
      "time": 58.05,
      "duration": 0.3,
      "velocity": 0.71,
      "hand": "left"
    },
    {
      "midi": 59,
      "time": 58.35,
      "duration": 0.3,
      "velocity": 0.71,
      "hand": "left"
    },
    {
      "midi": 68,
      "time": 58.35,
      "duration": 0.45,
      "velocity": 0.77,
      "hand": "right"
    },
    {
      "midi": 55,
      "time": 58.65,
      "duration": 0.3,
      "velocity": 0.71,
      "hand": "left"
    },
    {
      "midi": 65,
      "time": 58.8,
      "duration": 0.45,
      "velocity": 0.77,
      "hand": "right"
    },
    {
      "midi": 53,
      "time": 58.95,
      "duration": 0.3,
      "velocity": 0.71,
      "hand": "left"
    },
    {
      "midi": 72,
      "time": 59.1,
      "duration": 0.45,
      "velocity": 0.77,
      "hand": "right"
    },
    {
      "midi": 50,
      "time": 59.25,
      "duration": 0.3,
      "velocity": 0.71,
      "hand": "left"
    },
    {
      "midi": 43,
      "time": 59.55,
      "duration": 0.3,
      "velocity": 0.71,
      "hand": "left"
    },
    {
      "midi": 71,
      "time": 59.55,
      "duration": 0.45,
      "velocity": 0.77,
      "hand": "right"
    },
    {
      "midi": 50,
      "time": 59.85,
      "duration": 0.3,
      "velocity": 0.71,
      "hand": "left"
    },
    {
      "midi": 66,
      "time": 60,
      "duration": 0.45,
      "velocity": 0.77,
      "hand": "right"
    },
    {
      "midi": 53,
      "time": 60.15,
      "duration": 0.3,
      "velocity": 0.71,
      "hand": "left"
    },
    {
      "midi": 67,
      "time": 60.3,
      "duration": 0.45,
      "velocity": 0.76,
      "hand": "right"
    },
    {
      "midi": 55,
      "time": 60.45,
      "duration": 0.3,
      "velocity": 0.71,
      "hand": "left"
    },
    {
      "midi": 59,
      "time": 60.75,
      "duration": 0.3,
      "velocity": 0.71,
      "hand": "left"
    },
    {
      "midi": 68,
      "time": 60.75,
      "duration": 0.45,
      "velocity": 0.75,
      "hand": "right"
    },
    {
      "midi": 55,
      "time": 61.05,
      "duration": 0.3,
      "velocity": 0.71,
      "hand": "left"
    },
    {
      "midi": 65,
      "time": 61.2,
      "duration": 0.45,
      "velocity": 0.73,
      "hand": "right"
    },
    {
      "midi": 53,
      "time": 61.35,
      "duration": 0.3,
      "velocity": 0.71,
      "hand": "left"
    },
    {
      "midi": 72,
      "time": 61.5,
      "duration": 0.45,
      "velocity": 0.72,
      "hand": "right"
    },
    {
      "midi": 50,
      "time": 61.65,
      "duration": 0.3,
      "velocity": 0.71,
      "hand": "left"
    },
    {
      "midi": 43,
      "time": 61.95,
      "duration": 0.3,
      "velocity": 0.71,
      "hand": "left"
    },
    {
      "midi": 71,
      "time": 61.95,
      "duration": 0.45,
      "velocity": 0.71,
      "hand": "right"
    },
    {
      "midi": 50,
      "time": 62.25,
      "duration": 0.3,
      "velocity": 0.71,
      "hand": "left"
    },
    {
      "midi": 66,
      "time": 62.4,
      "duration": 0.45,
      "velocity": 0.69,
      "hand": "right"
    },
    {
      "midi": 53,
      "time": 62.55,
      "duration": 0.3,
      "velocity": 0.71,
      "hand": "left"
    },
    {
      "midi": 67,
      "time": 62.7,
      "duration": 0.45,
      "velocity": 0.68,
      "hand": "right"
    },
    {
      "midi": 55,
      "time": 62.85,
      "duration": 0.3,
      "velocity": 0.71,
      "hand": "left"
    },
    {
      "midi": 59,
      "time": 63.15,
      "duration": 0.3,
      "velocity": 0.71,
      "hand": "left"
    },
    {
      "midi": 68,
      "time": 63.15,
      "duration": 0.45,
      "velocity": 0.66,
      "hand": "right"
    },
    {
      "midi": 55,
      "time": 63.45,
      "duration": 0.3,
      "velocity": 0.71,
      "hand": "left"
    },
    {
      "midi": 67,
      "time": 63.6,
      "duration": 0.45,
      "velocity": 0.65,
      "hand": "right"
    },
    {
      "midi": 53,
      "time": 63.75,
      "duration": 0.3,
      "velocity": 0.71,
      "hand": "left"
    },
    {
      "midi": 69,
      "time": 63.9,
      "duration": 0.45,
      "velocity": 0.64,
      "hand": "right"
    },
    {
      "midi": 50,
      "time": 64.05,
      "duration": 0.3,
      "velocity": 0.71,
      "hand": "left"
    },
    {
      "midi": 43,
      "time": 64.35,
      "duration": 0.3,
      "velocity": 0.71,
      "hand": "left"
    },
    {
      "midi": 72,
      "time": 64.35,
      "duration": 0.45,
      "velocity": 0.62,
      "hand": "right"
    },
    {
      "midi": 50,
      "time": 64.65,
      "duration": 0.3,
      "velocity": 0.71,
      "hand": "left"
    },
    {
      "midi": 71,
      "time": 64.8,
      "duration": 0.45,
      "velocity": 0.61,
      "hand": "right"
    },
    {
      "midi": 53,
      "time": 64.95,
      "duration": 0.3,
      "velocity": 0.71,
      "hand": "left"
    },
    {
      "midi": 72,
      "time": 65.1,
      "duration": 0.45,
      "velocity": 0.6,
      "hand": "right"
    },
    {
      "midi": 55,
      "time": 65.25,
      "duration": 0.3,
      "velocity": 0.71,
      "hand": "left"
    },
    {
      "midi": 59,
      "time": 65.55,
      "duration": 0.3,
      "velocity": 0.71,
      "hand": "left"
    },
    {
      "midi": 75,
      "time": 65.55,
      "duration": 0.45,
      "velocity": 0.58,
      "hand": "right"
    },
    {
      "midi": 55,
      "time": 65.85,
      "duration": 0.3,
      "velocity": 0.71,
      "hand": "left"
    },
    {
      "midi": 74,
      "time": 66,
      "duration": 0.45,
      "velocity": 0.57,
      "hand": "right"
    },
    {
      "midi": 53,
      "time": 66.15,
      "duration": 0.3,
      "velocity": 0.71,
      "hand": "left"
    },
    {
      "midi": 75,
      "time": 66.3,
      "duration": 0.45,
      "velocity": 0.56,
      "hand": "right"
    },
    {
      "midi": 50,
      "time": 66.45,
      "duration": 0.3,
      "velocity": 0.71,
      "hand": "left"
    },
    {
      "midi": 36,
      "time": 66.75,
      "duration": 0.3,
      "velocity": 0.71,
      "hand": "left"
    },
    {
      "midi": 72,
      "time": 66.75,
      "duration": 0.6,
      "velocity": 0.54,
      "hand": "right"
    },
    {
      "midi": 43,
      "time": 67.05,
      "duration": 0.3,
      "velocity": 0.71,
      "hand": "left"
    },
    {
      "midi": 48,
      "time": 67.35,
      "duration": 0.3,
      "velocity": 0.71,
      "hand": "left"
    },
    {
      "midi": 51,
      "time": 67.65,
      "duration": 0.3,
      "velocity": 0.71,
      "hand": "left"
    },
    {
      "midi": 60,
      "time": 67.95,
      "duration": 0.3,
      "velocity": 0.71,
      "hand": "left"
    },
    {
      "midi": 55,
      "time": 68.25,
      "duration": 0.3,
      "velocity": 0.71,
      "hand": "left"
    },
    {
      "midi": 51,
      "time": 68.55,
      "duration": 0.3,
      "velocity": 0.71,
      "hand": "left"
    },
    {
      "midi": 48,
      "time": 68.85,
      "duration": 0.3,
      "velocity": 0.71,
      "hand": "left"
    },
    {
      "midi": 36,
      "time": 69.15,
      "duration": 0.3,
      "velocity": 0.71,
      "hand": "left"
    },
    {
      "midi": 70,
      "time": 69.15,
      "duration": 0.45,
      "velocity": 0.54,
      "hand": "right"
    },
    {
      "midi": 43,
      "time": 69.45,
      "duration": 0.3,
      "velocity": 0.71,
      "hand": "left"
    },
    {
      "midi": 72,
      "time": 69.6,
      "duration": 0.45,
      "velocity": 0.54,
      "hand": "right"
    },
    {
      "midi": 48,
      "time": 69.75,
      "duration": 0.3,
      "velocity": 0.71,
      "hand": "left"
    },
    {
      "midi": 70,
      "time": 69.9,
      "duration": 0.45,
      "velocity": 0.54,
      "hand": "right"
    },
    {
      "midi": 51,
      "time": 70.05,
      "duration": 0.3,
      "velocity": 0.71,
      "hand": "left"
    },
    {
      "midi": 55,
      "time": 70.35,
      "duration": 0.3,
      "velocity": 0.71,
      "hand": "left"
    },
    {
      "midi": 72,
      "time": 70.35,
      "duration": 0.45,
      "velocity": 0.54,
      "hand": "right"
    },
    {
      "midi": 51,
      "time": 70.65,
      "duration": 0.3,
      "velocity": 0.71,
      "hand": "left"
    },
    {
      "midi": 70,
      "time": 70.8,
      "duration": 0.45,
      "velocity": 0.54,
      "hand": "right"
    },
    {
      "midi": 48,
      "time": 70.95,
      "duration": 0.3,
      "velocity": 0.71,
      "hand": "left"
    },
    {
      "midi": 72,
      "time": 71.1,
      "duration": 0.45,
      "velocity": 0.54,
      "hand": "right"
    },
    {
      "midi": 43,
      "time": 71.25,
      "duration": 0.3,
      "velocity": 0.71,
      "hand": "left"
    },
    {
      "midi": 36,
      "time": 71.55,
      "duration": 0.3,
      "velocity": 0.71,
      "hand": "left"
    },
    {
      "midi": 68,
      "time": 71.55,
      "duration": 0.45,
      "velocity": 0.54,
      "hand": "right"
    },
    {
      "midi": 44,
      "time": 71.85,
      "duration": 0.3,
      "velocity": 0.71,
      "hand": "left"
    },
    {
      "midi": 70,
      "time": 72,
      "duration": 0.45,
      "velocity": 0.54,
      "hand": "right"
    },
    {
      "midi": 48,
      "time": 72.15,
      "duration": 0.3,
      "velocity": 0.71,
      "hand": "left"
    },
    {
      "midi": 68,
      "time": 72.3,
      "duration": 0.45,
      "velocity": 0.57,
      "hand": "right"
    },
    {
      "midi": 51,
      "time": 72.45,
      "duration": 0.3,
      "velocity": 0.71,
      "hand": "left"
    },
    {
      "midi": 56,
      "time": 72.75,
      "duration": 0.3,
      "velocity": 0.71,
      "hand": "left"
    },
    {
      "midi": 70,
      "time": 72.75,
      "duration": 0.45,
      "velocity": 0.59,
      "hand": "right"
    },
    {
      "midi": 51,
      "time": 73.05,
      "duration": 0.3,
      "velocity": 0.71,
      "hand": "left"
    },
    {
      "midi": 68,
      "time": 73.2,
      "duration": 0.45,
      "velocity": 0.61,
      "hand": "right"
    },
    {
      "midi": 48,
      "time": 73.35,
      "duration": 0.3,
      "velocity": 0.71,
      "hand": "left"
    },
    {
      "midi": 70,
      "time": 73.5,
      "duration": 0.45,
      "velocity": 0.63,
      "hand": "right"
    },
    {
      "midi": 44,
      "time": 73.65,
      "duration": 0.3,
      "velocity": 0.71,
      "hand": "left"
    },
    {
      "midi": 36,
      "time": 73.95,
      "duration": 0.3,
      "velocity": 0.71,
      "hand": "left"
    },
    {
      "midi": 66,
      "time": 73.95,
      "duration": 0.45,
      "velocity": 0.65,
      "hand": "right"
    },
    {
      "midi": 44,
      "time": 74.25,
      "duration": 0.3,
      "velocity": 0.71,
      "hand": "left"
    },
    {
      "midi": 68,
      "time": 74.4,
      "duration": 0.45,
      "velocity": 0.67,
      "hand": "right"
    },
    {
      "midi": 48,
      "time": 74.55,
      "duration": 0.3,
      "velocity": 0.71,
      "hand": "left"
    },
    {
      "midi": 66,
      "time": 74.7,
      "duration": 0.45,
      "velocity": 0.69,
      "hand": "right"
    },
    {
      "midi": 51,
      "time": 74.85,
      "duration": 0.3,
      "velocity": 0.71,
      "hand": "left"
    },
    {
      "midi": 56,
      "time": 75.15,
      "duration": 0.3,
      "velocity": 0.71,
      "hand": "left"
    },
    {
      "midi": 68,
      "time": 75.15,
      "duration": 0.45,
      "velocity": 0.71,
      "hand": "right"
    },
    {
      "midi": 51,
      "time": 75.45,
      "duration": 0.3,
      "velocity": 0.71,
      "hand": "left"
    },
    {
      "midi": 66,
      "time": 75.6,
      "duration": 0.45,
      "velocity": 0.73,
      "hand": "right"
    },
    {
      "midi": 48,
      "time": 75.75,
      "duration": 0.3,
      "velocity": 0.71,
      "hand": "left"
    },
    {
      "midi": 68,
      "time": 75.9,
      "duration": 0.45,
      "velocity": 0.75,
      "hand": "right"
    },
    {
      "midi": 44,
      "time": 76.05,
      "duration": 0.3,
      "velocity": 0.71,
      "hand": "left"
    },
    {
      "midi": 37,
      "time": 76.35,
      "duration": 0.3,
      "velocity": 0.71,
      "hand": "left"
    },
    {
      "midi": 65,
      "time": 76.35,
      "duration": 0.45,
      "velocity": 0.77,
      "hand": "right"
    },
    {
      "midi": 44,
      "time": 76.65,
      "duration": 0.3,
      "velocity": 0.71,
      "hand": "left"
    },
    {
      "midi": 77,
      "time": 76.8,
      "duration": 0.45,
      "velocity": 0.77,
      "hand": "right"
    },
    {
      "midi": 49,
      "time": 76.95,
      "duration": 0.3,
      "velocity": 0.71,
      "hand": "left"
    },
    {
      "midi": 75,
      "time": 77.1,
      "duration": 0.45,
      "velocity": 0.77,
      "hand": "right"
    },
    {
      "midi": 53,
      "time": 77.25,
      "duration": 0.3,
      "velocity": 0.71,
      "hand": "left"
    },
    {
      "midi": 56,
      "time": 77.55,
      "duration": 0.3,
      "velocity": 0.71,
      "hand": "left"
    },
    {
      "midi": 73,
      "time": 77.55,
      "duration": 0.45,
      "velocity": 0.77,
      "hand": "right"
    },
    {
      "midi": 53,
      "time": 77.85,
      "duration": 0.3,
      "velocity": 0.71,
      "hand": "left"
    },
    {
      "midi": 68,
      "time": 78,
      "duration": 0.45,
      "velocity": 0.77,
      "hand": "right"
    },
    {
      "midi": 49,
      "time": 78.15,
      "duration": 0.3,
      "velocity": 0.71,
      "hand": "left"
    },
    {
      "midi": 70,
      "time": 78.3,
      "duration": 0.45,
      "velocity": 0.77,
      "hand": "right"
    },
    {
      "midi": 44,
      "time": 78.45,
      "duration": 0.3,
      "velocity": 0.71,
      "hand": "left"
    },
    {
      "midi": 37,
      "time": 78.75,
      "duration": 0.3,
      "velocity": 0.71,
      "hand": "left"
    },
    {
      "midi": 71,
      "time": 78.75,
      "duration": 0.45,
      "velocity": 0.77,
      "hand": "right"
    },
    {
      "midi": 44,
      "time": 79.05,
      "duration": 0.3,
      "velocity": 0.71,
      "hand": "left"
    },
    {
      "midi": 82,
      "time": 79.2,
      "duration": 0.45,
      "velocity": 0.82,
      "hand": "right"
    },
    {
      "midi": 49,
      "time": 79.35,
      "duration": 0.3,
      "velocity": 0.71,
      "hand": "left"
    },
    {
      "midi": 80,
      "time": 79.5,
      "duration": 0.45,
      "velocity": 0.86,
      "hand": "right"
    },
    {
      "midi": 53,
      "time": 79.65,
      "duration": 0.3,
      "velocity": 0.71,
      "hand": "left"
    },
    {
      "midi": 56,
      "time": 79.95,
      "duration": 0.3,
      "velocity": 0.71,
      "hand": "left"
    },
    {
      "midi": 78,
      "time": 79.95,
      "duration": 0.45,
      "velocity": 0.91,
      "hand": "right"
    },
    {
      "midi": 53,
      "time": 80.25,
      "duration": 0.3,
      "velocity": 0.71,
      "hand": "left"
    },
    {
      "midi": 75,
      "time": 80.4,
      "duration": 0.45,
      "velocity": 0.95,
      "hand": "right"
    },
    {
      "midi": 49,
      "time": 80.55,
      "duration": 0.3,
      "velocity": 0.71,
      "hand": "left"
    },
    {
      "midi": 78,
      "time": 80.7,
      "duration": 0.45,
      "velocity": 1,
      "hand": "right"
    },
    {
      "midi": 44,
      "time": 80.85,
      "duration": 0.3,
      "velocity": 0.71,
      "hand": "left"
    },
    {
      "midi": 37,
      "time": 81.15,
      "duration": 0.3,
      "velocity": 0.71,
      "hand": "left"
    },
    {
      "midi": 68,
      "time": 81.15,
      "duration": 0.45,
      "velocity": 1,
      "hand": "right"
    },
    {
      "midi": 44,
      "time": 81.45,
      "duration": 0.3,
      "velocity": 0.71,
      "hand": "left"
    },
    {
      "midi": 78,
      "time": 81.6,
      "duration": 0.45,
      "velocity": 1,
      "hand": "right"
    },
    {
      "midi": 49,
      "time": 81.75,
      "duration": 0.3,
      "velocity": 0.71,
      "hand": "left"
    },
    {
      "midi": 77,
      "time": 81.9,
      "duration": 0.45,
      "velocity": 1,
      "hand": "right"
    },
    {
      "midi": 53,
      "time": 82.05,
      "duration": 0.3,
      "velocity": 0.71,
      "hand": "left"
    },
    {
      "midi": 56,
      "time": 82.35,
      "duration": 0.3,
      "velocity": 0.71,
      "hand": "left"
    },
    {
      "midi": 75,
      "time": 82.35,
      "duration": 0.45,
      "velocity": 1,
      "hand": "right"
    },
    {
      "midi": 53,
      "time": 82.65,
      "duration": 0.3,
      "velocity": 0.71,
      "hand": "left"
    },
    {
      "midi": 71,
      "time": 82.8,
      "duration": 0.45,
      "velocity": 1,
      "hand": "right"
    },
    {
      "midi": 49,
      "time": 82.95,
      "duration": 0.3,
      "velocity": 0.71,
      "hand": "left"
    },
    {
      "midi": 75,
      "time": 83.1,
      "duration": 0.45,
      "velocity": 1,
      "hand": "right"
    },
    {
      "midi": 44,
      "time": 83.25,
      "duration": 0.3,
      "velocity": 0.71,
      "hand": "left"
    },
    {
      "midi": 37,
      "time": 83.55,
      "duration": 0.3,
      "velocity": 0.71,
      "hand": "left"
    },
    {
      "midi": 65,
      "time": 83.55,
      "duration": 0.45,
      "velocity": 1,
      "hand": "right"
    },
    {
      "midi": 44,
      "time": 83.85,
      "duration": 0.3,
      "velocity": 0.71,
      "hand": "left"
    },
    {
      "midi": 75,
      "time": 84,
      "duration": 0.45,
      "velocity": 1,
      "hand": "right"
    },
    {
      "midi": 49,
      "time": 84.15,
      "duration": 0.3,
      "velocity": 0.71,
      "hand": "left"
    },
    {
      "midi": 73,
      "time": 84.3,
      "duration": 0.45,
      "velocity": 1,
      "hand": "right"
    },
    {
      "midi": 53,
      "time": 84.45,
      "duration": 0.3,
      "velocity": 0.71,
      "hand": "left"
    },
    {
      "midi": 56,
      "time": 84.75,
      "duration": 0.3,
      "velocity": 0.71,
      "hand": "left"
    },
    {
      "midi": 71,
      "time": 84.75,
      "duration": 0.45,
      "velocity": 0.92,
      "hand": "right"
    },
    {
      "midi": 53,
      "time": 85.05,
      "duration": 0.3,
      "velocity": 0.71,
      "hand": "left"
    },
    {
      "midi": 68,
      "time": 85.2,
      "duration": 0.45,
      "velocity": 0.84,
      "hand": "right"
    },
    {
      "midi": 49,
      "time": 85.35,
      "duration": 0.3,
      "velocity": 0.71,
      "hand": "left"
    },
    {
      "midi": 71,
      "time": 85.5,
      "duration": 0.45,
      "velocity": 0.77,
      "hand": "right"
    },
    {
      "midi": 44,
      "time": 85.65,
      "duration": 0.3,
      "velocity": 0.71,
      "hand": "left"
    },
    {
      "midi": 38,
      "time": 85.95,
      "duration": 0.3,
      "velocity": 0.71,
      "hand": "left"
    },
    {
      "midi": 58,
      "time": 85.95,
      "duration": 0.45,
      "velocity": 0.77,
      "hand": "right"
    },
    {
      "midi": 44,
      "time": 86.25,
      "duration": 0.3,
      "velocity": 0.71,
      "hand": "left"
    },
    {
      "midi": 65,
      "time": 86.4,
      "duration": 0.45,
      "velocity": 0.77,
      "hand": "right"
    },
    {
      "midi": 46,
      "time": 86.55,
      "duration": 0.3,
      "velocity": 0.71,
      "hand": "left"
    },
    {
      "midi": 64,
      "time": 86.7,
      "duration": 0.45,
      "velocity": 0.78,
      "hand": "right"
    },
    {
      "midi": 53,
      "time": 86.85,
      "duration": 0.3,
      "velocity": 0.71,
      "hand": "left"
    },
    {
      "midi": 56,
      "time": 87.15,
      "duration": 0.3,
      "velocity": 0.71,
      "hand": "left"
    },
    {
      "midi": 63,
      "time": 87.15,
      "duration": 0.45,
      "velocity": 0.8,
      "hand": "right"
    },
    {
      "midi": 53,
      "time": 87.45,
      "duration": 0.3,
      "velocity": 0.71,
      "hand": "left"
    },
    {
      "midi": 62,
      "time": 87.6,
      "duration": 0.45,
      "velocity": 0.8,
      "hand": "right"
    },
    {
      "midi": 46,
      "time": 87.75,
      "duration": 0.3,
      "velocity": 0.71,
      "hand": "left"
    },
    {
      "midi": 65,
      "time": 87.9,
      "duration": 0.45,
      "velocity": 0.81,
      "hand": "right"
    },
    {
      "midi": 44,
      "time": 88.05,
      "duration": 0.3,
      "velocity": 0.71,
      "hand": "left"
    },
    {
      "midi": 38,
      "time": 88.35,
      "duration": 0.3,
      "velocity": 0.71,
      "hand": "left"
    },
    {
      "midi": 58,
      "time": 88.35,
      "duration": 0.45,
      "velocity": 0.82,
      "hand": "right"
    },
    {
      "midi": 46,
      "time": 88.65,
      "duration": 0.3,
      "velocity": 0.71,
      "hand": "left"
    },
    {
      "midi": 71,
      "time": 88.8,
      "duration": 0.45,
      "velocity": 0.83,
      "hand": "right"
    },
    {
      "midi": 53,
      "time": 88.95,
      "duration": 0.3,
      "velocity": 0.71,
      "hand": "left"
    },
    {
      "midi": 70,
      "time": 89.1,
      "duration": 0.45,
      "velocity": 0.84,
      "hand": "right"
    },
    {
      "midi": 56,
      "time": 89.25,
      "duration": 0.3,
      "velocity": 0.71,
      "hand": "left"
    },
    {
      "midi": 58,
      "time": 89.55,
      "duration": 0.3,
      "velocity": 0.71,
      "hand": "left"
    },
    {
      "midi": 69,
      "time": 89.55,
      "duration": 0.45,
      "velocity": 0.85,
      "hand": "right"
    },
    {
      "midi": 56,
      "time": 89.85,
      "duration": 0.3,
      "velocity": 0.71,
      "hand": "left"
    },
    {
      "midi": 68,
      "time": 90,
      "duration": 0.45,
      "velocity": 0.87,
      "hand": "right"
    },
    {
      "midi": 53,
      "time": 90.15,
      "duration": 0.3,
      "velocity": 0.71,
      "hand": "left"
    },
    {
      "midi": 77,
      "time": 90.3,
      "duration": 0.45,
      "velocity": 0.87,
      "hand": "right"
    },
    {
      "midi": 46,
      "time": 90.45,
      "duration": 0.285,
      "velocity": 0.71,
      "hand": "left"
    },
    {
      "midi": 46,
      "time": 90.75,
      "duration": 0.285,
      "velocity": 0.71,
      "hand": "left"
    },
    {
      "midi": 75,
      "time": 90.75,
      "duration": 0.45,
      "velocity": 0.88,
      "hand": "right"
    },
    {
      "midi": 46,
      "time": 91.05,
      "duration": 0.3,
      "velocity": 0.71,
      "hand": "left"
    },
    {
      "midi": 74,
      "time": 91.2,
      "duration": 0.45,
      "velocity": 0.9,
      "hand": "right"
    },
    {
      "midi": 53,
      "time": 91.35,
      "duration": 0.3,
      "velocity": 0.71,
      "hand": "left"
    },
    {
      "midi": 83,
      "time": 91.5,
      "duration": 0.45,
      "velocity": 0.91,
      "hand": "right"
    },
    {
      "midi": 56,
      "time": 91.65,
      "duration": 0.3,
      "velocity": 0.71,
      "hand": "left"
    },
    {
      "midi": 58,
      "time": 91.95,
      "duration": 0.3,
      "velocity": 0.71,
      "hand": "left"
    },
    {
      "midi": 82,
      "time": 91.95,
      "duration": 0.45,
      "velocity": 0.91,
      "hand": "right"
    },
    {
      "midi": 56,
      "time": 92.25,
      "duration": 0.3,
      "velocity": 0.71,
      "hand": "left"
    },
    {
      "midi": 81,
      "time": 92.4,
      "duration": 0.45,
      "velocity": 0.92,
      "hand": "right"
    },
    {
      "midi": 53,
      "time": 92.55,
      "duration": 0.3,
      "velocity": 0.71,
      "hand": "left"
    },
    {
      "midi": 80,
      "time": 92.7,
      "duration": 0.45,
      "velocity": 0.94,
      "hand": "right"
    },
    {
      "midi": 46,
      "time": 92.85,
      "duration": 0.3,
      "velocity": 0.71,
      "hand": "left"
    },
    {
      "midi": 38,
      "time": 93.15,
      "duration": 0.3,
      "velocity": 0.71,
      "hand": "left"
    },
    {
      "midi": 77,
      "time": 93.15,
      "duration": 0.45,
      "velocity": 0.94,
      "hand": "right"
    },
    {
      "midi": 46,
      "time": 93.45,
      "duration": 0.3,
      "velocity": 0.71,
      "hand": "left"
    },
    {
      "midi": 73,
      "time": 93.6,
      "duration": 0.45,
      "velocity": 0.95,
      "hand": "right"
    },
    {
      "midi": 53,
      "time": 93.75,
      "duration": 0.3,
      "velocity": 0.71,
      "hand": "left"
    },
    {
      "midi": 71,
      "time": 93.9,
      "duration": 0.45,
      "velocity": 0.97,
      "hand": "right"
    },
    {
      "midi": 56,
      "time": 94.05,
      "duration": 0.3,
      "velocity": 0.71,
      "hand": "left"
    },
    {
      "midi": 58,
      "time": 94.35,
      "duration": 0.3,
      "velocity": 0.71,
      "hand": "left"
    },
    {
      "midi": 70,
      "time": 94.35,
      "duration": 0.45,
      "velocity": 0.98,
      "hand": "right"
    },
    {
      "midi": 56,
      "time": 94.65,
      "duration": 0.3,
      "velocity": 0.71,
      "hand": "left"
    },
    {
      "midi": 61,
      "time": 94.8,
      "duration": 0.45,
      "velocity": 0.98,
      "hand": "right"
    },
    {
      "midi": 53,
      "time": 94.95,
      "duration": 0.3,
      "velocity": 0.71,
      "hand": "left"
    },
    {
      "midi": 59,
      "time": 95.1,
      "duration": 0.45,
      "velocity": 1,
      "hand": "right"
    },
    {
      "midi": 46,
      "time": 95.25,
      "duration": 0.3,
      "velocity": 0.71,
      "hand": "left"
    },
    {
      "midi": 39,
      "time": 95.55,
      "duration": 0.3,
      "velocity": 0.71,
      "hand": "left"
    },
    {
      "midi": 58,
      "time": 95.55,
      "duration": 0.45,
      "velocity": 0.75,
      "hand": "right"
    },
    {
      "midi": 46,
      "time": 95.85,
      "duration": 0.3,
      "velocity": 0.71,
      "hand": "left"
    },
    {
      "midi": 62,
      "time": 96,
      "duration": 0.45,
      "velocity": 0.75,
      "hand": "right"
    },
    {
      "midi": 51,
      "time": 96.15,
      "duration": 0.3,
      "velocity": 0.71,
      "hand": "left"
    },
    {
      "midi": 63,
      "time": 96.3,
      "duration": 0.45,
      "velocity": 0.75,
      "hand": "right"
    },
    {
      "midi": 54,
      "time": 96.45,
      "duration": 0.3,
      "velocity": 0.71,
      "hand": "left"
    },
    {
      "midi": 58,
      "time": 96.75,
      "duration": 0.3,
      "velocity": 0.71,
      "hand": "left"
    },
    {
      "midi": 65,
      "time": 96.75,
      "duration": 0.45,
      "velocity": 0.75,
      "hand": "right"
    },
    {
      "midi": 54,
      "time": 97.05,
      "duration": 0.3,
      "velocity": 0.71,
      "hand": "left"
    },
    {
      "midi": 66,
      "time": 97.2,
      "duration": 0.45,
      "velocity": 0.75,
      "hand": "right"
    },
    {
      "midi": 51,
      "time": 97.35,
      "duration": 0.3,
      "velocity": 0.71,
      "hand": "left"
    },
    {
      "midi": 69,
      "time": 97.5,
      "duration": 0.45,
      "velocity": 0.75,
      "hand": "right"
    },
    {
      "midi": 46,
      "time": 97.65,
      "duration": 0.3,
      "velocity": 0.71,
      "hand": "left"
    },
    {
      "midi": 38,
      "time": 97.95,
      "duration": 0.3,
      "velocity": 0.71,
      "hand": "left"
    },
    {
      "midi": 70,
      "time": 97.95,
      "duration": 0.45,
      "velocity": 0.75,
      "hand": "right"
    },
    {
      "midi": 46,
      "time": 98.25,
      "duration": 0.3,
      "velocity": 0.71,
      "hand": "left"
    },
    {
      "midi": 71,
      "time": 98.4,
      "duration": 0.45,
      "velocity": 0.75,
      "hand": "right"
    },
    {
      "midi": 53,
      "time": 98.55,
      "duration": 0.3,
      "velocity": 0.71,
      "hand": "left"
    },
    {
      "midi": 69,
      "time": 98.7,
      "duration": 0.45,
      "velocity": 0.75,
      "hand": "right"
    },
    {
      "midi": 56,
      "time": 98.85,
      "duration": 0.3,
      "velocity": 0.71,
      "hand": "left"
    },
    {
      "midi": 58,
      "time": 99.15,
      "duration": 0.3,
      "velocity": 0.71,
      "hand": "left"
    },
    {
      "midi": 70,
      "time": 99.15,
      "duration": 0.45,
      "velocity": 0.75,
      "hand": "right"
    },
    {
      "midi": 56,
      "time": 99.45,
      "duration": 0.3,
      "velocity": 0.71,
      "hand": "left"
    },
    {
      "midi": 61,
      "time": 99.6,
      "duration": 0.45,
      "velocity": 0.75,
      "hand": "right"
    },
    {
      "midi": 53,
      "time": 99.75,
      "duration": 0.3,
      "velocity": 0.71,
      "hand": "left"
    },
    {
      "midi": 59,
      "time": 99.9,
      "duration": 0.45,
      "velocity": 0.75,
      "hand": "right"
    },
    {
      "midi": 46,
      "time": 100.05,
      "duration": 0.3,
      "velocity": 0.71,
      "hand": "left"
    },
    {
      "midi": 39,
      "time": 100.35,
      "duration": 0.3,
      "velocity": 0.71,
      "hand": "left"
    },
    {
      "midi": 58,
      "time": 100.35,
      "duration": 0.45,
      "velocity": 0.75,
      "hand": "right"
    },
    {
      "midi": 46,
      "time": 100.65,
      "duration": 0.3,
      "velocity": 0.71,
      "hand": "left"
    },
    {
      "midi": 62,
      "time": 100.8,
      "duration": 0.45,
      "velocity": 0.75,
      "hand": "right"
    },
    {
      "midi": 51,
      "time": 100.95,
      "duration": 0.3,
      "velocity": 0.71,
      "hand": "left"
    },
    {
      "midi": 65,
      "time": 101.1,
      "duration": 0.45,
      "velocity": 0.75,
      "hand": "right"
    },
    {
      "midi": 54,
      "time": 101.25,
      "duration": 0.3,
      "velocity": 0.71,
      "hand": "left"
    },
    {
      "midi": 58,
      "time": 101.55,
      "duration": 0.3,
      "velocity": 0.71,
      "hand": "left"
    },
    {
      "midi": 63,
      "time": 101.55,
      "duration": 0.45,
      "velocity": 0.75,
      "hand": "right"
    },
    {
      "midi": 54,
      "time": 101.85,
      "duration": 0.3,
      "velocity": 0.71,
      "hand": "left"
    },
    {
      "midi": 75,
      "time": 102,
      "duration": 0.45,
      "velocity": 0.75,
      "hand": "right"
    },
    {
      "midi": 51,
      "time": 102.15,
      "duration": 0.3,
      "velocity": 0.71,
      "hand": "left"
    },
    {
      "midi": 69,
      "time": 102.3,
      "duration": 0.45,
      "velocity": 0.75,
      "hand": "right"
    },
    {
      "midi": 46,
      "time": 102.45,
      "duration": 0.3,
      "velocity": 0.71,
      "hand": "left"
    },
    {
      "midi": 38,
      "time": 102.75,
      "duration": 0.3,
      "velocity": 0.71,
      "hand": "left"
    },
    {
      "midi": 70,
      "time": 102.75,
      "duration": 0.45,
      "velocity": 0.75,
      "hand": "right"
    },
    {
      "midi": 46,
      "time": 103.05,
      "duration": 0.3,
      "velocity": 0.71,
      "hand": "left"
    },
    {
      "midi": 73,
      "time": 103.2,
      "duration": 0.45,
      "velocity": 0.75,
      "hand": "right"
    },
    {
      "midi": 53,
      "time": 103.35,
      "duration": 0.3,
      "velocity": 0.71,
      "hand": "left"
    },
    {
      "midi": 71,
      "time": 103.5,
      "duration": 0.435,
      "velocity": 0.75,
      "hand": "right"
    },
    {
      "midi": 56,
      "time": 103.65,
      "duration": 0.3,
      "velocity": 0.71,
      "hand": "left"
    },
    {
      "midi": 58,
      "time": 103.95,
      "duration": 0.3,
      "velocity": 0.71,
      "hand": "left"
    },
    {
      "midi": 71,
      "time": 103.95,
      "duration": 0.45,
      "velocity": 0.75,
      "hand": "right"
    },
    {
      "midi": 56,
      "time": 104.25,
      "duration": 0.3,
      "velocity": 0.71,
      "hand": "left"
    },
    {
      "midi": 63,
      "time": 104.4,
      "duration": 0.45,
      "velocity": 0.75,
      "hand": "right"
    },
    {
      "midi": 53,
      "time": 104.55,
      "duration": 0.3,
      "velocity": 0.71,
      "hand": "left"
    },
    {
      "midi": 65,
      "time": 104.7,
      "duration": 0.45,
      "velocity": 0.75,
      "hand": "right"
    },
    {
      "midi": 46,
      "time": 104.85,
      "duration": 0.3,
      "velocity": 0.71,
      "hand": "left"
    },
    {
      "midi": 39,
      "time": 105.15,
      "duration": 0.3,
      "velocity": 0.71,
      "hand": "left"
    },
    {
      "midi": 66,
      "time": 105.15,
      "duration": 0.45,
      "velocity": 0.75,
      "hand": "right"
    },
    {
      "midi": 46,
      "time": 105.45,
      "duration": 0.3,
      "velocity": 0.71,
      "hand": "left"
    },
    {
      "midi": 62,
      "time": 105.6,
      "duration": 0.45,
      "velocity": 0.75,
      "hand": "right"
    },
    {
      "midi": 51,
      "time": 105.75,
      "duration": 0.3,
      "velocity": 0.71,
      "hand": "left"
    },
    {
      "midi": 63,
      "time": 105.9,
      "duration": 0.45,
      "velocity": 0.76,
      "hand": "right"
    },
    {
      "midi": 54,
      "time": 106.05,
      "duration": 0.3,
      "velocity": 0.71,
      "hand": "left"
    },
    {
      "midi": 58,
      "time": 106.35,
      "duration": 0.3,
      "velocity": 0.71,
      "hand": "left"
    },
    {
      "midi": 66,
      "time": 106.35,
      "duration": 0.45,
      "velocity": 0.76,
      "hand": "right"
    },
    {
      "midi": 54,
      "time": 106.65,
      "duration": 0.3,
      "velocity": 0.71,
      "hand": "left"
    },
    {
      "midi": 70,
      "time": 106.8,
      "duration": 0.45,
      "velocity": 0.77,
      "hand": "right"
    },
    {
      "midi": 51,
      "time": 106.95,
      "duration": 0.3,
      "velocity": 0.71,
      "hand": "left"
    },
    {
      "midi": 71,
      "time": 107.1,
      "duration": 0.45,
      "velocity": 0.79,
      "hand": "right"
    },
    {
      "midi": 46,
      "time": 107.25,
      "duration": 0.3,
      "velocity": 0.71,
      "hand": "left"
    },
    {
      "midi": 40,
      "time": 107.55,
      "duration": 0.3,
      "velocity": 0.71,
      "hand": "left"
    },
    {
      "midi": 72,
      "time": 107.55,
      "duration": 0.45,
      "velocity": 0.8,
      "hand": "right"
    },
    {
      "midi": 48,
      "time": 107.85,
      "duration": 0.3,
      "velocity": 0.71,
      "hand": "left"
    },
    {
      "midi": 73,
      "time": 108,
      "duration": 0.45,
      "velocity": 0.8,
      "hand": "right"
    },
    {
      "midi": 55,
      "time": 108.15,
      "duration": 0.3,
      "velocity": 0.71,
      "hand": "left"
    },
    {
      "midi": 71,
      "time": 108.3,
      "duration": 0.45,
      "velocity": 0.81,
      "hand": "right"
    },
    {
      "midi": 58,
      "time": 108.45,
      "duration": 0.3,
      "velocity": 0.71,
      "hand": "left"
    },
    {
      "midi": 60,
      "time": 108.75,
      "duration": 0.3,
      "velocity": 0.71,
      "hand": "left"
    },
    {
      "midi": 72,
      "time": 108.75,
      "duration": 0.45,
      "velocity": 0.83,
      "hand": "right"
    },
    {
      "midi": 58,
      "time": 109.05,
      "duration": 0.3,
      "velocity": 0.71,
      "hand": "left"
    },
    {
      "midi": 63,
      "time": 109.2,
      "duration": 0.45,
      "velocity": 0.83,
      "hand": "right"
    },
    {
      "midi": 55,
      "time": 109.35,
      "duration": 0.3,
      "velocity": 0.71,
      "hand": "left"
    },
    {
      "midi": 61,
      "time": 109.5,
      "duration": 0.45,
      "velocity": 0.84,
      "hand": "right"
    },
    {
      "midi": 48,
      "time": 109.65,
      "duration": 0.3,
      "velocity": 0.71,
      "hand": "left"
    },
    {
      "midi": 41,
      "time": 109.95,
      "duration": 0.3,
      "velocity": 0.71,
      "hand": "left"
    },
    {
      "midi": 60,
      "time": 109.95,
      "duration": 0.45,
      "velocity": 0.85,
      "hand": "right"
    },
    {
      "midi": 48,
      "time": 110.25,
      "duration": 0.3,
      "velocity": 0.71,
      "hand": "left"
    },
    {
      "midi": 64,
      "time": 110.4,
      "duration": 0.45,
      "velocity": 0.87,
      "hand": "right"
    },
    {
      "midi": 53,
      "time": 110.55,
      "duration": 0.3,
      "velocity": 0.71,
      "hand": "left"
    },
    {
      "midi": 66,
      "time": 110.7,
      "duration": 0.45,
      "velocity": 0.87,
      "hand": "right"
    },
    {
      "midi": 56,
      "time": 110.85,
      "duration": 0.3,
      "velocity": 0.71,
      "hand": "left"
    },
    {
      "midi": 60,
      "time": 111.15,
      "duration": 0.3,
      "velocity": 0.71,
      "hand": "left"
    },
    {
      "midi": 65,
      "time": 111.15,
      "duration": 0.45,
      "velocity": 0.88,
      "hand": "right"
    },
    {
      "midi": 56,
      "time": 111.45,
      "duration": 0.3,
      "velocity": 0.71,
      "hand": "left"
    },
    {
      "midi": 77,
      "time": 111.6,
      "duration": 0.45,
      "velocity": 0.89,
      "hand": "right"
    },
    {
      "midi": 53,
      "time": 111.75,
      "duration": 0.3,
      "velocity": 0.71,
      "hand": "left"
    },
    {
      "midi": 71,
      "time": 111.9,
      "duration": 0.45,
      "velocity": 0.91,
      "hand": "right"
    },
    {
      "midi": 48,
      "time": 112.05,
      "duration": 0.3,
      "velocity": 0.71,
      "hand": "left"
    },
    {
      "midi": 40,
      "time": 112.35,
      "duration": 0.3,
      "velocity": 0.71,
      "hand": "left"
    },
    {
      "midi": 72,
      "time": 112.35,
      "duration": 0.45,
      "velocity": 0.91,
      "hand": "right"
    },
    {
      "midi": 48,
      "time": 112.65,
      "duration": 0.3,
      "velocity": 0.71,
      "hand": "left"
    },
    {
      "midi": 75,
      "time": 112.8,
      "duration": 0.45,
      "velocity": 0.92,
      "hand": "right"
    },
    {
      "midi": 55,
      "time": 112.95,
      "duration": 0.3,
      "velocity": 0.71,
      "hand": "left"
    },
    {
      "midi": 73,
      "time": 113.1,
      "duration": 0.45,
      "velocity": 0.93,
      "hand": "right"
    },
    {
      "midi": 58,
      "time": 113.25,
      "duration": 0.3,
      "velocity": 0.71,
      "hand": "left"
    },
    {
      "midi": 60,
      "time": 113.55,
      "duration": 0.3,
      "velocity": 0.71,
      "hand": "left"
    },
    {
      "midi": 72,
      "time": 113.55,
      "duration": 0.45,
      "velocity": 0.94,
      "hand": "right"
    },
    {
      "midi": 58,
      "time": 113.85,
      "duration": 0.3,
      "velocity": 0.71,
      "hand": "left"
    },
    {
      "midi": 67,
      "time": 114,
      "duration": 0.45,
      "velocity": 0.95,
      "hand": "right"
    },
    {
      "midi": 55,
      "time": 114.15,
      "duration": 0.3,
      "velocity": 0.71,
      "hand": "left"
    },
    {
      "midi": 70,
      "time": 114.3,
      "duration": 0.45,
      "velocity": 0.96,
      "hand": "right"
    },
    {
      "midi": 48,
      "time": 114.45,
      "duration": 0.3,
      "velocity": 0.71,
      "hand": "left"
    },
    {
      "midi": 41,
      "time": 114.75,
      "duration": 0.3,
      "velocity": 0.71,
      "hand": "left"
    },
    {
      "midi": 69,
      "time": 114.75,
      "duration": 0.45,
      "velocity": 0.97,
      "hand": "right"
    },
    {
      "midi": 48,
      "time": 115.05,
      "duration": 0.3,
      "velocity": 0.71,
      "hand": "left"
    },
    {
      "midi": 64,
      "time": 115.2,
      "duration": 0.45,
      "velocity": 0.5,
      "hand": "right"
    },
    {
      "midi": 51,
      "time": 115.35,
      "duration": 0.3,
      "velocity": 0.71,
      "hand": "left"
    },
    {
      "midi": 65,
      "time": 115.5,
      "duration": 0.45,
      "velocity": 0.5,
      "hand": "right"
    },
    {
      "midi": 57,
      "time": 115.65,
      "duration": 0.3,
      "velocity": 0.71,
      "hand": "left"
    },
    {
      "midi": 60,
      "time": 115.95,
      "duration": 0.3,
      "velocity": 0.71,
      "hand": "left"
    },
    {
      "midi": 66,
      "time": 115.95,
      "duration": 0.45,
      "velocity": 0.5,
      "hand": "right"
    },
    {
      "midi": 57,
      "time": 116.25,
      "duration": 0.3,
      "velocity": 0.71,
      "hand": "left"
    },
    {
      "midi": 63,
      "time": 116.4,
      "duration": 0.45,
      "velocity": 0.5,
      "hand": "right"
    },
    {
      "midi": 51,
      "time": 116.55,
      "duration": 0.3,
      "velocity": 0.71,
      "hand": "left"
    },
    {
      "midi": 70,
      "time": 116.7,
      "duration": 0.45,
      "velocity": 0.5,
      "hand": "right"
    },
    {
      "midi": 48,
      "time": 116.85,
      "duration": 0.3,
      "velocity": 0.71,
      "hand": "left"
    },
    {
      "midi": 41,
      "time": 117.15,
      "duration": 0.3,
      "velocity": 0.71,
      "hand": "left"
    },
    {
      "midi": 69,
      "time": 117.15,
      "duration": 0.45,
      "velocity": 0.5,
      "hand": "right"
    },
    {
      "midi": 48,
      "time": 117.45,
      "duration": 0.3,
      "velocity": 0.71,
      "hand": "left"
    },
    {
      "midi": 64,
      "time": 117.6,
      "duration": 0.45,
      "velocity": 0.5,
      "hand": "right"
    },
    {
      "midi": 51,
      "time": 117.75,
      "duration": 0.3,
      "velocity": 0.71,
      "hand": "left"
    },
    {
      "midi": 65,
      "time": 117.9,
      "duration": 0.45,
      "velocity": 0.5,
      "hand": "right"
    },
    {
      "midi": 57,
      "time": 118.05,
      "duration": 0.3,
      "velocity": 0.71,
      "hand": "left"
    },
    {
      "midi": 60,
      "time": 118.35,
      "duration": 0.3,
      "velocity": 0.71,
      "hand": "left"
    },
    {
      "midi": 66,
      "time": 118.35,
      "duration": 0.45,
      "velocity": 0.5,
      "hand": "right"
    },
    {
      "midi": 57,
      "time": 118.65,
      "duration": 0.3,
      "velocity": 0.71,
      "hand": "left"
    },
    {
      "midi": 63,
      "time": 118.8,
      "duration": 0.45,
      "velocity": 0.5,
      "hand": "right"
    },
    {
      "midi": 51,
      "time": 118.95,
      "duration": 0.3,
      "velocity": 0.71,
      "hand": "left"
    },
    {
      "midi": 72,
      "time": 119.1,
      "duration": 0.45,
      "velocity": 0.5,
      "hand": "right"
    },
    {
      "midi": 48,
      "time": 119.25,
      "duration": 0.3,
      "velocity": 0.71,
      "hand": "left"
    },
    {
      "midi": 41,
      "time": 119.55,
      "duration": 0.3,
      "velocity": 0.71,
      "hand": "left"
    },
    {
      "midi": 71,
      "time": 119.55,
      "duration": 0.45,
      "velocity": 0.5,
      "hand": "right"
    },
    {
      "midi": 50,
      "time": 119.85,
      "duration": 0.3,
      "velocity": 0.71,
      "hand": "left"
    },
    {
      "midi": 66,
      "time": 120,
      "duration": 0.45,
      "velocity": 0.75,
      "hand": "right"
    },
    {
      "midi": 55,
      "time": 120.15,
      "duration": 0.3,
      "velocity": 0.71,
      "hand": "left"
    },
    {
      "midi": 67,
      "time": 120.3,
      "duration": 0.45,
      "velocity": 0.75,
      "hand": "right"
    },
    {
      "midi": 59,
      "time": 120.45,
      "duration": 0.3,
      "velocity": 0.71,
      "hand": "left"
    },
    {
      "midi": 62,
      "time": 120.75,
      "duration": 0.3,
      "velocity": 0.71,
      "hand": "left"
    },
    {
      "midi": 68,
      "time": 120.75,
      "duration": 0.45,
      "velocity": 0.77,
      "hand": "right"
    },
    {
      "midi": 59,
      "time": 121.05,
      "duration": 0.3,
      "velocity": 0.71,
      "hand": "left"
    },
    {
      "midi": 65,
      "time": 121.2,
      "duration": 0.45,
      "velocity": 0.8,
      "hand": "right"
    },
    {
      "midi": 55,
      "time": 121.35,
      "duration": 0.3,
      "velocity": 0.71,
      "hand": "left"
    },
    {
      "midi": 72,
      "time": 121.5,
      "duration": 0.45,
      "velocity": 0.82,
      "hand": "right"
    },
    {
      "midi": 50,
      "time": 121.65,
      "duration": 0.3,
      "velocity": 0.71,
      "hand": "left"
    },
    {
      "midi": 41,
      "time": 121.95,
      "duration": 0.3,
      "velocity": 0.71,
      "hand": "left"
    },
    {
      "midi": 71,
      "time": 121.95,
      "duration": 0.45,
      "velocity": 0.84,
      "hand": "right"
    },
    {
      "midi": 50,
      "time": 122.25,
      "duration": 0.3,
      "velocity": 0.71,
      "hand": "left"
    },
    {
      "midi": 66,
      "time": 122.4,
      "duration": 0.45,
      "velocity": 0.87,
      "hand": "right"
    },
    {
      "midi": 53,
      "time": 122.55,
      "duration": 0.3,
      "velocity": 0.71,
      "hand": "left"
    },
    {
      "midi": 67,
      "time": 122.7,
      "duration": 0.45,
      "velocity": 0.9,
      "hand": "right"
    },
    {
      "midi": 55,
      "time": 122.85,
      "duration": 0.3,
      "velocity": 0.71,
      "hand": "left"
    },
    {
      "midi": 59,
      "time": 123.15,
      "duration": 0.3,
      "velocity": 0.71,
      "hand": "left"
    },
    {
      "midi": 68,
      "time": 123.15,
      "duration": 0.45,
      "velocity": 0.92,
      "hand": "right"
    },
    {
      "midi": 55,
      "time": 123.45,
      "duration": 0.3,
      "velocity": 0.71,
      "hand": "left"
    },
    {
      "midi": 65,
      "time": 123.6,
      "duration": 0.45,
      "velocity": 0.94,
      "hand": "right"
    },
    {
      "midi": 53,
      "time": 123.75,
      "duration": 0.3,
      "velocity": 0.71,
      "hand": "left"
    },
    {
      "midi": 80,
      "time": 123.9,
      "duration": 0.45,
      "velocity": 0.97,
      "hand": "right"
    },
    {
      "midi": 50,
      "time": 124.05,
      "duration": 0.3,
      "velocity": 0.71,
      "hand": "left"
    },
    {
      "midi": 41,
      "time": 124.35,
      "duration": 0.3,
      "velocity": 0.71,
      "hand": "left"
    },
    {
      "midi": 79,
      "time": 124.35,
      "duration": 0.45,
      "velocity": 0.97,
      "hand": "right"
    },
    {
      "midi": 49,
      "time": 124.65,
      "duration": 0.3,
      "velocity": 0.71,
      "hand": "left"
    },
    {
      "midi": 77,
      "time": 124.8,
      "duration": 0.45,
      "velocity": 0.95,
      "hand": "right"
    },
    {
      "midi": 53,
      "time": 124.95,
      "duration": 0.3,
      "velocity": 0.71,
      "hand": "left"
    },
    {
      "midi": 76,
      "time": 125.1,
      "duration": 0.45,
      "velocity": 0.93,
      "hand": "right"
    },
    {
      "midi": 58,
      "time": 125.25,
      "duration": 0.3,
      "velocity": 0.71,
      "hand": "left"
    },
    {
      "midi": 61,
      "time": 125.55,
      "duration": 0.3,
      "velocity": 0.71,
      "hand": "left"
    },
    {
      "midi": 77,
      "time": 125.55,
      "duration": 0.45,
      "velocity": 0.91,
      "hand": "right"
    },
    {
      "midi": 58,
      "time": 125.85,
      "duration": 0.3,
      "velocity": 0.71,
      "hand": "left"
    },
    {
      "midi": 75,
      "time": 126,
      "duration": 0.45,
      "velocity": 0.89,
      "hand": "right"
    },
    {
      "midi": 53,
      "time": 126.15,
      "duration": 0.3,
      "velocity": 0.71,
      "hand": "left"
    },
    {
      "midi": 73,
      "time": 126.3,
      "duration": 0.45,
      "velocity": 0.87,
      "hand": "right"
    },
    {
      "midi": 49,
      "time": 126.45,
      "duration": 0.3,
      "velocity": 0.71,
      "hand": "left"
    },
    {
      "midi": 41,
      "time": 126.75,
      "duration": 0.3,
      "velocity": 0.71,
      "hand": "left"
    },
    {
      "midi": 75,
      "time": 126.75,
      "duration": 0.45,
      "velocity": 0.85,
      "hand": "right"
    },
    {
      "midi": 49,
      "time": 127.05,
      "duration": 0.3,
      "velocity": 0.71,
      "hand": "left"
    },
    {
      "midi": 73,
      "time": 127.2,
      "duration": 0.45,
      "velocity": 0.83,
      "hand": "right"
    },
    {
      "midi": 53,
      "time": 127.35,
      "duration": 0.3,
      "velocity": 0.71,
      "hand": "left"
    },
    {
      "midi": 72,
      "time": 127.5,
      "duration": 0.45,
      "velocity": 0.81,
      "hand": "right"
    },
    {
      "midi": 58,
      "time": 127.65,
      "duration": 0.3,
      "velocity": 0.71,
      "hand": "left"
    },
    {
      "midi": 61,
      "time": 127.95,
      "duration": 0.3,
      "velocity": 0.71,
      "hand": "left"
    },
    {
      "midi": 70,
      "time": 127.95,
      "duration": 0.45,
      "velocity": 0.79,
      "hand": "right"
    },
    {
      "midi": 58,
      "time": 128.25,
      "duration": 0.3,
      "velocity": 0.71,
      "hand": "left"
    },
    {
      "midi": 68,
      "time": 128.4,
      "duration": 0.45,
      "velocity": 0.76,
      "hand": "right"
    },
    {
      "midi": 53,
      "time": 128.55,
      "duration": 0.3,
      "velocity": 0.71,
      "hand": "left"
    },
    {
      "midi": 66,
      "time": 128.7,
      "duration": 0.45,
      "velocity": 0.75,
      "hand": "right"
    },
    {
      "midi": 49,
      "time": 128.85,
      "duration": 0.3,
      "velocity": 0.71,
      "hand": "left"
    },
    {
      "midi": 41,
      "time": 129.15,
      "duration": 0.3,
      "velocity": 0.71,
      "hand": "left"
    },
    {
      "midi": 65,
      "time": 129.15,
      "duration": 0.45,
      "velocity": 0.75,
      "hand": "right"
    },
    {
      "midi": 48,
      "time": 129.45,
      "duration": 0.3,
      "velocity": 0.71,
      "hand": "left"
    },
    {
      "midi": 64,
      "time": 129.6,
      "duration": 0.45,
      "velocity": 0.72,
      "hand": "right"
    },
    {
      "midi": 55,
      "time": 129.75,
      "duration": 0.3,
      "velocity": 0.71,
      "hand": "left"
    },
    {
      "midi": 71,
      "time": 129.9,
      "duration": 0.45,
      "velocity": 0.71,
      "hand": "right"
    },
    {
      "midi": 58,
      "time": 130.05,
      "duration": 0.3,
      "velocity": 0.71,
      "hand": "left"
    },
    {
      "midi": 60,
      "time": 130.35,
      "duration": 0.3,
      "velocity": 0.71,
      "hand": "left"
    },
    {
      "midi": 73,
      "time": 130.35,
      "duration": 0.45,
      "velocity": 0.69,
      "hand": "right"
    },
    {
      "midi": 58,
      "time": 130.65,
      "duration": 0.3,
      "velocity": 0.71,
      "hand": "left"
    },
    {
      "midi": 72,
      "time": 130.8,
      "duration": 0.45,
      "velocity": 0.66,
      "hand": "right"
    },
    {
      "midi": 55,
      "time": 130.95,
      "duration": 0.3,
      "velocity": 0.71,
      "hand": "left"
    },
    {
      "midi": 74,
      "time": 131.1,
      "duration": 0.45,
      "velocity": 0.65,
      "hand": "right"
    },
    {
      "midi": 48,
      "time": 131.25,
      "duration": 0.3,
      "velocity": 0.71,
      "hand": "left"
    },
    {
      "midi": 41,
      "time": 131.55,
      "duration": 0.3,
      "velocity": 0.71,
      "hand": "left"
    },
    {
      "midi": 77,
      "time": 131.55,
      "duration": 0.45,
      "velocity": 0.62,
      "hand": "right"
    },
    {
      "midi": 48,
      "time": 131.85,
      "duration": 0.3,
      "velocity": 0.71,
      "hand": "left"
    },
    {
      "midi": 76,
      "time": 132,
      "duration": 0.45,
      "velocity": 0.61,
      "hand": "right"
    },
    {
      "midi": 55,
      "time": 132.15,
      "duration": 0.3,
      "velocity": 0.71,
      "hand": "left"
    },
    {
      "midi": 77,
      "time": 132.3,
      "duration": 0.45,
      "velocity": 0.58,
      "hand": "right"
    },
    {
      "midi": 58,
      "time": 132.45,
      "duration": 0.3,
      "velocity": 0.71,
      "hand": "left"
    },
    {
      "midi": 60,
      "time": 132.75,
      "duration": 0.3,
      "velocity": 0.71,
      "hand": "left"
    },
    {
      "midi": 80,
      "time": 132.75,
      "duration": 0.45,
      "velocity": 0.56,
      "hand": "right"
    },
    {
      "midi": 58,
      "time": 133.05,
      "duration": 0.3,
      "velocity": 0.71,
      "hand": "left"
    },
    {
      "midi": 79,
      "time": 133.2,
      "duration": 0.45,
      "velocity": 0.54,
      "hand": "right"
    },
    {
      "midi": 55,
      "time": 133.35,
      "duration": 0.3,
      "velocity": 0.71,
      "hand": "left"
    },
    {
      "midi": 80,
      "time": 133.5,
      "duration": 0.45,
      "velocity": 0.52,
      "hand": "right"
    },
    {
      "midi": 48,
      "time": 133.65,
      "duration": 0.3,
      "velocity": 0.71,
      "hand": "left"
    },
    {
      "midi": 41,
      "time": 133.95,
      "duration": 0.3,
      "velocity": 0.71,
      "hand": "left"
    },
    {
      "midi": 77,
      "time": 133.95,
      "duration": 2.4,
      "velocity": 0.54,
      "hand": "right"
    },
    {
      "midi": 48,
      "time": 134.25,
      "duration": 0.3,
      "velocity": 0.71,
      "hand": "left"
    },
    {
      "midi": 53,
      "time": 134.55,
      "duration": 0.3,
      "velocity": 0.71,
      "hand": "left"
    },
    {
      "midi": 56,
      "time": 134.85,
      "duration": 0.3,
      "velocity": 0.71,
      "hand": "left"
    },
    {
      "midi": 60,
      "time": 135.15,
      "duration": 0.285,
      "velocity": 0.71,
      "hand": "left"
    },
    {
      "midi": 65,
      "time": 135.15,
      "duration": 0.3,
      "velocity": 0.71,
      "hand": "right"
    },
    {
      "midi": 56,
      "time": 135.45,
      "duration": 0.3,
      "velocity": 0.71,
      "hand": "left"
    },
    {
      "midi": 60,
      "time": 135.45,
      "duration": 0.3,
      "velocity": 0.71,
      "hand": "right"
    },
    {
      "midi": 53,
      "time": 135.75,
      "duration": 0.285,
      "velocity": 0.71,
      "hand": "left"
    },
    {
      "midi": 57,
      "time": 135.75,
      "duration": 0.3,
      "velocity": 0.71,
      "hand": "left"
    },
    {
      "midi": 48,
      "time": 136.05,
      "duration": 0.3,
      "velocity": 0.71,
      "hand": "left"
    },
    {
      "midi": 53,
      "time": 136.05,
      "duration": 0.3,
      "velocity": 0.71,
      "hand": "left"
    },
    {
      "midi": 41,
      "time": 136.35,
      "duration": 0.3,
      "velocity": 0.71,
      "hand": "left"
    },
    {
      "midi": 75,
      "time": 136.35,
      "duration": 0.45,
      "velocity": 0.49,
      "hand": "right"
    },
    {
      "midi": 48,
      "time": 136.65,
      "duration": 0.3,
      "velocity": 0.71,
      "hand": "left"
    },
    {
      "midi": 77,
      "time": 136.8,
      "duration": 0.45,
      "velocity": 0.49,
      "hand": "right"
    },
    {
      "midi": 53,
      "time": 136.95,
      "duration": 0.3,
      "velocity": 0.71,
      "hand": "left"
    },
    {
      "midi": 75,
      "time": 137.1,
      "duration": 0.45,
      "velocity": 0.49,
      "hand": "right"
    },
    {
      "midi": 56,
      "time": 137.25,
      "duration": 0.3,
      "velocity": 0.71,
      "hand": "left"
    },
    {
      "midi": 60,
      "time": 137.55,
      "duration": 0.285,
      "velocity": 0.71,
      "hand": "left"
    },
    {
      "midi": 64,
      "time": 137.55,
      "duration": 0.3,
      "velocity": 0.71,
      "hand": "right"
    },
    {
      "midi": 77,
      "time": 137.55,
      "duration": 0.45,
      "velocity": 0.49,
      "hand": "right"
    },
    {
      "midi": 56,
      "time": 137.85,
      "duration": 0.3,
      "velocity": 0.71,
      "hand": "left"
    },
    {
      "midi": 60,
      "time": 137.85,
      "duration": 0.3,
      "velocity": 0.71,
      "hand": "right"
    },
    {
      "midi": 75,
      "time": 138,
      "duration": 0.45,
      "velocity": 0.49,
      "hand": "right"
    },
    {
      "midi": 53,
      "time": 138.15,
      "duration": 0.285,
      "velocity": 0.71,
      "hand": "left"
    },
    {
      "midi": 57,
      "time": 138.15,
      "duration": 0.3,
      "velocity": 0.71,
      "hand": "left"
    },
    {
      "midi": 77,
      "time": 138.3,
      "duration": 0.45,
      "velocity": 0.49,
      "hand": "right"
    },
    {
      "midi": 48,
      "time": 138.45,
      "duration": 0.3,
      "velocity": 0.71,
      "hand": "left"
    },
    {
      "midi": 53,
      "time": 138.45,
      "duration": 0.3,
      "velocity": 0.71,
      "hand": "left"
    },
    {
      "midi": 41,
      "time": 138.75,
      "duration": 0.3,
      "velocity": 0.71,
      "hand": "left"
    },
    {
      "midi": 73,
      "time": 138.75,
      "duration": 0.45,
      "velocity": 0.49,
      "hand": "right"
    },
    {
      "midi": 49,
      "time": 139.05,
      "duration": 0.3,
      "velocity": 0.71,
      "hand": "left"
    },
    {
      "midi": 75,
      "time": 139.2,
      "duration": 0.45,
      "velocity": 0.49,
      "hand": "right"
    },
    {
      "midi": 53,
      "time": 139.35,
      "duration": 0.3,
      "velocity": 0.71,
      "hand": "left"
    },
    {
      "midi": 73,
      "time": 139.5,
      "duration": 0.45,
      "velocity": 0.54,
      "hand": "right"
    },
    {
      "midi": 56,
      "time": 139.65,
      "duration": 0.3,
      "velocity": 0.71,
      "hand": "left"
    },
    {
      "midi": 61,
      "time": 139.95,
      "duration": 0.3,
      "velocity": 0.71,
      "hand": "left"
    },
    {
      "midi": 75,
      "time": 139.95,
      "duration": 0.45,
      "velocity": 0.6,
      "hand": "right"
    },
    {
      "midi": 56,
      "time": 140.25,
      "duration": 0.3,
      "velocity": 0.71,
      "hand": "left"
    },
    {
      "midi": 73,
      "time": 140.4,
      "duration": 0.45,
      "velocity": 0.65,
      "hand": "right"
    },
    {
      "midi": 53,
      "time": 140.55,
      "duration": 0.3,
      "velocity": 0.71,
      "hand": "left"
    },
    {
      "midi": 75,
      "time": 140.7,
      "duration": 0.45,
      "velocity": 0.71,
      "hand": "right"
    },
    {
      "midi": 49,
      "time": 140.85,
      "duration": 0.3,
      "velocity": 0.71,
      "hand": "left"
    },
    {
      "midi": 41,
      "time": 141.15,
      "duration": 0.3,
      "velocity": 0.71,
      "hand": "left"
    },
    {
      "midi": 71,
      "time": 141.15,
      "duration": 0.45,
      "velocity": 0.71,
      "hand": "right"
    },
    {
      "midi": 49,
      "time": 141.45,
      "duration": 0.3,
      "velocity": 0.71,
      "hand": "left"
    },
    {
      "midi": 73,
      "time": 141.6,
      "duration": 0.45,
      "velocity": 0.76,
      "hand": "right"
    },
    {
      "midi": 53,
      "time": 141.75,
      "duration": 0.3,
      "velocity": 0.71,
      "hand": "left"
    },
    {
      "midi": 71,
      "time": 141.9,
      "duration": 0.45,
      "velocity": 0.8,
      "hand": "right"
    },
    {
      "midi": 56,
      "time": 142.05,
      "duration": 0.3,
      "velocity": 0.71,
      "hand": "left"
    },
    {
      "midi": 61,
      "time": 142.35,
      "duration": 0.3,
      "velocity": 0.71,
      "hand": "left"
    },
    {
      "midi": 73,
      "time": 142.35,
      "duration": 0.45,
      "velocity": 0.84,
      "hand": "right"
    },
    {
      "midi": 56,
      "time": 142.65,
      "duration": 0.3,
      "velocity": 0.71,
      "hand": "left"
    },
    {
      "midi": 71,
      "time": 142.8,
      "duration": 0.45,
      "velocity": 0.89,
      "hand": "right"
    },
    {
      "midi": 53,
      "time": 142.95,
      "duration": 0.3,
      "velocity": 0.71,
      "hand": "left"
    },
    {
      "midi": 73,
      "time": 143.1,
      "duration": 0.45,
      "velocity": 0.94,
      "hand": "right"
    },
    {
      "midi": 49,
      "time": 143.25,
      "duration": 0.3,
      "velocity": 0.71,
      "hand": "left"
    },
    {
      "midi": 42,
      "time": 143.55,
      "duration": 0.3,
      "velocity": 0.71,
      "hand": "left"
    },
    {
      "midi": 70,
      "time": 143.55,
      "duration": 0.45,
      "velocity": 0.94,
      "hand": "right"
    },
    {
      "midi": 49,
      "time": 143.85,
      "duration": 0.3,
      "velocity": 0.71,
      "hand": "left"
    },
    {
      "midi": 72,
      "time": 144,
      "duration": 0.45,
      "velocity": 0.89,
      "hand": "right"
    },
    {
      "midi": 54,
      "time": 144.15,
      "duration": 0.3,
      "velocity": 0.71,
      "hand": "left"
    },
    {
      "midi": 70,
      "time": 144.3,
      "duration": 0.45,
      "velocity": 0.84,
      "hand": "right"
    },
    {
      "midi": 58,
      "time": 144.45,
      "duration": 0.3,
      "velocity": 0.71,
      "hand": "left"
    },
    {
      "midi": 61,
      "time": 144.75,
      "duration": 0.3,
      "velocity": 0.71,
      "hand": "left"
    },
    {
      "midi": 72,
      "time": 144.75,
      "duration": 0.45,
      "velocity": 0.8,
      "hand": "right"
    },
    {
      "midi": 58,
      "time": 145.05,
      "duration": 0.3,
      "velocity": 0.71,
      "hand": "left"
    },
    {
      "midi": 70,
      "time": 145.2,
      "duration": 0.45,
      "velocity": 0.76,
      "hand": "right"
    },
    {
      "midi": 54,
      "time": 145.35,
      "duration": 0.3,
      "velocity": 0.71,
      "hand": "left"
    },
    {
      "midi": 72,
      "time": 145.5,
      "duration": 0.45,
      "velocity": 0.71,
      "hand": "right"
    },
    {
      "midi": 49,
      "time": 145.65,
      "duration": 0.3,
      "velocity": 0.71,
      "hand": "left"
    },
    {
      "midi": 43,
      "time": 145.95,
      "duration": 0.3,
      "velocity": 0.71,
      "hand": "left"
    },
    {
      "midi": 70,
      "time": 145.95,
      "duration": 0.45,
      "velocity": 0.71,
      "hand": "right"
    },
    {
      "midi": 48,
      "time": 146.25,
      "duration": 0.3,
      "velocity": 0.71,
      "hand": "left"
    },
    {
      "midi": 72,
      "time": 146.4,
      "duration": 0.45,
      "velocity": 0.7,
      "hand": "right"
    },
    {
      "midi": 52,
      "time": 146.55,
      "duration": 0.3,
      "velocity": 0.71,
      "hand": "left"
    },
    {
      "midi": 70,
      "time": 146.7,
      "duration": 0.45,
      "velocity": 0.69,
      "hand": "right"
    },
    {
      "midi": 58,
      "time": 146.85,
      "duration": 0.3,
      "velocity": 0.71,
      "hand": "left"
    },
    {
      "midi": 72,
      "time": 147.15,
      "duration": 0.45,
      "velocity": 0.68,
      "hand": "right"
    },
    {
      "midi": 70,
      "time": 147.6,
      "duration": 0.45,
      "velocity": 0.67,
      "hand": "right"
    },
    {
      "midi": 65,
      "time": 147.9,
      "duration": 0.45,
      "velocity": 0.66,
      "hand": "right"
    },
    {
      "midi": 67,
      "time": 148.35,
      "duration": 0.45,
      "velocity": 0.65,
      "hand": "right"
    },
    {
      "midi": 68,
      "time": 148.8,
      "duration": 0.45,
      "velocity": 0.64,
      "hand": "right"
    },
    {
      "midi": 67,
      "time": 149.1,
      "duration": 0.45,
      "velocity": 0.62,
      "hand": "right"
    },
    {
      "midi": 68,
      "time": 149.55,
      "duration": 0.45,
      "velocity": 0.61,
      "hand": "right"
    },
    {
      "midi": 67,
      "time": 150,
      "duration": 0.45,
      "velocity": 0.61,
      "hand": "right"
    },
    {
      "midi": 58,
      "time": 150.3,
      "duration": 0.45,
      "velocity": 0.59,
      "hand": "right"
    },
    {
      "midi": 61,
      "time": 150.75,
      "duration": 1.2,
      "velocity": 0.58,
      "hand": "right"
    },
    {
      "midi": 36,
      "time": 151.95,
      "duration": 1.2,
      "velocity": 0.71,
      "hand": "left"
    },
    {
      "midi": 48,
      "time": 151.95,
      "duration": 1.2,
      "velocity": 0.71,
      "hand": "left"
    },
    {
      "midi": 55,
      "time": 151.95,
      "duration": 1.2,
      "velocity": 0.55,
      "hand": "right"
    },
    {
      "midi": 60,
      "time": 151.95,
      "duration": 1.185,
      "velocity": 0.55,
      "hand": "right"
    },
    {
      "midi": 64,
      "time": 151.95,
      "duration": 1.2,
      "velocity": 0.55,
      "hand": "right"
    },
    {
      "midi": 41,
      "time": 153.15,
      "duration": 1.2,
      "velocity": 0.71,
      "hand": "left"
    },
    {
      "midi": 56,
      "time": 153.15,
      "duration": 1.2,
      "velocity": 0.52,
      "hand": "right"
    },
    {
      "midi": 60,
      "time": 153.15,
      "duration": 1.2,
      "velocity": 0.52,
      "hand": "right"
    },
    {
      "midi": 65,
      "time": 153.15,
      "duration": 1.2,
      "velocity": 0.52,
      "hand": "right"
    },
    {
      "midi": 41,
      "time": 155.55,
      "duration": 1.185,
      "velocity": 0.71,
      "hand": "left"
    },
    {
      "midi": 48,
      "time": 155.55,
      "duration": 1.185,
      "velocity": 0.71,
      "hand": "left"
    },
    {
      "midi": 53,
      "time": 155.55,
      "duration": 1.185,
      "velocity": 0.49,
      "hand": "right"
    },
    {
      "midi": 56,
      "time": 155.55,
      "duration": 1.185,
      "velocity": 0.49,
      "hand": "right"
    },
    {
      "midi": 41,
      "time": 156.75,
      "duration": 1.185,
      "velocity": 0.71,
      "hand": "left"
    },
    {
      "midi": 48,
      "time": 156.75,
      "duration": 1.185,
      "velocity": 0.71,
      "hand": "left"
    },
    {
      "midi": 53,
      "time": 156.75,
      "duration": 1.185,
      "velocity": 0.49,
      "hand": "right"
    },
    {
      "midi": 56,
      "time": 156.75,
      "duration": 1.185,
      "velocity": 0.49,
      "hand": "right"
    },
    {
      "midi": 41,
      "time": 157.95,
      "duration": 2.4,
      "velocity": 0.71,
      "hand": "left"
    },
    {
      "midi": 48,
      "time": 157.95,
      "duration": 2.4,
      "velocity": 0.71,
      "hand": "left"
    },
    {
      "midi": 53,
      "time": 157.95,
      "duration": 2.4,
      "velocity": 0.49,
      "hand": "right"
    },
    {
      "midi": 56,
      "time": 157.95,
      "duration": 2.4,
      "velocity": 0.49,
      "hand": "right"
    }
  ]
}
