{
  "id": "turkish-march-dificil",
  "title": "Turkish March Dificil",
  "artist": "MIDI Source",
  "difficulty": "Médio",
  "bpm": 115,
  "duration": 5,
  "category": "A revisar",
  "isPremium": true,
  "coverUrl": "/images/covers/placeholder.png",
  "notes": [
    {
      "midi": 71,
      "time": 0.522,
      "duration": 0.13,
      "velocity": 0.71,
      "hand": "right"
    },
    {
      "midi": 69,
      "time": 0.652,
      "duration": 0.13,
      "velocity": 0.71,
      "hand": "right"
    },
    {
      "midi": 68,
      "time": 0.783,
      "duration": 0.13,
      "velocity": 0.71,
      "hand": "right"
    },
    {
      "midi": 69,
      "time": 0.913,
      "duration": 0.13,
      "velocity": 0.71,
      "hand": "right"
    },
    {
      "midi": 45,
      "time": 1.043,
      "duration": 0.261,
      "velocity": 0.63,
      "hand": "left"
    },
    {
      "midi": 52,
      "time": 1.043,
      "duration": 0.261,
      "velocity": 0.63,
      "hand": "left"
    },
    {
      "midi": 57,
      "time": 1.043,
      "duration": 0.261,
      "velocity": 0.63,
      "hand": "left"
    },
    {
      "midi": 72,
      "time": 1.043,
      "duration": 0.261,
      "velocity": 0.79,
      "hand": "right"
    },
    {
      "midi": 74,
      "time": 1.304,
      "duration": 0.13,
      "velocity": 0.71,
      "hand": "right"
    },
    {
      "midi": 72,
      "time": 1.435,
      "duration": 0.13,
      "velocity": 0.71,
      "hand": "right"
    },
    {
      "midi": 45,
      "time": 1.565,
      "duration": 0.261,
      "velocity": 0.63,
      "hand": "left"
    },
    {
      "midi": 52,
      "time": 1.565,
      "duration": 0.261,
      "velocity": 0.63,
      "hand": "left"
    },
    {
      "midi": 57,
      "time": 1.565,
      "duration": 0.261,
      "velocity": 0.63,
      "hand": "left"
    },
    {
      "midi": 71,
      "time": 1.565,
      "duration": 0.13,
      "velocity": 0.71,
      "hand": "right"
    },
    {
      "midi": 72,
      "time": 1.696,
      "duration": 0.13,
      "velocity": 0.71,
      "hand": "right"
    },
    {
      "midi": 45,
      "time": 2.087,
      "duration": 0.261,
      "velocity": 0.63,
      "hand": "left"
    },
    {
      "midi": 52,
      "time": 2.087,
      "duration": 0.261,
      "velocity": 0.63,
      "hand": "left"
    },
    {
      "midi": 57,
      "time": 2.087,
      "duration": 0.261,
      "velocity": 0.63,
      "hand": "left"
    },
    {
      "midi": 76,
      "time": 2.087,
      "duration": 0.261,
      "velocity": 0.79,
      "hand": "right"
    },
    {
      "midi": 77,
      "time": 2.348,
      "duration": 0.13,
      "velocity": 0.71,
      "hand": "right"
    },
    {
      "midi": 76,
      "time": 2.478,
      "duration": 0.13,
      "velocity": 0.71,
      "hand": "right"
    },
    {
      "midi": 45,
      "time": 2.609,
      "duration": 0.261,
      "velocity": 0.63,
      "hand": "left"
    },
    {
      "midi": 52,
      "time": 2.609,
      "duration": 0.261,
      "velocity": 0.63,
      "hand": "left"
    },
    {
      "midi": 57,
      "time": 2.609,
      "duration": 0.261,
      "velocity": 0.63,
      "hand": "left"
    },
    {
      "midi": 75,
      "time": 2.609,
      "duration": 0.13,
      "velocity": 0.71,
      "hand": "right"
    },
    {
      "midi": 76,
      "time": 2.739,
      "duration": 0.13,
      "velocity": 0.71,
      "hand": "right"
    },
    {
      "midi": 50,
      "time": 3.13,
      "duration": 0.261,
      "velocity": 0.63,
      "hand": "left"
    },
    {
      "midi": 53,
      "time": 3.13,
      "duration": 0.261,
      "velocity": 0.63,
      "hand": "left"
    },
    {
      "midi": 57,
      "time": 3.13,
      "duration": 0.261,
      "velocity": 0.63,
      "hand": "left"
    },
    {
      "midi": 83,
      "time": 3.13,
      "duration": 0.13,
      "velocity": 0.71,
      "hand": "right"
    },
    {
      "midi": 81,
      "time": 3.261,
      "duration": 0.13,
      "velocity": 0.71,
      "hand": "right"
    },
    {
      "midi": 80,
      "time": 3.391,
      "duration": 0.13,
      "velocity": 0.71,
      "hand": "right"
    },
    {
      "midi": 81,
      "time": 3.522,
      "duration": 0.13,
      "velocity": 0.71,
      "hand": "right"
    },
    {
      "midi": 50,
      "time": 3.652,
      "duration": 0.261,
      "velocity": 0.63,
      "hand": "left"
    },
    {
      "midi": 53,
      "time": 3.652,
      "duration": 0.261,
      "velocity": 0.63,
      "hand": "left"
    },
    {
      "midi": 57,
      "time": 3.652,
      "duration": 0.261,
      "velocity": 0.63,
      "hand": "left"
    },
    {
      "midi": 83,
      "time": 3.652,
      "duration": 0.13,
      "velocity": 0.71,
      "hand": "right"
    },
    {
      "midi": 81,
      "time": 3.783,
      "duration": 0.13,
      "velocity": 0.71,
      "hand": "right"
    },
    {
      "midi": 80,
      "time": 3.913,
      "duration": 0.13,
      "velocity": 0.71,
      "hand": "right"
    },
    {
      "midi": 81,
      "time": 4.043,
      "duration": 0.13,
      "velocity": 0.71,
      "hand": "right"
    },
    {
      "midi": 45,
      "time": 4.174,
      "duration": 0.261,
      "velocity": 0.63,
      "hand": "left"
    },
    {
      "midi": 52,
      "time": 4.174,
      "duration": 0.261,
      "velocity": 0.63,
      "hand": "left"
    },
    {
      "midi": 57,
      "time": 4.174,
      "duration": 0.261,
      "velocity": 0.63,
      "hand": "left"
    },
    {
      "midi": 84,
      "time": 4.174,
      "duration": 0.261,
      "velocity": 0.79,
      "hand": "right"
    },
    {
      "midi": 81,
      "time": 4.435,
      "duration": 0.261,
      "velocity": 0.71,
      "hand": "right"
    },
    {
      "midi": 45,
      "time": 4.696,
      "duration": 0.261,
      "velocity": 0.63,
      "hand": "left"
    },
    {
      "midi": 52,
      "time": 4.696,
      "duration": 0.261,
      "velocity": 0.63,
      "hand": "left"
    },
    {
      "midi": 57,
      "time": 4.696,
      "duration": 0.261,
      "velocity": 0.63,
      "hand": "left"
    },
    {
      "midi": 69,
      "time": 4.696,
      "duration": 0.522,
      "velocity": 0.63,
      "hand": "right"
    }
  ],
  "arrangements": {
    "easy": [
      {
        "midi": 71,
        "time": 0.522,
        "duration": 0.174,
        "velocity": 0.71,
        "hand": "right"
      },
      {
        "midi": 69,
        "time": 0.652,
        "duration": 0.174,
        "velocity": 0.71,
        "hand": "right"
      },
      {
        "midi": 68,
        "time": 0.783,
        "duration": 0.174,
        "velocity": 0.71,
        "hand": "right"
      },
      {
        "midi": 69,
        "time": 0.913,
        "duration": 0.174,
        "velocity": 0.71,
        "hand": "right"
      },
      {
        "midi": 72,
        "time": 1.043,
        "duration": 0.261,
        "velocity": 0.79,
        "hand": "right"
      },
      {
        "midi": 74,
        "time": 1.304,
        "duration": 0.174,
        "velocity": 0.71,
        "hand": "right"
      },
      {
        "midi": 72,
        "time": 1.435,
        "duration": 0.174,
        "velocity": 0.71,
        "hand": "right"
      },
      {
        "midi": 71,
        "time": 1.565,
        "duration": 0.174,
        "velocity": 0.71,
        "hand": "right"
      },
      {
        "midi": 72,
        "time": 1.696,
        "duration": 0.174,
        "velocity": 0.71,
        "hand": "right"
      },
      {
        "midi": 76,
        "time": 2.087,
        "duration": 0.261,
        "velocity": 0.79,
        "hand": "right"
      },
      {
        "midi": 77,
        "time": 2.348,
        "duration": 0.174,
        "velocity": 0.71,
        "hand": "right"
      },
      {
        "midi": 76,
        "time": 2.478,
        "duration": 0.174,
        "velocity": 0.71,
        "hand": "right"
      },
      {
        "midi": 75,
        "time": 2.609,
        "duration": 0.174,
        "velocity": 0.71,
        "hand": "right"
      },
      {
        "midi": 76,
        "time": 2.739,
        "duration": 0.174,
        "velocity": 0.71,
        "hand": "right"
      },
      {
        "midi": 83,
        "time": 3.13,
        "duration": 0.174,
        "velocity": 0.71,
        "hand": "right"
      },
      {
        "midi": 81,
        "time": 3.261,
        "duration": 0.174,
        "velocity": 0.71,
        "hand": "right"
      },
      {
        "midi": 80,
        "time": 3.391,
        "duration": 0.174,
        "velocity": 0.71,
        "hand": "right"
      },
      {
        "midi": 81,
        "time": 3.522,
        "duration": 0.174,
        "velocity": 0.71,
        "hand": "right"
      },
      {
        "midi": 83,
        "time": 3.652,
        "duration": 0.174,
        "velocity": 0.71,
        "hand": "right"
      },
      {
        "midi": 81,
        "time": 3.783,
        "duration": 0.174,
        "velocity": 0.71,
        "hand": "right"
      },
      {
        "midi": 80,
        "time": 3.913,
        "duration": 0.174,
        "velocity": 0.71,
        "hand": "right"
      },
      {
        "midi": 81,
        "time": 4.043,
        "duration": 0.174,
        "velocity": 0.71,
        "hand": "right"
      },
      {
        "midi": 84,
        "time": 4.174,
        "duration": 0.261,
        "velocity": 0.79,
        "hand": "right"
      },
      {
        "midi": 81,
        "time": 4.435,
        "duration": 0.261,
        "velocity": 0.71,
        "hand": "right"
      },
      {
        "midi": 69,
        "time": 4.696,
        "duration": 0.522,
        "velocity": 0.63,
        "hand": "right"
      }
    ],
    "medium": [
      {
        "midi": 71,
        "time": 0.522,
        "duration": 0.13,
        "velocity": 0.71,
        "hand": "right"
      },
      {
        "midi": 69,
        "time": 0.652,
        "duration": 0.13,
        "velocity": 0.71,
        "hand": "right"
      },
      {
        "midi": 68,
        "time": 0.783,
        "duration": 0.13,
        "velocity": 0.71,
        "hand": "right"
      },
      {
        "midi": 69,
        "time": 0.913,
        "duration": 0.13,
        "velocity": 0.71,
        "hand": "right"
      },
      {
        "midi": 45,
        "time": 1.043,
        "duration": 0.261,
        "velocity": 0.63,
        "hand": "left"
      },
      {
        "midi": 57,
        "time": 1.043,
        "duration": 0.261,
        "velocity": 0.63,
        "hand": "left"
      },
      {
        "midi": 72,
        "time": 1.043,
        "duration": 0.261,
        "velocity": 0.79,
        "hand": "right"
      },
      {
        "midi": 74,
        "time": 1.304,
        "duration": 0.13,
        "velocity": 0.71,
        "hand": "right"
      },
      {
        "midi": 72,
        "time": 1.435,
        "duration": 0.13,
        "velocity": 0.71,
        "hand": "right"
      },
      {
        "midi": 45,
        "time": 1.565,
        "duration": 0.261,
        "velocity": 0.63,
        "hand": "left"
      },
      {
        "midi": 57,
        "time": 1.565,
        "duration": 0.261,
        "velocity": 0.63,
        "hand": "left"
      },
      {
        "midi": 71,
        "time": 1.565,
        "duration": 0.13,
        "velocity": 0.71,
        "hand": "right"
      },
      {
        "midi": 72,
        "time": 1.696,
        "duration": 0.13,
        "velocity": 0.71,
        "hand": "right"
      },
      {
        "midi": 45,
        "time": 2.087,
        "duration": 0.261,
        "velocity": 0.63,
        "hand": "left"
      },
      {
        "midi": 57,
        "time": 2.087,
        "duration": 0.261,
        "velocity": 0.63,
        "hand": "left"
      },
      {
        "midi": 76,
        "time": 2.087,
        "duration": 0.261,
        "velocity": 0.79,
        "hand": "right"
      },
      {
        "midi": 77,
        "time": 2.348,
        "duration": 0.13,
        "velocity": 0.71,
        "hand": "right"
      },
      {
        "midi": 76,
        "time": 2.478,
        "duration": 0.13,
        "velocity": 0.71,
        "hand": "right"
      },
      {
        "midi": 45,
        "time": 2.609,
        "duration": 0.261,
        "velocity": 0.63,
        "hand": "left"
      },
      {
        "midi": 57,
        "time": 2.609,
        "duration": 0.261,
        "velocity": 0.63,
        "hand": "left"
      },
      {
        "midi": 75,
        "time": 2.609,
        "duration": 0.13,
        "velocity": 0.71,
        "hand": "right"
      },
      {
        "midi": 76,
        "time": 2.739,
        "duration": 0.13,
        "velocity": 0.71,
        "hand": "right"
      },
      {
        "midi": 50,
        "time": 3.13,
        "duration": 0.261,
        "velocity": 0.63,
        "hand": "left"
      },
      {
        "midi": 57,
        "time": 3.13,
        "duration": 0.261,
        "velocity": 0.63,
        "hand": "left"
      },
      {
        "midi": 83,
        "time": 3.13,
        "duration": 0.13,
        "velocity": 0.71,
        "hand": "right"
      },
      {
        "midi": 81,
        "time": 3.261,
        "duration": 0.13,
        "velocity": 0.71,
        "hand": "right"
      },
      {
        "midi": 80,
        "time": 3.391,
        "duration": 0.13,
        "velocity": 0.71,
        "hand": "right"
      },
      {
        "midi": 81,
        "time": 3.522,
        "duration": 0.13,
        "velocity": 0.71,
        "hand": "right"
      },
      {
        "midi": 50,
        "time": 3.652,
        "duration": 0.261,
        "velocity": 0.63,
        "hand": "left"
      },
      {
        "midi": 57,
        "time": 3.652,
        "duration": 0.261,
        "velocity": 0.63,
        "hand": "left"
      },
      {
        "midi": 83,
        "time": 3.652,
        "duration": 0.13,
        "velocity": 0.71,
        "hand": "right"
      },
      {
        "midi": 81,
        "time": 3.783,
        "duration": 0.13,
        "velocity": 0.71,
        "hand": "right"
      },
      {
        "midi": 80,
        "time": 3.913,
        "duration": 0.13,
        "velocity": 0.71,
        "hand": "right"
      },
      {
        "midi": 81,
        "time": 4.043,
        "duration": 0.13,
        "velocity": 0.71,
        "hand": "right"
      },
      {
        "midi": 45,
        "time": 4.174,
        "duration": 0.261,
        "velocity": 0.63,
        "hand": "left"
      },
      {
        "midi": 57,
        "time": 4.174,
        "duration": 0.261,
        "velocity": 0.63,
        "hand": "left"
      },
      {
        "midi": 84,
        "time": 4.174,
        "duration": 0.261,
        "velocity": 0.79,
        "hand": "right"
      },
      {
        "midi": 81,
        "time": 4.435,
        "duration": 0.261,
        "velocity": 0.71,
        "hand": "right"
      },
      {
        "midi": 45,
        "time": 4.696,
        "duration": 0.261,
        "velocity": 0.63,
        "hand": "left"
      },
      {
        "midi": 57,
        "time": 4.696,
        "duration": 0.261,
        "velocity": 0.63,
        "hand": "left"
      },
      {
        "midi": 69,
        "time": 4.696,
        "duration": 0.522,
        "velocity": 0.63,
        "hand": "right"
      }
    ],
    "hard": [
      {
        "midi": 71,
        "time": 0.522,
        "duration": 0.13,
        "velocity": 0.71,
        "hand": "right"
      },
      {
        "midi": 69,
        "time": 0.652,
        "duration": 0.13,
        "velocity": 0.71,
        "hand": "right"
      },
      {
        "midi": 68,
        "time": 0.783,
        "duration": 0.13,
        "velocity": 0.71,
        "hand": "right"
      },
      {
        "midi": 69,
        "time": 0.913,
        "duration": 0.13,
        "velocity": 0.71,
        "hand": "right"
      },
      {
        "midi": 45,
        "time": 1.043,
        "duration": 0.261,
        "velocity": 0.63,
        "hand": "left"
      },
      {
        "midi": 52,
        "time": 1.043,
        "duration": 0.261,
        "velocity": 0.63,
        "hand": "left"
      },
      {
        "midi": 57,
        "time": 1.043,
        "duration": 0.261,
        "velocity": 0.63,
        "hand": "left"
      },
      {
        "midi": 72,
        "time": 1.043,
        "duration": 0.261,
        "velocity": 0.79,
        "hand": "right"
      },
      {
        "midi": 74,
        "time": 1.304,
        "duration": 0.13,
        "velocity": 0.71,
        "hand": "right"
      },
      {
        "midi": 72,
        "time": 1.435,
        "duration": 0.13,
        "velocity": 0.71,
        "hand": "right"
      },
      {
        "midi": 45,
        "time": 1.565,
        "duration": 0.261,
        "velocity": 0.63,
        "hand": "left"
      },
      {
        "midi": 52,
        "time": 1.565,
        "duration": 0.261,
        "velocity": 0.63,
        "hand": "left"
      },
      {
        "midi": 57,
        "time": 1.565,
        "duration": 0.261,
        "velocity": 0.63,
        "hand": "left"
      },
      {
        "midi": 71,
        "time": 1.565,
        "duration": 0.13,
        "velocity": 0.71,
        "hand": "right"
      },
      {
        "midi": 72,
        "time": 1.696,
        "duration": 0.13,
        "velocity": 0.71,
        "hand": "right"
      },
      {
        "midi": 45,
        "time": 2.087,
        "duration": 0.261,
        "velocity": 0.63,
        "hand": "left"
      },
      {
        "midi": 52,
        "time": 2.087,
        "duration": 0.261,
        "velocity": 0.63,
        "hand": "left"
      },
      {
        "midi": 57,
        "time": 2.087,
        "duration": 0.261,
        "velocity": 0.63,
        "hand": "left"
      },
      {
        "midi": 76,
        "time": 2.087,
        "duration": 0.261,
        "velocity": 0.79,
        "hand": "right"
      },
      {
        "midi": 77,
        "time": 2.348,
        "duration": 0.13,
        "velocity": 0.71,
        "hand": "right"
      },
      {
        "midi": 76,
        "time": 2.478,
        "duration": 0.13,
        "velocity": 0.71,
        "hand": "right"
      },
      {
        "midi": 45,
        "time": 2.609,
        "duration": 0.261,
        "velocity": 0.63,
        "hand": "left"
      },
      {
        "midi": 52,
        "time": 2.609,
        "duration": 0.261,
        "velocity": 0.63,
        "hand": "left"
      },
      {
        "midi": 57,
        "time": 2.609,
        "duration": 0.261,
        "velocity": 0.63,
        "hand": "left"
      },
      {
        "midi": 75,
        "time": 2.609,
        "duration": 0.13,
        "velocity": 0.71,
        "hand": "right"
      },
      {
        "midi": 76,
        "time": 2.739,
        "duration": 0.13,
        "velocity": 0.71,
        "hand": "right"
      },
      {
        "midi": 50,
        "time": 3.13,
        "duration": 0.261,
        "velocity": 0.63,
        "hand": "left"
      },
      {
        "midi": 53,
        "time": 3.13,
        "duration": 0.261,
        "velocity": 0.63,
        "hand": "left"
      },
      {
        "midi": 57,
        "time": 3.13,
        "duration": 0.261,
        "velocity": 0.63,
        "hand": "left"
      },
      {
        "midi": 83,
        "time": 3.13,
        "duration": 0.13,
        "velocity": 0.71,
        "hand": "right"
      },
      {
        "midi": 81,
        "time": 3.261,
        "duration": 0.13,
        "velocity": 0.71,
        "hand": "right"
      },
      {
        "midi": 80,
        "time": 3.391,
        "duration": 0.13,
        "velocity": 0.71,
        "hand": "right"
      },
      {
        "midi": 81,
        "time": 3.522,
        "duration": 0.13,
        "velocity": 0.71,
        "hand": "right"
      },
      {
        "midi": 50,
        "time": 3.652,
        "duration": 0.261,
        "velocity": 0.63,
        "hand": "left"
      },
      {
        "midi": 53,
        "time": 3.652,
        "duration": 0.261,
        "velocity": 0.63,
        "hand": "left"
      },
      {
        "midi": 57,
        "time": 3.652,
        "duration": 0.261,
        "velocity": 0.63,
        "hand": "left"
      },
      {
        "midi": 83,
        "time": 3.652,
        "duration": 0.13,
        "velocity": 0.71,
        "hand": "right"
      },
      {
        "midi": 81,
        "time": 3.783,
        "duration": 0.13,
        "velocity": 0.71,
        "hand": "right"
      },
      {
        "midi": 80,
        "time": 3.913,
        "duration": 0.13,
        "velocity": 0.71,
        "hand": "right"
      },
      {
        "midi": 81,
        "time": 4.043,
        "duration": 0.13,
        "velocity": 0.71,
        "hand": "right"
      },
      {
        "midi": 45,
        "time": 4.174,
        "duration": 0.261,
        "velocity": 0.63,
        "hand": "left"
      },
      {
        "midi": 52,
        "time": 4.174,
        "duration": 0.261,
        "velocity": 0.63,
        "hand": "left"
      },
      {
        "midi": 57,
        "time": 4.174,
        "duration": 0.261,
        "velocity": 0.63,
        "hand": "left"
      },
      {
        "midi": 84,
        "time": 4.174,
        "duration": 0.261,
        "velocity": 0.79,
        "hand": "right"
      },
      {
        "midi": 81,
        "time": 4.435,
        "duration": 0.261,
        "velocity": 0.71,
        "hand": "right"
      },
      {
        "midi": 45,
        "time": 4.696,
        "duration": 0.261,
        "velocity": 0.63,
        "hand": "left"
      },
      {
        "midi": 52,
        "time": 4.696,
        "duration": 0.261,
        "velocity": 0.63,
        "hand": "left"
      },
      {
        "midi": 57,
        "time": 4.696,
        "duration": 0.261,
        "velocity": 0.63,
        "hand": "left"
      },
      {
        "midi": 69,
        "time": 4.696,
        "duration": 0.522,
        "velocity": 0.63,
        "hand": "right"
      }
    ]
  },
  "notes1Hand": [
    {
      "midi": 71,
      "time": 0.522,
      "duration": 0.174,
      "velocity": 0.71,
      "hand": "right"
    },
    {
      "midi": 69,
      "time": 0.652,
      "duration": 0.174,
      "velocity": 0.71,
      "hand": "right"
    },
    {
      "midi": 68,
      "time": 0.783,
      "duration": 0.174,
      "velocity": 0.71,
      "hand": "right"
    },
    {
      "midi": 69,
      "time": 0.913,
      "duration": 0.174,
      "velocity": 0.71,
      "hand": "right"
    },
    {
      "midi": 72,
      "time": 1.043,
      "duration": 0.261,
      "velocity": 0.79,
      "hand": "right"
    },
    {
      "midi": 74,
      "time": 1.304,
      "duration": 0.174,
      "velocity": 0.71,
      "hand": "right"
    },
    {
      "midi": 72,
      "time": 1.435,
      "duration": 0.174,
      "velocity": 0.71,
      "hand": "right"
    },
    {
      "midi": 71,
      "time": 1.565,
      "duration": 0.174,
      "velocity": 0.71,
      "hand": "right"
    },
    {
      "midi": 72,
      "time": 1.696,
      "duration": 0.174,
      "velocity": 0.71,
      "hand": "right"
    },
    {
      "midi": 76,
      "time": 2.087,
      "duration": 0.261,
      "velocity": 0.79,
      "hand": "right"
    },
    {
      "midi": 77,
      "time": 2.348,
      "duration": 0.174,
      "velocity": 0.71,
      "hand": "right"
    },
    {
      "midi": 76,
      "time": 2.478,
      "duration": 0.174,
      "velocity": 0.71,
      "hand": "right"
    },
    {
      "midi": 75,
      "time": 2.609,
      "duration": 0.174,
      "velocity": 0.71,
      "hand": "right"
    },
    {
      "midi": 76,
      "time": 2.739,
      "duration": 0.174,
      "velocity": 0.71,
      "hand": "right"
    },
    {
      "midi": 83,
      "time": 3.13,
      "duration": 0.174,
      "velocity": 0.71,
      "hand": "right"
    },
    {
      "midi": 81,
      "time": 3.261,
      "duration": 0.174,
      "velocity": 0.71,
      "hand": "right"
    },
    {
      "midi": 80,
      "time": 3.391,
      "duration": 0.174,
      "velocity": 0.71,
      "hand": "right"
    },
    {
      "midi": 81,
      "time": 3.522,
      "duration": 0.174,
      "velocity": 0.71,
      "hand": "right"
    },
    {
      "midi": 83,
      "time": 3.652,
      "duration": 0.174,
      "velocity": 0.71,
      "hand": "right"
    },
    {
      "midi": 81,
      "time": 3.783,
      "duration": 0.174,
      "velocity": 0.71,
      "hand": "right"
    },
    {
      "midi": 80,
      "time": 3.913,
      "duration": 0.174,
      "velocity": 0.71,
      "hand": "right"
    },
    {
      "midi": 81,
      "time": 4.043,
      "duration": 0.174,
      "velocity": 0.71,
      "hand": "right"
    },
    {
      "midi": 84,
      "time": 4.174,
      "duration": 0.261,
      "velocity": 0.79,
      "hand": "right"
    },
    {
      "midi": 81,
      "time": 4.435,
      "duration": 0.261,
      "velocity": 0.71,
      "hand": "right"
    },
    {
      "midi": 69,
      "time": 4.696,
      "duration": 0.522,
      "velocity": 0.63,
      "hand": "right"
    }
  ],
  "notes2Hands": [
    {
      "midi": 71,
      "time": 0.522,
      "duration": 0.13,
      "velocity": 0.71,
      "hand": "right"
    },
    {
      "midi": 69,
      "time": 0.652,
      "duration": 0.13,
      "velocity": 0.71,
      "hand": "right"
    },
    {
      "midi": 68,
      "time": 0.783,
      "duration": 0.13,
      "velocity": 0.71,
      "hand": "right"
    },
    {
      "midi": 69,
      "time": 0.913,
      "duration": 0.13,
      "velocity": 0.71,
      "hand": "right"
    },
    {
      "midi": 45,
      "time": 1.043,
      "duration": 0.261,
      "velocity": 0.63,
      "hand": "left"
    },
    {
      "midi": 52,
      "time": 1.043,
      "duration": 0.261,
      "velocity": 0.63,
      "hand": "left"
    },
    {
      "midi": 57,
      "time": 1.043,
      "duration": 0.261,
      "velocity": 0.63,
      "hand": "left"
    },
    {
      "midi": 72,
      "time": 1.043,
      "duration": 0.261,
      "velocity": 0.79,
      "hand": "right"
    },
    {
      "midi": 74,
      "time": 1.304,
      "duration": 0.13,
      "velocity": 0.71,
      "hand": "right"
    },
    {
      "midi": 72,
      "time": 1.435,
      "duration": 0.13,
      "velocity": 0.71,
      "hand": "right"
    },
    {
      "midi": 45,
      "time": 1.565,
      "duration": 0.261,
      "velocity": 0.63,
      "hand": "left"
    },
    {
      "midi": 52,
      "time": 1.565,
      "duration": 0.261,
      "velocity": 0.63,
      "hand": "left"
    },
    {
      "midi": 57,
      "time": 1.565,
      "duration": 0.261,
      "velocity": 0.63,
      "hand": "left"
    },
    {
      "midi": 71,
      "time": 1.565,
      "duration": 0.13,
      "velocity": 0.71,
      "hand": "right"
    },
    {
      "midi": 72,
      "time": 1.696,
      "duration": 0.13,
      "velocity": 0.71,
      "hand": "right"
    },
    {
      "midi": 45,
      "time": 2.087,
      "duration": 0.261,
      "velocity": 0.63,
      "hand": "left"
    },
    {
      "midi": 52,
      "time": 2.087,
      "duration": 0.261,
      "velocity": 0.63,
      "hand": "left"
    },
    {
      "midi": 57,
      "time": 2.087,
      "duration": 0.261,
      "velocity": 0.63,
      "hand": "left"
    },
    {
      "midi": 76,
      "time": 2.087,
      "duration": 0.261,
      "velocity": 0.79,
      "hand": "right"
    },
    {
      "midi": 77,
      "time": 2.348,
      "duration": 0.13,
      "velocity": 0.71,
      "hand": "right"
    },
    {
      "midi": 76,
      "time": 2.478,
      "duration": 0.13,
      "velocity": 0.71,
      "hand": "right"
    },
    {
      "midi": 45,
      "time": 2.609,
      "duration": 0.261,
      "velocity": 0.63,
      "hand": "left"
    },
    {
      "midi": 52,
      "time": 2.609,
      "duration": 0.261,
      "velocity": 0.63,
      "hand": "left"
    },
    {
      "midi": 57,
      "time": 2.609,
      "duration": 0.261,
      "velocity": 0.63,
      "hand": "left"
    },
    {
      "midi": 75,
      "time": 2.609,
      "duration": 0.13,
      "velocity": 0.71,
      "hand": "right"
    },
    {
      "midi": 76,
      "time": 2.739,
      "duration": 0.13,
      "velocity": 0.71,
      "hand": "right"
    },
    {
      "midi": 50,
      "time": 3.13,
      "duration": 0.261,
      "velocity": 0.63,
      "hand": "left"
    },
    {
      "midi": 53,
      "time": 3.13,
      "duration": 0.261,
      "velocity": 0.63,
      "hand": "left"
    },
    {
      "midi": 57,
      "time": 3.13,
      "duration": 0.261,
      "velocity": 0.63,
      "hand": "left"
    },
    {
      "midi": 83,
      "time": 3.13,
      "duration": 0.13,
      "velocity": 0.71,
      "hand": "right"
    },
    {
      "midi": 81,
      "time": 3.261,
      "duration": 0.13,
      "velocity": 0.71,
      "hand": "right"
    },
    {
      "midi": 80,
      "time": 3.391,
      "duration": 0.13,
      "velocity": 0.71,
      "hand": "right"
    },
    {
      "midi": 81,
      "time": 3.522,
      "duration": 0.13,
      "velocity": 0.71,
      "hand": "right"
    },
    {
      "midi": 50,
      "time": 3.652,
      "duration": 0.261,
      "velocity": 0.63,
      "hand": "left"
    },
    {
      "midi": 53,
      "time": 3.652,
      "duration": 0.261,
      "velocity": 0.63,
      "hand": "left"
    },
    {
      "midi": 57,
      "time": 3.652,
      "duration": 0.261,
      "velocity": 0.63,
      "hand": "left"
    },
    {
      "midi": 83,
      "time": 3.652,
      "duration": 0.13,
      "velocity": 0.71,
      "hand": "right"
    },
    {
      "midi": 81,
      "time": 3.783,
      "duration": 0.13,
      "velocity": 0.71,
      "hand": "right"
    },
    {
      "midi": 80,
      "time": 3.913,
      "duration": 0.13,
      "velocity": 0.71,
      "hand": "right"
    },
    {
      "midi": 81,
      "time": 4.043,
      "duration": 0.13,
      "velocity": 0.71,
      "hand": "right"
    },
    {
      "midi": 45,
      "time": 4.174,
      "duration": 0.261,
      "velocity": 0.63,
      "hand": "left"
    },
    {
      "midi": 52,
      "time": 4.174,
      "duration": 0.261,
      "velocity": 0.63,
      "hand": "left"
    },
    {
      "midi": 57,
      "time": 4.174,
      "duration": 0.261,
      "velocity": 0.63,
      "hand": "left"
    },
    {
      "midi": 84,
      "time": 4.174,
      "duration": 0.261,
      "velocity": 0.79,
      "hand": "right"
    },
    {
      "midi": 81,
      "time": 4.435,
      "duration": 0.261,
      "velocity": 0.71,
      "hand": "right"
    },
    {
      "midi": 45,
      "time": 4.696,
      "duration": 0.261,
      "velocity": 0.63,
      "hand": "left"
    },
    {
      "midi": 52,
      "time": 4.696,
      "duration": 0.261,
      "velocity": 0.63,
      "hand": "left"
    },
    {
      "midi": 57,
      "time": 4.696,
      "duration": 0.261,
      "velocity": 0.63,
      "hand": "left"
    },
    {
      "midi": 69,
      "time": 4.696,
      "duration": 0.522,
      "velocity": 0.63,
      "hand": "right"
    }
  ]
}
