{
  "id": "turkish-march",
  "title": "Marcha Turca",
  "artist": "W.A. Mozart",
  "difficulty": "Difícil",
  "bpm": 115,
  "duration": 90,
  "category": "Clássicos",
  "isPremium": true,
  "coverUrl": "/images/covers/turkish_march.png",
  "notes": [
    {
      "midi": 71,
      "time": 1.0,
      "duration": 0.25,
      "hand": "left",
      "velocity": 80
    },
    {
      "midi": 69,
      "time": 1.25,
      "duration": 0.25,
      "hand": "left",
      "velocity": 80
    },
    {
      "midi": 68,
      "time": 1.5,
      "duration": 0.25,
      "hand": "left",
      "velocity": 80
    },
    {
      "midi": 69,
      "time": 1.75,
      "duration": 0.25,
      "hand": "left",
      "velocity": 80
    },
    {
      "midi": 72,
      "time": 2.0,
      "duration": 0.5,
      "hand": "left",
      "velocity": 80
    },
    {
      "midi": 74,
      "time": 2.5,
      "duration": 0.25,
      "hand": "left",
      "velocity": 80
    },
    {
      "midi": 72,
      "time": 2.75,
      "duration": 0.25,
      "hand": "left",
      "velocity": 80
    },
    {
      "midi": 71,
      "time": 3.0,
      "duration": 0.25,
      "hand": "left",
      "velocity": 80
    },
    {
      "midi": 72,
      "time": 3.25,
      "duration": 0.25,
      "hand": "left",
      "velocity": 80
    },
    {
      "midi": 76,
      "time": 4.0,
      "duration": 0.5,
      "hand": "left",
      "velocity": 80
    },
    {
      "midi": 77,
      "time": 4.5,
      "duration": 0.25,
      "hand": "left",
      "velocity": 80
    },
    {
      "midi": 76,
      "time": 4.75,
      "duration": 0.25,
      "hand": "left",
      "velocity": 80
    },
    {
      "midi": 75,
      "time": 5.0,
      "duration": 0.25,
      "hand": "left",
      "velocity": 80
    },
    {
      "midi": 76,
      "time": 5.25,
      "duration": 0.25,
      "hand": "left",
      "velocity": 80
    },
    {
      "midi": 83,
      "time": 6.0,
      "duration": 0.25,
      "hand": "left",
      "velocity": 80
    },
    {
      "midi": 81,
      "time": 6.25,
      "duration": 0.25,
      "hand": "left",
      "velocity": 80
    },
    {
      "midi": 80,
      "time": 6.5,
      "duration": 0.25,
      "hand": "left",
      "velocity": 80
    },
    {
      "midi": 81,
      "time": 6.75,
      "duration": 0.25,
      "hand": "left",
      "velocity": 80
    },
    {
      "midi": 83,
      "time": 7.0,
      "duration": 0.25,
      "hand": "left",
      "velocity": 80
    },
    {
      "midi": 81,
      "time": 7.25,
      "duration": 0.25,
      "hand": "left",
      "velocity": 80
    },
    {
      "midi": 80,
      "time": 7.5,
      "duration": 0.25,
      "hand": "left",
      "velocity": 80
    },
    {
      "midi": 81,
      "time": 7.75,
      "duration": 0.25,
      "hand": "left",
      "velocity": 80
    },
    {
      "midi": 84,
      "time": 8.0,
      "duration": 0.5,
      "hand": "left",
      "velocity": 80
    },
    {
      "midi": 81,
      "time": 8.5,
      "duration": 0.5,
      "hand": "left",
      "velocity": 80
    },
    {
      "midi": 69,
      "time": 9.0,
      "duration": 1.0,
      "hand": "left",
      "velocity": 80
    }
  ],
  "notes1Hand": [
    {
      "midi": 71,
      "time": 1.0,
      "duration": 0.25,
      "hand": "left",
      "velocity": 80
    },
    {
      "midi": 69,
      "time": 1.25,
      "duration": 0.25,
      "hand": "left",
      "velocity": 80
    },
    {
      "midi": 68,
      "time": 1.5,
      "duration": 0.25,
      "hand": "left",
      "velocity": 80
    },
    {
      "midi": 69,
      "time": 1.75,
      "duration": 0.25,
      "hand": "left",
      "velocity": 80
    },
    {
      "midi": 72,
      "time": 2.0,
      "duration": 0.5,
      "hand": "left",
      "velocity": 80
    },
    {
      "midi": 74,
      "time": 2.5,
      "duration": 0.25,
      "hand": "left",
      "velocity": 80
    },
    {
      "midi": 72,
      "time": 2.75,
      "duration": 0.25,
      "hand": "left",
      "velocity": 80
    },
    {
      "midi": 71,
      "time": 3.0,
      "duration": 0.25,
      "hand": "left",
      "velocity": 80
    },
    {
      "midi": 72,
      "time": 3.25,
      "duration": 0.25,
      "hand": "left",
      "velocity": 80
    },
    {
      "midi": 76,
      "time": 4.0,
      "duration": 0.5,
      "hand": "left",
      "velocity": 80
    },
    {
      "midi": 77,
      "time": 4.5,
      "duration": 0.25,
      "hand": "left",
      "velocity": 80
    },
    {
      "midi": 76,
      "time": 4.75,
      "duration": 0.25,
      "hand": "left",
      "velocity": 80
    },
    {
      "midi": 75,
      "time": 5.0,
      "duration": 0.25,
      "hand": "left",
      "velocity": 80
    },
    {
      "midi": 76,
      "time": 5.25,
      "duration": 0.25,
      "hand": "left",
      "velocity": 80
    },
    {
      "midi": 83,
      "time": 6.0,
      "duration": 0.25,
      "hand": "left",
      "velocity": 80
    },
    {
      "midi": 81,
      "time": 6.25,
      "duration": 0.25,
      "hand": "left",
      "velocity": 80
    },
    {
      "midi": 80,
      "time": 6.5,
      "duration": 0.25,
      "hand": "left",
      "velocity": 80
    },
    {
      "midi": 81,
      "time": 6.75,
      "duration": 0.25,
      "hand": "left",
      "velocity": 80
    },
    {
      "midi": 83,
      "time": 7.0,
      "duration": 0.25,
      "hand": "left",
      "velocity": 80
    },
    {
      "midi": 81,
      "time": 7.25,
      "duration": 0.25,
      "hand": "left",
      "velocity": 80
    },
    {
      "midi": 80,
      "time": 7.5,
      "duration": 0.25,
      "hand": "left",
      "velocity": 80
    },
    {
      "midi": 81,
      "time": 7.75,
      "duration": 0.25,
      "hand": "left",
      "velocity": 80
    },
    {
      "midi": 84,
      "time": 8.0,
      "duration": 0.5,
      "hand": "left",
      "velocity": 80
    },
    {
      "midi": 81,
      "time": 8.5,
      "duration": 0.5,
      "hand": "left",
      "velocity": 80
    },
    {
      "midi": 69,
      "time": 9.0,
      "duration": 1.0,
      "hand": "left",
      "velocity": 80
    }
  ],
  "notes2Hands": [
    {
      "midi": 71,
      "time": 1.0,
      "duration": 0.25,
      "hand": "left",
      "velocity": 80
    },
    {
      "midi": 69,
      "time": 1.25,
      "duration": 0.25,
      "hand": "left",
      "velocity": 80
    },
    {
      "midi": 68,
      "time": 1.5,
      "duration": 0.25,
      "hand": "left",
      "velocity": 80
    },
    {
      "midi": 69,
      "time": 1.75,
      "duration": 0.25,
      "hand": "left",
      "velocity": 80
    },
    {
      "midi": 72,
      "time": 2.0,
      "duration": 0.5,
      "hand": "left",
      "velocity": 80
    },
    {
      "midi": 45,
      "time": 2.0,
      "duration": 0.5,
      "hand": "left",
      "velocity": 80
    },
    {
      "midi": 52,
      "time": 2.0,
      "duration": 0.5,
      "hand": "left",
      "velocity": 80
    },
    {
      "midi": 57,
      "time": 2.0,
      "duration": 0.5,
      "hand": "left",
      "velocity": 80
    },
    {
      "midi": 74,
      "time": 2.5,
      "duration": 0.25,
      "hand": "left",
      "velocity": 80
    },
    {
      "midi": 72,
      "time": 2.75,
      "duration": 0.25,
      "hand": "left",
      "velocity": 80
    },
    {
      "midi": 71,
      "time": 3.0,
      "duration": 0.25,
      "hand": "left",
      "velocity": 80
    },
    {
      "midi": 45,
      "time": 3.0,
      "duration": 0.5,
      "hand": "left",
      "velocity": 80
    },
    {
      "midi": 52,
      "time": 3.0,
      "duration": 0.5,
      "hand": "left",
      "velocity": 80
    },
    {
      "midi": 57,
      "time": 3.0,
      "duration": 0.5,
      "hand": "left",
      "velocity": 80
    },
    {
      "midi": 72,
      "time": 3.25,
      "duration": 0.25,
      "hand": "left",
      "velocity": 80
    },
    {
      "midi": 76,
      "time": 4.0,
      "duration": 0.5,
      "hand": "left",
      "velocity": 80
    },
    {
      "midi": 45,
      "time": 4.0,
      "duration": 0.5,
      "hand": "left",
      "velocity": 80
    },
    {
      "midi": 52,
      "time": 4.0,
      "duration": 0.5,
      "hand": "left",
      "velocity": 80
    },
    {
      "midi": 57,
      "time": 4.0,
      "duration": 0.5,
      "hand": "left",
      "velocity": 80
    },
    {
      "midi": 77,
      "time": 4.5,
      "duration": 0.25,
      "hand": "left",
      "velocity": 80
    },
    {
      "midi": 76,
      "time": 4.75,
      "duration": 0.25,
      "hand": "left",
      "velocity": 80
    },
    {
      "midi": 75,
      "time": 5.0,
      "duration": 0.25,
      "hand": "left",
      "velocity": 80
    },
    {
      "midi": 45,
      "time": 5.0,
      "duration": 0.5,
      "hand": "left",
      "velocity": 80
    },
    {
      "midi": 52,
      "time": 5.0,
      "duration": 0.5,
      "hand": "left",
      "velocity": 80
    },
    {
      "midi": 57,
      "time": 5.0,
      "duration": 0.5,
      "hand": "left",
      "velocity": 80
    },
    {
      "midi": 76,
      "time": 5.25,
      "duration": 0.25,
      "hand": "left",
      "velocity": 80
    },
    {
      "midi": 83,
      "time": 6.0,
      "duration": 0.25,
      "hand": "left",
      "velocity": 80
    },
    {
      "midi": 50,
      "time": 6.0,
      "duration": 0.5,
      "hand": "left",
      "velocity": 80
    },
    {
      "midi": 53,
      "time": 6.0,
      "duration": 0.5,
      "hand": "left",
      "velocity": 80
    },
    {
      "midi": 57,
      "time": 6.0,
      "duration": 0.5,
      "hand": "left",
      "velocity": 80
    },
    {
      "midi": 81,
      "time": 6.25,
      "duration": 0.25,
      "hand": "left",
      "velocity": 80
    },
    {
      "midi": 80,
      "time": 6.5,
      "duration": 0.25,
      "hand": "left",
      "velocity": 80
    },
    {
      "midi": 81,
      "time": 6.75,
      "duration": 0.25,
      "hand": "left",
      "velocity": 80
    },
    {
      "midi": 83,
      "time": 7.0,
      "duration": 0.25,
      "hand": "left",
      "velocity": 80
    },
    {
      "midi": 50,
      "time": 7.0,
      "duration": 0.5,
      "hand": "left",
      "velocity": 80
    },
    {
      "midi": 53,
      "time": 7.0,
      "duration": 0.5,
      "hand": "left",
      "velocity": 80
    },
    {
      "midi": 57,
      "time": 7.0,
      "duration": 0.5,
      "hand": "left",
      "velocity": 80
    },
    {
      "midi": 81,
      "time": 7.25,
      "duration": 0.25,
      "hand": "left",
      "velocity": 80
    },
    {
      "midi": 80,
      "time": 7.5,
      "duration": 0.25,
      "hand": "left",
      "velocity": 80
    },
    {
      "midi": 81,
      "time": 7.75,
      "duration": 0.25,
      "hand": "left",
      "velocity": 80
    },
    {
      "midi": 84,
      "time": 8.0,
      "duration": 0.5,
      "hand": "left",
      "velocity": 80
    },
    {
      "midi": 45,
      "time": 8.0,
      "duration": 0.5,
      "hand": "left",
      "velocity": 80
    },
    {
      "midi": 52,
      "time": 8.0,
      "duration": 0.5,
      "hand": "left",
      "velocity": 80
    },
    {
      "midi": 57,
      "time": 8.0,
      "duration": 0.5,
      "hand": "left",
      "velocity": 80
    },
    {
      "midi": 81,
      "time": 8.5,
      "duration": 0.5,
      "hand": "left",
      "velocity": 80
    },
    {
      "midi": 69,
      "time": 9.0,
      "duration": 1.0,
      "hand": "left",
      "velocity": 80
    },
    {
      "midi": 45,
      "time": 9.0,
      "duration": 0.5,
      "hand": "left",
      "velocity": 80
    },
    {
      "midi": 52,
      "time": 9.0,
      "duration": 0.5,
      "hand": "left",
      "velocity": 80
    },
    {
      "midi": 57,
      "time": 9.0,
      "duration": 0.5,
      "hand": "left",
      "velocity": 80
    }
  ]
}