{
  "id": "tutu-maramba",
  "title": "Tutu Marambá",
  "artist": "Tradicional",
  "difficulty": "Fácil",
  "bpm": 100,
  "duration": 39,
  "category": "Infantis",
  "isPremium": false,
  "coverUrl": "/images/covers/placeholder.png",
  "notes": [
    {
      "midi": 62,
      "time": 0,
      "duration": 0.3,
      "velocity": 0.63,
      "hand": "right"
    },
    {
      "midi": 74,
      "time": 0,
      "duration": 0.3,
      "velocity": 0.63,
      "hand": "right"
    },
    {
      "midi": 43,
      "time": 0.3,
      "duration": 0.6,
      "velocity": 0.63,
      "hand": "left"
    },
    {
      "midi": 62,
      "time": 0.3,
      "duration": 0.3,
      "velocity": 0.63,
      "hand": "right"
    },
    {
      "midi": 79,
      "time": 0.3,
      "duration": 0.6,
      "velocity": 0.63,
      "hand": "right"
    },
    {
      "midi": 55,
      "time": 0.6,
      "duration": 0.3,
      "velocity": 0.63,
      "hand": "left"
    },
    {
      "midi": 43,
      "time": 0.9,
      "duration": 0.6,
      "velocity": 0.63,
      "hand": "left"
    },
    {
      "midi": 62,
      "time": 0.9,
      "duration": 0.3,
      "velocity": 0.63,
      "hand": "right"
    },
    {
      "midi": 79,
      "time": 0.9,
      "duration": 0.3,
      "velocity": 0.63,
      "hand": "right"
    },
    {
      "midi": 66,
      "time": 1.2,
      "duration": 0.3,
      "velocity": 0.63,
      "hand": "right"
    },
    {
      "midi": 81,
      "time": 1.2,
      "duration": 0.3,
      "velocity": 0.63,
      "hand": "right"
    },
    {
      "midi": 47,
      "time": 1.5,
      "duration": 0.6,
      "velocity": 0.63,
      "hand": "left"
    },
    {
      "midi": 67,
      "time": 1.5,
      "duration": 0.3,
      "velocity": 0.63,
      "hand": "right"
    },
    {
      "midi": 83,
      "time": 1.5,
      "duration": 0.9,
      "velocity": 0.63,
      "hand": "right"
    },
    {
      "midi": 62,
      "time": 1.8,
      "duration": 0.15,
      "velocity": 0.63,
      "hand": "right"
    },
    {
      "midi": 64,
      "time": 1.95,
      "duration": 0.15,
      "velocity": 0.63,
      "hand": "right"
    },
    {
      "midi": 47,
      "time": 2.1,
      "duration": 0.6,
      "velocity": 0.63,
      "hand": "left"
    },
    {
      "midi": 66,
      "time": 2.1,
      "duration": 0.3,
      "velocity": 0.63,
      "hand": "right"
    },
    {
      "midi": 67,
      "time": 2.4,
      "duration": 0.3,
      "velocity": 0.63,
      "hand": "right"
    },
    {
      "midi": 83,
      "time": 2.4,
      "duration": 0.3,
      "velocity": 0.63,
      "hand": "right"
    },
    {
      "midi": 48,
      "time": 2.7,
      "duration": 0.6,
      "velocity": 0.63,
      "hand": "left"
    },
    {
      "midi": 69,
      "time": 2.7,
      "duration": 0.3,
      "velocity": 0.63,
      "hand": "right"
    },
    {
      "midi": 84,
      "time": 2.7,
      "duration": 0.3,
      "velocity": 0.63,
      "hand": "right"
    },
    {
      "midi": 67,
      "time": 3,
      "duration": 0.3,
      "velocity": 0.63,
      "hand": "right"
    },
    {
      "midi": 83,
      "time": 3,
      "duration": 0.3,
      "velocity": 0.63,
      "hand": "right"
    },
    {
      "midi": 45,
      "time": 3.3,
      "duration": 0.6,
      "velocity": 0.63,
      "hand": "left"
    },
    {
      "midi": 66,
      "time": 3.3,
      "duration": 0.3,
      "velocity": 0.63,
      "hand": "right"
    },
    {
      "midi": 81,
      "time": 3.3,
      "duration": 0.3,
      "velocity": 0.63,
      "hand": "right"
    },
    {
      "midi": 64,
      "time": 3.6,
      "duration": 0.3,
      "velocity": 0.63,
      "hand": "right"
    },
    {
      "midi": 79,
      "time": 3.6,
      "duration": 0.3,
      "velocity": 0.63,
      "hand": "right"
    },
    {
      "midi": 45,
      "time": 3.9,
      "duration": 0.6,
      "velocity": 0.63,
      "hand": "left"
    },
    {
      "midi": 66,
      "time": 3.9,
      "duration": 0.3,
      "velocity": 0.63,
      "hand": "right"
    },
    {
      "midi": 81,
      "time": 3.9,
      "duration": 0.9,
      "velocity": 0.63,
      "hand": "right"
    },
    {
      "midi": 60,
      "time": 4.2,
      "duration": 0.15,
      "velocity": 0.63,
      "hand": "right"
    },
    {
      "midi": 62,
      "time": 4.35,
      "duration": 0.15,
      "velocity": 0.63,
      "hand": "right"
    },
    {
      "midi": 45,
      "time": 4.5,
      "duration": 0.6,
      "velocity": 0.63,
      "hand": "left"
    },
    {
      "midi": 66,
      "time": 4.5,
      "duration": 0.3,
      "velocity": 0.63,
      "hand": "right"
    },
    {
      "midi": 66,
      "time": 4.8,
      "duration": 0.3,
      "velocity": 0.63,
      "hand": "right"
    },
    {
      "midi": 81,
      "time": 4.8,
      "duration": 0.3,
      "velocity": 0.63,
      "hand": "right"
    },
    {
      "midi": 48,
      "time": 5.1,
      "duration": 0.6,
      "velocity": 0.63,
      "hand": "left"
    },
    {
      "midi": 69,
      "time": 5.1,
      "duration": 0.3,
      "velocity": 0.63,
      "hand": "right"
    },
    {
      "midi": 84,
      "time": 5.1,
      "duration": 0.6,
      "velocity": 0.63,
      "hand": "right"
    },
    {
      "midi": 69,
      "time": 5.4,
      "duration": 0.3,
      "velocity": 0.63,
      "hand": "right"
    },
    {
      "midi": 50,
      "time": 5.7,
      "duration": 0.6,
      "velocity": 0.63,
      "hand": "left"
    },
    {
      "midi": 66,
      "time": 5.7,
      "duration": 0.3,
      "velocity": 0.63,
      "hand": "right"
    },
    {
      "midi": 86,
      "time": 5.7,
      "duration": 0.3,
      "velocity": 0.63,
      "hand": "right"
    },
    {
      "midi": 69,
      "time": 6,
      "duration": 0.3,
      "velocity": 0.63,
      "hand": "right"
    },
    {
      "midi": 84,
      "time": 6,
      "duration": 0.3,
      "velocity": 0.63,
      "hand": "right"
    },
    {
      "midi": 47,
      "time": 6.3,
      "duration": 0.6,
      "velocity": 0.63,
      "hand": "left"
    },
    {
      "midi": 67,
      "time": 6.3,
      "duration": 0.3,
      "velocity": 0.63,
      "hand": "right"
    },
    {
      "midi": 83,
      "time": 6.3,
      "duration": 0.6,
      "velocity": 0.63,
      "hand": "right"
    },
    {
      "midi": 62,
      "time": 6.6,
      "duration": 0.3,
      "velocity": 0.63,
      "hand": "right"
    },
    {
      "midi": 43,
      "time": 6.9,
      "duration": 0.6,
      "velocity": 0.63,
      "hand": "left"
    },
    {
      "midi": 71,
      "time": 6.9,
      "duration": 0.3,
      "velocity": 0.63,
      "hand": "right"
    },
    {
      "midi": 79,
      "time": 6.9,
      "duration": 0.3,
      "velocity": 0.63,
      "hand": "right"
    },
    {
      "midi": 74,
      "time": 7.2,
      "duration": 0.3,
      "velocity": 0.63,
      "hand": "right"
    },
    {
      "midi": 83,
      "time": 7.2,
      "duration": 0.3,
      "velocity": 0.63,
      "hand": "right"
    },
    {
      "midi": 45,
      "time": 7.5,
      "duration": 0.6,
      "velocity": 0.63,
      "hand": "left"
    },
    {
      "midi": 73,
      "time": 7.5,
      "duration": 0.3,
      "velocity": 0.63,
      "hand": "right"
    },
    {
      "midi": 81,
      "time": 7.5,
      "duration": 0.3,
      "velocity": 0.63,
      "hand": "right"
    },
    {
      "midi": 71,
      "time": 7.8,
      "duration": 0.3,
      "velocity": 0.63,
      "hand": "right"
    },
    {
      "midi": 79,
      "time": 7.8,
      "duration": 0.3,
      "velocity": 0.63,
      "hand": "right"
    },
    {
      "midi": 42,
      "time": 8.1,
      "duration": 0.6,
      "velocity": 0.63,
      "hand": "left"
    },
    {
      "midi": 69,
      "time": 8.1,
      "duration": 0.3,
      "velocity": 0.63,
      "hand": "right"
    },
    {
      "midi": 78,
      "time": 8.1,
      "duration": 0.3,
      "velocity": 0.63,
      "hand": "right"
    },
    {
      "midi": 71,
      "time": 8.4,
      "duration": 0.3,
      "velocity": 0.63,
      "hand": "right"
    },
    {
      "midi": 79,
      "time": 8.4,
      "duration": 0.3,
      "velocity": 0.63,
      "hand": "right"
    },
    {
      "midi": 45,
      "time": 8.7,
      "duration": 1.2,
      "velocity": 0.63,
      "hand": "left"
    },
    {
      "midi": 72,
      "time": 8.7,
      "duration": 0.3,
      "velocity": 0.63,
      "hand": "right"
    },
    {
      "midi": 81,
      "time": 8.7,
      "duration": 0.6,
      "velocity": 0.63,
      "hand": "right"
    },
    {
      "midi": 69,
      "time": 9,
      "duration": 0.15,
      "velocity": 0.63,
      "hand": "right"
    },
    {
      "midi": 71,
      "time": 9.15,
      "duration": 0.15,
      "velocity": 0.63,
      "hand": "right"
    },
    {
      "midi": 69,
      "time": 9.3,
      "duration": 0.3,
      "velocity": 0.63,
      "hand": "right"
    },
    {
      "midi": 62,
      "time": 9.6,
      "duration": 0.3,
      "velocity": 0.63,
      "hand": "right"
    },
    {
      "midi": 74,
      "time": 9.6,
      "duration": 0.3,
      "velocity": 0.63,
      "hand": "right"
    },
    {
      "midi": 43,
      "time": 9.9,
      "duration": 0.6,
      "velocity": 0.63,
      "hand": "left"
    },
    {
      "midi": 62,
      "time": 9.9,
      "duration": 0.3,
      "velocity": 0.63,
      "hand": "right"
    },
    {
      "midi": 79,
      "time": 9.9,
      "duration": 0.6,
      "velocity": 0.63,
      "hand": "right"
    },
    {
      "midi": 55,
      "time": 10.2,
      "duration": 0.3,
      "velocity": 0.63,
      "hand": "left"
    },
    {
      "midi": 43,
      "time": 10.5,
      "duration": 0.6,
      "velocity": 0.63,
      "hand": "left"
    },
    {
      "midi": 62,
      "time": 10.5,
      "duration": 0.3,
      "velocity": 0.63,
      "hand": "right"
    },
    {
      "midi": 79,
      "time": 10.5,
      "duration": 0.3,
      "velocity": 0.63,
      "hand": "right"
    },
    {
      "midi": 66,
      "time": 10.8,
      "duration": 0.3,
      "velocity": 0.63,
      "hand": "right"
    },
    {
      "midi": 81,
      "time": 10.8,
      "duration": 0.3,
      "velocity": 0.63,
      "hand": "right"
    },
    {
      "midi": 47,
      "time": 11.1,
      "duration": 0.6,
      "velocity": 0.63,
      "hand": "left"
    },
    {
      "midi": 67,
      "time": 11.1,
      "duration": 0.3,
      "velocity": 0.63,
      "hand": "right"
    },
    {
      "midi": 83,
      "time": 11.1,
      "duration": 0.9,
      "velocity": 0.63,
      "hand": "right"
    },
    {
      "midi": 62,
      "time": 11.4,
      "duration": 0.15,
      "velocity": 0.63,
      "hand": "right"
    },
    {
      "midi": 64,
      "time": 11.55,
      "duration": 0.15,
      "velocity": 0.63,
      "hand": "right"
    },
    {
      "midi": 50,
      "time": 11.7,
      "duration": 0.6,
      "velocity": 0.63,
      "hand": "left"
    },
    {
      "midi": 66,
      "time": 11.7,
      "duration": 0.3,
      "velocity": 0.63,
      "hand": "right"
    },
    {
      "midi": 67,
      "time": 12,
      "duration": 0.3,
      "velocity": 0.63,
      "hand": "right"
    },
    {
      "midi": 86,
      "time": 12,
      "duration": 0.3,
      "velocity": 0.63,
      "hand": "right"
    },
    {
      "midi": 48,
      "time": 12.3,
      "duration": 0.6,
      "velocity": 0.63,
      "hand": "left"
    },
    {
      "midi": 69,
      "time": 12.3,
      "duration": 0.3,
      "velocity": 0.63,
      "hand": "right"
    },
    {
      "midi": 84,
      "time": 12.3,
      "duration": 0.3,
      "velocity": 0.63,
      "hand": "right"
    },
    {
      "midi": 67,
      "time": 12.6,
      "duration": 0.3,
      "velocity": 0.63,
      "hand": "right"
    },
    {
      "midi": 83,
      "time": 12.6,
      "duration": 0.3,
      "velocity": 0.63,
      "hand": "right"
    },
    {
      "midi": 45,
      "time": 12.9,
      "duration": 0.6,
      "velocity": 0.63,
      "hand": "left"
    },
    {
      "midi": 66,
      "time": 12.9,
      "duration": 0.3,
      "velocity": 0.63,
      "hand": "right"
    },
    {
      "midi": 81,
      "time": 12.9,
      "duration": 0.3,
      "velocity": 0.63,
      "hand": "right"
    },
    {
      "midi": 64,
      "time": 13.2,
      "duration": 0.3,
      "velocity": 0.63,
      "hand": "right"
    },
    {
      "midi": 79,
      "time": 13.2,
      "duration": 0.3,
      "velocity": 0.63,
      "hand": "right"
    },
    {
      "midi": 45,
      "time": 13.5,
      "duration": 1.2,
      "velocity": 0.63,
      "hand": "left"
    },
    {
      "midi": 66,
      "time": 13.5,
      "duration": 0.3,
      "velocity": 0.63,
      "hand": "right"
    },
    {
      "midi": 81,
      "time": 13.5,
      "duration": 0.9,
      "velocity": 0.63,
      "hand": "right"
    },
    {
      "midi": 60,
      "time": 13.8,
      "duration": 0.15,
      "velocity": 0.63,
      "hand": "right"
    },
    {
      "midi": 62,
      "time": 13.95,
      "duration": 0.15,
      "velocity": 0.63,
      "hand": "right"
    },
    {
      "midi": 66,
      "time": 14.1,
      "duration": 0.3,
      "velocity": 0.63,
      "hand": "right"
    },
    {
      "midi": 66,
      "time": 14.4,
      "duration": 0.3,
      "velocity": 0.63,
      "hand": "right"
    },
    {
      "midi": 81,
      "time": 14.4,
      "duration": 0.3,
      "velocity": 0.63,
      "hand": "right"
    },
    {
      "midi": 48,
      "time": 14.7,
      "duration": 0.6,
      "velocity": 0.63,
      "hand": "left"
    },
    {
      "midi": 69,
      "time": 14.7,
      "duration": 0.3,
      "velocity": 0.63,
      "hand": "right"
    },
    {
      "midi": 84,
      "time": 14.7,
      "duration": 0.6,
      "velocity": 0.63,
      "hand": "right"
    },
    {
      "midi": 69,
      "time": 15,
      "duration": 0.3,
      "velocity": 0.63,
      "hand": "right"
    },
    {
      "midi": 50,
      "time": 15.3,
      "duration": 0.6,
      "velocity": 0.63,
      "hand": "left"
    },
    {
      "midi": 66,
      "time": 15.3,
      "duration": 0.3,
      "velocity": 0.63,
      "hand": "right"
    },
    {
      "midi": 86,
      "time": 15.3,
      "duration": 0.3,
      "velocity": 0.63,
      "hand": "right"
    },
    {
      "midi": 69,
      "time": 15.6,
      "duration": 0.3,
      "velocity": 0.63,
      "hand": "right"
    },
    {
      "midi": 84,
      "time": 15.6,
      "duration": 0.3,
      "velocity": 0.63,
      "hand": "right"
    },
    {
      "midi": 47,
      "time": 15.9,
      "duration": 0.6,
      "velocity": 0.63,
      "hand": "left"
    },
    {
      "midi": 67,
      "time": 15.9,
      "duration": 0.3,
      "velocity": 0.63,
      "hand": "right"
    },
    {
      "midi": 83,
      "time": 15.9,
      "duration": 0.6,
      "velocity": 0.63,
      "hand": "right"
    },
    {
      "midi": 62,
      "time": 16.2,
      "duration": 0.3,
      "velocity": 0.63,
      "hand": "right"
    },
    {
      "midi": 43,
      "time": 16.5,
      "duration": 0.6,
      "velocity": 0.63,
      "hand": "left"
    },
    {
      "midi": 71,
      "time": 16.5,
      "duration": 0.3,
      "velocity": 0.63,
      "hand": "right"
    },
    {
      "midi": 79,
      "time": 16.5,
      "duration": 0.3,
      "velocity": 0.63,
      "hand": "right"
    },
    {
      "midi": 74,
      "time": 16.8,
      "duration": 0.3,
      "velocity": 0.63,
      "hand": "right"
    },
    {
      "midi": 83,
      "time": 16.8,
      "duration": 0.3,
      "velocity": 0.63,
      "hand": "right"
    },
    {
      "midi": 45,
      "time": 17.1,
      "duration": 0.6,
      "velocity": 0.63,
      "hand": "left"
    },
    {
      "midi": 73,
      "time": 17.1,
      "duration": 0.3,
      "velocity": 0.63,
      "hand": "right"
    },
    {
      "midi": 81,
      "time": 17.1,
      "duration": 0.6,
      "velocity": 0.63,
      "hand": "right"
    },
    {
      "midi": 69,
      "time": 17.4,
      "duration": 0.3,
      "velocity": 0.63,
      "hand": "right"
    },
    {
      "midi": 43,
      "time": 17.7,
      "duration": 0.6,
      "velocity": 0.63,
      "hand": "left"
    },
    {
      "midi": 73,
      "time": 17.7,
      "duration": 0.3,
      "velocity": 0.63,
      "hand": "right"
    },
    {
      "midi": 79,
      "time": 17.7,
      "duration": 0.3,
      "velocity": 0.63,
      "hand": "right"
    },
    {
      "midi": 72,
      "time": 18,
      "duration": 0.3,
      "velocity": 0.63,
      "hand": "right"
    },
    {
      "midi": 78,
      "time": 18,
      "duration": 0.3,
      "velocity": 0.63,
      "hand": "right"
    },
    {
      "midi": 43,
      "time": 18.3,
      "duration": 1.2,
      "velocity": 0.63,
      "hand": "left"
    },
    {
      "midi": 71,
      "time": 18.3,
      "duration": 0.6,
      "velocity": 0.63,
      "hand": "right"
    },
    {
      "midi": 79,
      "time": 18.3,
      "duration": 1.2,
      "velocity": 0.63,
      "hand": "right"
    },
    {
      "midi": 67,
      "time": 18.9,
      "duration": 0.6,
      "velocity": 0.63,
      "hand": "right"
    },
    {
      "midi": 43,
      "time": 19.5,
      "duration": 0.6,
      "velocity": 0.63,
      "hand": "left"
    },
    {
      "midi": 70,
      "time": 19.5,
      "duration": 0.3,
      "velocity": 0.63,
      "hand": "right"
    },
    {
      "midi": 79,
      "time": 19.5,
      "duration": 0.3,
      "velocity": 0.63,
      "hand": "right"
    },
    {
      "midi": 70,
      "time": 19.8,
      "duration": 0.3,
      "velocity": 0.63,
      "hand": "right"
    },
    {
      "midi": 79,
      "time": 19.8,
      "duration": 0.3,
      "velocity": 0.63,
      "hand": "right"
    },
    {
      "midi": 43,
      "time": 20.1,
      "duration": 0.6,
      "velocity": 0.63,
      "hand": "left"
    },
    {
      "midi": 70,
      "time": 20.1,
      "duration": 0.3,
      "velocity": 0.63,
      "hand": "right"
    },
    {
      "midi": 79,
      "time": 20.1,
      "duration": 0.3,
      "velocity": 0.63,
      "hand": "right"
    },
    {
      "midi": 70,
      "time": 20.4,
      "duration": 0.3,
      "velocity": 0.63,
      "hand": "right"
    },
    {
      "midi": 79,
      "time": 20.4,
      "duration": 0.3,
      "velocity": 0.63,
      "hand": "right"
    },
    {
      "midi": 43,
      "time": 20.7,
      "duration": 0.6,
      "velocity": 0.63,
      "hand": "left"
    },
    {
      "midi": 70,
      "time": 20.7,
      "duration": 0.3,
      "velocity": 0.63,
      "hand": "right"
    },
    {
      "midi": 79,
      "time": 20.7,
      "duration": 0.3,
      "velocity": 0.63,
      "hand": "right"
    },
    {
      "midi": 70,
      "time": 21,
      "duration": 0.3,
      "velocity": 0.63,
      "hand": "right"
    },
    {
      "midi": 79,
      "time": 21,
      "duration": 0.3,
      "velocity": 0.63,
      "hand": "right"
    },
    {
      "midi": 43,
      "time": 21.3,
      "duration": 0.6,
      "velocity": 0.63,
      "hand": "left"
    },
    {
      "midi": 70,
      "time": 21.3,
      "duration": 0.3,
      "velocity": 0.63,
      "hand": "right"
    },
    {
      "midi": 79,
      "time": 21.3,
      "duration": 0.3,
      "velocity": 0.63,
      "hand": "right"
    },
    {
      "midi": 70,
      "time": 21.6,
      "duration": 0.3,
      "velocity": 0.63,
      "hand": "right"
    },
    {
      "midi": 79,
      "time": 21.6,
      "duration": 0.3,
      "velocity": 0.63,
      "hand": "right"
    },
    {
      "midi": 45,
      "time": 21.9,
      "duration": 0.6,
      "velocity": 0.63,
      "hand": "left"
    },
    {
      "midi": 72,
      "time": 21.9,
      "duration": 0.3,
      "velocity": 0.63,
      "hand": "right"
    },
    {
      "midi": 81,
      "time": 21.9,
      "duration": 0.3,
      "velocity": 0.63,
      "hand": "right"
    },
    {
      "midi": 70,
      "time": 22.2,
      "duration": 0.3,
      "velocity": 0.63,
      "hand": "right"
    },
    {
      "midi": 79,
      "time": 22.2,
      "duration": 0.3,
      "velocity": 0.63,
      "hand": "right"
    },
    {
      "midi": 42,
      "time": 22.5,
      "duration": 0.6,
      "velocity": 0.63,
      "hand": "left"
    },
    {
      "midi": 69,
      "time": 22.5,
      "duration": 0.3,
      "velocity": 0.63,
      "hand": "right"
    },
    {
      "midi": 78,
      "time": 22.5,
      "duration": 0.3,
      "velocity": 0.63,
      "hand": "right"
    },
    {
      "midi": 67,
      "time": 22.8,
      "duration": 0.3,
      "velocity": 0.63,
      "hand": "right"
    },
    {
      "midi": 75,
      "time": 22.8,
      "duration": 0.3,
      "velocity": 0.63,
      "hand": "right"
    },
    {
      "midi": 38,
      "time": 23.1,
      "duration": 1.2,
      "velocity": 0.63,
      "hand": "left"
    },
    {
      "midi": 66,
      "time": 23.1,
      "duration": 0.3,
      "velocity": 0.63,
      "hand": "right"
    },
    {
      "midi": 74,
      "time": 23.1,
      "duration": 0.9,
      "velocity": 0.63,
      "hand": "right"
    },
    {
      "midi": 63,
      "time": 23.4,
      "duration": 0.15,
      "velocity": 0.63,
      "hand": "right"
    },
    {
      "midi": 66,
      "time": 23.55,
      "duration": 0.15,
      "velocity": 0.63,
      "hand": "right"
    },
    {
      "midi": 67,
      "time": 23.7,
      "duration": 0.15,
      "velocity": 0.63,
      "hand": "right"
    },
    {
      "midi": 38,
      "time": 24.3,
      "duration": 0.6,
      "velocity": 0.63,
      "hand": "left"
    },
    {
      "midi": 66,
      "time": 24.3,
      "duration": 0.3,
      "velocity": 0.63,
      "hand": "right"
    },
    {
      "midi": 74,
      "time": 24.3,
      "duration": 0.3,
      "velocity": 0.63,
      "hand": "right"
    },
    {
      "midi": 67,
      "time": 24.6,
      "duration": 0.3,
      "velocity": 0.63,
      "hand": "right"
    },
    {
      "midi": 76,
      "time": 24.6,
      "duration": 0.3,
      "velocity": 0.63,
      "hand": "right"
    },
    {
      "midi": 42,
      "time": 24.9,
      "duration": 0.6,
      "velocity": 0.63,
      "hand": "left"
    },
    {
      "midi": 69,
      "time": 24.9,
      "duration": 0.3,
      "velocity": 0.63,
      "hand": "right"
    },
    {
      "midi": 78,
      "time": 24.9,
      "duration": 0.3,
      "velocity": 0.63,
      "hand": "right"
    },
    {
      "midi": 70,
      "time": 25.2,
      "duration": 0.3,
      "velocity": 0.63,
      "hand": "right"
    },
    {
      "midi": 79,
      "time": 25.2,
      "duration": 0.3,
      "velocity": 0.63,
      "hand": "right"
    },
    {
      "midi": 45,
      "time": 25.5,
      "duration": 0.6,
      "velocity": 0.63,
      "hand": "left"
    },
    {
      "midi": 72,
      "time": 25.5,
      "duration": 0.3,
      "velocity": 0.63,
      "hand": "right"
    },
    {
      "midi": 81,
      "time": 25.5,
      "duration": 0.3,
      "velocity": 0.63,
      "hand": "right"
    },
    {
      "midi": 72,
      "time": 25.8,
      "duration": 0.3,
      "velocity": 0.63,
      "hand": "right"
    },
    {
      "midi": 81,
      "time": 25.8,
      "duration": 0.3,
      "velocity": 0.63,
      "hand": "right"
    },
    {
      "midi": 45,
      "time": 26.1,
      "duration": 0.6,
      "velocity": 0.63,
      "hand": "left"
    },
    {
      "midi": 72,
      "time": 26.1,
      "duration": 0.3,
      "velocity": 0.63,
      "hand": "right"
    },
    {
      "midi": 81,
      "time": 26.1,
      "duration": 0.3,
      "velocity": 0.63,
      "hand": "right"
    },
    {
      "midi": 72,
      "time": 26.4,
      "duration": 0.3,
      "velocity": 0.63,
      "hand": "right"
    },
    {
      "midi": 81,
      "time": 26.4,
      "duration": 0.3,
      "velocity": 0.63,
      "hand": "right"
    },
    {
      "midi": 47,
      "time": 26.7,
      "duration": 0.6,
      "velocity": 0.63,
      "hand": "left"
    },
    {
      "midi": 74,
      "time": 26.7,
      "duration": 0.3,
      "velocity": 0.63,
      "hand": "right"
    },
    {
      "midi": 82,
      "time": 26.7,
      "duration": 0.3,
      "velocity": 0.63,
      "hand": "right"
    },
    {
      "midi": 72,
      "time": 27,
      "duration": 0.3,
      "velocity": 0.63,
      "hand": "right"
    },
    {
      "midi": 81,
      "time": 27,
      "duration": 0.3,
      "velocity": 0.63,
      "hand": "right"
    },
    {
      "midi": 43,
      "time": 27.3,
      "duration": 0.6,
      "velocity": 0.63,
      "hand": "left"
    },
    {
      "midi": 70,
      "time": 27.3,
      "duration": 0.3,
      "velocity": 0.63,
      "hand": "right"
    },
    {
      "midi": 79,
      "time": 27.3,
      "duration": 0.3,
      "velocity": 0.63,
      "hand": "right"
    },
    {
      "midi": 69,
      "time": 27.6,
      "duration": 0.3,
      "velocity": 0.63,
      "hand": "right"
    },
    {
      "midi": 78,
      "time": 27.6,
      "duration": 0.3,
      "velocity": 0.63,
      "hand": "right"
    },
    {
      "midi": 43,
      "time": 27.9,
      "duration": 1.2,
      "velocity": 0.63,
      "hand": "left"
    },
    {
      "midi": 70,
      "time": 27.9,
      "duration": 0.3,
      "velocity": 0.63,
      "hand": "right"
    },
    {
      "midi": 79,
      "time": 27.9,
      "duration": 0.6,
      "velocity": 0.63,
      "hand": "right"
    },
    {
      "midi": 67,
      "time": 28.2,
      "duration": 0.3,
      "velocity": 0.63,
      "hand": "right"
    },
    {
      "midi": 70,
      "time": 28.5,
      "duration": 0.6,
      "velocity": 0.63,
      "hand": "right"
    },
    {
      "midi": 74,
      "time": 28.8,
      "duration": 0.3,
      "velocity": 0.63,
      "hand": "right"
    },
    {
      "midi": 43,
      "time": 29.1,
      "duration": 0.6,
      "velocity": 0.63,
      "hand": "left"
    },
    {
      "midi": 62,
      "time": 29.1,
      "duration": 0.3,
      "velocity": 0.63,
      "hand": "right"
    },
    {
      "midi": 79,
      "time": 29.1,
      "duration": 0.6,
      "velocity": 0.63,
      "hand": "right"
    },
    {
      "midi": 55,
      "time": 29.4,
      "duration": 0.3,
      "velocity": 0.63,
      "hand": "left"
    },
    {
      "midi": 43,
      "time": 29.7,
      "duration": 0.6,
      "velocity": 0.63,
      "hand": "left"
    },
    {
      "midi": 62,
      "time": 29.7,
      "duration": 0.3,
      "velocity": 0.63,
      "hand": "right"
    },
    {
      "midi": 79,
      "time": 29.7,
      "duration": 0.3,
      "velocity": 0.63,
      "hand": "right"
    },
    {
      "midi": 66,
      "time": 30,
      "duration": 0.3,
      "velocity": 0.63,
      "hand": "right"
    },
    {
      "midi": 81,
      "time": 30,
      "duration": 0.3,
      "velocity": 0.63,
      "hand": "right"
    },
    {
      "midi": 47,
      "time": 30.3,
      "duration": 1.2,
      "velocity": 0.63,
      "hand": "left"
    },
    {
      "midi": 67,
      "time": 30.3,
      "duration": 0.3,
      "velocity": 0.63,
      "hand": "right"
    },
    {
      "midi": 83,
      "time": 30.3,
      "duration": 0.9,
      "velocity": 0.63,
      "hand": "right"
    },
    {
      "midi": 62,
      "time": 30.6,
      "duration": 0.15,
      "velocity": 0.63,
      "hand": "right"
    },
    {
      "midi": 64,
      "time": 30.75,
      "duration": 0.15,
      "velocity": 0.63,
      "hand": "right"
    },
    {
      "midi": 66,
      "time": 30.9,
      "duration": 0.3,
      "velocity": 0.63,
      "hand": "right"
    },
    {
      "midi": 67,
      "time": 31.2,
      "duration": 0.3,
      "velocity": 0.63,
      "hand": "right"
    },
    {
      "midi": 83,
      "time": 31.2,
      "duration": 0.3,
      "velocity": 0.63,
      "hand": "right"
    },
    {
      "midi": 48,
      "time": 31.5,
      "duration": 0.6,
      "velocity": 0.63,
      "hand": "left"
    },
    {
      "midi": 69,
      "time": 31.5,
      "duration": 0.3,
      "velocity": 0.63,
      "hand": "right"
    },
    {
      "midi": 84,
      "time": 31.5,
      "duration": 0.3,
      "velocity": 0.63,
      "hand": "right"
    },
    {
      "midi": 67,
      "time": 31.8,
      "duration": 0.3,
      "velocity": 0.63,
      "hand": "right"
    },
    {
      "midi": 83,
      "time": 31.8,
      "duration": 0.3,
      "velocity": 0.63,
      "hand": "right"
    },
    {
      "midi": 45,
      "time": 32.1,
      "duration": 0.6,
      "velocity": 0.63,
      "hand": "left"
    },
    {
      "midi": 66,
      "time": 32.1,
      "duration": 0.3,
      "velocity": 0.63,
      "hand": "right"
    },
    {
      "midi": 81,
      "time": 32.1,
      "duration": 0.3,
      "velocity": 0.63,
      "hand": "right"
    },
    {
      "midi": 64,
      "time": 32.4,
      "duration": 0.3,
      "velocity": 0.63,
      "hand": "right"
    },
    {
      "midi": 79,
      "time": 32.4,
      "duration": 0.3,
      "velocity": 0.63,
      "hand": "right"
    },
    {
      "midi": 45,
      "time": 32.7,
      "duration": 1.2,
      "velocity": 0.63,
      "hand": "left"
    },
    {
      "midi": 66,
      "time": 32.7,
      "duration": 0.3,
      "velocity": 0.63,
      "hand": "right"
    },
    {
      "midi": 81,
      "time": 32.7,
      "duration": 0.9,
      "velocity": 0.63,
      "hand": "right"
    },
    {
      "midi": 60,
      "time": 33,
      "duration": 0.15,
      "velocity": 0.63,
      "hand": "right"
    },
    {
      "midi": 62,
      "time": 33.15,
      "duration": 0.15,
      "velocity": 0.63,
      "hand": "right"
    },
    {
      "midi": 66,
      "time": 33.3,
      "duration": 0.3,
      "velocity": 0.63,
      "hand": "right"
    },
    {
      "midi": 66,
      "time": 33.6,
      "duration": 0.3,
      "velocity": 0.63,
      "hand": "right"
    },
    {
      "midi": 81,
      "time": 33.6,
      "duration": 0.3,
      "velocity": 0.63,
      "hand": "right"
    },
    {
      "midi": 48,
      "time": 33.9,
      "duration": 0.6,
      "velocity": 0.63,
      "hand": "left"
    },
    {
      "midi": 69,
      "time": 33.9,
      "duration": 0.3,
      "velocity": 0.63,
      "hand": "right"
    },
    {
      "midi": 84,
      "time": 33.9,
      "duration": 0.6,
      "velocity": 0.63,
      "hand": "right"
    },
    {
      "midi": 69,
      "time": 34.2,
      "duration": 0.3,
      "velocity": 0.63,
      "hand": "right"
    },
    {
      "midi": 50,
      "time": 34.5,
      "duration": 0.6,
      "velocity": 0.63,
      "hand": "left"
    },
    {
      "midi": 66,
      "time": 34.5,
      "duration": 0.3,
      "velocity": 0.63,
      "hand": "right"
    },
    {
      "midi": 86,
      "time": 34.5,
      "duration": 0.3,
      "velocity": 0.63,
      "hand": "right"
    },
    {
      "midi": 69,
      "time": 34.8,
      "duration": 0.3,
      "velocity": 0.63,
      "hand": "right"
    },
    {
      "midi": 84,
      "time": 34.8,
      "duration": 0.3,
      "velocity": 0.63,
      "hand": "right"
    },
    {
      "midi": 47,
      "time": 35.1,
      "duration": 0.6,
      "velocity": 0.63,
      "hand": "left"
    },
    {
      "midi": 67,
      "time": 35.1,
      "duration": 0.3,
      "velocity": 0.63,
      "hand": "right"
    },
    {
      "midi": 83,
      "time": 35.1,
      "duration": 0.6,
      "velocity": 0.63,
      "hand": "right"
    },
    {
      "midi": 62,
      "time": 35.4,
      "duration": 0.3,
      "velocity": 0.63,
      "hand": "right"
    },
    {
      "midi": 43,
      "time": 35.7,
      "duration": 0.6,
      "velocity": 0.63,
      "hand": "left"
    },
    {
      "midi": 71,
      "time": 35.7,
      "duration": 0.3,
      "velocity": 0.63,
      "hand": "right"
    },
    {
      "midi": 79,
      "time": 35.7,
      "duration": 0.3,
      "velocity": 0.63,
      "hand": "right"
    },
    {
      "midi": 74,
      "time": 36,
      "duration": 0.3,
      "velocity": 0.63,
      "hand": "right"
    },
    {
      "midi": 83,
      "time": 36,
      "duration": 0.3,
      "velocity": 0.63,
      "hand": "right"
    },
    {
      "midi": 45,
      "time": 36.3,
      "duration": 0.6,
      "velocity": 0.63,
      "hand": "left"
    },
    {
      "midi": 73,
      "time": 36.3,
      "duration": 0.3,
      "velocity": 0.63,
      "hand": "right"
    },
    {
      "midi": 81,
      "time": 36.3,
      "duration": 0.6,
      "velocity": 0.63,
      "hand": "right"
    },
    {
      "midi": 71,
      "time": 36.6,
      "duration": 0.3,
      "velocity": 0.63,
      "hand": "right"
    },
    {
      "midi": 43,
      "time": 36.9,
      "duration": 0.6,
      "velocity": 0.63,
      "hand": "left"
    },
    {
      "midi": 73,
      "time": 36.9,
      "duration": 0.3,
      "velocity": 0.63,
      "hand": "right"
    },
    {
      "midi": 79,
      "time": 36.9,
      "duration": 0.3,
      "velocity": 0.63,
      "hand": "right"
    },
    {
      "midi": 72,
      "time": 37.2,
      "duration": 0.3,
      "velocity": 0.63,
      "hand": "right"
    },
    {
      "midi": 78,
      "time": 37.2,
      "duration": 0.3,
      "velocity": 0.63,
      "hand": "right"
    },
    {
      "midi": 43,
      "time": 37.5,
      "duration": 0.9,
      "velocity": 0.63,
      "hand": "left"
    },
    {
      "midi": 71,
      "time": 37.5,
      "duration": 0.6,
      "velocity": 0.63,
      "hand": "right"
    },
    {
      "midi": 79,
      "time": 37.5,
      "duration": 0.9,
      "velocity": 0.63,
      "hand": "right"
    },
    {
      "midi": 67,
      "time": 38.1,
      "duration": 0.6,
      "velocity": 0.63,
      "hand": "right"
    }
  ],
  "arrangements": {
    "easy": [
      {
        "midi": 74,
        "time": 0,
        "duration": 0.3,
        "velocity": 0.63,
        "hand": "right"
      },
      {
        "midi": 79,
        "time": 0.3,
        "duration": 0.6,
        "velocity": 0.63,
        "hand": "right"
      },
      {
        "midi": 55,
        "time": 0.6,
        "duration": 0.3,
        "velocity": 0.63,
        "hand": "right"
      },
      {
        "midi": 79,
        "time": 0.9,
        "duration": 0.3,
        "velocity": 0.63,
        "hand": "right"
      },
      {
        "midi": 81,
        "time": 1.2,
        "duration": 0.3,
        "velocity": 0.63,
        "hand": "right"
      },
      {
        "midi": 83,
        "time": 1.5,
        "duration": 0.9,
        "velocity": 0.63,
        "hand": "right"
      },
      {
        "midi": 62,
        "time": 1.8,
        "duration": 0.2,
        "velocity": 0.63,
        "hand": "right"
      },
      {
        "midi": 64,
        "time": 1.95,
        "duration": 0.2,
        "velocity": 0.63,
        "hand": "right"
      },
      {
        "midi": 66,
        "time": 2.1,
        "duration": 0.3,
        "velocity": 0.63,
        "hand": "right"
      },
      {
        "midi": 83,
        "time": 2.4,
        "duration": 0.3,
        "velocity": 0.63,
        "hand": "right"
      },
      {
        "midi": 84,
        "time": 2.7,
        "duration": 0.3,
        "velocity": 0.63,
        "hand": "right"
      },
      {
        "midi": 83,
        "time": 3,
        "duration": 0.3,
        "velocity": 0.63,
        "hand": "right"
      },
      {
        "midi": 81,
        "time": 3.3,
        "duration": 0.3,
        "velocity": 0.63,
        "hand": "right"
      },
      {
        "midi": 79,
        "time": 3.6,
        "duration": 0.3,
        "velocity": 0.63,
        "hand": "right"
      },
      {
        "midi": 81,
        "time": 3.9,
        "duration": 0.9,
        "velocity": 0.63,
        "hand": "right"
      },
      {
        "midi": 60,
        "time": 4.2,
        "duration": 0.2,
        "velocity": 0.63,
        "hand": "right"
      },
      {
        "midi": 62,
        "time": 4.35,
        "duration": 0.2,
        "velocity": 0.63,
        "hand": "right"
      },
      {
        "midi": 66,
        "time": 4.5,
        "duration": 0.3,
        "velocity": 0.63,
        "hand": "right"
      },
      {
        "midi": 81,
        "time": 4.8,
        "duration": 0.3,
        "velocity": 0.63,
        "hand": "right"
      },
      {
        "midi": 84,
        "time": 5.1,
        "duration": 0.6,
        "velocity": 0.63,
        "hand": "right"
      },
      {
        "midi": 69,
        "time": 5.4,
        "duration": 0.3,
        "velocity": 0.63,
        "hand": "right"
      },
      {
        "midi": 86,
        "time": 5.7,
        "duration": 0.3,
        "velocity": 0.63,
        "hand": "right"
      },
      {
        "midi": 84,
        "time": 6,
        "duration": 0.3,
        "velocity": 0.63,
        "hand": "right"
      },
      {
        "midi": 83,
        "time": 6.3,
        "duration": 0.6,
        "velocity": 0.63,
        "hand": "right"
      },
      {
        "midi": 62,
        "time": 6.6,
        "duration": 0.3,
        "velocity": 0.63,
        "hand": "right"
      },
      {
        "midi": 79,
        "time": 6.9,
        "duration": 0.3,
        "velocity": 0.63,
        "hand": "right"
      },
      {
        "midi": 83,
        "time": 7.2,
        "duration": 0.3,
        "velocity": 0.63,
        "hand": "right"
      },
      {
        "midi": 81,
        "time": 7.5,
        "duration": 0.3,
        "velocity": 0.63,
        "hand": "right"
      },
      {
        "midi": 79,
        "time": 7.8,
        "duration": 0.3,
        "velocity": 0.63,
        "hand": "right"
      },
      {
        "midi": 78,
        "time": 8.1,
        "duration": 0.3,
        "velocity": 0.63,
        "hand": "right"
      },
      {
        "midi": 79,
        "time": 8.4,
        "duration": 0.3,
        "velocity": 0.63,
        "hand": "right"
      },
      {
        "midi": 81,
        "time": 8.7,
        "duration": 0.6,
        "velocity": 0.63,
        "hand": "right"
      },
      {
        "midi": 69,
        "time": 9,
        "duration": 0.2,
        "velocity": 0.63,
        "hand": "right"
      },
      {
        "midi": 71,
        "time": 9.15,
        "duration": 0.2,
        "velocity": 0.63,
        "hand": "right"
      },
      {
        "midi": 69,
        "time": 9.3,
        "duration": 0.3,
        "velocity": 0.63,
        "hand": "right"
      },
      {
        "midi": 74,
        "time": 9.6,
        "duration": 0.3,
        "velocity": 0.63,
        "hand": "right"
      },
      {
        "midi": 79,
        "time": 9.9,
        "duration": 0.6,
        "velocity": 0.63,
        "hand": "right"
      },
      {
        "midi": 55,
        "time": 10.2,
        "duration": 0.3,
        "velocity": 0.63,
        "hand": "right"
      },
      {
        "midi": 79,
        "time": 10.5,
        "duration": 0.3,
        "velocity": 0.63,
        "hand": "right"
      },
      {
        "midi": 81,
        "time": 10.8,
        "duration": 0.3,
        "velocity": 0.63,
        "hand": "right"
      },
      {
        "midi": 83,
        "time": 11.1,
        "duration": 0.9,
        "velocity": 0.63,
        "hand": "right"
      },
      {
        "midi": 62,
        "time": 11.4,
        "duration": 0.2,
        "velocity": 0.63,
        "hand": "right"
      },
      {
        "midi": 64,
        "time": 11.55,
        "duration": 0.2,
        "velocity": 0.63,
        "hand": "right"
      },
      {
        "midi": 66,
        "time": 11.7,
        "duration": 0.3,
        "velocity": 0.63,
        "hand": "right"
      },
      {
        "midi": 86,
        "time": 12,
        "duration": 0.3,
        "velocity": 0.63,
        "hand": "right"
      },
      {
        "midi": 84,
        "time": 12.3,
        "duration": 0.3,
        "velocity": 0.63,
        "hand": "right"
      },
      {
        "midi": 83,
        "time": 12.6,
        "duration": 0.3,
        "velocity": 0.63,
        "hand": "right"
      },
      {
        "midi": 81,
        "time": 12.9,
        "duration": 0.3,
        "velocity": 0.63,
        "hand": "right"
      },
      {
        "midi": 79,
        "time": 13.2,
        "duration": 0.3,
        "velocity": 0.63,
        "hand": "right"
      },
      {
        "midi": 81,
        "time": 13.5,
        "duration": 0.9,
        "velocity": 0.63,
        "hand": "right"
      },
      {
        "midi": 60,
        "time": 13.8,
        "duration": 0.2,
        "velocity": 0.63,
        "hand": "right"
      },
      {
        "midi": 62,
        "time": 13.95,
        "duration": 0.2,
        "velocity": 0.63,
        "hand": "right"
      },
      {
        "midi": 66,
        "time": 14.1,
        "duration": 0.3,
        "velocity": 0.63,
        "hand": "right"
      },
      {
        "midi": 81,
        "time": 14.4,
        "duration": 0.3,
        "velocity": 0.63,
        "hand": "right"
      },
      {
        "midi": 84,
        "time": 14.7,
        "duration": 0.6,
        "velocity": 0.63,
        "hand": "right"
      },
      {
        "midi": 69,
        "time": 15,
        "duration": 0.3,
        "velocity": 0.63,
        "hand": "right"
      },
      {
        "midi": 86,
        "time": 15.3,
        "duration": 0.3,
        "velocity": 0.63,
        "hand": "right"
      },
      {
        "midi": 84,
        "time": 15.6,
        "duration": 0.3,
        "velocity": 0.63,
        "hand": "right"
      },
      {
        "midi": 83,
        "time": 15.9,
        "duration": 0.6,
        "velocity": 0.63,
        "hand": "right"
      },
      {
        "midi": 62,
        "time": 16.2,
        "duration": 0.3,
        "velocity": 0.63,
        "hand": "right"
      },
      {
        "midi": 79,
        "time": 16.5,
        "duration": 0.3,
        "velocity": 0.63,
        "hand": "right"
      },
      {
        "midi": 83,
        "time": 16.8,
        "duration": 0.3,
        "velocity": 0.63,
        "hand": "right"
      },
      {
        "midi": 81,
        "time": 17.1,
        "duration": 0.6,
        "velocity": 0.63,
        "hand": "right"
      },
      {
        "midi": 69,
        "time": 17.4,
        "duration": 0.3,
        "velocity": 0.63,
        "hand": "right"
      },
      {
        "midi": 79,
        "time": 17.7,
        "duration": 0.3,
        "velocity": 0.63,
        "hand": "right"
      },
      {
        "midi": 78,
        "time": 18,
        "duration": 0.3,
        "velocity": 0.63,
        "hand": "right"
      },
      {
        "midi": 79,
        "time": 18.3,
        "duration": 1.2,
        "velocity": 0.63,
        "hand": "right"
      },
      {
        "midi": 67,
        "time": 18.9,
        "duration": 0.6,
        "velocity": 0.63,
        "hand": "right"
      },
      {
        "midi": 79,
        "time": 19.5,
        "duration": 0.3,
        "velocity": 0.63,
        "hand": "right"
      },
      {
        "midi": 79,
        "time": 19.8,
        "duration": 0.3,
        "velocity": 0.63,
        "hand": "right"
      },
      {
        "midi": 79,
        "time": 20.1,
        "duration": 0.3,
        "velocity": 0.63,
        "hand": "right"
      },
      {
        "midi": 79,
        "time": 20.4,
        "duration": 0.3,
        "velocity": 0.63,
        "hand": "right"
      },
      {
        "midi": 79,
        "time": 20.7,
        "duration": 0.3,
        "velocity": 0.63,
        "hand": "right"
      },
      {
        "midi": 79,
        "time": 21,
        "duration": 0.3,
        "velocity": 0.63,
        "hand": "right"
      },
      {
        "midi": 79,
        "time": 21.3,
        "duration": 0.3,
        "velocity": 0.63,
        "hand": "right"
      },
      {
        "midi": 79,
        "time": 21.6,
        "duration": 0.3,
        "velocity": 0.63,
        "hand": "right"
      },
      {
        "midi": 81,
        "time": 21.9,
        "duration": 0.3,
        "velocity": 0.63,
        "hand": "right"
      },
      {
        "midi": 79,
        "time": 22.2,
        "duration": 0.3,
        "velocity": 0.63,
        "hand": "right"
      },
      {
        "midi": 78,
        "time": 22.5,
        "duration": 0.3,
        "velocity": 0.63,
        "hand": "right"
      },
      {
        "midi": 75,
        "time": 22.8,
        "duration": 0.3,
        "velocity": 0.63,
        "hand": "right"
      },
      {
        "midi": 74,
        "time": 23.1,
        "duration": 0.9,
        "velocity": 0.63,
        "hand": "right"
      },
      {
        "midi": 63,
        "time": 23.4,
        "duration": 0.2,
        "velocity": 0.63,
        "hand": "right"
      },
      {
        "midi": 66,
        "time": 23.55,
        "duration": 0.2,
        "velocity": 0.63,
        "hand": "right"
      },
      {
        "midi": 67,
        "time": 23.7,
        "duration": 0.2,
        "velocity": 0.63,
        "hand": "right"
      },
      {
        "midi": 74,
        "time": 24.3,
        "duration": 0.3,
        "velocity": 0.63,
        "hand": "right"
      },
      {
        "midi": 76,
        "time": 24.6,
        "duration": 0.3,
        "velocity": 0.63,
        "hand": "right"
      },
      {
        "midi": 78,
        "time": 24.9,
        "duration": 0.3,
        "velocity": 0.63,
        "hand": "right"
      },
      {
        "midi": 79,
        "time": 25.2,
        "duration": 0.3,
        "velocity": 0.63,
        "hand": "right"
      },
      {
        "midi": 81,
        "time": 25.5,
        "duration": 0.3,
        "velocity": 0.63,
        "hand": "right"
      },
      {
        "midi": 81,
        "time": 25.8,
        "duration": 0.3,
        "velocity": 0.63,
        "hand": "right"
      },
      {
        "midi": 81,
        "time": 26.1,
        "duration": 0.3,
        "velocity": 0.63,
        "hand": "right"
      },
      {
        "midi": 81,
        "time": 26.4,
        "duration": 0.3,
        "velocity": 0.63,
        "hand": "right"
      },
      {
        "midi": 82,
        "time": 26.7,
        "duration": 0.3,
        "velocity": 0.63,
        "hand": "right"
      },
      {
        "midi": 81,
        "time": 27,
        "duration": 0.3,
        "velocity": 0.63,
        "hand": "right"
      },
      {
        "midi": 79,
        "time": 27.3,
        "duration": 0.3,
        "velocity": 0.63,
        "hand": "right"
      },
      {
        "midi": 78,
        "time": 27.6,
        "duration": 0.3,
        "velocity": 0.63,
        "hand": "right"
      },
      {
        "midi": 79,
        "time": 27.9,
        "duration": 0.6,
        "velocity": 0.63,
        "hand": "right"
      },
      {
        "midi": 67,
        "time": 28.2,
        "duration": 0.3,
        "velocity": 0.63,
        "hand": "right"
      },
      {
        "midi": 70,
        "time": 28.5,
        "duration": 0.6,
        "velocity": 0.63,
        "hand": "right"
      },
      {
        "midi": 74,
        "time": 28.8,
        "duration": 0.3,
        "velocity": 0.63,
        "hand": "right"
      },
      {
        "midi": 79,
        "time": 29.1,
        "duration": 0.6,
        "velocity": 0.63,
        "hand": "right"
      },
      {
        "midi": 55,
        "time": 29.4,
        "duration": 0.3,
        "velocity": 0.63,
        "hand": "right"
      },
      {
        "midi": 79,
        "time": 29.7,
        "duration": 0.3,
        "velocity": 0.63,
        "hand": "right"
      },
      {
        "midi": 81,
        "time": 30,
        "duration": 0.3,
        "velocity": 0.63,
        "hand": "right"
      },
      {
        "midi": 83,
        "time": 30.3,
        "duration": 0.9,
        "velocity": 0.63,
        "hand": "right"
      },
      {
        "midi": 62,
        "time": 30.6,
        "duration": 0.2,
        "velocity": 0.63,
        "hand": "right"
      },
      {
        "midi": 64,
        "time": 30.75,
        "duration": 0.2,
        "velocity": 0.63,
        "hand": "right"
      },
      {
        "midi": 66,
        "time": 30.9,
        "duration": 0.3,
        "velocity": 0.63,
        "hand": "right"
      },
      {
        "midi": 83,
        "time": 31.2,
        "duration": 0.3,
        "velocity": 0.63,
        "hand": "right"
      },
      {
        "midi": 84,
        "time": 31.5,
        "duration": 0.3,
        "velocity": 0.63,
        "hand": "right"
      },
      {
        "midi": 83,
        "time": 31.8,
        "duration": 0.3,
        "velocity": 0.63,
        "hand": "right"
      },
      {
        "midi": 81,
        "time": 32.1,
        "duration": 0.3,
        "velocity": 0.63,
        "hand": "right"
      },
      {
        "midi": 79,
        "time": 32.4,
        "duration": 0.3,
        "velocity": 0.63,
        "hand": "right"
      },
      {
        "midi": 81,
        "time": 32.7,
        "duration": 0.9,
        "velocity": 0.63,
        "hand": "right"
      },
      {
        "midi": 60,
        "time": 33,
        "duration": 0.2,
        "velocity": 0.63,
        "hand": "right"
      },
      {
        "midi": 62,
        "time": 33.15,
        "duration": 0.2,
        "velocity": 0.63,
        "hand": "right"
      },
      {
        "midi": 66,
        "time": 33.3,
        "duration": 0.3,
        "velocity": 0.63,
        "hand": "right"
      },
      {
        "midi": 81,
        "time": 33.6,
        "duration": 0.3,
        "velocity": 0.63,
        "hand": "right"
      },
      {
        "midi": 84,
        "time": 33.9,
        "duration": 0.6,
        "velocity": 0.63,
        "hand": "right"
      },
      {
        "midi": 69,
        "time": 34.2,
        "duration": 0.3,
        "velocity": 0.63,
        "hand": "right"
      },
      {
        "midi": 86,
        "time": 34.5,
        "duration": 0.3,
        "velocity": 0.63,
        "hand": "right"
      },
      {
        "midi": 84,
        "time": 34.8,
        "duration": 0.3,
        "velocity": 0.63,
        "hand": "right"
      },
      {
        "midi": 83,
        "time": 35.1,
        "duration": 0.6,
        "velocity": 0.63,
        "hand": "right"
      },
      {
        "midi": 62,
        "time": 35.4,
        "duration": 0.3,
        "velocity": 0.63,
        "hand": "right"
      },
      {
        "midi": 79,
        "time": 35.7,
        "duration": 0.3,
        "velocity": 0.63,
        "hand": "right"
      },
      {
        "midi": 83,
        "time": 36,
        "duration": 0.3,
        "velocity": 0.63,
        "hand": "right"
      },
      {
        "midi": 81,
        "time": 36.3,
        "duration": 0.6,
        "velocity": 0.63,
        "hand": "right"
      },
      {
        "midi": 71,
        "time": 36.6,
        "duration": 0.3,
        "velocity": 0.63,
        "hand": "right"
      },
      {
        "midi": 79,
        "time": 36.9,
        "duration": 0.3,
        "velocity": 0.63,
        "hand": "right"
      },
      {
        "midi": 78,
        "time": 37.2,
        "duration": 0.3,
        "velocity": 0.63,
        "hand": "right"
      },
      {
        "midi": 79,
        "time": 37.5,
        "duration": 0.9,
        "velocity": 0.63,
        "hand": "right"
      },
      {
        "midi": 67,
        "time": 38.1,
        "duration": 0.6,
        "velocity": 0.63,
        "hand": "right"
      }
    ],
    "medium": [
      {
        "midi": 62,
        "time": 0,
        "duration": 0.3,
        "velocity": 0.63,
        "hand": "right"
      },
      {
        "midi": 74,
        "time": 0,
        "duration": 0.3,
        "velocity": 0.63,
        "hand": "right"
      },
      {
        "midi": 43,
        "time": 0.3,
        "duration": 0.6,
        "velocity": 0.63,
        "hand": "left"
      },
      {
        "midi": 62,
        "time": 0.3,
        "duration": 0.3,
        "velocity": 0.63,
        "hand": "right"
      },
      {
        "midi": 79,
        "time": 0.3,
        "duration": 0.6,
        "velocity": 0.63,
        "hand": "right"
      },
      {
        "midi": 55,
        "time": 0.6,
        "duration": 0.3,
        "velocity": 0.63,
        "hand": "left"
      },
      {
        "midi": 43,
        "time": 0.9,
        "duration": 0.6,
        "velocity": 0.63,
        "hand": "left"
      },
      {
        "midi": 62,
        "time": 0.9,
        "duration": 0.3,
        "velocity": 0.63,
        "hand": "right"
      },
      {
        "midi": 79,
        "time": 0.9,
        "duration": 0.3,
        "velocity": 0.63,
        "hand": "right"
      },
      {
        "midi": 66,
        "time": 1.2,
        "duration": 0.3,
        "velocity": 0.63,
        "hand": "right"
      },
      {
        "midi": 81,
        "time": 1.2,
        "duration": 0.3,
        "velocity": 0.63,
        "hand": "right"
      },
      {
        "midi": 47,
        "time": 1.5,
        "duration": 0.6,
        "velocity": 0.63,
        "hand": "left"
      },
      {
        "midi": 67,
        "time": 1.5,
        "duration": 0.3,
        "velocity": 0.63,
        "hand": "right"
      },
      {
        "midi": 83,
        "time": 1.5,
        "duration": 0.9,
        "velocity": 0.63,
        "hand": "right"
      },
      {
        "midi": 62,
        "time": 1.8,
        "duration": 0.15,
        "velocity": 0.63,
        "hand": "right"
      },
      {
        "midi": 64,
        "time": 1.95,
        "duration": 0.15,
        "velocity": 0.63,
        "hand": "right"
      },
      {
        "midi": 47,
        "time": 2.1,
        "duration": 0.6,
        "velocity": 0.63,
        "hand": "left"
      },
      {
        "midi": 66,
        "time": 2.1,
        "duration": 0.3,
        "velocity": 0.63,
        "hand": "right"
      },
      {
        "midi": 67,
        "time": 2.4,
        "duration": 0.3,
        "velocity": 0.63,
        "hand": "right"
      },
      {
        "midi": 83,
        "time": 2.4,
        "duration": 0.3,
        "velocity": 0.63,
        "hand": "right"
      },
      {
        "midi": 48,
        "time": 2.7,
        "duration": 0.6,
        "velocity": 0.63,
        "hand": "left"
      },
      {
        "midi": 69,
        "time": 2.7,
        "duration": 0.3,
        "velocity": 0.63,
        "hand": "right"
      },
      {
        "midi": 84,
        "time": 2.7,
        "duration": 0.3,
        "velocity": 0.63,
        "hand": "right"
      },
      {
        "midi": 67,
        "time": 3,
        "duration": 0.3,
        "velocity": 0.63,
        "hand": "right"
      },
      {
        "midi": 83,
        "time": 3,
        "duration": 0.3,
        "velocity": 0.63,
        "hand": "right"
      },
      {
        "midi": 45,
        "time": 3.3,
        "duration": 0.6,
        "velocity": 0.63,
        "hand": "left"
      },
      {
        "midi": 66,
        "time": 3.3,
        "duration": 0.3,
        "velocity": 0.63,
        "hand": "right"
      },
      {
        "midi": 81,
        "time": 3.3,
        "duration": 0.3,
        "velocity": 0.63,
        "hand": "right"
      },
      {
        "midi": 64,
        "time": 3.6,
        "duration": 0.3,
        "velocity": 0.63,
        "hand": "right"
      },
      {
        "midi": 79,
        "time": 3.6,
        "duration": 0.3,
        "velocity": 0.63,
        "hand": "right"
      },
      {
        "midi": 45,
        "time": 3.9,
        "duration": 0.6,
        "velocity": 0.63,
        "hand": "left"
      },
      {
        "midi": 66,
        "time": 3.9,
        "duration": 0.3,
        "velocity": 0.63,
        "hand": "right"
      },
      {
        "midi": 81,
        "time": 3.9,
        "duration": 0.9,
        "velocity": 0.63,
        "hand": "right"
      },
      {
        "midi": 60,
        "time": 4.2,
        "duration": 0.15,
        "velocity": 0.63,
        "hand": "right"
      },
      {
        "midi": 62,
        "time": 4.35,
        "duration": 0.15,
        "velocity": 0.63,
        "hand": "right"
      },
      {
        "midi": 45,
        "time": 4.5,
        "duration": 0.6,
        "velocity": 0.63,
        "hand": "left"
      },
      {
        "midi": 66,
        "time": 4.5,
        "duration": 0.3,
        "velocity": 0.63,
        "hand": "right"
      },
      {
        "midi": 66,
        "time": 4.8,
        "duration": 0.3,
        "velocity": 0.63,
        "hand": "right"
      },
      {
        "midi": 81,
        "time": 4.8,
        "duration": 0.3,
        "velocity": 0.63,
        "hand": "right"
      },
      {
        "midi": 48,
        "time": 5.1,
        "duration": 0.6,
        "velocity": 0.63,
        "hand": "left"
      },
      {
        "midi": 69,
        "time": 5.1,
        "duration": 0.3,
        "velocity": 0.63,
        "hand": "right"
      },
      {
        "midi": 84,
        "time": 5.1,
        "duration": 0.6,
        "velocity": 0.63,
        "hand": "right"
      },
      {
        "midi": 69,
        "time": 5.4,
        "duration": 0.3,
        "velocity": 0.63,
        "hand": "right"
      },
      {
        "midi": 50,
        "time": 5.7,
        "duration": 0.6,
        "velocity": 0.63,
        "hand": "left"
      },
      {
        "midi": 66,
        "time": 5.7,
        "duration": 0.3,
        "velocity": 0.63,
        "hand": "right"
      },
      {
        "midi": 86,
        "time": 5.7,
        "duration": 0.3,
        "velocity": 0.63,
        "hand": "right"
      },
      {
        "midi": 69,
        "time": 6,
        "duration": 0.3,
        "velocity": 0.63,
        "hand": "right"
      },
      {
        "midi": 84,
        "time": 6,
        "duration": 0.3,
        "velocity": 0.63,
        "hand": "right"
      },
      {
        "midi": 47,
        "time": 6.3,
        "duration": 0.6,
        "velocity": 0.63,
        "hand": "left"
      },
      {
        "midi": 67,
        "time": 6.3,
        "duration": 0.3,
        "velocity": 0.63,
        "hand": "right"
      },
      {
        "midi": 83,
        "time": 6.3,
        "duration": 0.6,
        "velocity": 0.63,
        "hand": "right"
      },
      {
        "midi": 62,
        "time": 6.6,
        "duration": 0.3,
        "velocity": 0.63,
        "hand": "right"
      },
      {
        "midi": 43,
        "time": 6.9,
        "duration": 0.6,
        "velocity": 0.63,
        "hand": "left"
      },
      {
        "midi": 71,
        "time": 6.9,
        "duration": 0.3,
        "velocity": 0.63,
        "hand": "right"
      },
      {
        "midi": 79,
        "time": 6.9,
        "duration": 0.3,
        "velocity": 0.63,
        "hand": "right"
      },
      {
        "midi": 74,
        "time": 7.2,
        "duration": 0.3,
        "velocity": 0.63,
        "hand": "right"
      },
      {
        "midi": 83,
        "time": 7.2,
        "duration": 0.3,
        "velocity": 0.63,
        "hand": "right"
      },
      {
        "midi": 45,
        "time": 7.5,
        "duration": 0.6,
        "velocity": 0.63,
        "hand": "left"
      },
      {
        "midi": 73,
        "time": 7.5,
        "duration": 0.3,
        "velocity": 0.63,
        "hand": "right"
      },
      {
        "midi": 81,
        "time": 7.5,
        "duration": 0.3,
        "velocity": 0.63,
        "hand": "right"
      },
      {
        "midi": 71,
        "time": 7.8,
        "duration": 0.3,
        "velocity": 0.63,
        "hand": "right"
      },
      {
        "midi": 79,
        "time": 7.8,
        "duration": 0.3,
        "velocity": 0.63,
        "hand": "right"
      },
      {
        "midi": 42,
        "time": 8.1,
        "duration": 0.6,
        "velocity": 0.63,
        "hand": "left"
      },
      {
        "midi": 69,
        "time": 8.1,
        "duration": 0.3,
        "velocity": 0.63,
        "hand": "right"
      },
      {
        "midi": 78,
        "time": 8.1,
        "duration": 0.3,
        "velocity": 0.63,
        "hand": "right"
      },
      {
        "midi": 71,
        "time": 8.4,
        "duration": 0.3,
        "velocity": 0.63,
        "hand": "right"
      },
      {
        "midi": 79,
        "time": 8.4,
        "duration": 0.3,
        "velocity": 0.63,
        "hand": "right"
      },
      {
        "midi": 45,
        "time": 8.7,
        "duration": 1.2,
        "velocity": 0.63,
        "hand": "left"
      },
      {
        "midi": 72,
        "time": 8.7,
        "duration": 0.3,
        "velocity": 0.63,
        "hand": "right"
      },
      {
        "midi": 81,
        "time": 8.7,
        "duration": 0.6,
        "velocity": 0.63,
        "hand": "right"
      },
      {
        "midi": 69,
        "time": 9,
        "duration": 0.15,
        "velocity": 0.63,
        "hand": "right"
      },
      {
        "midi": 71,
        "time": 9.15,
        "duration": 0.15,
        "velocity": 0.63,
        "hand": "right"
      },
      {
        "midi": 69,
        "time": 9.3,
        "duration": 0.3,
        "velocity": 0.63,
        "hand": "right"
      },
      {
        "midi": 62,
        "time": 9.6,
        "duration": 0.3,
        "velocity": 0.63,
        "hand": "right"
      },
      {
        "midi": 74,
        "time": 9.6,
        "duration": 0.3,
        "velocity": 0.63,
        "hand": "right"
      },
      {
        "midi": 43,
        "time": 9.9,
        "duration": 0.6,
        "velocity": 0.63,
        "hand": "left"
      },
      {
        "midi": 62,
        "time": 9.9,
        "duration": 0.3,
        "velocity": 0.63,
        "hand": "right"
      },
      {
        "midi": 79,
        "time": 9.9,
        "duration": 0.6,
        "velocity": 0.63,
        "hand": "right"
      },
      {
        "midi": 55,
        "time": 10.2,
        "duration": 0.3,
        "velocity": 0.63,
        "hand": "left"
      },
      {
        "midi": 43,
        "time": 10.5,
        "duration": 0.6,
        "velocity": 0.63,
        "hand": "left"
      },
      {
        "midi": 62,
        "time": 10.5,
        "duration": 0.3,
        "velocity": 0.63,
        "hand": "right"
      },
      {
        "midi": 79,
        "time": 10.5,
        "duration": 0.3,
        "velocity": 0.63,
        "hand": "right"
      },
      {
        "midi": 66,
        "time": 10.8,
        "duration": 0.3,
        "velocity": 0.63,
        "hand": "right"
      },
      {
        "midi": 81,
        "time": 10.8,
        "duration": 0.3,
        "velocity": 0.63,
        "hand": "right"
      },
      {
        "midi": 47,
        "time": 11.1,
        "duration": 0.6,
        "velocity": 0.63,
        "hand": "left"
      },
      {
        "midi": 67,
        "time": 11.1,
        "duration": 0.3,
        "velocity": 0.63,
        "hand": "right"
      },
      {
        "midi": 83,
        "time": 11.1,
        "duration": 0.9,
        "velocity": 0.63,
        "hand": "right"
      },
      {
        "midi": 62,
        "time": 11.4,
        "duration": 0.15,
        "velocity": 0.63,
        "hand": "right"
      },
      {
        "midi": 64,
        "time": 11.55,
        "duration": 0.15,
        "velocity": 0.63,
        "hand": "right"
      },
      {
        "midi": 50,
        "time": 11.7,
        "duration": 0.6,
        "velocity": 0.63,
        "hand": "left"
      },
      {
        "midi": 66,
        "time": 11.7,
        "duration": 0.3,
        "velocity": 0.63,
        "hand": "right"
      },
      {
        "midi": 67,
        "time": 12,
        "duration": 0.3,
        "velocity": 0.63,
        "hand": "right"
      },
      {
        "midi": 86,
        "time": 12,
        "duration": 0.3,
        "velocity": 0.63,
        "hand": "right"
      },
      {
        "midi": 48,
        "time": 12.3,
        "duration": 0.6,
        "velocity": 0.63,
        "hand": "left"
      },
      {
        "midi": 69,
        "time": 12.3,
        "duration": 0.3,
        "velocity": 0.63,
        "hand": "right"
      },
      {
        "midi": 84,
        "time": 12.3,
        "duration": 0.3,
        "velocity": 0.63,
        "hand": "right"
      },
      {
        "midi": 67,
        "time": 12.6,
        "duration": 0.3,
        "velocity": 0.63,
        "hand": "right"
      },
      {
        "midi": 83,
        "time": 12.6,
        "duration": 0.3,
        "velocity": 0.63,
        "hand": "right"
      },
      {
        "midi": 45,
        "time": 12.9,
        "duration": 0.6,
        "velocity": 0.63,
        "hand": "left"
      },
      {
        "midi": 66,
        "time": 12.9,
        "duration": 0.3,
        "velocity": 0.63,
        "hand": "right"
      },
      {
        "midi": 81,
        "time": 12.9,
        "duration": 0.3,
        "velocity": 0.63,
        "hand": "right"
      },
      {
        "midi": 64,
        "time": 13.2,
        "duration": 0.3,
        "velocity": 0.63,
        "hand": "right"
      },
      {
        "midi": 79,
        "time": 13.2,
        "duration": 0.3,
        "velocity": 0.63,
        "hand": "right"
      },
      {
        "midi": 45,
        "time": 13.5,
        "duration": 1.2,
        "velocity": 0.63,
        "hand": "left"
      },
      {
        "midi": 66,
        "time": 13.5,
        "duration": 0.3,
        "velocity": 0.63,
        "hand": "right"
      },
      {
        "midi": 81,
        "time": 13.5,
        "duration": 0.9,
        "velocity": 0.63,
        "hand": "right"
      },
      {
        "midi": 60,
        "time": 13.8,
        "duration": 0.15,
        "velocity": 0.63,
        "hand": "right"
      },
      {
        "midi": 62,
        "time": 13.95,
        "duration": 0.15,
        "velocity": 0.63,
        "hand": "right"
      },
      {
        "midi": 66,
        "time": 14.1,
        "duration": 0.3,
        "velocity": 0.63,
        "hand": "right"
      },
      {
        "midi": 66,
        "time": 14.4,
        "duration": 0.3,
        "velocity": 0.63,
        "hand": "right"
      },
      {
        "midi": 81,
        "time": 14.4,
        "duration": 0.3,
        "velocity": 0.63,
        "hand": "right"
      },
      {
        "midi": 48,
        "time": 14.7,
        "duration": 0.6,
        "velocity": 0.63,
        "hand": "left"
      },
      {
        "midi": 69,
        "time": 14.7,
        "duration": 0.3,
        "velocity": 0.63,
        "hand": "right"
      },
      {
        "midi": 84,
        "time": 14.7,
        "duration": 0.6,
        "velocity": 0.63,
        "hand": "right"
      },
      {
        "midi": 69,
        "time": 15,
        "duration": 0.3,
        "velocity": 0.63,
        "hand": "right"
      },
      {
        "midi": 50,
        "time": 15.3,
        "duration": 0.6,
        "velocity": 0.63,
        "hand": "left"
      },
      {
        "midi": 66,
        "time": 15.3,
        "duration": 0.3,
        "velocity": 0.63,
        "hand": "right"
      },
      {
        "midi": 86,
        "time": 15.3,
        "duration": 0.3,
        "velocity": 0.63,
        "hand": "right"
      },
      {
        "midi": 69,
        "time": 15.6,
        "duration": 0.3,
        "velocity": 0.63,
        "hand": "right"
      },
      {
        "midi": 84,
        "time": 15.6,
        "duration": 0.3,
        "velocity": 0.63,
        "hand": "right"
      },
      {
        "midi": 47,
        "time": 15.9,
        "duration": 0.6,
        "velocity": 0.63,
        "hand": "left"
      },
      {
        "midi": 67,
        "time": 15.9,
        "duration": 0.3,
        "velocity": 0.63,
        "hand": "right"
      },
      {
        "midi": 83,
        "time": 15.9,
        "duration": 0.6,
        "velocity": 0.63,
        "hand": "right"
      },
      {
        "midi": 62,
        "time": 16.2,
        "duration": 0.3,
        "velocity": 0.63,
        "hand": "right"
      },
      {
        "midi": 43,
        "time": 16.5,
        "duration": 0.6,
        "velocity": 0.63,
        "hand": "left"
      },
      {
        "midi": 71,
        "time": 16.5,
        "duration": 0.3,
        "velocity": 0.63,
        "hand": "right"
      },
      {
        "midi": 79,
        "time": 16.5,
        "duration": 0.3,
        "velocity": 0.63,
        "hand": "right"
      },
      {
        "midi": 74,
        "time": 16.8,
        "duration": 0.3,
        "velocity": 0.63,
        "hand": "right"
      },
      {
        "midi": 83,
        "time": 16.8,
        "duration": 0.3,
        "velocity": 0.63,
        "hand": "right"
      },
      {
        "midi": 45,
        "time": 17.1,
        "duration": 0.6,
        "velocity": 0.63,
        "hand": "left"
      },
      {
        "midi": 73,
        "time": 17.1,
        "duration": 0.3,
        "velocity": 0.63,
        "hand": "right"
      },
      {
        "midi": 81,
        "time": 17.1,
        "duration": 0.6,
        "velocity": 0.63,
        "hand": "right"
      },
      {
        "midi": 69,
        "time": 17.4,
        "duration": 0.3,
        "velocity": 0.63,
        "hand": "right"
      },
      {
        "midi": 43,
        "time": 17.7,
        "duration": 0.6,
        "velocity": 0.63,
        "hand": "left"
      },
      {
        "midi": 73,
        "time": 17.7,
        "duration": 0.3,
        "velocity": 0.63,
        "hand": "right"
      },
      {
        "midi": 79,
        "time": 17.7,
        "duration": 0.3,
        "velocity": 0.63,
        "hand": "right"
      },
      {
        "midi": 72,
        "time": 18,
        "duration": 0.3,
        "velocity": 0.63,
        "hand": "right"
      },
      {
        "midi": 78,
        "time": 18,
        "duration": 0.3,
        "velocity": 0.63,
        "hand": "right"
      },
      {
        "midi": 43,
        "time": 18.3,
        "duration": 1.2,
        "velocity": 0.63,
        "hand": "left"
      },
      {
        "midi": 71,
        "time": 18.3,
        "duration": 0.6,
        "velocity": 0.63,
        "hand": "right"
      },
      {
        "midi": 79,
        "time": 18.3,
        "duration": 1.2,
        "velocity": 0.63,
        "hand": "right"
      },
      {
        "midi": 67,
        "time": 18.9,
        "duration": 0.6,
        "velocity": 0.63,
        "hand": "right"
      },
      {
        "midi": 43,
        "time": 19.5,
        "duration": 0.6,
        "velocity": 0.63,
        "hand": "left"
      },
      {
        "midi": 70,
        "time": 19.5,
        "duration": 0.3,
        "velocity": 0.63,
        "hand": "right"
      },
      {
        "midi": 79,
        "time": 19.5,
        "duration": 0.3,
        "velocity": 0.63,
        "hand": "right"
      },
      {
        "midi": 70,
        "time": 19.8,
        "duration": 0.3,
        "velocity": 0.63,
        "hand": "right"
      },
      {
        "midi": 79,
        "time": 19.8,
        "duration": 0.3,
        "velocity": 0.63,
        "hand": "right"
      },
      {
        "midi": 43,
        "time": 20.1,
        "duration": 0.6,
        "velocity": 0.63,
        "hand": "left"
      },
      {
        "midi": 70,
        "time": 20.1,
        "duration": 0.3,
        "velocity": 0.63,
        "hand": "right"
      },
      {
        "midi": 79,
        "time": 20.1,
        "duration": 0.3,
        "velocity": 0.63,
        "hand": "right"
      },
      {
        "midi": 70,
        "time": 20.4,
        "duration": 0.3,
        "velocity": 0.63,
        "hand": "right"
      },
      {
        "midi": 79,
        "time": 20.4,
        "duration": 0.3,
        "velocity": 0.63,
        "hand": "right"
      },
      {
        "midi": 43,
        "time": 20.7,
        "duration": 0.6,
        "velocity": 0.63,
        "hand": "left"
      },
      {
        "midi": 70,
        "time": 20.7,
        "duration": 0.3,
        "velocity": 0.63,
        "hand": "right"
      },
      {
        "midi": 79,
        "time": 20.7,
        "duration": 0.3,
        "velocity": 0.63,
        "hand": "right"
      },
      {
        "midi": 70,
        "time": 21,
        "duration": 0.3,
        "velocity": 0.63,
        "hand": "right"
      },
      {
        "midi": 79,
        "time": 21,
        "duration": 0.3,
        "velocity": 0.63,
        "hand": "right"
      },
      {
        "midi": 43,
        "time": 21.3,
        "duration": 0.6,
        "velocity": 0.63,
        "hand": "left"
      },
      {
        "midi": 70,
        "time": 21.3,
        "duration": 0.3,
        "velocity": 0.63,
        "hand": "right"
      },
      {
        "midi": 79,
        "time": 21.3,
        "duration": 0.3,
        "velocity": 0.63,
        "hand": "right"
      },
      {
        "midi": 70,
        "time": 21.6,
        "duration": 0.3,
        "velocity": 0.63,
        "hand": "right"
      },
      {
        "midi": 79,
        "time": 21.6,
        "duration": 0.3,
        "velocity": 0.63,
        "hand": "right"
      },
      {
        "midi": 45,
        "time": 21.9,
        "duration": 0.6,
        "velocity": 0.63,
        "hand": "left"
      },
      {
        "midi": 72,
        "time": 21.9,
        "duration": 0.3,
        "velocity": 0.63,
        "hand": "right"
      },
      {
        "midi": 81,
        "time": 21.9,
        "duration": 0.3,
        "velocity": 0.63,
        "hand": "right"
      },
      {
        "midi": 70,
        "time": 22.2,
        "duration": 0.3,
        "velocity": 0.63,
        "hand": "right"
      },
      {
        "midi": 79,
        "time": 22.2,
        "duration": 0.3,
        "velocity": 0.63,
        "hand": "right"
      },
      {
        "midi": 42,
        "time": 22.5,
        "duration": 0.6,
        "velocity": 0.63,
        "hand": "left"
      },
      {
        "midi": 69,
        "time": 22.5,
        "duration": 0.3,
        "velocity": 0.63,
        "hand": "right"
      },
      {
        "midi": 78,
        "time": 22.5,
        "duration": 0.3,
        "velocity": 0.63,
        "hand": "right"
      },
      {
        "midi": 67,
        "time": 22.8,
        "duration": 0.3,
        "velocity": 0.63,
        "hand": "right"
      },
      {
        "midi": 75,
        "time": 22.8,
        "duration": 0.3,
        "velocity": 0.63,
        "hand": "right"
      },
      {
        "midi": 38,
        "time": 23.1,
        "duration": 1.2,
        "velocity": 0.63,
        "hand": "left"
      },
      {
        "midi": 66,
        "time": 23.1,
        "duration": 0.3,
        "velocity": 0.63,
        "hand": "right"
      },
      {
        "midi": 74,
        "time": 23.1,
        "duration": 0.9,
        "velocity": 0.63,
        "hand": "right"
      },
      {
        "midi": 63,
        "time": 23.4,
        "duration": 0.15,
        "velocity": 0.63,
        "hand": "right"
      },
      {
        "midi": 66,
        "time": 23.55,
        "duration": 0.15,
        "velocity": 0.63,
        "hand": "right"
      },
      {
        "midi": 67,
        "time": 23.7,
        "duration": 0.15,
        "velocity": 0.63,
        "hand": "right"
      },
      {
        "midi": 38,
        "time": 24.3,
        "duration": 0.6,
        "velocity": 0.63,
        "hand": "left"
      },
      {
        "midi": 66,
        "time": 24.3,
        "duration": 0.3,
        "velocity": 0.63,
        "hand": "right"
      },
      {
        "midi": 74,
        "time": 24.3,
        "duration": 0.3,
        "velocity": 0.63,
        "hand": "right"
      },
      {
        "midi": 67,
        "time": 24.6,
        "duration": 0.3,
        "velocity": 0.63,
        "hand": "right"
      },
      {
        "midi": 76,
        "time": 24.6,
        "duration": 0.3,
        "velocity": 0.63,
        "hand": "right"
      },
      {
        "midi": 42,
        "time": 24.9,
        "duration": 0.6,
        "velocity": 0.63,
        "hand": "left"
      },
      {
        "midi": 69,
        "time": 24.9,
        "duration": 0.3,
        "velocity": 0.63,
        "hand": "right"
      },
      {
        "midi": 78,
        "time": 24.9,
        "duration": 0.3,
        "velocity": 0.63,
        "hand": "right"
      },
      {
        "midi": 70,
        "time": 25.2,
        "duration": 0.3,
        "velocity": 0.63,
        "hand": "right"
      },
      {
        "midi": 79,
        "time": 25.2,
        "duration": 0.3,
        "velocity": 0.63,
        "hand": "right"
      },
      {
        "midi": 45,
        "time": 25.5,
        "duration": 0.6,
        "velocity": 0.63,
        "hand": "left"
      },
      {
        "midi": 72,
        "time": 25.5,
        "duration": 0.3,
        "velocity": 0.63,
        "hand": "right"
      },
      {
        "midi": 81,
        "time": 25.5,
        "duration": 0.3,
        "velocity": 0.63,
        "hand": "right"
      },
      {
        "midi": 72,
        "time": 25.8,
        "duration": 0.3,
        "velocity": 0.63,
        "hand": "right"
      },
      {
        "midi": 81,
        "time": 25.8,
        "duration": 0.3,
        "velocity": 0.63,
        "hand": "right"
      },
      {
        "midi": 45,
        "time": 26.1,
        "duration": 0.6,
        "velocity": 0.63,
        "hand": "left"
      },
      {
        "midi": 72,
        "time": 26.1,
        "duration": 0.3,
        "velocity": 0.63,
        "hand": "right"
      },
      {
        "midi": 81,
        "time": 26.1,
        "duration": 0.3,
        "velocity": 0.63,
        "hand": "right"
      },
      {
        "midi": 72,
        "time": 26.4,
        "duration": 0.3,
        "velocity": 0.63,
        "hand": "right"
      },
      {
        "midi": 81,
        "time": 26.4,
        "duration": 0.3,
        "velocity": 0.63,
        "hand": "right"
      },
      {
        "midi": 47,
        "time": 26.7,
        "duration": 0.6,
        "velocity": 0.63,
        "hand": "left"
      },
      {
        "midi": 74,
        "time": 26.7,
        "duration": 0.3,
        "velocity": 0.63,
        "hand": "right"
      },
      {
        "midi": 82,
        "time": 26.7,
        "duration": 0.3,
        "velocity": 0.63,
        "hand": "right"
      },
      {
        "midi": 72,
        "time": 27,
        "duration": 0.3,
        "velocity": 0.63,
        "hand": "right"
      },
      {
        "midi": 81,
        "time": 27,
        "duration": 0.3,
        "velocity": 0.63,
        "hand": "right"
      },
      {
        "midi": 43,
        "time": 27.3,
        "duration": 0.6,
        "velocity": 0.63,
        "hand": "left"
      },
      {
        "midi": 70,
        "time": 27.3,
        "duration": 0.3,
        "velocity": 0.63,
        "hand": "right"
      },
      {
        "midi": 79,
        "time": 27.3,
        "duration": 0.3,
        "velocity": 0.63,
        "hand": "right"
      },
      {
        "midi": 69,
        "time": 27.6,
        "duration": 0.3,
        "velocity": 0.63,
        "hand": "right"
      },
      {
        "midi": 78,
        "time": 27.6,
        "duration": 0.3,
        "velocity": 0.63,
        "hand": "right"
      },
      {
        "midi": 43,
        "time": 27.9,
        "duration": 1.2,
        "velocity": 0.63,
        "hand": "left"
      },
      {
        "midi": 70,
        "time": 27.9,
        "duration": 0.3,
        "velocity": 0.63,
        "hand": "right"
      },
      {
        "midi": 79,
        "time": 27.9,
        "duration": 0.6,
        "velocity": 0.63,
        "hand": "right"
      },
      {
        "midi": 67,
        "time": 28.2,
        "duration": 0.3,
        "velocity": 0.63,
        "hand": "right"
      },
      {
        "midi": 70,
        "time": 28.5,
        "duration": 0.6,
        "velocity": 0.63,
        "hand": "right"
      },
      {
        "midi": 74,
        "time": 28.8,
        "duration": 0.3,
        "velocity": 0.63,
        "hand": "right"
      },
      {
        "midi": 43,
        "time": 29.1,
        "duration": 0.6,
        "velocity": 0.63,
        "hand": "left"
      },
      {
        "midi": 62,
        "time": 29.1,
        "duration": 0.3,
        "velocity": 0.63,
        "hand": "right"
      },
      {
        "midi": 79,
        "time": 29.1,
        "duration": 0.6,
        "velocity": 0.63,
        "hand": "right"
      },
      {
        "midi": 55,
        "time": 29.4,
        "duration": 0.3,
        "velocity": 0.63,
        "hand": "left"
      },
      {
        "midi": 43,
        "time": 29.7,
        "duration": 0.6,
        "velocity": 0.63,
        "hand": "left"
      },
      {
        "midi": 62,
        "time": 29.7,
        "duration": 0.3,
        "velocity": 0.63,
        "hand": "right"
      },
      {
        "midi": 79,
        "time": 29.7,
        "duration": 0.3,
        "velocity": 0.63,
        "hand": "right"
      },
      {
        "midi": 66,
        "time": 30,
        "duration": 0.3,
        "velocity": 0.63,
        "hand": "right"
      },
      {
        "midi": 81,
        "time": 30,
        "duration": 0.3,
        "velocity": 0.63,
        "hand": "right"
      },
      {
        "midi": 47,
        "time": 30.3,
        "duration": 1.2,
        "velocity": 0.63,
        "hand": "left"
      },
      {
        "midi": 67,
        "time": 30.3,
        "duration": 0.3,
        "velocity": 0.63,
        "hand": "right"
      },
      {
        "midi": 83,
        "time": 30.3,
        "duration": 0.9,
        "velocity": 0.63,
        "hand": "right"
      },
      {
        "midi": 62,
        "time": 30.6,
        "duration": 0.15,
        "velocity": 0.63,
        "hand": "right"
      },
      {
        "midi": 64,
        "time": 30.75,
        "duration": 0.15,
        "velocity": 0.63,
        "hand": "right"
      },
      {
        "midi": 66,
        "time": 30.9,
        "duration": 0.3,
        "velocity": 0.63,
        "hand": "right"
      },
      {
        "midi": 67,
        "time": 31.2,
        "duration": 0.3,
        "velocity": 0.63,
        "hand": "right"
      },
      {
        "midi": 83,
        "time": 31.2,
        "duration": 0.3,
        "velocity": 0.63,
        "hand": "right"
      },
      {
        "midi": 48,
        "time": 31.5,
        "duration": 0.6,
        "velocity": 0.63,
        "hand": "left"
      },
      {
        "midi": 69,
        "time": 31.5,
        "duration": 0.3,
        "velocity": 0.63,
        "hand": "right"
      },
      {
        "midi": 84,
        "time": 31.5,
        "duration": 0.3,
        "velocity": 0.63,
        "hand": "right"
      },
      {
        "midi": 67,
        "time": 31.8,
        "duration": 0.3,
        "velocity": 0.63,
        "hand": "right"
      },
      {
        "midi": 83,
        "time": 31.8,
        "duration": 0.3,
        "velocity": 0.63,
        "hand": "right"
      },
      {
        "midi": 45,
        "time": 32.1,
        "duration": 0.6,
        "velocity": 0.63,
        "hand": "left"
      },
      {
        "midi": 66,
        "time": 32.1,
        "duration": 0.3,
        "velocity": 0.63,
        "hand": "right"
      },
      {
        "midi": 81,
        "time": 32.1,
        "duration": 0.3,
        "velocity": 0.63,
        "hand": "right"
      },
      {
        "midi": 64,
        "time": 32.4,
        "duration": 0.3,
        "velocity": 0.63,
        "hand": "right"
      },
      {
        "midi": 79,
        "time": 32.4,
        "duration": 0.3,
        "velocity": 0.63,
        "hand": "right"
      },
      {
        "midi": 45,
        "time": 32.7,
        "duration": 1.2,
        "velocity": 0.63,
        "hand": "left"
      },
      {
        "midi": 66,
        "time": 32.7,
        "duration": 0.3,
        "velocity": 0.63,
        "hand": "right"
      },
      {
        "midi": 81,
        "time": 32.7,
        "duration": 0.9,
        "velocity": 0.63,
        "hand": "right"
      },
      {
        "midi": 60,
        "time": 33,
        "duration": 0.15,
        "velocity": 0.63,
        "hand": "right"
      },
      {
        "midi": 62,
        "time": 33.15,
        "duration": 0.15,
        "velocity": 0.63,
        "hand": "right"
      },
      {
        "midi": 66,
        "time": 33.3,
        "duration": 0.3,
        "velocity": 0.63,
        "hand": "right"
      },
      {
        "midi": 66,
        "time": 33.6,
        "duration": 0.3,
        "velocity": 0.63,
        "hand": "right"
      },
      {
        "midi": 81,
        "time": 33.6,
        "duration": 0.3,
        "velocity": 0.63,
        "hand": "right"
      },
      {
        "midi": 48,
        "time": 33.9,
        "duration": 0.6,
        "velocity": 0.63,
        "hand": "left"
      },
      {
        "midi": 69,
        "time": 33.9,
        "duration": 0.3,
        "velocity": 0.63,
        "hand": "right"
      },
      {
        "midi": 84,
        "time": 33.9,
        "duration": 0.6,
        "velocity": 0.63,
        "hand": "right"
      },
      {
        "midi": 69,
        "time": 34.2,
        "duration": 0.3,
        "velocity": 0.63,
        "hand": "right"
      },
      {
        "midi": 50,
        "time": 34.5,
        "duration": 0.6,
        "velocity": 0.63,
        "hand": "left"
      },
      {
        "midi": 66,
        "time": 34.5,
        "duration": 0.3,
        "velocity": 0.63,
        "hand": "right"
      },
      {
        "midi": 86,
        "time": 34.5,
        "duration": 0.3,
        "velocity": 0.63,
        "hand": "right"
      },
      {
        "midi": 69,
        "time": 34.8,
        "duration": 0.3,
        "velocity": 0.63,
        "hand": "right"
      },
      {
        "midi": 84,
        "time": 34.8,
        "duration": 0.3,
        "velocity": 0.63,
        "hand": "right"
      },
      {
        "midi": 47,
        "time": 35.1,
        "duration": 0.6,
        "velocity": 0.63,
        "hand": "left"
      },
      {
        "midi": 67,
        "time": 35.1,
        "duration": 0.3,
        "velocity": 0.63,
        "hand": "right"
      },
      {
        "midi": 83,
        "time": 35.1,
        "duration": 0.6,
        "velocity": 0.63,
        "hand": "right"
      },
      {
        "midi": 62,
        "time": 35.4,
        "duration": 0.3,
        "velocity": 0.63,
        "hand": "right"
      },
      {
        "midi": 43,
        "time": 35.7,
        "duration": 0.6,
        "velocity": 0.63,
        "hand": "left"
      },
      {
        "midi": 71,
        "time": 35.7,
        "duration": 0.3,
        "velocity": 0.63,
        "hand": "right"
      },
      {
        "midi": 79,
        "time": 35.7,
        "duration": 0.3,
        "velocity": 0.63,
        "hand": "right"
      },
      {
        "midi": 74,
        "time": 36,
        "duration": 0.3,
        "velocity": 0.63,
        "hand": "right"
      },
      {
        "midi": 83,
        "time": 36,
        "duration": 0.3,
        "velocity": 0.63,
        "hand": "right"
      },
      {
        "midi": 45,
        "time": 36.3,
        "duration": 0.6,
        "velocity": 0.63,
        "hand": "left"
      },
      {
        "midi": 73,
        "time": 36.3,
        "duration": 0.3,
        "velocity": 0.63,
        "hand": "right"
      },
      {
        "midi": 81,
        "time": 36.3,
        "duration": 0.6,
        "velocity": 0.63,
        "hand": "right"
      },
      {
        "midi": 71,
        "time": 36.6,
        "duration": 0.3,
        "velocity": 0.63,
        "hand": "right"
      },
      {
        "midi": 43,
        "time": 36.9,
        "duration": 0.6,
        "velocity": 0.63,
        "hand": "left"
      },
      {
        "midi": 73,
        "time": 36.9,
        "duration": 0.3,
        "velocity": 0.63,
        "hand": "right"
      },
      {
        "midi": 79,
        "time": 36.9,
        "duration": 0.3,
        "velocity": 0.63,
        "hand": "right"
      },
      {
        "midi": 72,
        "time": 37.2,
        "duration": 0.3,
        "velocity": 0.63,
        "hand": "right"
      },
      {
        "midi": 78,
        "time": 37.2,
        "duration": 0.3,
        "velocity": 0.63,
        "hand": "right"
      },
      {
        "midi": 43,
        "time": 37.5,
        "duration": 0.9,
        "velocity": 0.63,
        "hand": "left"
      },
      {
        "midi": 71,
        "time": 37.5,
        "duration": 0.6,
        "velocity": 0.63,
        "hand": "right"
      },
      {
        "midi": 79,
        "time": 37.5,
        "duration": 0.9,
        "velocity": 0.63,
        "hand": "right"
      },
      {
        "midi": 67,
        "time": 38.1,
        "duration": 0.6,
        "velocity": 0.63,
        "hand": "right"
      }
    ],
    "hard": [
      {
        "midi": 62,
        "time": 0,
        "duration": 0.3,
        "velocity": 0.63,
        "hand": "right"
      },
      {
        "midi": 74,
        "time": 0,
        "duration": 0.3,
        "velocity": 0.63,
        "hand": "right"
      },
      {
        "midi": 43,
        "time": 0.3,
        "duration": 0.6,
        "velocity": 0.63,
        "hand": "left"
      },
      {
        "midi": 62,
        "time": 0.3,
        "duration": 0.3,
        "velocity": 0.63,
        "hand": "right"
      },
      {
        "midi": 79,
        "time": 0.3,
        "duration": 0.6,
        "velocity": 0.63,
        "hand": "right"
      },
      {
        "midi": 55,
        "time": 0.6,
        "duration": 0.3,
        "velocity": 0.63,
        "hand": "left"
      },
      {
        "midi": 43,
        "time": 0.9,
        "duration": 0.6,
        "velocity": 0.63,
        "hand": "left"
      },
      {
        "midi": 62,
        "time": 0.9,
        "duration": 0.3,
        "velocity": 0.63,
        "hand": "right"
      },
      {
        "midi": 79,
        "time": 0.9,
        "duration": 0.3,
        "velocity": 0.63,
        "hand": "right"
      },
      {
        "midi": 66,
        "time": 1.2,
        "duration": 0.3,
        "velocity": 0.63,
        "hand": "right"
      },
      {
        "midi": 81,
        "time": 1.2,
        "duration": 0.3,
        "velocity": 0.63,
        "hand": "right"
      },
      {
        "midi": 47,
        "time": 1.5,
        "duration": 0.6,
        "velocity": 0.63,
        "hand": "left"
      },
      {
        "midi": 67,
        "time": 1.5,
        "duration": 0.3,
        "velocity": 0.63,
        "hand": "right"
      },
      {
        "midi": 83,
        "time": 1.5,
        "duration": 0.9,
        "velocity": 0.63,
        "hand": "right"
      },
      {
        "midi": 62,
        "time": 1.8,
        "duration": 0.15,
        "velocity": 0.63,
        "hand": "right"
      },
      {
        "midi": 64,
        "time": 1.95,
        "duration": 0.15,
        "velocity": 0.63,
        "hand": "right"
      },
      {
        "midi": 47,
        "time": 2.1,
        "duration": 0.6,
        "velocity": 0.63,
        "hand": "left"
      },
      {
        "midi": 66,
        "time": 2.1,
        "duration": 0.3,
        "velocity": 0.63,
        "hand": "right"
      },
      {
        "midi": 67,
        "time": 2.4,
        "duration": 0.3,
        "velocity": 0.63,
        "hand": "right"
      },
      {
        "midi": 83,
        "time": 2.4,
        "duration": 0.3,
        "velocity": 0.63,
        "hand": "right"
      },
      {
        "midi": 48,
        "time": 2.7,
        "duration": 0.6,
        "velocity": 0.63,
        "hand": "left"
      },
      {
        "midi": 69,
        "time": 2.7,
        "duration": 0.3,
        "velocity": 0.63,
        "hand": "right"
      },
      {
        "midi": 84,
        "time": 2.7,
        "duration": 0.3,
        "velocity": 0.63,
        "hand": "right"
      },
      {
        "midi": 67,
        "time": 3,
        "duration": 0.3,
        "velocity": 0.63,
        "hand": "right"
      },
      {
        "midi": 83,
        "time": 3,
        "duration": 0.3,
        "velocity": 0.63,
        "hand": "right"
      },
      {
        "midi": 45,
        "time": 3.3,
        "duration": 0.6,
        "velocity": 0.63,
        "hand": "left"
      },
      {
        "midi": 66,
        "time": 3.3,
        "duration": 0.3,
        "velocity": 0.63,
        "hand": "right"
      },
      {
        "midi": 81,
        "time": 3.3,
        "duration": 0.3,
        "velocity": 0.63,
        "hand": "right"
      },
      {
        "midi": 64,
        "time": 3.6,
        "duration": 0.3,
        "velocity": 0.63,
        "hand": "right"
      },
      {
        "midi": 79,
        "time": 3.6,
        "duration": 0.3,
        "velocity": 0.63,
        "hand": "right"
      },
      {
        "midi": 45,
        "time": 3.9,
        "duration": 0.6,
        "velocity": 0.63,
        "hand": "left"
      },
      {
        "midi": 66,
        "time": 3.9,
        "duration": 0.3,
        "velocity": 0.63,
        "hand": "right"
      },
      {
        "midi": 81,
        "time": 3.9,
        "duration": 0.9,
        "velocity": 0.63,
        "hand": "right"
      },
      {
        "midi": 60,
        "time": 4.2,
        "duration": 0.15,
        "velocity": 0.63,
        "hand": "right"
      },
      {
        "midi": 62,
        "time": 4.35,
        "duration": 0.15,
        "velocity": 0.63,
        "hand": "right"
      },
      {
        "midi": 45,
        "time": 4.5,
        "duration": 0.6,
        "velocity": 0.63,
        "hand": "left"
      },
      {
        "midi": 66,
        "time": 4.5,
        "duration": 0.3,
        "velocity": 0.63,
        "hand": "right"
      },
      {
        "midi": 66,
        "time": 4.8,
        "duration": 0.3,
        "velocity": 0.63,
        "hand": "right"
      },
      {
        "midi": 81,
        "time": 4.8,
        "duration": 0.3,
        "velocity": 0.63,
        "hand": "right"
      },
      {
        "midi": 48,
        "time": 5.1,
        "duration": 0.6,
        "velocity": 0.63,
        "hand": "left"
      },
      {
        "midi": 69,
        "time": 5.1,
        "duration": 0.3,
        "velocity": 0.63,
        "hand": "right"
      },
      {
        "midi": 84,
        "time": 5.1,
        "duration": 0.6,
        "velocity": 0.63,
        "hand": "right"
      },
      {
        "midi": 69,
        "time": 5.4,
        "duration": 0.3,
        "velocity": 0.63,
        "hand": "right"
      },
      {
        "midi": 50,
        "time": 5.7,
        "duration": 0.6,
        "velocity": 0.63,
        "hand": "left"
      },
      {
        "midi": 66,
        "time": 5.7,
        "duration": 0.3,
        "velocity": 0.63,
        "hand": "right"
      },
      {
        "midi": 86,
        "time": 5.7,
        "duration": 0.3,
        "velocity": 0.63,
        "hand": "right"
      },
      {
        "midi": 69,
        "time": 6,
        "duration": 0.3,
        "velocity": 0.63,
        "hand": "right"
      },
      {
        "midi": 84,
        "time": 6,
        "duration": 0.3,
        "velocity": 0.63,
        "hand": "right"
      },
      {
        "midi": 47,
        "time": 6.3,
        "duration": 0.6,
        "velocity": 0.63,
        "hand": "left"
      },
      {
        "midi": 67,
        "time": 6.3,
        "duration": 0.3,
        "velocity": 0.63,
        "hand": "right"
      },
      {
        "midi": 83,
        "time": 6.3,
        "duration": 0.6,
        "velocity": 0.63,
        "hand": "right"
      },
      {
        "midi": 62,
        "time": 6.6,
        "duration": 0.3,
        "velocity": 0.63,
        "hand": "right"
      },
      {
        "midi": 43,
        "time": 6.9,
        "duration": 0.6,
        "velocity": 0.63,
        "hand": "left"
      },
      {
        "midi": 71,
        "time": 6.9,
        "duration": 0.3,
        "velocity": 0.63,
        "hand": "right"
      },
      {
        "midi": 79,
        "time": 6.9,
        "duration": 0.3,
        "velocity": 0.63,
        "hand": "right"
      },
      {
        "midi": 74,
        "time": 7.2,
        "duration": 0.3,
        "velocity": 0.63,
        "hand": "right"
      },
      {
        "midi": 83,
        "time": 7.2,
        "duration": 0.3,
        "velocity": 0.63,
        "hand": "right"
      },
      {
        "midi": 45,
        "time": 7.5,
        "duration": 0.6,
        "velocity": 0.63,
        "hand": "left"
      },
      {
        "midi": 73,
        "time": 7.5,
        "duration": 0.3,
        "velocity": 0.63,
        "hand": "right"
      },
      {
        "midi": 81,
        "time": 7.5,
        "duration": 0.3,
        "velocity": 0.63,
        "hand": "right"
      },
      {
        "midi": 71,
        "time": 7.8,
        "duration": 0.3,
        "velocity": 0.63,
        "hand": "right"
      },
      {
        "midi": 79,
        "time": 7.8,
        "duration": 0.3,
        "velocity": 0.63,
        "hand": "right"
      },
      {
        "midi": 42,
        "time": 8.1,
        "duration": 0.6,
        "velocity": 0.63,
        "hand": "left"
      },
      {
        "midi": 69,
        "time": 8.1,
        "duration": 0.3,
        "velocity": 0.63,
        "hand": "right"
      },
      {
        "midi": 78,
        "time": 8.1,
        "duration": 0.3,
        "velocity": 0.63,
        "hand": "right"
      },
      {
        "midi": 71,
        "time": 8.4,
        "duration": 0.3,
        "velocity": 0.63,
        "hand": "right"
      },
      {
        "midi": 79,
        "time": 8.4,
        "duration": 0.3,
        "velocity": 0.63,
        "hand": "right"
      },
      {
        "midi": 45,
        "time": 8.7,
        "duration": 1.2,
        "velocity": 0.63,
        "hand": "left"
      },
      {
        "midi": 72,
        "time": 8.7,
        "duration": 0.3,
        "velocity": 0.63,
        "hand": "right"
      },
      {
        "midi": 81,
        "time": 8.7,
        "duration": 0.6,
        "velocity": 0.63,
        "hand": "right"
      },
      {
        "midi": 69,
        "time": 9,
        "duration": 0.15,
        "velocity": 0.63,
        "hand": "right"
      },
      {
        "midi": 71,
        "time": 9.15,
        "duration": 0.15,
        "velocity": 0.63,
        "hand": "right"
      },
      {
        "midi": 69,
        "time": 9.3,
        "duration": 0.3,
        "velocity": 0.63,
        "hand": "right"
      },
      {
        "midi": 62,
        "time": 9.6,
        "duration": 0.3,
        "velocity": 0.63,
        "hand": "right"
      },
      {
        "midi": 74,
        "time": 9.6,
        "duration": 0.3,
        "velocity": 0.63,
        "hand": "right"
      },
      {
        "midi": 43,
        "time": 9.9,
        "duration": 0.6,
        "velocity": 0.63,
        "hand": "left"
      },
      {
        "midi": 62,
        "time": 9.9,
        "duration": 0.3,
        "velocity": 0.63,
        "hand": "right"
      },
      {
        "midi": 79,
        "time": 9.9,
        "duration": 0.6,
        "velocity": 0.63,
        "hand": "right"
      },
      {
        "midi": 55,
        "time": 10.2,
        "duration": 0.3,
        "velocity": 0.63,
        "hand": "left"
      },
      {
        "midi": 43,
        "time": 10.5,
        "duration": 0.6,
        "velocity": 0.63,
        "hand": "left"
      },
      {
        "midi": 62,
        "time": 10.5,
        "duration": 0.3,
        "velocity": 0.63,
        "hand": "right"
      },
      {
        "midi": 79,
        "time": 10.5,
        "duration": 0.3,
        "velocity": 0.63,
        "hand": "right"
      },
      {
        "midi": 66,
        "time": 10.8,
        "duration": 0.3,
        "velocity": 0.63,
        "hand": "right"
      },
      {
        "midi": 81,
        "time": 10.8,
        "duration": 0.3,
        "velocity": 0.63,
        "hand": "right"
      },
      {
        "midi": 47,
        "time": 11.1,
        "duration": 0.6,
        "velocity": 0.63,
        "hand": "left"
      },
      {
        "midi": 67,
        "time": 11.1,
        "duration": 0.3,
        "velocity": 0.63,
        "hand": "right"
      },
      {
        "midi": 83,
        "time": 11.1,
        "duration": 0.9,
        "velocity": 0.63,
        "hand": "right"
      },
      {
        "midi": 62,
        "time": 11.4,
        "duration": 0.15,
        "velocity": 0.63,
        "hand": "right"
      },
      {
        "midi": 64,
        "time": 11.55,
        "duration": 0.15,
        "velocity": 0.63,
        "hand": "right"
      },
      {
        "midi": 50,
        "time": 11.7,
        "duration": 0.6,
        "velocity": 0.63,
        "hand": "left"
      },
      {
        "midi": 66,
        "time": 11.7,
        "duration": 0.3,
        "velocity": 0.63,
        "hand": "right"
      },
      {
        "midi": 67,
        "time": 12,
        "duration": 0.3,
        "velocity": 0.63,
        "hand": "right"
      },
      {
        "midi": 86,
        "time": 12,
        "duration": 0.3,
        "velocity": 0.63,
        "hand": "right"
      },
      {
        "midi": 48,
        "time": 12.3,
        "duration": 0.6,
        "velocity": 0.63,
        "hand": "left"
      },
      {
        "midi": 69,
        "time": 12.3,
        "duration": 0.3,
        "velocity": 0.63,
        "hand": "right"
      },
      {
        "midi": 84,
        "time": 12.3,
        "duration": 0.3,
        "velocity": 0.63,
        "hand": "right"
      },
      {
        "midi": 67,
        "time": 12.6,
        "duration": 0.3,
        "velocity": 0.63,
        "hand": "right"
      },
      {
        "midi": 83,
        "time": 12.6,
        "duration": 0.3,
        "velocity": 0.63,
        "hand": "right"
      },
      {
        "midi": 45,
        "time": 12.9,
        "duration": 0.6,
        "velocity": 0.63,
        "hand": "left"
      },
      {
        "midi": 66,
        "time": 12.9,
        "duration": 0.3,
        "velocity": 0.63,
        "hand": "right"
      },
      {
        "midi": 81,
        "time": 12.9,
        "duration": 0.3,
        "velocity": 0.63,
        "hand": "right"
      },
      {
        "midi": 64,
        "time": 13.2,
        "duration": 0.3,
        "velocity": 0.63,
        "hand": "right"
      },
      {
        "midi": 79,
        "time": 13.2,
        "duration": 0.3,
        "velocity": 0.63,
        "hand": "right"
      },
      {
        "midi": 45,
        "time": 13.5,
        "duration": 1.2,
        "velocity": 0.63,
        "hand": "left"
      },
      {
        "midi": 66,
        "time": 13.5,
        "duration": 0.3,
        "velocity": 0.63,
        "hand": "right"
      },
      {
        "midi": 81,
        "time": 13.5,
        "duration": 0.9,
        "velocity": 0.63,
        "hand": "right"
      },
      {
        "midi": 60,
        "time": 13.8,
        "duration": 0.15,
        "velocity": 0.63,
        "hand": "right"
      },
      {
        "midi": 62,
        "time": 13.95,
        "duration": 0.15,
        "velocity": 0.63,
        "hand": "right"
      },
      {
        "midi": 66,
        "time": 14.1,
        "duration": 0.3,
        "velocity": 0.63,
        "hand": "right"
      },
      {
        "midi": 66,
        "time": 14.4,
        "duration": 0.3,
        "velocity": 0.63,
        "hand": "right"
      },
      {
        "midi": 81,
        "time": 14.4,
        "duration": 0.3,
        "velocity": 0.63,
        "hand": "right"
      },
      {
        "midi": 48,
        "time": 14.7,
        "duration": 0.6,
        "velocity": 0.63,
        "hand": "left"
      },
      {
        "midi": 69,
        "time": 14.7,
        "duration": 0.3,
        "velocity": 0.63,
        "hand": "right"
      },
      {
        "midi": 84,
        "time": 14.7,
        "duration": 0.6,
        "velocity": 0.63,
        "hand": "right"
      },
      {
        "midi": 69,
        "time": 15,
        "duration": 0.3,
        "velocity": 0.63,
        "hand": "right"
      },
      {
        "midi": 50,
        "time": 15.3,
        "duration": 0.6,
        "velocity": 0.63,
        "hand": "left"
      },
      {
        "midi": 66,
        "time": 15.3,
        "duration": 0.3,
        "velocity": 0.63,
        "hand": "right"
      },
      {
        "midi": 86,
        "time": 15.3,
        "duration": 0.3,
        "velocity": 0.63,
        "hand": "right"
      },
      {
        "midi": 69,
        "time": 15.6,
        "duration": 0.3,
        "velocity": 0.63,
        "hand": "right"
      },
      {
        "midi": 84,
        "time": 15.6,
        "duration": 0.3,
        "velocity": 0.63,
        "hand": "right"
      },
      {
        "midi": 47,
        "time": 15.9,
        "duration": 0.6,
        "velocity": 0.63,
        "hand": "left"
      },
      {
        "midi": 67,
        "time": 15.9,
        "duration": 0.3,
        "velocity": 0.63,
        "hand": "right"
      },
      {
        "midi": 83,
        "time": 15.9,
        "duration": 0.6,
        "velocity": 0.63,
        "hand": "right"
      },
      {
        "midi": 62,
        "time": 16.2,
        "duration": 0.3,
        "velocity": 0.63,
        "hand": "right"
      },
      {
        "midi": 43,
        "time": 16.5,
        "duration": 0.6,
        "velocity": 0.63,
        "hand": "left"
      },
      {
        "midi": 71,
        "time": 16.5,
        "duration": 0.3,
        "velocity": 0.63,
        "hand": "right"
      },
      {
        "midi": 79,
        "time": 16.5,
        "duration": 0.3,
        "velocity": 0.63,
        "hand": "right"
      },
      {
        "midi": 74,
        "time": 16.8,
        "duration": 0.3,
        "velocity": 0.63,
        "hand": "right"
      },
      {
        "midi": 83,
        "time": 16.8,
        "duration": 0.3,
        "velocity": 0.63,
        "hand": "right"
      },
      {
        "midi": 45,
        "time": 17.1,
        "duration": 0.6,
        "velocity": 0.63,
        "hand": "left"
      },
      {
        "midi": 73,
        "time": 17.1,
        "duration": 0.3,
        "velocity": 0.63,
        "hand": "right"
      },
      {
        "midi": 81,
        "time": 17.1,
        "duration": 0.6,
        "velocity": 0.63,
        "hand": "right"
      },
      {
        "midi": 69,
        "time": 17.4,
        "duration": 0.3,
        "velocity": 0.63,
        "hand": "right"
      },
      {
        "midi": 43,
        "time": 17.7,
        "duration": 0.6,
        "velocity": 0.63,
        "hand": "left"
      },
      {
        "midi": 73,
        "time": 17.7,
        "duration": 0.3,
        "velocity": 0.63,
        "hand": "right"
      },
      {
        "midi": 79,
        "time": 17.7,
        "duration": 0.3,
        "velocity": 0.63,
        "hand": "right"
      },
      {
        "midi": 72,
        "time": 18,
        "duration": 0.3,
        "velocity": 0.63,
        "hand": "right"
      },
      {
        "midi": 78,
        "time": 18,
        "duration": 0.3,
        "velocity": 0.63,
        "hand": "right"
      },
      {
        "midi": 43,
        "time": 18.3,
        "duration": 1.2,
        "velocity": 0.63,
        "hand": "left"
      },
      {
        "midi": 71,
        "time": 18.3,
        "duration": 0.6,
        "velocity": 0.63,
        "hand": "right"
      },
      {
        "midi": 79,
        "time": 18.3,
        "duration": 1.2,
        "velocity": 0.63,
        "hand": "right"
      },
      {
        "midi": 67,
        "time": 18.9,
        "duration": 0.6,
        "velocity": 0.63,
        "hand": "right"
      },
      {
        "midi": 43,
        "time": 19.5,
        "duration": 0.6,
        "velocity": 0.63,
        "hand": "left"
      },
      {
        "midi": 70,
        "time": 19.5,
        "duration": 0.3,
        "velocity": 0.63,
        "hand": "right"
      },
      {
        "midi": 79,
        "time": 19.5,
        "duration": 0.3,
        "velocity": 0.63,
        "hand": "right"
      },
      {
        "midi": 70,
        "time": 19.8,
        "duration": 0.3,
        "velocity": 0.63,
        "hand": "right"
      },
      {
        "midi": 79,
        "time": 19.8,
        "duration": 0.3,
        "velocity": 0.63,
        "hand": "right"
      },
      {
        "midi": 43,
        "time": 20.1,
        "duration": 0.6,
        "velocity": 0.63,
        "hand": "left"
      },
      {
        "midi": 70,
        "time": 20.1,
        "duration": 0.3,
        "velocity": 0.63,
        "hand": "right"
      },
      {
        "midi": 79,
        "time": 20.1,
        "duration": 0.3,
        "velocity": 0.63,
        "hand": "right"
      },
      {
        "midi": 70,
        "time": 20.4,
        "duration": 0.3,
        "velocity": 0.63,
        "hand": "right"
      },
      {
        "midi": 79,
        "time": 20.4,
        "duration": 0.3,
        "velocity": 0.63,
        "hand": "right"
      },
      {
        "midi": 43,
        "time": 20.7,
        "duration": 0.6,
        "velocity": 0.63,
        "hand": "left"
      },
      {
        "midi": 70,
        "time": 20.7,
        "duration": 0.3,
        "velocity": 0.63,
        "hand": "right"
      },
      {
        "midi": 79,
        "time": 20.7,
        "duration": 0.3,
        "velocity": 0.63,
        "hand": "right"
      },
      {
        "midi": 70,
        "time": 21,
        "duration": 0.3,
        "velocity": 0.63,
        "hand": "right"
      },
      {
        "midi": 79,
        "time": 21,
        "duration": 0.3,
        "velocity": 0.63,
        "hand": "right"
      },
      {
        "midi": 43,
        "time": 21.3,
        "duration": 0.6,
        "velocity": 0.63,
        "hand": "left"
      },
      {
        "midi": 70,
        "time": 21.3,
        "duration": 0.3,
        "velocity": 0.63,
        "hand": "right"
      },
      {
        "midi": 79,
        "time": 21.3,
        "duration": 0.3,
        "velocity": 0.63,
        "hand": "right"
      },
      {
        "midi": 70,
        "time": 21.6,
        "duration": 0.3,
        "velocity": 0.63,
        "hand": "right"
      },
      {
        "midi": 79,
        "time": 21.6,
        "duration": 0.3,
        "velocity": 0.63,
        "hand": "right"
      },
      {
        "midi": 45,
        "time": 21.9,
        "duration": 0.6,
        "velocity": 0.63,
        "hand": "left"
      },
      {
        "midi": 72,
        "time": 21.9,
        "duration": 0.3,
        "velocity": 0.63,
        "hand": "right"
      },
      {
        "midi": 81,
        "time": 21.9,
        "duration": 0.3,
        "velocity": 0.63,
        "hand": "right"
      },
      {
        "midi": 70,
        "time": 22.2,
        "duration": 0.3,
        "velocity": 0.63,
        "hand": "right"
      },
      {
        "midi": 79,
        "time": 22.2,
        "duration": 0.3,
        "velocity": 0.63,
        "hand": "right"
      },
      {
        "midi": 42,
        "time": 22.5,
        "duration": 0.6,
        "velocity": 0.63,
        "hand": "left"
      },
      {
        "midi": 69,
        "time": 22.5,
        "duration": 0.3,
        "velocity": 0.63,
        "hand": "right"
      },
      {
        "midi": 78,
        "time": 22.5,
        "duration": 0.3,
        "velocity": 0.63,
        "hand": "right"
      },
      {
        "midi": 67,
        "time": 22.8,
        "duration": 0.3,
        "velocity": 0.63,
        "hand": "right"
      },
      {
        "midi": 75,
        "time": 22.8,
        "duration": 0.3,
        "velocity": 0.63,
        "hand": "right"
      },
      {
        "midi": 38,
        "time": 23.1,
        "duration": 1.2,
        "velocity": 0.63,
        "hand": "left"
      },
      {
        "midi": 66,
        "time": 23.1,
        "duration": 0.3,
        "velocity": 0.63,
        "hand": "right"
      },
      {
        "midi": 74,
        "time": 23.1,
        "duration": 0.9,
        "velocity": 0.63,
        "hand": "right"
      },
      {
        "midi": 63,
        "time": 23.4,
        "duration": 0.15,
        "velocity": 0.63,
        "hand": "right"
      },
      {
        "midi": 66,
        "time": 23.55,
        "duration": 0.15,
        "velocity": 0.63,
        "hand": "right"
      },
      {
        "midi": 67,
        "time": 23.7,
        "duration": 0.15,
        "velocity": 0.63,
        "hand": "right"
      },
      {
        "midi": 38,
        "time": 24.3,
        "duration": 0.6,
        "velocity": 0.63,
        "hand": "left"
      },
      {
        "midi": 66,
        "time": 24.3,
        "duration": 0.3,
        "velocity": 0.63,
        "hand": "right"
      },
      {
        "midi": 74,
        "time": 24.3,
        "duration": 0.3,
        "velocity": 0.63,
        "hand": "right"
      },
      {
        "midi": 67,
        "time": 24.6,
        "duration": 0.3,
        "velocity": 0.63,
        "hand": "right"
      },
      {
        "midi": 76,
        "time": 24.6,
        "duration": 0.3,
        "velocity": 0.63,
        "hand": "right"
      },
      {
        "midi": 42,
        "time": 24.9,
        "duration": 0.6,
        "velocity": 0.63,
        "hand": "left"
      },
      {
        "midi": 69,
        "time": 24.9,
        "duration": 0.3,
        "velocity": 0.63,
        "hand": "right"
      },
      {
        "midi": 78,
        "time": 24.9,
        "duration": 0.3,
        "velocity": 0.63,
        "hand": "right"
      },
      {
        "midi": 70,
        "time": 25.2,
        "duration": 0.3,
        "velocity": 0.63,
        "hand": "right"
      },
      {
        "midi": 79,
        "time": 25.2,
        "duration": 0.3,
        "velocity": 0.63,
        "hand": "right"
      },
      {
        "midi": 45,
        "time": 25.5,
        "duration": 0.6,
        "velocity": 0.63,
        "hand": "left"
      },
      {
        "midi": 72,
        "time": 25.5,
        "duration": 0.3,
        "velocity": 0.63,
        "hand": "right"
      },
      {
        "midi": 81,
        "time": 25.5,
        "duration": 0.3,
        "velocity": 0.63,
        "hand": "right"
      },
      {
        "midi": 72,
        "time": 25.8,
        "duration": 0.3,
        "velocity": 0.63,
        "hand": "right"
      },
      {
        "midi": 81,
        "time": 25.8,
        "duration": 0.3,
        "velocity": 0.63,
        "hand": "right"
      },
      {
        "midi": 45,
        "time": 26.1,
        "duration": 0.6,
        "velocity": 0.63,
        "hand": "left"
      },
      {
        "midi": 72,
        "time": 26.1,
        "duration": 0.3,
        "velocity": 0.63,
        "hand": "right"
      },
      {
        "midi": 81,
        "time": 26.1,
        "duration": 0.3,
        "velocity": 0.63,
        "hand": "right"
      },
      {
        "midi": 72,
        "time": 26.4,
        "duration": 0.3,
        "velocity": 0.63,
        "hand": "right"
      },
      {
        "midi": 81,
        "time": 26.4,
        "duration": 0.3,
        "velocity": 0.63,
        "hand": "right"
      },
      {
        "midi": 47,
        "time": 26.7,
        "duration": 0.6,
        "velocity": 0.63,
        "hand": "left"
      },
      {
        "midi": 74,
        "time": 26.7,
        "duration": 0.3,
        "velocity": 0.63,
        "hand": "right"
      },
      {
        "midi": 82,
        "time": 26.7,
        "duration": 0.3,
        "velocity": 0.63,
        "hand": "right"
      },
      {
        "midi": 72,
        "time": 27,
        "duration": 0.3,
        "velocity": 0.63,
        "hand": "right"
      },
      {
        "midi": 81,
        "time": 27,
        "duration": 0.3,
        "velocity": 0.63,
        "hand": "right"
      },
      {
        "midi": 43,
        "time": 27.3,
        "duration": 0.6,
        "velocity": 0.63,
        "hand": "left"
      },
      {
        "midi": 70,
        "time": 27.3,
        "duration": 0.3,
        "velocity": 0.63,
        "hand": "right"
      },
      {
        "midi": 79,
        "time": 27.3,
        "duration": 0.3,
        "velocity": 0.63,
        "hand": "right"
      },
      {
        "midi": 69,
        "time": 27.6,
        "duration": 0.3,
        "velocity": 0.63,
        "hand": "right"
      },
      {
        "midi": 78,
        "time": 27.6,
        "duration": 0.3,
        "velocity": 0.63,
        "hand": "right"
      },
      {
        "midi": 43,
        "time": 27.9,
        "duration": 1.2,
        "velocity": 0.63,
        "hand": "left"
      },
      {
        "midi": 70,
        "time": 27.9,
        "duration": 0.3,
        "velocity": 0.63,
        "hand": "right"
      },
      {
        "midi": 79,
        "time": 27.9,
        "duration": 0.6,
        "velocity": 0.63,
        "hand": "right"
      },
      {
        "midi": 67,
        "time": 28.2,
        "duration": 0.3,
        "velocity": 0.63,
        "hand": "right"
      },
      {
        "midi": 70,
        "time": 28.5,
        "duration": 0.6,
        "velocity": 0.63,
        "hand": "right"
      },
      {
        "midi": 74,
        "time": 28.8,
        "duration": 0.3,
        "velocity": 0.63,
        "hand": "right"
      },
      {
        "midi": 43,
        "time": 29.1,
        "duration": 0.6,
        "velocity": 0.63,
        "hand": "left"
      },
      {
        "midi": 62,
        "time": 29.1,
        "duration": 0.3,
        "velocity": 0.63,
        "hand": "right"
      },
      {
        "midi": 79,
        "time": 29.1,
        "duration": 0.6,
        "velocity": 0.63,
        "hand": "right"
      },
      {
        "midi": 55,
        "time": 29.4,
        "duration": 0.3,
        "velocity": 0.63,
        "hand": "left"
      },
      {
        "midi": 43,
        "time": 29.7,
        "duration": 0.6,
        "velocity": 0.63,
        "hand": "left"
      },
      {
        "midi": 62,
        "time": 29.7,
        "duration": 0.3,
        "velocity": 0.63,
        "hand": "right"
      },
      {
        "midi": 79,
        "time": 29.7,
        "duration": 0.3,
        "velocity": 0.63,
        "hand": "right"
      },
      {
        "midi": 66,
        "time": 30,
        "duration": 0.3,
        "velocity": 0.63,
        "hand": "right"
      },
      {
        "midi": 81,
        "time": 30,
        "duration": 0.3,
        "velocity": 0.63,
        "hand": "right"
      },
      {
        "midi": 47,
        "time": 30.3,
        "duration": 1.2,
        "velocity": 0.63,
        "hand": "left"
      },
      {
        "midi": 67,
        "time": 30.3,
        "duration": 0.3,
        "velocity": 0.63,
        "hand": "right"
      },
      {
        "midi": 83,
        "time": 30.3,
        "duration": 0.9,
        "velocity": 0.63,
        "hand": "right"
      },
      {
        "midi": 62,
        "time": 30.6,
        "duration": 0.15,
        "velocity": 0.63,
        "hand": "right"
      },
      {
        "midi": 64,
        "time": 30.75,
        "duration": 0.15,
        "velocity": 0.63,
        "hand": "right"
      },
      {
        "midi": 66,
        "time": 30.9,
        "duration": 0.3,
        "velocity": 0.63,
        "hand": "right"
      },
      {
        "midi": 67,
        "time": 31.2,
        "duration": 0.3,
        "velocity": 0.63,
        "hand": "right"
      },
      {
        "midi": 83,
        "time": 31.2,
        "duration": 0.3,
        "velocity": 0.63,
        "hand": "right"
      },
      {
        "midi": 48,
        "time": 31.5,
        "duration": 0.6,
        "velocity": 0.63,
        "hand": "left"
      },
      {
        "midi": 69,
        "time": 31.5,
        "duration": 0.3,
        "velocity": 0.63,
        "hand": "right"
      },
      {
        "midi": 84,
        "time": 31.5,
        "duration": 0.3,
        "velocity": 0.63,
        "hand": "right"
      },
      {
        "midi": 67,
        "time": 31.8,
        "duration": 0.3,
        "velocity": 0.63,
        "hand": "right"
      },
      {
        "midi": 83,
        "time": 31.8,
        "duration": 0.3,
        "velocity": 0.63,
        "hand": "right"
      },
      {
        "midi": 45,
        "time": 32.1,
        "duration": 0.6,
        "velocity": 0.63,
        "hand": "left"
      },
      {
        "midi": 66,
        "time": 32.1,
        "duration": 0.3,
        "velocity": 0.63,
        "hand": "right"
      },
      {
        "midi": 81,
        "time": 32.1,
        "duration": 0.3,
        "velocity": 0.63,
        "hand": "right"
      },
      {
        "midi": 64,
        "time": 32.4,
        "duration": 0.3,
        "velocity": 0.63,
        "hand": "right"
      },
      {
        "midi": 79,
        "time": 32.4,
        "duration": 0.3,
        "velocity": 0.63,
        "hand": "right"
      },
      {
        "midi": 45,
        "time": 32.7,
        "duration": 1.2,
        "velocity": 0.63,
        "hand": "left"
      },
      {
        "midi": 66,
        "time": 32.7,
        "duration": 0.3,
        "velocity": 0.63,
        "hand": "right"
      },
      {
        "midi": 81,
        "time": 32.7,
        "duration": 0.9,
        "velocity": 0.63,
        "hand": "right"
      },
      {
        "midi": 60,
        "time": 33,
        "duration": 0.15,
        "velocity": 0.63,
        "hand": "right"
      },
      {
        "midi": 62,
        "time": 33.15,
        "duration": 0.15,
        "velocity": 0.63,
        "hand": "right"
      },
      {
        "midi": 66,
        "time": 33.3,
        "duration": 0.3,
        "velocity": 0.63,
        "hand": "right"
      },
      {
        "midi": 66,
        "time": 33.6,
        "duration": 0.3,
        "velocity": 0.63,
        "hand": "right"
      },
      {
        "midi": 81,
        "time": 33.6,
        "duration": 0.3,
        "velocity": 0.63,
        "hand": "right"
      },
      {
        "midi": 48,
        "time": 33.9,
        "duration": 0.6,
        "velocity": 0.63,
        "hand": "left"
      },
      {
        "midi": 69,
        "time": 33.9,
        "duration": 0.3,
        "velocity": 0.63,
        "hand": "right"
      },
      {
        "midi": 84,
        "time": 33.9,
        "duration": 0.6,
        "velocity": 0.63,
        "hand": "right"
      },
      {
        "midi": 69,
        "time": 34.2,
        "duration": 0.3,
        "velocity": 0.63,
        "hand": "right"
      },
      {
        "midi": 50,
        "time": 34.5,
        "duration": 0.6,
        "velocity": 0.63,
        "hand": "left"
      },
      {
        "midi": 66,
        "time": 34.5,
        "duration": 0.3,
        "velocity": 0.63,
        "hand": "right"
      },
      {
        "midi": 86,
        "time": 34.5,
        "duration": 0.3,
        "velocity": 0.63,
        "hand": "right"
      },
      {
        "midi": 69,
        "time": 34.8,
        "duration": 0.3,
        "velocity": 0.63,
        "hand": "right"
      },
      {
        "midi": 84,
        "time": 34.8,
        "duration": 0.3,
        "velocity": 0.63,
        "hand": "right"
      },
      {
        "midi": 47,
        "time": 35.1,
        "duration": 0.6,
        "velocity": 0.63,
        "hand": "left"
      },
      {
        "midi": 67,
        "time": 35.1,
        "duration": 0.3,
        "velocity": 0.63,
        "hand": "right"
      },
      {
        "midi": 83,
        "time": 35.1,
        "duration": 0.6,
        "velocity": 0.63,
        "hand": "right"
      },
      {
        "midi": 62,
        "time": 35.4,
        "duration": 0.3,
        "velocity": 0.63,
        "hand": "right"
      },
      {
        "midi": 43,
        "time": 35.7,
        "duration": 0.6,
        "velocity": 0.63,
        "hand": "left"
      },
      {
        "midi": 71,
        "time": 35.7,
        "duration": 0.3,
        "velocity": 0.63,
        "hand": "right"
      },
      {
        "midi": 79,
        "time": 35.7,
        "duration": 0.3,
        "velocity": 0.63,
        "hand": "right"
      },
      {
        "midi": 74,
        "time": 36,
        "duration": 0.3,
        "velocity": 0.63,
        "hand": "right"
      },
      {
        "midi": 83,
        "time": 36,
        "duration": 0.3,
        "velocity": 0.63,
        "hand": "right"
      },
      {
        "midi": 45,
        "time": 36.3,
        "duration": 0.6,
        "velocity": 0.63,
        "hand": "left"
      },
      {
        "midi": 73,
        "time": 36.3,
        "duration": 0.3,
        "velocity": 0.63,
        "hand": "right"
      },
      {
        "midi": 81,
        "time": 36.3,
        "duration": 0.6,
        "velocity": 0.63,
        "hand": "right"
      },
      {
        "midi": 71,
        "time": 36.6,
        "duration": 0.3,
        "velocity": 0.63,
        "hand": "right"
      },
      {
        "midi": 43,
        "time": 36.9,
        "duration": 0.6,
        "velocity": 0.63,
        "hand": "left"
      },
      {
        "midi": 73,
        "time": 36.9,
        "duration": 0.3,
        "velocity": 0.63,
        "hand": "right"
      },
      {
        "midi": 79,
        "time": 36.9,
        "duration": 0.3,
        "velocity": 0.63,
        "hand": "right"
      },
      {
        "midi": 72,
        "time": 37.2,
        "duration": 0.3,
        "velocity": 0.63,
        "hand": "right"
      },
      {
        "midi": 78,
        "time": 37.2,
        "duration": 0.3,
        "velocity": 0.63,
        "hand": "right"
      },
      {
        "midi": 43,
        "time": 37.5,
        "duration": 0.9,
        "velocity": 0.63,
        "hand": "left"
      },
      {
        "midi": 71,
        "time": 37.5,
        "duration": 0.6,
        "velocity": 0.63,
        "hand": "right"
      },
      {
        "midi": 79,
        "time": 37.5,
        "duration": 0.9,
        "velocity": 0.63,
        "hand": "right"
      },
      {
        "midi": 67,
        "time": 38.1,
        "duration": 0.6,
        "velocity": 0.63,
        "hand": "right"
      }
    ]
  },
  "notes1Hand": [
    {
      "midi": 74,
      "time": 0,
      "duration": 0.3,
      "velocity": 0.63,
      "hand": "right"
    },
    {
      "midi": 79,
      "time": 0.3,
      "duration": 0.6,
      "velocity": 0.63,
      "hand": "right"
    },
    {
      "midi": 55,
      "time": 0.6,
      "duration": 0.3,
      "velocity": 0.63,
      "hand": "right"
    },
    {
      "midi": 79,
      "time": 0.9,
      "duration": 0.3,
      "velocity": 0.63,
      "hand": "right"
    },
    {
      "midi": 81,
      "time": 1.2,
      "duration": 0.3,
      "velocity": 0.63,
      "hand": "right"
    },
    {
      "midi": 83,
      "time": 1.5,
      "duration": 0.9,
      "velocity": 0.63,
      "hand": "right"
    },
    {
      "midi": 62,
      "time": 1.8,
      "duration": 0.2,
      "velocity": 0.63,
      "hand": "right"
    },
    {
      "midi": 64,
      "time": 1.95,
      "duration": 0.2,
      "velocity": 0.63,
      "hand": "right"
    },
    {
      "midi": 66,
      "time": 2.1,
      "duration": 0.3,
      "velocity": 0.63,
      "hand": "right"
    },
    {
      "midi": 83,
      "time": 2.4,
      "duration": 0.3,
      "velocity": 0.63,
      "hand": "right"
    },
    {
      "midi": 84,
      "time": 2.7,
      "duration": 0.3,
      "velocity": 0.63,
      "hand": "right"
    },
    {
      "midi": 83,
      "time": 3,
      "duration": 0.3,
      "velocity": 0.63,
      "hand": "right"
    },
    {
      "midi": 81,
      "time": 3.3,
      "duration": 0.3,
      "velocity": 0.63,
      "hand": "right"
    },
    {
      "midi": 79,
      "time": 3.6,
      "duration": 0.3,
      "velocity": 0.63,
      "hand": "right"
    },
    {
      "midi": 81,
      "time": 3.9,
      "duration": 0.9,
      "velocity": 0.63,
      "hand": "right"
    },
    {
      "midi": 60,
      "time": 4.2,
      "duration": 0.2,
      "velocity": 0.63,
      "hand": "right"
    },
    {
      "midi": 62,
      "time": 4.35,
      "duration": 0.2,
      "velocity": 0.63,
      "hand": "right"
    },
    {
      "midi": 66,
      "time": 4.5,
      "duration": 0.3,
      "velocity": 0.63,
      "hand": "right"
    },
    {
      "midi": 81,
      "time": 4.8,
      "duration": 0.3,
      "velocity": 0.63,
      "hand": "right"
    },
    {
      "midi": 84,
      "time": 5.1,
      "duration": 0.6,
      "velocity": 0.63,
      "hand": "right"
    },
    {
      "midi": 69,
      "time": 5.4,
      "duration": 0.3,
      "velocity": 0.63,
      "hand": "right"
    },
    {
      "midi": 86,
      "time": 5.7,
      "duration": 0.3,
      "velocity": 0.63,
      "hand": "right"
    },
    {
      "midi": 84,
      "time": 6,
      "duration": 0.3,
      "velocity": 0.63,
      "hand": "right"
    },
    {
      "midi": 83,
      "time": 6.3,
      "duration": 0.6,
      "velocity": 0.63,
      "hand": "right"
    },
    {
      "midi": 62,
      "time": 6.6,
      "duration": 0.3,
      "velocity": 0.63,
      "hand": "right"
    },
    {
      "midi": 79,
      "time": 6.9,
      "duration": 0.3,
      "velocity": 0.63,
      "hand": "right"
    },
    {
      "midi": 83,
      "time": 7.2,
      "duration": 0.3,
      "velocity": 0.63,
      "hand": "right"
    },
    {
      "midi": 81,
      "time": 7.5,
      "duration": 0.3,
      "velocity": 0.63,
      "hand": "right"
    },
    {
      "midi": 79,
      "time": 7.8,
      "duration": 0.3,
      "velocity": 0.63,
      "hand": "right"
    },
    {
      "midi": 78,
      "time": 8.1,
      "duration": 0.3,
      "velocity": 0.63,
      "hand": "right"
    },
    {
      "midi": 79,
      "time": 8.4,
      "duration": 0.3,
      "velocity": 0.63,
      "hand": "right"
    },
    {
      "midi": 81,
      "time": 8.7,
      "duration": 0.6,
      "velocity": 0.63,
      "hand": "right"
    },
    {
      "midi": 69,
      "time": 9,
      "duration": 0.2,
      "velocity": 0.63,
      "hand": "right"
    },
    {
      "midi": 71,
      "time": 9.15,
      "duration": 0.2,
      "velocity": 0.63,
      "hand": "right"
    },
    {
      "midi": 69,
      "time": 9.3,
      "duration": 0.3,
      "velocity": 0.63,
      "hand": "right"
    },
    {
      "midi": 74,
      "time": 9.6,
      "duration": 0.3,
      "velocity": 0.63,
      "hand": "right"
    },
    {
      "midi": 79,
      "time": 9.9,
      "duration": 0.6,
      "velocity": 0.63,
      "hand": "right"
    },
    {
      "midi": 55,
      "time": 10.2,
      "duration": 0.3,
      "velocity": 0.63,
      "hand": "right"
    },
    {
      "midi": 79,
      "time": 10.5,
      "duration": 0.3,
      "velocity": 0.63,
      "hand": "right"
    },
    {
      "midi": 81,
      "time": 10.8,
      "duration": 0.3,
      "velocity": 0.63,
      "hand": "right"
    },
    {
      "midi": 83,
      "time": 11.1,
      "duration": 0.9,
      "velocity": 0.63,
      "hand": "right"
    },
    {
      "midi": 62,
      "time": 11.4,
      "duration": 0.2,
      "velocity": 0.63,
      "hand": "right"
    },
    {
      "midi": 64,
      "time": 11.55,
      "duration": 0.2,
      "velocity": 0.63,
      "hand": "right"
    },
    {
      "midi": 66,
      "time": 11.7,
      "duration": 0.3,
      "velocity": 0.63,
      "hand": "right"
    },
    {
      "midi": 86,
      "time": 12,
      "duration": 0.3,
      "velocity": 0.63,
      "hand": "right"
    },
    {
      "midi": 84,
      "time": 12.3,
      "duration": 0.3,
      "velocity": 0.63,
      "hand": "right"
    },
    {
      "midi": 83,
      "time": 12.6,
      "duration": 0.3,
      "velocity": 0.63,
      "hand": "right"
    },
    {
      "midi": 81,
      "time": 12.9,
      "duration": 0.3,
      "velocity": 0.63,
      "hand": "right"
    },
    {
      "midi": 79,
      "time": 13.2,
      "duration": 0.3,
      "velocity": 0.63,
      "hand": "right"
    },
    {
      "midi": 81,
      "time": 13.5,
      "duration": 0.9,
      "velocity": 0.63,
      "hand": "right"
    },
    {
      "midi": 60,
      "time": 13.8,
      "duration": 0.2,
      "velocity": 0.63,
      "hand": "right"
    },
    {
      "midi": 62,
      "time": 13.95,
      "duration": 0.2,
      "velocity": 0.63,
      "hand": "right"
    },
    {
      "midi": 66,
      "time": 14.1,
      "duration": 0.3,
      "velocity": 0.63,
      "hand": "right"
    },
    {
      "midi": 81,
      "time": 14.4,
      "duration": 0.3,
      "velocity": 0.63,
      "hand": "right"
    },
    {
      "midi": 84,
      "time": 14.7,
      "duration": 0.6,
      "velocity": 0.63,
      "hand": "right"
    },
    {
      "midi": 69,
      "time": 15,
      "duration": 0.3,
      "velocity": 0.63,
      "hand": "right"
    },
    {
      "midi": 86,
      "time": 15.3,
      "duration": 0.3,
      "velocity": 0.63,
      "hand": "right"
    },
    {
      "midi": 84,
      "time": 15.6,
      "duration": 0.3,
      "velocity": 0.63,
      "hand": "right"
    },
    {
      "midi": 83,
      "time": 15.9,
      "duration": 0.6,
      "velocity": 0.63,
      "hand": "right"
    },
    {
      "midi": 62,
      "time": 16.2,
      "duration": 0.3,
      "velocity": 0.63,
      "hand": "right"
    },
    {
      "midi": 79,
      "time": 16.5,
      "duration": 0.3,
      "velocity": 0.63,
      "hand": "right"
    },
    {
      "midi": 83,
      "time": 16.8,
      "duration": 0.3,
      "velocity": 0.63,
      "hand": "right"
    },
    {
      "midi": 81,
      "time": 17.1,
      "duration": 0.6,
      "velocity": 0.63,
      "hand": "right"
    },
    {
      "midi": 69,
      "time": 17.4,
      "duration": 0.3,
      "velocity": 0.63,
      "hand": "right"
    },
    {
      "midi": 79,
      "time": 17.7,
      "duration": 0.3,
      "velocity": 0.63,
      "hand": "right"
    },
    {
      "midi": 78,
      "time": 18,
      "duration": 0.3,
      "velocity": 0.63,
      "hand": "right"
    },
    {
      "midi": 79,
      "time": 18.3,
      "duration": 1.2,
      "velocity": 0.63,
      "hand": "right"
    },
    {
      "midi": 67,
      "time": 18.9,
      "duration": 0.6,
      "velocity": 0.63,
      "hand": "right"
    },
    {
      "midi": 79,
      "time": 19.5,
      "duration": 0.3,
      "velocity": 0.63,
      "hand": "right"
    },
    {
      "midi": 79,
      "time": 19.8,
      "duration": 0.3,
      "velocity": 0.63,
      "hand": "right"
    },
    {
      "midi": 79,
      "time": 20.1,
      "duration": 0.3,
      "velocity": 0.63,
      "hand": "right"
    },
    {
      "midi": 79,
      "time": 20.4,
      "duration": 0.3,
      "velocity": 0.63,
      "hand": "right"
    },
    {
      "midi": 79,
      "time": 20.7,
      "duration": 0.3,
      "velocity": 0.63,
      "hand": "right"
    },
    {
      "midi": 79,
      "time": 21,
      "duration": 0.3,
      "velocity": 0.63,
      "hand": "right"
    },
    {
      "midi": 79,
      "time": 21.3,
      "duration": 0.3,
      "velocity": 0.63,
      "hand": "right"
    },
    {
      "midi": 79,
      "time": 21.6,
      "duration": 0.3,
      "velocity": 0.63,
      "hand": "right"
    },
    {
      "midi": 81,
      "time": 21.9,
      "duration": 0.3,
      "velocity": 0.63,
      "hand": "right"
    },
    {
      "midi": 79,
      "time": 22.2,
      "duration": 0.3,
      "velocity": 0.63,
      "hand": "right"
    },
    {
      "midi": 78,
      "time": 22.5,
      "duration": 0.3,
      "velocity": 0.63,
      "hand": "right"
    },
    {
      "midi": 75,
      "time": 22.8,
      "duration": 0.3,
      "velocity": 0.63,
      "hand": "right"
    },
    {
      "midi": 74,
      "time": 23.1,
      "duration": 0.9,
      "velocity": 0.63,
      "hand": "right"
    },
    {
      "midi": 63,
      "time": 23.4,
      "duration": 0.2,
      "velocity": 0.63,
      "hand": "right"
    },
    {
      "midi": 66,
      "time": 23.55,
      "duration": 0.2,
      "velocity": 0.63,
      "hand": "right"
    },
    {
      "midi": 67,
      "time": 23.7,
      "duration": 0.2,
      "velocity": 0.63,
      "hand": "right"
    },
    {
      "midi": 74,
      "time": 24.3,
      "duration": 0.3,
      "velocity": 0.63,
      "hand": "right"
    },
    {
      "midi": 76,
      "time": 24.6,
      "duration": 0.3,
      "velocity": 0.63,
      "hand": "right"
    },
    {
      "midi": 78,
      "time": 24.9,
      "duration": 0.3,
      "velocity": 0.63,
      "hand": "right"
    },
    {
      "midi": 79,
      "time": 25.2,
      "duration": 0.3,
      "velocity": 0.63,
      "hand": "right"
    },
    {
      "midi": 81,
      "time": 25.5,
      "duration": 0.3,
      "velocity": 0.63,
      "hand": "right"
    },
    {
      "midi": 81,
      "time": 25.8,
      "duration": 0.3,
      "velocity": 0.63,
      "hand": "right"
    },
    {
      "midi": 81,
      "time": 26.1,
      "duration": 0.3,
      "velocity": 0.63,
      "hand": "right"
    },
    {
      "midi": 81,
      "time": 26.4,
      "duration": 0.3,
      "velocity": 0.63,
      "hand": "right"
    },
    {
      "midi": 82,
      "time": 26.7,
      "duration": 0.3,
      "velocity": 0.63,
      "hand": "right"
    },
    {
      "midi": 81,
      "time": 27,
      "duration": 0.3,
      "velocity": 0.63,
      "hand": "right"
    },
    {
      "midi": 79,
      "time": 27.3,
      "duration": 0.3,
      "velocity": 0.63,
      "hand": "right"
    },
    {
      "midi": 78,
      "time": 27.6,
      "duration": 0.3,
      "velocity": 0.63,
      "hand": "right"
    },
    {
      "midi": 79,
      "time": 27.9,
      "duration": 0.6,
      "velocity": 0.63,
      "hand": "right"
    },
    {
      "midi": 67,
      "time": 28.2,
      "duration": 0.3,
      "velocity": 0.63,
      "hand": "right"
    },
    {
      "midi": 70,
      "time": 28.5,
      "duration": 0.6,
      "velocity": 0.63,
      "hand": "right"
    },
    {
      "midi": 74,
      "time": 28.8,
      "duration": 0.3,
      "velocity": 0.63,
      "hand": "right"
    },
    {
      "midi": 79,
      "time": 29.1,
      "duration": 0.6,
      "velocity": 0.63,
      "hand": "right"
    },
    {
      "midi": 55,
      "time": 29.4,
      "duration": 0.3,
      "velocity": 0.63,
      "hand": "right"
    },
    {
      "midi": 79,
      "time": 29.7,
      "duration": 0.3,
      "velocity": 0.63,
      "hand": "right"
    },
    {
      "midi": 81,
      "time": 30,
      "duration": 0.3,
      "velocity": 0.63,
      "hand": "right"
    },
    {
      "midi": 83,
      "time": 30.3,
      "duration": 0.9,
      "velocity": 0.63,
      "hand": "right"
    },
    {
      "midi": 62,
      "time": 30.6,
      "duration": 0.2,
      "velocity": 0.63,
      "hand": "right"
    },
    {
      "midi": 64,
      "time": 30.75,
      "duration": 0.2,
      "velocity": 0.63,
      "hand": "right"
    },
    {
      "midi": 66,
      "time": 30.9,
      "duration": 0.3,
      "velocity": 0.63,
      "hand": "right"
    },
    {
      "midi": 83,
      "time": 31.2,
      "duration": 0.3,
      "velocity": 0.63,
      "hand": "right"
    },
    {
      "midi": 84,
      "time": 31.5,
      "duration": 0.3,
      "velocity": 0.63,
      "hand": "right"
    },
    {
      "midi": 83,
      "time": 31.8,
      "duration": 0.3,
      "velocity": 0.63,
      "hand": "right"
    },
    {
      "midi": 81,
      "time": 32.1,
      "duration": 0.3,
      "velocity": 0.63,
      "hand": "right"
    },
    {
      "midi": 79,
      "time": 32.4,
      "duration": 0.3,
      "velocity": 0.63,
      "hand": "right"
    },
    {
      "midi": 81,
      "time": 32.7,
      "duration": 0.9,
      "velocity": 0.63,
      "hand": "right"
    },
    {
      "midi": 60,
      "time": 33,
      "duration": 0.2,
      "velocity": 0.63,
      "hand": "right"
    },
    {
      "midi": 62,
      "time": 33.15,
      "duration": 0.2,
      "velocity": 0.63,
      "hand": "right"
    },
    {
      "midi": 66,
      "time": 33.3,
      "duration": 0.3,
      "velocity": 0.63,
      "hand": "right"
    },
    {
      "midi": 81,
      "time": 33.6,
      "duration": 0.3,
      "velocity": 0.63,
      "hand": "right"
    },
    {
      "midi": 84,
      "time": 33.9,
      "duration": 0.6,
      "velocity": 0.63,
      "hand": "right"
    },
    {
      "midi": 69,
      "time": 34.2,
      "duration": 0.3,
      "velocity": 0.63,
      "hand": "right"
    },
    {
      "midi": 86,
      "time": 34.5,
      "duration": 0.3,
      "velocity": 0.63,
      "hand": "right"
    },
    {
      "midi": 84,
      "time": 34.8,
      "duration": 0.3,
      "velocity": 0.63,
      "hand": "right"
    },
    {
      "midi": 83,
      "time": 35.1,
      "duration": 0.6,
      "velocity": 0.63,
      "hand": "right"
    },
    {
      "midi": 62,
      "time": 35.4,
      "duration": 0.3,
      "velocity": 0.63,
      "hand": "right"
    },
    {
      "midi": 79,
      "time": 35.7,
      "duration": 0.3,
      "velocity": 0.63,
      "hand": "right"
    },
    {
      "midi": 83,
      "time": 36,
      "duration": 0.3,
      "velocity": 0.63,
      "hand": "right"
    },
    {
      "midi": 81,
      "time": 36.3,
      "duration": 0.6,
      "velocity": 0.63,
      "hand": "right"
    },
    {
      "midi": 71,
      "time": 36.6,
      "duration": 0.3,
      "velocity": 0.63,
      "hand": "right"
    },
    {
      "midi": 79,
      "time": 36.9,
      "duration": 0.3,
      "velocity": 0.63,
      "hand": "right"
    },
    {
      "midi": 78,
      "time": 37.2,
      "duration": 0.3,
      "velocity": 0.63,
      "hand": "right"
    },
    {
      "midi": 79,
      "time": 37.5,
      "duration": 0.9,
      "velocity": 0.63,
      "hand": "right"
    },
    {
      "midi": 67,
      "time": 38.1,
      "duration": 0.6,
      "velocity": 0.63,
      "hand": "right"
    }
  ],
  "notes2Hands": [
    {
      "midi": 62,
      "time": 0,
      "duration": 0.3,
      "velocity": 0.63,
      "hand": "right"
    },
    {
      "midi": 74,
      "time": 0,
      "duration": 0.3,
      "velocity": 0.63,
      "hand": "right"
    },
    {
      "midi": 43,
      "time": 0.3,
      "duration": 0.6,
      "velocity": 0.63,
      "hand": "left"
    },
    {
      "midi": 62,
      "time": 0.3,
      "duration": 0.3,
      "velocity": 0.63,
      "hand": "right"
    },
    {
      "midi": 79,
      "time": 0.3,
      "duration": 0.6,
      "velocity": 0.63,
      "hand": "right"
    },
    {
      "midi": 55,
      "time": 0.6,
      "duration": 0.3,
      "velocity": 0.63,
      "hand": "left"
    },
    {
      "midi": 43,
      "time": 0.9,
      "duration": 0.6,
      "velocity": 0.63,
      "hand": "left"
    },
    {
      "midi": 62,
      "time": 0.9,
      "duration": 0.3,
      "velocity": 0.63,
      "hand": "right"
    },
    {
      "midi": 79,
      "time": 0.9,
      "duration": 0.3,
      "velocity": 0.63,
      "hand": "right"
    },
    {
      "midi": 66,
      "time": 1.2,
      "duration": 0.3,
      "velocity": 0.63,
      "hand": "right"
    },
    {
      "midi": 81,
      "time": 1.2,
      "duration": 0.3,
      "velocity": 0.63,
      "hand": "right"
    },
    {
      "midi": 47,
      "time": 1.5,
      "duration": 0.6,
      "velocity": 0.63,
      "hand": "left"
    },
    {
      "midi": 67,
      "time": 1.5,
      "duration": 0.3,
      "velocity": 0.63,
      "hand": "right"
    },
    {
      "midi": 83,
      "time": 1.5,
      "duration": 0.9,
      "velocity": 0.63,
      "hand": "right"
    },
    {
      "midi": 62,
      "time": 1.8,
      "duration": 0.15,
      "velocity": 0.63,
      "hand": "right"
    },
    {
      "midi": 64,
      "time": 1.95,
      "duration": 0.15,
      "velocity": 0.63,
      "hand": "right"
    },
    {
      "midi": 47,
      "time": 2.1,
      "duration": 0.6,
      "velocity": 0.63,
      "hand": "left"
    },
    {
      "midi": 66,
      "time": 2.1,
      "duration": 0.3,
      "velocity": 0.63,
      "hand": "right"
    },
    {
      "midi": 67,
      "time": 2.4,
      "duration": 0.3,
      "velocity": 0.63,
      "hand": "right"
    },
    {
      "midi": 83,
      "time": 2.4,
      "duration": 0.3,
      "velocity": 0.63,
      "hand": "right"
    },
    {
      "midi": 48,
      "time": 2.7,
      "duration": 0.6,
      "velocity": 0.63,
      "hand": "left"
    },
    {
      "midi": 69,
      "time": 2.7,
      "duration": 0.3,
      "velocity": 0.63,
      "hand": "right"
    },
    {
      "midi": 84,
      "time": 2.7,
      "duration": 0.3,
      "velocity": 0.63,
      "hand": "right"
    },
    {
      "midi": 67,
      "time": 3,
      "duration": 0.3,
      "velocity": 0.63,
      "hand": "right"
    },
    {
      "midi": 83,
      "time": 3,
      "duration": 0.3,
      "velocity": 0.63,
      "hand": "right"
    },
    {
      "midi": 45,
      "time": 3.3,
      "duration": 0.6,
      "velocity": 0.63,
      "hand": "left"
    },
    {
      "midi": 66,
      "time": 3.3,
      "duration": 0.3,
      "velocity": 0.63,
      "hand": "right"
    },
    {
      "midi": 81,
      "time": 3.3,
      "duration": 0.3,
      "velocity": 0.63,
      "hand": "right"
    },
    {
      "midi": 64,
      "time": 3.6,
      "duration": 0.3,
      "velocity": 0.63,
      "hand": "right"
    },
    {
      "midi": 79,
      "time": 3.6,
      "duration": 0.3,
      "velocity": 0.63,
      "hand": "right"
    },
    {
      "midi": 45,
      "time": 3.9,
      "duration": 0.6,
      "velocity": 0.63,
      "hand": "left"
    },
    {
      "midi": 66,
      "time": 3.9,
      "duration": 0.3,
      "velocity": 0.63,
      "hand": "right"
    },
    {
      "midi": 81,
      "time": 3.9,
      "duration": 0.9,
      "velocity": 0.63,
      "hand": "right"
    },
    {
      "midi": 60,
      "time": 4.2,
      "duration": 0.15,
      "velocity": 0.63,
      "hand": "right"
    },
    {
      "midi": 62,
      "time": 4.35,
      "duration": 0.15,
      "velocity": 0.63,
      "hand": "right"
    },
    {
      "midi": 45,
      "time": 4.5,
      "duration": 0.6,
      "velocity": 0.63,
      "hand": "left"
    },
    {
      "midi": 66,
      "time": 4.5,
      "duration": 0.3,
      "velocity": 0.63,
      "hand": "right"
    },
    {
      "midi": 66,
      "time": 4.8,
      "duration": 0.3,
      "velocity": 0.63,
      "hand": "right"
    },
    {
      "midi": 81,
      "time": 4.8,
      "duration": 0.3,
      "velocity": 0.63,
      "hand": "right"
    },
    {
      "midi": 48,
      "time": 5.1,
      "duration": 0.6,
      "velocity": 0.63,
      "hand": "left"
    },
    {
      "midi": 69,
      "time": 5.1,
      "duration": 0.3,
      "velocity": 0.63,
      "hand": "right"
    },
    {
      "midi": 84,
      "time": 5.1,
      "duration": 0.6,
      "velocity": 0.63,
      "hand": "right"
    },
    {
      "midi": 69,
      "time": 5.4,
      "duration": 0.3,
      "velocity": 0.63,
      "hand": "right"
    },
    {
      "midi": 50,
      "time": 5.7,
      "duration": 0.6,
      "velocity": 0.63,
      "hand": "left"
    },
    {
      "midi": 66,
      "time": 5.7,
      "duration": 0.3,
      "velocity": 0.63,
      "hand": "right"
    },
    {
      "midi": 86,
      "time": 5.7,
      "duration": 0.3,
      "velocity": 0.63,
      "hand": "right"
    },
    {
      "midi": 69,
      "time": 6,
      "duration": 0.3,
      "velocity": 0.63,
      "hand": "right"
    },
    {
      "midi": 84,
      "time": 6,
      "duration": 0.3,
      "velocity": 0.63,
      "hand": "right"
    },
    {
      "midi": 47,
      "time": 6.3,
      "duration": 0.6,
      "velocity": 0.63,
      "hand": "left"
    },
    {
      "midi": 67,
      "time": 6.3,
      "duration": 0.3,
      "velocity": 0.63,
      "hand": "right"
    },
    {
      "midi": 83,
      "time": 6.3,
      "duration": 0.6,
      "velocity": 0.63,
      "hand": "right"
    },
    {
      "midi": 62,
      "time": 6.6,
      "duration": 0.3,
      "velocity": 0.63,
      "hand": "right"
    },
    {
      "midi": 43,
      "time": 6.9,
      "duration": 0.6,
      "velocity": 0.63,
      "hand": "left"
    },
    {
      "midi": 71,
      "time": 6.9,
      "duration": 0.3,
      "velocity": 0.63,
      "hand": "right"
    },
    {
      "midi": 79,
      "time": 6.9,
      "duration": 0.3,
      "velocity": 0.63,
      "hand": "right"
    },
    {
      "midi": 74,
      "time": 7.2,
      "duration": 0.3,
      "velocity": 0.63,
      "hand": "right"
    },
    {
      "midi": 83,
      "time": 7.2,
      "duration": 0.3,
      "velocity": 0.63,
      "hand": "right"
    },
    {
      "midi": 45,
      "time": 7.5,
      "duration": 0.6,
      "velocity": 0.63,
      "hand": "left"
    },
    {
      "midi": 73,
      "time": 7.5,
      "duration": 0.3,
      "velocity": 0.63,
      "hand": "right"
    },
    {
      "midi": 81,
      "time": 7.5,
      "duration": 0.3,
      "velocity": 0.63,
      "hand": "right"
    },
    {
      "midi": 71,
      "time": 7.8,
      "duration": 0.3,
      "velocity": 0.63,
      "hand": "right"
    },
    {
      "midi": 79,
      "time": 7.8,
      "duration": 0.3,
      "velocity": 0.63,
      "hand": "right"
    },
    {
      "midi": 42,
      "time": 8.1,
      "duration": 0.6,
      "velocity": 0.63,
      "hand": "left"
    },
    {
      "midi": 69,
      "time": 8.1,
      "duration": 0.3,
      "velocity": 0.63,
      "hand": "right"
    },
    {
      "midi": 78,
      "time": 8.1,
      "duration": 0.3,
      "velocity": 0.63,
      "hand": "right"
    },
    {
      "midi": 71,
      "time": 8.4,
      "duration": 0.3,
      "velocity": 0.63,
      "hand": "right"
    },
    {
      "midi": 79,
      "time": 8.4,
      "duration": 0.3,
      "velocity": 0.63,
      "hand": "right"
    },
    {
      "midi": 45,
      "time": 8.7,
      "duration": 1.2,
      "velocity": 0.63,
      "hand": "left"
    },
    {
      "midi": 72,
      "time": 8.7,
      "duration": 0.3,
      "velocity": 0.63,
      "hand": "right"
    },
    {
      "midi": 81,
      "time": 8.7,
      "duration": 0.6,
      "velocity": 0.63,
      "hand": "right"
    },
    {
      "midi": 69,
      "time": 9,
      "duration": 0.15,
      "velocity": 0.63,
      "hand": "right"
    },
    {
      "midi": 71,
      "time": 9.15,
      "duration": 0.15,
      "velocity": 0.63,
      "hand": "right"
    },
    {
      "midi": 69,
      "time": 9.3,
      "duration": 0.3,
      "velocity": 0.63,
      "hand": "right"
    },
    {
      "midi": 62,
      "time": 9.6,
      "duration": 0.3,
      "velocity": 0.63,
      "hand": "right"
    },
    {
      "midi": 74,
      "time": 9.6,
      "duration": 0.3,
      "velocity": 0.63,
      "hand": "right"
    },
    {
      "midi": 43,
      "time": 9.9,
      "duration": 0.6,
      "velocity": 0.63,
      "hand": "left"
    },
    {
      "midi": 62,
      "time": 9.9,
      "duration": 0.3,
      "velocity": 0.63,
      "hand": "right"
    },
    {
      "midi": 79,
      "time": 9.9,
      "duration": 0.6,
      "velocity": 0.63,
      "hand": "right"
    },
    {
      "midi": 55,
      "time": 10.2,
      "duration": 0.3,
      "velocity": 0.63,
      "hand": "left"
    },
    {
      "midi": 43,
      "time": 10.5,
      "duration": 0.6,
      "velocity": 0.63,
      "hand": "left"
    },
    {
      "midi": 62,
      "time": 10.5,
      "duration": 0.3,
      "velocity": 0.63,
      "hand": "right"
    },
    {
      "midi": 79,
      "time": 10.5,
      "duration": 0.3,
      "velocity": 0.63,
      "hand": "right"
    },
    {
      "midi": 66,
      "time": 10.8,
      "duration": 0.3,
      "velocity": 0.63,
      "hand": "right"
    },
    {
      "midi": 81,
      "time": 10.8,
      "duration": 0.3,
      "velocity": 0.63,
      "hand": "right"
    },
    {
      "midi": 47,
      "time": 11.1,
      "duration": 0.6,
      "velocity": 0.63,
      "hand": "left"
    },
    {
      "midi": 67,
      "time": 11.1,
      "duration": 0.3,
      "velocity": 0.63,
      "hand": "right"
    },
    {
      "midi": 83,
      "time": 11.1,
      "duration": 0.9,
      "velocity": 0.63,
      "hand": "right"
    },
    {
      "midi": 62,
      "time": 11.4,
      "duration": 0.15,
      "velocity": 0.63,
      "hand": "right"
    },
    {
      "midi": 64,
      "time": 11.55,
      "duration": 0.15,
      "velocity": 0.63,
      "hand": "right"
    },
    {
      "midi": 50,
      "time": 11.7,
      "duration": 0.6,
      "velocity": 0.63,
      "hand": "left"
    },
    {
      "midi": 66,
      "time": 11.7,
      "duration": 0.3,
      "velocity": 0.63,
      "hand": "right"
    },
    {
      "midi": 67,
      "time": 12,
      "duration": 0.3,
      "velocity": 0.63,
      "hand": "right"
    },
    {
      "midi": 86,
      "time": 12,
      "duration": 0.3,
      "velocity": 0.63,
      "hand": "right"
    },
    {
      "midi": 48,
      "time": 12.3,
      "duration": 0.6,
      "velocity": 0.63,
      "hand": "left"
    },
    {
      "midi": 69,
      "time": 12.3,
      "duration": 0.3,
      "velocity": 0.63,
      "hand": "right"
    },
    {
      "midi": 84,
      "time": 12.3,
      "duration": 0.3,
      "velocity": 0.63,
      "hand": "right"
    },
    {
      "midi": 67,
      "time": 12.6,
      "duration": 0.3,
      "velocity": 0.63,
      "hand": "right"
    },
    {
      "midi": 83,
      "time": 12.6,
      "duration": 0.3,
      "velocity": 0.63,
      "hand": "right"
    },
    {
      "midi": 45,
      "time": 12.9,
      "duration": 0.6,
      "velocity": 0.63,
      "hand": "left"
    },
    {
      "midi": 66,
      "time": 12.9,
      "duration": 0.3,
      "velocity": 0.63,
      "hand": "right"
    },
    {
      "midi": 81,
      "time": 12.9,
      "duration": 0.3,
      "velocity": 0.63,
      "hand": "right"
    },
    {
      "midi": 64,
      "time": 13.2,
      "duration": 0.3,
      "velocity": 0.63,
      "hand": "right"
    },
    {
      "midi": 79,
      "time": 13.2,
      "duration": 0.3,
      "velocity": 0.63,
      "hand": "right"
    },
    {
      "midi": 45,
      "time": 13.5,
      "duration": 1.2,
      "velocity": 0.63,
      "hand": "left"
    },
    {
      "midi": 66,
      "time": 13.5,
      "duration": 0.3,
      "velocity": 0.63,
      "hand": "right"
    },
    {
      "midi": 81,
      "time": 13.5,
      "duration": 0.9,
      "velocity": 0.63,
      "hand": "right"
    },
    {
      "midi": 60,
      "time": 13.8,
      "duration": 0.15,
      "velocity": 0.63,
      "hand": "right"
    },
    {
      "midi": 62,
      "time": 13.95,
      "duration": 0.15,
      "velocity": 0.63,
      "hand": "right"
    },
    {
      "midi": 66,
      "time": 14.1,
      "duration": 0.3,
      "velocity": 0.63,
      "hand": "right"
    },
    {
      "midi": 66,
      "time": 14.4,
      "duration": 0.3,
      "velocity": 0.63,
      "hand": "right"
    },
    {
      "midi": 81,
      "time": 14.4,
      "duration": 0.3,
      "velocity": 0.63,
      "hand": "right"
    },
    {
      "midi": 48,
      "time": 14.7,
      "duration": 0.6,
      "velocity": 0.63,
      "hand": "left"
    },
    {
      "midi": 69,
      "time": 14.7,
      "duration": 0.3,
      "velocity": 0.63,
      "hand": "right"
    },
    {
      "midi": 84,
      "time": 14.7,
      "duration": 0.6,
      "velocity": 0.63,
      "hand": "right"
    },
    {
      "midi": 69,
      "time": 15,
      "duration": 0.3,
      "velocity": 0.63,
      "hand": "right"
    },
    {
      "midi": 50,
      "time": 15.3,
      "duration": 0.6,
      "velocity": 0.63,
      "hand": "left"
    },
    {
      "midi": 66,
      "time": 15.3,
      "duration": 0.3,
      "velocity": 0.63,
      "hand": "right"
    },
    {
      "midi": 86,
      "time": 15.3,
      "duration": 0.3,
      "velocity": 0.63,
      "hand": "right"
    },
    {
      "midi": 69,
      "time": 15.6,
      "duration": 0.3,
      "velocity": 0.63,
      "hand": "right"
    },
    {
      "midi": 84,
      "time": 15.6,
      "duration": 0.3,
      "velocity": 0.63,
      "hand": "right"
    },
    {
      "midi": 47,
      "time": 15.9,
      "duration": 0.6,
      "velocity": 0.63,
      "hand": "left"
    },
    {
      "midi": 67,
      "time": 15.9,
      "duration": 0.3,
      "velocity": 0.63,
      "hand": "right"
    },
    {
      "midi": 83,
      "time": 15.9,
      "duration": 0.6,
      "velocity": 0.63,
      "hand": "right"
    },
    {
      "midi": 62,
      "time": 16.2,
      "duration": 0.3,
      "velocity": 0.63,
      "hand": "right"
    },
    {
      "midi": 43,
      "time": 16.5,
      "duration": 0.6,
      "velocity": 0.63,
      "hand": "left"
    },
    {
      "midi": 71,
      "time": 16.5,
      "duration": 0.3,
      "velocity": 0.63,
      "hand": "right"
    },
    {
      "midi": 79,
      "time": 16.5,
      "duration": 0.3,
      "velocity": 0.63,
      "hand": "right"
    },
    {
      "midi": 74,
      "time": 16.8,
      "duration": 0.3,
      "velocity": 0.63,
      "hand": "right"
    },
    {
      "midi": 83,
      "time": 16.8,
      "duration": 0.3,
      "velocity": 0.63,
      "hand": "right"
    },
    {
      "midi": 45,
      "time": 17.1,
      "duration": 0.6,
      "velocity": 0.63,
      "hand": "left"
    },
    {
      "midi": 73,
      "time": 17.1,
      "duration": 0.3,
      "velocity": 0.63,
      "hand": "right"
    },
    {
      "midi": 81,
      "time": 17.1,
      "duration": 0.6,
      "velocity": 0.63,
      "hand": "right"
    },
    {
      "midi": 69,
      "time": 17.4,
      "duration": 0.3,
      "velocity": 0.63,
      "hand": "right"
    },
    {
      "midi": 43,
      "time": 17.7,
      "duration": 0.6,
      "velocity": 0.63,
      "hand": "left"
    },
    {
      "midi": 73,
      "time": 17.7,
      "duration": 0.3,
      "velocity": 0.63,
      "hand": "right"
    },
    {
      "midi": 79,
      "time": 17.7,
      "duration": 0.3,
      "velocity": 0.63,
      "hand": "right"
    },
    {
      "midi": 72,
      "time": 18,
      "duration": 0.3,
      "velocity": 0.63,
      "hand": "right"
    },
    {
      "midi": 78,
      "time": 18,
      "duration": 0.3,
      "velocity": 0.63,
      "hand": "right"
    },
    {
      "midi": 43,
      "time": 18.3,
      "duration": 1.2,
      "velocity": 0.63,
      "hand": "left"
    },
    {
      "midi": 71,
      "time": 18.3,
      "duration": 0.6,
      "velocity": 0.63,
      "hand": "right"
    },
    {
      "midi": 79,
      "time": 18.3,
      "duration": 1.2,
      "velocity": 0.63,
      "hand": "right"
    },
    {
      "midi": 67,
      "time": 18.9,
      "duration": 0.6,
      "velocity": 0.63,
      "hand": "right"
    },
    {
      "midi": 43,
      "time": 19.5,
      "duration": 0.6,
      "velocity": 0.63,
      "hand": "left"
    },
    {
      "midi": 70,
      "time": 19.5,
      "duration": 0.3,
      "velocity": 0.63,
      "hand": "right"
    },
    {
      "midi": 79,
      "time": 19.5,
      "duration": 0.3,
      "velocity": 0.63,
      "hand": "right"
    },
    {
      "midi": 70,
      "time": 19.8,
      "duration": 0.3,
      "velocity": 0.63,
      "hand": "right"
    },
    {
      "midi": 79,
      "time": 19.8,
      "duration": 0.3,
      "velocity": 0.63,
      "hand": "right"
    },
    {
      "midi": 43,
      "time": 20.1,
      "duration": 0.6,
      "velocity": 0.63,
      "hand": "left"
    },
    {
      "midi": 70,
      "time": 20.1,
      "duration": 0.3,
      "velocity": 0.63,
      "hand": "right"
    },
    {
      "midi": 79,
      "time": 20.1,
      "duration": 0.3,
      "velocity": 0.63,
      "hand": "right"
    },
    {
      "midi": 70,
      "time": 20.4,
      "duration": 0.3,
      "velocity": 0.63,
      "hand": "right"
    },
    {
      "midi": 79,
      "time": 20.4,
      "duration": 0.3,
      "velocity": 0.63,
      "hand": "right"
    },
    {
      "midi": 43,
      "time": 20.7,
      "duration": 0.6,
      "velocity": 0.63,
      "hand": "left"
    },
    {
      "midi": 70,
      "time": 20.7,
      "duration": 0.3,
      "velocity": 0.63,
      "hand": "right"
    },
    {
      "midi": 79,
      "time": 20.7,
      "duration": 0.3,
      "velocity": 0.63,
      "hand": "right"
    },
    {
      "midi": 70,
      "time": 21,
      "duration": 0.3,
      "velocity": 0.63,
      "hand": "right"
    },
    {
      "midi": 79,
      "time": 21,
      "duration": 0.3,
      "velocity": 0.63,
      "hand": "right"
    },
    {
      "midi": 43,
      "time": 21.3,
      "duration": 0.6,
      "velocity": 0.63,
      "hand": "left"
    },
    {
      "midi": 70,
      "time": 21.3,
      "duration": 0.3,
      "velocity": 0.63,
      "hand": "right"
    },
    {
      "midi": 79,
      "time": 21.3,
      "duration": 0.3,
      "velocity": 0.63,
      "hand": "right"
    },
    {
      "midi": 70,
      "time": 21.6,
      "duration": 0.3,
      "velocity": 0.63,
      "hand": "right"
    },
    {
      "midi": 79,
      "time": 21.6,
      "duration": 0.3,
      "velocity": 0.63,
      "hand": "right"
    },
    {
      "midi": 45,
      "time": 21.9,
      "duration": 0.6,
      "velocity": 0.63,
      "hand": "left"
    },
    {
      "midi": 72,
      "time": 21.9,
      "duration": 0.3,
      "velocity": 0.63,
      "hand": "right"
    },
    {
      "midi": 81,
      "time": 21.9,
      "duration": 0.3,
      "velocity": 0.63,
      "hand": "right"
    },
    {
      "midi": 70,
      "time": 22.2,
      "duration": 0.3,
      "velocity": 0.63,
      "hand": "right"
    },
    {
      "midi": 79,
      "time": 22.2,
      "duration": 0.3,
      "velocity": 0.63,
      "hand": "right"
    },
    {
      "midi": 42,
      "time": 22.5,
      "duration": 0.6,
      "velocity": 0.63,
      "hand": "left"
    },
    {
      "midi": 69,
      "time": 22.5,
      "duration": 0.3,
      "velocity": 0.63,
      "hand": "right"
    },
    {
      "midi": 78,
      "time": 22.5,
      "duration": 0.3,
      "velocity": 0.63,
      "hand": "right"
    },
    {
      "midi": 67,
      "time": 22.8,
      "duration": 0.3,
      "velocity": 0.63,
      "hand": "right"
    },
    {
      "midi": 75,
      "time": 22.8,
      "duration": 0.3,
      "velocity": 0.63,
      "hand": "right"
    },
    {
      "midi": 38,
      "time": 23.1,
      "duration": 1.2,
      "velocity": 0.63,
      "hand": "left"
    },
    {
      "midi": 66,
      "time": 23.1,
      "duration": 0.3,
      "velocity": 0.63,
      "hand": "right"
    },
    {
      "midi": 74,
      "time": 23.1,
      "duration": 0.9,
      "velocity": 0.63,
      "hand": "right"
    },
    {
      "midi": 63,
      "time": 23.4,
      "duration": 0.15,
      "velocity": 0.63,
      "hand": "right"
    },
    {
      "midi": 66,
      "time": 23.55,
      "duration": 0.15,
      "velocity": 0.63,
      "hand": "right"
    },
    {
      "midi": 67,
      "time": 23.7,
      "duration": 0.15,
      "velocity": 0.63,
      "hand": "right"
    },
    {
      "midi": 38,
      "time": 24.3,
      "duration": 0.6,
      "velocity": 0.63,
      "hand": "left"
    },
    {
      "midi": 66,
      "time": 24.3,
      "duration": 0.3,
      "velocity": 0.63,
      "hand": "right"
    },
    {
      "midi": 74,
      "time": 24.3,
      "duration": 0.3,
      "velocity": 0.63,
      "hand": "right"
    },
    {
      "midi": 67,
      "time": 24.6,
      "duration": 0.3,
      "velocity": 0.63,
      "hand": "right"
    },
    {
      "midi": 76,
      "time": 24.6,
      "duration": 0.3,
      "velocity": 0.63,
      "hand": "right"
    },
    {
      "midi": 42,
      "time": 24.9,
      "duration": 0.6,
      "velocity": 0.63,
      "hand": "left"
    },
    {
      "midi": 69,
      "time": 24.9,
      "duration": 0.3,
      "velocity": 0.63,
      "hand": "right"
    },
    {
      "midi": 78,
      "time": 24.9,
      "duration": 0.3,
      "velocity": 0.63,
      "hand": "right"
    },
    {
      "midi": 70,
      "time": 25.2,
      "duration": 0.3,
      "velocity": 0.63,
      "hand": "right"
    },
    {
      "midi": 79,
      "time": 25.2,
      "duration": 0.3,
      "velocity": 0.63,
      "hand": "right"
    },
    {
      "midi": 45,
      "time": 25.5,
      "duration": 0.6,
      "velocity": 0.63,
      "hand": "left"
    },
    {
      "midi": 72,
      "time": 25.5,
      "duration": 0.3,
      "velocity": 0.63,
      "hand": "right"
    },
    {
      "midi": 81,
      "time": 25.5,
      "duration": 0.3,
      "velocity": 0.63,
      "hand": "right"
    },
    {
      "midi": 72,
      "time": 25.8,
      "duration": 0.3,
      "velocity": 0.63,
      "hand": "right"
    },
    {
      "midi": 81,
      "time": 25.8,
      "duration": 0.3,
      "velocity": 0.63,
      "hand": "right"
    },
    {
      "midi": 45,
      "time": 26.1,
      "duration": 0.6,
      "velocity": 0.63,
      "hand": "left"
    },
    {
      "midi": 72,
      "time": 26.1,
      "duration": 0.3,
      "velocity": 0.63,
      "hand": "right"
    },
    {
      "midi": 81,
      "time": 26.1,
      "duration": 0.3,
      "velocity": 0.63,
      "hand": "right"
    },
    {
      "midi": 72,
      "time": 26.4,
      "duration": 0.3,
      "velocity": 0.63,
      "hand": "right"
    },
    {
      "midi": 81,
      "time": 26.4,
      "duration": 0.3,
      "velocity": 0.63,
      "hand": "right"
    },
    {
      "midi": 47,
      "time": 26.7,
      "duration": 0.6,
      "velocity": 0.63,
      "hand": "left"
    },
    {
      "midi": 74,
      "time": 26.7,
      "duration": 0.3,
      "velocity": 0.63,
      "hand": "right"
    },
    {
      "midi": 82,
      "time": 26.7,
      "duration": 0.3,
      "velocity": 0.63,
      "hand": "right"
    },
    {
      "midi": 72,
      "time": 27,
      "duration": 0.3,
      "velocity": 0.63,
      "hand": "right"
    },
    {
      "midi": 81,
      "time": 27,
      "duration": 0.3,
      "velocity": 0.63,
      "hand": "right"
    },
    {
      "midi": 43,
      "time": 27.3,
      "duration": 0.6,
      "velocity": 0.63,
      "hand": "left"
    },
    {
      "midi": 70,
      "time": 27.3,
      "duration": 0.3,
      "velocity": 0.63,
      "hand": "right"
    },
    {
      "midi": 79,
      "time": 27.3,
      "duration": 0.3,
      "velocity": 0.63,
      "hand": "right"
    },
    {
      "midi": 69,
      "time": 27.6,
      "duration": 0.3,
      "velocity": 0.63,
      "hand": "right"
    },
    {
      "midi": 78,
      "time": 27.6,
      "duration": 0.3,
      "velocity": 0.63,
      "hand": "right"
    },
    {
      "midi": 43,
      "time": 27.9,
      "duration": 1.2,
      "velocity": 0.63,
      "hand": "left"
    },
    {
      "midi": 70,
      "time": 27.9,
      "duration": 0.3,
      "velocity": 0.63,
      "hand": "right"
    },
    {
      "midi": 79,
      "time": 27.9,
      "duration": 0.6,
      "velocity": 0.63,
      "hand": "right"
    },
    {
      "midi": 67,
      "time": 28.2,
      "duration": 0.3,
      "velocity": 0.63,
      "hand": "right"
    },
    {
      "midi": 70,
      "time": 28.5,
      "duration": 0.6,
      "velocity": 0.63,
      "hand": "right"
    },
    {
      "midi": 74,
      "time": 28.8,
      "duration": 0.3,
      "velocity": 0.63,
      "hand": "right"
    },
    {
      "midi": 43,
      "time": 29.1,
      "duration": 0.6,
      "velocity": 0.63,
      "hand": "left"
    },
    {
      "midi": 62,
      "time": 29.1,
      "duration": 0.3,
      "velocity": 0.63,
      "hand": "right"
    },
    {
      "midi": 79,
      "time": 29.1,
      "duration": 0.6,
      "velocity": 0.63,
      "hand": "right"
    },
    {
      "midi": 55,
      "time": 29.4,
      "duration": 0.3,
      "velocity": 0.63,
      "hand": "left"
    },
    {
      "midi": 43,
      "time": 29.7,
      "duration": 0.6,
      "velocity": 0.63,
      "hand": "left"
    },
    {
      "midi": 62,
      "time": 29.7,
      "duration": 0.3,
      "velocity": 0.63,
      "hand": "right"
    },
    {
      "midi": 79,
      "time": 29.7,
      "duration": 0.3,
      "velocity": 0.63,
      "hand": "right"
    },
    {
      "midi": 66,
      "time": 30,
      "duration": 0.3,
      "velocity": 0.63,
      "hand": "right"
    },
    {
      "midi": 81,
      "time": 30,
      "duration": 0.3,
      "velocity": 0.63,
      "hand": "right"
    },
    {
      "midi": 47,
      "time": 30.3,
      "duration": 1.2,
      "velocity": 0.63,
      "hand": "left"
    },
    {
      "midi": 67,
      "time": 30.3,
      "duration": 0.3,
      "velocity": 0.63,
      "hand": "right"
    },
    {
      "midi": 83,
      "time": 30.3,
      "duration": 0.9,
      "velocity": 0.63,
      "hand": "right"
    },
    {
      "midi": 62,
      "time": 30.6,
      "duration": 0.15,
      "velocity": 0.63,
      "hand": "right"
    },
    {
      "midi": 64,
      "time": 30.75,
      "duration": 0.15,
      "velocity": 0.63,
      "hand": "right"
    },
    {
      "midi": 66,
      "time": 30.9,
      "duration": 0.3,
      "velocity": 0.63,
      "hand": "right"
    },
    {
      "midi": 67,
      "time": 31.2,
      "duration": 0.3,
      "velocity": 0.63,
      "hand": "right"
    },
    {
      "midi": 83,
      "time": 31.2,
      "duration": 0.3,
      "velocity": 0.63,
      "hand": "right"
    },
    {
      "midi": 48,
      "time": 31.5,
      "duration": 0.6,
      "velocity": 0.63,
      "hand": "left"
    },
    {
      "midi": 69,
      "time": 31.5,
      "duration": 0.3,
      "velocity": 0.63,
      "hand": "right"
    },
    {
      "midi": 84,
      "time": 31.5,
      "duration": 0.3,
      "velocity": 0.63,
      "hand": "right"
    },
    {
      "midi": 67,
      "time": 31.8,
      "duration": 0.3,
      "velocity": 0.63,
      "hand": "right"
    },
    {
      "midi": 83,
      "time": 31.8,
      "duration": 0.3,
      "velocity": 0.63,
      "hand": "right"
    },
    {
      "midi": 45,
      "time": 32.1,
      "duration": 0.6,
      "velocity": 0.63,
      "hand": "left"
    },
    {
      "midi": 66,
      "time": 32.1,
      "duration": 0.3,
      "velocity": 0.63,
      "hand": "right"
    },
    {
      "midi": 81,
      "time": 32.1,
      "duration": 0.3,
      "velocity": 0.63,
      "hand": "right"
    },
    {
      "midi": 64,
      "time": 32.4,
      "duration": 0.3,
      "velocity": 0.63,
      "hand": "right"
    },
    {
      "midi": 79,
      "time": 32.4,
      "duration": 0.3,
      "velocity": 0.63,
      "hand": "right"
    },
    {
      "midi": 45,
      "time": 32.7,
      "duration": 1.2,
      "velocity": 0.63,
      "hand": "left"
    },
    {
      "midi": 66,
      "time": 32.7,
      "duration": 0.3,
      "velocity": 0.63,
      "hand": "right"
    },
    {
      "midi": 81,
      "time": 32.7,
      "duration": 0.9,
      "velocity": 0.63,
      "hand": "right"
    },
    {
      "midi": 60,
      "time": 33,
      "duration": 0.15,
      "velocity": 0.63,
      "hand": "right"
    },
    {
      "midi": 62,
      "time": 33.15,
      "duration": 0.15,
      "velocity": 0.63,
      "hand": "right"
    },
    {
      "midi": 66,
      "time": 33.3,
      "duration": 0.3,
      "velocity": 0.63,
      "hand": "right"
    },
    {
      "midi": 66,
      "time": 33.6,
      "duration": 0.3,
      "velocity": 0.63,
      "hand": "right"
    },
    {
      "midi": 81,
      "time": 33.6,
      "duration": 0.3,
      "velocity": 0.63,
      "hand": "right"
    },
    {
      "midi": 48,
      "time": 33.9,
      "duration": 0.6,
      "velocity": 0.63,
      "hand": "left"
    },
    {
      "midi": 69,
      "time": 33.9,
      "duration": 0.3,
      "velocity": 0.63,
      "hand": "right"
    },
    {
      "midi": 84,
      "time": 33.9,
      "duration": 0.6,
      "velocity": 0.63,
      "hand": "right"
    },
    {
      "midi": 69,
      "time": 34.2,
      "duration": 0.3,
      "velocity": 0.63,
      "hand": "right"
    },
    {
      "midi": 50,
      "time": 34.5,
      "duration": 0.6,
      "velocity": 0.63,
      "hand": "left"
    },
    {
      "midi": 66,
      "time": 34.5,
      "duration": 0.3,
      "velocity": 0.63,
      "hand": "right"
    },
    {
      "midi": 86,
      "time": 34.5,
      "duration": 0.3,
      "velocity": 0.63,
      "hand": "right"
    },
    {
      "midi": 69,
      "time": 34.8,
      "duration": 0.3,
      "velocity": 0.63,
      "hand": "right"
    },
    {
      "midi": 84,
      "time": 34.8,
      "duration": 0.3,
      "velocity": 0.63,
      "hand": "right"
    },
    {
      "midi": 47,
      "time": 35.1,
      "duration": 0.6,
      "velocity": 0.63,
      "hand": "left"
    },
    {
      "midi": 67,
      "time": 35.1,
      "duration": 0.3,
      "velocity": 0.63,
      "hand": "right"
    },
    {
      "midi": 83,
      "time": 35.1,
      "duration": 0.6,
      "velocity": 0.63,
      "hand": "right"
    },
    {
      "midi": 62,
      "time": 35.4,
      "duration": 0.3,
      "velocity": 0.63,
      "hand": "right"
    },
    {
      "midi": 43,
      "time": 35.7,
      "duration": 0.6,
      "velocity": 0.63,
      "hand": "left"
    },
    {
      "midi": 71,
      "time": 35.7,
      "duration": 0.3,
      "velocity": 0.63,
      "hand": "right"
    },
    {
      "midi": 79,
      "time": 35.7,
      "duration": 0.3,
      "velocity": 0.63,
      "hand": "right"
    },
    {
      "midi": 74,
      "time": 36,
      "duration": 0.3,
      "velocity": 0.63,
      "hand": "right"
    },
    {
      "midi": 83,
      "time": 36,
      "duration": 0.3,
      "velocity": 0.63,
      "hand": "right"
    },
    {
      "midi": 45,
      "time": 36.3,
      "duration": 0.6,
      "velocity": 0.63,
      "hand": "left"
    },
    {
      "midi": 73,
      "time": 36.3,
      "duration": 0.3,
      "velocity": 0.63,
      "hand": "right"
    },
    {
      "midi": 81,
      "time": 36.3,
      "duration": 0.6,
      "velocity": 0.63,
      "hand": "right"
    },
    {
      "midi": 71,
      "time": 36.6,
      "duration": 0.3,
      "velocity": 0.63,
      "hand": "right"
    },
    {
      "midi": 43,
      "time": 36.9,
      "duration": 0.6,
      "velocity": 0.63,
      "hand": "left"
    },
    {
      "midi": 73,
      "time": 36.9,
      "duration": 0.3,
      "velocity": 0.63,
      "hand": "right"
    },
    {
      "midi": 79,
      "time": 36.9,
      "duration": 0.3,
      "velocity": 0.63,
      "hand": "right"
    },
    {
      "midi": 72,
      "time": 37.2,
      "duration": 0.3,
      "velocity": 0.63,
      "hand": "right"
    },
    {
      "midi": 78,
      "time": 37.2,
      "duration": 0.3,
      "velocity": 0.63,
      "hand": "right"
    },
    {
      "midi": 43,
      "time": 37.5,
      "duration": 0.9,
      "velocity": 0.63,
      "hand": "left"
    },
    {
      "midi": 71,
      "time": 37.5,
      "duration": 0.6,
      "velocity": 0.63,
      "hand": "right"
    },
    {
      "midi": 79,
      "time": 37.5,
      "duration": 0.9,
      "velocity": 0.63,
      "hand": "right"
    },
    {
      "midi": 67,
      "time": 38.1,
      "duration": 0.6,
      "velocity": 0.63,
      "hand": "right"
    }
  ]
}
