{
  "id": "vinde-fieis",
  "title": "Vinde Fieis",
  "artist": "John Francis Wade",
  "difficulty": "Difícil",
  "bpm": 100,
  "duration": 49,
  "category": "Religiosos",
  "isPremium": false,
  "coverUrl": "/images/covers/placeholder.png",
  "notes": [
    {
      "midi": 45,
      "time": 0,
      "duration": 0.585,
      "velocity": 0.53,
      "hand": "left"
    },
    {
      "midi": 57,
      "time": 0,
      "duration": 0.585,
      "velocity": 0.53,
      "hand": "left"
    },
    {
      "midi": 61,
      "time": 0,
      "duration": 0.585,
      "velocity": 0.54,
      "hand": "right"
    },
    {
      "midi": 69,
      "time": 0,
      "duration": 0.585,
      "velocity": 0.54,
      "hand": "right"
    },
    {
      "midi": 45,
      "time": 0.6,
      "duration": 1.185,
      "velocity": 0.6,
      "hand": "left"
    },
    {
      "midi": 57,
      "time": 0.6,
      "duration": 1.185,
      "velocity": 0.6,
      "hand": "left"
    },
    {
      "midi": 61,
      "time": 0.6,
      "duration": 1.185,
      "velocity": 0.57,
      "hand": "right"
    },
    {
      "midi": 69,
      "time": 0.6,
      "duration": 1.2,
      "velocity": 0.57,
      "hand": "right"
    },
    {
      "midi": 45,
      "time": 1.8,
      "duration": 0.6,
      "velocity": 0.64,
      "hand": "left"
    },
    {
      "midi": 57,
      "time": 1.8,
      "duration": 0.585,
      "velocity": 0.64,
      "hand": "left"
    },
    {
      "midi": 61,
      "time": 1.8,
      "duration": 0.6,
      "velocity": 0.5,
      "hand": "right"
    },
    {
      "midi": 64,
      "time": 1.8,
      "duration": 0.585,
      "velocity": 0.5,
      "hand": "right"
    },
    {
      "midi": 49,
      "time": 2.4,
      "duration": 0.6,
      "velocity": 0.63,
      "hand": "left"
    },
    {
      "midi": 57,
      "time": 2.4,
      "duration": 0.6,
      "velocity": 0.63,
      "hand": "left"
    },
    {
      "midi": 64,
      "time": 2.4,
      "duration": 0.585,
      "velocity": 0.69,
      "hand": "right"
    },
    {
      "midi": 69,
      "time": 2.4,
      "duration": 0.6,
      "velocity": 0.69,
      "hand": "right"
    },
    {
      "midi": 52,
      "time": 3,
      "duration": 1.185,
      "velocity": 0.57,
      "hand": "left"
    },
    {
      "midi": 56,
      "time": 3,
      "duration": 1.185,
      "velocity": 0.57,
      "hand": "left"
    },
    {
      "midi": 64,
      "time": 3,
      "duration": 1.185,
      "velocity": 0.64,
      "hand": "right"
    },
    {
      "midi": 71,
      "time": 3,
      "duration": 1.2,
      "velocity": 0.64,
      "hand": "right"
    },
    {
      "midi": 52,
      "time": 4.2,
      "duration": 1.2,
      "velocity": 0.58,
      "hand": "left"
    },
    {
      "midi": 56,
      "time": 4.2,
      "duration": 1.2,
      "velocity": 0.58,
      "hand": "left"
    },
    {
      "midi": 64,
      "time": 4.2,
      "duration": 1.185,
      "velocity": 0.51,
      "hand": "right"
    },
    {
      "midi": 57,
      "time": 5.4,
      "duration": 0.6,
      "velocity": 0.62,
      "hand": "left"
    },
    {
      "midi": 64,
      "time": 5.4,
      "duration": 0.585,
      "velocity": 0.71,
      "hand": "right"
    },
    {
      "midi": 73,
      "time": 5.4,
      "duration": 0.6,
      "velocity": 0.71,
      "hand": "right"
    },
    {
      "midi": 56,
      "time": 6,
      "duration": 0.6,
      "velocity": 0.62,
      "hand": "left"
    },
    {
      "midi": 59,
      "time": 6,
      "duration": 0.6,
      "velocity": 0.62,
      "hand": "left"
    },
    {
      "midi": 64,
      "time": 6,
      "duration": 0.585,
      "velocity": 0.57,
      "hand": "right"
    },
    {
      "midi": 71,
      "time": 6,
      "duration": 0.6,
      "velocity": 0.57,
      "hand": "right"
    },
    {
      "midi": 57,
      "time": 6.6,
      "duration": 0.585,
      "velocity": 0.57,
      "hand": "left"
    },
    {
      "midi": 64,
      "time": 6.6,
      "duration": 0.6,
      "velocity": 0.62,
      "hand": "right"
    },
    {
      "midi": 73,
      "time": 6.6,
      "duration": 0.6,
      "velocity": 0.62,
      "hand": "right"
    },
    {
      "midi": 50,
      "time": 7.2,
      "duration": 0.6,
      "velocity": 0.53,
      "hand": "left"
    },
    {
      "midi": 57,
      "time": 7.2,
      "duration": 0.585,
      "velocity": 0.53,
      "hand": "left"
    },
    {
      "midi": 66,
      "time": 7.2,
      "duration": 0.6,
      "velocity": 0.61,
      "hand": "right"
    },
    {
      "midi": 74,
      "time": 7.2,
      "duration": 0.6,
      "velocity": 0.61,
      "hand": "right"
    },
    {
      "midi": 52,
      "time": 7.8,
      "duration": 1.185,
      "velocity": 0.6,
      "hand": "left"
    },
    {
      "midi": 57,
      "time": 7.8,
      "duration": 1.2,
      "velocity": 0.6,
      "hand": "left"
    },
    {
      "midi": 64,
      "time": 7.8,
      "duration": 1.185,
      "velocity": 0.57,
      "hand": "right"
    },
    {
      "midi": 73,
      "time": 7.8,
      "duration": 1.2,
      "velocity": 0.57,
      "hand": "right"
    },
    {
      "midi": 52,
      "time": 9,
      "duration": 0.6,
      "velocity": 0.57,
      "hand": "left"
    },
    {
      "midi": 56,
      "time": 9,
      "duration": 0.6,
      "velocity": 0.57,
      "hand": "left"
    },
    {
      "midi": 64,
      "time": 9,
      "duration": 0.6,
      "velocity": 0.58,
      "hand": "right"
    },
    {
      "midi": 71,
      "time": 9,
      "duration": 0.6,
      "velocity": 0.58,
      "hand": "right"
    },
    {
      "midi": 54,
      "time": 9.6,
      "duration": 0.585,
      "velocity": 0.65,
      "hand": "left"
    },
    {
      "midi": 57,
      "time": 9.6,
      "duration": 0.585,
      "velocity": 0.65,
      "hand": "left"
    },
    {
      "midi": 61,
      "time": 9.6,
      "duration": 0.585,
      "velocity": 0.55,
      "hand": "right"
    },
    {
      "midi": 69,
      "time": 9.6,
      "duration": 0.585,
      "velocity": 0.55,
      "hand": "right"
    },
    {
      "midi": 54,
      "time": 10.2,
      "duration": 1.2,
      "velocity": 0.61,
      "hand": "left"
    },
    {
      "midi": 57,
      "time": 10.2,
      "duration": 1.2,
      "velocity": 0.61,
      "hand": "left"
    },
    {
      "midi": 61,
      "time": 10.2,
      "duration": 0.6,
      "velocity": 0.53,
      "hand": "right"
    },
    {
      "midi": 69,
      "time": 10.2,
      "duration": 1.2,
      "velocity": 0.59,
      "hand": "right"
    },
    {
      "midi": 63,
      "time": 10.8,
      "duration": 0.6,
      "velocity": 0.62,
      "hand": "right"
    },
    {
      "midi": 52,
      "time": 11.4,
      "duration": 0.6,
      "velocity": 0.63,
      "hand": "left"
    },
    {
      "midi": 59,
      "time": 11.4,
      "duration": 0.585,
      "velocity": 0.63,
      "hand": "left"
    },
    {
      "midi": 64,
      "time": 11.4,
      "duration": 0.6,
      "velocity": 0.56,
      "hand": "right"
    },
    {
      "midi": 68,
      "time": 11.4,
      "duration": 0.6,
      "velocity": 0.56,
      "hand": "right"
    },
    {
      "midi": 47,
      "time": 12,
      "duration": 0.6,
      "velocity": 0.59,
      "hand": "left"
    },
    {
      "midi": 59,
      "time": 12,
      "duration": 0.585,
      "velocity": 0.59,
      "hand": "left"
    },
    {
      "midi": 63,
      "time": 12,
      "duration": 0.6,
      "velocity": 0.54,
      "hand": "right"
    },
    {
      "midi": 66,
      "time": 12,
      "duration": 0.6,
      "velocity": 0.54,
      "hand": "right"
    },
    {
      "midi": 52,
      "time": 12.6,
      "duration": 0.6,
      "velocity": 0.59,
      "hand": "left"
    },
    {
      "midi": 59,
      "time": 12.6,
      "duration": 0.585,
      "velocity": 0.59,
      "hand": "left"
    },
    {
      "midi": 64,
      "time": 12.6,
      "duration": 0.585,
      "velocity": 0.62,
      "hand": "right"
    },
    {
      "midi": 68,
      "time": 12.6,
      "duration": 0.6,
      "velocity": 0.62,
      "hand": "right"
    },
    {
      "midi": 54,
      "time": 13.2,
      "duration": 0.6,
      "velocity": 0.57,
      "hand": "left"
    },
    {
      "midi": 59,
      "time": 13.2,
      "duration": 0.6,
      "velocity": 0.57,
      "hand": "left"
    },
    {
      "midi": 64,
      "time": 13.2,
      "duration": 0.585,
      "velocity": 0.59,
      "hand": "right"
    },
    {
      "midi": 69,
      "time": 13.2,
      "duration": 0.6,
      "velocity": 0.59,
      "hand": "right"
    },
    {
      "midi": 56,
      "time": 13.8,
      "duration": 0.6,
      "velocity": 0.69,
      "hand": "left"
    },
    {
      "midi": 64,
      "time": 13.8,
      "duration": 0.585,
      "velocity": 0.66,
      "hand": "right"
    },
    {
      "midi": 71,
      "time": 13.8,
      "duration": 0.6,
      "velocity": 0.66,
      "hand": "right"
    },
    {
      "midi": 57,
      "time": 14.4,
      "duration": 0.6,
      "velocity": 0.54,
      "hand": "left"
    },
    {
      "midi": 61,
      "time": 14.4,
      "duration": 0.6,
      "velocity": 0.54,
      "hand": "right"
    },
    {
      "midi": 64,
      "time": 14.4,
      "duration": 0.585,
      "velocity": 0.61,
      "hand": "right"
    },
    {
      "midi": 73,
      "time": 14.4,
      "duration": 0.6,
      "velocity": 0.61,
      "hand": "right"
    },
    {
      "midi": 59,
      "time": 15,
      "duration": 1.2,
      "velocity": 0.59,
      "hand": "left"
    },
    {
      "midi": 64,
      "time": 15,
      "duration": 1.2,
      "velocity": 0.48,
      "hand": "right"
    },
    {
      "midi": 68,
      "time": 15,
      "duration": 1.2,
      "velocity": 0.48,
      "hand": "right"
    },
    {
      "midi": 47,
      "time": 16.2,
      "duration": 0.9,
      "velocity": 0.57,
      "hand": "left"
    },
    {
      "midi": 57,
      "time": 16.2,
      "duration": 0.9,
      "velocity": 0.57,
      "hand": "left"
    },
    {
      "midi": 63,
      "time": 16.2,
      "duration": 0.9,
      "velocity": 0.55,
      "hand": "right"
    },
    {
      "midi": 66,
      "time": 16.2,
      "duration": 0.9,
      "velocity": 0.55,
      "hand": "right"
    },
    {
      "midi": 52,
      "time": 17.1,
      "duration": 0.285,
      "velocity": 0.61,
      "hand": "left"
    },
    {
      "midi": 56,
      "time": 17.1,
      "duration": 0.285,
      "velocity": 0.61,
      "hand": "left"
    },
    {
      "midi": 64,
      "time": 17.1,
      "duration": 0.285,
      "velocity": 0.54,
      "hand": "right"
    },
    {
      "midi": 52,
      "time": 17.4,
      "duration": 1.8,
      "velocity": 0.57,
      "hand": "left"
    },
    {
      "midi": 56,
      "time": 17.4,
      "duration": 1.8,
      "velocity": 0.57,
      "hand": "left"
    },
    {
      "midi": 64,
      "time": 17.4,
      "duration": 1.8,
      "velocity": 0.57,
      "hand": "right"
    },
    {
      "midi": 52,
      "time": 19.8,
      "duration": 1.185,
      "velocity": 0.5,
      "hand": "left"
    },
    {
      "midi": 61,
      "time": 19.8,
      "duration": 1.2,
      "velocity": 0.5,
      "hand": "right"
    },
    {
      "midi": 64,
      "time": 19.8,
      "duration": 1.185,
      "velocity": 0.52,
      "hand": "right"
    },
    {
      "midi": 76,
      "time": 19.8,
      "duration": 1.2,
      "velocity": 0.52,
      "hand": "right"
    },
    {
      "midi": 52,
      "time": 21,
      "duration": 0.585,
      "velocity": 0.53,
      "hand": "left"
    },
    {
      "midi": 59,
      "time": 21,
      "duration": 0.6,
      "velocity": 0.53,
      "hand": "left"
    },
    {
      "midi": 64,
      "time": 21,
      "duration": 0.585,
      "velocity": 0.51,
      "hand": "right"
    },
    {
      "midi": 74,
      "time": 21,
      "duration": 0.6,
      "velocity": 0.51,
      "hand": "right"
    },
    {
      "midi": 52,
      "time": 21.6,
      "duration": 0.585,
      "velocity": 0.53,
      "hand": "left"
    },
    {
      "midi": 57,
      "time": 21.6,
      "duration": 0.6,
      "velocity": 0.53,
      "hand": "left"
    },
    {
      "midi": 64,
      "time": 21.6,
      "duration": 0.585,
      "velocity": 0.55,
      "hand": "right"
    },
    {
      "midi": 73,
      "time": 21.6,
      "duration": 0.6,
      "velocity": 0.55,
      "hand": "right"
    },
    {
      "midi": 52,
      "time": 22.2,
      "duration": 1.185,
      "velocity": 0.63,
      "hand": "left"
    },
    {
      "midi": 59,
      "time": 22.2,
      "duration": 1.2,
      "velocity": 0.63,
      "hand": "left"
    },
    {
      "midi": 64,
      "time": 22.2,
      "duration": 1.185,
      "velocity": 0.63,
      "hand": "right"
    },
    {
      "midi": 74,
      "time": 22.2,
      "duration": 1.2,
      "velocity": 0.63,
      "hand": "right"
    },
    {
      "midi": 52,
      "time": 23.4,
      "duration": 1.185,
      "velocity": 0.57,
      "hand": "left"
    },
    {
      "midi": 57,
      "time": 23.4,
      "duration": 1.2,
      "velocity": 0.57,
      "hand": "left"
    },
    {
      "midi": 64,
      "time": 23.4,
      "duration": 1.185,
      "velocity": 0.58,
      "hand": "right"
    },
    {
      "midi": 73,
      "time": 23.4,
      "duration": 1.2,
      "velocity": 0.58,
      "hand": "right"
    },
    {
      "midi": 52,
      "time": 24.6,
      "duration": 0.585,
      "velocity": 0.57,
      "hand": "left"
    },
    {
      "midi": 56,
      "time": 24.6,
      "duration": 0.6,
      "velocity": 0.57,
      "hand": "left"
    },
    {
      "midi": 64,
      "time": 24.6,
      "duration": 0.585,
      "velocity": 0.56,
      "hand": "right"
    },
    {
      "midi": 71,
      "time": 24.6,
      "duration": 0.6,
      "velocity": 0.56,
      "hand": "right"
    },
    {
      "midi": 52,
      "time": 25.2,
      "duration": 0.6,
      "velocity": 0.6,
      "hand": "left"
    },
    {
      "midi": 57,
      "time": 25.2,
      "duration": 0.6,
      "velocity": 0.6,
      "hand": "left"
    },
    {
      "midi": 64,
      "time": 25.2,
      "duration": 0.585,
      "velocity": 0.61,
      "hand": "right"
    },
    {
      "midi": 73,
      "time": 25.2,
      "duration": 0.6,
      "velocity": 0.61,
      "hand": "right"
    },
    {
      "midi": 49,
      "time": 25.8,
      "duration": 0.6,
      "velocity": 0.65,
      "hand": "left"
    },
    {
      "midi": 61,
      "time": 25.8,
      "duration": 0.6,
      "velocity": 0.65,
      "hand": "right"
    },
    {
      "midi": 64,
      "time": 25.8,
      "duration": 0.6,
      "velocity": 0.54,
      "hand": "right"
    },
    {
      "midi": 69,
      "time": 25.8,
      "duration": 0.6,
      "velocity": 0.54,
      "hand": "right"
    },
    {
      "midi": 50,
      "time": 26.4,
      "duration": 0.6,
      "velocity": 0.59,
      "hand": "left"
    },
    {
      "midi": 59,
      "time": 26.4,
      "duration": 0.585,
      "velocity": 0.59,
      "hand": "left"
    },
    {
      "midi": 66,
      "time": 26.4,
      "duration": 0.6,
      "velocity": 0.65,
      "hand": "right"
    },
    {
      "midi": 71,
      "time": 26.4,
      "duration": 0.6,
      "velocity": 0.65,
      "hand": "right"
    },
    {
      "midi": 52,
      "time": 27,
      "duration": 1.185,
      "velocity": 0.54,
      "hand": "left"
    },
    {
      "midi": 59,
      "time": 27,
      "duration": 0.9,
      "velocity": 0.6,
      "hand": "left"
    },
    {
      "midi": 64,
      "time": 27,
      "duration": 1.185,
      "velocity": 0.54,
      "hand": "right"
    },
    {
      "midi": 68,
      "time": 27,
      "duration": 0.9,
      "velocity": 0.54,
      "hand": "right"
    },
    {
      "midi": 57,
      "time": 27.9,
      "duration": 0.3,
      "velocity": 0.58,
      "hand": "left"
    },
    {
      "midi": 66,
      "time": 27.9,
      "duration": 0.3,
      "velocity": 0.58,
      "hand": "right"
    },
    {
      "midi": 52,
      "time": 28.2,
      "duration": 0.6,
      "velocity": 0.57,
      "hand": "left"
    },
    {
      "midi": 56,
      "time": 28.2,
      "duration": 0.6,
      "velocity": 0.57,
      "hand": "left"
    },
    {
      "midi": 64,
      "time": 28.2,
      "duration": 0.585,
      "velocity": 0.58,
      "hand": "right"
    },
    {
      "midi": 61,
      "time": 28.8,
      "duration": 0.585,
      "velocity": 0.68,
      "hand": "right"
    },
    {
      "midi": 64,
      "time": 28.8,
      "duration": 0.585,
      "velocity": 0.66,
      "hand": "right"
    },
    {
      "midi": 69,
      "time": 28.8,
      "duration": 0.585,
      "velocity": 0.66,
      "hand": "right"
    },
    {
      "midi": 61,
      "time": 29.4,
      "duration": 0.6,
      "velocity": 0.62,
      "hand": "right"
    },
    {
      "midi": 64,
      "time": 29.4,
      "duration": 0.585,
      "velocity": 0.59,
      "hand": "right"
    },
    {
      "midi": 69,
      "time": 29.4,
      "duration": 0.6,
      "velocity": 0.59,
      "hand": "right"
    },
    {
      "midi": 59,
      "time": 30,
      "duration": 0.6,
      "velocity": 0.55,
      "hand": "left"
    },
    {
      "midi": 64,
      "time": 30,
      "duration": 0.585,
      "velocity": 0.55,
      "hand": "right"
    },
    {
      "midi": 68,
      "time": 30,
      "duration": 0.6,
      "velocity": 0.55,
      "hand": "right"
    },
    {
      "midi": 61,
      "time": 30.6,
      "duration": 0.6,
      "velocity": 0.59,
      "hand": "right"
    },
    {
      "midi": 64,
      "time": 30.6,
      "duration": 0.585,
      "velocity": 0.58,
      "hand": "right"
    },
    {
      "midi": 69,
      "time": 30.6,
      "duration": 0.6,
      "velocity": 0.58,
      "hand": "right"
    },
    {
      "midi": 62,
      "time": 31.2,
      "duration": 0.6,
      "velocity": 0.63,
      "hand": "right"
    },
    {
      "midi": 64,
      "time": 31.2,
      "duration": 0.585,
      "velocity": 0.63,
      "hand": "right"
    },
    {
      "midi": 71,
      "time": 31.2,
      "duration": 0.6,
      "velocity": 0.63,
      "hand": "right"
    },
    {
      "midi": 61,
      "time": 31.8,
      "duration": 1.2,
      "velocity": 0.61,
      "hand": "right"
    },
    {
      "midi": 64,
      "time": 31.8,
      "duration": 1.185,
      "velocity": 0.55,
      "hand": "right"
    },
    {
      "midi": 69,
      "time": 31.8,
      "duration": 1.2,
      "velocity": 0.55,
      "hand": "right"
    },
    {
      "midi": 57,
      "time": 33,
      "duration": 0.585,
      "velocity": 0.6,
      "hand": "left"
    },
    {
      "midi": 64,
      "time": 33,
      "duration": 0.6,
      "velocity": 0.54,
      "hand": "right"
    },
    {
      "midi": 57,
      "time": 33.6,
      "duration": 0.585,
      "velocity": 0.53,
      "hand": "left"
    },
    {
      "midi": 69,
      "time": 33.6,
      "duration": 0.585,
      "velocity": 0.74,
      "hand": "right"
    },
    {
      "midi": 73,
      "time": 33.6,
      "duration": 0.585,
      "velocity": 0.74,
      "hand": "right"
    },
    {
      "midi": 57,
      "time": 34.2,
      "duration": 0.585,
      "velocity": 0.59,
      "hand": "left"
    },
    {
      "midi": 69,
      "time": 34.2,
      "duration": 0.6,
      "velocity": 0.61,
      "hand": "right"
    },
    {
      "midi": 73,
      "time": 34.2,
      "duration": 0.6,
      "velocity": 0.61,
      "hand": "right"
    },
    {
      "midi": 57,
      "time": 34.8,
      "duration": 0.585,
      "velocity": 0.61,
      "hand": "left"
    },
    {
      "midi": 68,
      "time": 34.8,
      "duration": 0.6,
      "velocity": 0.54,
      "hand": "right"
    },
    {
      "midi": 71,
      "time": 34.8,
      "duration": 0.6,
      "velocity": 0.54,
      "hand": "right"
    },
    {
      "midi": 57,
      "time": 35.4,
      "duration": 0.6,
      "velocity": 0.59,
      "hand": "left"
    },
    {
      "midi": 69,
      "time": 35.4,
      "duration": 0.6,
      "velocity": 0.63,
      "hand": "right"
    },
    {
      "midi": 73,
      "time": 35.4,
      "duration": 0.6,
      "velocity": 0.63,
      "hand": "right"
    },
    {
      "midi": 50,
      "time": 36,
      "duration": 0.6,
      "velocity": 0.54,
      "hand": "left"
    },
    {
      "midi": 71,
      "time": 36,
      "duration": 0.6,
      "velocity": 0.66,
      "hand": "right"
    },
    {
      "midi": 74,
      "time": 36,
      "duration": 0.6,
      "velocity": 0.66,
      "hand": "right"
    },
    {
      "midi": 52,
      "time": 36.6,
      "duration": 1.185,
      "velocity": 0.57,
      "hand": "left"
    },
    {
      "midi": 69,
      "time": 36.6,
      "duration": 1.2,
      "velocity": 0.57,
      "hand": "right"
    },
    {
      "midi": 73,
      "time": 36.6,
      "duration": 1.2,
      "velocity": 0.57,
      "hand": "right"
    },
    {
      "midi": 52,
      "time": 37.8,
      "duration": 0.6,
      "velocity": 0.59,
      "hand": "left"
    },
    {
      "midi": 64,
      "time": 37.8,
      "duration": 0.585,
      "velocity": 0.58,
      "hand": "right"
    },
    {
      "midi": 71,
      "time": 37.8,
      "duration": 0.6,
      "velocity": 0.58,
      "hand": "right"
    },
    {
      "midi": 57,
      "time": 38.4,
      "duration": 0.6,
      "velocity": 0.55,
      "hand": "left"
    },
    {
      "midi": 64,
      "time": 38.4,
      "duration": 0.585,
      "velocity": 0.55,
      "hand": "right"
    },
    {
      "midi": 69,
      "time": 38.4,
      "duration": 0.6,
      "velocity": 0.61,
      "hand": "right"
    },
    {
      "midi": 73,
      "time": 38.4,
      "duration": 0.6,
      "velocity": 0.61,
      "hand": "right"
    },
    {
      "midi": 59,
      "time": 39,
      "duration": 0.6,
      "velocity": 0.58,
      "hand": "left"
    },
    {
      "midi": 64,
      "time": 39,
      "duration": 0.585,
      "velocity": 0.58,
      "hand": "right"
    },
    {
      "midi": 68,
      "time": 39,
      "duration": 0.6,
      "velocity": 0.62,
      "hand": "right"
    },
    {
      "midi": 74,
      "time": 39,
      "duration": 0.6,
      "velocity": 0.62,
      "hand": "right"
    },
    {
      "midi": 57,
      "time": 39.6,
      "duration": 0.6,
      "velocity": 0.6,
      "hand": "left"
    },
    {
      "midi": 64,
      "time": 39.6,
      "duration": 0.585,
      "velocity": 0.6,
      "hand": "right"
    },
    {
      "midi": 69,
      "time": 39.6,
      "duration": 0.6,
      "velocity": 0.63,
      "hand": "right"
    },
    {
      "midi": 73,
      "time": 39.6,
      "duration": 0.6,
      "velocity": 0.63,
      "hand": "right"
    },
    {
      "midi": 56,
      "time": 40.2,
      "duration": 0.6,
      "velocity": 0.61,
      "hand": "left"
    },
    {
      "midi": 64,
      "time": 40.2,
      "duration": 0.6,
      "velocity": 0.54,
      "hand": "right"
    },
    {
      "midi": 71,
      "time": 40.2,
      "duration": 0.6,
      "velocity": 0.54,
      "hand": "right"
    },
    {
      "midi": 54,
      "time": 40.8,
      "duration": 0.6,
      "velocity": 0.55,
      "hand": "left"
    },
    {
      "midi": 59,
      "time": 40.8,
      "duration": 0.585,
      "velocity": 0.55,
      "hand": "left"
    },
    {
      "midi": 63,
      "time": 40.8,
      "duration": 0.6,
      "velocity": 0.55,
      "hand": "right"
    },
    {
      "midi": 69,
      "time": 40.8,
      "duration": 0.6,
      "velocity": 0.55,
      "hand": "right"
    },
    {
      "midi": 52,
      "time": 41.4,
      "duration": 0.6,
      "velocity": 0.55,
      "hand": "left"
    },
    {
      "midi": 59,
      "time": 41.4,
      "duration": 1.2,
      "velocity": 0.6,
      "hand": "left"
    },
    {
      "midi": 64,
      "time": 41.4,
      "duration": 1.185,
      "velocity": 0.59,
      "hand": "right"
    },
    {
      "midi": 68,
      "time": 41.4,
      "duration": 1.2,
      "velocity": 0.59,
      "hand": "right"
    },
    {
      "midi": 50,
      "time": 42,
      "duration": 0.6,
      "velocity": 0.54,
      "hand": "left"
    },
    {
      "midi": 49,
      "time": 42.6,
      "duration": 0.6,
      "velocity": 0.57,
      "hand": "left"
    },
    {
      "midi": 57,
      "time": 42.6,
      "duration": 1.185,
      "velocity": 0.59,
      "hand": "left"
    },
    {
      "midi": 64,
      "time": 42.6,
      "duration": 0.6,
      "velocity": 0.62,
      "hand": "right"
    },
    {
      "midi": 69,
      "time": 42.6,
      "duration": 0.6,
      "velocity": 0.62,
      "hand": "right"
    },
    {
      "midi": 50,
      "time": 43.2,
      "duration": 0.6,
      "velocity": 0.61,
      "hand": "left"
    },
    {
      "midi": 66,
      "time": 43.2,
      "duration": 0.6,
      "velocity": 0.66,
      "hand": "right"
    },
    {
      "midi": 74,
      "time": 43.2,
      "duration": 0.6,
      "velocity": 0.66,
      "hand": "right"
    },
    {
      "midi": 52,
      "time": 43.8,
      "duration": 2.1,
      "velocity": 0.6,
      "hand": "left"
    },
    {
      "midi": 57,
      "time": 43.8,
      "duration": 1.2,
      "velocity": 0.58,
      "hand": "left"
    },
    {
      "midi": 64,
      "time": 43.8,
      "duration": 1.2,
      "velocity": 0.59,
      "hand": "right"
    },
    {
      "midi": 73,
      "time": 43.8,
      "duration": 1.2,
      "velocity": 0.59,
      "hand": "right"
    },
    {
      "midi": 56,
      "time": 45,
      "duration": 0.9,
      "velocity": 0.6,
      "hand": "left"
    },
    {
      "midi": 62,
      "time": 45,
      "duration": 0.9,
      "velocity": 0.56,
      "hand": "right"
    },
    {
      "midi": 71,
      "time": 45,
      "duration": 0.9,
      "velocity": 0.56,
      "hand": "right"
    },
    {
      "midi": 45,
      "time": 45.9,
      "duration": 0.285,
      "velocity": 0.61,
      "hand": "left"
    },
    {
      "midi": 57,
      "time": 45.9,
      "duration": 0.285,
      "velocity": 0.61,
      "hand": "left"
    },
    {
      "midi": 61,
      "time": 45.9,
      "duration": 0.285,
      "velocity": 0.55,
      "hand": "right"
    },
    {
      "midi": 69,
      "time": 45.9,
      "duration": 0.285,
      "velocity": 0.55,
      "hand": "right"
    },
    {
      "midi": 45,
      "time": 46.2,
      "duration": 1.8,
      "velocity": 0.61,
      "hand": "left"
    },
    {
      "midi": 57,
      "time": 46.2,
      "duration": 1.8,
      "velocity": 0.61,
      "hand": "left"
    },
    {
      "midi": 61,
      "time": 46.2,
      "duration": 1.8,
      "velocity": 0.57,
      "hand": "right"
    },
    {
      "midi": 69,
      "time": 46.2,
      "duration": 1.8,
      "velocity": 0.57,
      "hand": "right"
    }
  ],
  "arrangements": {
    "easy": [
      {
        "midi": 69,
        "time": 0,
        "duration": 0.585,
        "velocity": 0.54,
        "hand": "right"
      },
      {
        "midi": 69,
        "time": 0.6,
        "duration": 1.2,
        "velocity": 0.57,
        "hand": "right"
      },
      {
        "midi": 64,
        "time": 1.8,
        "duration": 0.585,
        "velocity": 0.5,
        "hand": "right"
      },
      {
        "midi": 69,
        "time": 2.4,
        "duration": 0.6,
        "velocity": 0.69,
        "hand": "right"
      },
      {
        "midi": 71,
        "time": 3,
        "duration": 1.2,
        "velocity": 0.64,
        "hand": "right"
      },
      {
        "midi": 64,
        "time": 4.2,
        "duration": 1.185,
        "velocity": 0.51,
        "hand": "right"
      },
      {
        "midi": 73,
        "time": 5.4,
        "duration": 0.6,
        "velocity": 0.71,
        "hand": "right"
      },
      {
        "midi": 71,
        "time": 6,
        "duration": 0.6,
        "velocity": 0.57,
        "hand": "right"
      },
      {
        "midi": 73,
        "time": 6.6,
        "duration": 0.6,
        "velocity": 0.62,
        "hand": "right"
      },
      {
        "midi": 74,
        "time": 7.2,
        "duration": 0.6,
        "velocity": 0.61,
        "hand": "right"
      },
      {
        "midi": 73,
        "time": 7.8,
        "duration": 1.2,
        "velocity": 0.57,
        "hand": "right"
      },
      {
        "midi": 71,
        "time": 9,
        "duration": 0.6,
        "velocity": 0.58,
        "hand": "right"
      },
      {
        "midi": 69,
        "time": 9.6,
        "duration": 0.585,
        "velocity": 0.55,
        "hand": "right"
      },
      {
        "midi": 69,
        "time": 10.2,
        "duration": 1.2,
        "velocity": 0.59,
        "hand": "right"
      },
      {
        "midi": 63,
        "time": 10.8,
        "duration": 0.6,
        "velocity": 0.62,
        "hand": "right"
      },
      {
        "midi": 68,
        "time": 11.4,
        "duration": 0.6,
        "velocity": 0.56,
        "hand": "right"
      },
      {
        "midi": 66,
        "time": 12,
        "duration": 0.6,
        "velocity": 0.54,
        "hand": "right"
      },
      {
        "midi": 68,
        "time": 12.6,
        "duration": 0.6,
        "velocity": 0.62,
        "hand": "right"
      },
      {
        "midi": 69,
        "time": 13.2,
        "duration": 0.6,
        "velocity": 0.59,
        "hand": "right"
      },
      {
        "midi": 71,
        "time": 13.8,
        "duration": 0.6,
        "velocity": 0.66,
        "hand": "right"
      },
      {
        "midi": 73,
        "time": 14.4,
        "duration": 0.6,
        "velocity": 0.61,
        "hand": "right"
      },
      {
        "midi": 68,
        "time": 15,
        "duration": 1.2,
        "velocity": 0.48,
        "hand": "right"
      },
      {
        "midi": 66,
        "time": 16.2,
        "duration": 0.9,
        "velocity": 0.55,
        "hand": "right"
      },
      {
        "midi": 64,
        "time": 17.1,
        "duration": 0.36,
        "velocity": 0.54,
        "hand": "right"
      },
      {
        "midi": 76,
        "time": 19.8,
        "duration": 1.2,
        "velocity": 0.52,
        "hand": "right"
      },
      {
        "midi": 74,
        "time": 21,
        "duration": 0.6,
        "velocity": 0.51,
        "hand": "right"
      },
      {
        "midi": 73,
        "time": 21.6,
        "duration": 0.6,
        "velocity": 0.55,
        "hand": "right"
      },
      {
        "midi": 74,
        "time": 22.2,
        "duration": 1.2,
        "velocity": 0.63,
        "hand": "right"
      },
      {
        "midi": 73,
        "time": 23.4,
        "duration": 1.2,
        "velocity": 0.58,
        "hand": "right"
      },
      {
        "midi": 71,
        "time": 24.6,
        "duration": 0.6,
        "velocity": 0.56,
        "hand": "right"
      },
      {
        "midi": 73,
        "time": 25.2,
        "duration": 0.6,
        "velocity": 0.61,
        "hand": "right"
      },
      {
        "midi": 69,
        "time": 25.8,
        "duration": 0.6,
        "velocity": 0.54,
        "hand": "right"
      },
      {
        "midi": 71,
        "time": 26.4,
        "duration": 0.6,
        "velocity": 0.65,
        "hand": "right"
      },
      {
        "midi": 68,
        "time": 27,
        "duration": 0.9,
        "velocity": 0.54,
        "hand": "right"
      },
      {
        "midi": 66,
        "time": 27.9,
        "duration": 0.36,
        "velocity": 0.58,
        "hand": "right"
      },
      {
        "midi": 69,
        "time": 28.8,
        "duration": 0.585,
        "velocity": 0.66,
        "hand": "right"
      },
      {
        "midi": 69,
        "time": 29.4,
        "duration": 0.6,
        "velocity": 0.59,
        "hand": "right"
      },
      {
        "midi": 68,
        "time": 30,
        "duration": 0.6,
        "velocity": 0.55,
        "hand": "right"
      },
      {
        "midi": 69,
        "time": 30.6,
        "duration": 0.6,
        "velocity": 0.58,
        "hand": "right"
      },
      {
        "midi": 71,
        "time": 31.2,
        "duration": 0.6,
        "velocity": 0.63,
        "hand": "right"
      },
      {
        "midi": 69,
        "time": 31.8,
        "duration": 1.2,
        "velocity": 0.55,
        "hand": "right"
      },
      {
        "midi": 64,
        "time": 33,
        "duration": 0.6,
        "velocity": 0.54,
        "hand": "right"
      },
      {
        "midi": 73,
        "time": 33.6,
        "duration": 0.585,
        "velocity": 0.74,
        "hand": "right"
      },
      {
        "midi": 73,
        "time": 34.2,
        "duration": 0.6,
        "velocity": 0.61,
        "hand": "right"
      },
      {
        "midi": 71,
        "time": 34.8,
        "duration": 0.6,
        "velocity": 0.54,
        "hand": "right"
      },
      {
        "midi": 73,
        "time": 35.4,
        "duration": 0.6,
        "velocity": 0.63,
        "hand": "right"
      },
      {
        "midi": 74,
        "time": 36,
        "duration": 0.6,
        "velocity": 0.66,
        "hand": "right"
      },
      {
        "midi": 73,
        "time": 36.6,
        "duration": 1.2,
        "velocity": 0.57,
        "hand": "right"
      },
      {
        "midi": 71,
        "time": 37.8,
        "duration": 0.6,
        "velocity": 0.58,
        "hand": "right"
      },
      {
        "midi": 73,
        "time": 38.4,
        "duration": 0.6,
        "velocity": 0.61,
        "hand": "right"
      },
      {
        "midi": 74,
        "time": 39,
        "duration": 0.6,
        "velocity": 0.62,
        "hand": "right"
      },
      {
        "midi": 73,
        "time": 39.6,
        "duration": 0.6,
        "velocity": 0.63,
        "hand": "right"
      },
      {
        "midi": 71,
        "time": 40.2,
        "duration": 0.6,
        "velocity": 0.54,
        "hand": "right"
      },
      {
        "midi": 69,
        "time": 40.8,
        "duration": 0.6,
        "velocity": 0.55,
        "hand": "right"
      },
      {
        "midi": 68,
        "time": 41.4,
        "duration": 1.2,
        "velocity": 0.59,
        "hand": "right"
      },
      {
        "midi": 62,
        "time": 42,
        "duration": 0.6,
        "velocity": 0.54,
        "hand": "right"
      },
      {
        "midi": 69,
        "time": 42.6,
        "duration": 0.6,
        "velocity": 0.62,
        "hand": "right"
      },
      {
        "midi": 74,
        "time": 43.2,
        "duration": 0.6,
        "velocity": 0.66,
        "hand": "right"
      },
      {
        "midi": 73,
        "time": 43.8,
        "duration": 1.2,
        "velocity": 0.59,
        "hand": "right"
      },
      {
        "midi": 71,
        "time": 45,
        "duration": 0.9,
        "velocity": 0.56,
        "hand": "right"
      },
      {
        "midi": 69,
        "time": 45.9,
        "duration": 0.36,
        "velocity": 0.55,
        "hand": "right"
      }
    ],
    "medium": [
      {
        "midi": 57,
        "time": 0,
        "duration": 0.585,
        "velocity": 0.53,
        "hand": "left"
      },
      {
        "midi": 69,
        "time": 0,
        "duration": 0.585,
        "velocity": 0.54,
        "hand": "right"
      },
      {
        "midi": 57,
        "time": 1.8,
        "duration": 0.6,
        "velocity": 0.64,
        "hand": "left"
      },
      {
        "midi": 64,
        "time": 1.8,
        "duration": 0.585,
        "velocity": 0.5,
        "hand": "right"
      },
      {
        "midi": 71,
        "time": 3,
        "duration": 1.2,
        "velocity": 0.64,
        "hand": "right"
      },
      {
        "midi": 52,
        "time": 4.2,
        "duration": 1.2,
        "velocity": 0.58,
        "hand": "left"
      },
      {
        "midi": 64,
        "time": 4.2,
        "duration": 1.185,
        "velocity": 0.51,
        "hand": "right"
      },
      {
        "midi": 57,
        "time": 5.4,
        "duration": 0.6,
        "velocity": 0.62,
        "hand": "left"
      },
      {
        "midi": 73,
        "time": 5.4,
        "duration": 0.6,
        "velocity": 0.71,
        "hand": "right"
      },
      {
        "midi": 57,
        "time": 6.6,
        "duration": 0.585,
        "velocity": 0.57,
        "hand": "left"
      },
      {
        "midi": 73,
        "time": 6.6,
        "duration": 0.6,
        "velocity": 0.62,
        "hand": "right"
      },
      {
        "midi": 73,
        "time": 7.8,
        "duration": 1.2,
        "velocity": 0.57,
        "hand": "right"
      },
      {
        "midi": 71,
        "time": 9,
        "duration": 0.6,
        "velocity": 0.58,
        "hand": "right"
      },
      {
        "midi": 54,
        "time": 10.2,
        "duration": 1.2,
        "velocity": 0.61,
        "hand": "left"
      },
      {
        "midi": 69,
        "time": 10.2,
        "duration": 1.2,
        "velocity": 0.59,
        "hand": "right"
      },
      {
        "midi": 52,
        "time": 11.4,
        "duration": 0.6,
        "velocity": 0.63,
        "hand": "left"
      },
      {
        "midi": 68,
        "time": 11.4,
        "duration": 0.6,
        "velocity": 0.56,
        "hand": "right"
      },
      {
        "midi": 52,
        "time": 12.6,
        "duration": 0.6,
        "velocity": 0.59,
        "hand": "left"
      },
      {
        "midi": 68,
        "time": 12.6,
        "duration": 0.6,
        "velocity": 0.62,
        "hand": "right"
      },
      {
        "midi": 56,
        "time": 13.8,
        "duration": 0.6,
        "velocity": 0.69,
        "hand": "left"
      },
      {
        "midi": 71,
        "time": 13.8,
        "duration": 0.6,
        "velocity": 0.66,
        "hand": "right"
      },
      {
        "midi": 59,
        "time": 15,
        "duration": 1.185,
        "velocity": 0.59,
        "hand": "left"
      },
      {
        "midi": 68,
        "time": 15,
        "duration": 1.2,
        "velocity": 0.48,
        "hand": "right"
      },
      {
        "midi": 59,
        "time": 16.2,
        "duration": 0.9,
        "velocity": 0.57,
        "hand": "left"
      },
      {
        "midi": 66,
        "time": 16.2,
        "duration": 0.9,
        "velocity": 0.55,
        "hand": "right"
      },
      {
        "midi": 52,
        "time": 17.1,
        "duration": 0.285,
        "velocity": 0.61,
        "hand": "left"
      },
      {
        "midi": 64,
        "time": 17.1,
        "duration": 0.285,
        "velocity": 0.54,
        "hand": "right"
      },
      {
        "midi": 76,
        "time": 19.8,
        "duration": 1.2,
        "velocity": 0.52,
        "hand": "right"
      },
      {
        "midi": 74,
        "time": 21,
        "duration": 0.6,
        "velocity": 0.51,
        "hand": "right"
      },
      {
        "midi": 74,
        "time": 22.2,
        "duration": 1.2,
        "velocity": 0.63,
        "hand": "right"
      },
      {
        "midi": 73,
        "time": 23.4,
        "duration": 1.2,
        "velocity": 0.58,
        "hand": "right"
      },
      {
        "midi": 71,
        "time": 24.6,
        "duration": 0.6,
        "velocity": 0.56,
        "hand": "right"
      },
      {
        "midi": 69,
        "time": 25.8,
        "duration": 0.6,
        "velocity": 0.54,
        "hand": "right"
      },
      {
        "midi": 52,
        "time": 27,
        "duration": 1.185,
        "velocity": 0.54,
        "hand": "left"
      },
      {
        "midi": 68,
        "time": 27,
        "duration": 0.9,
        "velocity": 0.54,
        "hand": "right"
      },
      {
        "midi": 57,
        "time": 27.9,
        "duration": 0.3,
        "velocity": 0.58,
        "hand": "left"
      },
      {
        "midi": 66,
        "time": 27.9,
        "duration": 0.3,
        "velocity": 0.58,
        "hand": "right"
      },
      {
        "midi": 61,
        "time": 28.8,
        "duration": 0.585,
        "velocity": 0.68,
        "hand": "right"
      },
      {
        "midi": 69,
        "time": 28.8,
        "duration": 0.585,
        "velocity": 0.66,
        "hand": "right"
      },
      {
        "midi": 59,
        "time": 30,
        "duration": 0.6,
        "velocity": 0.55,
        "hand": "left"
      },
      {
        "midi": 68,
        "time": 30,
        "duration": 0.6,
        "velocity": 0.55,
        "hand": "right"
      },
      {
        "midi": 62,
        "time": 31.2,
        "duration": 0.6,
        "velocity": 0.63,
        "hand": "right"
      },
      {
        "midi": 71,
        "time": 31.2,
        "duration": 0.6,
        "velocity": 0.63,
        "hand": "right"
      },
      {
        "midi": 57,
        "time": 33,
        "duration": 0.585,
        "velocity": 0.6,
        "hand": "left"
      },
      {
        "midi": 64,
        "time": 33,
        "duration": 0.6,
        "velocity": 0.54,
        "hand": "right"
      },
      {
        "midi": 57,
        "time": 34.2,
        "duration": 0.585,
        "velocity": 0.59,
        "hand": "left"
      },
      {
        "midi": 73,
        "time": 34.2,
        "duration": 0.6,
        "velocity": 0.61,
        "hand": "right"
      },
      {
        "midi": 57,
        "time": 35.4,
        "duration": 0.6,
        "velocity": 0.59,
        "hand": "left"
      },
      {
        "midi": 73,
        "time": 35.4,
        "duration": 0.6,
        "velocity": 0.63,
        "hand": "right"
      },
      {
        "midi": 73,
        "time": 36.6,
        "duration": 1.2,
        "velocity": 0.57,
        "hand": "right"
      },
      {
        "midi": 71,
        "time": 37.8,
        "duration": 0.6,
        "velocity": 0.58,
        "hand": "right"
      },
      {
        "midi": 59,
        "time": 39,
        "duration": 0.6,
        "velocity": 0.58,
        "hand": "left"
      },
      {
        "midi": 74,
        "time": 39,
        "duration": 0.6,
        "velocity": 0.62,
        "hand": "right"
      },
      {
        "midi": 56,
        "time": 40.2,
        "duration": 0.6,
        "velocity": 0.61,
        "hand": "left"
      },
      {
        "midi": 71,
        "time": 40.2,
        "duration": 0.6,
        "velocity": 0.54,
        "hand": "right"
      },
      {
        "midi": 52,
        "time": 41.4,
        "duration": 0.6,
        "velocity": 0.55,
        "hand": "left"
      },
      {
        "midi": 68,
        "time": 41.4,
        "duration": 1.2,
        "velocity": 0.59,
        "hand": "right"
      },
      {
        "midi": 69,
        "time": 42.6,
        "duration": 0.6,
        "velocity": 0.62,
        "hand": "right"
      },
      {
        "midi": 73,
        "time": 43.8,
        "duration": 1.2,
        "velocity": 0.59,
        "hand": "right"
      },
      {
        "midi": 56,
        "time": 45,
        "duration": 0.9,
        "velocity": 0.6,
        "hand": "left"
      },
      {
        "midi": 71,
        "time": 45,
        "duration": 0.9,
        "velocity": 0.56,
        "hand": "right"
      },
      {
        "midi": 57,
        "time": 45.9,
        "duration": 0.285,
        "velocity": 0.61,
        "hand": "left"
      },
      {
        "midi": 69,
        "time": 45.9,
        "duration": 0.285,
        "velocity": 0.55,
        "hand": "right"
      }
    ],
    "hard": [
      {
        "midi": 45,
        "time": 0,
        "duration": 0.585,
        "velocity": 0.53,
        "hand": "left"
      },
      {
        "midi": 57,
        "time": 0,
        "duration": 0.585,
        "velocity": 0.53,
        "hand": "left"
      },
      {
        "midi": 61,
        "time": 0,
        "duration": 0.585,
        "velocity": 0.54,
        "hand": "right"
      },
      {
        "midi": 69,
        "time": 0,
        "duration": 0.585,
        "velocity": 0.54,
        "hand": "right"
      },
      {
        "midi": 45,
        "time": 0.6,
        "duration": 1.185,
        "velocity": 0.6,
        "hand": "left"
      },
      {
        "midi": 57,
        "time": 0.6,
        "duration": 1.185,
        "velocity": 0.6,
        "hand": "left"
      },
      {
        "midi": 61,
        "time": 0.6,
        "duration": 1.185,
        "velocity": 0.57,
        "hand": "right"
      },
      {
        "midi": 69,
        "time": 0.6,
        "duration": 1.2,
        "velocity": 0.57,
        "hand": "right"
      },
      {
        "midi": 45,
        "time": 1.8,
        "duration": 0.6,
        "velocity": 0.64,
        "hand": "left"
      },
      {
        "midi": 57,
        "time": 1.8,
        "duration": 0.585,
        "velocity": 0.64,
        "hand": "left"
      },
      {
        "midi": 61,
        "time": 1.8,
        "duration": 0.6,
        "velocity": 0.5,
        "hand": "right"
      },
      {
        "midi": 64,
        "time": 1.8,
        "duration": 0.585,
        "velocity": 0.5,
        "hand": "right"
      },
      {
        "midi": 49,
        "time": 2.4,
        "duration": 0.6,
        "velocity": 0.63,
        "hand": "left"
      },
      {
        "midi": 57,
        "time": 2.4,
        "duration": 0.6,
        "velocity": 0.63,
        "hand": "left"
      },
      {
        "midi": 64,
        "time": 2.4,
        "duration": 0.585,
        "velocity": 0.69,
        "hand": "right"
      },
      {
        "midi": 69,
        "time": 2.4,
        "duration": 0.6,
        "velocity": 0.69,
        "hand": "right"
      },
      {
        "midi": 52,
        "time": 3,
        "duration": 1.185,
        "velocity": 0.57,
        "hand": "left"
      },
      {
        "midi": 56,
        "time": 3,
        "duration": 1.185,
        "velocity": 0.57,
        "hand": "left"
      },
      {
        "midi": 64,
        "time": 3,
        "duration": 1.185,
        "velocity": 0.64,
        "hand": "right"
      },
      {
        "midi": 71,
        "time": 3,
        "duration": 1.2,
        "velocity": 0.64,
        "hand": "right"
      },
      {
        "midi": 52,
        "time": 4.2,
        "duration": 1.2,
        "velocity": 0.58,
        "hand": "left"
      },
      {
        "midi": 56,
        "time": 4.2,
        "duration": 1.2,
        "velocity": 0.58,
        "hand": "left"
      },
      {
        "midi": 64,
        "time": 4.2,
        "duration": 1.185,
        "velocity": 0.51,
        "hand": "right"
      },
      {
        "midi": 57,
        "time": 5.4,
        "duration": 0.6,
        "velocity": 0.62,
        "hand": "left"
      },
      {
        "midi": 64,
        "time": 5.4,
        "duration": 0.585,
        "velocity": 0.71,
        "hand": "right"
      },
      {
        "midi": 73,
        "time": 5.4,
        "duration": 0.6,
        "velocity": 0.71,
        "hand": "right"
      },
      {
        "midi": 56,
        "time": 6,
        "duration": 0.6,
        "velocity": 0.62,
        "hand": "left"
      },
      {
        "midi": 59,
        "time": 6,
        "duration": 0.6,
        "velocity": 0.62,
        "hand": "left"
      },
      {
        "midi": 64,
        "time": 6,
        "duration": 0.585,
        "velocity": 0.57,
        "hand": "right"
      },
      {
        "midi": 71,
        "time": 6,
        "duration": 0.6,
        "velocity": 0.57,
        "hand": "right"
      },
      {
        "midi": 57,
        "time": 6.6,
        "duration": 0.585,
        "velocity": 0.57,
        "hand": "left"
      },
      {
        "midi": 64,
        "time": 6.6,
        "duration": 0.6,
        "velocity": 0.62,
        "hand": "right"
      },
      {
        "midi": 73,
        "time": 6.6,
        "duration": 0.6,
        "velocity": 0.62,
        "hand": "right"
      },
      {
        "midi": 50,
        "time": 7.2,
        "duration": 0.6,
        "velocity": 0.53,
        "hand": "left"
      },
      {
        "midi": 57,
        "time": 7.2,
        "duration": 0.585,
        "velocity": 0.53,
        "hand": "left"
      },
      {
        "midi": 66,
        "time": 7.2,
        "duration": 0.6,
        "velocity": 0.61,
        "hand": "right"
      },
      {
        "midi": 74,
        "time": 7.2,
        "duration": 0.6,
        "velocity": 0.61,
        "hand": "right"
      },
      {
        "midi": 52,
        "time": 7.8,
        "duration": 1.185,
        "velocity": 0.6,
        "hand": "left"
      },
      {
        "midi": 57,
        "time": 7.8,
        "duration": 1.2,
        "velocity": 0.6,
        "hand": "left"
      },
      {
        "midi": 64,
        "time": 7.8,
        "duration": 1.185,
        "velocity": 0.57,
        "hand": "right"
      },
      {
        "midi": 73,
        "time": 7.8,
        "duration": 1.2,
        "velocity": 0.57,
        "hand": "right"
      },
      {
        "midi": 52,
        "time": 9,
        "duration": 0.6,
        "velocity": 0.57,
        "hand": "left"
      },
      {
        "midi": 56,
        "time": 9,
        "duration": 0.6,
        "velocity": 0.57,
        "hand": "left"
      },
      {
        "midi": 64,
        "time": 9,
        "duration": 0.6,
        "velocity": 0.58,
        "hand": "right"
      },
      {
        "midi": 71,
        "time": 9,
        "duration": 0.6,
        "velocity": 0.58,
        "hand": "right"
      },
      {
        "midi": 54,
        "time": 9.6,
        "duration": 0.585,
        "velocity": 0.65,
        "hand": "left"
      },
      {
        "midi": 57,
        "time": 9.6,
        "duration": 0.585,
        "velocity": 0.65,
        "hand": "left"
      },
      {
        "midi": 61,
        "time": 9.6,
        "duration": 0.585,
        "velocity": 0.55,
        "hand": "right"
      },
      {
        "midi": 69,
        "time": 9.6,
        "duration": 0.585,
        "velocity": 0.55,
        "hand": "right"
      },
      {
        "midi": 54,
        "time": 10.2,
        "duration": 1.2,
        "velocity": 0.61,
        "hand": "left"
      },
      {
        "midi": 57,
        "time": 10.2,
        "duration": 1.2,
        "velocity": 0.61,
        "hand": "left"
      },
      {
        "midi": 61,
        "time": 10.2,
        "duration": 0.6,
        "velocity": 0.53,
        "hand": "right"
      },
      {
        "midi": 69,
        "time": 10.2,
        "duration": 1.2,
        "velocity": 0.59,
        "hand": "right"
      },
      {
        "midi": 63,
        "time": 10.8,
        "duration": 0.6,
        "velocity": 0.62,
        "hand": "right"
      },
      {
        "midi": 52,
        "time": 11.4,
        "duration": 0.6,
        "velocity": 0.63,
        "hand": "left"
      },
      {
        "midi": 59,
        "time": 11.4,
        "duration": 0.585,
        "velocity": 0.63,
        "hand": "left"
      },
      {
        "midi": 64,
        "time": 11.4,
        "duration": 0.6,
        "velocity": 0.56,
        "hand": "right"
      },
      {
        "midi": 68,
        "time": 11.4,
        "duration": 0.6,
        "velocity": 0.56,
        "hand": "right"
      },
      {
        "midi": 47,
        "time": 12,
        "duration": 0.6,
        "velocity": 0.59,
        "hand": "left"
      },
      {
        "midi": 59,
        "time": 12,
        "duration": 0.585,
        "velocity": 0.59,
        "hand": "left"
      },
      {
        "midi": 63,
        "time": 12,
        "duration": 0.6,
        "velocity": 0.54,
        "hand": "right"
      },
      {
        "midi": 66,
        "time": 12,
        "duration": 0.6,
        "velocity": 0.54,
        "hand": "right"
      },
      {
        "midi": 52,
        "time": 12.6,
        "duration": 0.6,
        "velocity": 0.59,
        "hand": "left"
      },
      {
        "midi": 59,
        "time": 12.6,
        "duration": 0.585,
        "velocity": 0.59,
        "hand": "left"
      },
      {
        "midi": 64,
        "time": 12.6,
        "duration": 0.585,
        "velocity": 0.62,
        "hand": "right"
      },
      {
        "midi": 68,
        "time": 12.6,
        "duration": 0.6,
        "velocity": 0.62,
        "hand": "right"
      },
      {
        "midi": 54,
        "time": 13.2,
        "duration": 0.6,
        "velocity": 0.57,
        "hand": "left"
      },
      {
        "midi": 59,
        "time": 13.2,
        "duration": 0.6,
        "velocity": 0.57,
        "hand": "left"
      },
      {
        "midi": 64,
        "time": 13.2,
        "duration": 0.585,
        "velocity": 0.59,
        "hand": "right"
      },
      {
        "midi": 69,
        "time": 13.2,
        "duration": 0.6,
        "velocity": 0.59,
        "hand": "right"
      },
      {
        "midi": 56,
        "time": 13.8,
        "duration": 0.6,
        "velocity": 0.69,
        "hand": "left"
      },
      {
        "midi": 64,
        "time": 13.8,
        "duration": 0.585,
        "velocity": 0.66,
        "hand": "right"
      },
      {
        "midi": 71,
        "time": 13.8,
        "duration": 0.6,
        "velocity": 0.66,
        "hand": "right"
      },
      {
        "midi": 57,
        "time": 14.4,
        "duration": 0.6,
        "velocity": 0.54,
        "hand": "left"
      },
      {
        "midi": 61,
        "time": 14.4,
        "duration": 0.6,
        "velocity": 0.54,
        "hand": "right"
      },
      {
        "midi": 64,
        "time": 14.4,
        "duration": 0.585,
        "velocity": 0.61,
        "hand": "right"
      },
      {
        "midi": 73,
        "time": 14.4,
        "duration": 0.6,
        "velocity": 0.61,
        "hand": "right"
      },
      {
        "midi": 59,
        "time": 15,
        "duration": 1.2,
        "velocity": 0.59,
        "hand": "left"
      },
      {
        "midi": 64,
        "time": 15,
        "duration": 1.2,
        "velocity": 0.48,
        "hand": "right"
      },
      {
        "midi": 68,
        "time": 15,
        "duration": 1.2,
        "velocity": 0.48,
        "hand": "right"
      },
      {
        "midi": 47,
        "time": 16.2,
        "duration": 0.9,
        "velocity": 0.57,
        "hand": "left"
      },
      {
        "midi": 57,
        "time": 16.2,
        "duration": 0.9,
        "velocity": 0.57,
        "hand": "left"
      },
      {
        "midi": 63,
        "time": 16.2,
        "duration": 0.9,
        "velocity": 0.55,
        "hand": "right"
      },
      {
        "midi": 66,
        "time": 16.2,
        "duration": 0.9,
        "velocity": 0.55,
        "hand": "right"
      },
      {
        "midi": 52,
        "time": 17.1,
        "duration": 0.285,
        "velocity": 0.61,
        "hand": "left"
      },
      {
        "midi": 56,
        "time": 17.1,
        "duration": 0.285,
        "velocity": 0.61,
        "hand": "left"
      },
      {
        "midi": 64,
        "time": 17.1,
        "duration": 0.285,
        "velocity": 0.54,
        "hand": "right"
      },
      {
        "midi": 52,
        "time": 17.4,
        "duration": 1.8,
        "velocity": 0.57,
        "hand": "left"
      },
      {
        "midi": 56,
        "time": 17.4,
        "duration": 1.8,
        "velocity": 0.57,
        "hand": "left"
      },
      {
        "midi": 64,
        "time": 17.4,
        "duration": 1.8,
        "velocity": 0.57,
        "hand": "right"
      },
      {
        "midi": 52,
        "time": 19.8,
        "duration": 1.185,
        "velocity": 0.5,
        "hand": "left"
      },
      {
        "midi": 61,
        "time": 19.8,
        "duration": 1.2,
        "velocity": 0.5,
        "hand": "right"
      },
      {
        "midi": 64,
        "time": 19.8,
        "duration": 1.185,
        "velocity": 0.52,
        "hand": "right"
      },
      {
        "midi": 76,
        "time": 19.8,
        "duration": 1.2,
        "velocity": 0.52,
        "hand": "right"
      },
      {
        "midi": 52,
        "time": 21,
        "duration": 0.585,
        "velocity": 0.53,
        "hand": "left"
      },
      {
        "midi": 59,
        "time": 21,
        "duration": 0.6,
        "velocity": 0.53,
        "hand": "left"
      },
      {
        "midi": 64,
        "time": 21,
        "duration": 0.585,
        "velocity": 0.51,
        "hand": "right"
      },
      {
        "midi": 74,
        "time": 21,
        "duration": 0.6,
        "velocity": 0.51,
        "hand": "right"
      },
      {
        "midi": 52,
        "time": 21.6,
        "duration": 0.585,
        "velocity": 0.53,
        "hand": "left"
      },
      {
        "midi": 57,
        "time": 21.6,
        "duration": 0.6,
        "velocity": 0.53,
        "hand": "left"
      },
      {
        "midi": 64,
        "time": 21.6,
        "duration": 0.585,
        "velocity": 0.55,
        "hand": "right"
      },
      {
        "midi": 73,
        "time": 21.6,
        "duration": 0.6,
        "velocity": 0.55,
        "hand": "right"
      },
      {
        "midi": 52,
        "time": 22.2,
        "duration": 1.185,
        "velocity": 0.63,
        "hand": "left"
      },
      {
        "midi": 59,
        "time": 22.2,
        "duration": 1.2,
        "velocity": 0.63,
        "hand": "left"
      },
      {
        "midi": 64,
        "time": 22.2,
        "duration": 1.185,
        "velocity": 0.63,
        "hand": "right"
      },
      {
        "midi": 74,
        "time": 22.2,
        "duration": 1.2,
        "velocity": 0.63,
        "hand": "right"
      },
      {
        "midi": 52,
        "time": 23.4,
        "duration": 1.185,
        "velocity": 0.57,
        "hand": "left"
      },
      {
        "midi": 57,
        "time": 23.4,
        "duration": 1.2,
        "velocity": 0.57,
        "hand": "left"
      },
      {
        "midi": 64,
        "time": 23.4,
        "duration": 1.185,
        "velocity": 0.58,
        "hand": "right"
      },
      {
        "midi": 73,
        "time": 23.4,
        "duration": 1.2,
        "velocity": 0.58,
        "hand": "right"
      },
      {
        "midi": 52,
        "time": 24.6,
        "duration": 0.585,
        "velocity": 0.57,
        "hand": "left"
      },
      {
        "midi": 56,
        "time": 24.6,
        "duration": 0.6,
        "velocity": 0.57,
        "hand": "left"
      },
      {
        "midi": 64,
        "time": 24.6,
        "duration": 0.585,
        "velocity": 0.56,
        "hand": "right"
      },
      {
        "midi": 71,
        "time": 24.6,
        "duration": 0.6,
        "velocity": 0.56,
        "hand": "right"
      },
      {
        "midi": 52,
        "time": 25.2,
        "duration": 0.6,
        "velocity": 0.6,
        "hand": "left"
      },
      {
        "midi": 57,
        "time": 25.2,
        "duration": 0.6,
        "velocity": 0.6,
        "hand": "left"
      },
      {
        "midi": 64,
        "time": 25.2,
        "duration": 0.585,
        "velocity": 0.61,
        "hand": "right"
      },
      {
        "midi": 73,
        "time": 25.2,
        "duration": 0.6,
        "velocity": 0.61,
        "hand": "right"
      },
      {
        "midi": 49,
        "time": 25.8,
        "duration": 0.6,
        "velocity": 0.65,
        "hand": "left"
      },
      {
        "midi": 61,
        "time": 25.8,
        "duration": 0.6,
        "velocity": 0.65,
        "hand": "right"
      },
      {
        "midi": 64,
        "time": 25.8,
        "duration": 0.6,
        "velocity": 0.54,
        "hand": "right"
      },
      {
        "midi": 69,
        "time": 25.8,
        "duration": 0.6,
        "velocity": 0.54,
        "hand": "right"
      },
      {
        "midi": 50,
        "time": 26.4,
        "duration": 0.6,
        "velocity": 0.59,
        "hand": "left"
      },
      {
        "midi": 59,
        "time": 26.4,
        "duration": 0.585,
        "velocity": 0.59,
        "hand": "left"
      },
      {
        "midi": 66,
        "time": 26.4,
        "duration": 0.6,
        "velocity": 0.65,
        "hand": "right"
      },
      {
        "midi": 71,
        "time": 26.4,
        "duration": 0.6,
        "velocity": 0.65,
        "hand": "right"
      },
      {
        "midi": 52,
        "time": 27,
        "duration": 1.185,
        "velocity": 0.54,
        "hand": "left"
      },
      {
        "midi": 59,
        "time": 27,
        "duration": 0.9,
        "velocity": 0.6,
        "hand": "left"
      },
      {
        "midi": 64,
        "time": 27,
        "duration": 1.185,
        "velocity": 0.54,
        "hand": "right"
      },
      {
        "midi": 68,
        "time": 27,
        "duration": 0.9,
        "velocity": 0.54,
        "hand": "right"
      },
      {
        "midi": 57,
        "time": 27.9,
        "duration": 0.3,
        "velocity": 0.58,
        "hand": "left"
      },
      {
        "midi": 66,
        "time": 27.9,
        "duration": 0.3,
        "velocity": 0.58,
        "hand": "right"
      },
      {
        "midi": 52,
        "time": 28.2,
        "duration": 0.6,
        "velocity": 0.57,
        "hand": "left"
      },
      {
        "midi": 56,
        "time": 28.2,
        "duration": 0.6,
        "velocity": 0.57,
        "hand": "left"
      },
      {
        "midi": 64,
        "time": 28.2,
        "duration": 0.585,
        "velocity": 0.58,
        "hand": "right"
      },
      {
        "midi": 61,
        "time": 28.8,
        "duration": 0.585,
        "velocity": 0.68,
        "hand": "right"
      },
      {
        "midi": 64,
        "time": 28.8,
        "duration": 0.585,
        "velocity": 0.66,
        "hand": "right"
      },
      {
        "midi": 69,
        "time": 28.8,
        "duration": 0.585,
        "velocity": 0.66,
        "hand": "right"
      },
      {
        "midi": 61,
        "time": 29.4,
        "duration": 0.6,
        "velocity": 0.62,
        "hand": "right"
      },
      {
        "midi": 64,
        "time": 29.4,
        "duration": 0.585,
        "velocity": 0.59,
        "hand": "right"
      },
      {
        "midi": 69,
        "time": 29.4,
        "duration": 0.6,
        "velocity": 0.59,
        "hand": "right"
      },
      {
        "midi": 59,
        "time": 30,
        "duration": 0.6,
        "velocity": 0.55,
        "hand": "left"
      },
      {
        "midi": 64,
        "time": 30,
        "duration": 0.585,
        "velocity": 0.55,
        "hand": "right"
      },
      {
        "midi": 68,
        "time": 30,
        "duration": 0.6,
        "velocity": 0.55,
        "hand": "right"
      },
      {
        "midi": 61,
        "time": 30.6,
        "duration": 0.6,
        "velocity": 0.59,
        "hand": "right"
      },
      {
        "midi": 64,
        "time": 30.6,
        "duration": 0.585,
        "velocity": 0.58,
        "hand": "right"
      },
      {
        "midi": 69,
        "time": 30.6,
        "duration": 0.6,
        "velocity": 0.58,
        "hand": "right"
      },
      {
        "midi": 62,
        "time": 31.2,
        "duration": 0.6,
        "velocity": 0.63,
        "hand": "right"
      },
      {
        "midi": 64,
        "time": 31.2,
        "duration": 0.585,
        "velocity": 0.63,
        "hand": "right"
      },
      {
        "midi": 71,
        "time": 31.2,
        "duration": 0.6,
        "velocity": 0.63,
        "hand": "right"
      },
      {
        "midi": 61,
        "time": 31.8,
        "duration": 1.2,
        "velocity": 0.61,
        "hand": "right"
      },
      {
        "midi": 64,
        "time": 31.8,
        "duration": 1.185,
        "velocity": 0.55,
        "hand": "right"
      },
      {
        "midi": 69,
        "time": 31.8,
        "duration": 1.2,
        "velocity": 0.55,
        "hand": "right"
      },
      {
        "midi": 57,
        "time": 33,
        "duration": 0.585,
        "velocity": 0.6,
        "hand": "left"
      },
      {
        "midi": 64,
        "time": 33,
        "duration": 0.6,
        "velocity": 0.54,
        "hand": "right"
      },
      {
        "midi": 57,
        "time": 33.6,
        "duration": 0.585,
        "velocity": 0.53,
        "hand": "left"
      },
      {
        "midi": 69,
        "time": 33.6,
        "duration": 0.585,
        "velocity": 0.74,
        "hand": "right"
      },
      {
        "midi": 73,
        "time": 33.6,
        "duration": 0.585,
        "velocity": 0.74,
        "hand": "right"
      },
      {
        "midi": 57,
        "time": 34.2,
        "duration": 0.585,
        "velocity": 0.59,
        "hand": "left"
      },
      {
        "midi": 69,
        "time": 34.2,
        "duration": 0.6,
        "velocity": 0.61,
        "hand": "right"
      },
      {
        "midi": 73,
        "time": 34.2,
        "duration": 0.6,
        "velocity": 0.61,
        "hand": "right"
      },
      {
        "midi": 57,
        "time": 34.8,
        "duration": 0.585,
        "velocity": 0.61,
        "hand": "left"
      },
      {
        "midi": 68,
        "time": 34.8,
        "duration": 0.6,
        "velocity": 0.54,
        "hand": "right"
      },
      {
        "midi": 71,
        "time": 34.8,
        "duration": 0.6,
        "velocity": 0.54,
        "hand": "right"
      },
      {
        "midi": 57,
        "time": 35.4,
        "duration": 0.6,
        "velocity": 0.59,
        "hand": "left"
      },
      {
        "midi": 69,
        "time": 35.4,
        "duration": 0.6,
        "velocity": 0.63,
        "hand": "right"
      },
      {
        "midi": 73,
        "time": 35.4,
        "duration": 0.6,
        "velocity": 0.63,
        "hand": "right"
      },
      {
        "midi": 50,
        "time": 36,
        "duration": 0.6,
        "velocity": 0.54,
        "hand": "left"
      },
      {
        "midi": 71,
        "time": 36,
        "duration": 0.6,
        "velocity": 0.66,
        "hand": "right"
      },
      {
        "midi": 74,
        "time": 36,
        "duration": 0.6,
        "velocity": 0.66,
        "hand": "right"
      },
      {
        "midi": 52,
        "time": 36.6,
        "duration": 1.185,
        "velocity": 0.57,
        "hand": "left"
      },
      {
        "midi": 69,
        "time": 36.6,
        "duration": 1.2,
        "velocity": 0.57,
        "hand": "right"
      },
      {
        "midi": 73,
        "time": 36.6,
        "duration": 1.2,
        "velocity": 0.57,
        "hand": "right"
      },
      {
        "midi": 52,
        "time": 37.8,
        "duration": 0.6,
        "velocity": 0.59,
        "hand": "left"
      },
      {
        "midi": 64,
        "time": 37.8,
        "duration": 0.585,
        "velocity": 0.58,
        "hand": "right"
      },
      {
        "midi": 71,
        "time": 37.8,
        "duration": 0.6,
        "velocity": 0.58,
        "hand": "right"
      },
      {
        "midi": 57,
        "time": 38.4,
        "duration": 0.6,
        "velocity": 0.55,
        "hand": "left"
      },
      {
        "midi": 64,
        "time": 38.4,
        "duration": 0.585,
        "velocity": 0.55,
        "hand": "right"
      },
      {
        "midi": 69,
        "time": 38.4,
        "duration": 0.6,
        "velocity": 0.61,
        "hand": "right"
      },
      {
        "midi": 73,
        "time": 38.4,
        "duration": 0.6,
        "velocity": 0.61,
        "hand": "right"
      },
      {
        "midi": 59,
        "time": 39,
        "duration": 0.6,
        "velocity": 0.58,
        "hand": "left"
      },
      {
        "midi": 64,
        "time": 39,
        "duration": 0.585,
        "velocity": 0.58,
        "hand": "right"
      },
      {
        "midi": 68,
        "time": 39,
        "duration": 0.6,
        "velocity": 0.62,
        "hand": "right"
      },
      {
        "midi": 74,
        "time": 39,
        "duration": 0.6,
        "velocity": 0.62,
        "hand": "right"
      },
      {
        "midi": 57,
        "time": 39.6,
        "duration": 0.6,
        "velocity": 0.6,
        "hand": "left"
      },
      {
        "midi": 64,
        "time": 39.6,
        "duration": 0.585,
        "velocity": 0.6,
        "hand": "right"
      },
      {
        "midi": 69,
        "time": 39.6,
        "duration": 0.6,
        "velocity": 0.63,
        "hand": "right"
      },
      {
        "midi": 73,
        "time": 39.6,
        "duration": 0.6,
        "velocity": 0.63,
        "hand": "right"
      },
      {
        "midi": 56,
        "time": 40.2,
        "duration": 0.6,
        "velocity": 0.61,
        "hand": "left"
      },
      {
        "midi": 64,
        "time": 40.2,
        "duration": 0.6,
        "velocity": 0.54,
        "hand": "right"
      },
      {
        "midi": 71,
        "time": 40.2,
        "duration": 0.6,
        "velocity": 0.54,
        "hand": "right"
      },
      {
        "midi": 54,
        "time": 40.8,
        "duration": 0.6,
        "velocity": 0.55,
        "hand": "left"
      },
      {
        "midi": 59,
        "time": 40.8,
        "duration": 0.585,
        "velocity": 0.55,
        "hand": "left"
      },
      {
        "midi": 63,
        "time": 40.8,
        "duration": 0.6,
        "velocity": 0.55,
        "hand": "right"
      },
      {
        "midi": 69,
        "time": 40.8,
        "duration": 0.6,
        "velocity": 0.55,
        "hand": "right"
      },
      {
        "midi": 52,
        "time": 41.4,
        "duration": 0.6,
        "velocity": 0.55,
        "hand": "left"
      },
      {
        "midi": 59,
        "time": 41.4,
        "duration": 1.2,
        "velocity": 0.6,
        "hand": "left"
      },
      {
        "midi": 64,
        "time": 41.4,
        "duration": 1.185,
        "velocity": 0.59,
        "hand": "right"
      },
      {
        "midi": 68,
        "time": 41.4,
        "duration": 1.2,
        "velocity": 0.59,
        "hand": "right"
      },
      {
        "midi": 50,
        "time": 42,
        "duration": 0.6,
        "velocity": 0.54,
        "hand": "left"
      },
      {
        "midi": 49,
        "time": 42.6,
        "duration": 0.6,
        "velocity": 0.57,
        "hand": "left"
      },
      {
        "midi": 57,
        "time": 42.6,
        "duration": 1.185,
        "velocity": 0.59,
        "hand": "left"
      },
      {
        "midi": 64,
        "time": 42.6,
        "duration": 0.6,
        "velocity": 0.62,
        "hand": "right"
      },
      {
        "midi": 69,
        "time": 42.6,
        "duration": 0.6,
        "velocity": 0.62,
        "hand": "right"
      },
      {
        "midi": 50,
        "time": 43.2,
        "duration": 0.6,
        "velocity": 0.61,
        "hand": "left"
      },
      {
        "midi": 66,
        "time": 43.2,
        "duration": 0.6,
        "velocity": 0.66,
        "hand": "right"
      },
      {
        "midi": 74,
        "time": 43.2,
        "duration": 0.6,
        "velocity": 0.66,
        "hand": "right"
      },
      {
        "midi": 52,
        "time": 43.8,
        "duration": 2.1,
        "velocity": 0.6,
        "hand": "left"
      },
      {
        "midi": 57,
        "time": 43.8,
        "duration": 1.2,
        "velocity": 0.58,
        "hand": "left"
      },
      {
        "midi": 64,
        "time": 43.8,
        "duration": 1.2,
        "velocity": 0.59,
        "hand": "right"
      },
      {
        "midi": 73,
        "time": 43.8,
        "duration": 1.2,
        "velocity": 0.59,
        "hand": "right"
      },
      {
        "midi": 56,
        "time": 45,
        "duration": 0.9,
        "velocity": 0.6,
        "hand": "left"
      },
      {
        "midi": 62,
        "time": 45,
        "duration": 0.9,
        "velocity": 0.56,
        "hand": "right"
      },
      {
        "midi": 71,
        "time": 45,
        "duration": 0.9,
        "velocity": 0.56,
        "hand": "right"
      },
      {
        "midi": 45,
        "time": 45.9,
        "duration": 0.285,
        "velocity": 0.61,
        "hand": "left"
      },
      {
        "midi": 57,
        "time": 45.9,
        "duration": 0.285,
        "velocity": 0.61,
        "hand": "left"
      },
      {
        "midi": 61,
        "time": 45.9,
        "duration": 0.285,
        "velocity": 0.55,
        "hand": "right"
      },
      {
        "midi": 69,
        "time": 45.9,
        "duration": 0.285,
        "velocity": 0.55,
        "hand": "right"
      },
      {
        "midi": 45,
        "time": 46.2,
        "duration": 1.8,
        "velocity": 0.61,
        "hand": "left"
      },
      {
        "midi": 57,
        "time": 46.2,
        "duration": 1.8,
        "velocity": 0.61,
        "hand": "left"
      },
      {
        "midi": 61,
        "time": 46.2,
        "duration": 1.8,
        "velocity": 0.57,
        "hand": "right"
      },
      {
        "midi": 69,
        "time": 46.2,
        "duration": 1.8,
        "velocity": 0.57,
        "hand": "right"
      }
    ]
  },
  "notes1Hand": [
    {
      "midi": 69,
      "time": 0,
      "duration": 0.585,
      "velocity": 0.54,
      "hand": "right"
    },
    {
      "midi": 69,
      "time": 0.6,
      "duration": 1.2,
      "velocity": 0.57,
      "hand": "right"
    },
    {
      "midi": 64,
      "time": 1.8,
      "duration": 0.585,
      "velocity": 0.5,
      "hand": "right"
    },
    {
      "midi": 69,
      "time": 2.4,
      "duration": 0.6,
      "velocity": 0.69,
      "hand": "right"
    },
    {
      "midi": 71,
      "time": 3,
      "duration": 1.2,
      "velocity": 0.64,
      "hand": "right"
    },
    {
      "midi": 64,
      "time": 4.2,
      "duration": 1.185,
      "velocity": 0.51,
      "hand": "right"
    },
    {
      "midi": 73,
      "time": 5.4,
      "duration": 0.6,
      "velocity": 0.71,
      "hand": "right"
    },
    {
      "midi": 71,
      "time": 6,
      "duration": 0.6,
      "velocity": 0.57,
      "hand": "right"
    },
    {
      "midi": 73,
      "time": 6.6,
      "duration": 0.6,
      "velocity": 0.62,
      "hand": "right"
    },
    {
      "midi": 74,
      "time": 7.2,
      "duration": 0.6,
      "velocity": 0.61,
      "hand": "right"
    },
    {
      "midi": 73,
      "time": 7.8,
      "duration": 1.2,
      "velocity": 0.57,
      "hand": "right"
    },
    {
      "midi": 71,
      "time": 9,
      "duration": 0.6,
      "velocity": 0.58,
      "hand": "right"
    },
    {
      "midi": 69,
      "time": 9.6,
      "duration": 0.585,
      "velocity": 0.55,
      "hand": "right"
    },
    {
      "midi": 69,
      "time": 10.2,
      "duration": 1.2,
      "velocity": 0.59,
      "hand": "right"
    },
    {
      "midi": 63,
      "time": 10.8,
      "duration": 0.6,
      "velocity": 0.62,
      "hand": "right"
    },
    {
      "midi": 68,
      "time": 11.4,
      "duration": 0.6,
      "velocity": 0.56,
      "hand": "right"
    },
    {
      "midi": 66,
      "time": 12,
      "duration": 0.6,
      "velocity": 0.54,
      "hand": "right"
    },
    {
      "midi": 68,
      "time": 12.6,
      "duration": 0.6,
      "velocity": 0.62,
      "hand": "right"
    },
    {
      "midi": 69,
      "time": 13.2,
      "duration": 0.6,
      "velocity": 0.59,
      "hand": "right"
    },
    {
      "midi": 71,
      "time": 13.8,
      "duration": 0.6,
      "velocity": 0.66,
      "hand": "right"
    },
    {
      "midi": 73,
      "time": 14.4,
      "duration": 0.6,
      "velocity": 0.61,
      "hand": "right"
    },
    {
      "midi": 68,
      "time": 15,
      "duration": 1.2,
      "velocity": 0.48,
      "hand": "right"
    },
    {
      "midi": 66,
      "time": 16.2,
      "duration": 0.9,
      "velocity": 0.55,
      "hand": "right"
    },
    {
      "midi": 64,
      "time": 17.1,
      "duration": 0.36,
      "velocity": 0.54,
      "hand": "right"
    },
    {
      "midi": 76,
      "time": 19.8,
      "duration": 1.2,
      "velocity": 0.52,
      "hand": "right"
    },
    {
      "midi": 74,
      "time": 21,
      "duration": 0.6,
      "velocity": 0.51,
      "hand": "right"
    },
    {
      "midi": 73,
      "time": 21.6,
      "duration": 0.6,
      "velocity": 0.55,
      "hand": "right"
    },
    {
      "midi": 74,
      "time": 22.2,
      "duration": 1.2,
      "velocity": 0.63,
      "hand": "right"
    },
    {
      "midi": 73,
      "time": 23.4,
      "duration": 1.2,
      "velocity": 0.58,
      "hand": "right"
    },
    {
      "midi": 71,
      "time": 24.6,
      "duration": 0.6,
      "velocity": 0.56,
      "hand": "right"
    },
    {
      "midi": 73,
      "time": 25.2,
      "duration": 0.6,
      "velocity": 0.61,
      "hand": "right"
    },
    {
      "midi": 69,
      "time": 25.8,
      "duration": 0.6,
      "velocity": 0.54,
      "hand": "right"
    },
    {
      "midi": 71,
      "time": 26.4,
      "duration": 0.6,
      "velocity": 0.65,
      "hand": "right"
    },
    {
      "midi": 68,
      "time": 27,
      "duration": 0.9,
      "velocity": 0.54,
      "hand": "right"
    },
    {
      "midi": 66,
      "time": 27.9,
      "duration": 0.36,
      "velocity": 0.58,
      "hand": "right"
    },
    {
      "midi": 69,
      "time": 28.8,
      "duration": 0.585,
      "velocity": 0.66,
      "hand": "right"
    },
    {
      "midi": 69,
      "time": 29.4,
      "duration": 0.6,
      "velocity": 0.59,
      "hand": "right"
    },
    {
      "midi": 68,
      "time": 30,
      "duration": 0.6,
      "velocity": 0.55,
      "hand": "right"
    },
    {
      "midi": 69,
      "time": 30.6,
      "duration": 0.6,
      "velocity": 0.58,
      "hand": "right"
    },
    {
      "midi": 71,
      "time": 31.2,
      "duration": 0.6,
      "velocity": 0.63,
      "hand": "right"
    },
    {
      "midi": 69,
      "time": 31.8,
      "duration": 1.2,
      "velocity": 0.55,
      "hand": "right"
    },
    {
      "midi": 64,
      "time": 33,
      "duration": 0.6,
      "velocity": 0.54,
      "hand": "right"
    },
    {
      "midi": 73,
      "time": 33.6,
      "duration": 0.585,
      "velocity": 0.74,
      "hand": "right"
    },
    {
      "midi": 73,
      "time": 34.2,
      "duration": 0.6,
      "velocity": 0.61,
      "hand": "right"
    },
    {
      "midi": 71,
      "time": 34.8,
      "duration": 0.6,
      "velocity": 0.54,
      "hand": "right"
    },
    {
      "midi": 73,
      "time": 35.4,
      "duration": 0.6,
      "velocity": 0.63,
      "hand": "right"
    },
    {
      "midi": 74,
      "time": 36,
      "duration": 0.6,
      "velocity": 0.66,
      "hand": "right"
    },
    {
      "midi": 73,
      "time": 36.6,
      "duration": 1.2,
      "velocity": 0.57,
      "hand": "right"
    },
    {
      "midi": 71,
      "time": 37.8,
      "duration": 0.6,
      "velocity": 0.58,
      "hand": "right"
    },
    {
      "midi": 73,
      "time": 38.4,
      "duration": 0.6,
      "velocity": 0.61,
      "hand": "right"
    },
    {
      "midi": 74,
      "time": 39,
      "duration": 0.6,
      "velocity": 0.62,
      "hand": "right"
    },
    {
      "midi": 73,
      "time": 39.6,
      "duration": 0.6,
      "velocity": 0.63,
      "hand": "right"
    },
    {
      "midi": 71,
      "time": 40.2,
      "duration": 0.6,
      "velocity": 0.54,
      "hand": "right"
    },
    {
      "midi": 69,
      "time": 40.8,
      "duration": 0.6,
      "velocity": 0.55,
      "hand": "right"
    },
    {
      "midi": 68,
      "time": 41.4,
      "duration": 1.2,
      "velocity": 0.59,
      "hand": "right"
    },
    {
      "midi": 62,
      "time": 42,
      "duration": 0.6,
      "velocity": 0.54,
      "hand": "right"
    },
    {
      "midi": 69,
      "time": 42.6,
      "duration": 0.6,
      "velocity": 0.62,
      "hand": "right"
    },
    {
      "midi": 74,
      "time": 43.2,
      "duration": 0.6,
      "velocity": 0.66,
      "hand": "right"
    },
    {
      "midi": 73,
      "time": 43.8,
      "duration": 1.2,
      "velocity": 0.59,
      "hand": "right"
    },
    {
      "midi": 71,
      "time": 45,
      "duration": 0.9,
      "velocity": 0.56,
      "hand": "right"
    },
    {
      "midi": 69,
      "time": 45.9,
      "duration": 0.36,
      "velocity": 0.55,
      "hand": "right"
    }
  ],
  "notes2Hands": [
    {
      "midi": 45,
      "time": 0,
      "duration": 0.585,
      "velocity": 0.53,
      "hand": "left"
    },
    {
      "midi": 57,
      "time": 0,
      "duration": 0.585,
      "velocity": 0.53,
      "hand": "left"
    },
    {
      "midi": 61,
      "time": 0,
      "duration": 0.585,
      "velocity": 0.54,
      "hand": "right"
    },
    {
      "midi": 69,
      "time": 0,
      "duration": 0.585,
      "velocity": 0.54,
      "hand": "right"
    },
    {
      "midi": 45,
      "time": 0.6,
      "duration": 1.185,
      "velocity": 0.6,
      "hand": "left"
    },
    {
      "midi": 57,
      "time": 0.6,
      "duration": 1.185,
      "velocity": 0.6,
      "hand": "left"
    },
    {
      "midi": 61,
      "time": 0.6,
      "duration": 1.185,
      "velocity": 0.57,
      "hand": "right"
    },
    {
      "midi": 69,
      "time": 0.6,
      "duration": 1.2,
      "velocity": 0.57,
      "hand": "right"
    },
    {
      "midi": 45,
      "time": 1.8,
      "duration": 0.6,
      "velocity": 0.64,
      "hand": "left"
    },
    {
      "midi": 57,
      "time": 1.8,
      "duration": 0.585,
      "velocity": 0.64,
      "hand": "left"
    },
    {
      "midi": 61,
      "time": 1.8,
      "duration": 0.6,
      "velocity": 0.5,
      "hand": "right"
    },
    {
      "midi": 64,
      "time": 1.8,
      "duration": 0.585,
      "velocity": 0.5,
      "hand": "right"
    },
    {
      "midi": 49,
      "time": 2.4,
      "duration": 0.6,
      "velocity": 0.63,
      "hand": "left"
    },
    {
      "midi": 57,
      "time": 2.4,
      "duration": 0.6,
      "velocity": 0.63,
      "hand": "left"
    },
    {
      "midi": 64,
      "time": 2.4,
      "duration": 0.585,
      "velocity": 0.69,
      "hand": "right"
    },
    {
      "midi": 69,
      "time": 2.4,
      "duration": 0.6,
      "velocity": 0.69,
      "hand": "right"
    },
    {
      "midi": 52,
      "time": 3,
      "duration": 1.185,
      "velocity": 0.57,
      "hand": "left"
    },
    {
      "midi": 56,
      "time": 3,
      "duration": 1.185,
      "velocity": 0.57,
      "hand": "left"
    },
    {
      "midi": 64,
      "time": 3,
      "duration": 1.185,
      "velocity": 0.64,
      "hand": "right"
    },
    {
      "midi": 71,
      "time": 3,
      "duration": 1.2,
      "velocity": 0.64,
      "hand": "right"
    },
    {
      "midi": 52,
      "time": 4.2,
      "duration": 1.2,
      "velocity": 0.58,
      "hand": "left"
    },
    {
      "midi": 56,
      "time": 4.2,
      "duration": 1.2,
      "velocity": 0.58,
      "hand": "left"
    },
    {
      "midi": 64,
      "time": 4.2,
      "duration": 1.185,
      "velocity": 0.51,
      "hand": "right"
    },
    {
      "midi": 57,
      "time": 5.4,
      "duration": 0.6,
      "velocity": 0.62,
      "hand": "left"
    },
    {
      "midi": 64,
      "time": 5.4,
      "duration": 0.585,
      "velocity": 0.71,
      "hand": "right"
    },
    {
      "midi": 73,
      "time": 5.4,
      "duration": 0.6,
      "velocity": 0.71,
      "hand": "right"
    },
    {
      "midi": 56,
      "time": 6,
      "duration": 0.6,
      "velocity": 0.62,
      "hand": "left"
    },
    {
      "midi": 59,
      "time": 6,
      "duration": 0.6,
      "velocity": 0.62,
      "hand": "left"
    },
    {
      "midi": 64,
      "time": 6,
      "duration": 0.585,
      "velocity": 0.57,
      "hand": "right"
    },
    {
      "midi": 71,
      "time": 6,
      "duration": 0.6,
      "velocity": 0.57,
      "hand": "right"
    },
    {
      "midi": 57,
      "time": 6.6,
      "duration": 0.585,
      "velocity": 0.57,
      "hand": "left"
    },
    {
      "midi": 64,
      "time": 6.6,
      "duration": 0.6,
      "velocity": 0.62,
      "hand": "right"
    },
    {
      "midi": 73,
      "time": 6.6,
      "duration": 0.6,
      "velocity": 0.62,
      "hand": "right"
    },
    {
      "midi": 50,
      "time": 7.2,
      "duration": 0.6,
      "velocity": 0.53,
      "hand": "left"
    },
    {
      "midi": 57,
      "time": 7.2,
      "duration": 0.585,
      "velocity": 0.53,
      "hand": "left"
    },
    {
      "midi": 66,
      "time": 7.2,
      "duration": 0.6,
      "velocity": 0.61,
      "hand": "right"
    },
    {
      "midi": 74,
      "time": 7.2,
      "duration": 0.6,
      "velocity": 0.61,
      "hand": "right"
    },
    {
      "midi": 52,
      "time": 7.8,
      "duration": 1.185,
      "velocity": 0.6,
      "hand": "left"
    },
    {
      "midi": 57,
      "time": 7.8,
      "duration": 1.2,
      "velocity": 0.6,
      "hand": "left"
    },
    {
      "midi": 64,
      "time": 7.8,
      "duration": 1.185,
      "velocity": 0.57,
      "hand": "right"
    },
    {
      "midi": 73,
      "time": 7.8,
      "duration": 1.2,
      "velocity": 0.57,
      "hand": "right"
    },
    {
      "midi": 52,
      "time": 9,
      "duration": 0.6,
      "velocity": 0.57,
      "hand": "left"
    },
    {
      "midi": 56,
      "time": 9,
      "duration": 0.6,
      "velocity": 0.57,
      "hand": "left"
    },
    {
      "midi": 64,
      "time": 9,
      "duration": 0.6,
      "velocity": 0.58,
      "hand": "right"
    },
    {
      "midi": 71,
      "time": 9,
      "duration": 0.6,
      "velocity": 0.58,
      "hand": "right"
    },
    {
      "midi": 54,
      "time": 9.6,
      "duration": 0.585,
      "velocity": 0.65,
      "hand": "left"
    },
    {
      "midi": 57,
      "time": 9.6,
      "duration": 0.585,
      "velocity": 0.65,
      "hand": "left"
    },
    {
      "midi": 61,
      "time": 9.6,
      "duration": 0.585,
      "velocity": 0.55,
      "hand": "right"
    },
    {
      "midi": 69,
      "time": 9.6,
      "duration": 0.585,
      "velocity": 0.55,
      "hand": "right"
    },
    {
      "midi": 54,
      "time": 10.2,
      "duration": 1.2,
      "velocity": 0.61,
      "hand": "left"
    },
    {
      "midi": 57,
      "time": 10.2,
      "duration": 1.2,
      "velocity": 0.61,
      "hand": "left"
    },
    {
      "midi": 61,
      "time": 10.2,
      "duration": 0.6,
      "velocity": 0.53,
      "hand": "right"
    },
    {
      "midi": 69,
      "time": 10.2,
      "duration": 1.2,
      "velocity": 0.59,
      "hand": "right"
    },
    {
      "midi": 63,
      "time": 10.8,
      "duration": 0.6,
      "velocity": 0.62,
      "hand": "right"
    },
    {
      "midi": 52,
      "time": 11.4,
      "duration": 0.6,
      "velocity": 0.63,
      "hand": "left"
    },
    {
      "midi": 59,
      "time": 11.4,
      "duration": 0.585,
      "velocity": 0.63,
      "hand": "left"
    },
    {
      "midi": 64,
      "time": 11.4,
      "duration": 0.6,
      "velocity": 0.56,
      "hand": "right"
    },
    {
      "midi": 68,
      "time": 11.4,
      "duration": 0.6,
      "velocity": 0.56,
      "hand": "right"
    },
    {
      "midi": 47,
      "time": 12,
      "duration": 0.6,
      "velocity": 0.59,
      "hand": "left"
    },
    {
      "midi": 59,
      "time": 12,
      "duration": 0.585,
      "velocity": 0.59,
      "hand": "left"
    },
    {
      "midi": 63,
      "time": 12,
      "duration": 0.6,
      "velocity": 0.54,
      "hand": "right"
    },
    {
      "midi": 66,
      "time": 12,
      "duration": 0.6,
      "velocity": 0.54,
      "hand": "right"
    },
    {
      "midi": 52,
      "time": 12.6,
      "duration": 0.6,
      "velocity": 0.59,
      "hand": "left"
    },
    {
      "midi": 59,
      "time": 12.6,
      "duration": 0.585,
      "velocity": 0.59,
      "hand": "left"
    },
    {
      "midi": 64,
      "time": 12.6,
      "duration": 0.585,
      "velocity": 0.62,
      "hand": "right"
    },
    {
      "midi": 68,
      "time": 12.6,
      "duration": 0.6,
      "velocity": 0.62,
      "hand": "right"
    },
    {
      "midi": 54,
      "time": 13.2,
      "duration": 0.6,
      "velocity": 0.57,
      "hand": "left"
    },
    {
      "midi": 59,
      "time": 13.2,
      "duration": 0.6,
      "velocity": 0.57,
      "hand": "left"
    },
    {
      "midi": 64,
      "time": 13.2,
      "duration": 0.585,
      "velocity": 0.59,
      "hand": "right"
    },
    {
      "midi": 69,
      "time": 13.2,
      "duration": 0.6,
      "velocity": 0.59,
      "hand": "right"
    },
    {
      "midi": 56,
      "time": 13.8,
      "duration": 0.6,
      "velocity": 0.69,
      "hand": "left"
    },
    {
      "midi": 64,
      "time": 13.8,
      "duration": 0.585,
      "velocity": 0.66,
      "hand": "right"
    },
    {
      "midi": 71,
      "time": 13.8,
      "duration": 0.6,
      "velocity": 0.66,
      "hand": "right"
    },
    {
      "midi": 57,
      "time": 14.4,
      "duration": 0.6,
      "velocity": 0.54,
      "hand": "left"
    },
    {
      "midi": 61,
      "time": 14.4,
      "duration": 0.6,
      "velocity": 0.54,
      "hand": "right"
    },
    {
      "midi": 64,
      "time": 14.4,
      "duration": 0.585,
      "velocity": 0.61,
      "hand": "right"
    },
    {
      "midi": 73,
      "time": 14.4,
      "duration": 0.6,
      "velocity": 0.61,
      "hand": "right"
    },
    {
      "midi": 59,
      "time": 15,
      "duration": 1.2,
      "velocity": 0.59,
      "hand": "left"
    },
    {
      "midi": 64,
      "time": 15,
      "duration": 1.2,
      "velocity": 0.48,
      "hand": "right"
    },
    {
      "midi": 68,
      "time": 15,
      "duration": 1.2,
      "velocity": 0.48,
      "hand": "right"
    },
    {
      "midi": 47,
      "time": 16.2,
      "duration": 0.9,
      "velocity": 0.57,
      "hand": "left"
    },
    {
      "midi": 57,
      "time": 16.2,
      "duration": 0.9,
      "velocity": 0.57,
      "hand": "left"
    },
    {
      "midi": 63,
      "time": 16.2,
      "duration": 0.9,
      "velocity": 0.55,
      "hand": "right"
    },
    {
      "midi": 66,
      "time": 16.2,
      "duration": 0.9,
      "velocity": 0.55,
      "hand": "right"
    },
    {
      "midi": 52,
      "time": 17.1,
      "duration": 0.285,
      "velocity": 0.61,
      "hand": "left"
    },
    {
      "midi": 56,
      "time": 17.1,
      "duration": 0.285,
      "velocity": 0.61,
      "hand": "left"
    },
    {
      "midi": 64,
      "time": 17.1,
      "duration": 0.285,
      "velocity": 0.54,
      "hand": "right"
    },
    {
      "midi": 52,
      "time": 17.4,
      "duration": 1.8,
      "velocity": 0.57,
      "hand": "left"
    },
    {
      "midi": 56,
      "time": 17.4,
      "duration": 1.8,
      "velocity": 0.57,
      "hand": "left"
    },
    {
      "midi": 64,
      "time": 17.4,
      "duration": 1.8,
      "velocity": 0.57,
      "hand": "right"
    },
    {
      "midi": 52,
      "time": 19.8,
      "duration": 1.185,
      "velocity": 0.5,
      "hand": "left"
    },
    {
      "midi": 61,
      "time": 19.8,
      "duration": 1.2,
      "velocity": 0.5,
      "hand": "right"
    },
    {
      "midi": 64,
      "time": 19.8,
      "duration": 1.185,
      "velocity": 0.52,
      "hand": "right"
    },
    {
      "midi": 76,
      "time": 19.8,
      "duration": 1.2,
      "velocity": 0.52,
      "hand": "right"
    },
    {
      "midi": 52,
      "time": 21,
      "duration": 0.585,
      "velocity": 0.53,
      "hand": "left"
    },
    {
      "midi": 59,
      "time": 21,
      "duration": 0.6,
      "velocity": 0.53,
      "hand": "left"
    },
    {
      "midi": 64,
      "time": 21,
      "duration": 0.585,
      "velocity": 0.51,
      "hand": "right"
    },
    {
      "midi": 74,
      "time": 21,
      "duration": 0.6,
      "velocity": 0.51,
      "hand": "right"
    },
    {
      "midi": 52,
      "time": 21.6,
      "duration": 0.585,
      "velocity": 0.53,
      "hand": "left"
    },
    {
      "midi": 57,
      "time": 21.6,
      "duration": 0.6,
      "velocity": 0.53,
      "hand": "left"
    },
    {
      "midi": 64,
      "time": 21.6,
      "duration": 0.585,
      "velocity": 0.55,
      "hand": "right"
    },
    {
      "midi": 73,
      "time": 21.6,
      "duration": 0.6,
      "velocity": 0.55,
      "hand": "right"
    },
    {
      "midi": 52,
      "time": 22.2,
      "duration": 1.185,
      "velocity": 0.63,
      "hand": "left"
    },
    {
      "midi": 59,
      "time": 22.2,
      "duration": 1.2,
      "velocity": 0.63,
      "hand": "left"
    },
    {
      "midi": 64,
      "time": 22.2,
      "duration": 1.185,
      "velocity": 0.63,
      "hand": "right"
    },
    {
      "midi": 74,
      "time": 22.2,
      "duration": 1.2,
      "velocity": 0.63,
      "hand": "right"
    },
    {
      "midi": 52,
      "time": 23.4,
      "duration": 1.185,
      "velocity": 0.57,
      "hand": "left"
    },
    {
      "midi": 57,
      "time": 23.4,
      "duration": 1.2,
      "velocity": 0.57,
      "hand": "left"
    },
    {
      "midi": 64,
      "time": 23.4,
      "duration": 1.185,
      "velocity": 0.58,
      "hand": "right"
    },
    {
      "midi": 73,
      "time": 23.4,
      "duration": 1.2,
      "velocity": 0.58,
      "hand": "right"
    },
    {
      "midi": 52,
      "time": 24.6,
      "duration": 0.585,
      "velocity": 0.57,
      "hand": "left"
    },
    {
      "midi": 56,
      "time": 24.6,
      "duration": 0.6,
      "velocity": 0.57,
      "hand": "left"
    },
    {
      "midi": 64,
      "time": 24.6,
      "duration": 0.585,
      "velocity": 0.56,
      "hand": "right"
    },
    {
      "midi": 71,
      "time": 24.6,
      "duration": 0.6,
      "velocity": 0.56,
      "hand": "right"
    },
    {
      "midi": 52,
      "time": 25.2,
      "duration": 0.6,
      "velocity": 0.6,
      "hand": "left"
    },
    {
      "midi": 57,
      "time": 25.2,
      "duration": 0.6,
      "velocity": 0.6,
      "hand": "left"
    },
    {
      "midi": 64,
      "time": 25.2,
      "duration": 0.585,
      "velocity": 0.61,
      "hand": "right"
    },
    {
      "midi": 73,
      "time": 25.2,
      "duration": 0.6,
      "velocity": 0.61,
      "hand": "right"
    },
    {
      "midi": 49,
      "time": 25.8,
      "duration": 0.6,
      "velocity": 0.65,
      "hand": "left"
    },
    {
      "midi": 61,
      "time": 25.8,
      "duration": 0.6,
      "velocity": 0.65,
      "hand": "right"
    },
    {
      "midi": 64,
      "time": 25.8,
      "duration": 0.6,
      "velocity": 0.54,
      "hand": "right"
    },
    {
      "midi": 69,
      "time": 25.8,
      "duration": 0.6,
      "velocity": 0.54,
      "hand": "right"
    },
    {
      "midi": 50,
      "time": 26.4,
      "duration": 0.6,
      "velocity": 0.59,
      "hand": "left"
    },
    {
      "midi": 59,
      "time": 26.4,
      "duration": 0.585,
      "velocity": 0.59,
      "hand": "left"
    },
    {
      "midi": 66,
      "time": 26.4,
      "duration": 0.6,
      "velocity": 0.65,
      "hand": "right"
    },
    {
      "midi": 71,
      "time": 26.4,
      "duration": 0.6,
      "velocity": 0.65,
      "hand": "right"
    },
    {
      "midi": 52,
      "time": 27,
      "duration": 1.185,
      "velocity": 0.54,
      "hand": "left"
    },
    {
      "midi": 59,
      "time": 27,
      "duration": 0.9,
      "velocity": 0.6,
      "hand": "left"
    },
    {
      "midi": 64,
      "time": 27,
      "duration": 1.185,
      "velocity": 0.54,
      "hand": "right"
    },
    {
      "midi": 68,
      "time": 27,
      "duration": 0.9,
      "velocity": 0.54,
      "hand": "right"
    },
    {
      "midi": 57,
      "time": 27.9,
      "duration": 0.3,
      "velocity": 0.58,
      "hand": "left"
    },
    {
      "midi": 66,
      "time": 27.9,
      "duration": 0.3,
      "velocity": 0.58,
      "hand": "right"
    },
    {
      "midi": 52,
      "time": 28.2,
      "duration": 0.6,
      "velocity": 0.57,
      "hand": "left"
    },
    {
      "midi": 56,
      "time": 28.2,
      "duration": 0.6,
      "velocity": 0.57,
      "hand": "left"
    },
    {
      "midi": 64,
      "time": 28.2,
      "duration": 0.585,
      "velocity": 0.58,
      "hand": "right"
    },
    {
      "midi": 61,
      "time": 28.8,
      "duration": 0.585,
      "velocity": 0.68,
      "hand": "right"
    },
    {
      "midi": 64,
      "time": 28.8,
      "duration": 0.585,
      "velocity": 0.66,
      "hand": "right"
    },
    {
      "midi": 69,
      "time": 28.8,
      "duration": 0.585,
      "velocity": 0.66,
      "hand": "right"
    },
    {
      "midi": 61,
      "time": 29.4,
      "duration": 0.6,
      "velocity": 0.62,
      "hand": "right"
    },
    {
      "midi": 64,
      "time": 29.4,
      "duration": 0.585,
      "velocity": 0.59,
      "hand": "right"
    },
    {
      "midi": 69,
      "time": 29.4,
      "duration": 0.6,
      "velocity": 0.59,
      "hand": "right"
    },
    {
      "midi": 59,
      "time": 30,
      "duration": 0.6,
      "velocity": 0.55,
      "hand": "left"
    },
    {
      "midi": 64,
      "time": 30,
      "duration": 0.585,
      "velocity": 0.55,
      "hand": "right"
    },
    {
      "midi": 68,
      "time": 30,
      "duration": 0.6,
      "velocity": 0.55,
      "hand": "right"
    },
    {
      "midi": 61,
      "time": 30.6,
      "duration": 0.6,
      "velocity": 0.59,
      "hand": "right"
    },
    {
      "midi": 64,
      "time": 30.6,
      "duration": 0.585,
      "velocity": 0.58,
      "hand": "right"
    },
    {
      "midi": 69,
      "time": 30.6,
      "duration": 0.6,
      "velocity": 0.58,
      "hand": "right"
    },
    {
      "midi": 62,
      "time": 31.2,
      "duration": 0.6,
      "velocity": 0.63,
      "hand": "right"
    },
    {
      "midi": 64,
      "time": 31.2,
      "duration": 0.585,
      "velocity": 0.63,
      "hand": "right"
    },
    {
      "midi": 71,
      "time": 31.2,
      "duration": 0.6,
      "velocity": 0.63,
      "hand": "right"
    },
    {
      "midi": 61,
      "time": 31.8,
      "duration": 1.2,
      "velocity": 0.61,
      "hand": "right"
    },
    {
      "midi": 64,
      "time": 31.8,
      "duration": 1.185,
      "velocity": 0.55,
      "hand": "right"
    },
    {
      "midi": 69,
      "time": 31.8,
      "duration": 1.2,
      "velocity": 0.55,
      "hand": "right"
    },
    {
      "midi": 57,
      "time": 33,
      "duration": 0.585,
      "velocity": 0.6,
      "hand": "left"
    },
    {
      "midi": 64,
      "time": 33,
      "duration": 0.6,
      "velocity": 0.54,
      "hand": "right"
    },
    {
      "midi": 57,
      "time": 33.6,
      "duration": 0.585,
      "velocity": 0.53,
      "hand": "left"
    },
    {
      "midi": 69,
      "time": 33.6,
      "duration": 0.585,
      "velocity": 0.74,
      "hand": "right"
    },
    {
      "midi": 73,
      "time": 33.6,
      "duration": 0.585,
      "velocity": 0.74,
      "hand": "right"
    },
    {
      "midi": 57,
      "time": 34.2,
      "duration": 0.585,
      "velocity": 0.59,
      "hand": "left"
    },
    {
      "midi": 69,
      "time": 34.2,
      "duration": 0.6,
      "velocity": 0.61,
      "hand": "right"
    },
    {
      "midi": 73,
      "time": 34.2,
      "duration": 0.6,
      "velocity": 0.61,
      "hand": "right"
    },
    {
      "midi": 57,
      "time": 34.8,
      "duration": 0.585,
      "velocity": 0.61,
      "hand": "left"
    },
    {
      "midi": 68,
      "time": 34.8,
      "duration": 0.6,
      "velocity": 0.54,
      "hand": "right"
    },
    {
      "midi": 71,
      "time": 34.8,
      "duration": 0.6,
      "velocity": 0.54,
      "hand": "right"
    },
    {
      "midi": 57,
      "time": 35.4,
      "duration": 0.6,
      "velocity": 0.59,
      "hand": "left"
    },
    {
      "midi": 69,
      "time": 35.4,
      "duration": 0.6,
      "velocity": 0.63,
      "hand": "right"
    },
    {
      "midi": 73,
      "time": 35.4,
      "duration": 0.6,
      "velocity": 0.63,
      "hand": "right"
    },
    {
      "midi": 50,
      "time": 36,
      "duration": 0.6,
      "velocity": 0.54,
      "hand": "left"
    },
    {
      "midi": 71,
      "time": 36,
      "duration": 0.6,
      "velocity": 0.66,
      "hand": "right"
    },
    {
      "midi": 74,
      "time": 36,
      "duration": 0.6,
      "velocity": 0.66,
      "hand": "right"
    },
    {
      "midi": 52,
      "time": 36.6,
      "duration": 1.185,
      "velocity": 0.57,
      "hand": "left"
    },
    {
      "midi": 69,
      "time": 36.6,
      "duration": 1.2,
      "velocity": 0.57,
      "hand": "right"
    },
    {
      "midi": 73,
      "time": 36.6,
      "duration": 1.2,
      "velocity": 0.57,
      "hand": "right"
    },
    {
      "midi": 52,
      "time": 37.8,
      "duration": 0.6,
      "velocity": 0.59,
      "hand": "left"
    },
    {
      "midi": 64,
      "time": 37.8,
      "duration": 0.585,
      "velocity": 0.58,
      "hand": "right"
    },
    {
      "midi": 71,
      "time": 37.8,
      "duration": 0.6,
      "velocity": 0.58,
      "hand": "right"
    },
    {
      "midi": 57,
      "time": 38.4,
      "duration": 0.6,
      "velocity": 0.55,
      "hand": "left"
    },
    {
      "midi": 64,
      "time": 38.4,
      "duration": 0.585,
      "velocity": 0.55,
      "hand": "right"
    },
    {
      "midi": 69,
      "time": 38.4,
      "duration": 0.6,
      "velocity": 0.61,
      "hand": "right"
    },
    {
      "midi": 73,
      "time": 38.4,
      "duration": 0.6,
      "velocity": 0.61,
      "hand": "right"
    },
    {
      "midi": 59,
      "time": 39,
      "duration": 0.6,
      "velocity": 0.58,
      "hand": "left"
    },
    {
      "midi": 64,
      "time": 39,
      "duration": 0.585,
      "velocity": 0.58,
      "hand": "right"
    },
    {
      "midi": 68,
      "time": 39,
      "duration": 0.6,
      "velocity": 0.62,
      "hand": "right"
    },
    {
      "midi": 74,
      "time": 39,
      "duration": 0.6,
      "velocity": 0.62,
      "hand": "right"
    },
    {
      "midi": 57,
      "time": 39.6,
      "duration": 0.6,
      "velocity": 0.6,
      "hand": "left"
    },
    {
      "midi": 64,
      "time": 39.6,
      "duration": 0.585,
      "velocity": 0.6,
      "hand": "right"
    },
    {
      "midi": 69,
      "time": 39.6,
      "duration": 0.6,
      "velocity": 0.63,
      "hand": "right"
    },
    {
      "midi": 73,
      "time": 39.6,
      "duration": 0.6,
      "velocity": 0.63,
      "hand": "right"
    },
    {
      "midi": 56,
      "time": 40.2,
      "duration": 0.6,
      "velocity": 0.61,
      "hand": "left"
    },
    {
      "midi": 64,
      "time": 40.2,
      "duration": 0.6,
      "velocity": 0.54,
      "hand": "right"
    },
    {
      "midi": 71,
      "time": 40.2,
      "duration": 0.6,
      "velocity": 0.54,
      "hand": "right"
    },
    {
      "midi": 54,
      "time": 40.8,
      "duration": 0.6,
      "velocity": 0.55,
      "hand": "left"
    },
    {
      "midi": 59,
      "time": 40.8,
      "duration": 0.585,
      "velocity": 0.55,
      "hand": "left"
    },
    {
      "midi": 63,
      "time": 40.8,
      "duration": 0.6,
      "velocity": 0.55,
      "hand": "right"
    },
    {
      "midi": 69,
      "time": 40.8,
      "duration": 0.6,
      "velocity": 0.55,
      "hand": "right"
    },
    {
      "midi": 52,
      "time": 41.4,
      "duration": 0.6,
      "velocity": 0.55,
      "hand": "left"
    },
    {
      "midi": 59,
      "time": 41.4,
      "duration": 1.2,
      "velocity": 0.6,
      "hand": "left"
    },
    {
      "midi": 64,
      "time": 41.4,
      "duration": 1.185,
      "velocity": 0.59,
      "hand": "right"
    },
    {
      "midi": 68,
      "time": 41.4,
      "duration": 1.2,
      "velocity": 0.59,
      "hand": "right"
    },
    {
      "midi": 50,
      "time": 42,
      "duration": 0.6,
      "velocity": 0.54,
      "hand": "left"
    },
    {
      "midi": 49,
      "time": 42.6,
      "duration": 0.6,
      "velocity": 0.57,
      "hand": "left"
    },
    {
      "midi": 57,
      "time": 42.6,
      "duration": 1.185,
      "velocity": 0.59,
      "hand": "left"
    },
    {
      "midi": 64,
      "time": 42.6,
      "duration": 0.6,
      "velocity": 0.62,
      "hand": "right"
    },
    {
      "midi": 69,
      "time": 42.6,
      "duration": 0.6,
      "velocity": 0.62,
      "hand": "right"
    },
    {
      "midi": 50,
      "time": 43.2,
      "duration": 0.6,
      "velocity": 0.61,
      "hand": "left"
    },
    {
      "midi": 66,
      "time": 43.2,
      "duration": 0.6,
      "velocity": 0.66,
      "hand": "right"
    },
    {
      "midi": 74,
      "time": 43.2,
      "duration": 0.6,
      "velocity": 0.66,
      "hand": "right"
    },
    {
      "midi": 52,
      "time": 43.8,
      "duration": 2.1,
      "velocity": 0.6,
      "hand": "left"
    },
    {
      "midi": 57,
      "time": 43.8,
      "duration": 1.2,
      "velocity": 0.58,
      "hand": "left"
    },
    {
      "midi": 64,
      "time": 43.8,
      "duration": 1.2,
      "velocity": 0.59,
      "hand": "right"
    },
    {
      "midi": 73,
      "time": 43.8,
      "duration": 1.2,
      "velocity": 0.59,
      "hand": "right"
    },
    {
      "midi": 56,
      "time": 45,
      "duration": 0.9,
      "velocity": 0.6,
      "hand": "left"
    },
    {
      "midi": 62,
      "time": 45,
      "duration": 0.9,
      "velocity": 0.56,
      "hand": "right"
    },
    {
      "midi": 71,
      "time": 45,
      "duration": 0.9,
      "velocity": 0.56,
      "hand": "right"
    },
    {
      "midi": 45,
      "time": 45.9,
      "duration": 0.285,
      "velocity": 0.61,
      "hand": "left"
    },
    {
      "midi": 57,
      "time": 45.9,
      "duration": 0.285,
      "velocity": 0.61,
      "hand": "left"
    },
    {
      "midi": 61,
      "time": 45.9,
      "duration": 0.285,
      "velocity": 0.55,
      "hand": "right"
    },
    {
      "midi": 69,
      "time": 45.9,
      "duration": 0.285,
      "velocity": 0.55,
      "hand": "right"
    },
    {
      "midi": 45,
      "time": 46.2,
      "duration": 1.8,
      "velocity": 0.61,
      "hand": "left"
    },
    {
      "midi": 57,
      "time": 46.2,
      "duration": 1.8,
      "velocity": 0.61,
      "hand": "left"
    },
    {
      "midi": 61,
      "time": 46.2,
      "duration": 1.8,
      "velocity": 0.57,
      "hand": "right"
    },
    {
      "midi": 69,
      "time": 46.2,
      "duration": 1.8,
      "velocity": 0.57,
      "hand": "right"
    }
  ]
}
