<svg xmlns="http://www.w3.org/2000/svg" viewBox="0 0 512 640" role="img" aria-labelledby="title desc">
  <title id="title">Ave Maria</title>
  <desc id="desc">Capa da Pianify para Ave Maria</desc>
  <defs>
    <radialGradient id="bg" cx="48%" cy="20%" r="84%">
      <stop offset="0%" stop-color="#fef3c7"/>
      <stop offset="48%" stop-color="#f59e0b"/>
      <stop offset="100%" stop-color="#3b0764"/>
    </radialGradient>
    <filter id="shadow" x="-30%" y="-30%" width="160%" height="160%">
      <feDropShadow dx="0" dy="18" stdDeviation="16" flood-color="#020617" flood-opacity="0.36"/>
    </filter>
  </defs>
  <rect width="512" height="640" rx="54" fill="#3b0764"/>
  <rect width="512" height="640" rx="54" fill="url(#bg)"/>
  <rect x="54" y="64" width="404" height="384" rx="38" fill="#fff" opacity="0.16" stroke="#fff" stroke-opacity="0.34" stroke-width="3"/>
  <path d="M70 132h372M70 380h372" stroke="#fff" stroke-opacity="0.28" stroke-width="5"/>
  <rect x="82" y="86" width="22" height="28" rx="5" fill="#020617" opacity="0.48"/>
      <rect x="82" y="398" width="22" height="28" rx="5" fill="#020617" opacity="0.48"/><rect x="126" y="86" width="22" height="28" rx="5" fill="#020617" opacity="0.48"/>
      <rect x="126" y="398" width="22" height="28" rx="5" fill="#020617" opacity="0.48"/><rect x="170" y="86" width="22" height="28" rx="5" fill="#020617" opacity="0.48"/>
      <rect x="170" y="398" width="22" height="28" rx="5" fill="#020617" opacity="0.48"/><rect x="214" y="86" width="22" height="28" rx="5" fill="#020617" opacity="0.48"/>
      <rect x="214" y="398" width="22" height="28" rx="5" fill="#020617" opacity="0.48"/><rect x="258" y="86" width="22" height="28" rx="5" fill="#020617" opacity="0.48"/>
      <rect x="258" y="398" width="22" height="28" rx="5" fill="#020617" opacity="0.48"/><rect x="302" y="86" width="22" height="28" rx="5" fill="#020617" opacity="0.48"/>
      <rect x="302" y="398" width="22" height="28" rx="5" fill="#020617" opacity="0.48"/><rect x="346" y="86" width="22" height="28" rx="5" fill="#020617" opacity="0.48"/>
      <rect x="346" y="398" width="22" height="28" rx="5" fill="#020617" opacity="0.48"/><rect x="390" y="86" width="22" height="28" rx="5" fill="#020617" opacity="0.48"/>
      <rect x="390" y="398" width="22" height="28" rx="5" fill="#020617" opacity="0.48"/>
  <path d="M92 158l7 14 15 4-15 5-7 14-7-14-15-5 15-4z" fill="#fef3c7" opacity="0.82"/>
  <path d="M420 192l7 14 15 4-15 5-7 14-7-14-15-5 15-4z" fill="#fef3c7" opacity="0.82"/>
  <g transform="translate(92 330) scale(0.56)" fill="#fef3c7" opacity="0.7">
    <path d="M0 44c0-13 16-20 30-14V0h9v58c0 13-16 21-30 15C-4 67-8 51 0 44z"/>
    <path d="M39 0c22 4 38 14 52 30v13C76 30 60 22 39 18z"/>
  </g>
  <g transform="translate(396 338) scale(0.5)" fill="#fef3c7" opacity="0.7">
    <path d="M0 44c0-13 16-20 30-14V0h9v58c0 13-16 21-30 15C-4 67-8 51 0 44z"/>
    <path d="M39 0c22 4 38 14 52 30v13C76 30 60 22 39 18z"/>
  </g>
  <path d="M0 424C82 360 146 386 224 426c98 50 176 34 288-38v252H0z" fill="#020617" opacity="0.32"/>
  <g filter="url(#shadow)">
    <path d="M158 386V232l98-78 98 78v154z" fill="#fef3c7" stroke="#111827" stroke-width="6" stroke-linecap="round" stroke-linejoin="round"/><path d="M256 154v232" stroke="#111827" stroke-width="6" stroke-linecap="round" stroke-linejoin="round" fill="none"/><path d="M206 386v-88c0-62 100-62 100 0v88" fill="#f59e0b" stroke="#111827" stroke-width="6" stroke-linecap="round" stroke-linejoin="round"/><path d="M182 232l74-112 74 112" fill="none" stroke="#111827" stroke-width="6" stroke-linecap="round" stroke-linejoin="round"/><circle cx="256" cy="236" r="28" fill="#f59e0b" stroke="#111827" stroke-width="6" stroke-linecap="round" stroke-linejoin="round"/><path d="M256 206v60M226 236h60" stroke="#111827" stroke-width="6" stroke-linecap="round" stroke-linejoin="round" fill="none"/>
  </g>
  <rect x="58" y="474" width="396" height="120" rx="32" fill="#020617" opacity="0.48"/>
  <text x="256" y="508" text-anchor="middle" fill="#fef3c7" opacity="0.88" font-family="Arial, sans-serif" font-size="12" font-weight="900" letter-spacing="3.4">INTRO DE FILMES</text>
  <text x="256" y="564" text-anchor="middle" fill="#fff" font-family="Georgia, 'Times New Roman', serif" font-size="36" font-weight="900">Ave Maria</text>
  
  <text x="256" y="618" text-anchor="middle" fill="#fff" opacity="0.72" font-family="Arial, sans-serif" font-size="12" font-weight="900" letter-spacing="2.6">CATEDRAL ILUMINADA</text>
</svg>
